<svg width="1034" height="534" viewBox="0 0 1034 534" fill="none" xmlns="http://www.w3.org/2000/svg">
<g clip-path="url(#clip0_4146_1747)">
<rect width="1033.2" height="534" fill="#F9F6F1"/>
<mask id="path-1-inside-1_4146_1747" fill="white">
<path d="M0 179H1033V357H0V179Z"/>
</mask>
<path d="M0 179H1033V357H0V179Z" fill="#FDFBF9"/>
<path d="M0 357V359.245H4.45259V357V354.755H0V357ZM13.3578 357V359.245H22.2629V357V354.755H13.3578V357ZM31.1681 357V359.245H40.0733V357V354.755H31.1681V357ZM48.9784 357V359.245H57.8836V357V354.755H48.9784V357ZM66.7888 357V359.245H75.694V357V354.755H66.7888V357ZM84.5991 357V359.245H93.5043V357V354.755H84.5991V357ZM102.409 357V359.245H111.315V357V354.755H102.409V357ZM120.22 357V359.245H129.125V357V354.755H120.22V357ZM138.03 357V359.245H146.935V357V354.755H138.03V357ZM155.841 357V359.245H164.746V357V354.755H155.841V357ZM173.651 357V359.245H182.556V357V354.755H173.651V357ZM191.461 357V359.245H200.366V357V354.755H191.461V357ZM209.272 357V359.245H218.177V357V354.755H209.272V357ZM227.082 357V359.245H235.987V357V354.755H227.082V357ZM244.892 357V359.245H253.797V357V354.755H244.892V357ZM262.703 357V359.245H271.608V357V354.755H262.703V357ZM280.513 357V359.245H289.418V357V354.755H280.513V357ZM298.323 357V359.245H307.228V357V354.755H298.323V357ZM316.134 357V359.245H325.039V357V354.755H316.134V357ZM333.944 357V359.245H342.849V357V354.755H333.944V357ZM351.754 357V359.245H360.66V357V354.755H351.754V357ZM369.565 357V359.245H378.47V357V354.755H369.565V357ZM387.375 357V359.245H396.28V357V354.755H387.375V357ZM405.185 357V359.245H414.091V357V354.755H405.185V357ZM422.996 357V359.245H431.901V357V354.755H422.996V357ZM440.806 357V359.245H449.711V357V354.755H440.806V357ZM458.617 357V359.245H467.522V357V354.755H458.617V357ZM476.427 357V359.245H485.332V357V354.755H476.427V357ZM494.237 357V359.245H503.142V357V354.755H494.237V357ZM512.048 357V359.245H520.953V357V354.755H512.048V357ZM529.858 357V359.245H538.763V357V354.755H529.858V357ZM547.668 357V359.245H556.573V357V354.755H547.668V357ZM565.479 357V359.245H574.384V357V354.755H565.479V357ZM583.289 357V359.245H592.194V357V354.755H583.289V357ZM601.099 357V359.245H610.004V357V354.755H601.099V357ZM618.909 357V359.245H627.815V357V354.755H618.909V357ZM636.72 357V359.245H645.625V357V354.755H636.72V357ZM654.53 357V359.245H663.435V357V354.755H654.53V357ZM672.34 357V359.245H681.245V357V354.755H672.34V357ZM690.151 357V359.245H699.056V357V354.755H690.151V357ZM707.961 357V359.245H716.866V357V354.755H707.961V357ZM725.771 357V359.245H734.676V357V354.755H725.771V357ZM743.582 357V359.245H752.487V357V354.755H743.582V357ZM761.392 357V359.245H770.297V357V354.755H761.392V357ZM779.202 357V359.245H788.107V357V354.755H779.202V357ZM797.012 357V359.245H805.918V357V354.755H797.012V357ZM814.823 357V359.245H823.728V357V354.755H814.823V357ZM832.633 357V359.245H841.538V357V354.755H832.633V357ZM850.443 357V359.245H859.349V357V354.755H850.443V357ZM868.254 357V359.245H877.159V357V354.755H868.254V357ZM886.064 357V359.245H894.969V357V354.755H886.064V357ZM903.874 357V359.245H912.779V357V354.755H903.874V357ZM921.685 357V359.245H930.59V357V354.755H921.685V357ZM939.495 357V359.245H948.4V357V354.755H939.495V357ZM957.305 357V359.245H966.21V357V354.755H957.305V357ZM975.115 357V359.245H984.021V357V354.755H975.115V357ZM992.926 357V359.245H1001.83V357V354.755H992.926V357ZM1010.74 357V359.245H1019.64V357V354.755H1010.74V357ZM1028.55 357V359.245H1033V357V354.755H1028.55V357ZM0 357V361.49H4.45259V357V352.51H0V357ZM13.3578 357V361.49H22.2629V357V352.51H13.3578V357ZM31.1681 357V361.49H40.0733V357V352.51H31.1681V357ZM48.9784 357V361.49H57.8836V357V352.51H48.9784V357ZM66.7888 357V361.49H75.694V357V352.51H66.7888V357ZM84.5991 357V361.49H93.5043V357V352.51H84.5991V357ZM102.409 357V361.49H111.315V357V352.51H102.409V357ZM120.22 357V361.49H129.125V357V352.51H120.22V357ZM138.03 357V361.49H146.935V357V352.51H138.03V357ZM155.841 357V361.49H164.746V357V352.51H155.841V357ZM173.651 357V361.49H182.556V357V352.51H173.651V357ZM191.461 357V361.49H200.366V357V352.51H191.461V357ZM209.272 357V361.49H218.177V357V352.51H209.272V357ZM227.082 357V361.49H235.987V357V352.51H227.082V357ZM244.892 357V361.49H253.797V357V352.51H244.892V357ZM262.703 357V361.49H271.608V357V352.51H262.703V357ZM280.513 357V361.49H289.418V357V352.51H280.513V357ZM298.323 357V361.49H307.228V357V352.51H298.323V357ZM316.134 357V361.49H325.039V357V352.51H316.134V357ZM333.944 357V361.49H342.849V357V352.51H333.944V357ZM351.754 357V361.49H360.66V357V352.51H351.754V357ZM369.565 357V361.49H378.47V357V352.51H369.565V357ZM387.375 357V361.49H396.28V357V352.51H387.375V357ZM405.185 357V361.49H414.091V357V352.51H405.185V357ZM422.996 357V361.49H431.901V357V352.51H422.996V357ZM440.806 357V361.49H449.711V357V352.51H440.806V357ZM458.617 357V361.49H467.522V357V352.51H458.617V357ZM476.427 357V361.49H485.332V357V352.51H476.427V357ZM494.237 357V361.49H503.142V357V352.51H494.237V357ZM512.048 357V361.49H520.953V357V352.51H512.048V357ZM529.858 357V361.49H538.763V357V352.51H529.858V357ZM547.668 357V361.49H556.573V357V352.51H547.668V357ZM565.479 357V361.49H574.384V357V352.51H565.479V357ZM583.289 357V361.49H592.194V357V352.51H583.289V357ZM601.099 357V361.49H610.004V357V352.51H601.099V357ZM618.909 357V361.49H627.815V357V352.51H618.909V357ZM636.72 357V361.49H645.625V357V352.51H636.72V357ZM654.53 357V361.49H663.435V357V352.51H654.53V357ZM672.34 357V361.49H681.245V357V352.51H672.34V357ZM690.151 357V361.49H699.056V357V352.51H690.151V357ZM707.961 357V361.49H716.866V357V352.51H707.961V357ZM725.771 357V361.49H734.676V357V352.51H725.771V357ZM743.582 357V361.49H752.487V357V352.51H743.582V357ZM761.392 357V361.49H770.297V357V352.51H761.392V357ZM779.202 357V361.49H788.107V357V352.51H779.202V357ZM797.012 357V361.49H805.918V357V352.51H797.012V357ZM814.823 357V361.49H823.728V357V352.51H814.823V357ZM832.633 357V361.49H841.538V357V352.51H832.633V357ZM850.443 357V361.49H859.349V357V352.51H850.443V357ZM868.254 357V361.49H877.159V357V352.51H868.254V357ZM886.064 357V361.49H894.969V357V352.51H886.064V357ZM903.874 357V361.49H912.779V357V352.51H903.874V357ZM921.685 357V361.49H930.59V357V352.51H921.685V357ZM939.495 357V361.49H948.4V357V352.51H939.495V357ZM957.305 357V361.49H966.21V357V352.51H957.305V357ZM975.115 357V361.49H984.021V357V352.51H975.115V357ZM992.926 357V361.49H1001.83V357V352.51H992.926V357ZM1010.74 357V361.49H1019.64V357V352.51H1010.74V357ZM1028.55 357V361.49H1033V357V352.51H1028.55V357Z" fill="#FDFBF9" mask="url(#path-1-inside-1_4146_1747)"/>
<mask id="path-3-inside-2_4146_1747" fill="white">
<path d="M177 0H856V178H177V0Z"/>
</mask>
<path d="M177 0H856V178H177V0Z" fill="#FDFBF9"/>
<path d="M177 178V180.245H181.467V178V175.755H177V178ZM190.401 178V180.245H199.336V178V175.755H190.401V178ZM208.27 178V180.245H217.204V178V175.755H208.27V178ZM226.138 178V180.245H235.072V178V175.755H226.138V178ZM244.007 178V180.245H252.941V178V175.755H244.007V178ZM261.875 178V180.245H270.809V178V175.755H261.875V178ZM279.743 178V180.245H288.678V178V175.755H279.743V178ZM297.612 178V180.245H306.546V178V175.755H297.612V178ZM315.48 178V180.245H324.414V178V175.755H315.48V178ZM333.349 178V180.245H342.283V178V175.755H333.349V178ZM351.217 178V180.245H360.151V178V175.755H351.217V178ZM369.085 178V180.245H378.02V178V175.755H369.085V178ZM386.954 178V180.245H395.888V178V175.755H386.954V178ZM404.822 178V180.245H413.757V178V175.755H404.822V178ZM422.691 178V180.245H431.625V178V175.755H422.691V178ZM440.559 178V180.245H449.493V178V175.755H440.559V178ZM458.428 178V180.245H467.362V178V175.755H458.428V178ZM476.296 178V180.245H485.23V178V175.755H476.296V178ZM494.164 178V180.245H503.099V178V175.755H494.164V178ZM512.033 178V180.245H520.967V178V175.755H512.033V178ZM529.901 178V180.245H538.835V178V175.755H529.901V178ZM547.77 178V180.245H556.704V178V175.755H547.77V178ZM565.638 178V180.245H574.572V178V175.755H565.638V178ZM583.506 178V180.245H592.441V178V175.755H583.506V178ZM601.375 178V180.245H610.309V178V175.755H601.375V178ZM619.243 178V180.245H628.177V178V175.755H619.243V178ZM637.112 178V180.245H646.046V178V175.755H637.112V178ZM654.98 178V180.245H663.914V178V175.755H654.98V178ZM672.848 178V180.245H681.783V178V175.755H672.848V178ZM690.717 178V180.245H699.651V178V175.755H690.717V178ZM708.585 178V180.245H717.519V178V175.755H708.585V178ZM726.454 178V180.245H735.388V178V175.755H726.454V178ZM744.322 178V180.245H753.256V178V175.755H744.322V178ZM762.19 178V180.245H771.125V178V175.755H762.19V178ZM780.059 178V180.245H788.993V178V175.755H780.059V178ZM797.927 178V180.245H806.862V178V175.755H797.927V178ZM815.796 178V180.245H824.73V178V175.755H815.796V178ZM833.664 178V180.245H842.598V178V175.755H833.664V178ZM851.533 178V180.245H856V178V175.755H851.533V178ZM177 178V182.49H181.467V178V173.51H177V178ZM190.401 178V182.49H199.336V178V173.51H190.401V178ZM208.27 178V182.49H217.204V178V173.51H208.27V178ZM226.138 178V182.49H235.072V178V173.51H226.138V178ZM244.007 178V182.49H252.941V178V173.51H244.007V178ZM261.875 178V182.49H270.809V178V173.51H261.875V178ZM279.743 178V182.49H288.678V178V173.51H279.743V178ZM297.612 178V182.49H306.546V178V173.51H297.612V178ZM315.48 178V182.49H324.414V178V173.51H315.48V178ZM333.349 178V182.49H342.283V178V173.51H333.349V178ZM351.217 178V182.49H360.151V178V173.51H351.217V178ZM369.085 178V182.49H378.02V178V173.51H369.085V178ZM386.954 178V182.49H395.888V178V173.51H386.954V178ZM404.822 178V182.49H413.757V178V173.51H404.822V178ZM422.691 178V182.49H431.625V178V173.51H422.691V178ZM440.559 178V182.49H449.493V178V173.51H440.559V178ZM458.428 178V182.49H467.362V178V173.51H458.428V178ZM476.296 178V182.49H485.23V178V173.51H476.296V178ZM494.164 178V182.49H503.099V178V173.51H494.164V178ZM512.033 178V182.49H520.967V178V173.51H512.033V178ZM529.901 178V182.49H538.835V178V173.51H529.901V178ZM547.77 178V182.49H556.704V178V173.51H547.77V178ZM565.638 178V182.49H574.572V178V173.51H565.638V178ZM583.506 178V182.49H592.441V178V173.51H583.506V178ZM601.375 178V182.49H610.309V178V173.51H601.375V178ZM619.243 178V182.49H628.177V178V173.51H619.243V178ZM637.112 178V182.49H646.046V178V173.51H637.112V178ZM654.98 178V182.49H663.914V178V173.51H654.98V178ZM672.848 178V182.49H681.783V178V173.51H672.848V178ZM690.717 178V182.49H699.651V178V173.51H690.717V178ZM708.585 178V182.49H717.519V178V173.51H708.585V178ZM726.454 178V182.49H735.388V178V173.51H726.454V178ZM744.322 178V182.49H753.256V178V173.51H744.322V178ZM762.19 178V182.49H771.125V178V173.51H762.19V178ZM780.059 178V182.49H788.993V178V173.51H780.059V178ZM797.927 178V182.49H806.862V178V173.51H797.927V178ZM815.796 178V182.49H824.73V178V173.51H815.796V178ZM833.664 178V182.49H842.598V178V173.51H833.664V178ZM851.533 178V182.49H856V178V173.51H851.533V178Z" fill="#FDFBF9" mask="url(#path-3-inside-2_4146_1747)"/>
<mask id="path-5-inside-3_4146_1747" fill="white">
<path d="M177 358H856V536H177V358Z"/>
</mask>
<path d="M177 358H856V536H177V358Z" fill="#FDFBF9"/>
<path d="M177 536V538.245H181.467V536V533.755H177V536ZM190.401 536V538.245H199.336V536V533.755H190.401V536ZM208.27 536V538.245H217.204V536V533.755H208.27V536ZM226.138 536V538.245H235.072V536V533.755H226.138V536ZM244.007 536V538.245H252.941V536V533.755H244.007V536ZM261.875 536V538.245H270.809V536V533.755H261.875V536ZM279.743 536V538.245H288.678V536V533.755H279.743V536ZM297.612 536V538.245H306.546V536V533.755H297.612V536ZM315.48 536V538.245H324.414V536V533.755H315.48V536ZM333.349 536V538.245H342.283V536V533.755H333.349V536ZM351.217 536V538.245H360.151V536V533.755H351.217V536ZM369.085 536V538.245H378.02V536V533.755H369.085V536ZM386.954 536V538.245H395.888V536V533.755H386.954V536ZM404.822 536V538.245H413.757V536V533.755H404.822V536ZM422.691 536V538.245H431.625V536V533.755H422.691V536ZM440.559 536V538.245H449.493V536V533.755H440.559V536ZM458.428 536V538.245H467.362V536V533.755H458.428V536ZM476.296 536V538.245H485.23V536V533.755H476.296V536ZM494.164 536V538.245H503.099V536V533.755H494.164V536ZM512.033 536V538.245H520.967V536V533.755H512.033V536ZM529.901 536V538.245H538.835V536V533.755H529.901V536ZM547.77 536V538.245H556.704V536V533.755H547.77V536ZM565.638 536V538.245H574.572V536V533.755H565.638V536ZM583.506 536V538.245H592.441V536V533.755H583.506V536ZM601.375 536V538.245H610.309V536V533.755H601.375V536ZM619.243 536V538.245H628.177V536V533.755H619.243V536ZM637.112 536V538.245H646.046V536V533.755H637.112V536ZM654.98 536V538.245H663.914V536V533.755H654.98V536ZM672.848 536V538.245H681.783V536V533.755H672.848V536ZM690.717 536V538.245H699.651V536V533.755H690.717V536ZM708.585 536V538.245H717.519V536V533.755H708.585V536ZM726.454 536V538.245H735.388V536V533.755H726.454V536ZM744.322 536V538.245H753.256V536V533.755H744.322V536ZM762.19 536V538.245H771.125V536V533.755H762.19V536ZM780.059 536V538.245H788.993V536V533.755H780.059V536ZM797.927 536V538.245H806.862V536V533.755H797.927V536ZM815.796 536V538.245H824.73V536V533.755H815.796V536ZM833.664 536V538.245H842.598V536V533.755H833.664V536ZM851.533 536V538.245H856V536V533.755H851.533V536ZM177 536V540.49H181.467V536V531.51H177V536ZM190.401 536V540.49H199.336V536V531.51H190.401V536ZM208.27 536V540.49H217.204V536V531.51H208.27V536ZM226.138 536V540.49H235.072V536V531.51H226.138V536ZM244.007 536V540.49H252.941V536V531.51H244.007V536ZM261.875 536V540.49H270.809V536V531.51H261.875V536ZM279.743 536V540.49H288.678V536V531.51H279.743V536ZM297.612 536V540.49H306.546V536V531.51H297.612V536ZM315.48 536V540.49H324.414V536V531.51H315.48V536ZM333.349 536V540.49H342.283V536V531.51H333.349V536ZM351.217 536V540.49H360.151V536V531.51H351.217V536ZM369.085 536V540.49H378.02V536V531.51H369.085V536ZM386.954 536V540.49H395.888V536V531.51H386.954V536ZM404.822 536V540.49H413.757V536V531.51H404.822V536ZM422.691 536V540.49H431.625V536V531.51H422.691V536ZM440.559 536V540.49H449.493V536V531.51H440.559V536ZM458.428 536V540.49H467.362V536V531.51H458.428V536ZM476.296 536V540.49H485.23V536V531.51H476.296V536ZM494.164 536V540.49H503.099V536V531.51H494.164V536ZM512.033 536V540.49H520.967V536V531.51H512.033V536ZM529.901 536V540.49H538.835V536V531.51H529.901V536ZM547.77 536V540.49H556.704V536V531.51H547.77V536ZM565.638 536V540.49H574.572V536V531.51H565.638V536ZM583.506 536V540.49H592.441V536V531.51H583.506V536ZM601.375 536V540.49H610.309V536V531.51H601.375V536ZM619.243 536V540.49H628.177V536V531.51H619.243V536ZM637.112 536V540.49H646.046V536V531.51H637.112V536ZM654.98 536V540.49H663.914V536V531.51H654.98V536ZM672.848 536V540.49H681.783V536V531.51H672.848V536ZM690.717 536V540.49H699.651V536V531.51H690.717V536ZM708.585 536V540.49H717.519V536V531.51H708.585V536ZM726.454 536V540.49H735.388V536V531.51H726.454V536ZM744.322 536V540.49H753.256V536V531.51H744.322V536ZM762.19 536V540.49H771.125V536V531.51H762.19V536ZM780.059 536V540.49H788.993V536V531.51H780.059V536ZM797.927 536V540.49H806.862V536V531.51H797.927V536ZM815.796 536V540.49H824.73V536V531.51H815.796V536ZM833.664 536V540.49H842.598V536V531.51H833.664V536ZM851.533 536V540.49H856V536V531.51H851.533V536Z" fill="#FDFBF9" mask="url(#path-5-inside-3_4146_1747)"/>
<mask id="path-7-inside-4_4146_1747" fill="white">
<path d="M0 0H1033V178H0V0Z"/>
</mask>
<path d="M1033 178V175.51H0V178V180.49H1033V178Z" fill="black" fill-opacity="0.05" mask="url(#path-7-inside-4_4146_1747)"/>
<path opacity="0.8" d="M524.391 75.3788L529.78 80.9062L521.889 89L529.78 97.0938L524.391 102.621L516.5 94.5275L508.61 102.621L503.221 97.0938L511.111 89L503.221 80.9062L508.61 75.3788L516.5 83.4725L524.391 75.3788Z" fill="#F7B139" fill-opacity="0.5"/>
<mask id="path-10-inside-5_4146_1747" fill="white">
<path d="M0 356H1033V534H0V356Z"/>
</mask>
<path d="M0 356V358.49H1033V356V353.51H0V356Z" fill="black" fill-opacity="0.05" mask="url(#path-10-inside-5_4146_1747)"/>
<path opacity="0.8" d="M524.391 431.379L529.78 436.906L521.889 445L529.78 453.094L524.391 458.621L516.5 450.527L508.61 458.621L503.221 453.094L511.111 445L503.221 436.906L508.61 431.379L516.5 439.473L524.391 431.379Z" fill="#F7B139" fill-opacity="0.5"/>
<mask id="path-13-inside-6_4146_1747" fill="white">
<path d="M0 0H176.98V533.798H0V0Z"/>
</mask>
<path d="M176.98 0H174.49V533.798H176.98H179.47V0H176.98Z" fill="black" fill-opacity="0.05" mask="url(#path-13-inside-6_4146_1747)"/>
<path opacity="0.8" d="M96.3807 253.278L101.769 258.805L93.8788 266.899L101.769 274.993L96.3807 280.52L88.49 272.426L80.5993 280.52L75.2105 274.993L83.1012 266.899L75.2105 258.805L80.5993 253.278L88.49 261.371L96.3807 253.278Z" fill="#F7B139" fill-opacity="0.5"/>
<mask id="path-16-inside-7_4146_1747" fill="white">
<path d="M856.219 0H1033.2V533.798H856.219V0Z"/>
</mask>
<path d="M856.219 533.798H858.709V0H856.219H853.729V533.798H856.219Z" fill="black" fill-opacity="0.05" mask="url(#path-16-inside-7_4146_1747)"/>
<path opacity="0.8" d="M952.599 253.278L957.988 258.805L950.098 266.899L957.988 274.993L952.599 280.52L944.709 272.426L936.818 280.52L931.429 274.993L939.32 266.899L931.429 258.805L936.818 253.278L944.709 261.371L952.599 253.278Z" fill="#F7B139" fill-opacity="0.5"/>
<path d="M242.955 328.242L210.646 227.822H179.198L224.493 355.183H260.212L307.223 227.815H277.134L242.961 328.242H242.955ZM794.703 223.897C784.098 223.868 773.69 226.758 764.626 232.25V178.199H736.594V355.178H764.626V282.034C764.636 274.078 767.809 266.451 773.448 260.824C779.086 255.198 786.733 252.032 794.708 252.02C802.685 252.032 810.33 255.198 815.97 260.824C821.609 266.451 824.781 274.078 824.791 282.034V355.178H852.822V282.034C852.992 249.98 826.842 223.891 794.708 223.891L794.703 223.897ZM549.251 300.965C549.239 308.92 546.065 316.546 540.427 322.171C534.788 327.795 527.143 330.961 519.169 330.973C511.192 330.961 503.547 327.795 497.907 322.168C492.268 316.542 489.095 308.915 489.086 300.959V227.828H461.053V300.965C461.053 333.019 487.203 358.927 519.169 358.927C551.133 358.927 577.283 332.851 577.283 300.965V227.822H549.251V300.965ZM376.448 224.239C339.357 224.239 309.1 254.415 309.1 291.412C309.1 328.41 339.357 358.592 376.448 358.592C413.539 358.592 443.795 328.41 443.795 291.412C443.795 254.415 413.539 224.239 376.448 224.239ZM376.448 330.63C368.671 330.632 361.07 328.333 354.603 324.024C348.136 319.716 343.096 313.591 340.12 306.425C337.142 299.259 336.362 291.373 337.879 283.765C339.396 276.157 343.14 269.169 348.638 263.683C354.137 258.198 361.142 254.462 368.769 252.948C376.395 251.435 384.301 252.211 391.485 255.179C398.671 258.147 404.811 263.174 409.132 269.623C413.452 276.073 415.758 283.656 415.758 291.412C415.758 313.068 397.983 330.63 376.448 330.63ZM661.384 330.63C651.045 330.499 641.174 326.308 633.909 318.968C626.645 311.629 622.572 301.73 622.572 291.416C622.572 281.102 626.645 271.203 633.909 263.863C641.174 256.523 651.045 252.333 661.384 252.201C667.817 252.216 674.15 253.792 679.838 256.792C685.524 259.792 690.395 264.126 694.029 269.422L717.272 253.737C711.062 244.659 702.726 237.228 692.988 232.088C683.249 226.948 672.402 224.254 661.384 224.239C624.293 224.239 594.035 254.415 594.035 291.412C594.035 328.41 624.293 358.592 661.384 358.592C672.402 358.601 683.251 355.898 692.97 350.723C702.69 345.549 710.98 338.061 717.104 328.927L693.855 313.242C690.321 318.607 685.5 323.007 679.83 326.044C674.16 329.08 667.819 330.656 661.384 330.63Z" fill="#44607B"/>
</g>
<defs>
<clipPath id="clip0_4146_1747">
<rect width="1033.2" height="534" fill="white"/>
</clipPath>
</defs>
</svg>
