<svg width="590" height="369" viewBox="0 0 590 369" fill="none" xmlns="http://www.w3.org/2000/svg">
<rect width="590" height="369" fill="white"/>
<g filter="url(#filter0_d_4143_1514)">
<path d="M201.769 204.877L190.738 170.59H180L195.466 214.075H207.661L223.712 170.587H213.439L201.771 204.877H201.769ZM390.156 169.25C386.535 169.24 382.981 170.226 379.886 172.101V153.646H370.315V214.074H379.886V189.1C379.89 186.383 380.973 183.779 382.898 181.858C384.824 179.937 387.434 178.856 390.157 178.852C392.881 178.856 395.491 179.937 397.417 181.858C399.342 183.779 400.425 186.383 400.429 189.1V214.074H410V189.1C410.058 178.155 401.129 169.247 390.157 169.247L390.156 169.25ZM306.349 195.563C306.345 198.279 305.262 200.883 303.337 202.804C301.411 204.724 298.801 205.805 296.078 205.809C293.355 205.805 290.745 204.724 288.819 202.803C286.894 200.882 285.81 198.278 285.807 195.561V170.592H276.236V195.563C276.236 206.508 285.164 215.354 296.078 215.354C306.992 215.354 315.921 206.45 315.921 195.563V170.59H306.349V195.563ZM247.348 169.366C234.684 169.366 224.353 179.669 224.353 192.302C224.353 204.934 234.684 215.239 247.348 215.239C260.012 215.239 270.343 204.934 270.343 192.302C270.343 179.669 260.012 169.366 247.348 169.366ZM247.348 205.692C244.693 205.693 242.098 204.908 239.89 203.436C237.682 201.966 235.961 199.874 234.945 197.428C233.928 194.981 233.662 192.288 234.18 189.691C234.697 187.093 235.976 184.707 237.853 182.834C239.73 180.961 242.122 179.686 244.726 179.169C247.33 178.652 250.03 178.917 252.483 179.93C254.936 180.944 257.032 182.66 258.508 184.862C259.983 187.064 260.77 189.653 260.77 192.302C260.77 199.696 254.701 205.692 247.348 205.692ZM344.636 205.692C341.106 205.647 337.735 204.216 335.255 201.71C332.775 199.204 331.384 195.824 331.384 192.303C331.384 188.781 332.775 185.401 335.255 182.895C337.735 180.389 341.106 178.959 344.636 178.913C346.832 178.919 348.995 179.457 350.937 180.481C352.878 181.505 354.541 182.985 355.782 184.793L363.718 179.438C361.598 176.338 358.751 173.801 355.427 172.046C352.101 170.291 348.398 169.371 344.636 169.366C331.972 169.366 321.64 179.669 321.64 192.302C321.64 204.934 331.972 215.239 344.636 215.239C348.398 215.242 352.102 214.319 355.42 212.552C358.739 210.786 361.569 208.229 363.66 205.11L355.722 199.755C354.516 201.587 352.87 203.089 350.934 204.126C348.998 205.163 346.833 205.701 344.636 205.692Z" fill="#44607B"/>
</g>
<defs>
<filter id="filter0_d_4143_1514" x="178.5" y="153.146" width="239" height="70.707" filterUnits="userSpaceOnUse" color-interpolation-filters="sRGB">
<feFlood flood-opacity="0" result="BackgroundImageFix"/>
<feColorMatrix in="SourceAlpha" type="matrix" values="0 0 0 0 0 0 0 0 0 0 0 0 0 0 0 0 0 0 127 0" result="hardAlpha"/>
<feOffset dx="3" dy="4"/>
<feGaussianBlur stdDeviation="2.25"/>
<feComposite in2="hardAlpha" operator="out"/>
<feColorMatrix type="matrix" values="0 0 0 0 0 0 0 0 0 0 0 0 0 0 0 0 0 0 0.45 0"/>
<feBlend mode="normal" in2="BackgroundImageFix" result="effect1_dropShadow_4143_1514"/>
<feBlend mode="normal" in="SourceGraphic" in2="effect1_dropShadow_4143_1514" result="shape"/>
</filter>
</defs>
</svg>
