<svg width="590" height="369" viewBox="0 0 590 369" fill="none" xmlns="http://www.w3.org/2000/svg">
<rect width="590" height="369" fill="white"/>
<path d="M401.127 140.208H414.438L404.604 150.043H391.293L401.127 140.208Z" fill="#001D39"/>
<path d="M428.721 161.906L428.721 161.906L418.887 171.74L418.887 171.74L428.721 161.906Z" fill="#001D39"/>
<path d="M428.719 161.908L428.721 161.906L418.887 171.74L418.885 171.742L428.719 161.908Z" fill="#001D39"/>
<path d="M428.719 161.909L428.719 161.909L418.885 171.743L418.885 171.743L428.719 161.909Z" fill="#001D39"/>
<path d="M428.721 161.906C443.98 161.906 456.397 174.294 456.317 189.515L446.483 199.349C446.563 184.129 434.146 171.74 418.887 171.74L428.721 161.906Z" fill="#001D39"/>
<path d="M414.436 140.208V165.875L404.602 175.709V150.043L414.436 140.208Z" fill="#001D39"/>
<path d="M414.436 165.875C418.74 163.267 423.682 161.895 428.718 161.909L418.884 171.743C413.848 171.729 408.906 173.101 404.602 175.709L414.436 165.875Z" fill="#001D39"/>
<path d="M443.007 189.515C443.002 185.737 441.496 182.116 438.819 179.444L428.984 189.278C431.662 191.95 433.168 195.572 433.173 199.349L443.007 189.515Z" fill="#001D39"/>
<path d="M438.817 179.444C436.139 176.772 432.509 175.268 428.721 175.263L418.887 185.097C422.675 185.102 426.305 186.606 428.983 189.278L438.817 179.444Z" fill="#001D39"/>
<path d="M456.317 189.515V224.248L446.482 234.082V199.349L456.317 189.515Z" fill="#001D39"/>
<path d="M428.723 175.263C424.936 175.268 421.305 176.772 418.627 179.444L408.793 189.278C411.471 186.606 415.101 185.102 418.889 185.097L428.723 175.263Z" fill="#001D39"/>
<path d="M443.006 224.248V189.515L433.172 199.349V234.082L443.006 224.248Z" fill="#001D39"/>
<path d="M418.602 179.466C415.939 182.136 414.44 185.748 414.436 189.515L404.602 199.349C404.606 195.572 406.113 191.95 408.79 189.278L418.602 179.466Z" fill="#001D39"/>
<path d="M456.317 224.248H443.006L433.172 234.082H446.483L456.317 224.248Z" fill="#001D39"/>
<path d="M401.127 224.248V140.208L391.293 150.043V234.082L401.127 224.248Z" fill="#001D39"/>
<path d="M380.42 165.798C385.044 168.239 389.002 171.768 391.951 176.078L382.117 185.913C379.168 181.602 375.21 178.073 370.586 175.632L380.42 165.798Z" fill="#001D39"/>
<path d="M365.412 162.071C370.644 162.078 375.795 163.357 380.42 165.798L370.585 175.632C365.961 173.191 360.81 171.912 355.578 171.905L365.412 162.071Z" fill="#001D39"/>
<path d="M414.436 189.515V224.248L404.602 234.082V199.349L414.436 189.515Z" fill="#001D39"/>
<path d="M391.951 176.079L380.914 183.527L371.08 193.361L382.117 185.913L391.951 176.079Z" fill="#001D39"/>
<path d="M380.915 183.526C379.189 181.012 376.876 178.953 374.176 177.529L364.342 187.363C367.042 188.787 369.355 190.846 371.081 193.36L380.915 183.526Z" fill="#001D39"/>
<path d="M374.175 177.529C371.474 176.105 368.467 175.357 365.412 175.349L355.578 185.183C358.633 185.191 361.64 185.939 364.341 187.363L374.175 177.529Z" fill="#001D39"/>
<path d="M342.791 171.457C348.587 165.664 356.593 162.071 365.412 162.071L355.578 171.905C346.759 171.905 338.753 175.498 332.957 181.291L342.791 171.457Z" fill="#001D39"/>
<path d="M414.438 224.248H401.127L391.293 234.082H404.604L414.438 224.248Z" fill="#001D39"/>
<path d="M352.365 180.887C355.815 177.402 360.502 175.412 365.412 175.349L355.578 185.183C350.732 185.245 346.103 187.184 342.666 190.586L342.531 190.721C342.576 190.676 342.621 190.631 342.666 190.586L352.365 180.887Z" fill="#001D39"/>
<path d="M380.83 204.334L391.87 211.782L382.036 221.617L370.996 214.169L380.83 204.334Z" fill="#001D39"/>
<path d="M391.871 211.782C390.716 213.504 389.4 215.102 387.944 216.558L378.126 226.376C379.576 224.925 380.887 223.332 382.037 221.616L391.871 211.782Z" fill="#001D39"/>
<path d="M378.492 207.207C379.365 206.334 380.15 205.372 380.834 204.334L370.999 214.169C370.316 215.207 369.531 216.168 368.658 217.041L378.492 207.207Z" fill="#001D39"/>
<path d="M374.172 210.414C375.764 209.561 377.216 208.482 378.483 207.215L368.657 217.042C367.387 218.311 365.933 219.393 364.338 220.248L374.172 210.414Z" fill="#001D39"/>
<path d="M387.945 216.559C385.732 218.77 383.196 220.651 380.412 222.133L370.578 231.967C373.362 230.485 375.898 228.604 378.111 226.393L387.945 216.559Z" fill="#001D39"/>
<path d="M352.366 180.887C348.917 184.372 346.983 189.073 346.983 193.97L337.148 203.805C337.148 198.907 339.083 194.206 342.532 190.721L352.366 180.887Z" fill="#001D39"/>
<path d="M365.412 212.592C368.468 212.604 371.479 211.855 374.171 210.414L364.337 220.248C361.645 221.689 358.634 222.438 355.578 222.426L365.412 212.592Z" fill="#001D39"/>
<path d="M333.434 193.969C333.434 185.202 337.011 177.242 342.785 171.467L332.959 181.292C327.181 187.068 323.6 195.032 323.6 203.803L333.434 193.969Z" fill="#001D39"/>
<path d="M312.164 163.772H325.476L315.641 173.606H302.33L312.164 163.772Z" fill="#001D39"/>
<path d="M346.983 193.97C346.983 198.868 348.917 203.569 352.366 207.054L342.532 216.888C339.083 213.403 337.148 208.702 337.148 203.804L346.983 193.97Z" fill="#001D39"/>
<path d="M352.365 207.053C355.815 210.539 360.502 212.529 365.412 212.591L355.578 222.425C350.668 222.363 345.981 220.373 342.531 216.887L352.365 207.053Z" fill="#001D39"/>
<path d="M380.411 222.132C375.796 224.59 370.644 225.873 365.412 225.869L355.578 235.703C360.81 235.707 365.961 234.424 370.576 231.966L380.411 222.132Z" fill="#001D39"/>
<path d="M325.477 163.772V198.505L315.643 208.339V173.606L325.477 163.772Z" fill="#001D39"/>
<path d="M365.415 225.869C347.802 225.869 333.434 211.537 333.434 193.969L323.6 203.803C323.6 221.371 337.968 235.704 355.581 235.704L365.415 225.869Z" fill="#001D39"/>
<path d="M312.164 198.505V163.772L302.33 173.606V208.339L312.164 198.505Z" fill="#001D39"/>
<path d="M325.476 198.505C325.476 206.064 322.381 212.935 317.393 217.922L307.566 227.748C312.55 222.763 315.642 215.894 315.642 208.339L325.476 198.505Z" fill="#001D39"/>
<path d="M270.283 163.775H283.595L273.761 173.61H260.449L270.283 163.775Z" fill="#001D39"/>
<path d="M307.975 208.575C310.652 205.903 312.159 202.282 312.165 198.505L302.331 208.339C302.325 212.105 300.827 215.716 298.165 218.384L307.975 208.575Z" fill="#001D39"/>
<path d="M283.596 163.775V198.502L273.762 208.336V173.61L283.596 163.775Z" fill="#001D39"/>
<path d="M297.881 212.754C301.668 212.748 305.298 211.245 307.975 208.574L298.141 218.408C295.464 221.079 291.833 222.582 288.047 222.588L297.881 212.754Z" fill="#001D39"/>
<path d="M270.283 198.505V163.775L260.449 173.61V208.339L270.283 198.505Z" fill="#001D39"/>
<path d="M317.394 217.922C312.39 222.923 305.482 226.028 297.881 226.028L288.047 235.863C295.648 235.863 302.556 232.758 307.559 227.756L317.394 217.922Z" fill="#001D39"/>
<path d="M287.785 208.573C290.464 211.245 294.094 212.749 297.882 212.754L288.047 222.589C284.26 222.583 280.629 221.079 277.951 218.407L287.785 208.573Z" fill="#001D39"/>
<path d="M283.596 198.501C283.6 202.279 285.107 205.901 287.785 208.573L277.951 218.407C275.273 215.735 273.766 212.113 273.762 208.336L283.596 198.501Z" fill="#001D39"/>
<path d="M297.88 226.028C282.701 226.028 270.283 213.726 270.283 198.505L260.449 208.339C260.449 223.56 272.867 235.862 288.046 235.862L297.88 226.028Z" fill="#001D39"/>
<path d="M230.11 162.071C247.722 162.071 262.09 176.4 262.09 193.968L252.256 203.802C252.256 186.234 237.888 171.905 220.275 171.905L230.11 162.071Z" fill="#001D39"/>
<path d="M245.63 183.622C243.578 180.559 240.662 178.172 237.25 176.763L227.416 186.597C230.828 188.006 233.744 190.393 235.796 193.456L245.63 183.622Z" fill="#001D39"/>
<path d="M248.777 193.969C248.777 190.285 247.682 186.685 245.631 183.622L235.797 193.456C237.848 196.519 238.943 200.119 238.943 203.803L248.777 193.969Z" fill="#001D39"/>
<path d="M237.252 176.763C233.841 175.354 230.086 174.985 226.465 175.704L216.631 185.538C220.252 184.819 224.006 185.188 227.418 186.597L237.252 176.763Z" fill="#001D39"/>
<path d="M262.09 193.969C262.09 202.741 258.508 210.706 252.729 216.483L242.903 226.309C248.677 220.532 252.256 212.571 252.256 203.803L262.09 193.969Z" fill="#001D39"/>
<path d="M207.488 171.457C213.284 165.664 221.29 162.071 230.109 162.071L220.275 171.905C211.456 171.905 203.45 175.498 197.654 181.291L207.488 171.457Z" fill="#001D39"/>
<path d="M243.317 207.098C246.682 203.731 248.776 199.091 248.776 193.969L238.942 203.803C238.942 208.925 236.848 213.565 233.482 216.932L243.317 207.098Z" fill="#001D39"/>
<path d="M226.462 175.704C222.84 176.423 219.514 178.197 216.902 180.802L207.068 190.636C209.68 188.031 213.006 186.257 216.628 185.538L226.462 175.704Z" fill="#001D39"/>
<path d="M216.876 180.831C214.282 183.431 212.515 186.738 211.797 190.337L201.963 200.171C202.683 196.559 204.461 193.24 207.072 190.635L216.876 180.831Z" fill="#001D39"/>
<path d="M230.11 212.592C235.239 212.592 239.919 210.493 243.31 207.104L233.482 216.932C230.091 220.325 225.408 222.426 220.275 222.426L230.11 212.592Z" fill="#001D39"/>
<path d="M182.949 163.77H197.237L187.403 173.604H173.115L182.949 163.77Z" fill="#001D39"/>
<path d="M252.729 216.483C246.933 222.276 238.928 225.869 230.11 225.869L220.275 235.703C229.094 235.703 237.099 232.11 242.894 226.317L252.729 216.483Z" fill="#001D39"/>
<path d="M198.127 193.968C198.127 185.201 201.705 177.241 207.478 171.466L197.653 181.291C191.874 187.067 188.293 195.031 188.293 203.802L198.127 193.968Z" fill="#001D39"/>
<path d="M211.796 190.338C211.076 193.951 211.446 197.695 212.86 201.098L203.026 210.932C201.612 207.529 201.242 203.785 201.962 200.172L211.796 190.338Z" fill="#001D39"/>
<path d="M219.736 209.455C222.807 211.501 226.417 212.592 230.11 212.592L220.275 222.426C216.583 222.427 212.973 221.335 209.902 219.289L219.736 209.455Z" fill="#001D39"/>
<path d="M212.858 201.098C214.271 204.501 216.664 207.409 219.735 209.455L209.901 219.289C206.83 217.243 204.437 214.335 203.023 210.932L212.858 201.098Z" fill="#001D39"/>
<path d="M230.108 225.869C212.495 225.869 198.127 211.537 198.127 193.969L188.293 203.803C188.293 221.371 202.661 235.704 220.274 235.704L230.108 225.869Z" fill="#001D39"/>
<path d="M197.237 163.77L174.914 224.251L165.08 234.085L187.403 173.604L197.237 163.77Z" fill="#001D39"/>
<path d="M166.721 211.458L182.948 163.77L173.114 173.604L156.887 221.292L166.721 211.458Z" fill="#001D39"/>
<path d="M136.445 163.772H151.379L141.545 173.606H126.611L136.445 163.772Z" fill="#001D39"/>
<path d="M151.377 163.772L166.719 211.457L156.885 221.291L141.543 173.606L151.377 163.772Z" fill="#001D39"/>
<path d="M166.719 211.458H166.722L156.888 221.292H156.885L166.719 211.458Z" fill="#001D39"/>
<path d="M157.954 224.25L136.445 163.772L126.611 173.606L148.12 234.084L157.954 224.25Z" fill="#001D39"/>
<path d="M174.915 224.25H157.953L148.119 234.085H165.08L174.915 224.25Z" fill="#001D39"/>
<path d="M166.721 211.457L151.379 163.772H136.445L157.954 224.25H174.915L197.239 163.769H182.951L166.724 211.457H166.721ZM428.72 161.909C423.685 161.895 418.743 163.267 414.439 165.875V140.208H401.127V224.248H414.439V189.515C414.443 185.737 415.95 182.115 418.627 179.444C421.305 176.772 424.936 175.269 428.723 175.263C432.511 175.269 436.141 176.772 438.819 179.444C441.497 182.115 443.003 185.737 443.008 189.515V224.248H456.319V189.515C456.399 174.294 443.982 161.906 428.723 161.906L428.72 161.909ZM312.167 198.505C312.161 202.282 310.654 205.903 307.976 208.574C305.299 211.245 301.669 212.748 297.882 212.754C294.094 212.748 290.464 211.245 287.786 208.573C285.108 205.901 283.601 202.28 283.597 198.502V163.775H270.286V198.505C270.286 213.725 282.703 226.028 297.882 226.028C313.061 226.028 325.478 213.646 325.478 198.505V163.772H312.167V198.505ZM230.11 162.071C212.497 162.071 198.13 176.4 198.13 193.969C198.13 211.537 212.497 225.869 230.11 225.869C247.723 225.869 262.091 211.537 262.091 193.969C262.091 176.4 247.723 162.071 230.11 162.071ZM230.11 212.591C226.418 212.592 222.808 211.5 219.737 209.454C216.666 207.409 214.273 204.5 212.86 201.097C211.446 197.694 211.076 193.95 211.796 190.337C212.516 186.725 214.294 183.406 216.905 180.801C219.516 178.196 222.842 176.423 226.464 175.704C230.085 174.985 233.84 175.353 237.251 176.763C240.663 178.172 243.579 180.559 245.631 183.622C247.682 186.684 248.777 190.285 248.777 193.969C248.777 204.252 240.337 212.591 230.11 212.591ZM365.414 212.591C360.504 212.529 355.817 210.539 352.367 207.053C348.918 203.568 346.983 198.868 346.983 193.97C346.983 189.072 348.918 184.372 352.367 180.886C355.817 177.401 360.504 175.412 365.414 175.349C368.468 175.356 371.476 176.104 374.176 177.529C376.876 178.953 379.19 181.012 380.915 183.526L391.952 176.078C389.003 171.767 385.045 168.239 380.421 165.798C375.796 163.357 370.645 162.078 365.414 162.071C347.801 162.071 333.433 176.4 333.433 193.969C333.433 211.537 347.801 225.869 365.414 225.869C370.645 225.873 375.797 224.59 380.412 222.132C385.028 219.675 388.964 216.12 391.872 211.782L380.832 204.334C379.154 206.882 376.865 208.971 374.173 210.413C371.48 211.855 368.469 212.604 365.414 212.591Z" fill="#44607B"/>
</svg>
