<svg width="1375" height="168" viewBox="0 0 1375 168" fill="none" xmlns="http://www.w3.org/2000/svg">
<g clip-path="url(#clip0_3743_8)">
<path d="M762.448 17.7497C755.968 10.062 750.389 2.2542 749.249 0.632571C749.129 0.51245 748.949 0.51245 748.829 0.632571C747.689 2.2542 742.109 10.062 735.63 17.7497C680.014 88.6806 744.389 136.549 744.389 136.549L744.929 136.909C745.409 144.296 746.609 154.927 746.609 154.927H749.009H751.408C751.408 154.927 752.608 144.357 753.088 136.909L753.628 136.489C753.688 136.549 818.063 88.6806 762.448 17.7497ZM749.009 135.468C749.009 135.468 746.129 133.005 745.349 131.744V131.624L748.829 54.3865C748.829 54.1462 749.189 54.1462 749.189 54.3865L752.668 131.624V131.744C751.888 133.005 749.009 135.468 749.009 135.468Z" fill="#44607B"/>
<path d="M869.482 119.706L842.656 54.1873L842.596 54.0063H821.725V58.4105H825.093C826.115 58.4105 827.078 58.8328 827.8 59.5568C828.521 60.2807 828.882 61.2462 828.882 62.2716L828.281 128.213C828.281 130.264 826.597 131.953 824.552 132.014L821.123 132.074V136.418H841.453V132.074L839.348 132.014C837.303 131.953 835.619 130.264 835.619 128.213V66.0724L864.851 136.418C865.271 137.443 866.234 138.107 867.317 138.107C868.399 138.107 869.362 137.443 869.783 136.418L898.353 67.6409L898.774 128.213C898.774 130.325 897.09 132.014 894.985 132.074H892.819V136.418H916.638V132.074H913.39C911.345 132.074 909.66 130.325 909.6 128.273L909.42 62.3317C909.42 60.2204 911.104 58.5311 913.149 58.4708L916.638 58.4105V54.0063H896.308L869.482 119.706Z" fill="#44607B"/>
<path d="M1056.53 130.926C1055.86 130.262 1055.5 129.356 1055.5 128.268V95.8745C1055.5 89.7105 1053.69 84.8753 1050.07 81.4308C1046.52 77.9857 1041.57 76.2334 1035.42 76.2334C1026.8 76.2334 1019.98 79.7386 1015.22 86.6282C1015.16 86.749 1014.98 86.8097 1014.8 86.8097C1014.62 86.8097 1014.5 86.6883 1014.5 86.5075L1012.26 77.865H1008.53L998.937 83.3645V86.3862H1001.41C1002.56 86.3862 1003.52 86.6883 1004.18 87.2932C1004.85 87.8976 1005.21 88.804 1005.21 90.0728V128.207C1005.21 129.295 1004.85 130.201 1004.18 130.866C1003.52 131.531 1002.62 131.894 1001.53 131.894H999.118V136.305H1021.19V131.894H1018.78C1017.69 131.894 1016.79 131.531 1016.12 130.866C1015.46 130.201 1015.1 129.295 1015.1 128.207V102.946C1015.1 99.7425 1015.82 96.5395 1017.15 93.3966C1018.54 90.3149 1020.59 87.7161 1023.3 85.7218C1026.01 83.7274 1029.27 82.7602 1033.01 82.7602C1037.23 82.7602 1040.43 84.0896 1042.42 86.749C1044.41 89.4084 1045.43 92.8529 1045.43 96.9624V128.147C1045.43 129.234 1045.07 130.141 1044.41 130.806C1043.74 131.471 1042.84 131.833 1041.75 131.833H1039.34V136.245H1061.41V131.833H1059C1058.1 131.954 1057.25 131.591 1056.53 130.926Z" fill="#44607B"/>
<path d="M1258.17 58.9394C1252.07 55.6908 1245.25 54.0063 1237.9 54.0063H1209.19V58.398H1212C1213.08 58.398 1214.03 58.8191 1214.99 59.7817C1215.89 60.6839 1216.37 61.707 1216.37 62.7895V127.522C1216.37 128.604 1215.89 129.627 1214.99 130.53C1214.09 131.432 1213.08 131.913 1212 131.913H1209.19V136.305H1237.9C1245.25 136.305 1252.07 134.62 1258.17 131.372C1264.27 128.123 1269.24 123.31 1272.83 117.174C1276.42 111.038 1278.27 103.638 1278.27 95.2157C1278.27 86.7936 1276.42 79.454 1272.83 73.2576C1269.18 67.0011 1264.27 62.2482 1258.17 58.9394ZM1266.73 95.0956C1266.73 102.796 1265.35 109.293 1262.66 114.527C1259.97 119.761 1256.38 123.671 1251.95 126.198C1247.53 128.725 1242.62 129.988 1237.36 129.988H1231.56C1230.48 129.988 1229.52 129.567 1228.57 128.604C1227.67 127.702 1227.19 126.68 1227.19 125.596V64.5346C1227.19 63.4515 1227.61 62.4891 1228.57 61.5262C1229.46 60.6239 1230.48 60.1426 1231.56 60.1426H1237.36C1242.62 60.1426 1247.53 61.406 1251.95 63.9326C1256.38 66.4593 1259.97 70.3699 1262.66 75.6034C1265.35 80.8976 1266.73 87.455 1266.73 95.0956Z" fill="#44607B"/>
<path d="M1346.13 99.4874C1343.48 96.4189 1338.36 93.8322 1332.33 92.4482C1340.65 88.2972 1344.93 82.4618 1344.93 74.942C1344.93 70.8511 1343.85 67.1813 1341.67 64.0528C1339.5 60.9248 1336.43 58.398 1332.51 56.6533C1328.59 54.9087 1324 54.0063 1318.82 54.0063H1286.32V58.398H1288.91C1290 58.398 1290.96 58.8191 1291.93 59.7817C1292.83 60.6839 1293.32 61.707 1293.32 62.7895V127.522C1293.32 128.604 1292.83 129.627 1291.93 130.53C1291.03 131.432 1290 131.913 1288.91 131.913H1286.08V136.305H1321.35C1326.72 136.305 1331.72 135.403 1336.25 133.597C1340.77 131.793 1344.39 129.146 1346.98 125.657C1349.63 122.168 1350.96 117.896 1350.96 112.963C1350.9 107.669 1349.33 103.157 1346.13 99.4874ZM1305.68 128.664C1304.77 127.762 1304.29 126.74 1304.29 125.657V96.5992H1321.05C1326.96 96.5992 1331.48 98.1034 1334.62 101.111C1337.75 104.12 1339.32 108.03 1339.32 112.843C1339.32 115.73 1338.6 118.558 1337.27 121.145C1335.89 123.792 1333.83 125.897 1331.06 127.522C1328.35 129.146 1324.97 129.988 1321.05 129.988H1308.69C1307.61 129.988 1306.64 129.567 1305.68 128.664ZM1304.35 90.4027V64.5946C1304.35 63.5115 1304.77 62.5492 1305.74 61.5862C1306.64 60.6839 1307.67 60.2028 1308.75 60.2028H1316.71C1322.44 60.2028 1326.66 61.6469 1329.31 64.4138C1331.96 67.2414 1333.29 70.8511 1333.29 75.3031C1333.29 79.8751 1332.02 83.5449 1329.55 86.3118C1327.08 89.0193 1323.34 90.4027 1318.4 90.4027H1304.35Z" fill="#44607B"/>
<path d="M972.505 80.0708C967.897 77.5526 962.752 76.2334 957.187 76.2334C951.623 76.2334 946.417 77.4925 941.869 80.0708C937.262 82.5884 933.612 86.2456 930.92 90.8621C928.227 95.4787 926.851 100.875 926.851 106.87C926.851 112.865 928.227 118.262 930.92 122.878C933.612 127.495 937.262 131.152 941.869 133.67C946.477 136.188 951.623 137.507 957.187 137.507C962.752 137.507 967.957 136.248 972.505 133.67C977.112 131.152 980.762 127.495 983.455 122.878C986.147 118.262 987.523 112.865 987.523 106.87C987.523 100.875 986.147 95.4787 983.455 90.8621C980.762 86.2456 977.112 82.5884 972.505 80.0708ZM976.933 106.87C976.933 114.245 975.138 120.24 971.547 124.556C968.018 128.873 963.171 131.092 957.187 131.092C951.204 131.092 946.357 128.873 942.827 124.556C939.236 120.24 937.442 114.245 937.442 106.87C937.442 99.4957 939.236 93.5005 942.827 89.1837C946.357 84.8669 951.204 82.6485 957.187 82.6485C963.171 82.6485 968.018 84.8669 971.547 89.1837C975.138 93.5005 976.933 99.4957 976.933 106.87Z" fill="#44607B"/>
<path d="M1184.56 80.0708C1179.95 77.5526 1174.81 76.2334 1169.24 76.2334C1163.68 76.2334 1158.47 77.4925 1153.92 80.0708C1149.32 82.5884 1145.67 86.2456 1142.97 90.8621C1140.28 95.4787 1138.9 100.875 1138.9 106.87C1138.9 112.865 1140.28 118.262 1142.97 122.878C1145.67 127.495 1149.32 131.152 1153.92 133.67C1158.53 136.188 1163.68 137.507 1169.24 137.507C1174.81 137.507 1180.01 136.248 1184.56 133.67C1189.17 131.152 1192.82 127.495 1195.51 122.878C1198.2 118.262 1199.58 112.865 1199.58 106.87C1199.58 100.875 1198.2 95.4787 1195.51 90.8621C1192.82 86.2456 1189.11 82.5884 1184.56 80.0708ZM1188.99 106.87C1188.99 114.245 1187.19 120.24 1183.6 124.556C1180.07 128.873 1175.22 131.092 1169.24 131.092C1163.26 131.092 1158.41 128.873 1154.88 124.556C1151.29 120.24 1149.5 114.245 1149.5 106.87C1149.5 99.4356 1151.29 93.5005 1154.88 89.1837C1158.41 84.8669 1163.26 82.6485 1169.24 82.6485C1175.22 82.6485 1180.07 84.8669 1183.6 89.1837C1187.13 93.5005 1188.99 99.4957 1188.99 106.87Z" fill="#44607B"/>
<path d="M1099.04 76.2334C1094.22 76.2334 1089.82 77.257 1085.84 79.3049C1081.87 81.3527 1078.73 84.1238 1076.5 87.6771C1074.27 91.1703 1073.13 95.0858 1073.13 99.2415C1073.13 102.976 1073.97 106.409 1075.72 109.481C1077.41 112.432 1079.7 114.901 1082.59 116.949L1073.97 128.634C1072.89 130.079 1072.77 132.007 1073.55 133.573C1074.39 135.199 1075.96 136.163 1077.77 136.163H1080.24C1077.83 137.789 1075.9 139.716 1074.57 142.005C1073.01 144.595 1072.22 147.305 1072.22 150.076C1072.22 155.256 1074.51 159.532 1079.03 162.724C1083.49 165.917 1089.76 167.543 1097.65 167.543C1103.14 167.543 1108.38 166.639 1113.14 164.892C1117.96 163.146 1121.88 160.556 1124.77 157.183C1127.72 153.81 1129.23 149.715 1129.23 145.016C1129.23 140.078 1127.42 136.584 1123.2 133.212C1119.59 130.38 1113.92 128.875 1106.87 128.875H1082.77C1082.71 128.875 1082.65 128.814 1082.65 128.814C1082.65 128.814 1082.59 128.694 1082.65 128.634L1088.92 120.202C1090.6 120.985 1092.17 121.466 1093.56 121.767C1095 122.069 1096.63 122.189 1098.44 122.189C1103.5 122.189 1108.08 121.165 1112.06 119.118C1116.03 117.07 1119.23 114.299 1121.52 110.745C1123.81 107.252 1124.95 103.337 1124.95 99.1815C1124.95 94.7241 1122.78 86.5928 1116.88 82.437C1116.88 82.377 1116.94 82.377 1116.94 82.377L1129.89 83.8223V77.8595H1109.16C1105.91 76.8359 1102.54 76.2334 1099.04 76.2334ZM1106.27 113.938C1103.98 115.142 1101.51 115.805 1099.04 115.805C1095 115.805 1091.45 114.359 1088.43 111.529C1085.42 108.697 1083.91 104.542 1083.91 99.2415C1083.91 93.9414 1085.42 89.785 1088.43 86.9544C1091.45 84.1238 1095 82.6779 1099.04 82.6779C1101.57 82.6779 1103.98 83.2804 1106.27 84.545C1108.56 85.75 1110.43 87.617 1111.94 90.0866C1113.38 92.5561 1114.17 95.6276 1114.17 99.2415C1114.17 102.916 1113.44 105.987 1111.94 108.397C1110.49 110.866 1108.56 112.733 1106.27 113.938ZM1089.94 136.102H1106.27C1110.79 136.102 1113.68 137.006 1115.61 138.933C1117.54 140.861 1118.5 143.45 1118.5 146.462C1118.5 150.859 1116.76 154.473 1113.26 157.183C1109.77 159.894 1105.07 161.279 1099.28 161.279C1094.22 161.279 1090 160.135 1086.93 157.966C1083.85 155.798 1082.29 152.485 1082.29 148.269C1082.29 145.619 1083.01 143.149 1084.46 140.981C1085.9 138.813 1087.65 137.247 1089.94 136.102Z" fill="#44607B"/>
<path d="M1363.18 135.3C1361.99 134.65 1361.1 133.703 1360.38 132.58C1359.73 131.398 1359.37 130.156 1359.37 128.796C1359.37 127.436 1359.73 126.136 1360.38 125.012C1361.04 123.829 1361.99 122.943 1363.18 122.292C1364.38 121.642 1365.69 121.287 1367.18 121.287C1368.67 121.287 1369.98 121.642 1371.17 122.292C1372.36 122.943 1373.26 123.889 1373.97 125.012C1374.63 126.194 1374.99 127.436 1374.99 128.796C1374.99 130.156 1374.63 131.457 1373.97 132.58C1373.32 133.763 1372.36 134.65 1371.17 135.3C1369.98 135.95 1368.67 136.305 1367.18 136.305C1365.75 136.305 1364.38 136.01 1363.18 135.3ZM1370.52 134.472C1371.53 133.94 1372.25 133.112 1372.84 132.166C1373.38 131.161 1373.68 130.038 1373.68 128.796C1373.68 127.554 1373.38 126.431 1372.84 125.426C1372.3 124.421 1371.53 123.652 1370.52 123.12C1369.5 122.588 1368.43 122.292 1367.18 122.292C1365.93 122.292 1364.85 122.588 1363.84 123.12C1362.83 123.652 1362.11 124.48 1361.51 125.426C1360.98 126.431 1360.68 127.554 1360.68 128.796C1360.68 130.038 1360.98 131.161 1361.51 132.166C1362.05 133.171 1362.83 133.94 1363.84 134.472C1364.85 135.005 1365.93 135.3 1367.18 135.3C1368.43 135.3 1369.56 135.005 1370.52 134.472ZM1363.96 132.403V131.871L1364.08 131.812H1364.44C1364.55 131.812 1364.67 131.752 1364.73 131.693C1364.85 131.575 1364.85 131.516 1364.85 131.398V125.899C1364.85 125.78 1364.79 125.663 1364.73 125.603C1364.61 125.485 1364.55 125.485 1364.44 125.485H1364.08L1363.96 125.426V124.894L1364.08 124.835H1367.18C1368.07 124.835 1368.73 125.012 1369.26 125.426C1369.8 125.84 1370.04 126.372 1370.04 127.082C1370.04 127.614 1369.86 128.146 1369.44 128.501C1369.03 128.914 1368.55 129.151 1367.95 129.21L1368.67 129.447L1370.04 131.634C1370.16 131.812 1370.28 131.871 1370.46 131.871H1370.81L1370.87 131.93V132.462L1370.81 132.521H1368.97L1368.85 132.462L1366.94 129.269H1366.46V131.398C1366.46 131.516 1366.52 131.634 1366.58 131.693C1366.7 131.812 1366.76 131.812 1366.88 131.812H1367.24L1367.36 131.871V132.403L1367.24 132.462H1364.08L1363.96 132.403ZM1367 128.501C1367.48 128.501 1367.89 128.382 1368.13 128.087C1368.37 127.85 1368.55 127.436 1368.55 126.963C1368.55 126.49 1368.43 126.136 1368.19 125.84C1367.95 125.544 1367.59 125.426 1367.18 125.426H1366.94C1366.82 125.426 1366.7 125.485 1366.64 125.544C1366.52 125.662 1366.52 125.722 1366.52 125.84V128.501H1367Z" fill="#44607B"/>
</g>
<path d="M48.2878 116.967L24.304 40.2993H0.95459L34.5828 137.533H61.1046L96.0018 40.2993H73.6676L48.2878 116.967Z" fill="#44607B"/>
<path d="M457.931 37.3052C449.683 37.3052 442.069 39.6482 435.597 43.6833V2.4209H414.786V137.533H435.597V81.6916C435.597 69.0656 445.622 58.7825 457.931 58.7825C470.241 58.7825 480.266 69.0656 480.266 81.6916V137.533H501.077V81.6916C501.204 57.2205 481.788 37.3052 457.931 37.3052Z" fill="#44607B"/>
<path d="M275.687 96.1403C275.687 108.766 265.662 119.049 253.353 119.049C241.044 119.049 231.019 108.766 231.019 96.1403V40.2993H210.207V96.1403C210.207 120.611 229.623 140.396 253.353 140.396C277.083 140.396 296.498 120.481 296.498 96.1403V40.2993H275.687V96.1403Z" fill="#44607B"/>
<path d="M147.404 37.5659C119.867 37.5659 97.4058 60.6052 97.4058 88.8511C97.4058 117.097 119.867 140.136 147.404 140.136C174.941 140.136 197.402 117.097 197.402 88.8511C197.402 60.6052 174.941 37.5659 147.404 37.5659ZM147.404 118.789C131.288 118.789 118.217 105.382 118.217 88.8511C118.217 72.3201 131.288 58.913 147.404 58.913C163.52 58.913 176.591 72.3201 176.591 88.8511C176.591 105.382 163.393 118.789 147.404 118.789Z" fill="#44607B"/>
<path d="M358.933 118.789C342.817 118.789 329.746 105.382 329.746 88.8511C329.746 72.3201 342.817 58.913 358.933 58.913C368.577 58.913 377.714 63.8593 383.171 72.0597L400.429 60.0845C391.039 46.0267 375.557 37.5659 358.933 37.5659C331.396 37.5659 308.935 60.6052 308.935 88.8511C308.935 117.097 331.396 140.136 358.933 140.136C375.557 140.136 391.039 131.675 400.302 117.487L383.044 105.512C377.714 113.843 368.704 118.789 358.933 118.789Z" fill="#44607B"/>
<path opacity="0.8" d="M623.511 63.5632L634.288 74.6181L618.507 90.8057L634.288 106.993L623.511 118.048L607.729 101.861L591.948 118.048L581.171 106.993L596.952 90.8057L581.171 74.6181L591.948 63.5632L607.729 79.7508L623.511 63.5632Z" fill="#F7B139"/>
<defs>
<clipPath id="clip0_3743_8">
<rect width="663" height="167" fill="white" transform="translate(712 0.54248)"/>
</clipPath>
</defs>
</svg>
