<svg width="590" height="369" viewBox="0 0 590 369" fill="none" xmlns="http://www.w3.org/2000/svg">
<rect width="590" height="369" fill="#001D39"/>
<path d="M189.239 207.615L176.725 168.72H164.545L182.089 218.05H195.924L214.132 168.718H202.478L189.242 207.615H189.239ZM402.943 167.2C398.836 167.189 394.805 168.308 391.294 170.435V149.5H380.436V218.048H391.294V189.718C391.298 186.636 392.527 183.682 394.711 181.503C396.895 179.324 399.856 178.097 402.945 178.093C406.035 178.097 408.996 179.324 411.18 181.503C413.364 183.682 414.593 186.636 414.597 189.718V218.048H425.454V189.718C425.52 177.303 415.391 167.198 402.945 167.198L402.943 167.2ZM307.874 197.05C307.87 200.131 306.641 203.085 304.457 205.264C302.273 207.442 299.312 208.668 296.223 208.673C293.133 208.668 290.172 207.442 287.988 205.262C285.804 203.083 284.575 200.129 284.571 197.048V168.723H273.714V197.05C273.714 209.465 283.842 219.5 296.223 219.5C308.604 219.5 318.732 209.4 318.732 197.05V168.72H307.874V197.05ZM240.944 167.333C226.578 167.333 214.859 179.02 214.859 193.35C214.859 207.68 226.578 219.37 240.944 219.37C255.31 219.37 267.029 207.68 267.029 193.35C267.029 179.02 255.31 167.333 240.944 167.333ZM240.944 208.54C237.932 208.541 234.988 207.65 232.483 205.981C229.978 204.313 228.026 201.94 226.873 199.165C225.72 196.389 225.418 193.335 226.006 190.388C226.593 187.441 228.043 184.735 230.173 182.61C232.302 180.485 235.016 179.038 237.97 178.452C240.924 177.866 243.986 178.166 246.768 179.316C249.551 180.466 251.93 182.413 253.603 184.911C255.277 187.409 256.17 190.346 256.17 193.35C256.17 201.738 249.285 208.54 240.944 208.54ZM351.306 208.54C347.301 208.489 343.478 206.866 340.664 204.023C337.851 201.18 336.273 197.346 336.273 193.351C336.273 189.356 337.851 185.522 340.664 182.68C343.478 179.837 347.301 178.214 351.306 178.163C353.798 178.169 356.251 178.779 358.453 179.941C360.656 181.103 362.543 182.782 363.95 184.833L372.952 178.758C370.547 175.241 367.319 172.363 363.547 170.372C359.775 168.382 355.573 167.338 351.306 167.333C336.94 167.333 325.22 179.02 325.22 193.35C325.22 207.68 336.94 219.37 351.306 219.37C355.573 219.373 359.775 218.327 363.54 216.322C367.304 214.318 370.515 211.418 372.887 207.88L363.883 201.805C362.514 203.883 360.646 205.587 358.45 206.763C356.254 207.939 353.798 208.55 351.306 208.54Z" fill="#44607B"/>
</svg>
