<svg width="590" height="369" viewBox="0 0 590 369" fill="none" xmlns="http://www.w3.org/2000/svg">
<rect width="590" height="369" fill="white"/>
<path d="M205.25 245.036L179.258 213.512L167.938 218.01L202.459 257.374L215.316 252.265L214.019 199.696L203.189 204L205.253 245.035L205.25 245.036ZM388.925 128.562C385.104 130.068 381.771 132.597 379.294 135.87L371.563 116.415L361.473 120.424L386.786 184.127L396.876 180.118L386.414 153.79C385.28 150.925 385.331 147.726 386.556 144.894C387.781 142.062 390.08 139.829 392.949 138.684C395.822 137.547 399.027 137.593 401.862 138.812C404.696 140.031 406.929 142.322 408.071 145.184L418.532 171.512L428.622 167.503L418.16 141.175C413.637 129.613 400.493 123.963 388.926 128.559L388.925 128.562ZM311.599 191.409C312.732 194.274 312.681 197.473 311.456 200.304C310.23 203.135 307.932 205.368 305.063 206.513C302.19 207.649 298.985 207.603 296.15 206.385C293.316 205.166 291.083 202.874 289.942 200.012L279.482 173.689L269.392 177.698L279.852 204.024C284.437 215.561 297.555 221.147 309.061 216.575C320.567 212.003 326.249 198.877 321.689 187.4L311.227 161.072L301.137 165.081L311.599 191.409ZM238.425 188.508C225.074 193.813 218.499 209.002 223.791 222.319C229.083 235.636 244.291 242.172 257.641 236.867C270.992 231.562 277.566 216.371 272.274 203.054C266.983 189.736 251.776 183.203 238.425 188.508ZM253.642 226.803C250.843 227.915 247.778 228.175 244.834 227.549C241.89 226.923 239.2 225.44 237.104 223.286C235.007 221.132 233.599 218.406 233.057 215.45C232.514 212.495 232.862 209.444 234.057 206.683C235.251 203.922 237.239 201.575 239.767 199.94C242.296 198.304 245.253 197.453 248.263 197.493C251.274 197.534 254.203 198.465 256.681 200.169C259.158 201.872 261.073 204.272 262.182 207.064C265.28 214.859 261.394 223.722 253.642 226.803ZM356.204 186.048C352.463 187.48 348.311 187.383 344.646 185.78C340.982 184.178 338.1 181.197 336.625 177.485C335.149 173.772 335.2 169.626 336.764 165.945C338.33 162.264 341.283 159.345 344.986 157.818C347.304 156.904 349.809 156.565 352.285 156.831C354.761 157.098 357.134 157.961 359.2 159.347L365.322 150.378C361.789 147.998 357.725 146.516 353.485 146.058C349.244 145.601 344.954 146.183 340.987 147.754C327.636 153.059 321.061 168.248 326.352 181.565C331.644 194.882 346.852 201.418 360.203 196.113C364.17 194.54 367.688 192.016 370.446 188.763C373.205 185.51 375.118 181.63 376.016 177.466L365.404 175.145C364.9 177.582 363.794 179.855 362.187 181.759C360.58 183.663 358.523 185.137 356.204 186.048Z" fill="#44607B"/>
</svg>
