<svg width="590" height="369" viewBox="0 0 590 369" fill="none" xmlns="http://www.w3.org/2000/svg">
<rect width="590" height="369" fill="white"/>
<path d="M155.156 207.615L138.609 168.72H122.503L145.701 218.05H163.994L188.07 168.718H172.66L155.159 207.615H155.156ZM437.73 167.2C432.298 167.189 426.968 168.308 422.326 170.435V149.5H407.97V218.048H422.326V189.718C422.331 186.636 423.956 183.682 426.844 181.503C429.732 179.324 433.648 178.097 437.732 178.093C441.818 178.097 445.733 179.324 448.622 181.503C451.509 183.682 453.134 186.636 453.139 189.718V218.048H467.495V189.718C467.582 177.303 454.19 167.198 437.732 167.198L437.73 167.2ZM312.023 197.05C312.017 200.131 310.392 203.085 307.504 205.264C304.616 207.442 300.701 208.668 296.617 208.673C292.532 208.668 288.616 207.442 285.728 205.262C282.84 203.083 281.215 200.129 281.21 197.048V168.723H266.853V197.05C266.853 209.465 280.246 219.5 296.617 219.5C312.987 219.5 326.38 209.4 326.38 197.05V168.72H312.023V197.05ZM223.523 167.333C204.527 167.333 189.031 179.02 189.031 193.35C189.031 207.68 204.527 219.37 223.523 219.37C242.519 219.37 258.015 207.68 258.015 193.35C258.015 179.02 242.519 167.333 223.523 167.333ZM223.523 208.54C219.541 208.541 215.648 207.65 212.336 205.981C209.024 204.313 206.443 201.94 204.918 199.165C203.393 196.389 202.994 193.335 203.771 190.388C204.547 187.441 206.465 184.735 209.28 182.61C212.097 180.485 215.684 179.038 219.591 178.452C223.496 177.866 227.545 178.166 231.225 179.316C234.904 180.466 238.049 182.413 240.262 184.911C242.475 187.409 243.655 190.346 243.655 193.35C243.655 201.738 234.552 208.54 223.523 208.54ZM369.452 208.54C364.156 208.489 359.101 206.866 355.38 204.023C351.66 201.18 349.574 197.346 349.574 193.351C349.574 189.356 351.66 185.522 355.38 182.68C359.101 179.837 364.156 178.214 369.452 178.163C372.746 178.169 375.99 178.779 378.902 179.941C381.815 181.103 384.309 182.782 386.171 184.833L398.074 178.758C394.894 175.241 390.625 172.363 385.637 170.372C380.65 168.382 375.094 167.338 369.452 167.333C350.456 167.333 334.959 179.02 334.959 193.35C334.959 207.68 350.456 219.37 369.452 219.37C375.094 219.373 380.65 218.327 385.628 216.322C390.606 214.318 394.851 211.418 397.988 207.88L386.081 201.805C384.271 203.883 381.802 205.587 378.898 206.763C375.994 207.939 372.747 208.55 369.452 208.54Z" fill="#44607B"/>
</svg>
