<svg width="590" height="369" viewBox="0 0 590 369" fill="none" xmlns="http://www.w3.org/2000/svg">
<rect width="590" height="369" fill="white"/>
<path d="M189.24 207.615L176.726 168.72H164.546L182.09 218.05H195.925L214.133 168.718H202.479L189.243 207.615H189.24ZM402.944 167.2C398.837 167.189 394.806 168.308 391.295 170.435V149.5H380.437V218.048H391.295V189.718C391.299 186.636 392.528 183.682 394.712 181.503C396.896 179.324 399.857 178.097 402.946 178.093C406.036 178.097 408.997 179.324 411.181 181.503C413.365 183.682 414.594 186.636 414.598 189.718V218.048H425.455V189.718C425.521 177.303 415.392 167.198 402.946 167.198L402.944 167.2ZM307.875 197.05C307.871 200.131 306.642 203.085 304.458 205.264C302.274 207.442 299.313 208.668 296.224 208.673C293.134 208.668 290.173 207.442 287.989 205.262C285.805 203.083 284.576 200.129 284.572 197.048V168.723H273.715V197.05C273.715 209.465 283.843 219.5 296.224 219.5C308.605 219.5 318.733 209.4 318.733 197.05V168.72H307.875V197.05ZM240.945 167.333C226.579 167.333 214.86 179.02 214.86 193.35C214.86 207.68 226.579 219.37 240.945 219.37C255.311 219.37 267.03 207.68 267.03 193.35C267.03 179.02 255.311 167.333 240.945 167.333ZM240.945 208.54C237.933 208.541 234.989 207.65 232.484 205.981C229.979 204.313 228.027 201.94 226.874 199.165C225.721 196.389 225.419 193.335 226.007 190.388C226.594 187.441 228.044 184.735 230.174 182.61C232.303 180.485 235.017 179.038 237.971 178.452C240.925 177.866 243.987 178.166 246.769 179.316C249.552 180.466 251.931 182.413 253.604 184.911C255.278 187.409 256.171 190.346 256.171 193.35C256.171 201.738 249.286 208.54 240.945 208.54ZM351.307 208.54C347.302 208.489 343.479 206.866 340.665 204.023C337.852 201.18 336.274 197.346 336.274 193.351C336.274 189.356 337.852 185.522 340.665 182.68C343.479 179.837 347.302 178.214 351.307 178.163C353.799 178.169 356.252 178.779 358.454 179.941C360.657 181.103 362.544 182.782 363.951 184.833L372.953 178.758C370.548 175.241 367.32 172.363 363.548 170.372C359.776 168.382 355.574 167.338 351.307 167.333C336.941 167.333 325.221 179.02 325.221 193.35C325.221 207.68 336.941 219.37 351.307 219.37C355.574 219.373 359.776 218.327 363.541 216.322C367.305 214.318 370.516 211.418 372.888 207.88L363.883 201.805C362.515 203.883 360.647 205.587 358.451 206.763C356.255 207.939 353.799 208.55 351.307 208.54Z" fill="url(#paint0_linear_4119_1422)"/>
<defs>
<linearGradient id="paint0_linear_4119_1422" x1="295.001" y1="149.5" x2="295.001" y2="237.593" gradientUnits="userSpaceOnUse">
<stop stop-color="#41F550"/>
<stop offset="1" stop-color="#31F1FF"/>
</linearGradient>
</defs>
</svg>
