<svg width="200" height="200" viewBox="0 0 200 200" fill="none" xmlns="http://www.w3.org/2000/svg">
<path d="M72.1772 70.9357C69.2393 70.9067 66.42 71.4899 63.6055 71.9013C60.716 72.3224 57.766 72.3272 55.0411 73.1767C52.2678 74.0406 49.8623 75.754 47.2971 77.0317C44.7028 78.324 41.7577 79.0355 39.4151 80.7126C37.0604 82.3969 34.7808 84.3063 32.7189 86.3439C30.6571 88.3816 29.2922 91.0872 27.5619 93.4394C25.8412 95.782 24.0892 98.1125 22.7388 100.728C21.4029 103.315 19.6436 105.818 18.7119 108.635C17.7947 111.401 17.5745 114.45 17.0881 117.395C16.6137 120.263 16.6428 123.225 16.6137 126.221C16.5847 129.217 16.7783 132.133 17.197 135.001C17.6277 137.943 18.724 140.635 19.5928 143.401C20.4761 146.215 21.3812 148.916 22.6831 151.503C23.9996 154.116 25.6355 156.43 27.3392 158.773C29.0502 161.125 30.4828 163.656 32.5447 165.694C34.6065 167.731 36.8063 169.617 39.1804 171.301C41.5423 172.978 43.7227 175.074 46.3508 176.364C48.9524 177.639 51.9798 178.096 54.8015 178.963C57.5724 179.812 60.3603 180.884 63.3055 181.303C66.1732 181.712 69.174 181.826 72.17 181.794C75.1659 181.765 78.1885 181.724 81.0563 181.259C84.0014 180.783 86.5763 178.953 89.3472 178.055C92.1665 177.143 94.9979 176.463 97.5995 175.151C100.228 173.825 102.773 172.424 105.135 170.727C107.507 169.024 109.874 167.303 111.936 165.263C113.997 163.225 115.643 160.83 117.356 158.494C119.06 156.171 120.42 153.666 121.737 151.084C123.039 148.531 124.66 146.087 125.546 143.321C126.415 140.603 127.235 137.784 127.666 134.897C128.084 132.085 128.295 129.147 128.266 126.209C128.237 123.271 126.961 120.49 126.487 117.678C126.001 114.791 126.088 111.832 125.171 109.111C124.239 106.345 123.019 103.688 121.683 101.135C120.333 98.5553 119.261 95.7336 117.54 93.408C115.812 91.0727 112.877 89.761 110.815 87.7234C108.753 85.6857 107.059 83.2681 104.705 81.5644C102.362 79.8704 99.7387 78.6168 97.1469 77.2907C94.5817 75.979 91.9971 74.694 89.2238 73.7792C86.4989 72.8814 83.74 71.8795 80.853 71.4028C78.0385 70.9381 75.12 71.4294 72.1821 71.4004C72.17 71.4004 72.1772 70.9285 72.1772 70.9285V70.9357Z" fill="#97A7B5"/>
<path d="M127.886 19.3435C127.886 19.4027 127.886 19.4637 127.887 19.5095C127.887 19.532 127.888 19.5531 127.89 19.5691C127.89 19.5764 127.891 19.5861 127.893 19.5955C127.893 19.5993 127.895 19.61 127.899 19.6218C127.901 19.6271 127.907 19.6408 127.918 19.655C127.928 19.6679 127.959 19.6996 128.013 19.7V19.7009C129.486 19.7155 130.958 19.5997 132.4 19.5388C133.847 19.4778 135.27 19.4717 136.665 19.7019C139.54 20.1767 142.287 21.1745 145.018 22.074C147.781 22.9854 150.358 24.2663 152.923 25.5779C155.519 26.9064 158.132 28.1554 160.465 29.8425C161.632 30.6869 162.637 31.7096 163.611 32.78C164.583 33.8475 165.528 34.9673 166.561 35.989C167.601 37.0163 168.861 37.8616 170.063 38.7322C171.27 39.6062 172.423 40.5086 173.274 41.6599C174.128 42.814 174.823 44.0935 175.474 45.4099C175.96 46.394 176.425 47.4042 176.912 48.3923L177.407 49.3708C178.741 51.9204 179.959 54.5716 180.888 57.3298C181.342 58.6769 181.548 60.0865 181.701 61.5251C181.854 62.9596 181.955 64.4296 182.199 65.8777C182.438 67.2912 182.878 68.6998 183.258 70.1072C183.639 71.5191 183.962 72.9367 183.977 74.3894C184.005 77.3207 183.796 80.2526 183.378 83.0583C182.949 85.9354 182.13 88.7473 181.262 91.4636C180.822 92.8364 180.199 94.1315 179.521 95.405C178.847 96.6731 178.11 97.9331 177.46 99.2087C176.144 101.79 174.788 104.287 173.091 106.602C171.374 108.942 169.735 111.327 167.682 113.356C165.628 115.389 163.269 117.104 160.896 118.808C158.542 120.499 156.002 121.897 153.376 123.222C150.786 124.528 147.973 125.204 145.142 126.12C143.747 126.572 142.4 127.258 141.048 127.885C139.691 128.513 138.323 129.084 136.868 129.319C134.011 129.782 130.997 129.823 128 129.852C125.008 129.884 122.014 129.771 119.154 129.363C116.222 128.946 113.45 127.88 110.669 127.027C109.256 126.593 107.785 126.26 106.356 125.88C104.924 125.498 103.525 125.067 102.235 124.434C100.932 123.795 99.7379 122.954 98.5712 122.061C97.408 121.171 96.2648 120.221 95.082 119.382C92.714 117.702 90.5186 115.821 88.4609 113.788C87.4376 112.777 86.5692 111.641 85.7411 110.462C84.9166 109.287 84.1233 108.056 83.2685 106.881C81.5649 104.538 79.9346 102.232 78.623 99.6277C77.3258 97.0502 76.4231 94.3576 75.54 91.5437C74.6673 88.7652 73.5773 86.0928 73.1484 83.1628C72.7307 80.3016 72.5374 77.3919 72.5663 74.4021C72.5954 71.4019 72.5666 68.4507 73.039 65.5945C73.528 62.634 73.7449 59.6064 74.6581 56.8523C75.1204 55.4547 75.7886 54.1326 76.5107 52.8337C77.2305 51.5389 78.009 50.2586 78.6777 48.9636C80.0227 46.3579 81.7688 44.036 83.4911 41.6912C84.3584 40.5121 85.1365 39.2401 85.9482 38.0203C86.7622 36.797 87.6138 35.62 88.6357 34.6101C90.6928 32.5771 92.9677 30.6717 95.3173 28.991C96.4764 28.1612 97.787 27.5676 99.1386 27.0193C100.486 26.4726 101.88 25.9689 103.183 25.3201C104.468 24.68 105.718 23.9278 106.98 23.2351C108.247 22.5403 109.533 21.8998 110.908 21.4714C112.259 21.0502 113.669 20.8382 115.106 20.6785C116.539 20.5192 118.007 20.4118 119.454 20.2009C122.239 19.7939 125.004 19.2241 127.886 19.2361C127.885 19.2695 127.886 19.3065 127.886 19.3435Z" stroke="#44607B" stroke-width="0.242001"/>
<mask id="path-4-inside-1_35_2614" fill="#F9F6F1">
<path d="M128.009 28.0653C131.036 28.0895 134.097 28.0218 137.004 28.6098C139.954 29.2076 142.657 30.7104 145.418 31.8599C148.179 33.0094 151.168 33.8395 153.675 35.5166C156.144 37.167 157.905 39.7564 160.064 41.8933C162.223 44.0302 164.081 46.2759 165.754 48.7274C167.452 51.2152 169.524 53.49 170.693 56.2367C171.862 58.9834 172.52 61.9455 173.127 64.8858C173.727 67.7826 173.396 70.7592 173.42 73.7794C173.444 76.7995 173.701 79.752 173.147 82.6487C172.585 85.589 172.009 88.539 170.874 91.2857C169.742 94.0325 168.307 96.6945 166.627 99.1822C164.972 101.634 163.372 104.293 161.214 106.428C159.055 108.565 156.519 110.394 154.031 112.045C151.504 113.719 148.821 115.355 146.026 116.507C143.228 117.657 140.082 118.034 137.086 118.632C134.134 119.22 131.084 119.51 128.006 119.535C124.928 119.561 122.017 118.632 119.067 118.087C116.071 117.536 113.007 117.369 110.212 116.255C107.417 115.142 104.972 113.378 102.448 111.72C99.9606 110.089 97.6132 108.306 95.4546 106.171C93.2959 104.037 91.6043 101.631 89.9515 99.1629C88.272 96.6557 85.8011 94.5479 84.6686 91.7649C83.536 88.9819 83.0932 85.8577 82.5317 82.8689C81.9775 79.9262 81.8275 76.8552 81.8517 73.7866C81.8759 70.7156 82.4035 67.7124 83.0036 64.7697C83.611 61.7834 84.2088 58.7753 85.3776 55.9923C86.5465 53.2093 87.8775 50.419 89.5764 47.9119C91.2486 45.441 93.6129 43.4711 95.7716 41.3367C97.9302 39.1998 100.316 37.4647 102.787 35.8336C105.294 34.1759 107.884 32.8207 110.645 31.705C113.406 30.5894 116.017 28.7671 118.967 28.2178C121.874 27.6757 124.984 28.2081 128.011 28.2323M128.009 18.5063C125.071 18.4772 122.251 19.0605 119.437 19.4719C116.547 19.893 113.597 19.8978 110.872 20.7472C108.099 21.6112 105.694 23.3245 103.128 24.6023C100.534 25.8946 97.589 26.6061 95.2465 28.2831C92.8918 29.9675 90.6121 31.8769 88.5503 33.9145C86.4884 35.9522 85.1235 38.6577 83.3932 41.01C81.6726 43.3526 79.9205 45.683 78.5702 48.2991C77.2343 50.886 75.475 53.3883 74.5433 56.2052C73.6261 58.9713 73.4058 62.0205 72.9194 64.9657C72.4451 67.8334 72.4741 70.7955 72.4451 73.7915C72.4161 76.7874 72.6097 79.7036 73.0283 82.5713C73.4591 85.514 74.5554 88.2051 75.4241 90.9711C76.3074 93.7856 77.2125 96.4863 78.5145 99.0733C79.831 101.687 81.4669 104 83.1706 106.343C84.8815 108.695 86.3142 111.227 88.376 113.264C90.4379 115.302 92.6377 117.187 95.0117 118.871C97.3736 120.549 99.5541 122.644 102.182 123.934C104.784 125.209 107.811 125.667 110.633 126.533C113.404 127.383 116.192 128.455 119.137 128.873C122.005 129.282 125.005 129.396 128.001 129.365C130.997 129.336 134.02 129.294 136.888 128.83C139.833 128.353 142.408 126.524 145.179 125.626C147.998 124.713 150.829 124.033 153.431 122.722C156.059 121.396 158.605 119.994 160.967 118.298C163.338 116.594 165.705 114.874 167.767 112.834C169.829 110.796 171.474 108.4 173.188 106.065C174.891 103.742 176.252 101.237 177.568 98.6547C178.87 96.1016 180.491 93.6573 181.377 90.8913C182.246 88.1736 183.066 85.3543 183.497 82.4672C183.916 79.6552 184.126 76.7173 184.097 73.7794C184.068 70.8415 182.793 68.0609 182.319 65.2488C181.832 62.3617 181.919 59.4021 181.002 56.682C180.07 53.9159 178.851 51.2587 177.515 48.7056C176.164 46.1259 175.092 43.3042 173.372 40.9785C171.644 38.6432 168.708 37.3316 166.647 35.2939C164.585 33.2563 162.891 30.8387 160.536 29.135C158.193 27.441 155.57 26.1874 152.978 24.8612C150.413 23.5496 147.828 22.2646 145.055 21.3498C142.33 20.452 139.571 19.4501 136.684 18.9733C133.87 18.5087 130.951 19 128.013 18.9709C128.001 18.9709 128.009 18.499 128.009 18.499V18.5063Z"/>
</mask>
<path d="M128.009 28.0653C131.036 28.0895 134.097 28.0218 137.004 28.6098C139.954 29.2076 142.657 30.7104 145.418 31.8599C148.179 33.0094 151.168 33.8395 153.675 35.5166C156.144 37.167 157.905 39.7564 160.064 41.8933C162.223 44.0302 164.081 46.2759 165.754 48.7274C167.452 51.2152 169.524 53.49 170.693 56.2367C171.862 58.9834 172.52 61.9455 173.127 64.8858C173.727 67.7826 173.396 70.7592 173.42 73.7794C173.444 76.7995 173.701 79.752 173.147 82.6487C172.585 85.589 172.009 88.539 170.874 91.2857C169.742 94.0325 168.307 96.6945 166.627 99.1822C164.972 101.634 163.372 104.293 161.214 106.428C159.055 108.565 156.519 110.394 154.031 112.045C151.504 113.719 148.821 115.355 146.026 116.507C143.228 117.657 140.082 118.034 137.086 118.632C134.134 119.22 131.084 119.51 128.006 119.535C124.928 119.561 122.017 118.632 119.067 118.087C116.071 117.536 113.007 117.369 110.212 116.255C107.417 115.142 104.972 113.378 102.448 111.72C99.9606 110.089 97.6132 108.306 95.4546 106.171C93.2959 104.037 91.6043 101.631 89.9515 99.1629C88.272 96.6557 85.8011 94.5479 84.6686 91.7649C83.536 88.9819 83.0932 85.8577 82.5317 82.8689C81.9775 79.9262 81.8275 76.8552 81.8517 73.7866C81.8759 70.7156 82.4035 67.7124 83.0036 64.7697C83.611 61.7834 84.2088 58.7753 85.3776 55.9923C86.5465 53.2093 87.8775 50.419 89.5764 47.9119C91.2486 45.441 93.6129 43.4711 95.7716 41.3367C97.9302 39.1998 100.316 37.4647 102.787 35.8336C105.294 34.1759 107.884 32.8207 110.645 31.705C113.406 30.5894 116.017 28.7671 118.967 28.2178C121.874 27.6757 124.984 28.2081 128.011 28.2323M128.009 18.5063C125.071 18.4772 122.251 19.0605 119.437 19.4719C116.547 19.893 113.597 19.8978 110.872 20.7472C108.099 21.6112 105.694 23.3245 103.128 24.6023C100.534 25.8946 97.589 26.6061 95.2465 28.2831C92.8918 29.9675 90.6121 31.8769 88.5503 33.9145C86.4884 35.9522 85.1235 38.6577 83.3932 41.01C81.6726 43.3526 79.9205 45.683 78.5702 48.2991C77.2343 50.886 75.475 53.3883 74.5433 56.2052C73.6261 58.9713 73.4058 62.0205 72.9194 64.9657C72.4451 67.8334 72.4741 70.7955 72.4451 73.7915C72.4161 76.7874 72.6097 79.7036 73.0283 82.5713C73.4591 85.514 74.5554 88.2051 75.4241 90.9711C76.3074 93.7856 77.2125 96.4863 78.5145 99.0733C79.831 101.687 81.4669 104 83.1706 106.343C84.8815 108.695 86.3142 111.227 88.376 113.264C90.4379 115.302 92.6377 117.187 95.0117 118.871C97.3736 120.549 99.5541 122.644 102.182 123.934C104.784 125.209 107.811 125.667 110.633 126.533C113.404 127.383 116.192 128.455 119.137 128.873C122.005 129.282 125.005 129.396 128.001 129.365C130.997 129.336 134.02 129.294 136.888 128.83C139.833 128.353 142.408 126.524 145.179 125.626C147.998 124.713 150.829 124.033 153.431 122.722C156.059 121.396 158.605 119.994 160.967 118.298C163.338 116.594 165.705 114.874 167.767 112.834C169.829 110.796 171.474 108.4 173.188 106.065C174.891 103.742 176.252 101.237 177.568 98.6547C178.87 96.1016 180.491 93.6573 181.377 90.8913C182.246 88.1736 183.066 85.3543 183.497 82.4672C183.916 79.6552 184.126 76.7173 184.097 73.7794C184.068 70.8415 182.793 68.0609 182.319 65.2488C181.832 62.3617 181.919 59.4021 181.002 56.682C180.07 53.9159 178.851 51.2587 177.515 48.7056C176.164 46.1259 175.092 43.3042 173.372 40.9785C171.644 38.6432 168.708 37.3316 166.647 35.2939C164.585 33.2563 162.891 30.8387 160.536 29.135C158.193 27.441 155.57 26.1874 152.978 24.8612C150.413 23.5496 147.828 22.2646 145.055 21.3498C142.33 20.452 139.571 19.4501 136.684 18.9733C133.87 18.5087 130.951 19 128.013 18.9709C128.001 18.9709 128.009 18.499 128.009 18.499V18.5063Z" fill="#F9F6F1"/>
<path d="M137.004 28.6098L137.052 28.3727L137.052 28.3726L137.004 28.6098ZM153.675 35.5166L153.541 35.7177L153.541 35.7177L153.675 35.5166ZM165.754 48.7274L165.554 48.8638L165.554 48.8639L165.754 48.7274ZM173.127 64.8858L172.89 64.9348L172.89 64.9349L173.127 64.8858ZM173.147 82.6487L172.909 82.6032L172.909 82.6033L173.147 82.6487ZM170.874 91.2857L170.651 91.1933L170.651 91.1935L170.874 91.2857ZM166.627 99.1822L166.828 99.3177L166.828 99.3176L166.627 99.1822ZM161.214 106.428L161.043 106.256L161.043 106.256L161.214 106.428ZM154.031 112.045L154.165 112.246L154.165 112.246L154.031 112.045ZM146.026 116.507L146.118 116.731L146.118 116.731L146.026 116.507ZM137.086 118.632L137.133 118.869L137.133 118.869L137.086 118.632ZM128.006 119.535L128.004 119.293L128.004 119.293L128.006 119.535ZM119.067 118.087L119.111 117.849L119.11 117.849L119.067 118.087ZM102.448 111.72L102.581 111.518L102.581 111.518L102.448 111.72ZM89.9515 99.1629L90.1526 99.0282L90.1525 99.0282L89.9515 99.1629ZM82.5317 82.8689L82.7696 82.8243L82.7695 82.8241L82.5317 82.8689ZM81.8517 73.7866L82.0937 73.7885L82.0937 73.7885L81.8517 73.7866ZM83.0036 64.7697L83.2407 64.818L83.2408 64.8179L83.0036 64.7697ZM89.5764 47.9119L89.7767 48.0476L89.7768 48.0475L89.5764 47.9119ZM95.7716 41.3367L95.9418 41.5088L95.9418 41.5087L95.7716 41.3367ZM102.787 35.8336L102.921 36.0355L102.921 36.0354L102.787 35.8336ZM118.967 28.2178L119.012 28.4557L119.012 28.4557L118.967 28.2178ZM128.009 18.5063L128.006 18.7483L128.251 18.7507V18.5063H128.009ZM119.437 19.4719L119.472 19.7113L119.472 19.7113L119.437 19.4719ZM110.872 20.7472L110.944 20.9783L110.944 20.9783L110.872 20.7472ZM103.128 24.6023L103.021 24.3857L103.021 24.3857L103.128 24.6023ZM95.2465 28.2831L95.3873 28.48L95.3873 28.4799L95.2465 28.2831ZM83.3932 41.01L83.1983 40.8666L83.1982 40.8667L83.3932 41.01ZM78.5702 48.2991L78.7852 48.4101L78.7852 48.4101L78.5702 48.2991ZM74.5433 56.2052L74.773 56.2814L74.773 56.2812L74.5433 56.2052ZM72.9194 64.9657L73.1582 65.0052L73.1582 65.0051L72.9194 64.9657ZM73.0283 82.5713L72.7889 82.6062L72.7889 82.6063L73.0283 82.5713ZM75.4241 90.9711L75.655 90.8987L75.655 90.8986L75.4241 90.9711ZM78.5145 99.0733L78.2983 99.1821L78.2984 99.1822L78.5145 99.0733ZM83.1706 106.343L82.9749 106.485L82.9749 106.485L83.1706 106.343ZM95.0117 118.871L95.1518 118.674L95.1517 118.674L95.0117 118.871ZM102.182 123.934L102.076 124.151L102.076 124.151L102.182 123.934ZM110.633 126.533L110.562 126.765L110.562 126.765L110.633 126.533ZM119.137 128.873L119.171 128.634L119.171 128.634L119.137 128.873ZM128.001 129.365L127.999 129.123L127.999 129.123L128.001 129.365ZM136.888 128.83L136.849 128.591L136.849 128.591L136.888 128.83ZM145.179 125.626L145.104 125.395L145.104 125.395L145.179 125.626ZM153.431 122.722L153.54 122.938L153.54 122.938L153.431 122.722ZM160.967 118.298L161.108 118.494L161.108 118.494L160.967 118.298ZM167.767 112.834L167.597 112.661L167.597 112.662L167.767 112.834ZM173.188 106.065L173.383 106.208L173.383 106.208L173.188 106.065ZM177.568 98.6547L177.352 98.5447L177.352 98.5448L177.568 98.6547ZM181.377 90.8913L181.608 90.9651L181.608 90.965L181.377 90.8913ZM183.497 82.4672L183.736 82.5029L183.736 82.5028L183.497 82.4672ZM182.319 65.2488L182.08 65.289L182.08 65.2891L182.319 65.2488ZM181.002 56.682L180.773 56.7592L180.773 56.7593L181.002 56.682ZM177.515 48.7056L177.729 48.5934L177.729 48.5934L177.515 48.7056ZM173.372 40.9785L173.566 40.8346L173.566 40.8346L173.372 40.9785ZM160.536 29.135L160.678 28.9389L160.678 28.9389L160.536 29.135ZM152.978 24.8612L153.089 24.6458L153.088 24.6458L152.978 24.8612ZM145.055 21.3498L145.131 21.12L145.131 21.12L145.055 21.3498ZM136.684 18.9733L136.724 18.7346L136.724 18.7346L136.684 18.9733ZM128.013 18.9709L128.016 18.7289H128.013V18.9709ZM128.009 18.499H128.251L127.767 18.4953L128.009 18.499ZM128.009 28.0653L128.007 28.3073C131.046 28.3316 134.078 28.2648 136.956 28.847L137.004 28.6098L137.052 28.3726C134.117 27.7788 131.026 27.8474 128.011 27.8233L128.009 28.0653ZM137.004 28.6098L136.956 28.847C138.407 29.1411 139.803 29.6589 141.187 30.2505C141.878 30.5463 142.565 30.8593 143.253 31.1716C143.941 31.4834 144.631 31.7943 145.325 32.0833L145.418 31.8599L145.511 31.6365C144.825 31.3507 144.141 31.0427 143.453 30.7308C142.766 30.4193 142.075 30.1038 141.377 29.8054C139.981 29.2088 138.55 28.6763 137.052 28.3727L137.004 28.6098ZM145.418 31.8599L145.325 32.0833C146.7 32.6555 148.17 33.1635 149.552 33.7152C150.952 34.2736 152.308 34.893 153.541 35.7177L153.675 35.5166L153.81 35.3154C152.535 34.463 151.143 33.8289 149.732 33.2656C148.303 32.6956 146.898 32.2138 145.511 31.6365L145.418 31.8599ZM153.675 35.5166L153.541 35.7177C154.75 36.5262 155.791 37.5684 156.807 38.6853C157.815 39.7947 158.809 40.9913 159.894 42.0653L160.064 41.8933L160.234 41.7213C159.161 40.6584 158.194 39.4918 157.165 38.3597C156.143 37.2351 155.069 36.1574 153.81 35.3154L153.675 35.5166ZM160.064 41.8933L159.894 42.0653C162.041 44.191 163.89 46.4248 165.554 48.8638L165.754 48.7274L165.953 48.591C164.273 46.127 162.404 43.8693 160.234 41.7213L160.064 41.8933ZM165.754 48.7274L165.554 48.8639C166.402 50.1068 167.361 51.3195 168.225 52.5259C169.098 53.7438 169.896 54.9823 170.47 56.3315L170.693 56.2367L170.915 56.1419C170.321 54.7444 169.499 53.4721 168.619 52.244C167.73 51.0044 166.803 49.8358 165.953 48.5909L165.754 48.7274ZM170.693 56.2367L170.47 56.3315C171.628 59.0534 172.283 61.9937 172.89 64.9348L173.127 64.8858L173.364 64.8369C172.757 61.8973 172.095 58.9134 170.915 56.1419L170.693 56.2367ZM173.127 64.8858L172.89 64.9349C173.185 66.3593 173.253 67.8084 173.248 69.2855C173.245 70.0242 173.225 70.7668 173.207 71.5171C173.188 72.2661 173.172 73.0219 173.178 73.7813L173.42 73.7794L173.662 73.7774C173.656 73.0267 173.672 72.2779 173.69 71.5289C173.709 70.781 173.729 70.0322 173.732 69.2871C173.737 67.7967 173.669 66.3091 173.364 64.8367L173.127 64.8858ZM173.42 73.7794L173.178 73.7813C173.203 76.8274 173.457 79.7377 172.909 82.6032L173.147 82.6487L173.384 82.6942C173.944 79.7663 173.686 76.7717 173.662 73.7774L173.42 73.7794ZM173.147 82.6487L172.909 82.6033C172.347 85.547 171.775 88.473 170.651 91.1933L170.874 91.2857L171.098 91.3782C172.244 88.6051 172.824 85.6311 173.384 82.6941L173.147 82.6487ZM170.874 91.2857L170.651 91.1935C169.524 93.9247 168.097 96.5723 166.427 99.0468L166.627 99.1822L166.828 99.3176C168.516 96.8166 169.959 94.1402 171.098 91.378L170.874 91.2857ZM166.627 99.1822L166.427 99.0468C164.761 101.514 163.18 104.143 161.043 106.256L161.214 106.428L161.384 106.6C163.564 104.444 165.183 101.754 166.828 99.3177L166.627 99.1822ZM161.214 106.428L161.043 106.256C158.902 108.376 156.381 110.195 153.897 111.843L154.031 112.045L154.165 112.246C156.657 110.593 159.208 108.753 161.384 106.6L161.214 106.428ZM154.031 112.045L153.897 111.843C151.374 113.515 148.706 115.141 145.933 116.283L146.026 116.507L146.118 116.731C148.935 115.57 151.635 113.923 154.165 112.246L154.031 112.045ZM146.026 116.507L145.934 116.283C143.165 117.421 140.061 117.792 137.039 118.395L137.086 118.632L137.133 118.869C140.103 118.277 143.291 117.892 146.118 116.731L146.026 116.507ZM137.086 118.632L137.039 118.395C134.103 118.979 131.069 119.268 128.004 119.293L128.006 119.535L128.008 119.777C131.1 119.752 134.165 119.461 137.133 118.869L137.086 118.632ZM128.006 119.535L128.004 119.293C126.489 119.306 125.011 119.084 123.536 118.788C122.078 118.496 120.579 118.121 119.111 117.849L119.067 118.087L119.023 118.325C120.504 118.599 121.935 118.961 123.441 119.262C124.929 119.561 126.445 119.79 128.008 119.777L128.006 119.535ZM119.067 118.087L119.11 117.849C117.618 117.575 116.07 117.389 114.604 117.143C113.121 116.894 111.675 116.578 110.301 116.031L110.212 116.255L110.122 116.48C111.543 117.046 113.028 117.37 114.524 117.621C116.037 117.874 117.519 118.048 119.023 118.325L119.067 118.087ZM110.212 116.255L110.301 116.031C107.535 114.929 105.119 113.184 102.581 111.518L102.448 111.72L102.316 111.923C104.826 113.572 107.298 115.355 110.122 116.48L110.212 116.255ZM102.448 111.72L102.581 111.518C100.103 109.893 97.7688 108.119 95.6247 105.999L95.4546 106.171L95.2844 106.343C97.4576 108.492 99.8187 110.286 102.316 111.923L102.448 111.72ZM95.4546 106.171L95.6247 105.999C93.4847 103.883 91.8045 101.495 90.1526 99.0282L89.9515 99.1629L89.7504 99.2975C91.4041 101.767 93.1071 104.19 95.2844 106.343L95.4546 106.171ZM89.9515 99.1629L90.1525 99.0282C89.3043 97.762 88.2515 96.5902 87.2925 95.4144C86.3262 94.2298 85.4448 93.0301 84.8927 91.6737L84.6686 91.7649L84.4444 91.8561C85.025 93.2827 85.9452 94.5285 86.9174 95.7203C87.8967 96.9209 88.9191 98.0566 89.7504 99.2976L89.9515 99.1629ZM84.6686 91.7649L84.8927 91.6737C83.772 88.9198 83.3341 85.8296 82.7696 82.8243L82.5317 82.8689L82.2939 82.9136C82.8522 85.8857 83.3 89.044 84.4444 91.8561L84.6686 91.7649ZM82.5317 82.8689L82.7695 82.8241C82.2194 79.9028 82.0695 76.849 82.0937 73.7885L81.8517 73.7866L81.6097 73.7847C81.5854 76.8614 81.7357 79.9496 82.2939 82.9137L82.5317 82.8689ZM81.8517 73.7866L82.0937 73.7885C82.1177 70.7423 82.6411 67.7583 83.2407 64.818L83.0036 64.7697L82.7665 64.7213C82.1658 67.6665 81.6341 70.689 81.6097 73.7847L81.8517 73.7866ZM83.0036 64.7697L83.2408 64.8179C83.8493 61.8263 84.4429 58.8429 85.6008 56.086L85.3776 55.9923L85.1545 55.8986C83.9747 58.7077 83.3728 61.7405 82.7665 64.7214L83.0036 64.7697ZM85.3776 55.9923L85.6008 56.086C86.7671 53.3089 88.0909 50.5354 89.7767 48.0476L89.5764 47.9119L89.376 47.7761C87.6641 50.3025 86.3259 53.1096 85.1545 55.8986L85.3776 55.9923ZM89.5764 47.9119L89.7768 48.0475C91.4312 45.6029 93.7627 43.6634 95.9418 41.5088L95.7716 41.3367L95.6014 41.1646C93.4632 43.2789 91.0659 45.2791 89.376 47.7762L89.5764 47.9119ZM95.7716 41.3367L95.9418 41.5087C98.084 39.3881 100.455 37.6631 102.921 36.0355L102.787 35.8336L102.654 35.6316C100.178 37.2662 97.7765 39.0115 95.6013 41.1647L95.7716 41.3367ZM102.787 35.8336L102.921 36.0354C105.414 34.3868 107.989 33.0391 110.736 31.9294L110.645 31.705L110.554 31.4807C107.778 32.6022 105.175 33.965 102.654 35.6317L102.787 35.8336ZM110.645 31.705L110.736 31.9294C112.126 31.3676 113.489 30.6233 114.841 29.9667C116.203 29.3054 117.57 28.7243 119.012 28.4557L118.967 28.2178L118.923 27.9799C117.415 28.2607 116.001 28.8653 114.63 29.5314C113.248 30.2021 111.925 30.9269 110.554 31.4807L110.645 31.705ZM118.967 28.2178L119.012 28.4557C120.437 28.1898 121.919 28.1863 123.433 28.2545C124.936 28.3221 126.491 28.4622 128.009 28.4743L128.011 28.2323L128.013 27.9903C126.504 27.9783 124.99 27.84 123.455 27.7709C121.93 27.7023 120.404 27.7037 118.923 27.9799L118.967 28.2178ZM128.009 18.5063L128.011 18.2643C125.048 18.235 122.198 18.8237 119.402 19.2324L119.437 19.4719L119.472 19.7113C122.305 19.2972 125.093 18.7195 128.006 18.7483L128.009 18.5063ZM119.437 19.4719L119.402 19.2324C117.962 19.4423 116.519 19.5469 115.066 19.7084C113.622 19.8689 112.185 20.0845 110.8 20.5162L110.872 20.7472L110.944 20.9783C112.285 20.5605 113.685 20.3489 115.12 20.1894C116.546 20.0309 118.023 19.9225 119.472 19.7113L119.437 19.4719ZM110.872 20.7472L110.8 20.5162C109.391 20.9554 108.079 21.6089 106.806 22.3074C105.525 23.0101 104.298 23.7493 103.021 24.3857L103.128 24.6023L103.236 24.8189C104.524 24.1776 105.782 23.4211 107.039 22.7317C108.303 22.0381 109.581 21.403 110.944 20.9783L110.872 20.7472ZM103.128 24.6023L103.021 24.3857C101.734 25.0263 100.367 25.5204 99.0021 26.0742C97.6452 26.6247 96.3012 27.2304 95.1056 28.0864L95.2465 28.2831L95.3873 28.4799C96.5343 27.6588 97.8342 27.0703 99.184 26.5227C100.526 25.9784 101.928 25.4706 103.236 24.8189L103.128 24.6023ZM95.2465 28.2831L95.1057 28.0863C92.741 29.7778 90.4515 31.6954 88.3802 33.7424L88.5503 33.9145L88.7204 34.0866C90.7728 32.0583 93.0426 30.1571 95.3873 28.48L95.2465 28.2831ZM88.5503 33.9145L88.3802 33.7424C87.3313 34.779 86.4636 35.9814 85.646 37.2102C84.8236 38.446 84.0592 39.6963 83.1983 40.8666L83.3932 41.01L83.5882 41.1534C84.4576 39.9714 85.2407 38.6928 86.0489 37.4783C86.8617 36.2568 87.7075 35.0877 88.7204 34.0866L88.5503 33.9145ZM83.3932 41.01L83.1982 40.8667C81.481 43.2046 79.716 45.5516 78.3551 48.1881L78.5702 48.2991L78.7852 48.4101C80.125 45.8145 81.8642 43.5005 83.5883 41.1532L83.3932 41.01ZM78.5702 48.2991L78.3551 48.188C77.6888 49.4785 76.9239 50.7348 76.1936 52.0483C75.468 53.3537 74.7865 54.6991 74.3135 56.1292L74.5433 56.2052L74.773 56.2812C75.2317 54.8945 75.8958 53.5803 76.6167 52.2835C77.333 50.9949 78.1157 49.7066 78.7852 48.4101L78.5702 48.2991ZM74.5433 56.2052L74.3135 56.1291C73.3885 58.919 73.162 62.0118 72.6807 64.9262L72.9194 64.9657L73.1582 65.0051C73.6497 62.0292 73.8637 59.0236 74.773 56.2814L74.5433 56.2052ZM72.9194 64.9657L72.6807 64.9262C72.2025 67.8169 72.2321 70.8016 72.2031 73.7891L72.4451 73.7915L72.6871 73.7938C72.7162 70.7894 72.6877 67.8499 73.1582 65.0052L72.9194 64.9657ZM72.4451 73.7915L72.2031 73.7891C72.174 76.7972 72.3683 79.7257 72.7889 82.6062L73.0283 82.5713L73.2678 82.5363C72.851 79.6814 72.6582 76.7777 72.6871 73.7938L72.4451 73.7915ZM73.0283 82.5713L72.7889 82.6063C73.2234 85.5745 74.3323 88.3025 75.1933 91.0437L75.4241 90.9711L75.655 90.8986C74.7784 88.1076 73.6948 85.4535 73.2678 82.5362L73.0283 82.5713ZM75.4241 90.9711L75.1932 91.0436C76.0769 93.8592 76.9868 96.5762 78.2983 99.1821L78.5145 99.0733L78.7307 98.9645C77.4382 96.3965 76.538 93.712 75.655 90.8987L75.4241 90.9711ZM78.5145 99.0733L78.2984 99.1822C79.6246 101.815 81.2711 104.143 82.9749 106.485L83.1706 106.343L83.3663 106.201C81.6627 103.858 80.0374 101.559 78.7306 98.9645L78.5145 99.0733ZM83.1706 106.343L82.9749 106.485C83.8317 107.663 84.6036 108.864 85.4437 110.061C86.2766 111.247 87.1599 112.403 88.2059 113.436L88.376 113.264L88.5461 113.092C87.5303 112.088 86.6664 110.96 85.8398 109.783C85.0203 108.616 84.2204 107.375 83.3663 106.201L83.1706 106.343ZM88.376 113.264L88.2059 113.436C90.2759 115.482 92.4857 117.376 94.8717 119.069L95.0117 118.871L95.1517 118.674C92.7897 116.998 90.5999 115.122 88.5461 113.092L88.376 113.264ZM95.0117 118.871L94.8716 119.069C96.0488 119.905 97.17 120.837 98.35 121.74C99.5228 122.638 100.74 123.496 102.076 124.151L102.182 123.934L102.289 123.717C100.996 123.083 99.8092 122.248 98.6442 121.356C97.4866 120.47 96.3366 119.515 95.1518 118.674L95.0117 118.871ZM102.182 123.934L102.076 124.151C103.398 124.8 104.824 125.238 106.263 125.621C107.71 126.006 109.156 126.333 110.562 126.765L110.633 126.533L110.704 126.302C109.288 125.867 107.809 125.532 106.387 125.153C104.957 124.772 103.568 124.344 102.289 123.717L102.182 123.934ZM110.633 126.533L110.562 126.765C113.311 127.607 116.133 128.691 119.103 129.113L119.137 128.873L119.171 128.634C116.251 128.219 113.496 127.158 110.704 126.302L110.633 126.533ZM119.137 128.873L119.103 129.113C121.987 129.524 125.001 129.638 128.004 129.607L128.001 129.365L127.999 129.123C125.01 129.154 122.022 129.04 119.171 128.634L119.137 128.873ZM128.001 129.365L128.004 129.607C130.997 129.578 134.038 129.537 136.926 129.069L136.888 128.83L136.849 128.591C134.002 129.052 130.998 129.094 127.999 129.123L128.001 129.365ZM136.888 128.83L136.926 129.069C138.434 128.825 139.839 128.236 141.2 127.605C142.57 126.971 143.886 126.299 145.253 125.856L145.179 125.626L145.104 125.395C143.7 125.85 142.343 126.542 140.997 127.166C139.641 127.794 138.287 128.358 136.849 128.591L136.888 128.83ZM145.179 125.626L145.253 125.856C148.049 124.951 150.916 124.261 153.54 122.938L153.431 122.722L153.322 122.506C150.743 123.806 147.947 124.475 145.104 125.395L145.179 125.626ZM153.431 122.722L153.54 122.938C156.172 121.609 158.731 120.202 161.108 118.494L160.967 118.298L160.826 118.101C158.479 119.787 155.946 121.182 153.322 122.506L153.431 122.722ZM160.967 118.298L161.108 118.494C163.478 116.792 165.86 115.061 167.937 113.006L167.767 112.834L167.597 112.662C165.55 114.686 163.199 116.397 160.826 118.101L160.967 118.298ZM167.767 112.834L167.937 113.006C170.016 110.951 171.676 108.534 173.383 106.208L173.188 106.065L172.993 105.922C171.273 108.266 169.641 110.641 167.597 112.661L167.767 112.834ZM173.188 106.065L173.383 106.208C175.099 103.868 176.466 101.349 177.784 98.7646L177.568 98.6547L177.352 98.5448C176.037 101.125 174.684 103.615 172.993 105.922L173.188 106.065ZM177.568 98.6547L177.784 98.7646C178.435 97.4863 179.155 96.2582 179.842 94.9665C180.524 93.6857 181.158 92.3684 181.608 90.9651L181.377 90.8913L181.147 90.8175C180.71 92.1802 180.091 93.468 179.415 94.7392C178.745 95.9994 178.003 97.2699 177.352 98.5447L177.568 98.6547ZM181.377 90.8913L181.608 90.965C182.477 88.2446 183.303 85.4101 183.736 82.5029L183.497 82.4672L183.258 82.4315C182.83 85.2985 182.015 88.1026 181.147 90.8176L181.377 90.8913ZM183.497 82.4672L183.736 82.5028C184.157 79.6784 184.368 76.7278 184.339 73.777L184.097 73.7794L183.855 73.7818C183.884 76.7067 183.674 79.6319 183.258 82.4316L183.497 82.4672ZM184.097 73.7794L184.339 73.777C184.324 72.2757 183.991 70.8214 183.608 69.4038C183.223 67.9772 182.792 66.5993 182.557 65.2086L182.319 65.2488L182.08 65.2891C182.32 66.7104 182.763 68.1289 183.141 69.53C183.522 70.9402 183.841 72.3451 183.855 73.7818L184.097 73.7794ZM182.319 65.2488L182.557 65.2086C182.316 63.7747 182.217 62.3303 182.062 60.8771C181.908 59.4321 181.699 57.9906 181.231 56.6047L181.002 56.682L180.773 56.7593C181.223 58.0934 181.428 59.4919 181.581 60.9285C181.734 62.3569 181.835 63.8359 182.08 65.289L182.319 65.2488ZM181.002 56.682L181.231 56.6047C180.294 53.8229 179.069 51.1537 177.729 48.5934L177.515 48.7056L177.3 48.8178C178.632 51.3638 179.846 54.0089 180.773 56.7592L181.002 56.682ZM177.515 48.7056L177.729 48.5934C177.055 47.3047 176.457 45.9713 175.799 44.6395C175.145 43.3167 174.439 42.0147 173.566 40.8346L173.372 40.9785L173.177 41.1225C174.025 42.268 174.715 43.5397 175.365 44.854C176.011 46.1595 176.625 47.5268 177.3 48.8178L177.515 48.7056ZM173.372 40.9785L173.566 40.8346C172.678 39.6343 171.485 38.704 170.276 37.8286C169.058 36.9462 167.831 36.1238 166.817 35.1218L166.647 35.2939L166.476 35.466C167.524 36.5017 168.796 37.3539 169.992 38.2206C171.199 39.0942 172.337 39.9874 173.177 41.1225L173.372 40.9785ZM166.647 35.2939L166.817 35.1218C165.792 34.1088 164.864 33.0076 163.88 31.9263C162.901 30.8509 161.876 29.8057 160.678 28.9389L160.536 29.135L160.394 29.331C161.551 30.1679 162.55 31.1833 163.522 32.2521C164.489 33.3149 165.44 34.4413 166.476 35.466L166.647 35.2939ZM160.536 29.135L160.678 28.9389C158.316 27.2311 155.671 25.9673 153.089 24.6458L152.978 24.8612L152.868 25.0767C155.469 26.4075 158.071 27.6508 160.394 29.3311L160.536 29.135ZM152.978 24.8612L153.088 24.6458C150.524 23.3343 147.924 22.0412 145.131 21.12L145.055 21.3498L144.979 21.5796C147.733 22.4879 150.303 23.7649 152.868 25.0767L152.978 24.8612ZM145.055 21.3498L145.131 21.12C142.416 20.2255 139.634 19.2152 136.724 18.7346L136.684 18.9733L136.645 19.2121C139.508 19.685 142.244 20.6784 144.979 21.5796L145.055 21.3498ZM136.684 18.9733L136.724 18.7346C135.291 18.4981 133.838 18.5057 132.385 18.567C130.924 18.6286 129.477 18.7434 128.016 18.7289L128.013 18.9709L128.011 19.2129C129.488 19.2275 130.969 19.1112 132.405 19.0506C133.85 18.9896 135.263 18.984 136.645 19.2121L136.684 18.9733ZM128.013 18.9709V18.7289C128.121 18.7289 128.183 18.7951 128.203 18.8203C128.225 18.8481 128.235 18.874 128.238 18.8832C128.246 18.9042 128.249 18.921 128.25 18.9235C128.251 18.9324 128.251 18.9372 128.251 18.9327C128.251 18.9262 128.25 18.9128 128.249 18.8916C128.249 18.8506 128.248 18.7941 128.248 18.7356C128.249 18.6775 128.249 18.6193 128.25 18.5754C128.25 18.5536 128.25 18.5353 128.25 18.5226C128.25 18.5162 128.25 18.5112 128.25 18.5078C128.251 18.5061 128.251 18.5049 128.251 18.504C128.251 18.5036 128.251 18.5032 128.251 18.503C128.251 18.5029 128.251 18.5029 128.251 18.5028C128.251 18.5028 128.251 18.5028 128.251 18.5028C128.251 18.5028 128.251 18.5027 128.251 18.5027C128.251 18.5027 128.251 18.5027 128.009 18.499C127.767 18.4953 127.767 18.4953 127.767 18.4953C127.767 18.4953 127.767 18.4953 127.767 18.4953C127.767 18.4954 127.767 18.4954 127.767 18.4954C127.767 18.4955 127.767 18.4956 127.767 18.4957C127.767 18.4959 127.767 18.4963 127.767 18.4968C127.767 18.4977 127.767 18.499 127.767 18.5008C127.766 18.5043 127.766 18.5095 127.766 18.516C127.766 18.5291 127.766 18.5477 127.766 18.5701C127.765 18.6147 127.765 18.6744 127.764 18.7344C127.764 18.7938 127.765 18.8553 127.766 18.9028C127.766 18.9258 127.767 18.9493 127.768 18.9686C127.769 18.977 127.77 18.9919 127.773 19.0078C127.774 19.0137 127.778 19.0332 127.786 19.0559C127.79 19.0661 127.801 19.0926 127.823 19.1209C127.844 19.1465 127.906 19.2129 128.013 19.2129V18.9709ZM128.009 18.499H127.767V18.5063H128.009H128.251V18.499H128.009Z" fill="#F9F6F1" mask="url(#path-4-inside-1_35_2614)"/>
</svg>
