<svg width="200" height="200" viewBox="0 0 200 200" fill="none" xmlns="http://www.w3.org/2000/svg">
<g clip-path="url(#clip0_35_2618)">
<path d="M96.6898 179.675C95.184 179.669 93.6577 179.502 92.1332 179.394C90.6088 179.286 89.1533 178.837 87.6382 178.63C86.1231 178.424 84.6321 178.316 83.1338 178.014C81.6354 177.713 80.1557 177.469 78.6778 177.074C77.1999 176.68 75.8095 176.118 74.3577 175.636C72.9282 175.163 71.4112 174.886 69.9891 174.322C68.5894 173.767 67.1562 173.227 65.7677 172.583C64.3791 171.939 63.0539 171.224 61.7044 170.506C60.3754 169.799 59.281 168.656 57.9706 167.866C56.6826 167.09 55.4076 166.288 54.14 165.43C52.8725 164.572 51.5211 163.909 50.2982 162.988C49.0977 162.082 47.9232 161.121 46.7487 160.138C45.5742 159.156 44.5672 158.052 43.4411 157.013C42.3169 155.976 40.9265 155.224 39.873 154.147C38.8195 153.069 37.9149 151.798 36.9191 150.664C35.9233 149.531 34.961 148.33 34.0266 147.144C33.0922 145.959 31.9996 144.851 31.1323 143.614C30.2649 142.376 29.5539 141.004 28.7553 139.716C27.9568 138.428 27.1137 137.149 26.3896 135.815C25.6656 134.48 25.2095 133.01 24.5618 131.634C23.9159 130.264 23.2533 128.9 22.6837 127.489C22.1179 126.085 21.4795 124.703 20.9881 123.26C20.5023 121.831 20.1579 120.345 19.7447 118.877C19.3315 117.408 18.788 115.993 18.4511 114.502C18.1198 113.032 17.9355 111.515 17.6749 110.009C17.4087 108.474 17.0123 106.96 16.8317 105.43C16.6475 103.886 16.7498 102.316 16.6549 100.775C16.56 99.2248 16.5563 97.678 16.5507 96.1331C16.547 94.5827 16.3664 93.0266 16.4539 91.4798C16.5414 89.9331 16.815 88.3994 16.9993 86.8601C17.1835 85.3263 17.3808 83.7889 17.66 82.2589C17.9392 80.7289 18.4064 79.2603 18.7805 77.7489C19.1547 76.2375 19.1993 74.6554 19.6647 73.1663C20.1151 71.7257 21.0662 70.4618 21.5967 69.0621C22.1272 67.6624 22.5627 66.2124 23.1751 64.8444C23.7875 63.4763 24.532 62.1641 25.2226 60.8332C25.9131 59.5024 26.4231 58.0599 27.19 56.7718C27.9568 55.4838 29.0494 54.3949 29.8908 53.1516C30.7358 51.9045 31.3724 50.5197 32.2863 49.3284C33.2002 48.1372 34.155 46.9664 35.1359 45.831C36.1169 44.6956 37.0364 43.4839 38.0843 42.4062C39.1322 41.3285 40.4705 40.5467 41.5798 39.5342C42.6892 38.5216 43.5863 37.2559 44.7552 36.3104C45.9241 35.3648 47.1656 34.4974 48.3885 33.6226C49.6114 32.7478 51.0502 32.2006 52.3252 31.4021C53.6002 30.6036 54.8361 29.766 56.1577 29.0438C57.4792 28.3216 58.7803 27.5864 60.1428 26.9461C61.4997 26.3076 62.8789 25.7157 64.2786 25.1592C65.6727 24.6045 67.0743 24.0685 68.5057 23.5994C69.9296 23.1322 71.4056 22.8437 72.8649 22.4622C74.3242 22.0806 75.7853 21.8312 77.265 21.5389C78.7746 21.2411 80.2338 20.7981 81.721 20.5804C83.2082 20.3626 84.7662 20.3663 86.2645 20.2267C87.7927 20.0852 89.2817 19.5771 90.7875 19.5213C92.2933 19.4654 93.8512 19.3686 95.3608 19.4021C96.8703 19.4356 98.4282 19.4803 99.934 19.605C101.458 19.7297 102.981 19.927 104.479 20.1467C105.978 20.3663 107.398 21.1239 108.883 21.4384C110.372 21.7549 111.969 21.6301 113.432 22.0415C114.895 22.4528 116.202 23.3668 117.639 23.873C119.07 24.3774 120.468 24.934 121.872 25.5333C123.264 26.1271 124.727 26.5682 126.093 27.255C127.459 27.9419 128.907 28.437 130.233 29.2057C131.537 29.9633 132.829 30.7897 134.11 31.6366C135.366 32.4686 136.533 33.4681 137.765 34.3839C138.998 35.2997 140.144 36.2582 141.328 37.2392C142.488 38.1996 143.56 39.2792 144.695 40.3178C145.788 41.3154 146.72 42.4509 147.738 43.4932C148.771 44.5504 149.923 45.4736 150.878 46.5774C151.833 47.6812 152.615 48.9487 153.505 50.1083C154.402 51.2772 155.252 52.4573 156.07 53.6709C156.892 54.89 157.801 56.0422 158.543 57.3079C159.286 58.5736 159.962 59.8728 160.626 61.1832C161.291 62.4935 161.761 63.8784 162.346 65.2278C162.93 66.5773 163.868 67.7722 164.373 69.1571C164.877 70.5419 165.333 71.9341 165.76 73.3469C166.18 74.7447 166.621 76.1575 166.969 77.5925C167.312 79.009 167.211 80.5334 167.483 81.9871C167.772 83.5395 168.001 85.0769 168.196 86.6199C168.391 88.163 168.721 89.719 168.82 91.2732C168.918 92.8274 169.227 94.4077 169.225 95.9675C169.223 97.5273 169.078 99.1113 168.972 100.673C168.864 102.236 168.769 103.813 168.553 105.365C168.339 106.914 167.669 108.386 167.345 109.924C167.022 111.461 167.001 113.054 166.569 114.569C166.143 116.066 165.536 117.522 165.002 119.007C164.468 120.492 164.11 122.018 163.478 123.467C162.882 124.829 162.033 126.069 161.363 127.374C160.693 128.678 160.185 130.113 159.433 131.377C158.681 132.641 157.778 133.843 156.942 135.057C156.107 136.271 155.064 137.345 154.151 138.502C153.237 139.66 152.382 140.872 151.392 141.97C150.402 143.068 149.257 144.004 148.196 145.039C147.135 146.074 146.264 147.295 145.138 148.263C144.012 149.231 142.635 149.849 141.451 150.748C140.276 151.638 139.282 152.767 138.071 153.573C136.859 154.379 135.55 155.094 134.287 155.822C133.023 156.55 131.723 157.259 130.413 157.905C129.099 158.552 127.636 158.86 126.281 159.42C124.926 159.98 123.696 160.849 122.305 161.32C120.924 161.787 119.541 162.323 118.119 162.703C116.697 163.083 115.208 163.107 113.762 163.397C112.235 163.705 110.732 164.081 109.211 164.287C107.672 164.496 106.11 164.39 104.576 164.496C103.042 164.602 101.498 164.866 99.9582 164.868C98.4115 164.868 96.8591 164.9 95.3198 164.795C93.7805 164.691 92.217 164.672 90.6833 164.46C89.157 164.25 87.6512 163.827 86.1324 163.511C84.6284 163.198 83.0854 162.96 81.5889 162.541C80.0924 162.122 78.7001 161.443 77.2315 160.927C75.7927 160.425 74.3055 160.058 72.9189 159.472C71.5322 158.886 70.1809 158.143 68.8333 157.464C67.4782 156.78 66.153 156.038 64.8519 155.267C63.5508 154.497 62.3205 153.603 61.0716 152.745C59.8226 151.887 58.4545 151.185 57.2652 150.244C56.0832 149.307 55.1563 148.055 54.0302 147.031C52.9153 146.018 51.7743 145.03 50.7133 143.936C49.6542 142.841 48.5486 141.804 47.5714 140.665C46.5942 139.526 45.5351 138.402 44.6305 137.203C43.7166 135.991 42.9144 134.696 42.0898 133.438C41.2597 132.17 40.558 130.824 39.819 129.51C39.0801 128.196 38.3393 126.873 37.6897 125.508C37.0401 124.144 36.3216 122.804 35.7651 121.395C35.2085 119.986 34.8102 118.527 34.3505 117.08C33.8907 115.634 33.3156 114.233 32.9508 112.757C32.5934 111.301 32.532 109.764 32.2639 108.261C31.9885 106.724 31.927 105.179 31.7502 103.662C31.5734 102.145 31.0187 100.61 30.9405 99.0833C30.8605 97.5291 30.9387 95.9712 30.9666 94.4393C30.9945 92.9075 31.0894 91.3365 31.229 89.8084C31.3705 88.2653 31.8191 86.7688 32.0778 85.2519C32.3384 83.7293 32.6567 82.231 33.0364 80.7345C33.4142 79.2417 33.645 77.7024 34.142 76.2356C34.6371 74.782 35.0094 73.2575 35.6236 71.8299C36.2285 70.4227 37.0475 69.0882 37.7716 67.7089C38.4807 66.3558 39.3053 65.0435 40.1317 63.7183C40.9582 62.393 42.0061 61.2893 42.9218 60.0217C43.7855 58.8286 44.6473 57.669 45.5631 56.5541C46.4788 55.4391 47.2382 54.1325 48.2266 53.079C49.2336 52.0087 50.3169 51.0259 51.3797 50.045C52.4425 49.0641 53.5556 48.0888 54.6891 47.186C55.8319 46.2759 56.9767 45.362 58.1791 44.5448C59.3815 43.7277 60.5616 42.8343 61.8254 42.1084C63.0874 41.3843 64.4647 40.8501 65.7844 40.2229C67.0929 39.5993 68.4778 39.1265 69.844 38.5979C71.1934 38.0749 72.5689 37.6058 73.9742 37.1759C75.3553 36.7534 76.7327 36.2657 78.1678 35.9344C79.6029 35.6031 81.0026 35.3071 82.4581 35.0707C83.9192 34.8343 85.3674 34.5775 86.8043 34.4323C88.2412 34.2871 89.7563 34.544 91.2026 34.4937C92.6488 34.4435 94.1267 34.4379 95.573 34.4844C97.0453 34.5328 98.5008 34.5291 99.9433 34.6817C101.406 34.8362 102.895 34.7636 104.327 35.0261C105.758 35.2885 107.216 35.5863 108.626 35.9567C110.037 36.3271 111.454 36.7589 112.835 37.2392C114.212 37.7175 115.558 38.3243 116.904 38.9088C118.249 39.4932 119.441 40.3587 120.742 41.0437C122.024 41.7212 123.262 42.4788 124.513 43.2587C125.741 44.0237 127.128 44.5783 128.327 45.442C129.525 46.3056 130.594 47.2698 131.737 48.2098C132.851 49.1274 134.058 49.978 135.145 50.985C136.263 52.0218 137.231 53.1981 138.251 54.2888C139.271 55.3796 140.062 56.716 141 57.883C141.95 59.065 142.949 60.1874 143.796 61.427C144.65 62.6759 145.615 63.8504 146.365 65.1571C147.115 66.4637 147.509 67.9546 148.157 69.319C148.803 70.6777 149.851 71.869 150.394 73.2817C150.932 74.6833 151.372 76.1426 151.809 77.5963C152.246 79.05 152.263 80.5837 152.598 82.0672C152.928 83.5246 153.305 84.9783 153.54 86.4841C153.786 88.055 153.894 89.6204 154.022 91.1783C154.151 92.7362 154.607 94.3202 154.608 95.8874C154.61 97.4547 154.305 99.0424 154.175 100.61C154.044 102.177 153.909 103.753 153.639 105.308C153.369 106.862 152.769 108.328 152.356 109.855C151.949 111.366 151.796 112.965 151.243 114.456C150.701 115.919 150.098 117.386 149.413 118.826C148.782 120.153 148.066 121.425 147.362 122.676C146.659 123.926 145.717 125.086 144.922 126.285C144.112 127.504 143.314 128.708 142.426 129.842C141.527 130.992 140.745 132.235 139.764 133.296C138.783 134.357 137.683 135.336 136.613 136.313C135.541 137.291 134.473 138.288 133.317 139.171C132.161 140.053 130.769 140.572 129.536 141.354C128.321 142.126 127.295 143.252 126 143.932C124.704 144.611 123.21 144.782 121.859 145.356C120.507 145.929 119.232 146.519 117.838 146.99C116.386 147.479 114.925 147.813 113.488 148.19C112.008 148.58 110.644 149.393 109.181 149.663C107.718 149.933 106.153 150.015 104.667 150.167C103.152 150.322 101.635 150.249 100.139 150.275C98.6423 150.301 97.0955 150.58 95.599 150.472C94.1025 150.365 92.5911 150.056 91.1039 149.81C89.6167 149.564 88.1928 149.011 86.728 148.628C85.2631 148.244 83.761 148.04 82.3315 147.526C80.9244 147.02 79.6568 146.139 78.272 145.505C76.917 144.883 75.4949 144.369 74.1622 143.623C72.8295 142.876 71.6178 142.05 70.3409 141.205C69.0641 140.36 67.8635 139.532 66.6481 138.599C65.4661 137.695 64.1688 136.946 63.0874 135.975C61.9817 134.983 61.1274 133.747 60.126 132.688C59.1097 131.612 57.8515 130.744 56.9432 129.6C56.0255 128.444 55.4262 127.05 54.6165 125.825C53.8068 124.6 53.187 123.267 52.4853 121.974C51.7854 120.686 50.7189 119.567 50.127 118.214C49.5426 116.876 49.3564 115.362 48.8762 113.961C48.4034 112.582 48.007 111.176 47.6366 109.738C47.2736 108.328 46.6612 106.957 46.3932 105.494C46.1382 104.092 46.1326 102.661 45.9819 101.269C45.8311 99.8763 45.4141 98.4561 45.3751 97.0545C45.336 95.6529 45.4402 94.2048 45.524 92.7995C45.6096 91.3886 45.9297 89.9908 46.1456 88.5967C46.3616 87.2025 46.8418 85.8698 47.1936 84.4943C47.5454 83.1188 47.5565 81.6595 48.0423 80.3212C48.5281 78.9829 49.1442 77.7191 49.7585 76.4274C50.436 75.0016 51.4672 73.7936 52.2284 72.4739C52.9897 71.1542 53.8534 69.8271 54.7282 68.5745C55.6291 67.2883 56.4834 66.0096 57.4792 64.8425C58.475 63.6755 59.6141 62.5996 60.7272 61.5368C61.8533 60.4628 62.8752 59.2846 64.1018 58.3428C65.3284 57.401 66.6685 56.6173 67.9975 55.8095C69.3135 55.0092 70.5848 54.0953 71.9994 53.4289C73.386 52.7756 74.8602 52.2637 76.34 51.7407C77.7788 51.2326 79.2306 50.6444 80.7606 50.2591C82.2906 49.8738 83.7964 49.7342 85.3562 49.4792C86.8769 49.2316 88.3883 48.9729 89.8959 48.8743C91.4036 48.7756 92.956 49.0623 94.4673 49.1106C95.9787 49.159 97.5609 48.8259 99.0629 49.0232C100.582 49.2223 102.045 49.7696 103.523 50.1139C105.014 50.4601 106.571 50.5978 108.012 51.0855C109.453 51.5732 110.75 52.4815 112.137 53.1106C113.524 53.7397 114.828 54.5141 116.148 55.2753C117.47 56.0366 118.936 56.5708 120.178 57.4587C121.419 58.3465 122.655 59.266 123.805 60.2711C124.95 61.2725 125.726 62.661 126.772 63.776C127.818 64.8909 129.19 65.7117 130.125 66.9235C131.059 68.1352 131.802 69.4809 132.613 70.7801C133.417 72.0644 134.067 73.453 134.75 74.8266C135.433 76.2003 136.133 77.5386 136.682 78.9736C137.231 80.4087 137.629 81.8587 138.041 83.344C138.465 84.8722 139.074 86.3463 139.351 87.8652C139.636 89.4212 139.485 91.0238 139.606 92.5669C139.727 94.1099 139.688 95.6846 139.638 97.2369C139.586 98.8023 139.655 100.368 139.416 101.913C139.178 103.45 139.096 105.049 138.664 106.564C138.233 108.079 137.428 109.436 136.812 110.897C136.196 112.358 135.647 113.777 134.862 115.167C134.112 116.494 133.194 117.689 132.353 118.893C131.482 120.139 130.555 121.307 129.585 122.419C128.615 123.53 127.701 124.794 126.605 125.791C125.492 126.804 124.293 127.729 123.074 128.593C121.855 129.456 120.511 130.149 119.188 130.86C117.881 131.563 116.433 131.967 115.024 132.52C113.615 133.073 112.33 133.81 110.862 134.205C109.444 134.586 107.93 134.644 106.423 134.888C104.831 135.145 103.292 135.541 101.749 135.628C100.206 135.716 98.5492 135.917 96.9987 135.826C95.4483 135.735 93.8512 135.295 92.3157 135.009C90.7801 134.722 89.157 134.545 87.6605 134.059C86.164 133.574 84.8518 132.596 83.4186 131.915C81.9853 131.234 80.6917 130.422 79.346 129.562C78.0003 128.702 76.621 128.019 75.3739 127.009C74.1269 125.998 73.0752 124.905 71.9342 123.766C70.9217 122.757 69.6913 121.97 68.8128 120.905C67.9063 119.807 67.4075 118.424 66.6425 117.268C65.8775 116.113 65.0287 114.959 64.3959 113.717C63.7556 112.462 63.1544 111.191 62.6667 109.879C62.1772 108.567 61.9817 107.169 61.643 105.801C61.3079 104.45 61.0976 103.085 60.9096 101.68C60.7254 100.306 60.6323 98.9307 60.5876 97.5087C60.5429 96.1276 60.1725 94.726 60.26 93.3002C60.3531 91.7609 60.945 90.3035 61.2726 88.8126C61.602 87.3124 61.9166 85.8326 62.4657 84.4031C63.0148 82.9736 63.67 81.6037 64.4182 80.2654C65.1665 78.9271 65.7788 77.492 66.7058 76.271C67.6327 75.05 68.6304 73.8532 69.7155 72.7699C70.8007 71.6866 72.2078 70.9681 73.4326 70.0449C74.6555 69.1217 75.7239 67.9435 77.0659 67.2027C78.4079 66.4619 79.9677 66.1808 81.4065 65.6447C82.8453 65.1087 84.2468 64.5149 85.7545 64.2022C87.2119 63.9025 88.6712 63.8039 90.1119 63.6904C91.5916 63.575 93.0527 63.3442 94.5008 63.4186C95.9787 63.4949 97.4808 63.4893 98.9103 63.7574C100.36 64.0291 101.719 64.6992 103.102 65.1589C104.496 65.6243 105.937 66.0003 107.249 66.6499C108.561 67.2995 109.659 68.3288 110.873 69.1571C112.079 69.9798 113.296 70.7801 114.389 71.7703C115.482 72.7606 116.453 73.8215 117.403 74.9569C118.333 76.0681 119.135 77.2798 119.928 78.5344C120.701 79.7554 121.492 80.9801 122.121 82.3315C122.821 83.8335 123.496 85.317 123.975 86.8414C124.47 88.4142 124.714 90.0243 124.945 91.6157C125.175 93.2071 125.434 94.8451 125.369 96.4719C125.306 98.0782 125.157 99.7199 124.77 101.33C124.399 102.867 123.55 104.289 122.86 105.821C122.205 107.277 121.499 108.615 120.688 109.868C119.826 111.197 119.195 112.667 118.16 113.762C117.088 114.897 115.733 115.714 114.478 116.595C113.224 117.475 111.858 118.153 110.423 118.77C109.04 119.366 107.649 120.085 106.102 120.431C104.649 120.757 103.102 121.004 101.505 121.105C99.9694 121.201 98.4506 120.965 96.982 120.803C95.4613 120.634 94.002 120.276 92.5781 119.85C91.1226 119.413 89.7303 118.862 88.4013 118.177C87.0723 117.492 85.6186 116.905 84.4311 115.98C83.2455 115.057 82.2925 113.838 81.2892 112.704C80.299 111.586 79.6308 110.234 78.8434 108.933C78.0728 107.662 77.4028 106.361 76.85 104.935C76.2971 103.51 75.614 102.208 75.3051 100.703C74.9738 99.0945 74.9347 97.5124 74.9291 95.9824C74.9235 94.3649 75.2008 92.8423 75.5936 91.3309C75.9882 89.814 76.4274 88.3212 77.2613 86.9326C78.0412 85.6353 78.916 84.2989 80.111 83.1337C81.3395 81.9369 82.6368 80.9001 83.9807 80.1109C85.4251 79.264 87.0109 78.7968 88.5744 78.4246C90.1398 78.0504 91.7666 77.7582 93.4343 77.8662C94.9904 77.9667 96.6618 78.1696 98.2924 78.6944C99.8838 79.2063 101.222 80.1593 102.514 80.9671C103.893 81.8308 105.192 82.7633 106.229 83.9471C107.266 85.1309 108.23 86.4375 108.92 87.9173C109.564 89.2984 109.697 90.9308 110.045 92.5613C110.421 94.3202 110.447 95.9545 110.169 97.6036C109.892 99.2527 109.457 100.812 108.323 102.283C107.404 103.474 106.268 104.343 105.017 105.028C103.739 105.728 102.408 106.45 100.943 106.571C99.478 106.692 98.1044 106.195 96.6674 105.73C95.3049 105.289 94.1937 104.515 93.1495 103.571C92.1053 102.625 91.1635 101.615 90.5586 100.327C89.9536 99.0387 89.4381 97.7134 89.3859 96.2746C89.3134 94.2886 90.6535 92.9912 92.4497 92.8702C94.4134 92.7381 95.8131 93.7767 95.8503 95.8912C95.8745 97.1941 96.7996 98.255 97.8661 99.0145C98.8619 99.7236 100.038 100.172 101.44 99.6566C103.029 99.0722 104.033 97.5477 104.046 95.7646C104.059 94.1769 103.696 92.6692 103.054 91.2788C102.411 89.8884 101.673 88.3994 100.528 87.3552C99.3831 86.311 97.7991 85.8642 96.3361 85.3468C94.8731 84.8294 93.4064 84.418 91.8261 84.5781C90.2142 84.74 88.6135 84.9708 87.2994 85.6558C85.9053 86.3817 84.6191 87.4352 83.6624 88.6264C82.7094 89.8121 82.1007 91.3347 81.6838 92.8535C81.2911 94.2793 81.1887 95.8577 81.3525 97.4696C81.5181 99.0982 82.1864 100.561 82.7038 102.026C83.2436 103.55 83.601 105.144 84.4814 106.447C85.3618 107.75 86.4711 108.98 87.6754 110.026C88.8629 111.059 90.1603 112.081 91.6102 112.799C93.0602 113.518 94.646 113.689 96.243 114.045C97.6744 114.365 99.0927 114.737 100.511 114.698C101.929 114.659 103.413 114.398 104.794 114.022C106.175 113.646 107.402 112.822 108.667 112.14C109.935 111.459 111.175 110.763 112.26 109.818C113.343 108.874 114.393 107.882 115.238 106.713C116.075 105.553 117.023 104.384 117.57 103.04C118.106 101.726 118.099 100.211 118.303 98.7595C118.501 97.3579 118.793 95.9582 118.73 94.5492C118.666 93.1401 118.251 91.7702 117.946 90.3891C117.643 89.0136 117.576 87.5413 117.049 86.2291C116.524 84.9206 115.651 83.7535 114.921 82.5418C114.192 81.3301 113.453 80.1165 112.541 79.0351C111.631 77.9574 110.544 77.036 109.466 76.1221C108.388 75.2082 107.201 74.4711 105.976 73.7545C104.623 72.9634 103.238 72.3734 101.842 71.8448C100.384 71.292 98.9829 70.6833 97.505 70.4023C96.0271 70.1212 94.4543 70.1975 92.9429 70.1808C91.4315 70.164 89.909 70.259 88.4125 70.5121C86.8992 70.7671 85.3897 70.9793 83.9546 71.493C82.5195 72.0067 81.185 72.7513 79.8579 73.5125C78.5345 74.272 77.1347 74.9383 75.9602 75.9267C74.7858 76.915 73.8886 78.1602 72.904 79.344C71.9193 80.5278 71.0631 81.7377 70.3 83.0853C69.5592 84.3938 68.971 85.7805 68.4517 87.2509C67.9529 88.6599 67.5341 90.1062 67.2642 91.6511C66.9887 93.222 66.6685 94.7595 66.6537 96.3044C66.6388 97.8493 67.065 99.4053 67.307 100.948C67.549 102.49 67.4745 104.114 67.9584 105.617C68.4424 107.119 69.1348 108.52 69.8291 109.95C70.5178 111.366 71.1171 112.814 71.9249 114.08C72.7327 115.346 73.7918 116.589 74.7653 117.743C75.7685 118.931 77.0882 119.783 78.2292 120.794C79.3814 121.816 80.5503 122.769 81.842 123.608C83.1189 124.438 84.3771 125.313 85.7899 125.964C87.1617 126.595 88.5949 127.146 90.0932 127.608C91.5916 128.07 93.0081 128.485 94.5585 128.768C96.1034 129.051 97.6651 129.274 99.2081 129.32C100.751 129.367 102.326 129.09 103.865 128.907C105.404 128.725 106.882 128.224 108.383 127.822C109.883 127.42 111.489 127.306 112.92 126.698C114.354 126.089 115.584 125.077 116.92 124.278C118.255 123.48 119.483 122.568 120.699 121.592C121.912 120.621 123.052 119.603 124.12 118.469C125.185 117.339 126.207 116.196 127.107 114.921C128.008 113.646 128.805 112.347 129.512 110.951C130.21 109.574 130.687 108.116 131.18 106.627C131.655 105.198 132.096 103.819 132.39 102.402C132.684 100.986 133.175 99.5245 133.296 98.0745C133.417 96.6245 133.564 95.1038 133.499 93.6408C133.434 92.1667 133.097 90.7074 132.846 89.2518C132.595 87.7963 132.502 86.2979 132.077 84.874C131.66 83.4762 130.91 82.1639 130.331 80.7884C129.752 79.4129 128.892 78.2477 128.181 76.9299C127.426 75.5302 126.804 74.1026 125.946 72.8369C125.088 71.5712 124.172 70.2441 123.174 69.0752C122.151 67.8765 120.896 66.9402 119.759 65.8942C118.622 64.8481 117.648 63.5508 116.383 62.6462C115.117 61.7416 113.607 61.2278 112.228 60.4833C110.869 59.7481 109.576 58.8565 108.111 58.2776C106.681 57.7137 105.185 57.2688 103.655 56.8537C102.125 56.4387 100.615 56.3605 99.0462 56.1018C97.5329 55.8523 96.0606 55.4857 94.5623 55.4112C93.0639 55.3368 91.5023 55.065 90.0002 55.1618C88.4776 55.2604 86.9402 55.441 85.4567 55.709C83.9732 55.9771 82.5084 56.5261 81.0621 56.9617C79.6159 57.3972 78.1305 57.8253 76.7401 58.421C75.3497 59.0166 74.0673 59.8821 72.7495 60.6285C71.4298 61.3767 69.991 61.9724 68.7644 62.8602C67.5359 63.7499 66.6518 65.0715 65.5294 66.0915C64.407 67.1115 63.1246 67.9677 62.1213 69.1068C61.1218 70.2422 60.0385 71.3497 59.1693 72.5968C58.3056 73.8364 57.8198 75.331 57.0958 76.6712C56.3792 77.9983 55.7891 79.3813 55.2233 80.7977C54.6575 82.2142 53.7789 83.506 53.3806 84.9838C52.9897 86.4338 53.1237 88.0159 52.8966 89.5329C52.6696 91.0443 52.208 92.5036 52.1223 93.9833C52.0349 95.5022 52.0739 97.0154 52.1316 98.5026C52.1893 99.9898 52.5449 101.49 52.7552 102.97C52.9674 104.463 52.999 105.987 53.362 107.443C53.7249 108.898 54.2368 110.322 54.7505 111.74C55.2587 113.146 55.7798 114.564 56.4313 115.932C57.0716 117.276 57.6858 118.668 58.462 119.975C59.2382 121.281 60.0255 122.545 60.9115 123.785C61.7528 124.961 62.931 125.858 63.8393 126.936C64.7681 128.04 65.6839 129.125 66.6816 130.125C67.6979 131.143 68.5522 132.332 69.6411 133.24C70.743 134.16 71.8765 135.063 73.0491 135.867C74.2218 136.671 75.7183 136.974 76.9672 137.663C78.2162 138.352 79.4446 139.029 80.7606 139.595C82.0617 140.155 83.385 140.634 84.755 141.077C86.097 141.51 87.4092 142.089 88.8164 142.407C90.2235 142.726 91.5637 143.178 92.9969 143.379C94.5511 143.597 96.1202 143.379 97.6334 143.466C99.1467 143.554 100.736 144.019 102.253 143.969C103.813 143.917 105.371 143.762 106.88 143.563C108.42 143.36 109.842 142.582 111.331 142.229C112.835 141.871 114.426 141.845 115.878 141.333C117.328 140.823 118.789 140.274 120.185 139.612C121.568 138.956 122.741 137.884 124.072 137.08C125.375 136.291 126.811 135.675 128.064 134.744C129.283 133.84 130.309 132.663 131.48 131.625C132.613 130.618 134.004 129.836 135.089 128.706C136.07 127.686 137.006 126.618 137.875 125.54C138.759 124.442 139.601 123.295 140.369 122.138C141.147 120.967 141.477 119.532 142.136 118.303C142.798 117.069 143.373 115.818 143.917 114.527C144.46 113.235 145.246 112.047 145.67 110.707C146.089 109.382 146.568 108.047 146.873 106.67C147.172 105.317 147.159 103.887 147.349 102.486C147.55 100.991 148.014 99.5282 148.09 98.0503C148.168 96.5501 148.07 95.0368 148.021 93.5552C147.971 92.0587 147.498 90.5994 147.319 89.1216C147.141 87.6437 147.293 86.1025 146.984 84.6414C146.677 83.1858 146.1 81.7842 145.669 80.351C145.237 78.9178 144.985 77.4288 144.434 76.0309C143.883 74.6331 142.977 73.4213 142.314 72.0682C141.635 70.6759 141.017 69.2762 140.254 67.9714C139.491 66.6666 138.689 65.319 137.823 64.0775C136.943 62.8137 135.949 61.6448 134.979 60.4759C134.009 59.307 133.114 58.0208 132.044 56.9356C130.973 55.8505 129.535 55.1506 128.369 54.1585C127.208 53.1702 126.171 52.0329 124.92 51.1432C123.683 50.2628 122.434 49.375 121.108 48.5895C119.805 47.817 118.441 47.119 117.054 46.4397C115.668 45.7603 114.3 45.1498 112.863 44.5728C111.495 44.0237 110.186 43.3145 108.801 42.8827C107.417 42.4509 105.881 42.4564 104.459 42.1419C103.029 41.8236 101.641 41.2987 100.195 41.1014C98.7484 40.9041 97.2724 40.9767 95.8112 40.9004C94.3501 40.8241 92.8964 40.4965 91.4278 40.5393C89.9778 40.5821 88.5242 40.8743 87.0593 41.0307C85.6261 41.1833 84.2636 41.6617 82.8751 41.9111C81.4865 42.1605 80.0812 42.4509 78.7131 42.8045C77.3246 43.1637 75.8504 43.201 74.5103 43.6607C73.1571 44.126 71.8114 44.6305 70.5085 45.1982C69.2055 45.7659 67.9901 46.5532 66.7356 47.2289C65.481 47.9045 64.3009 48.6937 63.1004 49.4699C61.8998 50.2461 60.6248 50.8901 59.4839 51.7612C58.3429 52.6323 57.4234 53.7211 56.3494 54.6779C55.2959 55.616 54.3057 56.6267 53.2987 57.6578C52.288 58.6946 51.067 59.521 50.1493 60.608C49.2317 61.695 48.2936 62.8286 47.4597 63.9826C46.6166 65.1515 46.0135 66.4805 45.2727 67.7015C44.5319 68.9225 43.8674 70.2013 43.229 71.4818C42.5905 72.7643 41.9688 74.0542 41.4384 75.3887C40.9116 76.7159 40.3998 78.0579 39.9828 79.4371C39.5715 80.8015 39.4486 82.2421 39.149 83.6549C38.853 85.0434 38.5422 86.4301 38.356 87.8689C38.155 89.4119 37.7492 90.9121 37.6525 92.4235C37.5519 93.974 37.4086 95.5152 37.4161 97.0322C37.4235 98.5491 37.9745 100.092 38.0917 101.607C38.2127 103.148 38.142 104.69 38.3784 106.195C38.6148 107.701 38.7581 109.259 39.1117 110.746C39.4691 112.241 40.2695 113.603 40.7441 115.063C41.2187 116.52 41.6022 117.998 42.1922 119.416C42.7822 120.835 43.1564 122.346 43.8581 123.718C44.5505 125.075 45.2541 126.458 46.0582 127.777C46.8492 129.077 48.0851 130.098 48.9823 131.362C49.8608 132.6 50.6538 133.912 51.6328 135.115C52.5914 136.289 53.483 137.547 54.5365 138.688C55.549 139.785 56.5411 140.894 57.6058 141.899C58.6705 142.904 60.0497 143.608 61.187 144.537C62.3373 145.477 63.5266 146.324 64.7309 147.169C65.9352 148.014 66.9217 149.225 68.1911 149.979C69.4605 150.733 70.7504 151.498 72.0757 152.155C73.4009 152.812 74.9291 153.017 76.3027 153.572C77.6764 154.126 78.983 154.815 80.3976 155.269C81.8122 155.723 83.292 155.829 84.7382 156.181C86.1845 156.533 87.573 156.933 89.0435 157.186C90.4804 157.434 91.9006 157.622 93.317 157.78C94.7633 157.94 96.1909 158.033 97.6167 158.098C99.0685 158.167 100.505 158.547 101.935 158.517C103.364 158.487 104.813 158.147 106.24 158.016C107.681 157.884 109.159 158.024 110.575 157.791C111.999 157.555 113.421 157.229 114.821 156.89C116.221 156.552 117.572 156.001 118.946 155.558C120.319 155.115 121.639 154.547 122.979 154.002C124.319 153.456 125.577 152.792 126.88 152.151C128.183 151.511 129.415 150.826 130.672 150.096C131.928 149.367 133.127 148.632 134.335 147.82C135.519 147.027 136.725 146.247 137.884 145.363C139.132 144.412 140.356 143.466 141.51 142.456C142.664 141.445 143.874 140.423 144.956 139.329C146.052 138.218 146.873 136.877 147.87 135.701C148.877 134.514 150.08 133.494 150.984 132.243C151.889 130.992 152.73 129.672 153.536 128.349C154.342 127.025 155.131 125.685 155.831 124.299C156.531 122.912 157.257 121.538 157.849 120.096C158.441 118.653 158.873 117.17 159.355 115.684C159.829 114.223 160.306 112.738 160.682 111.219C161.058 109.7 161.049 108.148 161.32 106.603C161.568 105.196 162.096 103.843 162.255 102.447C162.413 101.051 162.396 99.6026 162.465 98.1973C162.534 96.7753 162.653 95.357 162.629 93.948C162.605 92.5389 162.525 91.1076 162.409 89.6986C162.294 88.2895 162.227 86.8582 162.015 85.4585C161.802 84.0588 161.445 82.6758 161.142 81.2891C160.838 79.9024 160.552 78.512 160.157 77.1477C159.766 75.7927 159.096 74.5195 158.616 73.1794C158.136 71.8392 157.897 70.4246 157.335 69.1142C156.773 67.8039 156.228 66.5009 155.589 65.2259C154.93 63.9119 154.182 62.648 153.469 61.3935C152.756 60.139 151.684 59.0538 150.904 57.8402C150.124 56.6267 149.508 55.2549 148.658 54.0878C147.794 52.904 146.996 51.6681 146.074 50.5532C145.153 49.4382 144.064 48.422 143.072 47.3666C142.071 46.3038 140.876 45.4439 139.813 44.4555C138.75 43.4671 137.622 42.5551 136.492 41.6375C135.362 40.7198 134.329 39.6849 133.138 38.8455C131.952 38.0079 130.817 37.0735 129.57 36.3159C128.323 35.5584 127.007 34.9348 125.71 34.2573C124.427 33.5891 123.039 33.1219 121.698 32.53C120.377 31.9474 119.05 31.3667 117.672 30.8586C116.295 30.3504 114.979 29.7827 113.572 29.3565C112.165 28.9302 110.763 28.6548 109.332 28.3086C107.891 27.9586 106.426 27.8376 105.002 27.5733C103.545 27.3016 102.164 26.6762 100.725 26.4938C99.2565 26.3058 97.7954 26.0787 96.3454 25.9819C94.8954 25.8851 93.3896 26.1904 91.936 26.1848C90.4823 26.1792 89.0044 26.2257 87.5488 26.3169C86.0933 26.4081 84.6359 26.6017 83.1878 26.7916C81.7396 26.9814 80.2525 26.9926 78.8174 27.283C77.3804 27.5733 75.9975 28.0833 74.5847 28.4724C73.172 28.8614 71.83 29.4253 70.4414 29.9093C69.0641 30.3914 67.5769 30.5924 66.2218 31.1694C64.8668 31.7464 63.5248 32.316 62.2088 32.9805C60.8929 33.645 59.804 34.6631 58.529 35.4095C57.254 36.1559 56.0088 36.8576 54.7766 37.6784C53.5444 38.4993 52.4239 39.3815 51.2382 40.2712C50.0526 41.161 48.8073 41.885 47.6682 42.8343C46.5458 43.7705 45.5295 44.8017 44.4853 45.7845C43.4225 46.7859 42.3188 47.724 41.336 48.7737C40.3532 49.8235 39.3481 50.8938 38.4323 52.0069C37.5166 53.1199 36.4761 54.1734 35.6348 55.3461C34.7935 56.5187 34.0266 57.7732 33.2635 59.0017C32.5003 60.2302 31.955 61.5945 31.2719 62.8732C30.5906 64.1482 29.794 65.373 29.1946 66.6964C28.5953 68.0198 28.4054 69.494 27.8898 70.8546C27.3742 72.2152 26.4436 73.4102 26.0118 74.8006C25.5799 76.191 25.2635 77.6 24.9117 79.0165C24.5655 80.4106 24.5171 81.8847 24.2454 83.3198C23.9606 84.8126 23.7614 86.3035 23.5827 87.8C23.4041 89.2965 23.3091 90.8042 23.2328 92.3137C23.1546 93.8251 23.2123 95.3235 23.2328 96.8367C23.2533 98.35 22.868 99.8744 22.9815 101.388C23.0951 102.901 23.1863 104.414 23.3854 105.92C23.5772 107.366 24.0034 108.771 24.2677 110.188C24.532 111.604 25.1481 112.963 25.4906 114.365C25.8331 115.766 26.1737 117.173 26.5962 118.555C27.0187 119.936 27.123 121.436 27.6255 122.793C28.1281 124.15 28.8856 125.412 29.4682 126.739C30.0508 128.066 30.5236 129.443 31.1844 130.735C31.8414 132.021 32.6436 133.237 33.3789 134.489C34.1141 135.742 34.6781 137.091 35.4859 138.303C36.2937 139.515 37.2355 140.613 38.1122 141.778C39.0335 143.005 39.9177 144.254 40.8856 145.413C41.8683 146.59 43.0949 147.537 44.1243 148.645C45.1666 149.765 46.1698 150.908 47.2606 151.956C48.3643 153.015 49.4569 154.074 50.6091 155.057C51.7706 156.047 52.7943 157.218 54.0079 158.13C55.2214 159.042 56.6137 159.734 57.885 160.57C59.1563 161.406 60.435 162.24 61.7584 162.994C63.0781 163.746 64.4312 164.451 65.803 165.121C67.1655 165.787 68.5671 166.387 69.9817 166.969C71.3963 167.552 72.7532 168.244 74.2013 168.739C75.6494 169.235 77.1459 169.504 78.6257 169.912C80.0793 170.312 81.52 170.861 83.0221 171.183C84.4758 171.494 85.9853 171.455 87.4204 171.691C88.8555 171.928 90.3389 172.142 91.7852 172.309C93.2612 172.479 94.7168 172.682 96.1723 172.773C97.6279 172.864 99.1225 172.812 100.582 172.821C102.041 172.831 103.53 172.847 104.989 172.773C106.449 172.698 107.921 172.516 109.377 172.354C110.832 172.192 112.336 172.239 113.782 171.987C115.234 171.734 116.654 171.314 118.082 170.973C119.51 170.632 120.999 170.461 122.406 170.031C123.813 169.601 125.112 168.846 126.493 168.328C127.874 167.811 129.321 167.477 130.67 166.874C132.019 166.271 133.274 165.508 134.588 164.825C135.885 164.151 137.25 163.569 138.525 162.811C139.8 162.054 140.905 161.086 142.136 160.259C143.366 159.433 144.699 158.804 145.886 157.912C147.051 157.039 148.165 156.058 149.307 155.111C150.45 154.163 151.34 152.989 152.44 151.988C153.516 151.009 154.748 150.212 155.751 149.19C156.768 148.153 157.573 146.934 158.517 145.855C159.461 144.775 160.36 143.636 161.238 142.5C162.124 141.356 163.12 140.3 163.93 139.111C164.74 137.922 165.358 136.602 166.096 135.364C166.835 134.126 167.814 133.019 168.479 131.738C169.143 130.458 169.78 129.157 170.372 127.837C170.964 126.517 171.109 125.028 171.625 123.675C172.14 122.322 173.075 121.134 173.518 119.753C173.961 118.372 174.063 116.913 174.431 115.508C174.796 114.121 175.39 112.777 175.69 111.355C176.041 109.684 175.954 107.939 176.185 106.253C176.416 104.567 176.874 102.901 176.983 101.2C177.095 99.5021 176.812 97.7934 176.806 96.0847C176.799 94.054 178.431 92.4608 180.321 92.4645C182.206 92.4682 183.565 94.0801 183.563 96.0922C183.563 97.4249 183.451 98.7539 183.381 100.085C183.304 101.522 183.062 102.933 182.919 104.355C182.776 105.777 182.599 107.197 182.383 108.61C182.165 110.028 182.374 111.523 182.085 112.926C181.797 114.329 181.121 115.649 180.758 117.036C180.395 118.421 180.213 119.861 179.777 121.227C179.343 122.59 178.675 123.876 178.169 125.222C177.663 126.568 176.957 127.807 176.38 129.127C175.738 130.595 175.163 132.075 174.444 133.494C173.726 134.912 172.991 136.33 172.19 137.708C171.39 139.085 170.595 140.468 169.717 141.801C168.838 143.131 167.997 144.488 167.04 145.769C166.083 147.05 165.157 148.349 164.125 149.572C163.094 150.794 161.815 151.775 160.715 152.942C159.653 154.069 158.623 155.202 157.516 156.259C156.408 157.317 155.256 158.348 154.093 159.345C152.929 160.343 151.828 161.439 150.608 162.374C149.384 163.312 148.004 164.017 146.733 164.883C145.46 165.748 144.414 166.969 143.094 167.762C141.776 168.553 140.431 169.329 139.066 170.048C137.708 170.763 136.274 171.36 134.869 172.002C133.475 172.641 131.919 172.909 130.48 173.475C129.041 174.04 127.714 174.839 126.244 175.329C124.891 175.779 123.472 175.993 122.087 176.369C120.731 176.739 119.433 177.432 118.009 177.731C116.649 178.018 115.167 177.815 113.713 178.04C112.351 178.251 110.985 178.766 109.514 178.921C108.148 179.066 106.724 179.185 105.244 179.284C103.874 179.373 102.447 179.375 100.963 179.425C99.5916 179.472 98.1658 179.68 96.6823 179.693L96.6898 179.675Z" fill="#F9F6F1"/>
</g>
<defs>
<clipPath id="clip0_35_2618">
<rect width="167.141" height="160.28" fill="#F9F6F1" transform="translate(16.4296 19.3945)"/>
</clipPath>
</defs>
</svg>
