<svg width="200" height="200" viewBox="0 0 200 200" fill="none" xmlns="http://www.w3.org/2000/svg">
<path d="M29.9343 17.3765C34.0656 17.3765 36.8435 20.8749 36.8435 24.5962C36.8435 26.4515 36.1781 28.3145 35.0457 29.7437C33.9042 31.1842 32.1365 32.3511 29.9343 32.3511C27.749 32.3511 25.9575 31.2009 24.7839 29.7817C23.6148 28.368 22.8835 26.4954 22.8835 24.5962C22.8836 20.7762 25.8951 17.3765 29.9343 17.3765ZM57.989 17.3765C62.1202 17.3766 64.8982 20.875 64.8982 24.5962C64.8982 26.4515 64.2318 28.3145 63.0994 29.7437C61.9579 31.184 60.1909 32.351 57.989 32.3511C55.8037 32.3511 54.0122 31.2009 52.8386 29.7817C51.6695 28.368 50.9382 26.4955 50.9382 24.5962C50.9382 20.7762 53.9497 17.3765 57.989 17.3765ZM86.0427 17.3765C90.174 17.3765 92.9529 20.8749 92.9529 24.5962C92.9529 26.4515 92.2865 28.3145 91.1541 29.7437C90.0126 31.1841 88.2448 32.3511 86.0427 32.3511C83.8577 32.3509 82.0668 31.2007 80.8933 29.7817C79.7241 28.368 78.9929 26.4955 78.9929 24.5962C78.9929 20.7763 82.0037 17.3767 86.0427 17.3765ZM114.097 17.3765C118.229 17.3765 121.008 20.8749 121.008 24.5962C121.008 26.4515 120.341 28.3145 119.209 29.7437C118.067 31.1841 116.3 32.3511 114.097 32.3511C111.912 32.351 110.122 31.2007 108.948 29.7817C107.779 28.368 107.048 26.4955 107.048 24.5962C107.048 20.7762 110.058 17.3766 114.097 17.3765ZM142.152 17.3765C146.283 17.3765 149.061 20.8749 149.061 24.5962C149.061 26.4515 148.396 28.3145 147.263 29.7437C146.122 31.1842 144.354 32.3511 142.152 32.3511C139.967 32.3511 138.175 31.2008 137.002 29.7817C135.833 28.368 135.101 26.4954 135.101 24.5962C135.101 20.7762 138.113 17.3765 142.152 17.3765ZM170.207 17.3765C174.338 17.3766 177.116 20.875 177.116 24.5962C177.116 26.4515 176.45 28.3145 175.317 29.7437C174.176 31.184 172.409 32.351 170.207 32.3511C168.022 32.3511 166.23 31.2009 165.056 29.7817C163.887 28.368 163.156 26.4955 163.156 24.5962C163.156 20.7762 166.168 17.3765 170.207 17.3765Z" fill="#F9F6F1" stroke="#F9F6F1" stroke-width="4.74918"/>
<path d="M170.143 47.2983C174.256 47.2983 177.052 50.7917 177.052 54.5181C177.052 56.3731 176.387 58.2355 175.255 59.6646C174.113 61.1051 172.345 62.272 170.143 62.272C168.032 62.272 166.119 61.1943 164.796 59.8667C163.472 58.5389 162.403 56.6237 162.403 54.5181C162.403 52.3527 163.533 50.5326 164.924 49.3218C166.315 48.1118 168.196 47.2984 170.143 47.2983ZM29.8708 47.0728C33.8595 47.0728 37.1891 50.6601 37.1891 54.5181C37.1891 56.5002 36.3291 58.3877 35.0934 59.7671C33.8585 61.1456 32.0214 62.2583 29.8708 62.2583C27.6708 62.2582 25.9019 61.0931 24.7575 59.6577C23.6219 58.2332 22.947 56.3732 22.947 54.5181C22.947 50.9267 25.6384 47.0729 29.8708 47.0728ZM57.9255 47.0728C61.9142 47.0728 65.2438 50.6601 65.2438 54.5181C65.2438 56.5001 64.3837 58.3877 63.1481 59.7671C61.9132 61.1456 60.076 62.2583 57.9255 62.2583C55.7254 62.2583 53.9566 61.0932 52.8122 59.6577C51.6765 58.2331 51.0017 56.3733 51.0016 54.5181C51.0016 50.9267 53.6929 47.0728 57.9255 47.0728ZM85.9802 47.0728C89.9688 47.0729 93.2975 50.6602 93.2975 54.5181C93.2975 56.5001 92.4383 58.3878 91.2028 59.7671C89.9679 61.1456 88.1306 62.2582 85.9802 62.2583C83.7801 62.2583 82.0103 61.0932 80.8659 59.6577C79.7304 58.2332 79.0564 56.3731 79.0563 54.5181C79.0563 50.9267 81.7476 47.0728 85.9802 47.0728ZM114.035 47.0728C118.023 47.073 121.352 50.6602 121.352 54.5181C121.352 56.5 120.493 58.3878 119.258 59.7671C118.023 61.1455 116.185 62.2581 114.035 62.2583C111.835 62.2583 110.065 61.0932 108.921 59.6577C107.785 58.2332 107.111 56.3732 107.111 54.5181C107.111 50.9267 109.802 47.0728 114.035 47.0728ZM142.089 47.0728C146.077 47.0728 149.407 50.6601 149.407 54.5181C149.407 56.5002 148.547 58.3877 147.311 59.7671C146.076 61.1456 144.239 62.2583 142.089 62.2583C139.889 62.2582 138.12 61.0931 136.975 59.6577C135.84 58.2332 135.166 56.3732 135.166 54.5181C135.166 50.9268 137.856 47.0729 142.089 47.0728Z" fill="#F9F6F1" stroke="#F9F6F1" stroke-width="4.74918"/>
<path d="M29.6664 76.9946C33.6552 76.9946 36.9848 80.582 36.9848 84.4399C36.9847 86.4221 36.1247 88.3096 34.8891 89.689C33.6541 91.0675 31.817 92.1802 29.6664 92.1802C27.4664 92.1801 25.6975 91.015 24.5532 89.5796C23.4175 88.155 22.7427 86.2951 22.7426 84.4399C22.7426 80.8486 25.434 76.9947 29.6664 76.9946ZM141.884 76.9946C145.873 76.9946 149.203 80.582 149.203 84.4399C149.203 86.4221 148.343 88.3096 147.107 89.689C145.872 91.0675 144.035 92.1802 141.884 92.1802C139.684 92.1801 137.915 91.015 136.771 89.5796C135.635 88.155 134.961 86.2951 134.961 84.4399C134.961 80.8486 137.652 76.9948 141.884 76.9946ZM169.939 76.9946C173.928 76.9946 177.257 80.582 177.257 84.4399C177.257 86.422 176.397 88.3096 175.162 89.689C173.927 91.0675 172.089 92.1802 169.939 92.1802C167.739 92.1802 165.97 91.015 164.826 89.5796C163.69 88.155 163.015 86.2951 163.015 84.4399C163.015 80.8486 165.706 76.9947 169.939 76.9946ZM57.7211 77.5161C61.294 77.5161 65.1655 80.2036 65.1655 84.4399C65.1653 88.4286 61.579 91.7573 57.7211 91.7573C53.5411 91.7573 50.7974 88.107 50.7973 84.4399C50.7973 80.5041 53.8091 77.5161 57.7211 77.5161Z" fill="#F9F6F1" stroke="#F9F6F1" stroke-width="4.74918"/>
<path d="M29.8708 106.902C31.9273 106.902 33.7521 107.866 35.027 109.185C36.3009 110.503 37.1891 112.342 37.1891 114.347C37.1891 116.324 36.3281 118.211 35.0954 119.589C33.863 120.967 32.0254 122.087 29.8708 122.087C27.6708 122.087 25.9019 120.922 24.7575 119.487C23.6219 118.062 22.947 116.202 22.947 114.347C22.947 110.774 25.6345 106.902 29.8708 106.902ZM57.9255 106.902C59.982 106.902 61.8068 107.866 63.0817 109.185C64.3556 110.503 65.2438 112.342 65.2438 114.347C65.2438 116.324 64.382 118.211 63.1491 119.589C61.9167 120.967 60.08 122.087 57.9255 122.087C55.7254 122.087 53.9566 120.922 52.8122 119.487C51.6765 118.062 51.0017 116.202 51.0016 114.347C51.0016 110.774 53.6891 106.902 57.9255 106.902ZM170.143 107.296C174.169 107.296 177.052 110.513 177.052 114.347C177.052 118.268 174.084 121.271 170.143 121.271C166.471 121.271 162.826 118.509 162.826 114.347C162.826 110.267 166.382 107.296 170.143 107.296ZM142.089 107.029C146.191 107.029 149.139 110.609 149.139 114.347C149.139 118.354 145.928 121.256 142.089 121.256C138.513 121.256 134.644 118.607 134.644 114.347C134.644 110.359 138.231 107.029 142.089 107.029Z" fill="#F9F6F1" stroke="#F9F6F1" stroke-width="4.74918"/>
<path d="M142.258 137.401C145.93 137.401 149.576 140.164 149.576 144.325C149.576 146.32 148.7 148.17 147.436 149.505C146.171 150.842 144.342 151.84 142.258 151.84C138.108 151.84 135.109 148.026 135.109 144.325C135.109 140.246 138.48 137.401 142.258 137.401ZM58.0945 137.303C62.0921 137.303 65.0184 140.462 65.0184 144.325C65.0183 147.916 62.3269 151.769 58.0945 151.77C54.0026 151.77 50.9452 148.074 50.9451 144.325C50.9451 140.312 54.2477 137.303 58.0945 137.303ZM30.0399 136.81C32.1038 136.81 33.9503 137.793 35.241 139.11C36.5322 140.428 37.4705 142.286 37.4705 144.325C37.4704 148.432 33.7742 151.474 30.0399 151.474C26.3402 151.474 22.5526 148.463 22.5526 144.325C22.5526 142.268 23.5202 140.408 24.8231 139.098C26.1253 137.788 27.9812 136.81 30.0399 136.81ZM86.1492 136.895C90.2554 136.895 93.2977 140.591 93.2977 144.325C93.2976 148.32 90.0006 151.347 86.1492 151.348C82.536 151.348 78.6337 148.553 78.6336 144.325C78.6336 142.256 79.6158 140.409 80.9363 139.117C82.2567 137.826 84.1141 136.895 86.1492 136.895ZM114.203 136.895C118.309 136.895 121.352 140.591 121.352 144.325C121.352 148.32 118.054 151.348 114.203 151.348C110.59 151.347 106.688 148.553 106.688 144.325C106.688 142.256 107.67 140.409 108.99 139.117C110.31 137.826 112.168 136.895 114.203 136.895ZM170.298 136.895C174.404 136.895 177.447 140.591 177.447 144.325C177.447 148.32 174.149 151.348 170.298 151.348C166.685 151.347 162.783 148.553 162.783 144.325C162.783 142.256 163.765 140.409 165.086 139.117C166.406 137.826 168.263 136.895 170.298 136.895Z" fill="#F9F6F1" stroke="#F9F6F1" stroke-width="4.74918"/>
<path d="M142.258 166.562C144.315 166.563 146.14 167.526 147.414 168.846C148.688 170.164 149.576 172.003 149.576 174.008C149.576 175.985 148.715 177.871 147.482 179.25C146.25 180.628 144.413 181.748 142.258 181.748C140.058 181.748 138.288 180.583 137.144 179.147C136.008 177.723 135.334 175.863 135.334 174.008C135.334 170.435 138.022 166.562 142.258 166.562ZM114.217 166.577C118.402 166.577 121.24 170.36 121.24 174.008C121.24 177.646 118.41 181.452 114.217 181.452C112.178 181.452 110.32 180.514 109.001 179.22C107.683 177.925 106.703 176.076 106.703 174.008C106.703 171.944 107.686 170.097 109.003 168.807C110.321 167.516 112.178 166.577 114.217 166.577ZM30.0541 166.577C34.1604 166.577 37.2026 170.273 37.2026 174.008C37.2025 178.003 33.9056 181.029 30.0541 181.029C26.4409 181.029 22.5386 178.235 22.5385 174.008C22.5385 171.944 23.5221 170.097 24.8393 168.807C26.1571 167.516 28.0148 166.577 30.0541 166.577ZM58.1088 166.577C62.215 166.577 65.2573 170.274 65.2573 174.008C65.2571 178.003 61.9602 181.029 58.1088 181.029C54.4956 181.029 50.5933 178.235 50.5932 174.008C50.5932 171.944 51.5767 170.097 52.894 168.807C54.2118 167.516 56.0695 166.577 58.1088 166.577ZM86.1625 166.577C90.2689 166.577 93.312 170.273 93.312 174.008C93.3118 178.003 90.0141 181.029 86.1625 181.029C82.5494 181.029 78.648 178.235 78.6479 174.008C78.6479 171.944 79.6314 170.097 80.9487 168.807C82.2664 167.516 84.1234 166.577 86.1625 166.577ZM170.312 166.577C174.418 166.577 177.461 170.273 177.461 174.008C177.461 178.003 174.163 181.029 170.312 181.029C166.699 181.029 162.797 178.235 162.797 174.008C162.797 171.944 163.781 170.097 165.098 168.807C166.416 167.516 168.273 166.577 170.312 166.577Z" fill="#F9F6F1" stroke="#F9F6F1" stroke-width="4.74918"/>
</svg>
