<svg width="200" height="200" viewBox="0 0 200 200" fill="none" xmlns="http://www.w3.org/2000/svg">
<g clip-path="url(#clip0_35_2604)">
<path d="M126.892 17.9835C130.59 17.7711 134.033 17.6432 137.014 18.419C140.446 19.3138 143.466 20.9708 145.814 23.1651C148.164 25.3595 149.093 28.4143 150.05 31.6534C150.882 34.4678 152.054 37.5372 151.83 41.0567C151.736 42.5395 151.499 44.0845 151.167 45.6856C153.747 45.4871 156.255 45.7805 158.544 45.7032C162.242 45.5786 165.719 44.9046 168.7 45.8643C172.132 46.9714 174.647 49.5448 176.994 52.0733C179.342 54.599 181.28 57.465 182.238 61.0128C183.067 64.0933 183.99 67.641 183.767 71.3077C183.58 74.3798 182.008 77.3306 181.076 80.7198C180.272 83.6416 179.129 86.586 177.773 89.7286C176.521 92.6251 175.128 95.5477 173.475 98.5206C171.926 101.309 171.017 104.682 169.14 107.53C167.356 110.237 165.237 112.868 163.182 115.646C161.206 118.31 159.128 121.043 156.919 123.755C154.779 126.382 152.108 128.656 149.767 131.312C147.479 133.905 145.208 136.59 142.747 139.172C140.287 141.751 137.688 144.155 135.156 146.596C132.566 149.093 130.535 152.219 127.894 154.521C125.17 156.896 122.407 159.196 119.66 161.316C116.801 163.528 113.666 165.241 110.812 167.138C107.808 169.131 104.704 170.784 101.739 172.396C98.574 174.114 95.2724 175.213 92.1975 176.479C88.4489 178.022 84.992 179.455 81.6086 180.259C77.5994 181.216 73.8786 182.102 70.4582 182.102V182.105C67.2106 182.105 64.1295 181.657 61.4934 180.836C58.5348 179.916 56.5496 177.722 54.4572 175.766C54.4997 175.817 54.5426 175.867 54.5822 175.918L53.9221 176.267C51.5749 174.072 49.8314 171.289 48.8772 168.047C48.0447 165.23 47.4806 161.968 47.7043 158.445C47.8026 156.894 48.2585 155.32 48.803 153.682C45.2565 154.362 41.8942 154.459 38.8332 154.362V154.368C35.5856 154.269 32.4653 154.193 29.8293 153.185C26.8705 152.055 24.2401 150.104 22.1477 147.842L22.2014 147.794C19.8541 145.26 17.7445 142.088 16.7903 138.526C15.9578 135.432 16.1847 131.909 16.4084 128.248C16.5953 125.176 16.6693 121.705 17.6008 118.318C18.4021 115.396 19.6616 112.386 21.0207 109.252C22.2693 106.367 24.7441 104.057 26.3977 101.078C27.9465 98.2921 29.1787 95.1746 31.0559 92.3233C32.8396 89.6109 34.4789 86.6491 36.5373 83.88C38.5136 81.2185 40.8777 78.7408 43.0862 76.0284C45.2267 73.398 47.5151 70.8015 49.8567 68.1485C52.1416 65.5578 54.2419 62.6918 56.7024 60.1124C59.1629 57.5358 61.8672 55.2252 64.3957 52.7901C66.9865 50.2956 69.7217 48.0335 72.3606 45.7315C75.0844 43.356 77.2673 40.3376 80.011 38.2169C82.8707 36.0083 85.7506 33.8846 88.6047 31.9932C91.6087 30.0029 94.9637 28.7682 97.9309 27.1544C101.094 25.4357 104.251 24.0002 107.326 22.7374C110.665 21.3642 113.751 19.8772 116.803 19.0958C120.345 18.1897 123.791 18.1647 126.892 17.9835ZM160.77 50.9581C157.743 50.8561 154.458 51.1964 150.806 52.043C150.368 52.1444 149.918 52.2308 149.46 52.3136C148.732 54.7317 147.834 57.2632 146.739 59.877C145.491 62.8585 144.101 65.9706 142.447 69.088C140.899 72.01 138.676 74.7174 136.799 77.7442C135.015 80.6181 133.186 83.568 131.127 86.5098C129.151 89.3356 127.5 92.5046 125.291 95.3643C123.151 98.1361 120.133 100.297 117.791 103.071C115.506 105.781 113.597 108.864 111.137 111.534C108.674 114.204 105.806 116.416 103.278 118.916C100.687 121.476 98.4437 124.321 95.8049 126.662C93.0811 129.077 90.0319 130.961 87.2854 133.107C84.4256 135.341 82.0808 138.139 79.2268 140.047C76.2227 142.054 73.3543 144.161 70.3869 145.777C67.2244 147.505 63.9939 148.932 60.9162 150.191C58.644 151.123 56.3801 151.824 54.1965 152.405C53.394 156.216 53.8846 159.739 54.1408 162.74C54.4891 166.834 55.117 170.578 57.549 172.855L57.5608 172.843C59.9957 175.119 63.8945 176.462 68.2151 176.765C71.5024 176.994 75.3679 176.4 79.5188 175.445C82.8683 174.678 86.2149 172.803 90.009 171.209C92.9677 169.963 96.4645 169.502 99.5139 167.82C102.365 166.249 104.67 163.482 107.567 161.537C110.313 159.691 113.584 158.457 116.339 156.311C118.981 154.252 121.387 151.743 124.009 149.439C126.546 147.21 128.655 144.421 131.153 142C133.588 139.639 136.697 137.946 139.072 135.445C141.445 132.945 143.815 130.473 146.018 127.959C148.277 125.383 150.42 122.755 152.482 120.198C154.614 117.559 155.894 114.335 157.8 111.732C159.788 109.017 161.809 106.485 163.53 103.835C165.345 101.04 166.962 98.2856 168.457 95.5675C170.057 92.6624 171.965 90.0912 173.168 87.2852C174.711 83.6809 175.737 80.173 176.495 76.9395C177.435 72.9359 177.923 69.2209 177.659 65.9307C177.311 61.6101 175.202 58.4388 172.77 55.8594C169.927 52.8468 166.135 51.1363 160.776 50.9522L160.77 50.9581ZM131.385 23.1934C128.098 22.9641 124.417 23.7285 120.266 24.6827C116.916 25.4557 113.179 26.1158 109.382 27.7042C106.423 28.9415 103.605 30.8067 100.556 32.4942C97.7046 34.0685 94.8079 35.7648 91.9113 37.71C89.1649 39.5532 85.9456 40.8899 83.1906 43.0333C80.549 45.0889 78.4453 47.9882 75.8235 50.2901C73.2838 52.5183 70.645 54.6984 68.1506 57.1163C65.7156 59.4749 63.331 61.9307 60.9582 64.4337C58.5857 66.9365 56.366 69.5045 54.1633 72.0186C51.9038 74.5981 49.2958 76.7869 47.2317 79.3409C45.0996 81.9826 43.146 84.6839 41.2405 87.2803C39.2528 89.9843 37.8623 93.0051 36.1408 95.6524C34.3259 98.447 31.7687 100.627 30.2737 103.331C28.6739 106.225 27.8247 109.436 26.6213 112.245C25.0783 115.849 23.3852 119.097 22.6291 122.327C21.6891 126.331 21.8981 130.239 22.1643 133.526C22.5126 137.844 23.5379 141.814 25.9729 144.41C25.9814 144.419 26.3694 144.062 26.3694 144.062V144.065C28.8044 146.658 32.3494 147.743 36.6701 148.264C39.9574 148.66 43.6101 148.612 47.761 147.751C48.7608 147.543 49.7805 147.304 50.8205 147.032C51.4023 144.677 51.9853 142.185 53.0363 139.682C54.285 136.697 55.1397 133.336 56.7932 130.222C58.342 127.303 60.2421 124.366 62.1194 121.345C63.9032 118.477 66.5482 116.004 68.6067 113.063C70.5828 110.237 72.0916 106.972 74.3 104.112C76.4406 101.343 78.8813 98.6957 81.2229 95.921C83.5078 93.2142 85.697 90.3293 88.1574 87.6593C90.6179 84.9893 93.8116 83.0724 96.3401 80.5723C98.9308 78.0127 100.981 74.9432 103.62 72.6016C106.344 70.1866 109.656 68.6149 112.403 66.4688C115.262 64.2349 118.083 62.1682 120.94 60.2598C123.947 58.2496 126.838 56.3491 129.802 54.7296C132.965 52.9996 135.955 51.2922 139.03 50.0294C140.779 49.3098 142.43 48.4834 144.044 47.7481C144.077 47.5978 144.111 47.4482 144.146 47.2999C145.086 43.3189 145.367 39.9241 145.101 36.8067C144.753 32.7153 144.045 29.3936 141.61 27.1143C139.175 24.8379 135.706 23.4964 131.385 23.1934ZM142.931 53.544C142.226 53.7384 141.522 53.9685 140.825 54.254C137.867 55.4687 134.791 56.9351 131.738 58.6085C128.887 60.1714 126.364 62.5675 123.468 64.5098C120.722 66.3502 118.006 68.4003 115.251 70.5606C112.61 72.6303 110.138 75.0167 107.516 77.3497C104.979 79.6063 101.844 81.3251 99.3498 83.7969C96.9148 86.2065 94.8563 89.0662 92.4836 91.6456C90.1109 94.225 88.3271 97.247 86.1242 99.8604C83.8649 102.542 81.5857 105.095 79.5217 107.776C77.3896 110.546 74.6821 112.822 72.7766 115.552C70.789 118.4 69.5431 121.595 67.8244 124.375C66.0096 127.308 64.1494 130.066 62.6545 132.895C61.0548 135.921 59.9106 138.963 58.7072 141.848C58.2595 142.921 57.7621 143.952 57.2658 144.954C57.6681 144.799 58.0734 144.64 58.4807 144.473C61.4395 143.261 64.2458 141.485 67.2981 139.815C70.1493 138.254 73.2833 136.966 76.177 135.024C78.9235 133.183 81.379 130.793 84.134 128.636C86.7756 126.566 89.4936 124.499 92.1155 122.166C94.6523 119.91 97.9141 118.321 100.411 115.85C102.846 113.44 104.894 110.557 107.267 107.978C109.639 105.398 111.678 102.575 113.881 99.962C116.14 97.2807 118.558 94.7918 120.622 92.1134C122.754 89.3442 124.836 86.6143 126.741 83.8819C128.729 81.0337 130.269 78.0186 131.99 75.2384C133.805 72.305 135.714 69.5523 137.209 66.7237C138.809 63.6969 140.394 60.7946 141.595 57.9122C142.207 56.4465 142.614 54.9801 142.931 53.544Z" fill="#F9F6F1"/>
</g>
<defs>
<clipPath id="clip0_35_2604">
<rect width="167.602" height="164.32" fill="#F9F6F1" transform="translate(16.1992 17.7852)"/>
</clipPath>
</defs>
</svg>
