<?xml version="1.0" standalone="no"?>
<!DOCTYPE svg PUBLIC "-//W3C//DTD SVG 1.1//EN" "http://www.w3.org/Graphics/SVG/1.1/DTD/svg11.dtd">
<svg xmlns="http://www.w3.org/2000/svg" width="500" height="159" viewBox="0 0 500 159" fill="none">
<path d="M47.0362 110.695L23.2003 36.6095H-0.000732422L33.4163 130.571H59.7681L94.4502 36.6048H72.2518L47.041 110.695H47.0362ZM454.09 33.7143C446.266 33.6924 438.588 35.8246 431.901 39.8762V0H411.22V130.567H431.901V76.6048C431.908 70.7353 434.249 65.1083 438.409 60.9574C442.569 56.8066 448.21 54.4707 454.094 54.4619C459.979 54.4707 465.619 56.8066 469.78 60.9574C473.94 65.1083 476.28 70.7353 476.288 76.6048V130.567H496.968V76.6048C497.093 52.9571 477.801 33.7095 454.094 33.7095L454.09 33.7143ZM273.007 90.5714C272.998 96.4401 270.657 102.066 266.497 106.216C262.337 110.365 256.697 112.701 250.814 112.71C244.929 112.701 239.289 110.365 235.128 106.214C230.968 102.063 228.627 96.4362 228.62 90.5667V36.6143H207.939V90.5714C207.939 114.219 227.231 133.333 250.814 133.333C274.396 133.333 293.688 114.095 293.688 90.5714V36.6095H273.007V90.5714ZM145.521 33.9667C118.157 33.9667 95.8347 56.2286 95.8347 83.5238C95.8347 110.819 118.157 133.086 145.521 133.086C172.885 133.086 195.207 110.819 195.207 83.5238C195.207 56.2286 172.885 33.9667 145.521 33.9667V33.9667ZM145.521 112.457C139.784 112.458 134.176 110.762 129.405 107.583C124.634 104.405 120.916 99.8862 118.72 94.5994C116.523 89.3126 115.948 83.495 117.067 77.8821C118.186 72.2693 120.948 67.1134 125.004 63.0665C129.061 59.0197 134.229 56.2636 139.856 55.1468C145.482 54.03 151.315 54.6027 156.615 56.7924C161.916 58.9822 166.446 62.6907 169.634 67.4488C172.821 72.207 174.522 77.8011 174.522 83.5238C174.522 99.5 161.409 112.457 145.521 112.457ZM355.734 112.457C348.106 112.36 340.824 109.268 335.464 103.853C330.105 98.4385 327.1 91.1355 327.1 83.5262C327.1 75.9169 330.105 68.6139 335.464 63.1989C340.824 57.7839 348.106 54.6929 355.734 54.5952C360.48 54.6067 365.152 55.7692 369.348 57.9825C373.543 60.1957 377.137 63.3934 379.818 67.3L396.965 55.7286C392.384 49.0312 386.234 43.549 379.05 39.757C371.865 35.9649 363.862 33.9774 355.734 33.9667C328.37 33.9667 306.047 56.2286 306.047 83.5238C306.047 110.819 328.37 133.086 355.734 133.086C363.862 133.092 371.866 131.098 379.036 127.28C386.207 123.463 392.323 117.939 396.841 111.2L379.689 99.6286C377.082 103.587 373.525 106.833 369.342 109.073C365.159 111.313 360.481 112.476 355.734 112.457Z" fill="#44607B"/>
</svg>