<?xml version="1.0" standalone="no"?>
<!DOCTYPE svg PUBLIC "-//W3C//DTD SVG 1.1//EN" "http://www.w3.org/Graphics/SVG/1.1/DTD/svg11.dtd">
<svg xmlns="http://www.w3.org/2000/svg" width="500" height="159" viewBox="0 0 500 159" fill="none">
<path d="M47.0362 110.685L23.2003 36.5998H-0.000732422L33.4163 130.562H59.7681L94.4502 36.595H72.2518L47.041 110.685H47.0362ZM454.09 33.7045C446.266 33.6826 438.588 35.8149 431.901 39.8664V-0.00976562H411.22V130.557H431.901V76.595C431.908 70.7255 434.249 65.0985 438.409 60.9477C442.569 56.7968 448.21 54.461 454.094 54.4521C459.979 54.461 465.619 56.7968 469.78 60.9477C473.94 65.0985 476.28 70.7255 476.288 76.595V130.557H496.968V76.595C497.093 52.9474 477.801 33.6998 454.094 33.6998L454.09 33.7045ZM273.007 90.5617C272.998 96.4304 270.657 102.056 266.497 106.206C262.337 110.356 256.697 112.691 250.814 112.7C244.929 112.691 239.289 110.355 235.128 106.204C230.968 102.053 228.627 96.4264 228.62 90.5569V36.6045H207.939V90.5617C207.939 114.209 227.231 133.324 250.814 133.324C274.396 133.324 293.688 114.085 293.688 90.5617V36.5998H273.007V90.5617ZM145.521 33.9569C118.157 33.9569 95.8347 56.2188 95.8347 83.5141C95.8347 110.809 118.157 133.076 145.521 133.076C172.885 133.076 195.207 110.809 195.207 83.5141C195.207 56.2188 172.885 33.9569 145.521 33.9569V33.9569ZM145.521 112.447C139.784 112.448 134.176 110.752 129.405 107.574C124.634 104.395 120.916 99.8765 118.72 94.5897C116.523 89.3029 115.948 83.4852 117.067 77.8724C118.186 72.2595 120.948 67.1037 125.004 63.0568C129.061 59.0099 134.229 56.2538 139.856 55.137C145.482 54.0202 151.315 54.5929 156.615 56.7827C161.916 58.9724 166.446 62.6809 169.634 67.4391C172.821 72.1972 174.522 77.7914 174.522 83.5141C174.522 99.4902 161.409 112.447 145.521 112.447ZM355.734 112.447C348.106 112.35 340.824 109.259 335.464 103.844C330.105 98.4287 327.1 91.1257 327.1 83.5164C327.1 75.9071 330.105 68.6041 335.464 63.1891C340.824 57.7741 348.106 54.6831 355.734 54.5855C360.48 54.597 365.152 55.7594 369.348 57.9727C373.543 60.186 377.137 63.3837 379.818 67.2902L396.965 55.7188C392.384 49.0214 386.234 43.5392 379.05 39.7472C371.865 35.9552 363.862 33.9677 355.734 33.9569C328.37 33.9569 306.047 56.2188 306.047 83.5141C306.047 110.809 328.37 133.076 355.734 133.076C363.862 133.082 371.866 131.088 379.036 127.27C386.207 123.453 392.323 117.93 396.841 111.19L379.689 99.6188C377.082 103.577 373.525 106.823 369.342 109.063C365.159 111.304 360.481 112.467 355.734 112.447Z" fill="#F9F6F1"/>
</svg>