<svg width="287" height="40" viewBox="0 0 287 40" fill="none" xmlns="http://www.w3.org/2000/svg">
<path d="M12.549 30.2369L6.56743 11.1162H0.744141L9.13095 35.3661H15.7454L24.4487 11.1162H18.8786L12.549 30.2369Z" fill="#44607B"/>
<path d="M114.714 10.3698C112.656 10.3698 110.758 10.9541 109.143 11.9604V1.66968H103.953V35.3663H109.143V21.4396C109.143 18.2907 111.644 15.7262 114.714 15.7262C117.783 15.7262 120.284 18.2907 120.284 21.4396V35.3663H125.474V21.4396C125.506 15.3366 120.663 10.3698 114.714 10.3698Z" fill="#44607B"/>
<path d="M69.2632 25.0428C69.2632 28.1918 66.7629 30.7563 63.693 30.7563C60.6232 30.7563 58.1229 28.1918 58.1229 25.0428V11.1162H52.9326V25.0428C52.9326 31.1459 57.7748 36.0803 63.693 36.0803C69.6113 36.0803 74.4535 31.1134 74.4535 25.0428V11.1162H69.2632V25.0428Z" fill="#44607B"/>
<path d="M37.2683 10.4348C30.4006 10.4348 24.7988 16.1808 24.7988 23.2252C24.7988 30.2697 30.4006 36.0157 37.2683 36.0157C44.136 36.0157 49.7377 30.2697 49.7377 23.2252C49.7377 16.1808 44.136 10.4348 37.2683 10.4348ZM37.2683 30.6917C33.2489 30.6917 29.9892 27.348 29.9892 23.2252C29.9892 19.1024 33.2489 15.7587 37.2683 15.7587C41.2876 15.7587 44.5474 19.1024 44.5474 23.2252C44.5474 27.348 41.256 30.6917 37.2683 30.6917Z" fill="#44607B"/>
<path d="M90.0231 30.6917C86.0038 30.6917 82.744 27.348 82.744 23.2252C82.744 19.1024 86.0038 15.7587 90.0231 15.7587C92.4284 15.7587 94.7071 16.9923 96.068 19.0375L100.372 16.0509C98.0302 12.5449 94.1691 10.4348 90.0231 10.4348C83.1555 10.4348 77.5537 16.1808 77.5537 23.2252C77.5537 30.2697 83.1555 36.0157 90.0231 36.0157C94.1691 36.0157 98.0302 33.9056 100.34 30.3671L96.0363 27.3805C94.7071 29.4581 92.4601 30.6917 90.0231 30.6917Z" fill="#44607B"/>
<path opacity="0.8" d="M149.907 16.7966L152.762 19.7251L148.582 24.0132L152.762 28.3013L149.907 31.2297L145.727 26.9416L141.546 31.2297L138.691 28.3013L142.872 24.0132L138.691 19.7251L141.546 16.7966L145.727 21.0847L149.907 16.7966Z" fill="#F7B139"/>
<g clip-path="url(#clip0_2311_9682)">
<path d="M285.079 27.1191C284.875 27.1191 284.69 27.2509 284.594 27.5264C283.366 31.03 281.707 33.1142 280.341 33.1142C279.557 33.1142 279.239 32.2398 279.239 30.8683C279.239 27.4365 281.294 20.1597 282.33 16.8418C282.45 16.4405 282.527 16.0812 282.527 15.7757C282.527 14.8115 282 14.3383 280.695 14.3383C279.287 14.3383 277.772 14.8893 276.299 17.4706C275.79 15.1948 274.251 14.2006 272.1 14.2006C269.615 14.2006 267.213 15.7997 265.237 18.393C263.26 20.9862 260.937 21.8367 259.188 21.4175C260.446 18.3391 260.913 16.0392 260.913 14.3323C260.913 11.6552 259.589 10.0381 257.451 10.0381C254.199 10.0381 252.324 13.1405 252.324 16.4046C252.324 18.926 253.468 21.5193 255.984 22.777C253.876 27.5443 250.797 31.8565 249.629 31.8565C248.12 31.8565 247.677 24.4719 247.761 19.1895C247.815 16.159 248.066 16.0033 248.066 15.087C248.066 14.5599 247.725 14.2006 246.353 14.2006C243.155 14.2006 242.167 16.9077 242.017 20.016C241.969 21.1973 241.784 22.3689 241.466 23.5077C240.13 28.275 237.375 31.8924 235.579 31.8924C234.746 31.8924 234.519 31.0599 234.519 29.9699C234.519 26.5382 236.441 22.2499 236.441 18.5906C236.441 15.9015 235.261 14.2006 233.039 14.2006C230.422 14.2006 226.96 17.3149 223.684 23.1483C224.762 18.6804 225.206 14.3563 222.013 14.3563C221.321 14.3666 220.641 14.5433 220.031 14.8714C219.826 14.9671 219.655 15.1223 219.54 15.3167C219.424 15.5111 219.37 15.7357 219.384 15.9614C219.69 20.7167 215.551 32.8986 211.628 32.8986C210.916 32.8986 210.568 32.126 210.568 30.8803C210.568 27.4425 212.616 20.1837 213.647 16.8597C213.778 16.4285 213.85 16.0572 213.85 15.7338C213.85 14.8234 213.287 14.3563 212.012 14.3563C210.61 14.3563 209.089 14.8893 207.622 17.4706C207.106 15.1948 205.567 14.2006 203.417 14.2006C199.89 14.2006 195.949 17.9318 194.218 22.795C191.9 29.2872 187.229 35.5578 180.94 35.5578C175.232 35.5578 172.22 30.8084 172.22 23.304C172.22 12.4697 180.173 3.61779 186.073 3.61779C188.894 3.61779 190.241 5.41453 190.241 8.16952C190.241 11.5055 188.378 13.0566 188.378 14.3263C188.378 14.7156 188.702 15.0989 189.343 15.0989C191.906 15.0989 194.925 12.0864 194.925 7.97787C194.925 3.86933 191.589 0.862793 185.689 0.862793C175.939 0.862793 166.129 10.673 166.129 23.2441C166.129 33.246 171.064 39.277 179.598 39.277C185.42 39.277 190.505 34.7492 193.248 29.4668C193.559 33.8449 195.547 36.1327 198.578 36.1327C201.273 36.1327 203.453 34.5277 205.118 31.7068C205.759 34.6594 207.46 36.1028 209.67 36.1028C212.203 36.1028 214.323 34.4977 216.342 31.5151C216.312 33.8569 216.845 36.0609 218.875 36.0609C219.833 36.0609 220.977 35.8393 221.181 35.0008C223.319 26.1608 228.601 18.944 230.219 18.944C230.698 18.944 230.829 19.4051 230.829 19.9501C230.829 22.3518 229.134 27.2748 229.134 30.4191C229.134 33.8149 230.578 36.0609 233.56 36.0609C236.866 36.0609 240.226 32.0122 242.466 26.095C243.167 31.6229 244.682 36.0848 247.054 36.0848C249.965 36.0848 255.133 29.9579 258.266 23.4717C259.493 23.6274 261.338 23.5855 263.111 22.3338C262.356 24.2443 261.913 26.3345 261.913 28.4247C261.913 34.4438 264.788 36.1327 267.261 36.1327C269.95 36.1327 272.13 34.5277 273.801 31.7068C274.352 34.2522 275.76 36.0968 278.347 36.0968C282.396 36.0968 285.911 31.9583 285.911 28.5625C285.911 27.6641 285.528 27.1191 285.079 27.1191ZM201.045 32.7968C199.41 32.7968 198.77 31.1498 198.77 28.6942C198.77 24.43 201.686 17.3089 204.771 17.3089C206.118 17.3089 206.627 18.896 206.627 20.8365C206.627 25.1667 203.854 32.7968 201.045 32.7968ZM257.05 20.0699C256.074 18.908 255.72 17.3269 255.72 15.9194C255.72 14.1826 256.355 12.7153 257.116 12.7153C257.876 12.7153 258.11 13.4639 258.11 14.506C258.11 16.2488 257.487 18.7942 257.05 20.0699ZM269.729 32.7968C268.094 32.7968 267.453 30.9042 267.453 28.6942C267.453 24.5797 270.37 17.3089 273.478 17.3089C274.825 17.3089 275.305 18.8841 275.305 20.8365C275.305 25.1667 272.58 32.7968 269.729 32.7968Z" fill="#44607B"/>
</g>
<defs>
<clipPath id="clip0_2311_9682">
<rect width="120" height="38.6755" fill="white" transform="translate(166.129 0.824463)"/>
</clipPath>
</defs>
</svg>
