<svg width="200" height="200" viewBox="0 0 200 200" fill="none" xmlns="http://www.w3.org/2000/svg">
<rect width="200" height="200" rx="25" fill="#F9F6F1"/>
<path d="M66.1849 70.9438C74.1496 70.9439 81.2354 72.5704 87.4047 75.8628H87.4037C93.6022 78.9966 99.7062 83.5564 105.719 89.5132C110.237 93.7657 114.615 97.0985 118.852 99.5298C122.959 101.886 127.985 103.097 133.987 103.097C140.451 103.097 146.359 101.149 151.747 97.2261C153.613 95.8574 155.36 94.3523 156.988 92.7104C159.602 90.0738 163.212 88.5764 166.74 88.4771C170.282 88.3774 173.834 89.694 176.148 92.8003C178.59 96.0794 178.983 100.584 176.686 104.106C171.839 111.538 166.147 117.418 159.6 121.712L159.596 121.715C151.717 126.843 143.114 129.415 133.815 129.415C125.968 129.415 118.894 127.846 112.622 124.679L112.614 124.674L112.605 124.67C106.409 121.426 100.305 116.811 94.2885 110.852C89.7683 106.596 85.3874 103.261 81.1478 100.829L81.141 100.825L81.1351 100.821C77.1536 98.4745 72.1362 97.2612 66.0131 97.2612C59.5572 97.2613 53.5918 99.2611 48.0844 103.3L48.0804 103.302C46.2811 104.612 44.5907 106.062 43.0092 107.65C40.3909 110.279 36.7822 111.777 33.2562 111.877C29.7151 111.979 26.1659 110.665 23.8519 107.558C21.4094 104.279 21.0167 99.7743 23.3119 96.2515C28.1403 88.8404 33.7761 83.0148 40.2318 78.813C48.2206 73.5743 56.8811 70.9438 66.1849 70.9438Z" fill="#44607B" stroke="#44607B" stroke-width="2.63994"/>
</svg>
