<svg width="200" height="200" viewBox="0 0 200 200" fill="none" xmlns="http://www.w3.org/2000/svg">
<rect width="200" height="200" rx="25" fill="#F9F6F1"/>
<path d="M95.3484 17.0116C97.3763 13.7176 102.506 14.0477 104.534 17.3417C106.297 20.2039 106.072 20.3418 107.835 23.2041C109.598 26.0663 110.015 25.8088 111.778 28.671C113.335 31.1959 116.995 32.5599 119.444 30.8839C122.219 28.9866 121.798 28.3736 124.573 26.4763C127.348 24.579 127.737 25.1485 130.512 23.2512C133.704 21.0673 138.34 22.3842 138.856 26.2187C139.302 29.5489 138.134 29.7049 138.58 33.0388C139.026 36.3727 138.906 36.3872 139.349 39.7174C139.741 42.6595 143.144 44.4443 146.064 43.9111C149.369 43.3052 149.488 43.951 152.793 43.3451C156.098 42.7393 156.073 42.5978 159.381 41.992C163.187 41.2955 165.94 44.379 164.852 48.0938C163.905 51.3189 164.464 51.4821 163.517 54.7071C162.57 57.9322 161.961 57.7544 161.014 60.9795C160.176 63.8272 162.407 66.5806 165.287 67.2772C168.552 68.068 168.458 68.4671 171.723 69.2579C174.988 70.0487 174.973 70.1177 178.238 70.9121C181.996 71.8227 183.676 76.3972 181.169 79.3429C178.993 81.9041 179.178 82.0637 177.001 84.6213C174.824 87.1788 174.229 86.6746 172.049 89.2357C170.127 91.4958 170.95 94.8224 173.301 96.6326C175.963 98.6859 175.481 99.3135 178.14 101.363C180.799 103.413 180.709 103.536 183.371 105.589C186.437 107.951 186.154 111.971 182.664 113.643C179.635 115.098 179.715 115.265 176.685 116.719C173.656 118.174 173.827 118.533 170.798 119.988C168.124 121.272 167.235 124.127 168.643 126.739C170.239 129.696 169.738 129.968 171.335 132.924C172.931 135.881 173.468 135.591 175.067 138.547C176.907 141.95 174.179 145.937 170.312 146.049C166.952 146.144 166.978 147.091 163.618 147.185C160.259 147.279 160.255 147.156 156.896 147.254C153.929 147.337 151.875 149.38 152.1 152.336C152.358 155.688 152.441 155.681 152.695 159.033C152.949 162.385 152.416 162.425 152.674 165.777C152.967 169.633 149.398 172.18 145.821 170.707C142.712 169.426 142.589 169.727 139.483 168.447C136.378 167.166 136.429 167.039 133.32 165.762C130.577 164.634 127.163 166.02 126.166 168.813C125.038 171.98 124.737 171.871 123.608 175.038C122.48 178.205 122.643 178.263 121.515 181.43C120.216 185.076 115.424 186.676 112.754 183.876C110.436 181.441 110.487 181.394 108.169 178.96C105.851 176.526 106.355 176.047 104.033 173.613C101.987 171.465 99.0052 172.009 96.9555 174.157C94.6374 176.591 94.6229 176.577 92.3048 179.007C89.9867 181.438 89.4969 180.973 87.1788 183.408C84.5088 186.208 79.4627 185.338 78.164 181.692C77.0357 178.525 77.725 178.278 76.5968 175.115C75.4686 171.948 75.4323 171.962 74.3041 168.795C73.3064 166.002 69.8275 164.587 67.0813 165.715C63.9723 166.996 63.9542 166.949 60.8452 168.229C57.7363 169.51 57.5513 169.056 54.4423 170.337C50.8654 171.81 46.7697 169.586 47.0636 165.726C47.3211 162.374 48.3405 162.454 48.5945 159.102C48.8484 155.75 48.4131 155.717 48.667 152.365C48.8919 149.409 46.5194 146.194 43.5519 146.111C40.1927 146.017 40.1818 146.445 36.8189 146.347C33.456 146.249 33.4633 146.169 30.1004 146.071C26.2332 145.962 23.9224 142.179 25.7616 138.776C27.3578 135.819 27.4775 135.881 29.0737 132.924C30.6699 129.968 30.6046 129.931 32.2008 126.975C33.612 124.363 32.5781 120.666 29.9045 119.382C26.8753 117.927 26.4291 118.86 23.3964 117.405C20.3636 115.95 20.7082 115.239 17.6755 113.788C14.1856 112.116 13.3258 107.113 16.3912 104.751C19.054 102.698 19.1265 102.796 21.7893 100.743C24.452 98.6895 24.238 98.4138 26.9007 96.3606C29.2515 94.5503 29.9843 91.7534 28.0616 89.4897C25.885 86.9285 26.3167 86.5621 24.1364 84.0009C21.9598 81.4398 21.2488 82.0456 19.0721 79.4844C16.5654 76.5387 18.2885 71.3112 22.0505 70.4006C25.3154 69.6098 25.3263 69.6461 28.5912 68.8552C31.8562 68.0644 31.8417 68.0027 35.1102 67.2119C37.9943 66.5117 39.6485 63.9977 38.8141 61.1536C37.8673 57.9285 37.3304 58.0882 36.3799 54.8631C35.4331 51.6381 36.4017 51.3551 35.4513 48.1301C34.3593 44.4189 37.3631 40.5518 41.1685 41.2483C44.4734 41.8541 44.2884 42.8699 47.5932 43.4757C50.8981 44.0816 51.0613 43.2037 54.3662 43.8095C57.2828 44.3428 59.3579 42.489 59.7497 39.5469C60.1959 36.2167 61.4366 36.3799 61.8828 33.0497C62.329 29.7194 61.2588 29.5743 61.705 26.2441C62.2165 22.4096 67.1502 20.4216 70.3426 22.6055C73.1178 24.5028 73.2012 24.3758 75.9764 26.2767C78.7516 28.1777 78.9512 27.8802 81.7264 29.7775C84.1751 31.4535 87.5561 31.5043 89.1124 28.9758C90.8755 26.1135 90.9009 26.1062 92.5188 23.1605C94.1404 20.2003 93.5745 19.8811 95.3376 17.0188L95.3484 17.0116Z" fill="#44607B"/>
</svg>
