<svg width="200" height="200" viewBox="0 0 200 200" fill="none" xmlns="http://www.w3.org/2000/svg">
<path d="M0 25C0 11.1929 11.1929 0 25 0H175C188.807 0 200 11.1929 200 25V175C200 188.807 188.807 200 175 200H25C11.1929 200 0 188.807 0 175V25Z" fill="#F9F6F1"/>
<g clip-path="url(#clip0_35_2632)">
<path d="M183.482 96.8063C183.83 98.2041 184.257 99.6085 183.988 101.033C183.429 104.058 183.397 107.254 181.144 109.754C179.614 111.46 177.808 112.615 175.766 113.685C174.065 114.578 172.273 114.866 170.651 114.88C168.32 114.899 165.805 115.227 163.552 113.803C162.633 113.219 161.464 112.99 160.479 112.366C159.159 111.533 158.312 110.187 156.979 109.387C156.907 109.341 156.828 109.242 156.822 109.164C156.684 107.221 155.042 105.705 155.226 103.684C155.324 102.601 154.622 101.715 154.674 100.593C154.838 97.1279 155.666 93.8794 157.642 91.0444C158.923 89.2069 160.663 87.7631 162.902 87.0937C163.08 87.0412 163.355 87.0872 163.441 86.9756C164.294 85.8206 165.417 85.919 166.717 85.9256C168.53 85.9387 170.349 85.8272 172.168 85.9847C173.284 86.0831 174.302 86.1093 175.398 86.7262C177.802 88.0781 180.218 89.3906 181.781 91.7006C182.792 93.1903 183.252 94.995 183.462 96.7997L183.482 96.8063Z" fill="#44607B"/>
<path d="M57.8568 27.6233C59.2555 27.2755 60.6607 26.849 62.0857 27.118C65.1129 27.6758 68.3108 27.7087 70.8127 29.9596C72.52 31.4887 73.6757 33.2934 74.7461 35.3343C75.6391 37.034 75.9281 38.8256 75.9412 40.4466C75.9609 42.7763 76.2892 45.2897 74.8643 47.5407C74.2798 48.4594 74.05 49.6276 73.4262 50.612C72.5922 51.931 71.2461 52.7776 70.4449 54.1098C70.399 54.182 70.3005 54.2607 70.2217 54.2673C68.278 54.4051 66.7611 56.0457 64.7386 55.862C63.6551 55.7636 62.7686 56.4657 61.6457 56.4132C58.1785 56.2492 54.9281 55.4223 52.0913 53.447C50.2527 52.1673 48.808 50.4282 48.1382 48.1904C48.0857 48.0132 48.1317 47.7376 48.02 47.6522C46.8643 46.7991 46.9628 45.6769 46.9694 44.3775C46.9825 42.5663 46.8709 40.7484 47.0285 38.9306C47.127 37.815 47.1532 36.7978 47.7705 35.7018C49.1232 33.2999 50.4365 30.8849 52.748 29.323C54.2386 28.3124 56.0444 27.853 57.8502 27.643L57.8568 27.6233Z" fill="#44607B"/>
<path d="M110.048 166.671C109.305 167.905 108.609 169.198 107.414 170.018C104.88 171.764 102.594 173.995 99.2323 174.179C96.9471 174.304 94.8524 173.844 92.6526 173.162C90.8205 172.591 89.343 171.528 88.1873 170.392C86.526 168.758 84.51 167.209 83.9256 164.617C83.6892 163.554 83.026 162.563 82.7699 161.428C82.4284 159.905 82.7764 158.357 82.4021 156.847C82.3824 156.762 82.4021 156.637 82.4481 156.578C83.7286 155.108 83.6301 152.877 85.1995 151.577C86.04 150.882 86.1648 149.76 86.9988 149.005C89.5663 146.669 92.449 144.956 95.8505 144.352C98.0569 143.958 100.309 144.168 102.365 145.271C102.529 145.356 102.693 145.586 102.824 145.566C104.243 145.356 104.965 146.216 105.884 147.141C107.158 148.434 108.524 149.635 109.699 151.033C110.422 151.892 111.118 152.627 111.459 153.842C112.201 156.493 112.983 159.131 112.457 161.874C112.116 163.639 111.164 165.241 110.034 166.665L110.048 166.671Z" fill="#44607B"/>
<path d="M102.47 19.8995C102.47 30.8393 102.207 30.8393 102.207 41.7791C102.207 52.7189 102.654 52.7189 102.654 63.6586C102.654 64.3674 101.866 65.2074 101.157 65.2074C97.5188 65.2074 97.5188 64.958 93.8809 64.958C93.1717 64.958 92.8368 64.3674 92.8368 63.6586C92.8368 52.7189 92.7843 52.7189 92.7843 41.7791C92.7843 30.8393 92.3969 30.8393 92.3969 19.8995C92.3969 19.1908 93.1717 18.2852 93.8875 18.2852C97.5254 18.2852 97.5254 18.6461 101.163 18.6461C101.872 18.6461 102.477 19.1842 102.477 19.8995H102.47Z" fill="#44607B"/>
<path d="M21.8317 18.6987C25.4696 18.6987 25.4696 18.8759 29.1075 18.8759C29.8167 18.8759 30.3617 19.2172 30.3617 19.9325C30.3617 30.9051 30.0859 30.9051 30.0859 41.8777C30.0859 52.8502 30.2435 52.8502 30.2435 63.8228C30.2435 64.5316 29.8232 65.4306 29.114 65.4306C25.4762 65.4306 25.4762 65.05 21.8383 65.05C21.1291 65.05 20.781 64.5316 20.781 63.8228C20.781 52.8502 20.7416 52.8502 20.7416 41.8777C20.7416 30.9051 20.873 30.9051 20.873 19.9325C20.873 19.2237 21.1225 18.6987 21.8317 18.6987Z" fill="#44607B"/>
<path d="M138.731 19.8995C138.731 30.8195 138.461 30.8195 138.461 41.7331C138.461 52.6532 138.324 52.6532 138.324 63.5667C138.324 64.2754 137.831 64.5511 137.122 64.5511C133.504 64.5511 133.504 64.6364 129.879 64.6364C129.17 64.6364 128.815 64.2754 128.815 63.5601C128.815 52.64 128.461 52.64 128.461 41.7265C128.461 30.813 128.835 30.8064 128.835 19.8929C128.835 19.1841 129.17 18.377 129.885 18.377C133.504 18.377 133.504 18.4163 137.128 18.4163C137.838 18.4163 138.731 19.1776 138.731 19.8929V19.8995Z" fill="#44607B"/>
<path d="M93.8801 77.8078C97.4983 77.8078 97.4983 77.729 101.123 77.729C101.832 77.729 102.693 78.1096 102.693 78.8249C102.693 89.6335 102.614 89.6335 102.614 100.435C102.614 111.244 102.147 111.244 102.147 122.046C102.147 122.755 101.839 123.516 101.123 123.516C97.5049 123.516 97.5049 123.372 93.8801 123.372C93.1709 123.372 92.291 122.755 92.291 122.039C92.291 111.231 92.5734 111.231 92.5734 100.429C92.5734 89.6203 92.882 89.6203 92.882 78.8184C92.882 78.1096 93.1709 77.8012 93.8801 77.8012V77.8078Z" fill="#44607B"/>
<path d="M66.3073 78.7919C66.3073 89.607 66.6225 89.607 66.6225 100.422C66.6225 107.632 66.6291 114.842 66.6422 122.052C66.6422 122.761 65.8214 123.181 65.1056 123.181C61.4874 123.181 61.4874 123.588 57.8627 123.588C57.1535 123.588 56.418 122.761 56.418 122.052C56.418 111.237 56.7135 111.237 56.7135 100.422C56.7135 89.607 56.2538 89.607 56.2538 78.7919C56.2538 78.0832 57.1535 77.2432 57.8627 77.2432C61.4809 77.2432 61.4809 77.7485 65.1056 77.7485C65.8148 77.7485 66.3073 78.0766 66.3073 78.7854V78.7919Z" fill="#44607B"/>
<path d="M138.5 78.7854C138.5 89.6005 138.619 89.6005 138.619 100.416C138.619 111.231 138.264 111.231 138.264 122.046C138.264 122.754 137.837 123.365 137.121 123.365C133.503 123.365 133.503 123.168 129.878 123.168C129.169 123.168 128.749 122.754 128.749 122.046C128.749 111.231 128.867 111.231 128.867 100.416C128.867 89.6005 128.729 89.6005 128.729 78.7854C128.729 78.0767 129.169 77.6895 129.885 77.6895C133.503 77.6895 133.503 77.1973 137.128 77.1973C137.837 77.1973 138.5 78.0766 138.5 78.792V78.7854Z" fill="#44607B"/>
<path d="M57.8367 136.227C61.4745 136.227 61.4745 136.64 65.1124 136.64C65.8216 136.64 66.2813 136.969 66.2813 137.684C66.2813 148.506 66.6687 148.506 66.6687 159.327C66.6687 170.149 66.301 170.149 66.301 180.971C66.301 181.679 65.8282 182.263 65.1124 182.263C61.4745 182.263 61.4745 182.211 57.8367 182.211C57.1275 182.211 56.2738 181.679 56.2738 180.971C56.2738 170.149 56.6087 170.149 56.6087 159.327C56.6087 148.506 56.3329 148.506 56.3329 137.684C56.3329 136.975 57.1209 136.227 57.8367 136.227Z" fill="#44607B"/>
<path d="M138.199 137.685C138.199 148.506 138.612 148.506 138.612 159.328C138.612 170.15 138.533 170.15 138.533 180.971C138.533 181.68 137.883 182.579 137.168 182.579C133.53 182.579 133.53 182.251 129.892 182.251C129.183 182.251 128.572 181.686 128.572 180.971C128.572 170.15 128.624 170.15 128.624 159.328C128.624 148.506 128.336 148.506 128.336 137.685C128.336 136.976 129.183 136.431 129.898 136.431C133.536 136.431 133.536 136.72 137.174 136.72C137.883 136.72 138.205 136.969 138.205 137.685H138.199Z" fill="#44607B"/>
<path d="M21.8318 77.7417C25.4697 77.7417 25.4697 77.4136 29.1076 77.4136C29.8168 77.4136 30.723 78.1158 30.723 78.8245C30.723 89.6396 30.2436 89.6396 30.2436 100.455C30.2436 111.27 30.5785 111.27 30.5785 122.085C30.5785 122.794 29.8234 123.594 29.1142 123.594C25.4763 123.594 25.4763 123.24 21.8384 123.24C21.1292 123.24 20.4594 122.8 20.4594 122.091C20.4594 111.276 20.5842 111.276 20.5842 100.461C20.5842 89.6462 20.5185 89.6462 20.5185 78.8311C20.5185 78.1223 21.1292 77.7483 21.8384 77.7483L21.8318 77.7417Z" fill="#44607B"/>
<path d="M21.8318 136.674C25.4697 136.674 25.4697 136.647 29.1076 136.647C29.8168 136.647 30.1779 136.969 30.1779 137.684C30.1779 148.499 30.5719 148.499 30.5719 159.315C30.5719 170.13 30.7164 170.13 30.7164 180.945C30.7164 181.653 29.8168 182.073 29.101 182.073C25.4631 182.073 25.4631 182.237 21.8252 182.237C21.116 182.237 20.5382 181.66 20.5382 180.945C20.5382 170.13 20.2558 170.13 20.2558 159.315C20.2558 148.499 20.5973 148.499 20.5973 137.684C20.5973 136.976 21.1095 136.674 21.8252 136.674H21.8318Z" fill="#44607B"/>
<path d="M165.877 18.7446C169.337 18.7446 169.337 18.7709 172.798 18.7709C173.501 18.7709 174.203 19.2106 174.203 19.9128C174.203 27.0178 174.203 34.1229 174.203 41.2279C174.203 51.8855 174.308 51.8855 174.308 62.5431C174.308 63.2453 173.501 63.9475 172.798 63.9475C169.337 63.9475 169.337 64.1115 165.877 64.1115C165.174 64.1115 164.898 63.2453 164.898 62.5431C164.898 51.8855 164.741 51.8855 164.741 41.2279C164.741 30.5703 164.839 30.5703 164.839 19.9128C164.839 19.2106 165.174 18.7446 165.877 18.7446Z" fill="#44607B"/>
<path d="M174.282 137.684C174.282 148.499 174.374 148.499 174.374 159.314C174.374 170.129 174.479 170.129 174.479 180.944C174.479 181.653 173.573 182.001 172.863 182.001C169.377 182.001 169.377 182.526 165.896 182.526C165.187 182.526 164.668 181.653 164.668 180.944C164.668 170.129 164.583 170.129 164.583 159.314C164.583 148.499 164.294 148.499 164.294 137.684C164.294 136.975 165.181 136.463 165.896 136.463C169.383 136.463 169.383 136.627 172.863 136.627C173.573 136.627 174.282 136.969 174.282 137.684Z" fill="#44607B"/>
</g>
<defs>
<clipPath id="clip0_35_2632">
<rect width="167.599" height="164.3" fill="white" transform="translate(16.4738 18.2852)"/>
</clipPath>
</defs>
</svg>
