<svg width="200" height="200" viewBox="0 0 200 200" fill="none" xmlns="http://www.w3.org/2000/svg">
<rect width="200" height="200" rx="25" fill="#F9F6F1"/>
<g clip-path="url(#clip0_35_2602)">
<path d="M340.824 52.3474C335.875 52.3474 331.649 53.3346 328.135 54.2252L327.441 54.4017L327.44 54.4022L327.438 54.4025C322.777 55.5967 318.512 57.1043 314.722 59.4113C312.633 60.6815 310.804 62.1424 309.143 63.5566C307.392 65.0484 306.026 66.3085 304.426 67.6057C301.151 70.2622 298.051 72.7747 294.575 74.8923C291.693 76.6456 288.243 77.9547 284.115 79.0379L283.714 79.1419L283.713 79.1422C280.491 79.9683 276.709 80.2499 272.014 80.2499C267.388 80.2499 263.602 79.8811 260.34 79.0444L260.339 79.0443C255.966 77.9238 252.393 76.6803 249.456 74.8902L249.454 74.8892L249.453 74.8883C247.858 73.9186 246.388 72.726 244.846 71.3713C243.382 70.0863 241.681 68.4939 239.993 67.1245C236.742 64.4883 233.28 61.7397 229.35 59.3463L229.349 59.3456C225.672 57.1082 221.494 55.3123 216.677 54.0781V54.0782C212.572 53.0255 208.023 52.8566 203.208 52.8566C198.368 52.8566 193.844 53.0596 189.746 54.1095C184.874 55.3578 180.764 57.2577 177.138 59.4637L176.775 59.6855C173.038 61.9852 169.641 64.4969 166.413 67.1141C164.727 68.4816 163.026 70.0705 161.561 71.3536C160.018 72.7058 158.546 73.8984 156.949 74.8713C153.958 76.6914 150.534 78.2136 146.551 79.2706L146.163 79.3715L146.162 79.3719L146.16 79.3723C142.907 80.2066 139.043 80.5638 134.402 80.5638C129.886 80.5638 126.043 80.0357 122.689 79.1796C118.505 78.1073 114.983 76.6133 111.925 74.7528L111.925 74.7523C108.445 72.6364 105.347 70.1431 102.081 67.4941C98.8955 64.9109 95.4973 62.0755 91.5429 59.6672L91.5418 59.6664C87.8651 57.4292 83.7891 55.6755 78.9719 54.4411V54.441C75.2919 53.4972 70.8601 52.4276 65.5963 52.4276C60.665 52.4276 56.3278 53.0224 52.4954 53.9707L52.1261 54.0637L52.125 54.0639L52.1239 54.0642C47.2403 55.3154 43.1291 57.2477 39.5158 59.4496C35.5366 61.8693 32.097 65.0642 29.1048 67.4907C26.0126 69.9984 22.6973 72.249 19.0797 74.4488L19.0789 74.4495C15.6833 76.5156 12.488 78.4074 8.55962 79.4139L8.55882 79.4142C5.33974 80.2398 1.49342 80.5219 -3.20957 80.5219C-7.68223 80.5219 -11.4889 79.9224 -14.8869 79.0542C-18.8928 78.0284 -22.1595 76.303 -25.4179 74.3204L-25.4188 74.3198C-28.9398 72.1788 -32.1022 69.7938 -35.2954 67.207C-38.5861 64.5412 -42.0513 61.8772 -45.9608 59.4963L-45.9621 59.4955C-49.6263 57.2659 -53.7493 55.4595 -58.5842 54.2215V54.2214C-62.4713 53.2245 -66.8928 52.5183 -72.0191 52.5183C-77.2157 52.5183 -81.6181 53.3905 -85.4177 54.364L-85.8654 54.4806C-90.4719 55.7001 -94.4555 57.3822 -98.0369 59.5613L-98.4013 59.7844C-102.154 62.0973 -105.514 64.6464 -108.718 67.2419C-112.29 70.1355 -114.88 72.709 -118.326 74.8046L-118.327 74.8052C-121.242 76.579 -124.663 77.9507 -128.739 79.0249L-129.136 79.128L-129.137 79.1281C-132.413 79.9682 -136.222 80.3651 -140.829 80.3651V87.3398C-135.845 87.3398 -131.417 86.9135 -127.404 85.8844V85.8842C-122.672 84.6718 -118.444 83.0406 -114.702 80.7636V80.7634C-110.727 78.3464 -107.256 75.0336 -104.328 72.6615C-101.135 70.0747 -97.934 67.6618 -94.413 65.5208L-94.4122 65.5203C-91.3578 63.6618 -87.8811 62.1944 -83.6878 61.1209L-83.6871 61.1207C-80.1912 60.225 -76.4125 59.4931 -72.0191 59.4931C-67.5551 59.4931 -63.7185 60.1051 -60.317 60.9774L-60.3155 60.9778C-56.1607 62.0414 -52.6746 63.5757 -49.5876 65.454L-49.5875 65.4538C-46.0763 67.5923 -42.895 70.0268 -39.6857 72.6267C-36.3786 75.3057 -32.9431 77.9072 -29.0432 80.2787L-29.0434 80.2788C-25.5507 82.404 -21.5989 84.5354 -16.6152 85.8114L-16.6136 85.8118C-12.723 86.8059 -8.33415 87.4967 -3.20957 87.4967C1.68462 87.4967 6.22191 87.2139 10.2914 86.1703V86.1701C15.3461 84.8749 19.3487 82.4497 22.7045 80.4079V80.4077C26.5076 78.095 30.0971 75.6659 33.498 72.9079C36.9993 70.0685 39.6976 67.5021 43.1396 65.4091L43.1412 65.4082L43.1426 65.4072C46.2796 63.4952 49.7553 61.8713 53.8528 60.8212C57.2189 59.9612 61.0964 59.4023 65.5963 59.4023C69.9227 59.4023 73.6306 60.2717 77.2393 61.1972L77.2399 61.1974C81.4058 62.2647 84.8416 63.7541 87.9162 65.6249C91.3824 67.7361 94.3799 70.229 97.6877 72.9115C100.914 75.5281 104.359 78.3144 108.3 80.711L108.3 80.7112C111.993 82.9584 116.163 84.7074 120.961 85.9367L120.963 85.9372L120.964 85.9375C124.906 86.9436 129.329 87.5385 134.402 87.5385C139.351 87.5385 143.857 87.1634 147.893 86.1284V86.1283C152.726 84.8935 156.911 83.0587 160.574 80.8299L160.576 80.8291C162.688 79.5423 164.517 78.0377 166.158 76.5994C167.879 75.0918 169.246 73.7967 170.807 72.5313C173.969 69.967 177.221 67.5761 180.762 65.423L180.763 65.4225C183.889 63.5206 187.366 61.9194 191.477 60.8661C194.675 60.0468 198.458 59.8314 203.208 59.8314C207.983 59.8314 211.762 60.0182 214.945 60.8345L214.946 60.8346C219.112 61.902 222.649 63.4333 225.723 65.304C229.214 67.4301 232.357 69.9123 235.599 72.5418C237.158 73.8054 238.524 75.1022 240.243 76.6122C241.883 78.052 243.711 79.5594 245.826 80.8457L245.826 80.8459C249.64 83.1707 253.997 84.6193 258.607 85.8005C262.633 86.833 267.05 87.2246 272.014 87.2246C276.909 87.2246 281.378 86.9413 285.446 85.8983V85.8981C290.122 84.6998 294.423 83.1489 298.2 80.8508L298.201 80.85C302.145 78.4481 305.602 75.6321 308.819 73.0229C310.467 71.6872 312.201 70.114 313.666 68.8665C315.222 67.5414 316.724 66.3569 318.346 65.3708L318.348 65.3697C321.315 63.5626 324.846 62.2669 329.166 61.1598L329.851 60.9857C333.279 60.1189 336.781 59.3222 340.824 59.3222V52.3474Z" fill="#44607B"/>
<path d="M340.824 67.3606C335.875 67.3606 331.649 68.3478 328.135 69.2384L327.441 69.4149L327.44 69.4154L327.438 69.4157C322.777 70.6099 318.512 72.1174 314.722 74.4245C312.633 75.6946 310.804 77.1555 309.143 78.5698C307.392 80.0615 306.026 81.3217 304.426 82.6189C301.151 85.2753 298.051 87.7879 294.575 89.9054C291.693 91.6587 288.243 92.9679 284.115 94.0511L283.714 94.155L283.713 94.1554C280.491 94.9815 276.709 95.2631 272.014 95.2631C267.388 95.2631 263.602 94.8943 260.34 94.0576L260.339 94.0574C255.966 92.937 252.393 91.6935 249.456 89.9034L249.454 89.9024L249.453 89.9014C247.858 88.9318 246.388 87.7392 244.846 86.3845C243.382 85.0995 241.681 83.507 239.993 82.1376C236.742 79.5015 233.28 76.7529 229.35 74.3595L229.349 74.3588C225.672 72.1214 221.494 70.3255 216.677 69.0913V69.0914C212.572 68.0386 208.023 67.8698 203.208 67.8698C198.368 67.8698 193.844 68.0728 189.746 69.1227C184.874 70.371 180.764 72.2709 177.138 74.4769L176.775 74.6987C173.038 76.9984 169.641 79.5101 166.413 82.1273C164.727 83.4948 163.026 85.0837 161.561 86.3668C160.018 87.719 158.546 88.9116 156.949 89.8845C153.958 91.7046 150.534 93.2268 146.551 94.2838L146.163 94.3847L146.162 94.3851L146.16 94.3855C142.907 95.2198 139.043 95.577 134.402 95.577C129.886 95.577 126.043 95.0489 122.689 94.1927C118.505 93.1205 114.983 91.6265 111.925 89.766L111.925 89.7655C108.445 87.6496 105.347 85.1563 102.081 82.5073C98.8955 79.9241 95.4973 77.0887 91.5429 74.6804L91.5418 74.6796C87.8651 72.4424 83.7891 70.6886 78.9719 69.4543V69.4542C75.2919 68.5104 70.8601 67.4408 65.5963 67.4408C60.665 67.4408 56.3278 68.0356 52.4954 68.9839L52.1261 69.0769L52.125 69.077L52.1239 69.0774C47.2403 70.3286 43.1291 72.2608 39.5158 74.4628C35.5366 76.8825 32.097 80.0774 29.1048 82.5039C26.0126 85.0116 22.6973 87.2622 19.0797 89.462L19.0789 89.4627C15.6833 91.5288 12.488 93.4206 8.55962 94.4271L8.55882 94.4274C5.33974 95.2529 1.49342 95.5351 -3.20957 95.5351C-7.68223 95.5351 -11.4889 94.9355 -14.8869 94.0673C-18.8928 93.0416 -22.1595 91.3162 -25.4179 89.3336L-25.4188 89.333C-28.9398 87.1919 -32.1022 84.8069 -35.2954 82.2202C-38.5861 79.5544 -42.0513 76.8904 -45.9608 74.5094L-45.9621 74.5086C-49.6263 72.2791 -53.7493 70.4727 -58.5842 69.2347V69.2345C-62.4713 68.2377 -66.8928 67.5315 -72.0191 67.5315C-77.2157 67.5315 -81.6181 68.4037 -85.4177 69.3772L-85.8654 69.4938C-90.4719 70.7133 -94.4555 72.3954 -98.0369 74.5745L-98.4013 74.7976C-102.154 77.1105 -105.514 79.6596 -108.718 82.255C-112.29 85.1486 -114.88 87.7222 -118.326 89.8177L-118.327 89.8182C-121.242 91.592 -124.663 92.9638 -128.739 94.0381L-129.136 94.1411L-129.137 94.1413C-132.413 94.9814 -136.222 95.3782 -140.829 95.3782V102.353C-135.845 102.353 -131.417 101.927 -127.404 100.898V100.897C-122.672 99.685 -118.444 98.0538 -114.702 95.7768V95.7766C-110.727 93.3596 -107.256 90.0468 -104.328 87.6747C-101.135 85.0879 -97.934 82.675 -94.413 80.534L-94.4122 80.5335C-91.3578 78.675 -87.8811 77.2076 -83.6878 76.1341L-83.6871 76.1339C-80.1912 75.2382 -76.4125 74.5063 -72.0191 74.5062C-67.5551 74.5062 -63.7185 75.1183 -60.317 75.9906L-60.3155 75.9909C-56.1607 77.0546 -52.6746 78.5888 -49.5876 80.4672L-49.5875 80.467C-46.0763 82.6055 -42.895 85.04 -39.6857 87.6398C-36.3786 90.3188 -32.9431 92.9204 -29.0432 95.2918L-29.0434 95.292C-25.5507 97.4172 -21.5989 99.5486 -16.6152 100.825L-16.6136 100.825C-12.723 101.819 -8.33415 102.51 -3.20957 102.51C1.68462 102.51 6.22191 102.227 10.2914 101.183V101.183C15.3461 99.8881 19.3487 97.4629 22.7045 95.4211V95.4209C26.5076 93.1082 30.0971 90.6791 33.498 87.9211C36.9993 85.0817 39.6976 82.5153 43.1396 80.4223L43.1412 80.4213L43.1426 80.4204C46.2796 78.5084 49.7553 76.8845 53.8528 75.8344C57.2189 74.9744 61.0964 74.4155 65.5963 74.4155C69.9227 74.4155 73.6306 75.2849 77.2393 76.2104L77.2399 76.2106C81.4058 77.2779 84.8416 78.7673 87.9162 80.6381C91.3824 82.7492 94.3799 85.2422 97.6877 87.9246C100.914 90.5413 104.359 93.3276 108.3 95.7242L108.3 95.7244C111.993 97.9716 116.163 99.7206 120.961 100.95L120.963 100.95L120.964 100.951C124.906 101.957 129.329 102.552 134.402 102.552C139.351 102.552 143.857 102.177 147.893 101.142V101.141C152.726 99.9066 156.911 98.0719 160.574 95.8431L160.576 95.8423C162.688 94.5555 164.517 93.0509 166.158 91.6126C167.879 90.105 169.246 88.8099 170.807 87.5445C173.969 84.9802 177.221 82.5893 180.762 80.4362L180.763 80.4357C183.889 78.5338 187.366 76.9326 191.477 75.8793C194.675 75.06 198.458 74.8446 203.208 74.8446C207.983 74.8446 211.762 75.0314 214.945 75.8477L214.946 75.8478C219.112 76.9152 222.649 78.4465 225.723 80.3172C229.214 82.4432 232.357 84.9255 235.599 87.555C237.158 88.8186 238.524 90.1154 240.243 91.6254C241.883 93.0652 243.711 94.5726 245.826 95.8589L245.826 95.859C249.64 98.1839 253.997 99.6325 258.607 100.814C262.633 101.846 267.05 102.238 272.014 102.238C276.909 102.238 281.378 101.955 285.446 100.911V100.911C290.122 99.7129 294.423 98.1621 298.2 95.864L298.201 95.8632C302.145 93.4613 305.602 90.6453 308.819 88.0361C310.467 86.7004 312.201 85.1272 313.666 83.8796C315.222 82.5546 316.724 81.3701 318.346 80.384L318.348 80.3829C321.315 78.5758 324.846 77.2801 329.166 76.173L329.851 75.9989C333.279 75.132 336.781 74.3353 340.824 74.3353V67.3606Z" fill="#44607B"/>
<path d="M340.824 97.3833C335.875 97.3833 331.649 98.3705 328.135 99.2611L327.441 99.4376L327.44 99.4381L327.438 99.4384C322.777 100.633 318.512 102.14 314.722 104.447C312.633 105.717 310.804 107.178 309.143 108.592C307.392 110.084 306.026 111.344 304.426 112.642C301.151 115.298 298.051 117.811 294.575 119.928C291.693 121.681 288.243 122.991 284.115 124.074L283.714 124.178L283.713 124.178C280.491 125.004 276.709 125.286 272.014 125.286C267.388 125.286 263.602 124.917 260.34 124.08L260.339 124.08C255.966 122.96 252.393 121.716 249.456 119.926L249.454 119.925L249.453 119.924C247.858 118.954 246.388 117.762 244.846 116.407C243.382 115.122 241.681 113.53 239.993 112.16C236.742 109.524 233.28 106.776 229.35 104.382L229.349 104.382C225.672 102.144 221.494 100.348 216.677 99.114V99.1141C212.572 98.0613 208.023 97.8925 203.208 97.8925C198.368 97.8925 193.844 98.0955 189.746 99.1454L189.292 99.2644C184.618 100.513 180.65 102.363 177.138 104.5L176.775 104.721C173.038 107.021 169.641 109.533 166.413 112.15C164.727 113.517 163.026 115.106 161.561 116.39C160.018 117.742 158.546 118.934 156.949 119.907C153.958 121.727 150.534 123.25 146.551 124.306L146.163 124.407L146.162 124.408L146.16 124.408C142.907 125.242 139.043 125.6 134.402 125.6C129.886 125.6 126.043 125.072 122.689 124.215C118.505 123.143 114.983 121.649 111.925 119.789L111.925 119.788C108.445 117.672 105.347 115.179 102.081 112.53C98.8955 109.947 95.4973 107.111 91.5429 104.703L91.5418 104.702C87.8651 102.465 83.7891 100.711 78.9719 99.477V99.4769C75.2919 98.5331 70.8601 97.4635 65.5963 97.4635C60.665 97.4635 56.3278 98.0583 52.4954 99.0066L52.1261 99.0996L52.125 99.0998L52.1239 99.1001C47.2403 100.351 43.1291 102.284 39.5158 104.486C35.5366 106.905 32.097 110.1 29.1048 112.527C26.0126 115.034 22.6973 117.285 19.0797 119.485L19.0789 119.485C15.6833 121.552 12.488 123.443 8.55962 124.45L8.55882 124.45C5.33974 125.276 1.49342 125.558 -3.20957 125.558C-7.68223 125.558 -11.4889 124.958 -14.8869 124.09C-18.8928 123.064 -22.1595 121.339 -25.4179 119.356L-25.4188 119.356C-28.9398 117.215 -32.1022 114.83 -35.2954 112.243C-38.5861 109.577 -42.0513 106.913 -45.9608 104.532L-45.9621 104.531C-49.6263 102.302 -53.7493 100.495 -58.5842 99.2574V99.2572C-62.4713 98.2604 -66.8928 97.5542 -72.0191 97.5542C-77.2157 97.5542 -81.6181 98.4264 -85.4177 99.3999L-85.8654 99.5165C-90.4719 100.736 -94.4555 102.418 -98.0369 104.597L-98.4013 104.82C-102.154 107.133 -105.514 109.682 -108.718 112.278C-112.29 115.171 -114.88 117.745 -118.326 119.84L-118.327 119.841C-121.242 121.615 -124.663 122.987 -128.739 124.061L-129.136 124.164L-129.137 124.164C-132.413 125.004 -136.222 125.401 -140.829 125.401V132.376C-135.845 132.376 -131.417 131.949 -127.404 130.92V130.92C-122.672 129.708 -118.444 128.076 -114.702 125.799V125.799C-110.727 123.382 -107.256 120.07 -104.328 117.697C-101.135 115.111 -97.934 112.698 -94.413 110.557L-94.4122 110.556C-91.3578 108.698 -87.8811 107.23 -83.6878 106.157L-83.6871 106.157C-80.1912 105.261 -76.4125 104.529 -72.0191 104.529C-67.5551 104.529 -63.7185 105.141 -60.317 106.013L-60.3155 106.014C-56.1607 107.077 -52.6746 108.612 -49.5876 110.49L-49.5875 110.49C-46.0763 112.628 -42.895 115.063 -39.6857 117.663C-36.3786 120.342 -32.9431 122.943 -29.0432 125.315L-29.0434 125.315C-25.5507 127.44 -21.5989 129.571 -16.6152 130.847L-16.6136 130.848C-12.723 131.842 -8.33415 132.533 -3.20957 132.533C1.68462 132.533 6.22191 132.25 10.2914 131.206V131.206C15.3461 129.911 19.3487 127.486 22.7045 125.444V125.444C26.5076 123.131 30.0971 120.702 33.498 117.944C36.9993 115.104 39.6976 112.538 43.1396 110.445L43.1412 110.444L43.1426 110.443C46.2796 108.531 49.7553 106.907 53.8528 105.857C57.2189 104.997 61.0964 104.438 65.5963 104.438C69.9227 104.438 73.6306 105.308 77.2393 106.233L77.2399 106.233C81.4058 107.301 84.8416 108.79 87.9162 110.661C91.3824 112.772 94.3799 115.265 97.6877 117.947C100.914 120.564 104.359 123.35 108.3 125.747L108.3 125.747C111.993 127.994 116.163 129.743 120.961 130.973L120.963 130.973L120.964 130.973C124.906 131.98 129.329 132.574 134.402 132.574C139.351 132.574 143.857 132.199 147.893 131.164V131.164C152.726 129.929 156.911 128.095 160.574 125.866L160.576 125.865C162.688 124.578 164.517 123.074 166.158 121.635C167.879 120.128 169.246 118.833 170.807 117.567C173.969 115.003 177.221 112.612 180.762 110.459L180.763 110.458C183.889 108.556 187.366 106.955 191.477 105.902C194.675 105.083 198.458 104.867 203.208 104.867C207.983 104.867 211.763 105.054 214.945 105.87L214.946 105.871C219.112 106.938 222.649 108.469 225.723 110.34C229.214 112.466 232.357 114.948 235.599 117.578C237.158 118.841 238.524 120.138 240.243 121.648C241.883 123.088 243.711 124.595 245.826 125.882L245.826 125.882C249.64 128.207 253.997 129.655 258.607 130.836C262.633 131.869 267.05 132.261 272.014 132.261C276.909 132.261 281.378 131.977 285.446 130.934V130.934C290.122 129.736 294.423 128.185 298.2 125.887L298.201 125.886C302.145 123.484 305.602 120.668 308.819 118.059C310.467 116.723 312.201 115.15 313.666 113.902C315.222 112.577 316.724 111.393 318.346 110.407L318.348 110.406C321.315 108.599 324.846 107.303 329.166 106.196L329.851 106.022C333.279 105.155 336.781 104.358 340.824 104.358V97.3833Z" fill="#44607B"/>
<path d="M-72.0191 112.375C-77.1453 112.375 -81.5669 113.082 -85.4539 114.079L-85.4538 114.079C-90.4236 115.351 -94.4139 117.46 -97.9253 119.596L-98.6313 120.028C-102.153 122.192 -105.545 124.455 -108.751 127.055C-111.972 129.667 -115.091 132.087 -118.594 134.22H-118.593C-122.039 136.317 -125.062 138.259 -128.864 139.269L-129.045 139.316L-129.046 139.317C-132.209 140.128 -136.001 140.261 -140.825 140.261V147.235C-136.059 147.235 -131.439 147.131 -127.313 146.073V146.073C-122.218 144.767 -118.217 142.156 -114.967 140.178L-114.966 140.177C-111.047 137.791 -107.631 135.126 -104.358 132.472C-101.284 129.979 -97.9485 127.773 -94.3015 125.556L-94.3007 125.555C-91.061 123.584 -87.7423 121.864 -83.7226 120.835L-83.7212 120.835C-80.3196 119.962 -76.4831 119.35 -72.0191 119.35C-67.6159 119.35 -63.826 120.065 -60.3483 120.957L-60.3475 120.957C-56.2797 121.999 -52.9179 123.631 -49.7445 125.562L-49.7437 125.563C-46.2423 127.692 -43.1132 130.119 -39.8929 132.73C-36.6199 135.385 -33.1646 138.077 -29.2448 140.461L-29.2443 140.461C-25.6476 142.647 -21.5731 144.608 -16.6679 145.864L-16.668 145.864C-12.5958 146.907 -8.10088 147.186 -3.20957 147.186C1.89125 147.186 6.25193 146.543 10.1659 145.539V145.539C14.9991 144.301 19.0557 142.518 22.7183 140.289V140.289C26.5735 137.945 30.091 135.429 33.4493 132.706C36.8506 129.948 39.7171 127.401 43.164 125.305L43.1658 125.304C46.4138 123.326 49.8075 121.563 53.8201 120.535L53.8209 120.535C57.0645 119.703 60.9365 119.364 65.5963 119.364C70.0434 119.364 73.8594 120.009 77.2845 120.887L77.2853 120.887C81.5845 121.989 85.1469 123.328 88.1255 125.14L88.1263 125.141C91.5815 127.242 94.0203 129.817 97.6771 132.783C101.13 135.583 104.867 137.887 108.563 140.135C112.03 142.248 115.984 144.436 120.981 145.717C125.044 146.759 129.499 147.054 134.402 147.054C139.202 147.054 143.745 146.908 147.857 145.853V145.853C152.778 144.593 156.835 142.589 160.407 140.415L160.408 140.414L160.409 140.413C164.275 138.057 167.785 135.5 171.127 132.79C174.596 129.976 177.344 127.419 180.786 125.326V125.325C183.775 123.509 187.278 122.178 191.565 121.08L191.894 120.996C195.303 120.14 198.955 119.451 203.208 119.451C207.643 119.451 211.433 120.107 214.869 120.988L214.869 120.988C219.283 122.119 222.853 123.309 225.772 125.085L225.773 125.085C229.229 127.187 231.665 129.767 235.327 132.737C238.634 135.419 242.108 138.044 246.007 140.416L246.007 140.415C249.657 142.639 253.747 144.472 258.594 145.714C262.368 146.681 266.797 147.601 272.014 147.601C277.034 147.601 281.54 147.106 285.528 146.084C290.511 144.808 294.578 142.624 298.071 140.499V140.499C302.048 138.08 305.5 134.8 308.439 132.416C311.577 129.872 314.857 127.52 318.419 125.354L318.42 125.353C321.436 123.518 324.932 122.12 329.173 121.034L329.174 121.033C332.585 120.159 336.369 119.539 340.824 119.539V112.564C335.689 112.564 331.319 113.283 327.442 114.277C322.7 115.492 318.53 117.122 314.796 119.394H314.795C310.937 121.74 307.402 124.278 304.046 126.999C300.604 129.791 298.054 132.285 294.767 134.342L294.446 134.54L294.446 134.54C291.239 136.492 287.911 138.245 283.985 139.278L283.798 139.327L283.797 139.327C280.496 140.173 276.591 140.627 272.014 140.627C267.634 140.627 263.846 139.86 260.325 138.957C256.19 137.898 252.735 136.348 249.634 134.458L249.632 134.457L249.631 134.456C246.109 132.314 242.908 129.905 239.721 127.32C236.934 125.06 233.472 121.645 229.582 119.239L229.397 119.125C225.564 116.794 221.17 115.402 216.6 114.232V114.232C212.748 113.244 208.363 112.477 203.208 112.477C198.171 112.477 193.907 113.3 190.197 114.231L189.84 114.322L189.838 114.322L189.837 114.322C185.215 115.507 181.064 117.026 177.34 119.259L177.163 119.366L177.162 119.366C173.184 121.786 169.759 124.92 166.734 127.372C163.583 129.928 160.328 132.295 156.779 134.458C153.7 136.331 150.401 137.952 146.505 138.997L146.126 139.097L146.125 139.097C142.949 139.912 139.193 140.079 134.402 140.079C129.715 140.079 125.94 139.788 122.714 138.961L122.713 138.961C118.727 137.939 115.477 136.181 112.193 134.179L112.191 134.178L112.19 134.177C108.465 131.912 105.11 129.83 102.07 127.365C99.2337 125.065 95.716 121.593 91.7502 119.181C87.9774 116.886 83.7003 115.331 79.0164 114.131V114.131C75.1531 113.14 70.7461 112.389 65.5963 112.389C60.6588 112.389 56.1332 112.741 52.0883 113.779L52.0884 113.779C47.1186 115.052 43.05 117.208 39.5401 119.345L39.1692 119.574C35.3526 121.95 32.0516 124.859 29.0561 127.289C26.0191 129.751 22.8631 132.016 19.4271 134.127L19.0936 134.33L19.0928 134.331C16.0041 136.211 12.5839 137.72 8.43407 138.783L8.43327 138.783C5.05863 139.649 1.2798 140.212 -3.20957 140.212C-7.90852 140.212 -11.7138 139.933 -14.9371 139.107L-14.9377 139.107C-19.0226 138.061 -22.4599 136.423 -25.6215 134.501C-29.1226 132.372 -32.2793 129.924 -35.4997 127.313C-38.6705 124.741 -41.9861 122.154 -45.7538 119.828L-46.1199 119.603C-49.6977 117.426 -53.7007 115.46 -58.6155 114.201C-62.4265 113.223 -66.832 112.375 -72.0191 112.375Z" fill="#44607B"/>
<path d="M340.824 82.2483C335.57 82.2483 331.131 83.2885 327.434 84.2331L327.433 84.2332L327.431 84.2336C322.682 85.4503 318.508 87.095 314.777 89.365H314.777C310.799 91.7843 307.378 94.899 304.343 97.3601C301.282 99.8425 297.941 102.005 294.268 104.242L293.626 104.633C290.485 106.541 287.551 108.265 283.97 109.215L283.787 109.263L283.786 109.263C280.472 110.113 276.577 110.59 272.021 110.59C267.531 110.59 263.661 110.016 260.28 109.154C256.345 108.145 253.156 106.285 249.784 104.23L249.781 104.228C246.069 101.971 242.712 99.8671 239.668 97.3985C236.724 95.0112 233.27 91.7347 229.293 89.3162C225.702 87.131 221.602 85.1517 216.694 83.8951V83.8953C212.624 82.8517 208.104 82.5725 203.212 82.5725C198.215 82.5725 193.776 83.0182 189.767 84.0452L189.538 84.1047C184.743 85.3608 180.747 87.2786 177.201 89.4339L177.201 89.4342C173.302 91.8053 169.828 94.4312 166.521 97.1125C163.344 99.6897 160.16 102.068 156.635 104.218L156.333 104.401C153.308 106.221 150.19 107.788 146.453 108.794L146.077 108.893L146.077 108.893C142.631 109.777 138.837 110.447 134.406 110.447C129.794 110.447 125.933 110.047 122.654 109.207C118.657 108.183 115.32 106.409 112.046 104.419C108.603 102.325 105.814 99.7842 102.377 96.9974C99.0184 94.2734 95.4803 91.7442 91.6266 89.3971L91.6255 89.3963C87.9927 87.1859 83.8993 85.313 79.0346 84.07V84.0698C75.0258 83.0417 70.5854 82.604 65.5963 82.604C60.7854 82.604 56.2043 82.769 52.0983 83.8181L52.0972 83.8183L52.0961 83.8186C47.411 85.019 43.3303 86.7892 39.7497 88.9229L39.4046 89.1306L39.4042 89.1309C35.4262 91.5498 31.9515 94.8281 28.9968 97.2242C25.6642 99.9269 22.9193 102.42 19.6204 104.476L19.2995 104.674L19.2985 104.675L19.0153 104.845C16.1669 106.533 12.8323 107.843 8.88243 108.88L8.48534 108.983L8.48215 108.984C4.93105 109.895 1.14691 110.705 -3.21308 110.705C-7.63417 110.705 -11.4855 110.01 -14.9446 109.126C-19.0582 108.073 -22.5325 106.472 -25.6634 104.569C-29.1091 102.474 -31.9649 99.9226 -35.3741 97.1579C-38.573 94.5637 -42.0008 91.7324 -45.9524 89.3296C-49.45 87.2014 -53.5249 85.0242 -58.5041 83.7493V83.7491C-62.6243 82.6924 -67.243 82.5692 -72.0259 82.5692C-77.1826 82.5692 -81.5422 83.3287 -85.4001 84.3171L-85.8285 84.4276C-90.2475 85.5759 -94.4608 86.9457 -98.1762 89.2075C-102.151 91.6246 -105.588 94.6691 -108.674 97.1718C-112.064 99.9209 -114.951 102.466 -118.397 104.563C-121.401 106.391 -124.916 107.77 -129.174 108.861L-129.175 108.862C-132.787 109.788 -136.51 110.664 -140.835 110.664V117.638C-135.57 117.638 -131.12 116.561 -127.442 115.618V115.618C-122.717 114.407 -118.518 112.801 -114.771 110.522L-114.771 110.521C-110.803 108.106 -107.385 105.106 -104.281 102.589C-100.874 99.826 -97.9987 97.2626 -94.5524 95.167L-94.5508 95.1659C-91.628 93.3863 -88.085 92.2042 -83.6702 91.074L-83.6696 91.0738C-80.2321 90.1931 -76.4662 89.5439 -72.0259 89.5439C-67.2117 89.5439 -63.405 89.6926 -60.2366 90.5052L-60.2352 90.5055C-56.225 91.5322 -52.8305 93.309 -49.5771 95.2886L-49.5763 95.2891C-46.1067 97.3989 -43.0619 99.9034 -39.7673 102.575C-36.6832 105.076 -33.2618 108.112 -29.2867 110.529L-29.2862 110.529C-25.6586 112.734 -21.5512 114.635 -16.6744 115.883L-16.6728 115.884C-12.8437 116.862 -8.38856 117.68 -3.21308 117.68C2.02415 117.68 6.47723 116.698 10.2147 115.74V115.74C14.9398 114.533 19.1773 112.913 22.9241 110.633V110.633C26.9014 108.214 30.3369 105.117 33.39 102.641C36.9287 99.7717 39.5846 97.1843 43.0275 95.0907L43.3191 94.9152C46.3454 93.1117 49.8082 91.605 53.8249 90.5756V90.5758C57.0075 89.7626 60.8169 89.5788 65.5963 89.5788C70.1974 89.5788 74.0223 89.985 77.302 90.8261L77.3036 90.8264L77.3052 90.8269C81.4227 91.8786 84.882 93.4577 87.9999 95.3549L88.0001 95.3547C91.567 97.5271 94.8499 99.8731 97.9841 102.415C101.041 104.894 104.445 107.96 108.423 110.379L108.423 110.379C111.908 112.498 115.936 114.686 120.923 115.963C124.94 116.992 129.42 117.422 134.406 117.422C139.572 117.422 143.966 116.635 147.809 115.649V115.649C152.762 114.38 156.729 112.325 160.261 110.176L160.262 110.175L160.263 110.175C164.151 107.805 167.6 105.218 170.915 102.53C174.102 99.9453 177.303 97.5355 180.824 95.394C183.981 93.4754 187.412 91.8488 191.498 90.8018C194.785 89.9596 198.612 89.5474 203.212 89.5474C207.916 89.5474 211.744 89.8263 214.963 90.6517L214.964 90.652C219.046 91.6971 222.507 93.3517 225.668 95.2747L225.668 95.2752C229.112 97.3692 231.726 99.9374 235.275 102.816C238.724 105.613 242.447 107.932 246.157 110.187L246.157 110.187C249.534 112.245 253.508 114.618 258.552 115.911L258.554 115.911L258.555 115.912C262.471 116.911 266.921 117.565 272.021 117.565C277.056 117.565 281.544 117.038 285.518 116.019V116.019C290.593 114.719 294.584 112.214 297.893 110.201L297.895 110.2C301.642 107.918 305.304 105.561 308.736 102.777C312.194 99.9727 314.959 97.4172 318.402 95.3239L318.403 95.3234C321.423 93.4856 324.927 92.0754 329.16 90.9906C332.752 90.0729 336.487 89.223 340.824 89.223V82.2483Z" fill="#44607B"/>
</g>
<defs>
<clipPath id="clip0_35_2602">
<rect width="182.256" height="95.29" fill="white" transform="matrix(-1 0 0 1 191.128 52.355)"/>
</clipPath>
</defs>
</svg>
