<svg width="200" height="200" viewBox="0 0 200 200" fill="none" xmlns="http://www.w3.org/2000/svg">
<rect width="200" height="200" rx="25" fill="#F9F6F1"/>
<path d="M122.448 48.4341V78.9378H115.475C113.151 63.8312 107.632 55.5516 92.6703 55.5516H84.5359V132.973C84.5359 140.526 89.7651 142.85 101.821 143.431V150.113H50.6913V143.431C62.7476 142.85 67.8315 140.526 67.8315 132.973V55.5516H59.8424C44.8811 55.5516 39.3614 63.8312 37.0373 78.9378H30.065V48.4341H122.448Z" fill="#44607B"/>
<path d="M147.711 62.3786V78.9378H169.499V88.0889H147.711V131.811C147.711 138.057 152.94 140.526 159.767 140.526C162.672 140.526 167.175 139.945 169.935 139.074V145.901C164.706 149.242 157.734 151.566 150.325 151.566C139.577 151.566 131.733 145.61 131.733 136.604V88.0889H121.71V82.5692C128.973 79.0831 137.543 71.3845 141.61 62.3786H147.711Z" fill="#44607B"/>
</svg>
