<svg width="200" height="200" viewBox="0 0 200 200" fill="none" xmlns="http://www.w3.org/2000/svg">
<rect width="200" height="200" rx="25" fill="#F9F6F1"/>
<path d="M95.7095 25.2224C96.0473 22.6523 97.5471 21.7966 99.5773 21.7966C101.607 21.7966 103.505 22.5986 103.843 25.1687C104.304 28.6766 104.563 28.6419 105.024 32.1529C105.485 35.6608 105.93 35.6039 106.391 39.1118C106.852 42.6197 106.277 42.6954 106.738 46.2065C107.199 49.7175 106.925 49.7522 107.382 53.2601C107.925 57.4089 113.04 58.4509 115.585 55.1293C117.739 52.3223 118.648 53.0201 120.801 50.21C122.955 47.4 122.263 46.8727 124.413 44.0626C126.564 41.2525 126.504 41.2051 128.654 38.3951C130.804 35.585 130.946 35.6923 133.099 32.8823C134.675 30.8236 137.059 31.1267 138.817 32.1403C140.573 33.1538 142.436 35.2377 141.441 37.631C140.087 40.8989 140.03 40.8768 138.675 44.1447C137.318 47.4126 137.245 47.381 135.887 50.6489C134.53 53.9168 134.403 53.8632 133.046 57.1342C131.688 60.4053 131.173 60.1874 129.816 63.4585C128.212 67.3231 132.493 71.794 136.358 70.19C139.626 68.8355 139.348 68.1662 142.616 66.8116C145.884 65.4571 145.985 65.7002 149.253 64.3426C152.52 62.9849 152.634 63.2627 155.905 61.905C159.173 60.5474 158.816 59.6854 162.084 58.3277C164.478 57.3331 166.943 58.8645 167.957 60.6231C168.971 62.3818 168.402 64.4152 166.344 65.9907C163.537 68.1441 163.824 68.5198 161.014 70.67C158.204 72.8202 158.283 72.9244 155.476 75.0777C152.666 77.231 152.577 77.1142 149.767 79.2676C146.957 81.4209 146.802 81.2157 143.992 83.369C140.671 85.9139 142.265 91.7866 146.414 92.3297C149.922 92.7907 150.014 92.0992 153.521 92.5602C157.029 93.0212 156.925 93.82 160.433 94.281C163.941 94.742 164.007 94.2305 167.518 94.6915C171.029 95.1524 171.067 94.8493 174.575 95.3103C177.145 95.6481 178.954 98.0762 178.954 100.103C178.954 102.13 177.091 104.16 174.521 104.498C171.013 104.959 170.975 104.681 167.468 105.142C163.96 105.603 163.976 105.736 160.468 106.197C156.96 106.658 156.953 106.617 153.446 107.075C149.938 107.536 149.922 107.416 146.411 107.877C142.262 108.42 140.567 114.422 143.888 116.967C146.695 119.12 147.336 118.284 150.143 120.437C152.95 122.59 152.486 123.196 155.293 125.35C158.1 127.503 158.185 127.393 160.995 129.546C163.805 131.699 163.552 132.025 166.363 134.178C168.421 135.753 168.917 137.799 167.903 139.558C166.89 141.314 164.607 142.532 162.214 141.541C158.946 140.186 158.826 140.471 155.558 139.116C152.29 137.762 152.647 136.9 149.379 135.545C146.111 134.19 146.042 134.355 142.774 133C139.506 131.646 139.446 131.785 136.178 130.427C132.313 128.823 128.357 132.823 129.961 136.688C131.315 139.956 131.423 139.912 132.78 143.18C134.138 146.448 134.365 146.353 135.723 149.621C137.081 152.889 137.239 152.825 138.593 156.093C139.951 159.361 140.042 159.323 141.4 162.591C142.395 164.985 140.702 167.289 138.944 168.306C137.185 169.323 135.149 169.017 133.57 166.961C131.416 164.154 130.614 164.77 128.461 161.96C126.308 159.15 126.895 158.701 124.742 155.894C122.588 153.084 122.838 152.895 120.684 150.085C118.531 147.275 117.789 147.846 115.636 145.036C113.091 141.715 108.803 142.921 108.26 147.07C107.799 150.577 106.871 150.457 106.413 153.965C105.955 157.473 106.748 157.577 106.29 161.085C105.832 164.593 105.055 164.492 104.594 168.003C104.133 171.514 104.386 171.546 103.928 175.054C103.59 177.624 101.598 178.647 99.571 178.647C97.5439 178.647 95.2864 177.658 94.9485 175.088C94.4875 171.58 95.0085 171.511 94.5475 168.003C94.0866 164.495 93.7708 164.536 93.3098 161.028C92.8489 157.52 93.3035 157.461 92.8425 153.949C92.3816 150.438 92.4952 150.426 92.0342 146.918C91.4912 142.769 85.7195 141.465 83.1746 144.787C81.0212 147.594 80.9297 147.524 78.7763 150.334C76.623 153.144 76.7935 153.274 74.6401 156.081C72.4868 158.891 72.6952 159.049 70.545 161.859C68.3948 164.669 68.5337 164.776 66.3836 167.586C64.808 169.645 61.9474 169.329 60.1919 168.316C58.4364 167.302 56.8293 165.022 57.8238 162.629C59.1784 159.361 59.5004 159.494 60.855 156.226C62.2126 152.958 62.6452 153.138 63.9997 149.87C65.3574 146.602 64.9122 146.416 66.2667 143.148C67.6244 139.88 67.937 140.01 69.2947 136.742C70.8986 132.877 66.6867 128.495 62.822 130.099C59.5541 131.453 59.6804 131.756 56.4125 133.114C53.1446 134.471 53.2267 134.667 49.9588 136.022C46.6909 137.376 46.7445 137.512 43.4766 138.867C40.2087 140.221 39.9088 139.504 36.6409 140.859C34.2476 141.853 31.8543 141.55 30.8376 139.795C29.824 138.039 30.4492 135.412 32.5078 133.834C35.3148 131.68 35.5232 131.952 38.3301 129.799C41.137 127.645 40.8528 127.273 43.6598 125.119C46.4667 122.966 46.3151 122.767 49.1221 120.614C51.9321 118.46 52.3395 118.994 55.1495 116.844C58.4711 114.299 56.7693 109.241 52.6205 108.698C49.1126 108.237 49.2357 107.305 45.7247 106.847C42.2137 106.39 42.1158 107.157 38.6079 106.699C35.1001 106.238 35.1632 105.755 31.6522 105.297C28.1443 104.836 28.0654 105.43 24.5575 104.972C21.9874 104.634 21.3938 102.143 21.3938 100.116C21.3938 98.0888 22.1074 96.5196 24.6775 96.1817C28.1854 95.7208 28.1759 95.6418 31.6838 95.184C35.1916 94.7262 35.0843 93.8989 38.5921 93.438C42.1 92.977 42.1916 93.6685 45.6994 93.2075C49.2073 92.7465 49.1221 92.0771 52.6299 91.6161C56.7787 91.0731 57.928 86.6306 54.6065 84.0858C51.7995 81.9324 51.8343 81.8851 49.0273 79.7349C46.2204 77.5847 46.8172 76.8016 44.0102 74.6483C41.2002 72.495 41.1181 72.6023 38.3111 70.449C35.5011 68.2956 35.1222 68.7945 32.3121 66.6411C30.2535 65.0656 29.7735 62.1608 30.7871 60.4053C31.8006 58.6498 34.6864 57.3016 37.0797 58.2961C40.3477 59.6507 40.1645 60.0927 43.4324 61.4472C46.7003 62.8017 46.855 62.4292 50.123 63.7868C53.3909 65.1445 53.3719 65.195 56.6398 66.5496C59.9077 67.9041 59.8572 68.0335 63.1251 69.3881C66.9898 70.992 70.9681 67.32 69.3673 63.4553C68.0128 60.1874 68.0664 60.1653 66.7088 56.8974C65.3511 53.6295 64.7196 53.8916 63.3651 50.6237C62.0106 47.3558 62.6736 47.0779 61.3191 43.81C59.9646 40.5421 59.6583 40.6684 58.3038 37.3973C57.3092 35.004 58.1901 32.5065 59.9456 31.4898C61.7011 30.4763 64.3439 30.9341 65.9226 32.9896C68.0759 35.7965 67.9496 35.8944 70.0998 38.7045C72.2532 41.5146 72.4836 41.3346 74.637 44.1447C76.7903 46.9548 76.3515 47.2895 78.5048 50.0964C80.6581 52.9033 81.0339 52.616 83.1872 55.4261C85.7321 58.7476 90.6703 57.3458 91.2133 53.1969C91.6743 49.6891 91.6838 49.6891 92.1448 46.1812C92.6057 42.6733 92.7573 42.6923 93.2183 39.1844C93.6792 35.6765 93.7108 35.6797 94.3455 32.1971C94.9833 28.7019 95.239 28.7397 95.7 25.2319L95.7095 25.2224Z" fill="#44607B"/>
<path d="M95.7095 25.2224C96.0473 22.6523 97.5471 21.7966 99.5773 21.7966C101.607 21.7966 103.505 22.5986 103.843 25.1687C104.304 28.6766 104.563 28.6419 105.024 32.1529C105.485 35.6608 105.93 35.6039 106.391 39.1118C106.852 42.6197 106.277 42.6954 106.738 46.2065C107.199 49.7175 106.925 49.7522 107.382 53.2601C107.925 57.4089 113.04 58.4509 115.585 55.1293C117.739 52.3223 118.648 53.0201 120.801 50.21C122.955 47.4 122.263 46.8727 124.413 44.0626C126.564 41.2525 126.504 41.2051 128.654 38.3951C130.804 35.585 130.946 35.6923 133.099 32.8823C134.675 30.8236 137.059 31.1267 138.817 32.1403C140.573 33.1538 142.436 35.2377 141.441 37.631C140.087 40.8989 140.03 40.8768 138.675 44.1447C137.318 47.4126 137.245 47.381 135.887 50.6489C134.53 53.9168 134.403 53.8632 133.046 57.1342C131.688 60.4053 131.173 60.1874 129.816 63.4585C128.212 67.3231 132.493 71.794 136.358 70.19C139.626 68.8355 139.348 68.1662 142.616 66.8116C145.884 65.4571 145.985 65.7002 149.253 64.3426C152.52 62.9849 152.634 63.2627 155.905 61.905C159.173 60.5474 158.816 59.6854 162.084 58.3277C164.478 57.3331 166.943 58.8645 167.957 60.6231C168.971 62.3818 168.402 64.4152 166.344 65.9907C163.537 68.1441 163.824 68.5198 161.014 70.67C158.204 72.8202 158.283 72.9244 155.476 75.0777C152.666 77.231 152.577 77.1142 149.767 79.2676C146.957 81.4209 146.802 81.2157 143.992 83.369C140.671 85.9139 142.265 91.7866 146.414 92.3297C149.922 92.7907 150.014 92.0992 153.521 92.5602C157.029 93.0212 156.925 93.82 160.433 94.281C163.941 94.742 164.007 94.2305 167.518 94.6915C171.029 95.1524 171.067 94.8493 174.575 95.3103C177.145 95.6481 178.954 98.0762 178.954 100.103C178.954 102.13 177.091 104.16 174.521 104.498C171.013 104.959 170.975 104.681 167.468 105.142C163.96 105.603 163.976 105.736 160.468 106.197C156.96 106.658 156.953 106.617 153.446 107.075C149.938 107.536 149.922 107.416 146.411 107.877C142.262 108.42 140.567 114.422 143.888 116.967C146.695 119.12 147.336 118.284 150.143 120.437C152.95 122.59 152.486 123.196 155.293 125.35C158.1 127.503 158.185 127.393 160.995 129.546C163.805 131.699 163.552 132.025 166.363 134.178C168.421 135.753 168.917 137.799 167.903 139.558C166.89 141.314 164.607 142.532 162.214 141.541C158.946 140.186 158.826 140.471 155.558 139.116C152.29 137.762 152.647 136.9 149.379 135.545C146.111 134.19 146.042 134.355 142.774 133C139.506 131.646 139.446 131.785 136.178 130.427C132.313 128.823 128.357 132.823 129.961 136.688C131.315 139.956 131.423 139.912 132.78 143.18C134.138 146.448 134.365 146.353 135.723 149.621C137.081 152.889 137.239 152.825 138.593 156.093C139.951 159.361 140.042 159.323 141.4 162.591C142.395 164.985 140.702 167.289 138.944 168.306C137.185 169.323 135.149 169.017 133.57 166.961C131.416 164.154 130.614 164.77 128.461 161.96C126.308 159.15 126.895 158.701 124.742 155.894C122.588 153.084 122.838 152.895 120.684 150.085C118.531 147.275 117.789 147.846 115.636 145.036C113.091 141.715 108.803 142.921 108.26 147.07C107.799 150.577 106.871 150.457 106.413 153.965C105.955 157.473 106.748 157.577 106.29 161.085C105.832 164.593 105.055 164.492 104.594 168.003C104.133 171.514 104.386 171.546 103.928 175.054C103.59 177.624 101.598 178.647 99.571 178.647C97.5439 178.647 95.2864 177.658 94.9485 175.088C94.4875 171.58 95.0085 171.511 94.5475 168.003C94.0866 164.495 93.7708 164.536 93.3098 161.028C92.8489 157.52 93.3035 157.461 92.8425 153.949C92.3816 150.438 92.4952 150.426 92.0342 146.918C91.4912 142.769 85.7195 141.465 83.1746 144.787C81.0212 147.594 80.9297 147.524 78.7763 150.334C76.623 153.144 76.7935 153.274 74.6401 156.081C72.4868 158.891 72.6952 159.049 70.545 161.859C68.3948 164.669 68.5337 164.776 66.3836 167.586C64.808 169.645 61.9474 169.329 60.1919 168.316C58.4364 167.302 56.8293 165.022 57.8238 162.629C59.1784 159.361 59.5004 159.494 60.855 156.226C62.2126 152.958 62.6452 153.138 63.9997 149.87C65.3574 146.602 64.9122 146.416 66.2667 143.148C67.6244 139.88 67.937 140.01 69.2947 136.742C70.8986 132.877 66.6867 128.495 62.822 130.099C59.5541 131.453 59.6804 131.756 56.4125 133.114C53.1446 134.471 53.2267 134.667 49.9588 136.022C46.6909 137.376 46.7445 137.512 43.4766 138.867C40.2087 140.221 39.9088 139.504 36.6409 140.859C34.2476 141.853 31.8543 141.55 30.8376 139.795C29.824 138.039 30.4492 135.412 32.5078 133.834C35.3148 131.68 35.5232 131.952 38.3301 129.799C41.137 127.645 40.8528 127.273 43.6598 125.119C46.4667 122.966 46.3151 122.767 49.1221 120.614C51.9321 118.46 52.3395 118.994 55.1495 116.844C58.4711 114.299 56.7693 109.241 52.6205 108.698C49.1126 108.237 49.2357 107.305 45.7247 106.847C42.2137 106.39 42.1158 107.157 38.6079 106.699C35.1001 106.238 35.1632 105.755 31.6522 105.297C28.1443 104.836 28.0654 105.43 24.5575 104.972C21.9874 104.634 21.3938 102.143 21.3938 100.116C21.3938 98.0888 22.1074 96.5196 24.6775 96.1817C28.1854 95.7208 28.1759 95.6418 31.6838 95.184C35.1916 94.7262 35.0843 93.8989 38.5921 93.438C42.1 92.977 42.1916 93.6685 45.6994 93.2075C49.2073 92.7465 49.1221 92.0771 52.6299 91.6161C56.7787 91.0731 57.928 86.6306 54.6065 84.0858C51.7995 81.9324 51.8343 81.8851 49.0273 79.7349C46.2204 77.5847 46.8172 76.8016 44.0102 74.6483C41.2002 72.495 41.1181 72.6023 38.3111 70.449C35.5011 68.2956 35.1222 68.7945 32.3121 66.6411C30.2535 65.0656 29.7735 62.1608 30.7871 60.4053C31.8006 58.6498 34.6864 57.3016 37.0797 58.2961C40.3477 59.6507 40.1645 60.0927 43.4324 61.4472C46.7003 62.8017 46.855 62.4292 50.123 63.7868C53.3909 65.1445 53.3719 65.195 56.6398 66.5496C59.9077 67.9041 59.8572 68.0335 63.1251 69.3881C66.9898 70.992 70.9681 67.32 69.3673 63.4553C68.0128 60.1874 68.0664 60.1653 66.7088 56.8974C65.3511 53.6295 64.7196 53.8916 63.3651 50.6237C62.0106 47.3558 62.6736 47.0779 61.3191 43.81C59.9646 40.5421 59.6583 40.6684 58.3038 37.3973C57.3092 35.004 58.1901 32.5065 59.9456 31.4898C61.7011 30.4763 64.3439 30.9341 65.9226 32.9896C68.0759 35.7965 67.9496 35.8944 70.0998 38.7045C72.2532 41.5146 72.4836 41.3346 74.637 44.1447C76.7903 46.9548 76.3515 47.2895 78.5048 50.0964C80.6581 52.9033 81.0339 52.616 83.1872 55.4261C85.7321 58.7476 90.6703 57.3458 91.2133 53.1969C91.6743 49.6891 91.6838 49.6891 92.1448 46.1812C92.6057 42.6733 92.7573 42.6923 93.2183 39.1844C93.6792 35.6765 93.7108 35.6797 94.3455 32.1971C94.9833 28.7019 95.239 28.7397 95.7 25.2319L95.7095 25.2224Z" stroke="#44607B" stroke-width="0.262064"/>
</svg>
