<svg width="1116" height="583" viewBox="0 0 1116 583" fill="none" xmlns="http://www.w3.org/2000/svg">
<g clip-path="url(#clip0_1476_29358)">
<path d="M2030.45 0.207031C2000.2 0.207031 1974.36 6.24276 1952.88 11.6875L1948.64 12.7666L1948.63 12.7695L1948.62 12.7715C1920.12 20.0727 1894.04 29.2897 1870.87 43.3945C1858.1 51.1602 1846.92 60.0919 1836.76 68.7383C1826.06 77.8588 1817.7 85.5632 1807.92 93.4941C1787.9 109.735 1768.95 125.097 1747.69 138.043C1730.08 148.762 1708.98 156.766 1683.75 163.389L1681.29 164.024L1681.29 164.026C1661.59 169.077 1638.47 170.799 1609.76 170.799C1581.48 170.799 1558.33 168.544 1538.39 163.429L1538.38 163.428C1511.65 156.577 1489.8 148.975 1471.84 138.03L1471.83 138.024L1471.83 138.019C1462.08 132.09 1453.09 124.799 1443.66 116.517C1434.71 108.66 1424.31 98.924 1413.99 90.5518C1394.11 74.4349 1372.95 57.6302 1348.92 42.9971L1348.91 42.9932C1326.43 29.3138 1300.89 18.3342 1271.44 10.7881V10.7891C1246.34 4.35252 1218.53 3.32032 1189.09 3.32031C1159.5 3.32031 1131.84 4.56146 1106.79 10.9805C1077 18.612 1051.87 30.2279 1029.7 43.7148L1027.49 45.0713C1004.64 59.1309 983.865 74.4871 964.134 90.4883C953.824 98.849 943.422 108.563 934.47 116.408C925.035 124.675 916.035 131.967 906.27 137.915C887.981 149.043 867.05 158.349 842.696 164.812L840.329 165.429L840.319 165.431L840.31 165.434C820.421 170.534 796.798 172.718 768.423 172.718C740.808 172.718 717.318 169.489 696.812 164.255C671.231 157.699 649.697 148.565 631.003 137.19L630.998 137.188C609.724 124.251 590.786 109.008 570.814 92.8115C551.34 77.0183 530.564 59.6832 506.387 44.959L506.38 44.9541C483.901 31.2764 458.981 20.5543 429.529 13.0078V13.0068C407.031 7.23686 379.935 0.697266 347.753 0.697266C317.604 0.697283 291.087 4.3339 267.656 10.1318L265.398 10.7002L265.392 10.7012L265.385 10.7031C235.527 18.353 210.392 30.1664 188.301 43.6289C163.973 58.4224 142.943 77.9555 124.649 92.791C105.744 108.123 85.4749 121.883 63.3574 135.332L63.3525 135.336C42.5921 147.968 23.0565 159.534 -0.960938 165.688L-0.96582 165.689C-20.6468 170.737 -44.1626 172.462 -72.916 172.462C-100.261 172.462 -123.535 168.796 -144.31 163.488C-168.801 157.217 -188.773 146.668 -208.694 134.547L-208.7 134.543C-230.227 121.453 -249.562 106.871 -269.084 91.0566C-289.203 74.7583 -310.389 58.471 -334.291 43.9141L-334.299 43.9092C-356.701 30.2781 -381.909 19.2337 -411.469 11.665V11.6641C-435.234 5.56933 -462.266 1.25195 -493.607 1.25195C-525.379 1.25196 -552.295 6.58451 -575.524 12.5361L-578.262 13.249C-606.425 20.7048 -630.78 30.9888 -652.677 44.3115L-654.904 45.6758C-677.848 59.8167 -698.393 75.4012 -717.981 91.2695C-739.82 108.961 -755.654 124.695 -776.724 137.507L-776.729 137.511C-794.552 148.355 -815.467 156.742 -840.388 163.31L-842.812 163.939L-842.817 163.94C-862.844 169.077 -886.133 171.503 -914.299 171.503V214.146C-883.831 214.146 -856.758 211.539 -832.224 205.247V205.246C-803.294 197.834 -777.443 187.861 -754.563 173.939V173.938C-730.263 159.161 -709.043 138.907 -691.14 124.404C-671.617 108.589 -652.047 93.8372 -630.521 80.7471L-630.516 80.7441C-611.842 69.3816 -590.585 60.4101 -564.948 53.8467L-564.944 53.8457C-543.571 48.3695 -520.468 43.8945 -493.607 43.8945C-466.315 43.8945 -442.859 47.6363 -422.062 52.9697L-422.054 52.9717C-396.651 59.475 -375.338 68.8549 -356.465 80.3389L-356.464 80.3379C-334.997 93.4122 -315.547 108.297 -295.926 124.191C-275.707 140.57 -254.702 156.476 -230.859 170.975L-230.86 170.976C-209.506 183.969 -185.346 197 -154.876 204.801L-154.866 204.804C-131.08 210.881 -104.247 215.104 -72.916 215.104C-42.9936 215.104 -15.2533 213.376 9.62695 206.995V206.994C40.5309 199.075 65.0021 184.248 85.5186 171.765V171.764C108.77 157.624 130.716 142.773 151.509 125.911C172.915 108.551 189.412 92.8607 210.456 80.0645L210.466 80.0586L210.475 80.0527C229.654 68.3631 250.903 58.4347 275.955 52.0146C296.535 46.7565 320.241 43.3399 347.753 43.3398C374.204 43.3398 396.874 48.6552 418.937 54.3135L418.94 54.3145C444.41 60.84 465.416 69.9457 484.214 81.3838C505.406 94.291 523.732 109.533 543.955 125.933C563.682 141.931 584.743 158.966 608.838 173.618L608.837 173.619C631.416 187.358 656.911 198.051 686.246 205.567L686.256 205.57L686.265 205.572C710.362 211.723 737.404 215.36 768.423 215.36C798.681 215.36 826.229 213.067 850.902 206.739V206.738C880.449 199.189 906.04 187.972 928.436 174.345L928.442 174.34C941.36 166.473 952.538 157.274 962.573 148.48C973.092 139.263 981.453 131.345 990.993 123.608C1010.33 107.931 1030.21 93.3131 1051.86 80.1494L1051.86 80.1465C1070.98 68.5182 1092.24 58.7291 1117.37 52.2891C1136.92 47.2799 1160.05 45.9629 1189.09 45.9629C1218.29 45.9629 1241.39 47.1052 1260.85 52.0957L1260.86 52.0967C1286.33 58.6227 1307.95 67.9847 1326.75 79.4219C1348.09 92.4202 1367.3 107.596 1387.13 123.673C1396.65 131.398 1405.01 139.326 1415.52 148.559C1425.54 157.361 1436.72 166.577 1449.65 174.441L1449.65 174.442C1472.97 188.656 1499.61 197.513 1527.79 204.734C1552.41 211.047 1579.41 213.441 1609.76 213.441C1639.69 213.441 1667.01 211.709 1691.88 205.332V205.331C1720.47 198.005 1746.77 188.523 1769.86 174.473L1769.87 174.468C1793.98 159.783 1815.11 142.566 1834.78 126.614C1844.85 118.448 1855.46 108.83 1864.41 101.202C1873.93 93.1007 1883.11 85.8593 1893.03 79.8301L1893.04 79.8232C1911.18 68.7754 1932.77 60.8536 1959.18 54.085L1963.37 53.0205C1984.33 47.7205 2005.74 42.8496 2030.45 42.8496V0.207031Z" fill="white"/>
<path d="M2030.45 91.9951C2000.2 91.9951 1974.36 98.0308 1952.88 103.476L1948.64 104.555L1948.63 104.558L1948.62 104.56C1920.12 111.861 1894.04 121.078 1870.87 135.183C1858.1 142.948 1846.92 151.88 1836.76 160.526C1826.06 169.647 1817.7 177.351 1807.92 185.282C1787.9 201.523 1768.95 216.885 1747.69 229.831C1730.08 240.55 1708.98 248.554 1683.75 255.177L1681.29 255.812L1681.29 255.814C1661.59 260.865 1638.47 262.587 1609.76 262.587C1581.48 262.587 1558.33 260.332 1538.39 255.217L1538.38 255.216C1511.65 248.366 1489.8 240.763 1471.84 229.818L1471.83 229.812L1471.83 229.807C1462.08 223.878 1453.09 216.587 1443.66 208.305C1434.71 200.448 1424.31 190.712 1413.99 182.34C1394.11 166.223 1372.95 149.418 1348.92 134.785L1348.91 134.781C1326.43 121.102 1300.89 110.122 1271.44 102.576V102.577C1246.34 96.1406 1218.53 95.1084 1189.09 95.1084C1159.5 95.1084 1131.84 96.3495 1106.79 102.769C1077 110.4 1051.87 122.016 1029.7 135.503L1027.49 136.859C1004.64 150.919 983.865 166.275 964.134 182.276C953.824 190.637 943.422 200.351 934.47 208.196C925.035 216.463 916.035 223.755 906.27 229.703C887.982 240.831 867.05 250.138 842.696 256.6L840.329 257.217L840.319 257.219L840.31 257.222C820.421 262.322 796.798 264.506 768.423 264.506C740.808 264.506 717.318 261.277 696.812 256.043C671.231 249.487 649.697 240.353 631.003 228.979L630.998 228.976C609.724 216.039 590.786 200.796 570.814 184.6C551.34 168.806 530.564 151.471 506.387 136.747L506.38 136.742C483.901 123.064 458.981 112.342 429.529 104.796V104.795C407.031 99.0249 379.935 92.4854 347.753 92.4854C317.604 92.4854 291.087 96.122 267.656 101.92L265.398 102.488L265.392 102.489L265.385 102.491C235.527 110.141 210.392 121.954 188.301 135.417C163.973 150.211 142.943 169.744 124.649 184.579C105.744 199.911 85.4749 213.671 63.3574 227.12L63.3525 227.124C42.5921 239.756 23.0565 251.322 -0.960938 257.476L-0.96582 257.478C-20.6468 262.525 -44.1626 264.25 -72.916 264.25C-100.261 264.25 -123.535 260.584 -144.31 255.276C-168.801 249.005 -188.773 238.456 -208.694 226.335L-208.7 226.331C-230.227 213.241 -249.562 198.66 -269.084 182.845C-289.203 166.546 -310.389 150.259 -334.291 135.702L-334.299 135.697C-356.701 122.066 -381.909 111.022 -411.469 103.453V103.452C-435.234 97.3574 -462.266 93.04 -493.607 93.04C-525.379 93.04 -552.295 98.3726 -575.524 104.324L-578.262 105.037C-606.425 112.493 -630.78 122.777 -652.677 136.1L-654.904 137.464C-677.848 151.605 -698.393 167.189 -717.981 183.058C-739.82 200.749 -755.654 216.483 -776.724 229.295L-776.729 229.298C-794.552 240.142 -815.467 248.53 -840.388 255.098L-842.812 255.728L-842.817 255.729C-862.844 260.865 -886.133 263.291 -914.299 263.291V305.934C-883.831 305.934 -856.758 303.327 -832.224 297.035V297.034C-803.294 289.622 -777.443 279.649 -754.563 265.728V265.727C-730.263 250.949 -709.043 230.695 -691.14 216.192C-671.617 200.377 -652.047 185.625 -630.521 172.535L-630.516 172.532C-611.842 161.17 -590.585 152.198 -564.948 145.635L-564.944 145.634C-543.571 140.158 -520.468 135.683 -493.607 135.683C-466.315 135.683 -442.859 139.424 -422.062 144.758L-422.054 144.76C-396.651 151.263 -375.338 160.643 -356.465 172.127L-356.464 172.126C-334.997 185.2 -315.547 200.085 -295.926 215.979C-275.707 232.359 -254.702 248.264 -230.859 262.763L-230.86 262.764C-209.506 275.757 -185.346 288.788 -154.876 296.589L-154.866 296.592C-131.08 302.669 -104.247 306.893 -72.916 306.893C-42.9937 306.893 -15.2533 305.164 9.62695 298.783V298.782C40.5309 290.863 65.0021 276.036 85.5186 263.553V263.552C108.77 249.412 130.716 234.561 151.509 217.699C172.915 200.34 189.412 184.649 210.456 171.853L210.466 171.847L210.475 171.841C229.654 160.151 250.903 150.223 275.955 143.803C296.535 138.545 320.241 135.128 347.753 135.128C374.204 135.128 396.874 140.443 418.937 146.102L418.94 146.103C444.41 152.628 465.416 161.734 484.214 173.172C505.406 186.079 523.732 201.321 543.955 217.721C563.682 233.719 584.743 250.754 608.838 265.406L608.837 265.407C631.417 279.146 656.911 289.839 686.246 297.355L686.256 297.358L686.265 297.36C710.362 303.511 737.404 307.148 768.423 307.148C798.681 307.148 826.229 304.855 850.902 298.527V298.526C880.449 290.977 906.04 279.76 928.436 266.133L928.442 266.128C941.36 258.261 952.538 249.062 962.573 240.269C973.092 231.051 981.453 223.133 990.993 215.396C1010.33 199.719 1030.21 185.101 1051.86 171.938L1051.86 171.935C1070.98 160.306 1092.24 150.517 1117.37 144.077C1136.92 139.068 1160.05 137.751 1189.09 137.751C1218.29 137.751 1241.39 138.893 1260.85 143.884L1260.86 143.885C1286.33 150.411 1307.95 159.773 1326.75 171.21C1348.09 184.208 1367.3 199.384 1387.13 215.461C1396.65 223.186 1405.01 231.115 1415.52 240.347C1425.54 249.149 1436.72 258.366 1449.65 266.229L1449.65 266.23C1472.97 280.444 1499.61 289.301 1527.79 296.522C1552.41 302.835 1579.41 305.229 1609.76 305.229C1639.69 305.229 1667.01 303.497 1691.88 297.12V297.119C1720.47 289.793 1746.77 280.311 1769.86 266.261L1769.87 266.256C1793.98 251.571 1815.11 234.354 1834.78 218.402C1844.85 210.236 1855.46 200.618 1864.41 192.99C1873.93 184.889 1883.11 177.647 1893.03 171.618L1893.04 171.611C1911.18 160.563 1932.77 152.642 1959.18 145.873L1963.37 144.809C1984.33 139.509 2005.74 134.638 2030.45 134.638V91.9951Z" fill="white"/>
<path d="M2030.45 275.551C2000.2 275.551 1974.36 281.587 1952.88 287.031L1948.64 288.11L1948.63 288.113L1948.62 288.115C1920.12 295.416 1894.04 304.633 1870.87 318.738C1858.1 326.504 1846.92 335.436 1836.76 344.082C1826.06 353.203 1817.7 360.907 1807.92 368.838C1787.9 385.079 1768.95 400.44 1747.69 413.387C1730.08 424.106 1708.98 432.11 1683.75 438.732L1681.29 439.368L1681.29 439.37C1661.59 444.421 1638.47 446.143 1609.76 446.143C1581.48 446.143 1558.33 443.888 1538.39 438.772L1538.38 438.771C1511.65 431.921 1489.8 424.319 1471.84 413.374L1471.83 413.368L1471.83 413.362C1462.08 407.434 1453.09 400.143 1443.66 391.86C1434.71 384.004 1424.31 374.268 1413.99 365.896C1394.11 349.779 1372.95 332.974 1348.92 318.341L1348.91 318.337C1326.43 304.658 1300.89 293.678 1271.44 286.132V286.133C1246.34 279.696 1218.53 278.664 1189.09 278.664C1159.5 278.664 1131.84 279.905 1106.79 286.324L1104.01 287.052C1075.43 294.684 1051.18 305.993 1029.7 319.059L1027.49 320.415C1004.64 334.475 983.865 349.831 964.134 365.832C953.824 374.193 943.422 383.907 934.47 391.752C925.035 400.019 916.035 407.311 906.27 413.259C887.981 424.387 867.05 433.693 842.696 440.155L840.329 440.772L840.319 440.774L840.31 440.777C820.421 445.878 796.798 448.062 768.423 448.062C740.808 448.062 717.318 444.833 696.812 439.599C671.231 433.043 649.697 423.909 631.003 412.534L630.998 412.531C609.724 399.595 590.786 384.351 570.814 368.155C551.34 352.362 530.564 335.027 506.387 320.303L506.38 320.298C483.901 306.62 458.981 295.898 429.529 288.352V288.351C407.031 282.581 379.935 276.041 347.753 276.041C317.604 276.041 291.087 279.678 267.656 285.476L265.398 286.044L265.392 286.045L265.385 286.047C235.527 293.697 210.392 305.51 188.301 318.973C163.973 333.766 142.943 353.299 124.649 368.135C105.744 383.466 85.4749 397.227 63.3574 410.676L63.3525 410.68C42.5921 423.312 23.0565 434.878 -0.960938 441.031L-0.96582 441.033C-20.6468 446.081 -44.1626 447.806 -72.916 447.806C-100.261 447.806 -123.535 444.14 -144.31 438.832C-168.801 432.56 -188.773 422.012 -208.694 409.891L-208.7 409.887C-230.227 396.797 -249.562 382.215 -269.084 366.4C-289.203 350.102 -310.389 333.815 -334.291 319.258L-334.299 319.253C-356.701 305.622 -381.909 294.577 -411.469 287.009V287.008C-435.234 280.913 -462.266 276.596 -493.607 276.596C-525.379 276.596 -552.295 281.928 -575.524 287.88L-578.262 288.593C-606.425 296.049 -630.78 306.333 -652.677 319.655L-654.904 321.02C-677.848 335.16 -698.393 350.745 -717.981 366.613C-739.82 384.304 -755.654 400.039 -776.724 412.851L-776.729 412.854C-794.552 423.699 -815.467 432.085 -840.388 438.653L-842.812 439.283L-842.817 439.284C-862.844 444.42 -886.133 446.847 -914.299 446.847V489.489C-883.831 489.489 -856.758 486.883 -832.224 480.591V480.59C-803.294 473.177 -777.443 463.204 -754.563 449.283V449.282C-730.263 434.505 -709.043 414.251 -691.14 399.748C-671.617 383.933 -652.047 369.181 -630.521 356.091L-630.516 356.088C-611.842 344.725 -590.585 335.754 -564.948 329.19L-564.944 329.189C-543.571 323.713 -520.468 319.238 -493.607 319.238C-466.315 319.238 -442.859 322.98 -422.062 328.313L-422.054 328.315C-396.651 334.819 -375.338 344.199 -356.465 355.683L-356.464 355.682C-334.997 368.756 -315.547 383.64 -295.926 399.535C-275.707 415.914 -254.702 431.819 -230.859 446.318L-230.86 446.319C-209.506 459.313 -185.346 472.344 -154.876 480.145L-154.866 480.147C-131.08 486.225 -104.247 490.448 -72.916 490.448C-42.9937 490.448 -15.2533 488.72 9.62695 482.339V482.338C40.5309 474.419 65.0021 459.592 85.5186 447.108V447.107C108.77 432.968 130.716 418.117 151.509 401.255C172.915 383.895 189.412 368.204 210.456 355.408L210.466 355.402L210.475 355.396C229.654 343.707 250.903 333.778 275.955 327.358C296.535 322.1 320.241 318.684 347.753 318.684C374.204 318.684 396.874 323.999 418.937 329.657L418.94 329.658C444.41 336.184 465.416 345.289 484.214 356.728C505.406 369.635 523.732 384.876 543.955 401.276C563.682 417.274 584.743 434.309 608.838 448.962L608.837 448.963C631.416 462.702 656.911 473.395 686.246 480.911L686.256 480.914L686.265 480.916C710.362 487.067 737.404 490.704 768.423 490.704C798.681 490.704 826.229 488.411 850.902 482.083V482.082C880.449 474.533 906.04 463.315 928.436 449.688L928.442 449.684C941.36 441.816 952.538 432.618 962.573 423.824C973.092 414.607 981.453 406.689 990.993 398.952C1010.33 383.274 1030.21 368.657 1051.86 355.493L1051.86 355.49C1070.97 343.862 1092.24 334.073 1117.37 327.633C1136.92 322.624 1160.05 321.307 1189.09 321.307C1218.29 321.307 1241.39 322.449 1260.85 327.439L1260.86 327.44C1286.33 333.966 1307.95 343.328 1326.75 354.766C1348.09 367.764 1367.3 382.94 1387.13 399.017C1396.65 406.742 1405.01 414.67 1415.52 423.902C1425.54 432.705 1436.72 441.921 1449.65 449.785L1449.65 449.786C1472.97 464 1499.61 472.857 1527.79 480.078C1552.41 486.391 1579.41 488.785 1609.76 488.785C1639.69 488.785 1667.01 487.053 1691.88 480.676V480.675C1720.47 473.348 1746.77 463.867 1769.86 449.816L1769.87 449.812C1793.98 435.127 1815.11 417.91 1834.78 401.958C1844.85 393.791 1855.46 384.173 1864.41 376.546C1873.93 368.444 1883.11 361.203 1893.03 355.174L1893.04 355.167C1911.18 344.119 1932.77 336.197 1959.18 329.429L1963.37 328.364C1984.33 323.064 2005.74 318.193 2030.45 318.193V275.551Z" fill="white"/>
<path d="M-493.607 367.211C-524.948 367.211 -551.981 371.528 -575.746 377.623L-575.745 377.624C-606.13 385.404 -630.526 398.296 -651.994 411.358L-656.311 413.996C-677.84 427.225 -698.582 441.065 -718.182 456.959C-737.872 472.927 -756.944 487.724 -778.357 500.766H-778.356C-799.423 513.584 -817.905 525.459 -841.147 531.635L-842.258 531.924L-842.263 531.926C-861.603 536.886 -884.783 537.696 -914.277 537.696V580.339C-885.138 580.339 -856.891 579.7 -831.669 573.231V573.23C-800.517 565.248 -776.057 549.283 -756.184 537.19L-756.177 537.187C-732.219 522.596 -711.334 506.307 -691.323 490.079C-672.529 474.838 -652.136 461.352 -629.839 447.793L-629.834 447.79C-610.027 435.738 -589.737 425.223 -565.161 418.932L-565.152 418.929C-544.356 413.595 -520.9 409.854 -493.607 409.854C-466.687 409.854 -443.516 414.222 -422.254 419.675L-422.249 419.677C-397.379 426.049 -376.825 436.028 -357.424 447.833L-357.419 447.836C-336.012 460.853 -316.881 475.69 -297.192 491.657C-277.182 507.885 -256.057 524.348 -232.092 538.921L-232.089 538.923C-210.099 552.289 -185.188 564.274 -155.198 571.952L-155.199 571.953C-130.302 578.332 -102.821 580.04 -72.916 580.04C-41.7303 580.04 -15.0698 576.107 8.85938 569.97V569.969C38.4093 562.397 63.2109 551.498 85.6035 537.873V537.872C109.173 523.539 130.679 508.159 151.211 491.508C172.006 474.644 189.532 459.072 210.605 446.258L210.616 446.252C230.474 434.161 251.223 423.382 275.755 417.097L275.76 417.096C295.591 412.01 319.264 409.938 347.753 409.938C374.942 409.938 398.272 413.879 419.213 419.249L419.218 419.25C445.503 425.985 467.283 434.172 485.493 445.253L485.498 445.256C506.623 458.102 521.533 473.846 543.891 491.977C565.001 509.097 587.848 523.185 610.444 536.926C631.641 549.845 655.817 563.227 686.37 571.056C711.209 577.426 738.445 579.23 768.423 579.23C797.765 579.23 825.544 578.335 850.685 571.889V571.89C880.768 564.182 905.571 551.93 927.412 538.641L927.419 538.636L927.427 538.631C951.059 524.225 972.52 508.591 992.955 492.02C1014.16 474.821 1030.96 459.183 1052.01 446.386V446.385C1070.28 435.28 1091.7 427.144 1117.91 420.428L1119.92 419.918C1140.76 414.684 1163.09 410.472 1189.09 410.472C1216.21 410.472 1239.38 414.48 1260.38 419.867L1260.39 419.868C1287.37 426.782 1309.2 434.054 1327.05 444.912L1327.05 444.915C1348.18 457.764 1363.07 473.54 1385.46 491.699C1405.68 508.093 1426.92 524.147 1450.76 538.644L1450.76 538.643C1473.07 552.24 1498.08 563.443 1527.71 571.036C1550.79 576.948 1577.87 582.577 1609.76 582.577C1640.45 582.577 1668 579.549 1692.38 573.297C1722.85 565.497 1747.71 552.149 1769.07 539.152V539.151C1793.38 524.366 1814.49 504.314 1832.46 489.738C1851.65 474.18 1871.69 459.801 1893.48 446.557L1893.48 446.554C1911.92 435.332 1933.3 426.788 1959.22 420.146L1959.23 420.145C1980.09 414.795 2003.22 411.005 2030.45 411.005V368.362C1999.06 368.362 1972.34 372.76 1948.64 378.838C1919.65 386.266 1894.16 396.228 1871.32 410.121H1871.32C1847.73 424.466 1826.12 439.981 1805.6 456.617C1784.55 473.685 1768.97 488.935 1748.87 501.512L1746.91 502.72L1746.91 502.724C1727.3 514.654 1706.95 525.375 1682.95 531.689L1681.81 531.987L1681.8 531.989C1661.62 537.164 1637.74 539.935 1609.76 539.935C1582.98 539.935 1559.83 535.244 1538.3 529.729C1513.02 523.251 1491.89 513.776 1472.93 502.22L1472.92 502.214L1472.91 502.208C1451.38 489.115 1431.81 474.381 1412.32 458.579C1395.29 444.762 1374.12 423.885 1350.34 409.176L1349.21 408.479C1325.77 394.223 1298.91 385.717 1270.97 378.56V378.561C1247.42 372.52 1220.61 367.829 1189.09 367.829C1158.29 367.829 1132.22 372.862 1109.54 378.557L1107.36 379.109L1107.35 379.112L1107.34 379.114C1079.09 386.354 1053.71 395.646 1030.94 409.296L1029.86 409.949L1029.85 409.951C1005.53 424.744 984.588 443.903 966.096 458.899C946.831 474.522 926.93 488.994 905.233 502.22C886.408 513.674 866.238 523.581 842.418 529.974L840.101 530.581L840.096 530.582C820.676 535.562 797.712 536.588 768.423 536.588C739.767 536.588 716.685 534.809 696.963 529.751L696.958 529.749C672.589 523.505 652.717 512.753 632.637 500.514L632.628 500.509L632.618 500.503C609.848 486.657 589.334 473.927 570.75 458.856C553.407 444.792 531.901 423.565 507.654 408.821C484.588 394.787 458.439 385.278 429.802 377.941V377.942C406.182 371.885 379.238 367.296 347.753 367.296C317.566 367.296 289.897 369.447 265.167 375.789L265.168 375.79C234.783 383.576 209.908 396.758 188.449 409.823L186.182 411.219C162.848 425.749 142.666 443.536 124.352 458.388C105.784 473.445 86.4886 487.293 65.4814 500.195L63.4424 501.44L63.4375 501.444C44.5534 512.935 23.643 522.162 -1.72852 528.662L-1.7334 528.663C-22.3654 533.954 -45.4687 537.397 -72.916 537.397C-101.645 537.397 -124.909 535.694 -144.616 530.645L-144.62 530.644C-169.595 524.25 -190.61 514.233 -209.939 502.483C-231.345 489.467 -250.644 474.503 -270.333 458.536C-289.719 442.815 -309.99 426.995 -333.025 412.772L-335.264 411.4C-357.137 398.091 -381.611 386.07 -411.66 378.37C-434.96 372.395 -461.894 367.211 -493.607 367.211Z" fill="white"/>
<path d="M2030.45 183.016C1998.33 183.016 1971.19 189.376 1948.59 195.151L1948.58 195.152L1948.58 195.154C1919.54 202.593 1894.02 212.648 1871.21 226.527H1871.21C1846.89 241.318 1825.97 260.361 1807.41 275.408C1788.7 290.584 1768.27 303.807 1745.82 317.484L1741.89 319.872C1722.69 331.54 1704.75 342.08 1682.86 347.886L1681.74 348.177L1681.73 348.178C1661.47 353.375 1637.66 356.294 1609.8 356.294C1582.35 356.294 1558.69 352.786 1538.02 347.511C1513.96 341.343 1494.47 329.975 1473.85 317.407L1473.83 317.395C1451.14 303.595 1430.61 290.735 1412 275.642C1394.01 261.047 1372.89 241.015 1348.57 226.228C1326.62 212.868 1301.55 200.767 1271.54 193.084V193.085C1246.66 186.705 1219.02 184.999 1189.11 184.999C1158.56 184.999 1131.42 187.723 1106.92 194.002L1105.52 194.366C1076.2 202.046 1051.77 213.771 1030.09 226.948L1030.09 226.95C1006.25 241.446 985.01 257.501 964.795 273.894C945.366 289.65 925.905 304.194 904.351 317.334L902.503 318.453C884.012 329.582 864.947 339.164 842.1 345.314L839.803 345.917L839.798 345.918C818.733 351.321 795.533 355.42 768.444 355.42C740.25 355.42 716.642 352.972 696.596 347.836C672.158 341.575 651.755 330.731 631.741 318.566C610.688 305.764 593.637 290.228 572.627 273.19C552.091 256.536 530.46 241.072 506.898 226.723L506.892 226.718C484.681 213.204 459.655 201.753 429.913 194.154V194.153C405.404 187.867 378.256 185.191 347.753 185.191C318.34 185.191 290.332 186.2 265.229 192.614L265.222 192.615L265.215 192.617C236.571 199.956 211.622 210.779 189.73 223.824L187.621 225.093L187.618 225.095C163.297 239.884 142.054 259.927 123.989 274.577C103.614 291.1 86.8321 306.34 66.6631 318.916L64.7012 320.125L64.6953 320.127L62.9639 321.167C45.5488 331.489 25.1617 339.496 1.0127 345.839L-1.41504 346.467L-1.43457 346.473C-23.1454 352.041 -46.2811 356.999 -72.9375 356.999C-99.9674 356.999 -123.514 352.747 -144.662 347.344C-169.812 340.905 -191.054 331.118 -210.195 319.483C-231.262 306.672 -248.722 291.074 -269.565 274.171C-289.123 258.311 -310.08 241.001 -334.239 226.31C-355.623 213.299 -380.536 199.988 -410.979 192.193V192.192C-436.169 185.732 -464.407 184.978 -493.649 184.978C-525.177 184.978 -551.83 189.622 -575.417 195.665L-578.036 196.34C-605.053 203.361 -630.813 211.735 -653.528 225.564C-677.83 240.342 -698.845 258.955 -717.713 274.256C-738.439 291.064 -756.089 306.623 -777.154 319.445C-795.524 330.622 -817.012 339.055 -843.046 345.725L-843.051 345.726C-865.131 351.389 -887.898 356.743 -914.341 356.743V399.385C-882.15 399.385 -854.939 392.798 -832.458 387.033V387.032C-803.57 379.63 -777.896 369.813 -754.989 355.875L-754.987 355.873C-730.725 341.105 -709.827 322.764 -690.854 307.377C-670.021 290.484 -652.443 274.812 -631.373 262L-631.363 261.993C-613.494 251.112 -591.832 243.885 -564.841 236.975L-564.837 236.974C-543.821 231.589 -520.796 227.621 -493.649 227.621C-464.216 227.621 -440.942 228.53 -421.571 233.498L-421.562 233.5C-397.045 239.776 -376.291 250.64 -356.4 262.743L-356.396 262.746C-335.183 275.645 -316.567 290.957 -296.425 307.292C-277.569 322.583 -256.651 341.141 -232.348 355.919L-232.345 355.921C-210.166 369.403 -185.054 381.021 -155.238 388.655L-155.229 388.658C-131.818 394.639 -104.58 399.641 -72.9375 399.641C-40.9178 399.641 -13.6924 393.639 9.1582 387.779V387.778C38.0464 380.397 63.9542 370.494 86.8613 356.556V356.555C111.178 341.768 132.182 322.834 150.849 307.697C172.483 290.152 188.721 274.333 209.771 261.533L211.554 260.459C230.056 249.433 251.227 240.221 275.784 233.928V233.929C295.242 228.958 318.533 227.834 347.753 227.833C375.883 227.833 399.268 230.317 419.32 235.459L419.33 235.461L419.34 235.464C444.513 241.894 465.663 251.549 484.726 263.148L484.727 263.147C506.534 276.429 526.606 290.771 545.768 306.311C564.457 321.467 585.271 340.216 609.589 355.003L609.592 355.005C630.898 367.956 655.526 381.333 686.012 389.144C710.57 395.436 737.962 398.063 768.444 398.063C800.032 398.063 826.894 393.25 850.391 387.224V387.223C880.669 379.465 904.926 366.9 926.517 353.763L926.523 353.758L926.531 353.754C950.3 339.265 971.388 323.449 991.654 307.014C1011.14 291.213 1030.71 276.48 1052.24 263.387C1071.54 251.657 1092.52 241.712 1117.5 235.311C1137.6 230.162 1160.99 227.642 1189.11 227.642C1217.88 227.642 1241.28 229.347 1260.96 234.393L1260.97 234.395C1285.92 240.785 1307.08 250.901 1326.41 262.658L1326.41 262.661C1347.47 275.463 1363.44 291.165 1385.14 308.763C1406.23 325.866 1429 340.04 1451.67 353.831L1451.67 353.83C1472.32 366.415 1496.62 380.922 1527.46 388.825L1527.47 388.827L1527.48 388.83C1551.41 394.94 1578.62 398.937 1609.8 398.937C1640.58 398.937 1668.03 395.715 1692.32 389.485V389.486C1723.35 381.537 1747.75 366.223 1767.98 353.913L1767.99 353.908C1790.9 339.954 1813.29 325.545 1834.27 308.528C1855.42 291.381 1872.32 275.757 1893.37 262.958L1893.37 262.956C1911.84 251.719 1933.26 243.098 1959.15 236.465C1981.1 230.855 2003.94 225.659 2030.45 225.659V183.016Z" fill="white"/>
</g>
<defs>
<clipPath id="clip0_1476_29358">
<rect width="1114.29" height="582.589" fill="white" transform="matrix(-1 0 0 1 1115.23 0.253906)"/>
</clipPath>
</defs>
</svg>
