<svg width="1887" height="374" viewBox="0 0 1887 374" fill="none" xmlns="http://www.w3.org/2000/svg">
<g clip-path="url(#clip0_1476_29236)">
<path d="M0.796875 0.236816C21.4644 0.236816 38.9156 4.63501 53.1982 8.28076L53.21 8.28369C71.4642 12.9606 88.17 18.8647 103.011 27.9009H103.01C111.187 32.8738 118.349 38.5919 124.85 44.1284C131.708 49.9698 137.057 54.9043 143.32 59.9839C156.147 70.386 168.282 80.2252 181.896 88.5171L182.995 89.1763C194.422 95.9304 208.091 100.972 224.426 105.158H224.429C237.043 108.393 251.853 109.496 270.238 109.496C288.354 109.496 303.177 108.052 315.952 104.776L315.955 104.775C333.079 100.387 347.07 95.5181 358.571 88.5083L358.577 88.5044L358.583 88.5015C364.827 84.7045 370.583 80.0345 376.624 74.73C382.354 69.698 389.015 63.4623 395.627 58.1001C408.356 47.7777 421.912 37.0142 437.301 27.6421L437.306 27.6392C451.704 18.878 468.061 11.8462 486.925 7.01318V7.01416C503.001 2.89165 520.813 2.22998 539.666 2.22998C558.618 2.22998 576.334 3.02502 592.38 7.13623C611.458 12.0244 627.556 19.4652 641.754 28.104H641.753C656.946 37.3431 670.702 47.4808 683.746 58.0591C690.349 63.414 697.011 69.6361 702.745 74.6606C708.788 79.9554 714.552 84.6255 720.807 88.4351L721.945 89.1206C733.387 95.9443 746.428 101.656 761.523 105.662L763.04 106.056L763.053 106.059C775.791 109.326 790.92 110.725 809.094 110.725C826.78 110.725 841.825 108.657 854.959 105.304C871.342 101.105 885.135 95.2554 897.107 87.9702L897.111 87.9683C910.737 79.6828 922.866 69.9204 935.657 59.5474C948.13 49.4323 961.436 38.3294 976.921 28.8989L976.926 28.896C991.323 20.1358 1007.28 13.2683 1026.15 8.43506V8.43408C1040.56 4.73859 1057.91 0.55031 1078.52 0.550293C1097.83 0.550293 1114.81 2.87984 1129.82 6.59326L1131.27 6.95654L1131.28 6.9585C1150.41 11.8595 1166.51 19.4287 1180.66 28.0542H1180.66C1196.23 37.5282 1209.7 50.0343 1221.41 59.5337C1232.76 68.7395 1244.88 77.0607 1258.03 85.1626L1260.67 86.7808L1260.67 86.7827C1273.55 94.6204 1285.7 101.818 1300.43 105.843L1301.86 106.222L1301.87 106.223C1314.47 109.456 1329.53 110.561 1347.95 110.561C1365.46 110.561 1380.36 108.214 1393.67 104.815L1395.13 104.431C1410.16 100.376 1422.55 93.7988 1434.91 86.2769L1434.92 86.2749C1448.7 77.8911 1461.09 68.5524 1473.59 58.4233C1486.48 47.9847 1500.04 37.5533 1515.35 28.23L1515.36 28.2271C1529.71 19.4958 1545.85 12.4204 1564.79 7.57275V7.57373C1580.01 3.67099 1597.32 0.905762 1617.39 0.905762C1637.74 0.905762 1654.98 4.32151 1669.86 8.1333C1688.64 12.942 1704.79 19.6758 1719.27 28.4839L1720.7 29.3579C1735.39 38.4148 1748.55 48.3968 1761.1 58.5601C1774.65 69.5366 1784.59 79.337 1797.46 87.3989L1798.72 88.1733L1798.72 88.1753C1810.14 95.121 1823.53 100.493 1839.49 104.7L1841.05 105.103L1841.05 105.104C1853.88 108.394 1868.79 109.947 1886.83 109.947V137.258C1867.32 137.258 1849.98 135.588 1834.27 131.559V131.56C1815.74 126.813 1799.18 120.425 1784.53 111.509L1783.08 110.612C1768.12 101.237 1755.01 88.7809 1743.91 79.7817C1731.4 69.6527 1718.87 60.2037 1705.08 51.8198L1705.08 51.8179C1693.12 44.5405 1679.5 38.795 1663.08 34.5913L1663.08 34.5903C1649.39 31.083 1634.59 28.2173 1617.39 28.2173C1599.91 28.2173 1584.89 30.6138 1571.57 34.0298L1571.56 34.0308C1555.3 38.1954 1541.65 44.2004 1529.56 51.5542L1529.56 51.5552C1515.81 59.9296 1503.35 69.4636 1490.78 79.645C1477.83 90.136 1464.38 100.324 1449.11 109.611C1435.43 117.932 1419.96 126.278 1400.44 131.274L1400.44 131.275C1385.2 135.167 1368.02 137.873 1347.95 137.873C1328.79 137.873 1311.02 136.764 1295.08 132.678V132.679C1275.29 127.608 1259.62 118.112 1246.48 110.117L1243.7 108.413C1229.83 99.8657 1216.7 90.872 1204.21 80.7466C1190.5 69.6283 1179.93 59.5789 1166.46 51.3833L1166.45 51.3794L1166.44 51.3755C1154.16 43.8887 1140.55 37.5293 1124.51 33.4175V33.4185C1111.33 30.0507 1096.14 27.8618 1078.52 27.8618C1061.58 27.8618 1047.06 31.2662 1032.93 34.8901L1032.93 34.8911C1016.62 39.0701 1003.16 44.8996 991.126 52.2241C977.551 60.4914 965.813 70.2553 952.859 80.7603C940.225 91.0065 926.736 101.917 911.304 111.301L911.305 111.302C896.843 120.102 880.514 126.95 861.726 131.764L861.714 131.767C846.28 135.707 828.961 138.037 809.094 138.037C789.714 138.037 772.07 136.568 756.268 132.515V132.514C737.344 127.679 720.954 120.495 706.61 111.767L706.605 111.764C698.332 106.725 691.173 100.833 684.746 95.2017C678.009 89.2982 672.653 84.2271 666.543 79.272C654.161 69.2308 641.425 59.8689 627.561 51.438L627.557 51.436C615.317 43.9884 601.7 37.7179 585.602 33.5933C573.08 30.385 558.267 29.5415 539.666 29.5415C520.968 29.5415 506.17 30.273 493.707 33.4692L493.703 33.4702C477.392 37.6494 463.543 43.6434 451.506 50.9673L451.507 50.9683C437.836 59.2939 425.528 69.0153 412.83 79.313C406.729 84.2608 401.378 89.3384 394.645 95.2515C388.221 100.892 381.059 106.799 372.773 111.837L372.772 111.836C357.839 120.936 340.781 126.608 322.733 131.232L322.732 131.231C306.968 135.273 289.675 136.807 270.238 136.807C251.071 136.807 233.573 135.698 217.647 131.614V131.615C199.332 126.922 182.491 120.848 167.7 111.848L167.695 111.846C152.252 102.441 138.716 91.4136 126.117 81.1968C119.667 75.9663 112.876 69.8055 107.141 64.9204C101.049 59.7318 95.1646 55.0944 88.8145 51.2329L88.8076 51.229C77.1836 44.1514 63.3545 39.0765 46.4316 34.7407V34.7397C32.1504 31.0944 17.6778 27.5474 0.796875 27.5474V0.236816Z" fill="white"/>
<path d="M0.796875 59.0244C21.4644 59.0244 38.9156 63.4226 53.1982 67.0684L53.21 67.0713C71.4642 71.7482 88.17 77.6523 103.011 86.6885H103.01C111.187 91.6614 118.349 97.3795 124.85 102.916C131.708 108.757 137.057 113.692 143.32 118.771C156.147 129.174 168.282 139.013 181.896 147.305L182.995 147.964C194.422 154.718 208.091 159.76 224.426 163.945H224.429C237.043 167.18 251.853 168.283 270.238 168.283C288.354 168.283 303.177 166.84 315.952 163.563L315.955 163.562C333.079 159.175 347.07 154.306 358.571 147.296L358.577 147.292L358.583 147.289C364.827 143.492 370.583 138.822 376.624 133.518C382.354 128.486 389.015 122.25 395.627 116.888C408.356 106.565 421.912 95.8018 437.301 86.4297L437.306 86.4268C451.704 77.6656 468.061 70.6338 486.925 65.8008V65.8018C503.001 61.6793 520.813 61.0176 539.666 61.0176C558.618 61.0176 576.334 61.8126 592.38 65.9238C611.458 70.812 627.556 78.2528 641.754 86.8916H641.753C656.946 96.1307 670.702 106.268 683.746 116.847C690.349 122.202 697.011 128.424 702.745 133.448C708.788 138.743 714.552 143.413 720.807 147.223L721.945 147.908C733.387 154.732 746.428 160.444 761.523 164.449L763.04 164.844L763.053 164.847C775.791 168.113 790.92 169.513 809.094 169.513C826.78 169.513 841.825 167.444 854.959 164.092C871.342 159.893 885.135 154.043 897.107 146.758L897.111 146.756C910.737 138.47 922.866 128.708 935.657 118.335C948.13 108.22 961.436 97.117 976.921 87.6865L976.926 87.6836C991.323 78.9234 1007.28 72.0559 1026.15 67.2227V67.2217C1040.56 63.5262 1057.91 59.3379 1078.52 59.3379C1097.83 59.3379 1114.81 61.6674 1129.82 65.3809L1131.27 65.7441L1131.28 65.7461C1150.41 70.6471 1166.51 78.2163 1180.66 86.8418H1180.66C1196.23 96.3158 1209.7 108.822 1221.41 118.321C1232.76 127.527 1244.88 135.848 1258.03 143.95L1260.67 145.568L1260.67 145.57C1273.55 153.408 1285.7 160.606 1300.43 164.631L1301.86 165.01L1301.87 165.011C1314.47 168.243 1329.53 169.349 1347.95 169.349C1365.46 169.349 1380.36 167.001 1393.67 163.603L1395.13 163.219C1410.16 159.163 1422.55 152.586 1434.91 145.064L1434.92 145.062C1448.7 136.679 1461.09 127.34 1473.59 117.211C1486.48 106.772 1500.04 96.3409 1515.35 87.0176L1515.36 87.0146C1529.71 78.2834 1545.85 71.2079 1564.79 66.3604V66.3613C1580.01 62.4586 1597.32 59.6934 1617.39 59.6934C1637.74 59.6934 1654.98 63.1091 1669.86 66.9209C1688.64 71.7296 1704.79 78.4634 1719.27 87.2715L1720.7 88.1455C1735.39 97.2024 1748.55 107.184 1761.1 117.348C1774.65 128.324 1784.59 138.125 1797.46 146.187L1798.72 146.961L1798.72 146.963C1810.14 153.909 1823.53 159.281 1839.49 163.487L1841.05 163.891L1841.05 163.892C1853.88 167.181 1868.79 168.734 1886.83 168.734V196.046C1867.32 196.046 1849.98 194.376 1834.27 190.347V190.348C1815.74 185.6 1799.18 179.213 1784.53 170.297L1783.08 169.399C1768.12 160.025 1755.01 147.569 1743.91 138.569C1731.4 128.44 1718.87 118.991 1705.08 110.607L1705.08 110.605C1693.12 103.328 1679.5 97.5826 1663.08 93.3789L1663.08 93.3779C1649.39 89.8706 1634.59 87.0049 1617.39 87.0049C1599.91 87.0049 1584.89 89.4014 1571.57 92.8174L1571.56 92.8184C1555.3 96.983 1541.65 102.988 1529.56 110.342L1529.56 110.343C1515.81 118.717 1503.35 128.251 1490.78 138.433C1477.83 148.924 1464.38 159.112 1449.11 168.398C1435.43 176.72 1419.96 185.066 1400.44 190.062L1400.44 190.062C1385.2 193.955 1368.02 196.66 1347.95 196.66C1328.79 196.66 1311.02 195.552 1295.08 191.466V191.467C1275.29 186.396 1259.62 176.9 1246.48 168.904L1243.7 167.2C1229.83 158.653 1216.7 149.66 1204.21 139.534C1190.5 128.416 1179.93 118.367 1166.46 110.171L1166.45 110.167L1166.44 110.163C1154.16 102.676 1140.55 96.3169 1124.51 92.2051V92.2061C1111.33 88.8383 1096.14 86.6494 1078.52 86.6494C1061.58 86.6494 1047.06 90.0538 1032.93 93.6777L1032.93 93.6787C1016.62 97.8577 1003.16 103.687 991.126 111.012C977.551 119.279 965.813 129.043 952.859 139.548C940.225 149.794 926.736 160.704 911.304 170.089L911.305 170.09C896.843 178.889 880.514 185.738 861.726 190.552L861.714 190.555C846.28 194.494 828.961 196.824 809.094 196.824C789.714 196.824 772.07 195.355 756.268 191.303V191.302C737.344 186.467 720.954 179.282 706.61 170.555L706.605 170.552C698.332 165.513 691.173 159.621 684.746 153.989C678.009 148.086 672.653 143.015 666.543 138.06C654.161 128.018 641.425 118.657 627.561 110.226L627.557 110.224C615.317 102.776 601.7 96.5055 585.602 92.3809C573.08 89.1726 558.267 88.3291 539.666 88.3291C520.968 88.3291 506.17 89.0606 493.707 92.2568L493.703 92.2578C477.392 96.437 463.543 102.431 451.506 109.755L451.507 109.756C437.836 118.082 425.528 127.803 412.83 138.101C406.729 143.048 401.378 148.126 394.645 154.039C388.221 159.68 381.059 165.587 372.773 170.625L372.772 170.624C357.839 179.724 340.781 185.395 322.733 190.02L322.732 190.019C306.968 194.061 289.675 195.595 270.238 195.595C251.071 195.595 233.573 194.485 217.647 190.401V190.402C199.332 185.71 182.491 179.635 167.7 170.636L167.695 170.634C152.252 161.228 138.716 150.201 126.117 139.984C119.667 134.754 112.876 128.593 107.141 123.708C101.049 118.519 95.1646 113.882 88.8145 110.021L88.8076 110.017C77.1836 102.939 63.3545 97.8641 46.4316 93.5283V93.5273C32.1504 89.882 17.6778 86.335 0.796875 86.335V59.0244Z" fill="white"/>
<path d="M0.796875 176.587C21.4644 176.587 38.9156 180.986 53.1982 184.631L53.21 184.634C71.4642 189.311 88.17 195.215 103.011 204.251H103.01C111.187 209.224 118.349 214.943 124.85 220.479C131.708 226.32 137.057 231.255 143.32 236.334C156.147 246.737 168.282 256.576 181.896 264.868L182.995 265.527C194.422 272.281 208.091 277.323 224.426 281.508H224.429C237.043 284.743 251.853 285.846 270.238 285.846C288.354 285.846 303.177 284.403 315.952 281.126L315.955 281.125C333.079 276.738 347.07 271.869 358.571 264.859L358.577 264.855L358.583 264.852C364.827 261.055 370.583 256.385 376.624 251.081C382.354 246.049 389.015 239.813 395.627 234.451C408.356 224.128 421.912 213.365 437.301 203.993L437.306 203.99C451.704 195.229 468.061 188.197 486.925 183.364V183.365C503.001 179.242 520.813 178.581 539.666 178.581C558.618 178.581 576.334 179.376 592.38 183.487C611.458 188.375 627.556 195.816 641.754 204.455H641.753C656.946 213.694 670.702 223.831 683.746 234.41C690.349 239.765 697.011 245.987 702.745 251.011C708.788 256.306 714.552 260.976 720.807 264.786L721.945 265.471C733.387 272.295 746.428 278.007 761.523 282.012L763.04 282.407L763.053 282.41C775.791 285.676 790.92 287.076 809.094 287.076C826.78 287.076 841.825 285.007 854.959 281.655C871.342 277.456 885.135 271.606 897.107 264.321L897.111 264.319C910.737 256.033 922.866 246.271 935.657 235.898C948.13 225.783 961.436 214.68 976.921 205.25L976.926 205.247C991.323 196.486 1007.28 189.619 1026.15 184.786V184.785C1040.56 181.089 1057.91 176.901 1078.52 176.901C1097.83 176.901 1114.81 179.23 1129.82 182.944L1131.27 183.307L1131.28 183.309C1150.41 188.21 1166.51 195.779 1180.66 204.405H1180.66C1196.23 213.879 1209.7 226.385 1221.41 235.884C1232.76 245.09 1244.88 253.411 1258.03 261.513L1260.67 263.131L1260.67 263.133C1273.55 270.971 1285.7 278.169 1300.43 282.194L1301.86 282.573L1301.87 282.574C1314.47 285.806 1329.53 286.912 1347.95 286.912C1365.46 286.912 1380.36 284.564 1393.67 281.166L1395.13 280.782C1410.16 276.726 1422.55 270.149 1434.91 262.627L1434.92 262.625C1448.7 254.242 1461.09 244.903 1473.59 234.774C1486.48 224.335 1500.04 213.904 1515.35 204.581L1515.36 204.578C1529.71 195.846 1545.85 188.771 1564.79 183.923V183.924C1580.01 180.022 1597.32 177.256 1617.39 177.256C1637.74 177.256 1654.98 180.672 1669.86 184.484C1688.64 189.293 1704.79 196.026 1719.27 204.834L1720.7 205.708C1735.39 214.765 1748.55 224.747 1761.1 234.911C1774.65 245.887 1784.59 255.688 1797.46 263.75L1798.72 264.524L1798.72 264.526C1810.14 271.472 1823.53 276.844 1839.49 281.05L1841.05 281.454L1841.05 281.455C1853.88 284.744 1868.79 286.297 1886.83 286.297V313.609C1867.32 313.609 1849.98 311.939 1834.27 307.91V307.911C1815.74 303.163 1799.18 296.776 1784.53 287.86L1783.08 286.962C1768.12 277.588 1755.01 265.131 1743.91 256.132C1731.4 246.003 1718.87 236.554 1705.08 228.17L1705.08 228.168C1693.12 220.891 1679.5 215.146 1663.08 210.942L1663.08 210.941C1649.39 207.434 1634.59 204.568 1617.39 204.568C1599.91 204.568 1584.89 206.964 1571.57 210.38L1571.56 210.381C1555.3 214.546 1541.65 220.551 1529.56 227.905L1529.56 227.906C1515.81 236.28 1503.35 245.814 1490.78 255.996C1477.83 266.487 1464.38 276.675 1449.11 285.961C1435.43 294.283 1419.96 302.629 1400.44 307.625L1400.44 307.625C1385.2 311.518 1368.02 314.223 1347.95 314.223C1328.79 314.223 1311.02 313.115 1295.08 309.029V309.03C1275.29 303.959 1259.62 294.463 1246.48 286.467L1243.7 284.763C1229.83 276.216 1216.7 267.223 1204.21 257.097C1190.5 245.979 1179.93 235.93 1166.46 227.734L1166.45 227.73L1166.44 227.726C1154.16 220.239 1140.55 213.88 1124.51 209.768V209.769C1111.33 206.401 1096.14 204.212 1078.52 204.212C1061.58 204.212 1047.06 207.617 1032.93 211.241L1032.93 211.242C1016.62 215.421 1003.16 221.25 991.126 228.575C977.551 236.842 965.813 246.606 952.859 257.111C940.225 267.357 926.736 278.267 911.304 287.652L911.305 287.653C896.843 296.452 880.514 303.301 861.726 308.115L861.714 308.118C846.28 312.057 828.961 314.387 809.094 314.387C789.714 314.387 772.07 312.918 756.268 308.866V308.865C737.344 304.03 720.954 296.845 706.61 288.118L706.605 288.115C698.332 283.076 691.173 277.184 684.746 271.552C678.009 265.649 672.653 260.578 666.543 255.623C654.161 245.581 641.425 236.22 627.561 227.789L627.557 227.787C615.317 220.339 601.7 214.068 585.602 209.944C573.08 206.736 558.267 205.892 539.666 205.892C520.968 205.892 506.17 206.624 493.707 209.82L493.703 209.821C477.392 214 463.543 219.994 451.506 227.318L451.507 227.319C437.836 235.645 425.528 245.366 412.83 255.664C406.729 260.611 401.378 265.689 394.645 271.602C388.221 277.243 381.059 283.15 372.773 288.188L372.772 288.187C357.839 297.287 340.781 302.958 322.733 307.583L322.732 307.582C306.968 311.624 289.675 313.158 270.238 313.158C251.071 313.158 233.573 312.048 217.647 307.964V307.965C199.332 303.273 182.491 297.198 167.7 288.199L167.695 288.197C152.252 278.791 138.716 267.764 126.117 257.547C119.667 252.317 112.876 246.156 107.141 241.271C101.049 236.082 95.1646 231.445 88.8145 227.583L88.8076 227.58C77.1836 220.502 63.3545 215.427 46.4316 211.091V211.09C32.1504 207.445 17.6778 203.898 0.796875 203.898V176.587Z" fill="white"/>
<path d="M1617.39 235.293C1637.46 235.293 1654.78 238.057 1670 241.961L1670 241.962C1689.46 246.945 1705.09 255.203 1718.84 263.569C1733.61 272.555 1747.84 281.916 1761.22 292.773C1773.83 302.999 1786.05 312.476 1799.76 320.828L1804.83 323.921C1816.1 330.785 1826.6 336.921 1839.27 340.41L1840.69 340.787L1840.7 340.788C1853.08 343.965 1867.93 344.483 1886.82 344.483V371.795C1868.16 371.795 1850.07 371.385 1833.91 367.243C1813.96 362.131 1798.29 351.905 1785.56 344.16L1785.56 344.157C1770.22 334.812 1756.84 324.38 1744.02 313.986C1731.99 304.225 1718.92 295.587 1704.64 286.903L1704.64 286.901C1691.95 279.182 1678.96 272.448 1663.22 268.418L1663.21 268.417C1649.89 265.001 1634.87 262.604 1617.39 262.604C1600.15 262.604 1585.31 265.402 1571.69 268.895L1571.69 268.896C1555.76 272.977 1542.6 279.368 1530.17 286.929L1530.17 286.931C1516.46 295.268 1504.2 304.771 1491.59 314.997C1478.78 325.39 1465.25 335.934 1449.9 345.268L1449.9 345.27C1435.81 353.831 1419.86 361.506 1400.65 366.424L1400.65 366.425C1384.7 370.51 1367.1 371.604 1347.95 371.604C1327.98 371.604 1310.9 369.085 1295.57 365.154C1276.65 360.305 1260.77 353.324 1246.42 344.599C1231.33 335.418 1217.55 325.566 1204.4 314.901C1191.08 304.1 1179.86 294.127 1166.36 285.92L1166.35 285.916C1153.64 278.172 1140.35 271.269 1124.63 267.243L1124.63 267.242C1111.93 263.985 1096.77 262.658 1078.52 262.658C1061.11 262.658 1046.16 265.182 1032.75 268.621L1032.75 268.622C1015.92 272.935 1001.97 278.18 990.303 285.276L990.3 285.278C976.77 293.506 967.22 303.59 952.9 315.202C939.376 326.17 924.739 335.196 910.264 343.998L910.263 343.997C896.689 352.27 881.208 360.837 861.646 365.85L861.646 365.851C845.738 369.93 828.293 371.085 809.094 371.085C790.301 371.085 772.509 370.512 756.407 366.383C737.14 361.446 721.254 353.601 707.266 345.089L707.256 345.083C692.12 335.856 678.375 325.843 665.287 315.229C651.704 304.214 640.944 294.198 627.465 286.002C615.76 278.888 602.038 273.675 585.246 269.373C571.531 265.873 556.852 263 539.666 263C522.299 263 507.46 265.567 494.007 269.018L494.004 269.019C476.72 273.447 462.74 278.103 451.311 285.058L451.308 285.06C437.774 293.289 428.236 303.394 413.895 315.024C400.948 325.524 387.346 335.806 372.077 345.091L372.076 345.09C357.785 353.799 341.769 360.975 322.788 365.838C308.009 369.625 290.666 373.229 270.238 373.229C250.58 373.229 232.934 371.289 217.316 367.284C197.806 362.288 181.884 353.739 168.205 345.416C152.633 335.946 139.117 323.103 127.605 313.768C115.318 303.803 102.477 294.594 88.5273 286.111L88.5244 286.109C76.7125 278.922 63.0236 273.45 46.418 269.195H46.415C33.0557 265.769 18.2419 263.342 0.796875 263.342V236.03C20.9049 236.03 38.0182 238.846 53.1992 242.739L53.1982 242.74C71.7677 247.498 88.0935 253.877 102.718 262.775L104.13 263.64C118.691 272.586 132.08 282.233 144.809 292.555C158.723 303.839 168.913 313.882 182.398 322.082L182.402 322.085C195.16 329.847 208.405 336.81 224.096 340.827L224.102 340.829C237.024 344.143 252.316 345.918 270.238 345.918C287.391 345.918 302.221 342.914 316.01 339.381C332.201 335.232 345.732 329.163 357.875 321.762L357.881 321.759L357.887 321.755C371.678 313.369 384.213 303.932 396.692 293.812C407.778 284.822 421.591 271.165 437.117 261.724C452.125 252.593 469.334 247.146 487.226 242.562C502.312 238.693 519.481 235.688 539.666 235.688C558.755 235.688 575.008 238.707 589.201 242.208L592.024 242.916C610.409 247.626 626.893 253.694 641.652 262.665L641.655 262.666C657.236 272.14 670.646 284.412 682.489 294.017C694.828 304.023 707.574 313.291 721.47 321.762C733.527 329.098 746.445 335.443 761.702 339.537L763.186 339.927L763.188 339.928C775.626 343.118 790.335 343.773 809.094 343.773C827.447 343.773 842.231 342.634 854.862 339.395H854.865C870.473 335.396 883.201 328.509 896.062 320.67L896.073 320.662C910.657 311.794 923.796 303.641 935.698 293.989C946.806 284.981 960.58 271.385 976.109 261.942C990.883 252.954 1007.63 246.864 1025.97 242.165C1041.1 238.286 1058.36 235.347 1078.52 235.347C1097.85 235.347 1115.57 236.726 1131.41 240.787L1131.41 240.786C1150.87 245.772 1166.81 254.217 1180.55 262.585L1180.55 262.584C1196.11 272.047 1209.5 283.869 1221.6 293.688C1233.11 303.021 1245.06 311.629 1258.01 319.664L1260.62 321.263L1260.62 321.266C1272.71 328.625 1286.11 334.534 1302.36 338.697L1302.36 338.698C1315.57 342.087 1330.37 344.293 1347.95 344.293C1366.35 344.293 1381.25 343.202 1393.87 339.968L1393.87 339.967C1409.87 335.872 1423.33 329.456 1435.71 321.931C1449.42 313.594 1461.78 304.01 1474.39 293.784C1487.21 283.39 1500.63 272.928 1515.98 263.595C1529.99 255.07 1545.66 247.37 1564.91 242.438C1579.83 238.612 1597.08 235.293 1617.39 235.293Z" fill="white"/>
<path d="M0.796875 117.322C21.3691 117.322 38.7519 121.394 53.2285 125.093L53.2373 125.095C71.8321 129.859 88.1785 136.299 102.786 145.187L104.24 146.083C119.201 155.42 132.135 167.159 143.647 176.496C155.634 186.216 168.715 194.684 183.099 203.444L188.104 206.483C199.689 213.473 210.746 219.672 224.139 223.103H224.143C237.121 226.431 252.372 228.301 270.211 228.301C287.786 228.301 302.939 226.056 316.172 222.679C331.589 218.729 344.077 211.447 357.287 203.395L357.294 203.391L357.3 203.387C371.834 194.549 384.978 186.312 396.897 176.646C408.424 167.298 421.95 154.468 437.523 144.998C451.586 136.441 467.64 128.691 486.859 123.77V123.771C502.796 119.685 520.495 118.591 539.652 118.591C559.22 118.591 576.601 120.336 592.298 124.358C610.874 129.117 626.399 136.412 640.175 144.658L641.503 145.458L641.505 145.459C656.773 154.744 670.375 165.026 683.322 175.526C695.766 185.617 708.231 194.932 722.035 203.348C734.644 211.02 747.593 217.611 763.377 221.655L763.38 221.656C776.871 225.116 791.73 227.742 809.08 227.742C827.138 227.742 842.259 226.174 855.098 222.884C870.749 218.874 883.817 211.929 896.635 204.137C910.118 195.938 921.04 185.988 934.496 175.076C947.649 164.409 961.503 154.505 976.593 145.315L976.598 145.312C990.826 136.654 1006.86 129.318 1025.91 124.451V124.452C1041.61 120.428 1058.99 118.714 1078.52 118.714C1096.77 118.714 1114.18 119.321 1129.86 123.093L1131.38 123.468L1131.39 123.47C1149.73 128.171 1165.71 135.103 1179.73 143.458L1181.08 144.271L1181.08 144.272C1196.66 153.744 1210.27 166.581 1221.84 175.963C1234.89 186.546 1245.63 196.308 1258.55 204.362L1259.81 205.135L1259.81 205.137C1271.58 212.294 1285.48 217.749 1302.15 222.007L1302.17 222.011C1316.07 225.577 1330.89 228.752 1347.96 228.752C1364.2 228.752 1378.47 226.359 1391.35 223.208L1393.91 222.568C1409.51 218.573 1422.76 212.565 1434.72 205.419L1435.87 204.724C1449.37 196.519 1460.55 186.529 1473.9 175.704C1486.42 165.546 1499.84 154.461 1515.32 145.052L1517.91 143.488C1531.02 135.666 1546.19 127.879 1564.47 123.199C1580.6 119.061 1598.69 118.578 1617.42 118.578C1637.61 118.578 1654.68 121.553 1669.79 125.423C1687.7 130.01 1704.8 135.43 1719.82 144.573L1721.27 145.466C1736.22 154.78 1749.22 166.265 1760.92 175.758C1774.2 186.523 1785.5 196.489 1799 204.701H1799C1810.76 211.859 1824.52 217.261 1841.2 221.533H1841.2C1855.34 225.16 1869.92 228.588 1886.86 228.588V255.9C1866.24 255.9 1848.81 251.681 1834.42 247.989V247.988C1815.91 243.247 1799.47 236.96 1784.8 228.033L1784.8 228.032C1769.26 218.573 1755.87 206.826 1743.72 196.971C1730.38 186.151 1719.12 176.114 1705.63 167.908L1705.62 167.904C1694.17 160.935 1680.3 156.306 1663.01 151.88H1663.01C1649.55 148.432 1634.8 145.889 1617.42 145.889C1598.57 145.889 1583.66 146.472 1571.25 149.654L1571.25 149.655C1555.54 153.675 1542.25 160.633 1529.51 168.384L1529.51 168.386C1515.92 176.648 1504 186.455 1491.1 196.917C1479.02 206.71 1465.63 218.597 1450.06 228.062L1450.06 228.063C1435.85 236.697 1419.77 244.139 1400.67 249.028L1400.67 249.029C1385.67 252.86 1368.23 256.064 1347.96 256.064C1327.46 256.064 1310.02 252.22 1295.38 248.466V248.465C1276.88 243.739 1260.29 237.397 1245.62 228.471L1244.17 227.576C1229.2 218.244 1216.22 206.569 1204.63 197.176C1190.78 185.939 1180.38 175.806 1166.89 167.608V167.607C1154.77 160.24 1140.85 154.088 1124.61 149.927V149.926C1112.15 146.744 1097.23 146.026 1078.52 146.026C1060.5 146.026 1045.53 147.616 1032.68 150.91L1032.67 150.913C1016.55 155.03 1003.01 161.211 990.798 168.639L990.799 168.64C976.83 177.148 963.973 186.335 951.699 196.289C939.729 205.996 926.398 218.003 910.823 227.474L910.821 227.476C897.175 235.771 881.402 244.339 861.876 249.341C846.147 253.371 828.603 255.053 809.08 255.053C788.851 255.053 771.647 251.97 756.599 248.111V248.112C737.205 243.143 721.668 235.095 707.839 226.68L707.829 226.674C692.606 217.394 679.1 207.265 666.12 196.739C653.641 186.619 641.107 177.182 627.316 168.796C614.957 161.284 601.521 154.915 585.52 150.815C572.649 147.517 557.665 145.903 539.652 145.903C521.231 145.903 506.241 146.995 493.639 150.227L493.633 150.228C477.648 154.32 464.096 160.8 451.721 168.33L451.717 168.332C438.232 176.531 427.999 186.587 414.1 197.859C400.596 208.81 386.022 217.885 371.501 226.715C358.274 234.777 342.712 244.074 322.952 249.136L322.94 249.139C307.609 253.053 290.183 255.613 270.211 255.613C250.496 255.613 232.919 253.55 217.357 249.559V249.558C197.488 244.467 181.859 234.66 168.901 226.776L168.897 226.773C154.223 217.836 139.885 208.607 126.445 197.708C112.903 186.726 102.076 176.72 88.5957 168.523L88.5918 168.521C76.7626 161.323 63.0401 155.801 46.459 151.552V151.551C32.3979 147.959 17.7741 144.632 0.796875 144.632V117.322Z" fill="white"/>
</g>
<defs>
<clipPath id="clip0_1476_29236">
<rect width="1886.02" height="373.007" fill="white" transform="translate(0.796875 0.236328)"/>
</clipPath>
</defs>
</svg>
