<svg width="500" height="350" viewBox="0 0 500 350" fill="none" xmlns="http://www.w3.org/2000/svg">
<g clip-path="url(#clip0_1776_21644)">
<path d="M148.168 283.517C144.007 287.564 137.201 287.983 133.446 283.746C128.518 278.196 124.135 272.144 120.107 265.947C116.054 259.712 113.111 252.83 110.009 246.037C106.901 239.237 103.742 232.399 101.636 225.149C99.5366 217.924 98.1285 210.452 97.0628 202.891C96.0099 195.4 95.8323 187.77 95.8323 180.069C95.8323 172.363 95.6547 164.631 96.714 157.038C97.7796 149.382 100.349 142.049 102.448 134.622C104.56 127.169 106.14 119.468 109.248 112.351C112.349 105.241 116.644 98.714 120.703 92.0539C124.731 85.4381 129.292 79.1966 134.22 73.1454C137.975 68.534 144.134 67.9948 148.289 72.1558C149.672 73.5386 149.45 73.7797 150.832 75.1561C154.588 78.9048 155.222 84.5501 151.835 88.7238C146.595 95.1746 142.263 102.253 138.229 109.434C134.163 116.658 130.332 124.004 127.56 131.774C124.788 139.531 122.86 147.568 121.452 155.674C120.05 163.704 119.308 171.862 119.308 180.05C119.308 188.246 120.494 196.238 121.896 204.109C123.31 212.057 125.074 219.846 127.839 227.299C130.611 234.759 133.897 241.99 137.956 248.77C141.997 255.513 146.481 262.034 151.721 267.945C155.114 271.77 154.607 277.003 150.852 280.669C149.38 281.951 149.564 282.166 148.181 283.511L148.168 283.517ZM80.311 346.396C76.2958 350.303 69.623 350.899 65.7728 346.909C60.5335 341.467 55.6874 335.6 51.0317 329.618C46.3505 323.599 42.5764 316.907 38.4979 310.38C34.413 303.828 30.1315 297.307 26.6745 290.292C23.2239 283.264 20.2554 275.944 17.4518 268.535C14.6545 261.133 12.536 253.477 10.4111 245.783C8.2925 238.108 5.81238 230.426 4.38521 222.555C2.96438 214.721 2.87557 206.78 2.15881 198.845C1.45474 190.954 -0.00415039 182.987 -0.00415039 175.077C-0.00415039 167.168 1.16296 159.442 1.87338 151.697C2.59648 143.902 3.78897 136.265 5.21614 128.672C6.64332 121.041 8.19735 113.474 10.3159 106.059C12.4408 98.6252 15.2064 91.464 18.0036 84.252C20.8009 77.0336 23.5157 69.7518 26.9726 62.7745C30.4232 55.8036 33.8675 48.7375 37.9524 42.0266C42.0246 35.3411 46.7818 29.0615 51.463 22.6677C56.1187 16.312 60.9267 9.98807 66.1661 3.98124C70.0099 -0.420802 76.5813 -0.477889 80.6091 3.87341C81.9728 5.34499 82.3027 4.98978 83.6664 6.46136C87.4532 10.5589 87.2946 17.4855 83.6791 21.6211C78.2622 27.8119 73.0736 34.1359 68.3544 40.7707C63.6035 47.4499 59.0175 54.2115 54.996 61.2649C50.9555 68.3437 46.9848 75.4606 43.7118 82.8502C40.4325 90.2461 37.5591 97.864 35.06 105.533C32.5672 113.189 31.1019 121.213 29.4147 129.11C27.7402 136.975 26.6301 144.967 25.7865 153.035C24.9492 161.04 24.7653 169.128 24.7716 177.291C24.7716 185.455 25.1015 193.536 25.9387 201.604C26.7887 209.736 27.848 217.785 29.5225 225.739C31.2034 233.725 33.0429 241.647 35.5357 249.354C38.0285 257.073 40.7433 264.71 44.029 272.043C47.3083 279.375 51.0126 286.486 55.0531 293.336C59.0746 300.161 63.6352 306.638 68.3798 312.911C73.099 319.146 78.1797 325.096 83.5903 330.735C87.2122 334.509 86.9267 340.122 83.1463 343.808C82.1779 344.649 81.2413 345.514 80.3363 346.402L80.311 346.396ZM349.261 273.597C345.506 269.969 344.491 263.892 347.878 259.738C353.117 253.312 357.874 246.671 361.915 239.567C365.975 232.425 370.072 225.282 372.844 217.639C375.61 210.008 377.164 202.016 378.572 194.068C379.974 186.19 380.881 178.236 380.881 170.206C380.881 162.182 380.519 154.203 379.124 146.477C377.709 138.681 374.905 131.273 372.14 123.946C369.368 116.608 366.818 109.11 362.759 102.399C358.718 95.7328 353.168 90.0241 347.929 84.1314C344.542 80.3193 345.455 74.4901 349.21 70.9443C350.593 69.6377 350.682 69.7328 352.064 68.4325C356.219 64.5189 362.397 64.6774 366.152 68.8892C371.081 74.4203 375.28 80.4081 379.307 86.5291C383.367 92.6882 387.325 98.8789 390.427 105.552C393.535 112.231 396.516 119.024 398.622 126.122C400.721 133.188 401.882 140.54 402.948 147.917C404.007 155.23 404.737 162.651 404.737 170.174C404.737 177.697 404.172 185.188 403.113 192.603C402.047 200.082 400.912 207.617 398.812 214.886C396.706 222.187 393.738 229.278 390.642 236.281C387.541 243.271 383.805 250.014 379.752 256.598C375.724 263.137 371.062 269.303 366.139 275.329C362.384 279.921 356.333 280.194 352.172 276.166C350.853 274.739 350.643 274.935 349.254 273.597H349.261ZM417.144 338.644C413.357 334.75 412.583 328.362 416.205 324.24C421.622 318.074 426.798 311.852 431.523 305.299C436.274 298.703 441.285 292.353 445.306 285.439C449.341 278.506 452.493 271.136 455.772 263.93C459.058 256.718 462.128 249.475 464.621 242.034C467.114 234.607 469.556 227.166 471.243 219.529C472.918 211.93 473.469 204.071 474.319 196.282C475.163 188.556 476.584 180.856 476.584 172.978C476.584 165.106 475.061 157.222 474.224 149.433C473.381 141.58 472.905 133.727 471.23 126.033C469.543 118.301 467.577 110.613 465.078 103.129C462.585 95.6377 459.464 88.3242 456.185 81.1756C452.905 74.0334 449.506 66.9165 445.465 60.2056C441.444 53.5138 436.648 47.2532 431.897 41.0561C427.178 34.897 421.812 29.2327 416.395 23.6065C412.773 19.8451 413.185 14.0983 416.972 10.616C419.237 8.54186 419.097 8.415 421.362 6.34084C424.375 3.58163 429.303 3.73387 432.214 6.67702C437.593 12.1193 443.055 17.5489 447.837 23.4923C452.645 29.4674 456.876 35.8992 461.062 42.3501C465.262 48.8263 469.004 55.607 472.55 62.5081C476.102 69.422 479.115 76.596 481.994 83.8587C484.874 91.1214 487.088 98.5808 489.276 106.11C491.458 113.62 493.317 121.181 494.788 128.862C496.253 136.512 497.991 144.181 498.734 151.919C499.469 159.607 499.996 167.345 499.996 175.058C499.996 182.664 499.882 190.263 499.165 197.703C498.448 205.194 497.275 212.615 495.847 219.929C494.42 227.274 492.441 234.486 490.323 241.641C488.198 248.815 485.483 255.805 482.686 262.788C479.882 269.778 476.577 276.572 473.114 283.372C469.657 290.159 465.928 296.85 461.843 303.428C457.77 309.98 453.546 316.533 448.865 322.844C444.209 329.117 439.262 335.264 434.016 341.239C430.172 345.622 423.842 345.673 419.82 341.537C418.949 340.539 418.057 339.571 417.144 338.632V338.644Z" fill="white"/>
<path d="M275.192 148.153C269.396 142.699 263.644 137.246 260.404 130.177C257.154 123.09 255.108 115.064 254.696 106.941C254.599 105.044 253.747 103.973 251.833 103.938C251.402 103.938 251.402 103.121 250.963 103.112C249.058 103.068 247.644 104.912 247.547 106.835C247.135 115.064 245.264 123.108 242.015 130.625C238.775 138.107 234.357 145.404 228.562 151.551C222.757 157.689 215.995 162.835 208.724 166.05C201.427 169.281 193.295 170.335 185.128 169.72C183.222 169.58 182.116 170.879 182.107 172.829C182.107 173.268 181.247 173.145 181.247 173.584C181.247 175.534 183.249 176.71 185.154 177.044C193.321 178.484 201.356 181.075 208.654 184.377C215.925 187.678 222.854 191.981 228.649 197.426C234.445 202.871 238.792 209.536 242.024 216.552C245.273 223.586 247.53 231.384 247.943 239.472C248.039 241.36 249.058 243.073 250.963 243.037C251.394 243.029 251.402 242.994 251.833 242.985C253.738 242.95 254.432 241.202 254.529 239.279C254.941 231.086 257.462 222.989 260.711 215.437C263.951 207.929 268.509 200.702 274.305 194.554C280.101 188.407 287.398 184.579 294.678 181.4C301.975 178.212 309.501 175.779 317.659 176.359C319.565 176.491 321.409 175.358 321.409 173.488C321.409 173.066 321.831 173.127 321.822 172.697C321.822 170.827 319.609 168.227 317.703 167.902C309.545 166.48 301.352 165.575 294.054 162.326C286.783 159.095 280.979 153.597 275.183 148.135L275.192 148.153Z" fill="white"/>
</g>
<defs>
<clipPath id="clip0_1776_21644">
<rect width="500" height="348.992" fill="white" transform="translate(-0.00415039 0.638672)"/>
</clipPath>
</defs>
</svg>
