<svg width="501" height="501" viewBox="0 0 501 501" fill="none" xmlns="http://www.w3.org/2000/svg">
<g clip-path="url(#clip0_1476_29330)">
<path d="M388.212 281.699C404.018 281.699 418.153 291.54 423.639 306.364L428.7 320.043C432.34 329.88 434.394 335.134 435.839 338.281C436.153 338.966 436.396 339.456 436.573 339.794C436.911 339.971 437.402 340.214 438.086 340.528C441.233 341.973 446.487 344.027 456.324 347.667L470.003 352.729C484.827 358.214 494.668 372.349 494.668 388.155C494.668 403.961 484.827 418.097 470.003 423.582L456.324 428.644C446.487 432.284 441.233 434.337 438.086 435.782C437.401 436.097 436.911 436.34 436.573 436.518C436.396 436.855 436.153 437.345 435.839 438.028C434.394 441.176 432.34 446.43 428.7 456.268L423.639 469.945L423.376 470.637C417.802 484.845 404.212 494.308 388.952 494.604L388.212 494.611C372.653 494.611 358.713 485.075 353.049 470.637L352.785 469.945L347.724 456.268C344.083 446.43 342.03 441.176 340.585 438.028C340.271 437.345 340.027 436.855 339.85 436.518C339.512 436.34 339.023 436.096 338.339 435.782C335.191 434.337 329.938 432.284 320.1 428.644L306.422 423.582C291.829 418.182 282.064 404.401 281.763 388.895L281.756 388.155L281.763 387.415C282.064 371.909 291.83 358.128 306.422 352.729L320.1 347.667C329.938 344.027 335.191 341.973 338.339 340.528C339.022 340.214 339.512 339.971 339.85 339.794C340.027 339.456 340.271 338.966 340.585 338.281C342.03 335.134 344.083 329.88 347.724 320.043L352.785 306.364C358.271 291.54 372.406 281.699 388.212 281.699ZM205.062 6.97266C220.869 6.97266 235.004 16.8155 240.489 31.6396L252.299 63.5547C260.403 85.4565 265.737 99.5656 270.446 109.708C274.986 119.485 278.384 124.299 282.076 127.991C285.768 131.683 290.582 135.081 300.359 139.621C310.502 144.33 324.611 149.664 346.513 157.769L378.428 169.578C393.252 175.064 403.094 189.198 403.094 205.005C403.094 220.811 393.252 234.946 378.428 240.432L346.513 252.241C324.611 260.346 310.502 265.68 300.359 270.389C290.582 274.928 285.768 278.327 282.076 282.019C278.384 285.711 274.986 290.525 270.446 300.303C265.737 310.445 260.403 324.554 252.299 346.455L240.489 378.37L240.227 379.062C234.652 393.27 221.062 402.733 205.802 403.029L205.062 403.036C189.503 403.036 175.563 393.5 169.898 379.062L169.636 378.37L157.826 346.455C149.722 324.554 144.388 310.445 139.679 300.303C135.139 290.525 131.741 285.711 128.049 282.019C124.357 278.326 119.542 274.928 109.765 270.389C99.6223 265.68 85.514 260.346 63.6123 252.241L31.6973 240.432C17.1048 235.032 7.33967 221.251 7.03809 205.744L7.03125 205.005L7.03809 204.266C7.33949 188.759 17.1047 174.978 31.6973 169.578L63.6123 157.769C85.5142 149.664 99.6232 144.33 109.766 139.621C119.543 135.081 124.357 131.683 128.049 127.991C131.741 124.299 135.139 119.485 139.679 109.708C144.388 99.5656 149.722 85.4565 157.826 63.5547L169.636 31.6396C175.121 16.8155 189.256 6.97266 205.062 6.97266Z" fill="white"/>
<path d="M388.212 281.699V275.976V281.699ZM423.639 306.364L429.006 304.378L429.006 304.378L423.639 306.364ZM428.7 320.043L423.332 322.029L428.7 320.043ZM435.839 338.281L430.637 340.669L430.637 340.669L435.839 338.281ZM436.573 339.794L431.505 342.452C432.045 343.482 432.885 344.323 433.915 344.863L436.573 339.794ZM438.086 340.528L435.698 345.73L435.698 345.73L438.086 340.528ZM456.324 347.667L454.338 353.035L456.324 347.667ZM470.003 352.729L471.989 347.361L471.989 347.361L470.003 352.729ZM494.668 388.155L500.391 388.155V388.155H494.668ZM470.003 423.582L471.989 428.95L471.989 428.95L470.003 423.582ZM456.324 428.644L454.338 423.276L456.324 428.644ZM438.086 435.782L435.698 430.581H435.698L438.086 435.782ZM436.573 436.518L433.915 431.449C432.885 431.989 432.044 432.83 431.504 433.859L436.573 436.518ZM435.839 438.028L430.638 435.64L430.637 435.64L435.839 438.028ZM428.7 456.268L434.068 458.254L434.068 458.254L428.7 456.268ZM423.639 469.945L428.989 471.978C428.995 471.963 429.001 471.947 429.006 471.932L423.639 469.945ZM423.376 470.637L428.704 472.727C428.712 472.708 428.719 472.689 428.726 472.67L423.376 470.637ZM388.952 494.604L389.005 500.328C389.025 500.328 389.044 500.327 389.064 500.327L388.952 494.604ZM388.212 494.611V500.335C388.23 500.335 388.247 500.335 388.265 500.335L388.212 494.611ZM353.049 470.637L347.701 472.676C347.708 472.693 347.714 472.71 347.721 472.727L353.049 470.637ZM352.785 469.945L347.417 471.932C347.424 471.949 347.431 471.967 347.437 471.985L352.785 469.945ZM347.724 456.268L342.356 458.254L342.356 458.254L347.724 456.268ZM340.585 438.028L345.786 435.64L345.786 435.64L340.585 438.028ZM339.85 436.518L344.918 433.859C344.378 432.83 343.538 431.989 342.508 431.449L339.85 436.518ZM338.339 435.782L340.727 430.581L340.727 430.581L338.339 435.782ZM320.1 428.644L318.113 434.011L318.113 434.011L320.1 428.644ZM306.422 423.582L308.408 418.214L308.408 418.214L306.422 423.582ZM281.763 388.895L276.039 388.947C276.04 388.967 276.04 388.986 276.04 389.006L281.763 388.895ZM281.756 388.155L276.033 388.102C276.032 388.138 276.032 388.173 276.033 388.208L281.756 388.155ZM281.763 387.415L276.04 387.304C276.04 387.323 276.04 387.343 276.039 387.362L281.763 387.415ZM306.422 352.729L308.408 358.096L308.408 358.096L306.422 352.729ZM320.1 347.667L318.113 342.299L318.113 342.299L320.1 347.667ZM338.339 340.528L340.727 345.73L340.727 345.73L338.339 340.528ZM339.85 339.794L342.508 344.863C343.537 344.323 344.378 343.482 344.918 342.453L339.85 339.794ZM340.585 338.281L345.786 340.669V340.669L340.585 338.281ZM347.724 320.043L353.091 322.029L347.724 320.043ZM352.785 306.364L347.417 304.378L347.417 304.378L352.785 306.364ZM205.062 6.97266V1.24921V6.97266ZM240.489 31.6396L245.857 29.6534V29.6534L240.489 31.6396ZM252.299 63.5547L246.931 65.5409V65.5409L252.299 63.5547ZM270.446 109.708L265.255 112.118V112.118L270.446 109.708ZM282.076 127.991L278.029 132.038L278.029 132.038L282.076 127.991ZM300.359 139.621L297.949 144.812H297.949L300.359 139.621ZM346.513 157.769L344.526 163.136L346.513 157.769ZM378.428 169.578L380.414 164.21H380.414L378.428 169.578ZM403.094 205.005L408.817 205.005V205.005H403.094ZM378.428 240.432L380.414 245.799L378.428 240.432ZM346.513 252.241L344.526 246.873L346.513 252.241ZM300.359 270.389L297.949 265.197H297.949L300.359 270.389ZM282.076 282.019L278.029 277.971L278.029 277.971L282.076 282.019ZM270.446 300.303L265.255 297.892V297.893L270.446 300.303ZM252.299 346.455L246.931 344.469L252.299 346.455ZM240.489 378.37L245.84 380.403C245.845 380.387 245.851 380.372 245.857 380.356L240.489 378.37ZM240.227 379.062L245.555 381.152C245.562 381.133 245.57 381.114 245.577 381.094L240.227 379.062ZM205.802 403.029L205.855 408.753C205.874 408.752 205.894 408.752 205.913 408.752L205.802 403.029ZM205.062 403.036V408.76C205.08 408.76 205.098 408.759 205.115 408.759L205.062 403.036ZM169.898 379.062L164.548 381.094C164.555 381.114 164.563 381.133 164.57 381.152L169.898 379.062ZM169.636 378.37L164.268 380.356C164.274 380.372 164.28 380.387 164.285 380.403L169.636 378.37ZM157.826 346.455L163.194 344.469L157.826 346.455ZM139.679 300.303L144.87 297.893L144.87 297.892L139.679 300.303ZM128.049 282.019L132.096 277.971L132.096 277.971L128.049 282.019ZM109.765 270.389L112.175 265.197H112.175L109.765 270.389ZM63.6123 252.241L65.5985 246.873H65.5985L63.6123 252.241ZM31.6973 240.432L29.711 245.799H29.711L31.6973 240.432ZM7.03809 205.744L1.31489 205.797C1.31507 205.817 1.31535 205.836 1.31573 205.855L7.03809 205.744ZM7.03125 205.005L1.30805 204.952C1.30773 204.987 1.30773 205.023 1.30805 205.058L7.03125 205.005ZM7.03809 204.266L1.31572 204.154C1.31535 204.174 1.31507 204.193 1.31489 204.213L7.03809 204.266ZM31.6973 169.578L29.711 164.21H29.711L31.6973 169.578ZM63.6123 157.769L65.5985 163.136H65.5985L63.6123 157.769ZM109.766 139.621L112.176 144.812H112.176L109.766 139.621ZM128.049 127.991L132.096 132.038L132.096 132.038L128.049 127.991ZM139.679 109.708L144.87 112.118L144.87 112.118L139.679 109.708ZM157.826 63.5547L163.194 65.5409V65.5409L157.826 63.5547ZM169.636 31.6396L164.268 29.6534V29.6534L169.636 31.6396ZM388.212 281.699V287.423C401.623 287.423 413.617 295.773 418.271 308.351L423.639 306.364L429.006 304.378C422.69 287.308 406.413 275.976 388.212 275.976V281.699ZM423.639 306.364L418.271 308.35L423.332 322.029L428.7 320.043L434.068 318.057L429.006 304.378L423.639 306.364ZM428.7 320.043L423.332 322.029C426.958 331.828 429.086 337.29 430.637 340.669L435.839 338.281L441.04 335.893C439.702 332.978 437.723 327.933 434.068 318.057L428.7 320.043ZM435.839 338.281L430.637 340.669C430.984 341.424 431.271 342.007 431.505 342.452L436.573 339.794L441.642 337.135C441.521 336.905 441.322 336.507 441.04 335.893L435.839 338.281ZM436.573 339.794L433.915 344.863C434.36 345.096 434.943 345.383 435.698 345.73L438.086 340.528L440.474 335.327C439.86 335.045 439.463 334.847 439.232 334.725L436.573 339.794ZM438.086 340.528L435.698 345.73C439.077 347.281 444.539 349.409 454.338 353.035L456.324 347.667L458.31 342.299C448.434 338.645 443.389 336.665 440.474 335.327L438.086 340.528ZM456.324 347.667L454.338 353.035L468.017 358.096L470.003 352.729L471.989 347.361L458.31 342.299L456.324 347.667ZM470.003 352.729L468.017 358.096C480.594 362.751 488.945 374.744 488.945 388.155H494.668H500.391C500.391 369.954 489.059 353.678 471.989 347.361L470.003 352.729ZM494.668 388.155L488.945 388.155C488.944 401.567 480.594 413.56 468.017 418.214L470.003 423.582L471.989 428.95C489.059 422.633 500.391 406.356 500.391 388.155L494.668 388.155ZM470.003 423.582L468.017 418.214L454.338 423.276L456.324 428.644L458.31 434.011L471.989 428.95L470.003 423.582ZM456.324 428.644L454.338 423.276C444.539 426.902 439.077 429.029 435.698 430.581L438.086 435.782L440.474 440.984C443.389 439.645 448.434 437.666 458.31 434.011L456.324 428.644ZM438.086 435.782L435.698 430.581C434.937 430.93 434.355 431.218 433.915 431.449L436.573 436.518L439.232 441.586C439.467 441.462 439.866 441.263 440.474 440.984L438.086 435.782ZM436.573 436.518L431.504 433.859C431.274 434.299 430.986 434.88 430.638 435.64L435.839 438.028L441.04 440.417C441.319 439.81 441.518 439.412 441.642 439.176L436.573 436.518ZM435.839 438.028L430.637 435.64C429.086 439.02 426.958 444.483 423.332 454.281L428.7 456.268L434.068 458.254C437.723 448.377 439.702 443.332 441.04 440.416L435.839 438.028ZM428.7 456.268L423.332 454.281L418.271 467.959L423.639 469.945L429.006 471.932L434.068 458.254L428.7 456.268ZM423.639 469.945L418.288 467.913L418.026 468.604L423.376 470.637L428.726 472.67L428.989 471.978L423.639 469.945ZM423.376 470.637L418.048 468.546C413.319 480.601 401.788 488.63 388.841 488.882L388.952 494.604L389.064 500.327C406.637 499.985 422.285 489.089 428.704 472.727L423.376 470.637ZM388.952 494.604L388.899 488.881L388.159 488.888L388.212 494.611L388.265 500.335L389.005 500.328L388.952 494.604ZM388.212 494.611V488.888C375.01 488.888 363.183 480.796 358.377 468.546L353.049 470.637L347.721 472.727C354.243 489.353 370.295 500.335 388.212 500.335V494.611ZM353.049 470.637L358.397 468.597L358.133 467.906L352.785 469.945L347.437 471.985L347.701 472.676L353.049 470.637ZM352.785 469.945L358.153 467.959L353.091 454.281L347.724 456.268L342.356 458.254L347.417 471.932L352.785 469.945ZM347.724 456.268L353.091 454.281C349.466 444.483 347.338 439.02 345.786 435.64L340.585 438.028L335.384 440.416C336.722 443.332 338.701 448.377 342.356 458.254L347.724 456.268ZM340.585 438.028L345.786 435.64C345.435 434.874 345.146 434.294 344.918 433.859L339.85 436.518L334.781 439.176C334.907 439.417 335.107 439.815 335.384 440.417L340.585 438.028ZM339.85 436.518L342.508 431.449C342.073 431.221 341.493 430.933 340.727 430.581L338.339 435.782L335.951 440.984C336.552 441.26 336.951 441.46 337.191 441.586L339.85 436.518ZM338.339 435.782L340.727 430.581C337.347 429.029 331.885 426.902 322.086 423.276L320.1 428.644L318.113 434.011C327.991 437.666 333.036 439.645 335.951 440.984L338.339 435.782ZM320.1 428.644L322.086 423.276L308.408 418.214L306.422 423.582L304.436 428.95L318.113 434.011L320.1 428.644ZM306.422 423.582L308.408 418.214C296.027 413.633 287.741 401.939 287.485 388.783L281.763 388.895L276.04 389.006C276.388 406.863 287.632 422.732 304.436 428.95L306.422 423.582ZM281.763 388.895L287.486 388.842L287.479 388.102L281.756 388.155L276.033 388.208L276.039 388.947L281.763 388.895ZM281.756 388.155L287.479 388.208L287.486 387.468L281.763 387.415L276.039 387.362L276.033 388.102L281.756 388.155ZM281.763 387.415L287.485 387.526C287.741 374.371 296.027 362.678 308.408 358.096L306.422 352.729L304.436 347.361C287.632 353.579 276.388 369.447 276.04 387.304L281.763 387.415ZM306.422 352.729L308.408 358.096L322.086 353.035L320.1 347.667L318.113 342.299L304.436 347.361L306.422 352.729ZM320.1 347.667L322.086 353.035C331.885 349.409 337.347 347.281 340.727 345.73L338.339 340.528L335.951 335.327C333.036 336.665 327.99 338.644 318.113 342.299L320.1 347.667ZM338.339 340.528L340.727 345.73C341.487 345.381 342.068 345.093 342.508 344.863L339.85 339.794L337.191 334.725C336.956 334.849 336.558 335.048 335.951 335.327L338.339 340.528ZM339.85 339.794L344.918 342.453C345.149 342.012 345.437 341.43 345.786 340.669L340.585 338.281L335.384 335.893C335.104 336.501 334.905 336.9 334.781 337.135L339.85 339.794ZM340.585 338.281L345.786 340.669C347.338 337.29 349.466 331.828 353.091 322.029L347.724 320.043L342.356 318.057C338.701 327.933 336.722 332.978 335.384 335.893L340.585 338.281ZM347.724 320.043L353.091 322.029L358.153 308.35L352.785 306.364L347.417 304.378L342.356 318.057L347.724 320.043ZM352.785 306.364L358.153 308.351C362.807 295.773 374.801 287.423 388.212 287.423V281.699V275.976C370.011 275.976 353.734 287.308 347.417 304.378L352.785 306.364ZM205.062 6.97266V12.6961C218.474 12.6961 230.467 21.0474 235.122 33.6259L240.489 31.6396L245.857 29.6534C239.541 12.5835 223.264 1.24921 205.062 1.24921V6.97266ZM240.489 31.6396L235.122 33.6259L246.931 65.5409L252.299 63.5547L257.667 61.5685L245.857 29.6534L240.489 31.6396ZM252.299 63.5547L246.931 65.5409C255.01 87.3746 260.429 101.723 265.255 112.118L270.446 109.708L275.637 107.298C271.046 97.4079 265.796 83.5384 257.667 61.5684L252.299 63.5547ZM270.446 109.708L265.255 112.118C269.959 122.249 273.698 127.707 278.029 132.038L282.076 127.991L286.123 123.944C283.071 120.891 280.013 116.722 275.637 107.298L270.446 109.708ZM282.076 127.991L278.029 132.038C282.36 136.369 287.819 140.109 297.949 144.812L300.359 139.621L302.77 134.43C293.346 130.054 289.176 126.997 286.123 123.944L282.076 127.991ZM300.359 139.621L297.949 144.812C308.344 149.639 322.693 155.057 344.526 163.136L346.513 157.769L348.499 152.401C326.529 144.271 312.659 139.022 302.77 134.43L300.359 139.621ZM346.513 157.769L344.526 163.136L376.441 174.946L378.428 169.578L380.414 164.21L348.499 152.401L346.513 157.769ZM378.428 169.578L376.441 174.946C389.02 179.6 397.37 191.594 397.37 205.005H403.094H408.817C408.817 186.803 397.484 170.527 380.414 164.21L378.428 169.578ZM403.094 205.005L397.37 205.005C397.37 218.416 389.019 230.41 376.441 235.064L378.428 240.432L380.414 245.799C397.484 239.483 408.817 223.206 408.817 205.005L403.094 205.005ZM378.428 240.432L376.441 235.064L344.526 246.873L346.513 252.241L348.499 257.609L380.414 245.799L378.428 240.432ZM346.513 252.241L344.526 246.873C322.693 254.953 308.344 260.371 297.949 265.197L300.359 270.389L302.77 275.58C312.659 270.988 326.529 265.739 348.499 257.609L346.513 252.241ZM300.359 270.389L297.949 265.197C287.818 269.901 282.36 273.64 278.029 277.971L282.076 282.019L286.123 286.066C289.176 283.013 293.345 279.956 302.77 275.58L300.359 270.389ZM282.076 282.019L278.029 277.971C273.698 282.303 269.959 287.762 265.255 297.892L270.446 300.303L275.637 302.713C280.013 293.288 283.071 289.118 286.123 286.066L282.076 282.019ZM270.446 300.303L265.255 297.893C260.429 308.287 255.01 322.635 246.931 344.469L252.299 346.455L257.667 348.441C265.796 326.472 271.046 312.603 275.637 302.713L270.446 300.303ZM252.299 346.455L246.931 344.469L235.122 376.384L240.489 378.37L245.857 380.356L257.667 348.441L252.299 346.455ZM240.489 378.37L235.139 376.337L234.876 377.029L240.227 379.062L245.577 381.094L245.84 380.403L240.489 378.37ZM240.227 379.062L234.898 376.971C230.169 389.026 218.638 397.055 205.691 397.307L205.802 403.029L205.913 408.752C223.487 408.41 239.135 397.514 245.555 381.152L240.227 379.062ZM205.802 403.029L205.749 397.306L205.01 397.313L205.062 403.036L205.115 408.759L205.855 408.753L205.802 403.029ZM205.062 403.036V397.313C191.861 397.313 180.032 389.221 175.227 376.971L169.898 379.062L164.57 381.152C171.093 397.778 187.145 408.76 205.062 408.76V403.036ZM169.898 379.062L175.249 377.029L174.986 376.337L169.636 378.37L164.285 380.403L164.548 381.094L169.898 379.062ZM169.636 378.37L175.003 376.384L163.194 344.469L157.826 346.455L152.458 348.441L164.268 380.356L169.636 378.37ZM157.826 346.455L163.194 344.469C155.115 322.635 149.696 308.287 144.87 297.893L139.679 300.303L134.488 302.713C139.079 312.603 144.329 326.472 152.458 348.441L157.826 346.455ZM139.679 300.303L144.87 297.892C140.166 287.762 136.427 282.303 132.096 277.971L128.049 282.019L124.002 286.066C127.054 289.118 130.112 293.288 134.488 302.713L139.679 300.303ZM128.049 282.019L132.096 277.971C127.764 273.64 122.306 269.901 112.175 265.197L109.765 270.389L107.354 275.58C116.779 279.956 120.949 283.013 124.002 286.066L128.049 282.019ZM109.765 270.389L112.175 265.197C101.78 260.371 87.4322 254.953 65.5985 246.873L63.6123 252.241L61.6261 257.609C83.5957 265.738 97.4645 270.988 107.354 275.58L109.765 270.389ZM63.6123 252.241L65.5985 246.873L33.6835 235.064L31.6973 240.432L29.711 245.799L61.6261 257.609L63.6123 252.241ZM31.6973 240.432L33.6835 235.064C21.302 230.482 13.0163 218.789 12.7604 205.633L7.03809 205.744L1.31573 205.855C1.66303 223.712 12.9075 239.582 29.711 245.799L31.6973 240.432ZM7.03809 205.744L12.7613 205.691L12.7544 204.952L7.03125 205.005L1.30805 205.058L1.31489 205.797L7.03809 205.744ZM7.03125 205.005L12.7544 205.058L12.7613 204.319L7.03809 204.266L1.31489 204.213L1.30805 204.952L7.03125 205.005ZM7.03809 204.266L12.7604 204.377C13.0162 191.221 21.3019 179.528 33.6835 174.946L31.6973 169.578L29.711 164.21C12.9075 170.428 1.66282 186.297 1.31572 204.154L7.03809 204.266ZM31.6973 169.578L33.6835 174.946L65.5985 163.136L63.6123 157.769L61.6261 152.401L29.711 164.21L31.6973 169.578ZM63.6123 157.769L65.5985 163.136C87.4323 155.057 101.781 149.639 112.176 144.812L109.766 139.621L107.355 134.43C97.4655 139.022 83.5961 144.271 61.6261 152.401L63.6123 157.769ZM109.766 139.621L112.176 144.812C122.306 140.109 127.765 136.369 132.096 132.038L128.049 127.991L124.002 123.944C120.949 126.997 116.779 130.054 107.355 134.43L109.766 139.621ZM128.049 127.991L132.096 132.038C136.427 127.707 140.166 122.249 144.87 112.118L139.679 109.708L134.488 107.298C130.112 116.722 127.054 120.891 124.002 123.944L128.049 127.991ZM139.679 109.708L144.87 112.118C149.696 101.723 155.115 87.3746 163.194 65.5409L157.826 63.5547L152.458 61.5684C144.329 83.5384 139.079 97.4079 134.488 107.298L139.679 109.708ZM157.826 63.5547L163.194 65.5409L175.003 33.6259L169.636 31.6396L164.268 29.6534L152.458 61.5685L157.826 63.5547ZM169.636 31.6396L175.003 33.6259C179.658 21.0474 191.651 12.6961 205.062 12.6961V6.97266V1.24921C186.861 1.24922 170.584 12.5836 164.268 29.6534L169.636 31.6396Z" fill="white"/>
</g>
<defs>
<clipPath id="clip0_1476_29330">
<rect width="500" height="500" fill="white" transform="translate(0.625 0.421875)"/>
</clipPath>
</defs>
</svg>
