<svg width="501" height="297" viewBox="0 0 501 297" fill="none" xmlns="http://www.w3.org/2000/svg">
<g clip-path="url(#clip0_1776_21647)">
<path d="M6.23805 295.921V296.534C3.55645 296.534 1.0789 293.56 1.0789 290.879C1.0789 283.067 0.466797 283.067 0.466797 275.265C0.466797 272.584 3.55646 270.816 6.24776 270.816V270.641C8.92935 270.641 11.5818 272.574 11.5818 275.256C11.5818 280.463 11.5786 285.668 11.5721 290.869C11.5721 293.551 8.93907 295.912 6.25748 295.912L6.23805 295.921Z" fill="white"/>
<path d="M60.5011 295.554C59.957 295.554 59.957 295.777 59.4227 295.777C56.7411 295.777 53.6611 293.057 53.6611 290.375C53.6611 267.533 54.6522 267.533 54.6522 244.691C54.6522 242.009 56.7314 240.688 59.413 240.688C59.957 240.688 59.957 238.891 60.4914 238.891C63.173 238.891 64.6012 242.009 64.6012 244.691C64.6012 267.533 64.7276 267.533 64.7276 290.375C64.7276 293.057 63.173 295.554 60.4914 295.554H60.5011Z" fill="white"/>
<path d="M114.764 294.729C113.686 294.729 113.686 293.786 112.607 293.786C109.926 293.786 107.847 292.552 107.847 289.871C107.847 270.934 108.711 270.934 108.711 251.988C108.711 233.042 108.439 233.052 108.439 214.106C108.439 211.424 109.926 209.812 112.607 209.812C113.686 209.812 113.686 208.49 114.764 208.49C117.446 208.49 119.447 211.424 119.447 214.106C119.447 233.042 119.661 233.042 119.661 251.988C119.661 270.934 119.788 270.925 119.788 289.871C119.788 292.552 117.456 294.729 114.764 294.729Z" fill="white"/>
<path d="M169.038 295.185C167.415 295.185 167.415 295.029 165.802 295.029C163.121 295.029 160.721 292.037 160.721 289.355C160.721 271.721 161.294 271.721 161.294 254.077C161.294 236.432 160.167 236.432 160.167 218.798C160.167 201.164 160.556 201.154 160.556 183.52C160.556 180.838 163.121 178.817 165.802 178.817C167.425 178.817 167.425 178.186 169.038 178.186C171.719 178.186 174.449 180.838 174.449 183.52C174.449 201.154 173.458 201.154 173.458 218.798C173.458 236.442 174.624 236.442 174.624 254.077C174.624 271.711 174.216 271.721 174.216 289.355C174.216 292.037 171.719 295.175 169.038 295.175V295.185Z" fill="white"/>
<path d="M223.301 294.214C221.144 294.214 221.144 293.476 218.987 293.476C216.305 293.476 214.692 291.542 214.692 288.861C214.692 271.877 214.391 271.877 214.391 254.884C214.391 237.891 213.73 237.901 213.73 220.908C213.73 203.914 214.411 203.914 214.411 186.931C214.411 169.948 214.79 169.938 214.79 152.955C214.79 150.273 216.305 147.125 218.987 147.125C221.144 147.125 221.144 147.601 223.301 147.601C225.982 147.601 228.003 150.263 228.003 152.945C228.003 169.928 228.848 169.928 228.848 186.921C228.848 203.914 227.508 203.905 227.508 220.898C227.508 237.891 227.721 237.891 227.721 254.874C227.721 271.858 228.333 271.868 228.333 288.851C228.333 291.533 225.982 294.204 223.301 294.204V294.214Z" fill="white"/>
<path d="M277.564 293.107C274.863 293.107 274.863 293.661 272.162 293.661C269.48 293.661 267.557 291.038 267.557 288.356C267.557 271.761 267.207 271.761 267.207 255.166C267.207 238.572 266.896 238.572 266.896 221.967C266.896 205.363 266.702 205.372 266.702 188.778C266.702 172.183 267.362 172.183 267.362 155.578C267.362 138.974 266.624 138.984 266.624 122.379C266.624 119.698 269.48 117.502 272.162 117.502C274.844 117.502 274.863 117.074 277.564 117.074C280.265 117.074 282.733 119.698 282.733 122.379C282.733 138.974 282.51 138.974 282.51 155.569C282.51 172.163 282.82 172.163 282.82 188.768C282.82 205.372 282.927 205.363 282.927 221.957C282.927 238.552 282.966 238.552 282.966 255.157C282.966 271.761 283.054 271.751 283.054 288.356C283.054 291.038 280.246 293.107 277.564 293.107Z" fill="white"/>
<path d="M331.837 292.173C328.602 292.173 328.602 293.398 325.357 293.398C322.675 293.398 320.314 290.531 320.314 287.84C320.314 271.508 319.838 271.508 319.838 255.165C319.838 238.823 320.411 238.833 320.411 222.491C320.411 206.149 320.042 206.149 320.042 189.816C320.042 173.484 320.207 173.484 320.207 157.142C320.207 140.8 319.993 140.8 319.993 124.467C319.993 108.135 321.344 108.125 321.344 91.7925C321.344 89.1109 322.665 87.1191 325.347 87.1191C328.582 87.1191 328.582 87.3426 331.827 87.3426C334.509 87.3426 335.859 89.1206 335.859 91.8022C335.859 108.135 337.249 108.135 337.249 124.477C337.249 140.819 337.22 140.809 337.22 157.151C337.22 173.494 337.453 173.494 337.453 189.826C337.453 206.158 336.617 206.158 336.617 222.501C336.617 238.843 336.199 238.843 336.199 255.175C336.199 271.508 337.463 271.517 337.463 287.85C337.463 290.531 334.509 292.173 331.827 292.173H331.837Z" fill="white"/>
<path d="M386.101 292.135C382.321 292.135 382.321 293.039 378.542 293.039C375.86 293.039 373.12 290.027 373.12 287.345C373.12 268.506 374.063 268.506 374.063 249.657C374.063 230.808 373.217 230.818 373.217 211.969C373.217 193.12 374.257 193.13 374.257 174.281C374.257 155.432 374.597 155.442 374.597 136.593C374.597 117.744 373.217 117.744 373.217 98.9051C373.217 80.066 374.208 80.0562 374.208 61.2171C374.208 58.5355 375.85 57.1947 378.542 57.1947C382.321 57.1947 382.321 55.9316 386.101 55.9316C388.782 55.9316 391.648 58.5355 391.648 61.2171C391.648 80.0562 391.852 80.0562 391.852 98.9051C391.852 117.754 391.211 117.744 391.211 136.593C391.211 155.442 391.716 155.432 391.716 174.281C391.716 193.13 390.21 193.12 390.21 211.969C390.21 230.818 391.415 230.818 391.415 249.657C391.415 268.496 390.667 268.506 390.667 287.345C390.667 290.027 388.782 292.135 386.101 292.135Z" fill="white"/>
<path d="M440.364 291.708C436.05 291.708 436.05 291.912 431.726 291.912C429.045 291.912 427.714 289.512 427.714 286.83C427.714 268.535 427.354 268.535 427.354 250.24C427.354 231.945 427.5 231.945 427.5 213.64C427.5 195.335 426.344 195.345 426.344 177.04C426.344 158.736 426.878 158.736 426.878 140.441C426.878 122.146 427.791 122.146 427.791 103.841C427.791 85.536 426.596 85.536 426.596 67.2409C426.596 48.9459 426.344 48.9362 426.344 30.6411C426.344 27.9595 429.055 25.3945 431.736 25.3945C436.05 25.3945 436.05 26.3856 440.374 26.3856C443.055 26.3856 445.669 27.9498 445.669 30.6314C445.669 48.9265 445.105 48.9265 445.105 67.2215C445.105 85.5166 445.222 85.5166 445.222 103.821C445.222 122.126 445.805 122.116 445.805 140.421C445.805 158.726 444.58 158.726 444.58 177.021C444.58 195.316 445.562 195.316 445.562 213.621C445.562 231.926 445.853 231.926 445.853 250.221C445.853 268.516 446.057 268.525 446.057 286.82C446.057 289.502 443.065 291.688 440.383 291.688L440.364 291.708Z" fill="white"/>
<path d="M500.457 0.0546378C500.457 17.9416 500.156 17.9416 500.156 35.8383C500.156 53.735 498.737 53.7253 498.737 71.6123C498.737 89.4993 500.224 89.4993 500.224 107.396C500.224 125.293 499.991 125.283 499.991 143.18C499.991 161.076 500.195 161.076 500.195 178.963C500.195 196.85 499.524 196.86 499.524 214.747C499.524 232.634 498.912 232.644 498.912 250.54C498.912 268.437 499.233 268.437 499.233 286.334C499.233 289.015 497.319 290.9 494.637 290.9C489.779 290.9 489.779 290.347 484.921 290.347C482.24 290.347 479.879 289.015 479.879 286.324C479.879 268.437 479.685 268.437 479.685 250.54C479.685 232.644 480.19 232.653 480.19 214.766C480.19 196.879 479.947 196.879 479.947 178.983C479.947 161.086 479.976 161.096 479.976 143.199C479.976 125.302 480.51 125.302 480.51 107.415C480.51 89.5284 479.714 89.5187 479.714 71.6317C479.714 53.7447 480.928 53.735 480.928 35.8383C480.928 17.9416 480.87 17.9416 480.87 0.0449219" fill="white"/>
</g>
<defs>
<clipPath id="clip0_1776_21647">
<rect width="500" height="296.481" fill="white" transform="translate(0.457031 0.0546875)"/>
</clipPath>
</defs>
</svg>
