<svg width="501" height="491" viewBox="0 0 501 491" fill="none" xmlns="http://www.w3.org/2000/svg">
<g clip-path="url(#clip0_1776_21668)">
<path d="M499.118 234.251C500.156 238.422 501.43 242.611 500.626 246.86C498.961 255.885 498.863 265.42 492.144 272.879C487.579 277.969 482.192 281.415 476.099 284.606C471.026 287.269 465.678 288.13 460.839 288.17C453.884 288.228 446.381 289.207 439.662 284.959C436.919 283.216 433.432 282.531 430.494 280.671C426.556 278.185 424.029 274.171 420.052 271.783C419.837 271.646 419.601 271.352 419.582 271.117C419.17 265.322 414.273 260.799 414.821 254.769C415.115 251.539 413.019 248.896 413.176 245.548C413.666 235.211 416.134 225.52 422.031 217.062C425.851 211.58 431.042 207.273 437.722 205.276C438.251 205.119 439.074 205.256 439.329 204.923C441.875 201.478 445.225 201.771 449.104 201.791C454.511 201.83 459.938 201.497 465.364 201.967C468.694 202.261 471.731 202.339 475.002 204.18C482.172 208.213 489.382 212.128 494.044 219.02C497.061 223.464 498.432 228.848 499.059 234.232L499.118 234.251Z" fill="white"/>
<path d="M124.339 27.8602C128.512 26.8225 132.704 25.55 136.955 26.3527C145.987 28.0168 155.527 28.1147 162.991 34.83C168.084 39.3917 171.532 44.7757 174.725 50.8644C177.39 55.9352 178.252 61.28 178.291 66.1158C178.35 73.066 179.329 80.5644 175.078 87.2797C173.334 90.0207 172.649 93.5056 170.788 96.4423C168.3 100.377 164.284 102.903 161.894 106.877C161.757 107.093 161.463 107.328 161.228 107.347C155.429 107.758 150.904 112.653 144.87 112.105C141.638 111.811 138.993 113.906 135.643 113.749C125.299 113.26 115.602 110.793 107.139 104.9C101.654 101.082 97.3442 95.8941 95.346 89.218C95.1892 88.6894 95.3264 87.8671 94.9933 87.6126C91.5455 85.0674 91.8393 81.7195 91.8589 77.8431C91.8981 72.4395 91.5651 67.0164 92.0352 61.5932C92.3291 58.265 92.4074 55.2304 94.2489 51.9608C98.2845 44.7952 102.203 37.5905 109.098 32.9309C113.545 29.9159 118.933 28.5454 124.32 27.9189L124.339 27.8602Z" fill="white"/>
<path d="M280.04 442.68C277.827 446.36 275.75 450.217 272.185 452.665C264.623 457.872 257.805 464.529 247.775 465.077C240.958 465.449 234.709 464.079 228.146 462.042C222.68 460.339 218.272 457.168 214.825 453.781C209.868 448.906 203.854 444.285 202.111 436.552C201.405 433.38 199.427 430.424 198.663 427.037C197.644 422.495 198.682 417.874 197.566 413.371C197.507 413.117 197.566 412.745 197.703 412.569C201.523 408.183 201.229 401.527 205.911 397.65C208.419 395.575 208.791 392.227 211.279 389.975C218.939 383.006 227.539 377.896 237.686 376.095C244.269 374.92 250.988 375.546 257.12 378.836C257.61 379.09 258.099 379.775 258.491 379.717C262.723 379.09 264.878 381.655 267.62 384.415C271.421 388.272 275.495 391.855 279.002 396.025C281.157 398.59 283.233 400.783 284.252 404.405C286.466 412.314 288.797 420.185 287.23 428.368C286.211 433.635 283.371 438.412 280.001 442.66L280.04 442.68Z" fill="white"/>
<path d="M257.435 4.81622C257.435 37.4529 256.651 37.4529 256.651 70.0896C256.651 102.726 257.983 102.726 257.983 135.363C257.983 137.477 255.632 139.983 253.517 139.983C242.664 139.983 242.664 139.24 231.811 139.24C229.695 139.24 228.696 137.477 228.696 135.363C228.696 102.726 228.539 102.726 228.539 70.0896C228.539 37.4529 227.383 37.4529 227.383 4.81622C227.383 2.70178 229.695 0 231.83 0C242.683 0 242.683 1.0768 253.536 1.0768C255.652 1.0768 257.454 2.6822 257.454 4.81622H257.435Z" fill="white"/>
<path d="M16.866 1.23242C27.7189 1.23242 27.7189 1.76103 38.5719 1.76103C40.6876 1.76103 42.3136 2.77909 42.3136 4.91311C42.3136 37.6477 41.4908 37.6477 41.4908 70.3823C41.4908 103.117 41.961 103.117 41.961 135.851C41.961 137.966 40.7072 140.648 38.5915 140.648C27.7385 140.648 27.7385 139.513 16.8856 139.513C14.7698 139.513 13.7316 137.966 13.7316 135.851C13.7316 103.117 13.614 103.117 13.614 70.3823C13.614 37.6477 14.0058 37.6477 14.0058 4.91311C14.0058 2.79867 14.7502 1.23242 16.866 1.23242Z" fill="white"/>
<path d="M365.612 4.81556C365.612 37.3935 364.809 37.3935 364.809 69.9519C364.809 102.53 364.397 102.53 364.397 135.088C364.397 137.203 362.928 138.025 360.812 138.025C350.018 138.025 350.018 138.28 339.204 138.28C337.088 138.28 336.031 137.203 336.031 135.069C336.031 102.491 334.973 102.491 334.973 69.9323C334.973 37.374 336.089 37.3544 336.089 4.79598C336.089 2.68154 337.088 0.273438 339.224 0.273438C350.018 0.273438 350.018 0.390906 360.832 0.390906C362.947 0.390906 365.612 2.66197 365.612 4.79598V4.81556Z" fill="white"/>
<path d="M231.809 177.573C242.603 177.573 242.603 177.338 253.417 177.338C255.533 177.338 258.099 178.473 258.099 180.607C258.099 212.853 257.864 212.853 257.864 245.078C257.864 277.323 256.473 277.323 256.473 309.549C256.473 311.663 255.552 313.934 253.417 313.934C242.623 313.934 242.623 313.504 231.809 313.504C229.693 313.504 227.068 311.663 227.068 309.529C227.068 277.284 227.911 277.284 227.911 245.059C227.911 212.813 228.831 212.813 228.831 180.588C228.831 178.473 229.693 177.553 231.809 177.553V177.573Z" fill="white"/>
<path d="M149.551 180.511C149.551 212.776 150.491 212.776 150.491 245.041C150.491 266.55 150.511 288.06 150.55 309.57C150.55 311.684 148.101 312.937 145.966 312.937C135.171 312.937 135.171 314.151 124.358 314.151C122.242 314.151 120.048 311.684 120.048 309.57C120.048 277.305 120.929 277.305 120.929 245.041C120.929 212.776 119.558 212.776 119.558 180.511C119.558 178.397 122.242 175.891 124.358 175.891C135.152 175.891 135.152 177.398 145.966 177.398C148.081 177.398 149.551 178.377 149.551 180.491V180.511Z" fill="white"/>
<path d="M364.925 180.49C364.925 212.755 365.277 212.755 365.277 245.019C365.277 277.284 364.219 277.284 364.219 309.549C364.219 311.663 362.946 313.484 360.811 313.484C350.016 313.484 350.016 312.897 339.203 312.897C337.087 312.897 335.833 311.663 335.833 309.549C335.833 277.284 336.186 277.284 336.186 245.019C336.186 212.755 335.774 212.755 335.774 180.49C335.774 178.375 337.087 177.22 339.222 177.22C350.016 177.22 350.016 175.752 360.83 175.752C362.946 175.752 364.925 178.375 364.925 180.509V180.49Z" fill="white"/>
<path d="M124.28 351.857C135.133 351.857 135.133 353.091 145.986 353.091C148.101 353.091 149.473 354.07 149.473 356.204C149.473 388.488 150.628 388.488 150.628 420.772C150.628 453.057 149.531 453.057 149.531 485.341C149.531 487.455 148.121 489.198 145.986 489.198C135.133 489.198 135.133 489.041 124.28 489.041C122.164 489.041 119.617 487.455 119.617 485.341C119.617 453.057 120.616 453.057 120.616 420.772C120.616 388.488 119.793 388.488 119.793 356.204C119.793 354.089 122.144 351.857 124.28 351.857Z" fill="white"/>
<path d="M364.024 356.204C364.024 388.489 365.258 388.489 365.258 420.773C365.258 453.057 365.023 453.057 365.023 485.341C365.023 487.456 363.084 490.138 360.948 490.138C350.095 490.138 350.095 489.159 339.242 489.159C337.127 489.159 335.305 487.475 335.305 485.341C335.305 453.057 335.462 453.057 335.462 420.773C335.462 388.489 334.6 388.489 334.6 356.204C334.6 354.09 337.127 352.465 339.262 352.465C350.115 352.465 350.115 353.326 360.968 353.326C363.084 353.326 364.044 354.07 364.044 356.204H364.024Z" fill="white"/>
<path d="M16.8663 177.377C27.7193 177.377 27.7193 176.398 38.5722 176.398C40.688 176.398 43.3914 178.493 43.3914 180.608C43.3914 212.872 41.9613 212.872 41.9613 245.137C41.9613 277.402 42.9604 277.402 42.9604 309.667C42.9604 311.781 40.7076 314.17 38.5918 314.17C27.7389 314.17 27.7389 313.112 16.8859 313.112C14.7702 313.112 12.772 311.801 12.772 309.686C12.772 277.421 13.1442 277.421 13.1442 245.157C13.1442 212.892 12.9483 212.892 12.9483 180.627C12.9483 178.513 14.7702 177.397 16.8859 177.397L16.8663 177.377Z" fill="white"/>
<path d="M16.8662 353.19C27.7191 353.19 27.7191 353.111 38.5721 353.111C40.6878 353.111 41.7653 354.071 41.7653 356.205C41.7653 388.469 42.9407 388.469 42.9407 420.734C42.9407 452.999 43.3717 452.999 43.3717 485.264C43.3717 487.378 40.6878 488.631 38.5525 488.631C27.6996 488.631 27.6996 489.12 16.8466 489.12C14.7309 489.12 13.0069 487.398 13.0069 485.264C13.0069 452.999 12.1646 452.999 12.1646 420.734C12.1646 388.469 13.1832 388.469 13.1832 356.205C13.1832 354.09 14.7113 353.19 16.8466 353.19H16.8662Z" fill="white"/>
<path d="M446.597 1.37109C456.921 1.37109 456.921 1.44941 467.245 1.44941C469.341 1.44941 471.437 2.76114 471.437 4.856C471.437 26.0526 471.437 47.2491 471.437 68.4457C471.437 100.241 471.75 100.241 471.75 132.035C471.75 134.13 469.341 136.225 467.245 136.225C456.921 136.225 456.921 136.715 446.597 136.715C444.5 136.715 443.678 134.13 443.678 132.035C443.678 100.241 443.208 100.241 443.208 68.4457C443.208 36.6508 443.501 36.6508 443.501 4.856C443.501 2.76114 444.5 1.37109 446.597 1.37109Z" fill="white"/>
<path d="M471.672 356.204C471.672 388.469 471.946 388.469 471.946 420.733C471.946 452.998 472.259 452.998 472.259 485.263C472.259 487.377 469.556 488.415 467.44 488.415C457.038 488.415 457.038 489.981 446.655 489.981C444.539 489.981 442.992 487.377 442.992 485.263C442.992 452.998 442.737 452.998 442.737 420.733C442.737 388.469 441.875 388.469 441.875 356.204C441.875 354.09 444.52 352.562 446.655 352.562C457.057 352.562 457.057 353.052 467.44 353.052C469.556 353.052 471.672 354.07 471.672 356.204Z" fill="white"/>
</g>
<defs>
<clipPath id="clip0_1776_21668">
<rect width="500" height="490.157" fill="white" transform="translate(0.881348)"/>
</clipPath>
</defs>
</svg>
