<svg width="514" height="501" viewBox="0 0 514 501" fill="none" xmlns="http://www.w3.org/2000/svg">
<path d="M170.999 160.582C162.004 160.493 153.371 162.279 144.754 163.539C135.907 164.828 126.874 164.843 118.531 167.444C110.039 170.089 102.674 175.335 94.8197 179.247C86.8765 183.204 77.8589 185.383 70.6863 190.518C63.4766 195.675 56.4967 201.521 50.1836 207.76C43.8705 213.999 39.6915 222.283 34.3935 229.485C29.1252 236.658 23.7606 243.793 19.626 251.803C15.5358 259.724 10.1489 267.386 7.2962 276.011C4.48792 284.48 3.81363 293.816 2.32428 302.834C0.871978 311.614 0.960894 320.684 0.871978 329.857C0.783061 339.03 1.37584 347.959 2.65772 356.74C3.97665 365.75 7.33325 373.989 9.99334 382.459C12.6979 391.076 15.4691 399.345 19.4555 407.266C23.4864 415.269 28.4954 422.353 33.7118 429.525C38.9505 436.728 43.337 444.478 49.6501 450.717C55.9632 456.956 62.6986 462.728 69.9676 467.885C77.1994 473.02 83.8756 479.437 91.9225 483.387C99.888 487.291 109.158 488.692 117.797 491.345C126.281 493.945 134.817 497.228 143.835 498.51C152.616 499.762 161.804 500.11 170.977 500.014C180.15 499.925 189.405 499.799 198.185 498.376C207.203 496.917 215.087 491.315 223.571 488.566C232.203 485.772 240.873 483.69 248.838 479.674C256.885 475.614 264.68 471.323 271.912 466.129C279.173 460.913 286.42 455.645 292.733 449.398C299.046 443.159 304.085 435.824 309.331 428.673C314.547 421.56 318.712 413.891 322.743 405.985C326.729 398.167 331.694 390.684 334.405 382.214C337.066 373.893 339.577 365.261 340.896 356.421C342.178 347.811 342.823 338.816 342.734 329.82C342.645 320.825 338.74 312.311 337.288 303.701C335.798 294.861 336.065 285.799 333.257 277.471C330.404 269.001 326.67 260.865 322.58 253.048C318.445 245.149 315.162 236.51 309.894 229.389C304.604 222.239 295.616 218.222 289.303 211.983C282.989 205.744 277.803 198.342 270.593 193.126C263.42 187.939 255.388 184.101 247.452 180.04C239.598 176.024 231.685 172.09 223.193 169.289C214.85 166.54 206.403 163.472 197.563 162.012C188.945 160.59 180.009 162.094 171.014 162.005C170.977 162.005 170.999 160.56 170.999 160.56V160.582Z" fill="white" fill-opacity="0.7"/>
<path d="M341.571 2.28516C341.57 2.38787 341.57 2.50207 341.569 2.61621C341.569 2.79741 341.57 2.98175 341.573 3.12207C341.575 3.19115 341.576 3.25541 341.58 3.30469C341.582 3.32735 341.585 3.35813 341.59 3.3877C341.592 3.39946 341.597 3.43158 341.611 3.46777C341.618 3.48401 341.635 3.5249 341.669 3.56836C341.7 3.60764 341.795 3.70733 341.957 3.70898V3.70996C346.467 3.75454 350.975 3.39922 355.393 3.21289C359.822 3.02606 364.18 3.00697 368.45 3.71191C377.254 5.1657 385.665 8.22041 394.024 10.9746C402.486 13.7655 410.376 17.6879 418.23 21.7041C426.18 25.7718 434.18 29.595 441.323 34.7607C444.896 37.346 447.975 40.4776 450.957 43.7549C453.931 47.0232 456.824 50.4527 459.989 53.5811C463.172 56.7263 467.031 59.3128 470.712 61.9785C474.407 64.6548 477.936 67.4181 480.544 70.9434C483.158 74.4772 485.285 78.3949 487.277 82.4258C489.263 86.4429 491.13 90.6037 493.198 94.5547C497.283 102.361 501.009 110.478 503.854 118.923V118.924C505.244 123.048 505.876 127.363 506.346 131.768C506.814 136.16 507.123 140.662 507.87 145.097C508.6 149.425 509.948 153.737 511.111 158.047C512.279 162.37 513.267 166.71 513.311 171.158C513.399 180.134 512.757 189.11 511.478 197.701C510.163 206.51 507.659 215.119 505 223.436C503.654 227.639 501.746 231.605 499.672 235.505C497.606 239.387 495.351 243.245 493.359 247.15C489.33 255.053 485.177 262.7 479.979 269.788C474.723 276.952 469.706 284.256 463.42 290.469V290.47C457.131 296.693 449.906 301.945 442.643 307.163C435.434 312.341 427.658 316.621 419.618 320.678C412.182 324.427 404.147 326.477 396.028 329.03L394.404 329.548C390.134 330.931 386.011 333.035 381.87 334.953C377.716 336.878 373.529 338.624 369.073 339.345C360.325 340.762 351.098 340.889 341.921 340.978H341.92C332.758 341.074 323.59 340.726 314.835 339.478H314.834C305.855 338.201 297.371 334.936 288.854 332.325C284.526 330.996 280.023 329.976 275.649 328.812C271.263 327.643 266.983 326.325 263.033 324.389C259.043 322.43 255.384 319.856 251.812 317.121C248.695 314.735 245.627 312.213 242.482 309.896L241.129 308.918L239.776 307.946C233.041 303.052 226.764 297.626 220.857 291.788C217.724 288.692 215.064 285.214 212.528 281.604C210.004 278.008 207.576 274.24 204.959 270.642C199.743 263.469 194.749 256.407 190.733 248.435C186.762 240.543 183.998 232.298 181.294 223.683C178.705 215.441 175.493 207.504 174.101 198.859L173.972 198.021C172.693 189.26 172.101 180.35 172.189 171.195C172.278 162.009 172.19 152.974 173.637 144.229C175.134 135.164 175.799 125.895 178.595 117.462C180.01 113.183 182.058 109.134 184.269 105.157C186.472 101.193 188.855 97.2726 190.902 93.3076C194.506 86.3264 199.049 80.0103 203.661 73.7305L205.64 71.0391C208.295 67.4291 210.679 63.5356 213.164 59.8008C215.656 56.0554 218.263 52.4505 221.392 49.3584C227.69 43.1338 234.654 37.2995 241.849 32.1533H241.85C245.399 29.6126 249.412 27.797 253.551 26.1182C257.677 24.4444 261.944 22.8999 265.933 20.9131C269.867 18.9532 273.696 16.6502 277.562 14.5293C281.439 12.4018 285.378 10.4434 289.588 9.13184C293.725 7.84211 298.042 7.19132 302.441 6.70215C306.828 6.21443 311.325 5.88586 315.755 5.24023C324.281 3.99389 332.748 2.24827 341.571 2.28516Z" stroke="white" stroke-width="0.740971"/>
<mask id="path-3-inside-1_1476_29345" fill="white">
<path d="M341.946 29.3194C351.216 29.3935 360.589 29.186 369.488 30.9866C378.521 32.8168 386.797 37.4182 395.252 40.9378C403.706 44.4575 412.857 46.999 420.534 52.1339C428.092 57.1873 433.486 65.1157 440.095 71.6585C446.705 78.2013 452.395 85.0775 457.516 92.5836C462.717 100.201 469.06 107.166 472.639 115.576C476.218 123.986 478.233 133.055 480.093 142.058C481.931 150.928 480.915 160.042 480.99 169.289C481.064 178.536 481.849 187.576 480.152 196.446C478.433 205.448 476.67 214.481 473.195 222.891C469.727 231.301 465.333 239.452 460.19 247.069C455.122 254.575 450.224 262.718 443.615 269.253C437.006 275.796 429.24 281.398 421.623 286.451C413.887 291.579 405.67 296.588 397.112 300.115C388.546 303.634 378.913 304.79 369.74 306.621C360.7 308.421 351.364 309.31 341.939 309.384C332.514 309.466 323.6 306.621 314.567 304.953C305.394 303.264 296.013 302.753 287.455 299.344C278.897 295.936 271.413 290.534 263.685 285.458C256.068 280.464 248.88 275.003 242.271 268.468C235.661 261.933 230.482 254.567 225.421 247.009C220.279 239.333 212.713 232.879 209.246 224.358C205.778 215.837 204.422 206.271 202.703 197.12C201.006 188.11 200.547 178.707 200.621 169.311C200.695 159.908 202.31 150.713 204.148 141.703C206.008 132.559 207.838 123.349 211.417 114.828C214.996 106.306 219.071 97.7629 224.273 90.0865C229.393 82.5212 236.632 76.4897 243.241 69.9543C249.851 63.4115 257.157 58.0987 264.722 53.1046C272.399 48.0289 280.327 43.8795 288.782 40.4636C297.236 37.0477 305.231 31.4682 314.264 29.7862C323.163 28.1264 332.684 29.7566 341.954 29.8307M341.946 0.0510377C332.951 -0.0378789 324.319 1.74786 315.701 3.00751C306.854 4.2968 297.821 4.31162 289.478 6.91243C280.987 9.5577 273.621 14.8038 265.767 18.7161C257.824 22.6729 248.806 24.8514 241.634 29.9863C234.424 35.1434 227.444 40.9897 221.131 47.2287C214.818 53.4677 210.639 61.7517 205.341 68.954C200.072 76.1266 194.708 83.2621 190.573 91.272C186.483 99.193 181.096 106.855 178.243 115.48C175.435 123.949 174.761 133.285 173.272 142.303C171.819 151.083 171.908 160.153 171.819 169.326C171.73 178.499 172.323 187.428 173.605 196.208C174.924 205.219 178.281 213.458 180.941 221.928C183.645 230.545 186.416 238.814 190.403 246.735C194.434 254.738 199.443 261.821 204.659 268.994C209.898 276.196 214.284 283.947 220.597 290.186C226.91 296.425 233.646 302.197 240.915 307.354C248.147 312.489 254.823 318.906 262.87 322.855C270.835 326.76 280.105 328.161 288.745 330.813C297.229 333.414 305.765 336.697 314.782 337.978C323.563 339.231 332.751 339.579 341.924 339.483C351.097 339.394 360.352 339.268 369.133 337.845C378.15 336.385 386.034 330.784 394.518 328.035C403.151 325.241 411.82 323.159 419.785 319.143C427.832 315.082 435.627 310.792 442.859 305.598C450.121 300.382 457.367 295.113 463.68 288.867C469.994 282.628 475.032 275.292 480.278 268.142C485.495 261.029 489.659 253.36 493.69 245.453C497.676 237.636 502.641 230.152 505.353 221.683C508.013 213.362 510.525 204.73 511.844 195.89C513.125 187.28 513.77 178.284 513.681 169.289C513.592 160.294 509.687 151.78 508.235 143.17C506.746 134.33 507.012 125.268 504.204 116.939C501.351 108.47 497.617 100.334 493.527 92.5169C489.392 84.6181 486.11 75.9784 480.841 68.8577C475.551 61.7073 466.563 57.6912 460.25 51.4522C453.937 45.2132 448.75 37.8109 441.54 32.5945C434.368 27.4077 426.336 23.5695 418.4 19.5089C410.545 15.4929 402.632 11.5583 394.14 8.75745C385.797 6.00845 377.35 2.94083 368.51 1.48111C359.893 0.0584474 350.956 1.56262 341.961 1.4737C341.924 1.4737 341.946 0.0288086 341.946 0.0288086V0.0510377Z"/>
</mask>
<path d="M341.946 29.3194C351.216 29.3935 360.589 29.186 369.488 30.9866C378.521 32.8168 386.797 37.4182 395.252 40.9378C403.706 44.4575 412.857 46.999 420.534 52.1339C428.092 57.1873 433.486 65.1157 440.095 71.6585C446.705 78.2013 452.395 85.0775 457.516 92.5836C462.717 100.201 469.06 107.166 472.639 115.576C476.218 123.986 478.233 133.055 480.093 142.058C481.931 150.928 480.915 160.042 480.99 169.289C481.064 178.536 481.849 187.576 480.152 196.446C478.433 205.448 476.67 214.481 473.195 222.891C469.727 231.301 465.333 239.452 460.19 247.069C455.122 254.575 450.224 262.718 443.615 269.253C437.006 275.796 429.24 281.398 421.623 286.451C413.887 291.579 405.67 296.588 397.112 300.115C388.546 303.634 378.913 304.79 369.74 306.621C360.7 308.421 351.364 309.31 341.939 309.384C332.514 309.466 323.6 306.621 314.567 304.953C305.394 303.264 296.013 302.753 287.455 299.344C278.897 295.936 271.413 290.534 263.685 285.458C256.068 280.464 248.88 275.003 242.271 268.468C235.661 261.933 230.482 254.567 225.421 247.009C220.279 239.333 212.713 232.879 209.246 224.358C205.778 215.837 204.422 206.271 202.703 197.12C201.006 188.11 200.547 178.707 200.621 169.311C200.695 159.908 202.31 150.713 204.148 141.703C206.008 132.559 207.838 123.349 211.417 114.828C214.996 106.306 219.071 97.7629 224.273 90.0865C229.393 82.5212 236.632 76.4897 243.241 69.9543C249.851 63.4115 257.157 58.0987 264.722 53.1046C272.399 48.0289 280.327 43.8795 288.782 40.4636C297.236 37.0477 305.231 31.4682 314.264 29.7862C323.163 28.1264 332.684 29.7566 341.954 29.8307M341.946 0.0510377C332.951 -0.0378789 324.319 1.74786 315.701 3.00751C306.854 4.2968 297.821 4.31162 289.478 6.91243C280.987 9.5577 273.621 14.8038 265.767 18.7161C257.824 22.6729 248.806 24.8514 241.634 29.9863C234.424 35.1434 227.444 40.9897 221.131 47.2287C214.818 53.4677 210.639 61.7517 205.341 68.954C200.072 76.1266 194.708 83.2621 190.573 91.272C186.483 99.193 181.096 106.855 178.243 115.48C175.435 123.949 174.761 133.285 173.272 142.303C171.819 151.083 171.908 160.153 171.819 169.326C171.73 178.499 172.323 187.428 173.605 196.208C174.924 205.219 178.281 213.458 180.941 221.928C183.645 230.545 186.416 238.814 190.403 246.735C194.434 254.738 199.443 261.821 204.659 268.994C209.898 276.196 214.284 283.947 220.597 290.186C226.91 296.425 233.646 302.197 240.915 307.354C248.147 312.489 254.823 318.906 262.87 322.855C270.835 326.76 280.105 328.161 288.745 330.813C297.229 333.414 305.765 336.697 314.782 337.978C323.563 339.231 332.751 339.579 341.924 339.483C351.097 339.394 360.352 339.268 369.133 337.845C378.15 336.385 386.034 330.784 394.518 328.035C403.151 325.241 411.82 323.159 419.785 319.143C427.832 315.082 435.627 310.792 442.859 305.598C450.121 300.382 457.367 295.113 463.68 288.867C469.994 282.628 475.032 275.292 480.278 268.142C485.495 261.029 489.659 253.36 493.69 245.453C497.676 237.636 502.641 230.152 505.353 221.683C508.013 213.362 510.525 204.73 511.844 195.89C513.125 187.28 513.77 178.284 513.681 169.289C513.592 160.294 509.687 151.78 508.235 143.17C506.746 134.33 507.012 125.268 504.204 116.939C501.351 108.47 497.617 100.334 493.527 92.5169C489.392 84.6181 486.11 75.9784 480.841 68.8577C475.551 61.7073 466.563 57.6912 460.25 51.4522C453.937 45.2132 448.75 37.8109 441.54 32.5945C434.368 27.4077 426.336 23.5695 418.4 19.5089C410.545 15.4929 402.632 11.5583 394.14 8.75745C385.797 6.00845 377.35 2.94083 368.51 1.48111C359.893 0.0584474 350.956 1.56262 341.961 1.4737C341.924 1.4737 341.946 0.0288086 341.946 0.0288086V0.0510377Z" fill="white"/>
<path d="M369.488 30.9866L369.635 30.2604L369.635 30.2603L369.488 30.9866ZM420.534 52.1339L420.122 52.7498L420.122 52.7499L420.534 52.1339ZM457.516 92.5836L456.903 93.0011L456.904 93.0014L457.516 92.5836ZM480.093 142.058L479.367 142.208L479.367 142.209L480.093 142.058ZM480.152 196.446L479.424 196.306L479.424 196.307L480.152 196.446ZM473.195 222.891L472.51 222.608L472.51 222.608L473.195 222.891ZM460.19 247.069L460.805 247.483L460.805 247.483L460.19 247.069ZM443.615 269.253L443.094 268.727L443.094 268.727L443.615 269.253ZM421.623 286.451L422.032 287.069L422.033 287.069L421.623 286.451ZM397.112 300.115L397.393 300.8L397.394 300.8L397.112 300.115ZM369.74 306.621L369.885 307.347L369.885 307.347L369.74 306.621ZM341.939 309.384L341.933 308.643H341.932L341.939 309.384ZM314.567 304.953L314.702 304.225L314.702 304.225L314.567 304.953ZM263.685 285.458L264.092 284.839L264.091 284.839L263.685 285.458ZM225.421 247.009L226.037 246.597L226.037 246.597L225.421 247.009ZM202.703 197.12L203.431 196.983L203.431 196.983L202.703 197.12ZM200.621 169.311L201.362 169.317L200.621 169.311ZM204.148 141.703L204.874 141.851L204.874 141.85L204.148 141.703ZM224.273 90.0865L224.886 90.5021L224.886 90.5018L224.273 90.0865ZM243.241 69.9543L243.762 70.4812L243.763 70.4809L243.241 69.9543ZM264.722 53.1046L265.13 53.723L265.131 53.7227L264.722 53.1046ZM314.264 29.7862L314.399 30.5147L314.399 30.5146L314.264 29.7862ZM341.946 0.0510377L341.939 0.791973L342.687 0.79937V0.0510377H341.946ZM315.701 3.00751L315.808 3.74074L315.808 3.74069L315.701 3.00751ZM289.478 6.91243L289.698 7.61987L289.699 7.61983L289.478 6.91243ZM265.767 18.7161L265.437 18.0529L265.437 18.0529L265.767 18.7161ZM241.634 29.9863L242.065 30.5889L242.065 30.5888L241.634 29.9863ZM205.341 68.954L204.744 68.5149L204.744 68.5153L205.341 68.954ZM190.573 91.272L191.232 91.612L191.232 91.6119L190.573 91.272ZM178.243 115.48L178.947 115.713L178.947 115.712L178.243 115.48ZM173.272 142.303L174.003 142.424L174.003 142.423L173.272 142.303ZM173.605 196.208L172.872 196.315L172.872 196.316L173.605 196.208ZM180.941 221.928L181.648 221.706L181.648 221.706L180.941 221.928ZM190.403 246.735L189.741 247.068L189.741 247.069L190.403 246.735ZM204.659 268.994L204.06 269.43L204.06 269.43L204.659 268.994ZM240.915 307.354L241.344 306.75L241.344 306.75L240.915 307.354ZM262.87 322.855L262.543 323.52L262.544 323.521L262.87 322.855ZM288.745 330.813L288.527 331.522L288.527 331.522L288.745 330.813ZM314.782 337.978L314.887 337.245L314.887 337.245L314.782 337.978ZM341.924 339.483L341.917 338.742H341.916L341.924 339.483ZM369.133 337.845L369.014 337.114L369.014 337.114L369.133 337.845ZM394.518 328.035L394.29 327.33L394.29 327.33L394.518 328.035ZM419.785 319.143L420.119 319.805L420.119 319.805L419.785 319.143ZM442.859 305.598L443.291 306.2L443.292 306.2L442.859 305.598ZM463.68 288.867L463.16 288.34L463.159 288.34L463.68 288.867ZM480.278 268.142L480.876 268.58L480.876 268.58L480.278 268.142ZM493.69 245.453L493.03 245.117L493.03 245.117L493.69 245.453ZM505.353 221.683L506.058 221.909L506.059 221.909L505.353 221.683ZM511.844 195.89L512.576 195.999L512.576 195.999L511.844 195.89ZM508.235 143.17L507.504 143.293V143.293L508.235 143.17ZM504.204 116.939L503.502 117.176L503.502 117.176L504.204 116.939ZM493.527 92.5169L494.183 92.1734L494.183 92.1732L493.527 92.5169ZM480.841 68.8577L481.437 68.4169V68.4169L480.841 68.8577ZM441.54 32.5945L441.975 31.9942L441.974 31.9941L441.54 32.5945ZM418.4 19.5089L418.737 18.8493L418.737 18.8492L418.4 19.5089ZM394.14 8.75745L394.372 8.05377L394.372 8.0537L394.14 8.75745ZM368.51 1.48111L368.631 0.750042L368.631 0.750037L368.51 1.48111ZM341.961 1.4737L341.968 0.732732H341.961V1.4737ZM341.946 0.0288086H342.687L341.205 0.0174111L341.946 0.0288086ZM341.946 29.3194L341.94 30.0604C351.248 30.1348 360.53 29.9301 369.341 31.7129L369.488 30.9866L369.635 30.2603C360.648 28.442 351.184 28.6523 341.952 28.5785L341.946 29.3194ZM369.488 30.9866L369.341 31.7128C373.785 32.6133 378.059 34.1988 382.295 36.01C384.414 36.9157 386.515 37.8741 388.624 38.8303C390.729 39.7851 392.841 40.737 394.967 41.6219L395.252 40.9378L395.537 40.2538C393.435 39.3788 391.342 38.4357 389.236 37.4807C387.133 36.527 385.015 35.5608 382.878 34.6474C378.605 32.8204 374.224 31.1901 369.635 30.2604L369.488 30.9866ZM395.252 40.9378L394.967 41.6219C399.175 43.3738 403.676 44.9292 407.91 46.6184C412.196 48.3282 416.347 50.2248 420.122 52.7498L420.534 52.1339L420.946 51.518C417.044 48.9081 412.782 46.9665 408.459 45.2419C404.085 43.4967 399.783 42.0215 395.537 40.2538L395.252 40.9378ZM420.534 52.1339L420.122 52.7499C423.824 55.2252 427.013 58.4164 430.122 61.8361C433.21 65.233 436.252 68.8967 439.574 72.1851L440.095 71.6585L440.617 71.1319C437.329 67.8776 434.37 64.3057 431.218 60.8393C428.088 57.3958 424.801 54.0961 420.946 51.518L420.534 52.1339ZM440.095 71.6585L439.574 72.1851C446.149 78.6938 451.81 85.5334 456.903 93.0011L457.516 92.5836L458.128 92.166C452.981 84.6216 447.26 77.7088 440.617 71.1319L440.095 71.6585ZM457.516 92.5836L456.904 93.0014C459.502 96.807 462.437 100.52 465.083 104.214C467.755 107.943 470.199 111.735 471.957 115.866L472.639 115.576L473.321 115.286C471.5 111.007 468.983 107.111 466.288 103.351C463.568 99.5554 460.73 95.9773 458.128 92.1657L457.516 92.5836ZM472.639 115.576L471.957 115.866C475.504 124.2 477.507 133.203 479.367 142.208L480.093 142.058L480.819 141.908C478.959 132.908 476.932 123.772 473.321 115.286L472.639 115.576ZM480.093 142.058L479.367 142.209C480.271 146.57 480.476 151.007 480.462 155.529C480.454 157.791 480.392 160.065 480.336 162.362C480.28 164.656 480.23 166.97 480.249 169.295L480.99 169.289L481.73 169.283C481.712 166.984 481.761 164.692 481.817 162.398C481.873 160.108 481.936 157.816 481.944 155.534C481.958 150.971 481.753 146.416 480.819 141.908L480.093 142.058ZM480.99 169.289L480.249 169.295C480.323 178.622 481.103 187.532 479.424 196.306L480.152 196.446L480.88 196.585C482.595 187.62 481.804 178.451 481.73 169.283L480.99 169.289ZM480.152 196.446L479.424 196.307C477.703 205.32 475.952 214.278 472.51 222.608L473.195 222.891L473.879 223.174C477.388 214.683 479.163 205.577 480.88 196.585L480.152 196.446ZM473.195 222.891L472.51 222.608C469.061 230.971 464.691 239.077 459.576 246.654L460.19 247.069L460.805 247.483C465.974 239.826 470.392 231.631 473.88 223.173L473.195 222.891ZM460.19 247.069L459.576 246.654C454.477 254.207 449.636 262.258 443.094 268.727L443.615 269.253L444.136 269.78C450.813 263.178 455.768 254.943 460.805 247.483L460.19 247.069ZM443.615 269.253L443.094 268.727C436.536 275.218 428.818 280.789 421.213 285.834L421.623 286.451L422.033 287.069C429.662 282.007 437.475 276.374 444.136 269.78L443.615 269.253ZM421.623 286.451L421.214 285.834C413.489 290.954 405.32 295.931 396.829 299.43L397.112 300.115L397.394 300.8C406.02 297.245 414.286 292.204 422.032 287.069L421.623 286.451ZM397.112 300.115L396.83 299.429C388.353 302.913 378.848 304.048 369.595 305.894L369.74 306.621L369.885 307.347C378.978 305.533 388.739 304.356 397.393 300.8L397.112 300.115ZM369.74 306.621L369.595 305.894C360.605 307.685 351.316 308.57 341.933 308.643L341.939 309.384L341.945 310.125C351.412 310.051 360.795 309.158 369.885 307.347L369.74 306.621ZM341.939 309.384L341.932 308.643C337.294 308.684 332.767 308.004 328.252 307.098C323.789 306.203 319.199 305.055 314.702 304.225L314.567 304.953L314.433 305.682C318.968 306.519 323.351 307.627 327.96 308.551C332.516 309.465 337.158 310.167 341.945 310.125L341.939 309.384ZM314.567 304.953L314.702 304.225C310.132 303.383 305.393 302.816 300.903 302.063C296.361 301.301 291.937 300.331 287.729 298.656L287.455 299.344L287.181 300.033C291.532 301.766 296.077 302.756 300.658 303.524C305.291 304.301 309.83 304.834 314.433 305.682L314.567 304.953ZM287.455 299.344L287.729 298.656C279.261 295.283 271.86 289.941 264.092 284.839L263.685 285.458L263.278 286.078C270.966 291.127 278.533 296.589 287.181 300.033L287.455 299.344ZM263.685 285.458L264.091 284.839C256.502 279.863 249.357 274.432 242.792 267.941L242.271 268.468L241.75 268.995C248.404 275.574 255.633 281.065 263.279 286.078L263.685 285.458ZM242.271 268.468L242.792 267.941C236.239 261.462 231.095 254.151 226.037 246.597L225.421 247.009L224.805 247.422C229.869 254.984 235.083 262.403 241.75 268.995L242.271 268.468ZM225.421 247.009L226.037 246.597C223.44 242.72 220.216 239.132 217.28 235.532C214.321 231.905 211.622 228.232 209.932 224.079L209.246 224.358L208.559 224.637C210.337 229.005 213.155 232.82 216.131 236.469C219.13 240.145 222.26 243.622 224.806 247.422L225.421 247.009ZM209.246 224.358L209.932 224.079C206.501 215.647 205.16 206.185 203.431 196.983L202.703 197.12L201.975 197.257C203.684 206.357 205.055 216.027 208.559 224.637L209.246 224.358ZM202.703 197.12L203.431 196.983C201.747 188.038 201.288 178.688 201.362 169.317L200.621 169.311L199.88 169.305C199.806 178.726 200.266 188.181 201.975 197.257L202.703 197.12ZM200.621 169.311L201.362 169.317C201.435 159.99 203.038 150.853 204.874 141.851L204.148 141.703L203.422 141.554C201.583 150.572 199.955 159.827 199.88 169.305L200.621 169.311ZM204.148 141.703L204.874 141.85C206.737 132.69 208.555 123.556 212.1 115.114L211.417 114.828L210.734 114.541C207.121 123.142 205.278 132.428 203.422 141.555L204.148 141.703ZM211.417 114.828L212.1 115.114C215.671 106.611 219.724 98.1195 224.886 90.5021L224.273 90.0865L223.659 89.6708C218.418 97.4064 214.32 106.001 210.734 114.541L211.417 114.828ZM224.273 90.0865L224.886 90.5018C229.952 83.0168 237.091 77.0783 243.762 70.4812L243.241 69.9543L242.72 69.4274C236.173 75.901 228.833 82.0255 223.659 89.6712L224.273 90.0865ZM243.241 69.9543L243.763 70.4809C250.322 63.988 257.582 58.7063 265.13 53.723L264.722 53.1046L264.314 52.4862C256.732 57.4912 249.38 62.835 242.72 69.4277L243.241 69.9543ZM264.722 53.1046L265.131 53.7227C272.765 48.6747 280.65 44.5482 289.059 41.1506L288.782 40.4636L288.504 39.7766C280.004 43.2108 272.032 47.3832 264.314 52.4865L264.722 53.1046ZM288.782 40.4636L289.059 41.1506C293.317 39.4304 297.49 37.1517 301.63 35.1413C305.799 33.1163 309.984 31.3369 314.399 30.5147L314.264 29.7862L314.128 29.0578C309.511 29.9175 305.182 31.7689 300.982 33.8082C296.753 35.862 292.701 38.0809 288.504 39.7766L288.782 40.4636ZM314.264 29.7862L314.399 30.5146C318.764 29.7006 323.302 29.6899 327.936 29.8985C332.537 30.1055 337.3 30.5345 341.948 30.5716L341.954 29.8307L341.96 29.0897C337.338 29.0528 332.705 28.6296 328.003 28.418C323.335 28.208 318.662 28.2121 314.128 29.0578L314.264 29.7862ZM341.946 0.0510377L341.954 -0.689897C332.882 -0.779566 324.154 1.02301 315.594 2.27433L315.701 3.00751L315.808 3.74069C324.483 2.47271 333.02 0.703808 341.939 0.791973L341.946 0.0510377ZM315.701 3.00751L315.594 2.27429C311.184 2.91698 306.766 3.23724 302.319 3.73172C297.898 4.22327 293.498 4.88329 289.258 6.20503L289.478 6.91243L289.699 7.61983C293.802 6.34076 298.09 5.69297 302.482 5.20459C306.849 4.71913 311.371 4.38734 315.808 3.74074L315.701 3.00751ZM289.478 6.91243L289.258 6.20499C284.941 7.54983 280.925 9.55092 277.027 11.6895C273.106 13.8411 269.349 16.1043 265.437 18.0529L265.767 18.7161L266.097 19.3794C270.04 17.4156 273.893 15.0996 277.74 12.9887C281.611 10.8649 285.524 8.92031 289.698 7.61987L289.478 6.91243ZM265.767 18.7161L265.437 18.0529C261.499 20.0143 257.312 21.5272 253.133 23.2228C248.978 24.9083 244.863 26.7631 241.202 29.3838L241.634 29.9863L242.065 30.5888C245.577 28.0746 249.557 26.2727 253.69 24.596C257.798 22.9294 262.092 21.3747 266.097 19.3793L265.767 18.7161ZM241.634 29.9863L241.202 29.3836C233.962 34.5627 226.952 40.4341 220.61 46.7017L221.131 47.2287L221.652 47.7557C227.936 41.5453 234.886 35.7242 242.065 30.5889L241.634 29.9863ZM221.131 47.2287L220.61 46.7017C217.398 49.8756 214.742 53.5573 212.238 57.3196C209.72 61.1034 207.38 64.9316 204.744 68.5149L205.341 68.954L205.938 69.393C208.6 65.7741 210.998 61.8592 213.472 58.1406C215.961 54.4005 218.55 50.8208 221.652 47.7557L221.131 47.2287ZM205.341 68.954L204.744 68.5153C199.486 75.6735 194.082 82.8597 189.915 90.9322L190.573 91.272L191.232 91.6119C195.334 83.6646 200.659 76.5796 205.938 69.3926L205.341 68.954ZM190.573 91.272L189.915 90.9321C187.875 94.8832 185.533 98.7299 183.297 102.752C181.075 106.749 178.988 110.868 177.54 115.247L178.243 115.48L178.947 115.712C180.351 111.466 182.385 107.442 184.592 103.472C186.785 99.5264 189.182 95.5818 191.232 91.612L190.573 91.272ZM178.243 115.48L177.54 115.246C174.708 123.789 174.014 133.258 172.54 142.182L173.272 142.303L174.003 142.423C175.507 133.312 176.163 124.109 178.947 115.713L178.243 115.48ZM173.272 142.303L172.541 142.182C171.077 151.033 171.167 160.171 171.078 169.319L171.819 169.326L172.56 169.333C172.649 160.134 172.562 151.134 174.003 142.424L173.272 142.303ZM171.819 169.326L171.078 169.319C170.989 178.529 171.584 187.496 172.872 196.315L173.605 196.208L174.338 196.101C173.062 187.36 172.472 178.469 172.56 169.333L171.819 169.326ZM173.605 196.208L172.872 196.316C174.202 205.404 177.598 213.757 180.234 222.15L180.941 221.928L181.648 221.706C178.963 213.16 175.646 205.033 174.338 196.101L173.605 196.208ZM180.941 221.928L180.234 222.149C182.939 230.77 185.725 239.089 189.741 247.068L190.403 246.735L191.065 246.402C187.107 238.539 184.351 230.32 181.648 221.706L180.941 221.928ZM190.403 246.735L189.741 247.069C193.802 255.13 198.843 262.257 204.06 269.43L204.659 268.994L205.258 268.558C200.042 261.386 195.066 254.345 191.065 246.402L190.403 246.735ZM204.659 268.994L204.06 269.43C206.683 273.037 209.047 276.714 211.619 280.377C214.169 284.009 216.874 287.548 220.077 290.713L220.597 290.186L221.118 289.659C218.008 286.585 215.363 283.129 212.832 279.525C210.323 275.953 207.874 272.154 205.258 268.558L204.659 268.994ZM220.597 290.186L220.077 290.713C226.415 296.976 233.18 302.775 240.486 307.958L240.915 307.354L241.344 306.75C234.111 301.619 227.406 295.873 221.118 289.659L220.597 290.186ZM240.915 307.354L240.486 307.958C244.09 310.517 247.523 313.372 251.136 316.138C254.727 318.887 258.454 321.513 262.543 323.52L262.87 322.855L263.196 322.19C259.239 320.248 255.604 317.692 252.037 314.961C248.492 312.247 244.971 309.326 241.344 306.75L240.915 307.354ZM262.87 322.855L262.544 323.521C266.593 325.506 270.958 326.847 275.364 328.02C279.795 329.2 284.223 330.2 288.527 331.522L288.745 330.813L288.962 330.105C284.627 328.774 280.099 327.747 275.745 326.588C271.365 325.421 267.112 324.11 263.196 322.19L262.87 322.855ZM288.745 330.813L288.527 331.522C296.945 334.102 305.584 337.419 314.678 338.712L314.782 337.978L314.887 337.245C305.945 335.974 297.512 332.726 288.962 330.105L288.745 330.813ZM314.782 337.978L314.678 338.712C323.508 339.971 332.737 340.32 341.932 340.224L341.924 339.483L341.916 338.742C332.765 338.838 323.617 338.49 314.887 337.245L314.782 337.978ZM341.924 339.483L341.931 340.224C351.096 340.135 360.406 340.01 369.251 338.577L369.133 337.845L369.014 337.114C360.298 338.526 351.098 338.653 341.917 338.742L341.924 339.483ZM369.133 337.845L369.251 338.577C373.867 337.829 378.17 336.026 382.337 334.096C386.532 332.152 390.56 330.096 394.747 328.74L394.518 328.035L394.29 327.33C389.992 328.722 385.836 330.841 381.714 332.751C377.564 334.674 373.416 336.401 369.014 337.114L369.133 337.845ZM394.518 328.035L394.746 328.74C403.306 325.97 412.085 323.855 420.119 319.805L419.785 319.143L419.452 318.481C411.554 322.463 402.995 324.513 394.29 327.33L394.518 328.035ZM419.785 319.143L420.119 319.805C428.179 315.737 436.014 311.427 443.291 306.2L442.859 305.598L442.427 304.996C435.241 310.157 427.485 314.428 419.452 318.481L419.785 319.143ZM442.859 305.598L443.292 306.2C450.548 300.987 457.841 295.687 464.202 289.394L463.68 288.867L463.159 288.34C456.894 294.54 449.693 299.776 442.427 304.996L442.859 305.598ZM463.68 288.867L464.201 289.394C470.568 283.102 475.65 275.703 480.876 268.58L480.278 268.142L479.681 267.704C474.414 274.882 469.419 282.153 463.16 288.34L463.68 288.867ZM480.278 268.142L480.876 268.58C486.129 261.417 490.315 253.703 494.35 245.79L493.69 245.453L493.03 245.117C489.003 253.016 484.86 260.641 479.681 267.704L480.278 268.142ZM493.69 245.453L494.35 245.79C496.346 241.876 498.549 238.116 500.653 234.161C502.74 230.239 504.683 226.206 506.058 221.909L505.353 221.683L504.647 221.457C503.311 225.63 501.416 229.573 499.345 233.465C497.292 237.323 495.02 241.213 493.03 245.117L493.69 245.453ZM505.353 221.683L506.059 221.909C508.721 213.579 511.248 204.9 512.576 195.999L511.844 195.89L511.111 195.78C509.801 204.559 507.304 213.144 504.647 221.457L505.353 221.683ZM511.844 195.89L512.576 195.999C513.864 187.351 514.511 178.317 514.422 169.282L513.681 169.289L512.94 169.296C513.029 178.252 512.387 187.208 511.111 195.781L511.844 195.89ZM513.681 169.289L514.422 169.282C514.377 164.685 513.357 160.232 512.185 155.892C511.005 151.523 509.684 147.305 508.966 143.046L508.235 143.17L507.504 143.293C508.238 147.645 509.596 151.988 510.754 156.278C511.92 160.596 512.897 164.897 512.94 169.296L513.681 169.289ZM508.235 143.17L508.966 143.047C508.226 138.656 507.926 134.233 507.451 129.784C506.979 125.36 506.337 120.946 504.906 116.703L504.204 116.939L503.502 117.176C504.879 121.261 505.508 125.543 505.977 129.941C506.444 134.315 506.755 138.844 507.504 143.293L508.235 143.17ZM504.204 116.939L504.906 116.703C502.037 108.185 498.285 100.012 494.183 92.1734L493.527 92.5169L492.87 92.8604C496.949 100.656 500.665 108.755 503.502 117.176L504.204 116.939ZM493.527 92.5169L494.183 92.1732C492.118 88.2274 490.289 84.1447 488.273 80.0671C486.271 76.0168 484.11 72.0303 481.437 68.4169L480.841 68.8577L480.246 69.2984C482.841 72.8057 484.955 76.6995 486.945 80.7239C488.921 84.721 490.801 88.9076 492.87 92.8605L493.527 92.5169ZM480.841 68.8577L481.437 68.4169C478.718 64.7419 475.065 61.8935 471.364 59.213C467.633 56.5114 463.875 53.9932 460.771 50.9252L460.25 51.4522L459.729 51.9793C462.938 55.1503 466.83 57.7595 470.494 60.4133C474.188 63.0882 477.674 65.823 480.246 69.2984L480.841 68.8577ZM460.25 51.4522L460.771 50.9252C457.632 47.8237 454.792 44.452 451.779 41.1412C448.783 37.8485 445.643 34.6482 441.975 31.9942L441.54 32.5945L441.106 33.1948C444.647 35.7573 447.705 38.8663 450.683 42.1386C453.645 45.3928 456.554 48.8418 459.729 51.9793L460.25 51.4522ZM441.54 32.5945L441.974 31.9941C434.744 26.7651 426.645 22.8956 418.737 18.8493L418.4 19.5089L418.062 20.1686C426.026 24.2434 433.992 28.0503 441.106 33.1949L441.54 32.5945ZM418.4 19.5089L418.737 18.8492C410.884 14.8336 402.924 10.8745 394.372 8.05377L394.14 8.75745L393.908 9.46113C402.339 12.2421 410.207 16.1521 418.062 20.1687L418.4 19.5089ZM394.14 8.75745L394.372 8.0537C386.061 5.31517 377.543 2.22164 368.631 0.750042L368.51 1.48111L368.389 2.21218C377.157 3.66001 385.533 6.70173 393.908 9.46121L394.14 8.75745ZM368.51 1.48111L368.631 0.750037C364.245 0.0259183 359.794 0.0493095 355.346 0.236939C350.874 0.425583 346.441 0.776977 341.968 0.732768L341.961 1.4737L341.954 2.21464C346.477 2.25935 351.01 1.90311 355.409 1.71757C359.832 1.531 364.158 1.51364 368.389 2.21219L368.51 1.48111ZM341.961 1.4737V0.732732C342.289 0.732732 342.479 0.935377 342.54 1.0125C342.608 1.09761 342.639 1.17687 342.65 1.20511C342.674 1.2693 342.683 1.32073 342.684 1.32839C342.689 1.35582 342.69 1.37056 342.689 1.35667C342.687 1.33675 342.685 1.29573 342.684 1.23084C342.681 1.10523 342.68 0.932358 342.681 0.753155C342.681 0.575414 342.683 0.397082 342.684 0.262805C342.685 0.195768 342.686 0.139937 342.686 0.100935C342.687 0.0814379 342.687 0.0661583 342.687 0.0557999C342.687 0.050621 342.687 0.0466732 342.687 0.0440447C342.687 0.0427304 342.687 0.0417461 342.687 0.0411026C342.687 0.0407809 342.687 0.0405444 342.687 0.0403945C342.687 0.0403196 342.687 0.0402663 342.687 0.0402349C342.687 0.0402191 342.687 0.0402119 342.687 0.0402041C342.687 0.0402023 342.687 0.0402061 341.946 0.0288086C341.205 0.0174111 341.205 0.0174259 341.205 0.0174462C341.205 0.0174603 341.205 0.0174861 341.205 0.0175143C341.205 0.0175707 341.205 0.017649 341.205 0.017749C341.205 0.0179492 341.205 0.0182363 341.205 0.018609C341.205 0.0193546 341.205 0.0204427 341.205 0.0218623C341.205 0.0247015 341.205 0.0288672 341.205 0.034271C341.205 0.045078 341.205 0.0608411 341.204 0.080853C341.204 0.120869 341.203 0.17792 341.202 0.246342C341.201 0.382982 341.199 0.565874 341.199 0.749357C341.198 0.931377 341.199 1.11973 341.202 1.26503C341.204 1.3356 341.206 1.40747 341.211 1.46656C341.213 1.49218 341.217 1.53797 341.225 1.58657C341.228 1.6048 341.239 1.66435 341.266 1.73401C341.277 1.76498 341.31 1.84632 341.379 1.93281C341.441 2.01132 341.632 2.21467 341.961 2.21467V1.4737ZM341.946 0.0288086H341.205V0.0510377H341.946H342.687V0.0288086H341.946Z" fill="white" mask="url(#path-3-inside-1_1476_29345)"/>
</svg>
