<svg width="252" height="501" viewBox="0 0 252 501" fill="none" xmlns="http://www.w3.org/2000/svg">
<path d="M127.719 488.881C137.804 488.839 143.307 483.713 143.38 473.68C143.464 463.637 137.982 455.341 127.74 455.268C117.498 455.173 108.166 463.438 108.26 473.649C108.344 483.859 117.644 490.534 127.719 490.461M127.708 500.347C114.715 500.514 101.272 487.019 101.115 473.638C100.958 460.268 114.432 450.037 127.75 450.194C141.068 450.309 150.682 460.624 150.525 473.67C150.379 486.726 141.057 498.61 128.043 498.715C126.568 499.071 127.708 500.347 127.708 500.337V500.347Z" fill="white"/>
<path d="M124.46 405.731C140.655 405.584 155.406 397.905 166.819 386.607C178.233 375.308 183.234 360.609 183.359 344.456C183.485 328.304 179.792 312.538 168.378 301.25C156.964 289.951 140.906 282.209 124.428 282.063C107.962 281.916 94.6334 292.148 83.2196 303.457C71.8059 314.756 64.6815 328.042 64.8175 344.467C64.9535 360.892 68.4163 378.122 79.8405 389.41C91.2647 400.699 108.255 402.121 124.46 401.996M124.46 417.406C111.037 417.542 98.1799 415.523 87.2997 409.371C76.0743 403.021 65.2987 394.223 58.6974 382.924C52.2948 371.971 51.144 358.161 51.008 344.467C50.872 330.773 55.1927 318.982 61.4697 308.05C67.9351 296.751 74.097 283.904 85.4585 277.564C96.4642 271.413 110.755 269.299 124.439 269.435C138.133 269.582 149.62 276.696 160.615 282.983C171.966 289.48 185.242 295.077 191.708 306.24C197.974 317.057 200.768 331.055 200.632 344.467C200.496 357.889 195.61 370.83 189.218 381.648C182.616 392.811 172.134 400.971 160.908 407.457C150.028 413.744 138.091 415.146 124.669 415.282C124.219 415.261 124.47 417.417 124.47 417.417L124.46 417.406Z" fill="white"/>
<path d="M127.008 226.147C140.692 226.032 154.637 224.85 166.93 219.734C179.222 214.618 189.14 204.753 198.89 195.107C208.641 185.461 218.768 175.69 223.978 163.46C229.188 151.23 228.204 137.254 228.319 123.601C228.434 109.959 225.965 97.4885 220.912 85.2587C215.87 73.029 211.068 60.2134 201.307 50.5677C191.557 40.922 179.327 34.1951 166.878 29.0793C154.428 23.9635 140.922 24.0054 127.008 23.8903C113.104 23.7857 99.8075 24.0158 87.358 28.9852C74.9086 33.944 62.7625 40.3361 53.0122 49.9818C43.2619 59.6275 35.6039 71.1982 30.5613 83.5849C25.5188 95.9716 20.8738 109.687 20.9889 123.57C21.1039 137.452 24.8283 151.659 30.0278 164.046C35.2273 176.433 42.6865 188.987 52.4473 198.632C62.1976 208.278 75.3166 214.053 87.6196 219.012C99.9121 223.981 113.324 226.408 127.008 226.304M127.008 247.489C113.659 247.614 101.345 244.047 89.283 240.27C76.7812 236.357 63.9865 233.072 53.5353 225.592C42.9794 218.039 35.7922 206.782 28.0401 196.226C20.3612 185.775 10.8096 175.836 6.60399 163.146C2.55531 150.906 0.138648 137.18 0.00264522 123.559C-0.133357 109.938 5.00335 97.206 8.86372 84.9763C12.8496 72.2967 17.7353 60.2029 25.3409 49.7621C33.0198 39.2063 40.6674 27.6879 51.3069 20.145C61.8419 12.6753 75.1492 8.60573 87.8706 4.71397C100.142 0.958209 113.418 0.236346 127.039 0.361887C140.66 0.497889 153.539 2.64254 165.81 6.60754C178.532 10.719 188.931 18.22 199.466 25.7839C210.105 33.4209 219.469 41.602 227.148 52.0742C234.743 62.4417 239.649 73.7509 243.635 86.2212C247.485 98.2522 251.774 110.252 251.638 123.601C251.502 136.95 249.379 149.724 245.32 161.755C241.114 174.225 237.379 187.47 229.7 197.837C221.938 208.31 210.283 215.727 199.727 223.364C189.266 230.917 178.27 238.669 165.779 242.781C153.696 246.746 140.347 248.66 126.997 248.796C126.945 248.796 126.997 247.489 126.997 247.489H127.008Z" fill="white"/>
</svg>
