<svg width="501" height="502" viewBox="0 0 501 502" fill="none" xmlns="http://www.w3.org/2000/svg">
<g clip-path="url(#clip0_1780_21719)">
<path d="M285.377 121.145C280.374 126.408 278.545 121.051 271.453 121.443C264.36 121.835 264.36 122.638 257.268 123.03C250.176 123.422 250.176 124.43 243.083 124.821C235.991 125.232 235.991 123.328 228.879 123.72C221.787 124.112 219.211 130.589 214.209 125.755C209.17 120.883 213.799 118.065 213.799 110.842C213.799 103.6 213.724 103.6 213.724 96.3583C213.724 89.1165 214.9 89.0605 214.9 81.8187C214.9 74.577 214.377 74.577 214.377 67.3165C214.377 60.0561 215.796 60.0188 215.796 52.7396C215.796 45.4605 215.478 45.4792 215.478 38.2001C215.478 30.921 213.799 30.9397 213.799 23.6605C213.799 16.3628 214.041 16.3628 214.041 9.06501C214.041 4.84686 218.035 1.91655 222.16 1.91655C229.159 1.91655 229.159 1.7859 236.159 1.76724C243.158 1.76724 243.158 0.479393 250.157 0.479393C257.156 0.479393 257.156 2.17785 264.155 2.17785C271.154 2.17785 271.154 0.330078 278.153 0.330078C282.278 0.330078 285.078 4.66021 285.078 8.69172C285.078 15.6909 285.433 15.6909 285.433 22.7087C285.433 29.7265 285.115 29.7265 285.115 36.7443C285.115 43.7807 286.198 43.7434 286.198 50.7612C286.198 57.779 285.656 57.8164 285.656 64.8528C285.656 71.908 284.63 71.9266 284.63 78.9818C284.63 86.0369 286.534 85.9622 286.534 93.0174C286.534 100.073 283.361 100.539 284.798 107.389C286.31 114.575 290.397 115.807 285.358 121.089L285.377 121.145Z" fill="white"/>
<path d="M216.505 124.3C214.695 131.317 211.074 128.443 204.933 132.363C198.793 136.264 198.755 136.226 192.615 140.127C186.474 144.028 186.885 144.737 180.725 148.619C174.585 152.52 173.894 151.344 167.754 155.227C161.613 159.09 162.304 165.94 155.454 164.316C148.548 162.655 152.206 157.168 148.623 150.952C145.058 144.737 144.591 145.017 141.008 138.783C137.424 132.531 137.555 132.456 133.971 126.166C130.388 119.858 131.769 119.036 128.185 112.69C124.62 106.345 123.855 106.811 120.29 100.447C116.707 94.0634 116.949 93.914 113.366 87.5122C109.782 81.0916 108.886 81.6329 105.321 75.175C101.738 68.7171 103.138 67.8772 99.554 61.4007C97.4823 57.6678 97.4076 53.1324 100.973 50.9673C107.038 47.3091 107.188 47.5891 113.235 43.9122C119.301 40.2353 119.021 39.7314 125.087 36.0358C131.153 32.3403 130.892 31.855 136.957 28.1408C143.023 24.4452 143.527 25.3598 149.593 21.6456C153.158 19.4618 157.731 20.9737 159.803 24.6692C163.368 31.0898 162.938 31.3697 166.503 37.7529C170.068 44.1175 171.393 43.3149 174.977 49.6608C178.56 55.988 177.907 56.38 181.491 62.6699C185.074 68.9411 184.776 69.1278 188.34 75.3803C191.905 81.6142 192.036 81.5209 195.601 87.7175C199.184 93.8954 199.968 93.4101 203.552 99.5507C207.135 105.71 206.109 106.233 210.812 111.477C215.684 116.871 218.297 117.226 216.468 124.318L216.505 124.3Z" fill="white"/>
<path d="M156.313 161.835C158.179 168.722 155.025 168.423 151.479 174.788C147.933 181.152 145.786 179.958 142.24 186.304C138.694 192.631 138.787 192.706 135.241 199.014C131.695 205.323 132.964 206.032 129.418 212.34C125.871 218.63 128.727 222.083 121.877 224.024C114.971 225.965 115.774 221.374 109.577 217.809C103.381 214.207 103.231 214.487 97.0349 210.829C90.8383 207.152 90.913 207.021 84.7164 203.288C78.5198 199.518 78.1839 200.097 72.006 196.252C65.8094 192.388 65.8654 192.314 59.6688 188.394C53.4722 184.437 54.2748 183.075 48.0782 179.062C41.8817 175.012 41.1537 176.244 34.9572 172.119C28.7606 167.975 29.1339 167.341 22.9373 163.141C19.3724 160.715 17.7113 155.638 19.783 152.26C23.2733 146.493 23.4039 146.567 26.9128 140.744C30.4217 134.902 31.243 135.443 34.7332 129.527C38.2421 123.591 37.2156 122.919 40.7245 116.947C44.2334 110.956 45.8572 112.001 49.3661 105.953C51.4378 102.389 55.208 100.018 58.7916 102.258C64.9882 106.14 64.4469 107.073 70.6435 110.956C76.84 114.8 76.7094 115.006 82.906 118.813C89.1025 122.602 89.5878 121.706 95.7844 125.458C101.981 129.172 102.41 128.425 108.607 132.084C114.803 135.742 114.841 135.649 121.037 139.251C127.234 142.834 127.141 142.984 133.337 146.53C139.534 150.057 138.246 152.801 144.984 155.059C151.74 157.318 154.465 154.854 156.35 161.816L156.313 161.835Z" fill="white"/>
<path d="M123.538 221.371C128.577 226.317 121.802 229.378 121.802 236.508C121.802 243.637 121.541 243.637 121.541 250.748C121.541 257.841 122.53 257.841 122.53 264.915C122.53 271.989 121.988 272.007 121.988 279.081C121.988 286.155 128.502 288.842 123.463 293.9C118.386 298.977 115.587 293.415 108.438 293.453C101.29 293.453 101.29 293.807 94.1412 293.733C86.9928 293.621 86.9928 292.295 79.8443 292.109C72.6958 291.885 72.6958 292.015 65.5474 291.698C58.3989 291.343 58.3989 291.847 51.2318 291.399C44.0834 290.914 44.0834 291.343 36.9349 290.765C29.7864 290.112 29.7864 288.712 22.6193 287.947C15.4709 287.144 15.4709 287.349 8.30374 286.416C4.16025 285.837 0.0727539 282.889 0.0727539 278.764C0.0727539 271.765 2.01385 272.045 2.01385 265.045C2.01385 258.046 1.47258 257.953 1.47258 250.972C1.47258 243.973 1.75255 244.011 1.75255 237.011C1.75255 230.012 0.0727539 229.751 0.0727539 222.752C0.0727539 218.627 4.16025 214.764 8.28508 215.305C15.4335 216.219 15.4335 216.723 22.582 217.526C29.7304 218.272 29.7304 217.731 36.8789 218.384C44.0274 218.982 44.0274 221.277 51.1758 221.781C58.3243 222.229 58.3243 221.781 65.4727 222.136C72.6212 222.453 72.6212 221.688 79.7883 221.912C86.9368 222.099 86.9368 221.501 94.0852 221.595C101.234 221.669 101.29 223.405 108.233 221.707C116.109 219.766 118.442 216.369 123.519 221.371H123.538Z" fill="white"/>
<path d="M215.198 380.617C220.2 375.373 221.768 378.546 228.861 378.154C235.953 377.762 235.953 379.815 243.046 379.442C250.138 379.05 250.138 379.386 257.23 378.994C264.323 378.602 264.323 377.855 271.434 377.463C278.527 377.071 279.945 372.144 284.947 376.959C289.986 381.831 286.608 383.436 286.608 390.659C286.608 397.901 285.47 397.957 285.47 405.18C285.47 412.422 285.003 412.44 285.003 419.682C285.003 426.924 285.862 426.905 285.862 434.166C285.862 441.426 285.918 441.426 285.918 448.705C285.918 455.984 284.984 455.984 284.984 463.282C284.984 470.561 285.059 470.561 285.059 477.859C285.059 485.157 284.425 485.157 284.425 492.454C284.425 496.654 282.278 499.51 278.153 499.528C271.154 499.528 271.154 501.077 264.155 501.077C257.156 501.077 257.156 498.987 250.157 498.987C243.158 498.987 243.158 500.573 236.158 500.573C229.159 500.573 229.159 499.622 222.16 499.622C218.035 499.622 215.366 496.822 215.366 492.79C215.366 485.791 213.668 485.791 213.668 478.792C213.668 471.774 214.321 471.774 214.321 464.756C214.321 457.72 214.19 457.739 214.19 450.702C214.19 443.666 213.836 443.684 213.854 436.648C213.854 429.611 215.31 429.555 215.31 422.5C215.31 415.445 214.694 415.464 214.694 408.409C214.694 401.354 215.105 401.372 213.724 394.504C212.305 387.43 210.178 385.899 215.217 380.599L215.198 380.617Z" fill="white"/>
<path d="M283.753 377.184C285.563 370.147 289.894 374.16 296.053 370.259C302.193 366.34 302.063 366.116 308.185 362.215C314.325 358.314 313.485 356.858 319.626 352.976C325.766 349.075 326.028 349.504 332.168 345.622C338.309 341.759 337.768 336.477 344.618 338.1C351.523 339.762 347.678 344.633 351.243 350.848C354.808 357.063 355.685 356.522 359.269 362.775C362.834 369.027 361.453 369.886 365.036 376.176C368.62 382.484 369.049 382.204 372.614 388.55C376.179 394.896 375.768 395.157 379.333 401.522C382.917 407.924 384.111 407.177 387.676 413.598C391.26 420.037 390.812 420.298 394.395 426.738C397.979 433.195 398.651 432.785 402.234 439.261C404.306 442.994 402.608 447.922 399.043 450.087C392.977 453.745 392.996 453.782 386.948 457.459C380.882 461.136 381.106 461.547 375.04 465.242C368.974 468.938 368.527 468.154 362.461 471.849C356.395 475.564 357.048 476.758 350.982 480.454C347.417 482.619 342.172 480.79 340.101 477.075C337.712 472.795 335.329 468.527 332.952 464.272C329.387 457.907 330.638 457.123 327.073 450.777C323.489 444.45 321.922 445.421 318.338 439.131C314.754 432.859 316.397 431.852 312.813 425.599C309.248 419.365 307.923 420.186 304.358 413.99C300.775 407.812 301.409 407.401 297.845 401.261C294.261 395.101 294.093 395.344 289.371 390.118C284.481 384.705 281.924 384.276 283.734 377.184H283.753Z" fill="white"/>
<path d="M341.575 340.431C339.709 333.544 346.577 333.787 350.123 327.422C353.67 321.058 354.341 321.45 357.888 315.104C361.434 308.758 361.621 308.87 365.167 302.543C368.713 296.234 368.564 296.141 372.11 289.851C375.656 283.58 371.382 278.69 378.25 276.749C385.156 274.808 384.671 279.922 390.849 283.486C397.046 287.089 396.654 287.742 402.85 291.4C409.047 295.077 409.607 294.088 415.803 297.839C422 301.61 421.906 301.759 428.103 305.604C434.3 309.467 434.617 308.907 440.795 312.846C446.991 316.802 446.338 317.904 452.516 321.935C458.713 325.985 458.881 325.687 465.077 329.811C471.274 333.955 471.068 334.291 477.265 338.509C480.83 340.935 482.099 345.527 480.027 348.924C476.537 354.691 475.847 354.243 472.356 360.085C468.847 365.946 469.631 366.468 466.122 372.366C462.613 378.302 463.136 378.619 459.627 384.61C456.118 390.601 455.913 390.489 452.423 396.518C450.351 400.083 445.274 401.203 441.709 398.963C435.513 395.062 436.11 394.036 429.914 390.172C423.717 386.327 422.709 388.119 416.512 384.33C410.316 380.541 410.521 380.205 404.325 376.454C398.128 372.721 398.651 371.825 392.454 368.148C386.258 364.49 385.548 365.778 379.352 362.175C373.155 358.592 374.126 356.856 367.929 353.31C361.733 349.782 361.639 350.193 354.771 348.308C346.969 346.217 343.423 347.412 341.538 340.469L341.575 340.431Z" fill="white"/>
<path d="M378.362 278.505C373.323 273.559 378.4 272.121 378.4 264.992C378.4 257.88 377.784 257.862 377.784 250.769C377.784 243.677 378.53 243.658 378.53 236.566C378.53 229.492 377.056 229.511 377.056 222.437C377.056 215.382 372.558 213.366 377.597 208.327C382.674 203.269 384.746 207.599 391.894 207.561C399.043 207.561 399.043 207.337 406.191 207.412C413.339 207.524 413.339 209.484 420.488 209.67C427.636 209.894 427.636 209.521 434.785 209.838C441.933 210.193 441.933 208.588 449.1 209.036C456.249 209.54 456.249 209.67 463.397 210.268C470.546 210.921 470.546 211.742 477.713 212.507C482.479 213.042 487.25 213.621 492.028 214.243C496.153 214.803 498.598 218.368 498.598 222.511C498.598 229.511 499.793 229.679 499.793 236.696C499.793 243.696 499.737 243.696 499.737 250.676C499.737 257.675 498.617 257.507 498.617 264.525C498.617 271.524 500.073 271.748 500.073 278.747C500.073 282.872 496.153 286.4 492.028 285.858C484.88 284.925 484.88 284.253 477.732 283.432C470.583 282.685 470.583 283.525 463.435 282.891C456.286 282.294 456.286 281.379 449.138 280.894C441.989 280.446 441.989 280.688 434.841 280.334C430.075 280.122 425.303 279.942 420.525 279.792C413.377 279.606 413.377 279.68 406.228 279.569C399.08 279.494 399.173 278.99 392.137 280.334C385.026 281.715 383.458 283.544 378.362 278.523V278.505Z" fill="white"/>
</g>
<defs>
<clipPath id="clip0_1780_21719">
<rect width="500" height="500.728" fill="white" transform="translate(0.0727539 0.347656)"/>
</clipPath>
</defs>
</svg>
