<svg width="501" height="272" viewBox="0 0 501 272" fill="none" xmlns="http://www.w3.org/2000/svg">
<g clip-path="url(#clip0_1760_1456)">
<path d="M0.422266 251.891C0.422266 248.354 1.71602 245.204 4.02852 242.885C6.34102 240.566 9.48477 239.029 13.0223 239.022C16.5598 239.016 19.366 240.885 21.691 243.197C24.016 245.51 25.7348 248.316 25.741 251.854C25.741 255.385 24.3535 258.522 22.0348 260.841C19.716 263.16 16.591 264.972 13.0598 264.979C13.0535 264.979 13.0473 264.322 13.041 264.322C9.50976 264.322 6.27852 263.279 3.95977 260.966C1.64102 258.654 0.422266 255.429 0.416016 251.891H0.422266ZM474.803 251.391C474.803 247.854 476.11 244.71 478.422 242.391C480.735 240.072 483.885 238.535 487.416 238.529C490.953 238.529 493.766 240.397 496.085 242.716C498.403 245.035 500.129 247.841 500.129 251.379C500.129 254.916 498.735 258.041 496.416 260.36C494.097 262.679 490.972 264.485 487.435 264.485C483.897 264.485 480.941 262.51 478.622 260.191C476.303 257.872 474.572 254.916 474.572 251.385C474.572 251.291 474.797 251.397 474.797 251.391H474.803ZM20.5973 190.572C17.2285 189.485 14.6348 187.279 13.141 184.36C11.6473 181.441 11.1535 177.979 12.241 174.61C13.3285 171.241 15.9723 169.147 18.8848 167.654C21.7973 166.16 25.0035 165.385 28.366 166.472C31.7348 167.56 34.2848 169.847 35.7785 172.766C37.2723 175.685 38.0285 179.216 36.9473 182.579C36.0848 185.26 33.9223 187.085 31.8098 188.622C29.6973 190.16 27.216 191.41 24.4785 191.41C23.1723 191.41 21.8973 190.991 20.5973 190.566V190.572ZM463.854 182.01C462.766 178.647 463.035 175.254 464.516 172.335C465.997 169.416 468.522 166.985 471.878 165.891C475.247 164.797 478.497 165.704 481.416 167.191C484.335 168.679 486.841 170.816 487.941 174.185C489.029 177.547 488.672 180.954 487.178 183.879C485.685 186.804 483.272 189.485 479.91 190.579C478.603 191.016 477.166 190.579 475.86 190.579C473.128 190.579 470.472 190.085 468.31 188.516C466.147 186.947 464.366 184.804 463.491 182.129C463.466 182.041 463.847 182.022 463.847 182.016L463.854 182.01ZM50.6785 122.622C47.8098 120.547 46.0285 117.647 45.516 114.41C45.0035 111.172 45.6098 107.729 47.691 104.866C49.766 101.997 52.9285 100.829 56.166 100.316C59.4035 99.8037 62.6848 100.06 65.5473 102.141C68.4098 104.216 70.1223 107.185 70.6348 110.422C71.1473 113.66 70.7723 117.254 68.6973 120.116C66.191 123.572 62.041 124.879 58.0848 124.879C55.4785 124.879 52.941 124.285 50.6785 122.635V122.622ZM431.91 119.46C429.828 116.604 429.035 113.291 429.541 110.054C430.047 106.816 431.691 103.722 434.541 101.641C437.404 99.5599 440.772 99.4162 444.016 99.9287C447.26 100.441 450.297 101.697 452.385 104.56C454.466 107.416 455.172 110.772 454.66 114.01C454.147 117.247 452.685 120.547 449.829 122.635C447.554 124.285 444.741 124.485 442.122 124.485C438.166 124.485 434.416 122.91 431.91 119.46ZM100.279 67.2975C98.191 64.4412 97.3848 61.1287 97.891 57.8912C98.3973 54.6537 100.035 51.56 102.891 49.4725C105.741 47.385 109.116 47.235 112.354 47.7412C115.591 48.2475 118.635 49.4975 120.722 52.3537C122.81 55.21 123.529 58.56 123.022 61.7975C122.516 65.035 121.054 68.3412 118.197 70.4225C115.922 72.0912 113.097 72.2912 110.479 72.2912C106.529 72.2912 102.785 70.7162 100.279 67.2787V67.2975ZM382.204 69.7787C379.347 67.6975 377.566 64.7912 377.054 61.5537C376.541 58.3162 377.154 54.8662 379.235 52.01C381.316 49.1537 384.478 47.985 387.722 47.4725C390.966 46.96 394.241 47.2225 397.103 49.3037C399.966 51.385 401.672 54.3537 402.185 57.5975C402.697 60.8412 402.31 64.4287 400.228 67.2912C397.722 70.735 393.579 72.035 389.622 72.035C387.004 72.035 384.472 71.4412 382.204 69.785V69.7787ZM164.497 29.9287C163.397 26.5662 163.66 23.1725 165.141 20.2475C166.622 17.3225 169.135 14.8912 172.497 13.7912C175.86 12.6912 179.11 13.5975 182.035 15.0787C184.96 16.56 187.466 18.6975 188.566 22.06C189.666 25.4225 189.31 28.8287 187.829 31.7537C186.347 34.6787 183.929 37.3662 180.566 38.46C179.247 38.8975 177.804 38.46 176.485 38.46C173.76 38.46 171.11 37.9725 168.947 36.41C166.785 34.8475 165.01 32.71 164.135 30.035C164.11 29.9412 164.504 29.9287 164.504 29.9225L164.497 29.9287ZM319.641 37.8537C316.272 36.7662 313.679 34.5537 312.191 31.635C310.704 28.7162 310.216 25.2475 311.304 21.885C312.391 18.5225 315.041 16.4287 317.966 14.935C320.891 13.4412 324.091 12.6725 327.453 13.76C330.816 14.8537 333.36 17.1537 334.847 20.0725C336.335 22.9912 337.091 26.5287 335.997 29.8912C335.129 32.5662 332.972 34.385 330.853 35.9225C328.735 37.46 326.266 38.7037 323.535 38.7037C322.229 38.7037 320.804 38.6287 319.497 38.1975C319.416 38.16 319.647 37.8537 319.641 37.8537ZM237.122 14.3412C237.122 10.8037 238.416 7.65371 240.729 5.33496C243.041 3.01621 246.185 1.47246 249.722 1.45996C249.979 1.45996 249.985 2.05996 250.241 2.05996C253.779 2.05996 256.904 3.00996 259.222 5.32871C261.541 7.64746 262.947 10.7725 262.947 14.31C262.947 17.8475 261.829 21.26 259.51 23.5787C257.191 25.8975 253.779 26.76 250.241 26.76C250.004 26.76 250.004 27.1537 249.76 27.1537C246.229 27.1537 242.891 25.8162 240.572 23.51C238.254 21.2037 236.885 17.86 236.879 14.3287C236.879 14.235 237.129 14.3412 237.129 14.335L237.122 14.3412Z" fill="white"/>
<path d="M92.6723 245.916C89.1536 245.498 85.8911 243.548 83.8661 240.973C81.8411 238.398 81.0848 234.81 81.4973 231.298C81.9161 227.785 83.9848 225.11 86.5661 223.085C89.1473 221.06 92.2598 219.398 95.7723 219.81C99.2848 220.229 102.229 222.341 104.254 224.916C106.279 227.491 107.691 230.848 107.279 234.36C106.891 237.604 104.685 240.016 102.422 242.029C100.16 244.041 97.4536 245.066 94.2411 245.066C93.7411 245.066 93.1848 245.979 92.6723 245.923V245.916ZM393.116 234.06C392.685 230.548 393.816 226.916 395.841 224.341C397.866 221.766 401.172 220.185 404.679 219.754C408.191 219.329 411.279 220.716 413.86 222.741C416.441 224.766 418.791 227.404 419.216 230.916C419.635 234.423 418.285 237.785 416.26 240.366C414.235 242.948 411.304 245.11 407.797 245.535C407.279 245.604 406.716 244.823 406.204 244.823C402.991 244.823 400.366 243.673 398.085 241.648C395.804 239.623 393.51 237.298 393.122 234.06H393.116ZM113.285 173.341C110.372 171.335 108.397 168.085 107.804 164.86C107.21 161.635 108.216 158.11 110.222 155.198C112.229 152.285 115.31 150.885 118.535 150.291C121.76 149.698 125.297 149.679 128.21 151.685C131.122 153.691 132.741 156.935 133.335 160.16C133.929 163.385 133.604 167.016 131.597 169.929C129.122 173.535 124.841 174.81 120.76 174.81C118.254 174.81 115.979 174.054 113.76 172.529C113.585 172.441 113.291 173.341 113.291 173.341H113.285ZM368.679 169.71C366.666 166.798 365.966 163.06 366.554 159.841C367.141 156.623 369.329 153.679 372.235 151.666C375.141 149.654 378.522 149.435 381.747 150.023C384.972 150.61 388.285 151.848 390.297 154.754C392.316 157.666 392.685 161.266 392.097 164.491C391.51 167.716 389.922 170.998 387.01 173.01C384.791 174.554 382.06 174.535 379.554 174.535C375.485 174.535 371.916 172.729 369.429 169.129C369.304 168.979 368.685 169.716 368.679 169.716V169.71ZM165.285 118.66C163.629 115.535 163.379 111.735 164.347 108.604C165.316 105.473 167.841 102.81 170.966 101.16C174.091 99.5039 177.472 99.6852 180.604 100.654C183.735 101.623 186.879 103.241 188.529 106.366C190.185 109.498 190.122 113.123 189.154 116.254C188.185 119.385 186.216 122.454 183.085 124.11C181.179 125.116 178.972 124.823 176.96 124.823C174.629 124.823 172.622 124.179 170.629 122.985C168.635 121.791 166.41 120.798 165.279 118.66H165.285ZM317.11 124.023C317.11 124.023 317.11 124.023 317.11 124.016C313.979 122.366 311.985 119.273 311.016 116.148C310.047 113.023 310.647 109.716 312.297 106.585C313.947 103.454 316.241 100.816 319.372 99.8414C322.504 98.8664 326.066 99.4039 329.197 101.054C332.329 102.698 334.829 105.323 335.804 108.454C336.779 111.585 335.816 114.96 334.179 118.091C333.047 120.235 331.529 121.673 329.591 122.841C327.654 124.01 325.585 125.36 323.247 125.36C321.235 125.36 319.016 125.035 317.116 124.029L317.11 124.023ZM236.722 94.4164C236.716 90.8789 238.26 87.4039 240.572 85.0789C242.885 82.7539 246.36 81.5789 249.891 81.5664C250.066 81.5664 250.066 81.9977 250.241 81.9977C253.779 81.9977 257.185 82.8039 259.504 85.1227C261.822 87.4414 263.01 90.8477 263.01 94.3852C263.01 97.9227 261.854 101.36 259.535 103.679C257.216 105.998 253.779 106.716 250.241 106.716C250.079 106.716 250.079 106.635 249.916 106.635C246.385 106.635 243.047 105.904 240.729 103.591C238.41 101.279 236.622 97.9977 236.622 94.4664C236.604 94.2727 236.722 94.4227 236.722 94.4164Z" fill="white"/>
<path d="M177.729 209.816C174.96 207.61 173.279 204.754 172.91 201.497C172.541 198.241 173.379 194.947 175.579 192.185C177.779 189.41 180.716 187.147 183.973 186.779C187.229 186.41 190.891 187.585 193.666 189.791C196.435 191.991 197.873 195.36 198.248 198.616C198.623 201.872 197.766 205.316 195.566 208.085C193.035 211.266 189.254 213.454 185.479 213.454C182.691 213.454 180.091 211.691 177.735 209.822L177.729 209.816ZM305.154 207.697C302.948 204.935 301.941 201.772 302.31 198.51C302.679 195.247 304.223 192.235 306.991 190.022C309.754 187.816 313.116 186.266 316.379 186.629C319.641 186.991 322.948 188.954 325.154 191.716C327.36 194.485 328.016 198.085 327.654 201.341C327.291 204.597 325.691 207.766 322.929 209.972C320.566 211.854 317.71 213.297 314.904 213.297C311.148 213.297 307.135 211.26 304.616 208.097C304.523 207.954 305.166 207.697 305.16 207.691L305.154 207.697ZM237.604 168.829C237.591 165.291 238.779 162.197 241.091 159.872C243.404 157.547 246.491 156.154 250.035 156.141C250.141 156.141 250.141 155.429 250.248 155.429C253.785 155.429 257.216 157.191 259.535 159.51C261.854 161.829 263.085 165.26 263.085 168.797C263.085 172.335 261.666 175.585 259.348 177.897C257.029 180.21 253.785 182.179 250.248 182.179C250.154 182.179 250.154 181.941 250.066 181.941C246.535 181.941 242.941 180.566 240.629 178.254C238.316 175.941 237.604 172.385 237.604 168.854C237.623 168.679 237.604 168.829 237.604 168.829Z" fill="white"/>
<path d="M248.684 270.245C241.909 269.92 236.596 266.383 232.209 261.795C227.821 257.208 225.084 251.77 225.059 244.958C225.034 237.883 228.009 232.308 232.621 227.658C237.234 223.008 242.784 219.633 249.859 219.608C249.959 219.608 249.946 219.32 250.046 219.32C257.121 219.32 262.709 222.908 267.346 227.545C271.984 232.183 275.834 237.77 275.834 244.845C275.834 251.92 272.909 258.42 268.284 263.058C263.659 267.695 257.159 271.608 250.084 271.608C250.071 271.608 250.059 270.945 250.046 270.945C249.596 270.945 248.884 271.045 248.434 271.033C248.359 270.995 248.684 270.245 248.671 270.245H248.684Z" fill="white"/>
<path d="M163.543 251.986C164.263 255.3 163.242 258.324 161.594 261.036C159.947 263.749 157.675 265.775 154.388 266.669C150.974 267.596 147.897 266.881 145.054 265.255C142.211 263.629 139.863 261.385 138.935 257.972C138.922 257.923 138.785 257.967 138.772 257.918C137.857 254.501 138.866 251.338 140.506 248.499C142.145 245.659 144.346 243.076 147.763 242.161C151.18 241.245 154.697 241.817 157.536 243.45C160.374 245.084 163.105 247.717 164.02 251.134C164.022 251.14 163.704 251.231 163.705 251.237C163.763 251.455 163.904 251.786 163.956 252.005C163.948 252.046 163.543 251.986 163.545 251.992L163.543 251.986Z" fill="white"/>
<path d="M361.743 251.986C362.462 255.3 361.441 258.324 359.794 261.036C358.146 263.749 355.874 265.775 352.587 266.669C349.173 267.596 346.096 266.881 343.253 265.255C340.41 263.629 338.062 261.385 337.135 257.972C337.122 257.923 336.984 257.967 336.971 257.918C336.056 254.501 337.065 251.338 338.705 248.499C340.345 245.659 342.545 243.076 345.962 242.161C349.379 241.245 352.897 241.817 355.735 243.45C358.573 245.084 361.304 247.717 362.22 251.134C362.221 251.14 361.903 251.231 361.904 251.237C361.963 251.455 362.103 251.786 362.155 252.005C362.147 252.046 361.743 251.986 361.744 251.992L361.743 251.986Z" fill="white"/>
</g>
<defs>
<clipPath id="clip0_1760_1456">
<rect width="500" height="270.625" fill="white" transform="translate(0.237305 0.982422)"/>
</clipPath>
</defs>
</svg>
