<svg width="501" height="500" viewBox="0 0 501 500" fill="none" xmlns="http://www.w3.org/2000/svg">
<g clip-path="url(#clip0_1784_21736)">
<path d="M285.358 62.1479C285.358 63.7731 284.033 65.1274 282.379 65.1559C272.5 65.3412 262.635 65.5408 252.756 65.7546C242.877 65.9542 233.012 66.1538 223.133 66.3533C221.493 66.3819 220.153 65.0703 220.153 63.4167C220.153 53.4663 220.153 43.5017 220.153 33.5228C220.153 23.5581 220.153 13.5792 220.153 3.60031C220.153 1.91815 221.479 0.578125 223.118 0.578125C232.998 0.578125 242.862 0.578125 252.742 0.578125C262.621 0.578125 272.486 0.578125 282.365 0.578125C284.004 0.578125 285.344 1.88964 285.344 3.51477V62.1337L285.358 62.1479Z" fill="white"/>
<path d="M148.277 80.3674C150.259 78.3288 174.978 76.7322 178.015 76.6609C181.051 76.6324 205.77 77.4022 207.752 79.341C209.733 81.3225 210.973 106.227 210.973 109.278C210.973 112.343 209.747 137.276 207.752 139.328C205.77 141.41 181.051 143.406 178.015 143.463C174.978 143.577 150.273 142.892 148.277 140.882C146.296 138.915 145.056 113.825 145.056 110.732C145.056 107.653 146.282 82.4344 148.277 80.3674Z" fill="white"/>
<path d="M77.77 154.526C82.0467 150.293 99.7806 147.755 106.324 147.727C112.853 147.741 130.587 150.307 134.878 154.555C139.155 158.846 141.806 176.737 141.806 183.308C141.806 189.895 139.155 207.814 134.878 212.176C130.601 216.567 112.867 219.389 106.324 219.361C99.7949 219.389 82.0467 216.552 77.77 212.133C73.4933 207.757 70.8418 189.823 70.8418 183.237C70.8418 176.651 73.4933 158.789 77.77 154.512V154.526Z" fill="white"/>
<path d="M76.7861 250.75C76.7861 280.259 42.7152 301.144 11.7664 275.113C-32.5827 213.985 72.9798 184.248 76.7861 250.75Z" fill="white"/>
<path d="M357.206 131.589C357.206 133.199 355.866 134.539 354.227 134.568C344.347 134.739 334.483 134.967 324.603 135.224C314.724 135.48 304.859 135.78 294.98 136.108C293.341 136.165 292.001 134.882 292.001 133.242V74.4807C292.001 72.8556 293.341 71.5013 294.98 71.4728C304.859 71.2732 314.724 71.0879 324.603 70.9311C334.483 70.7743 344.347 70.6317 354.227 70.5177C355.866 70.5034 357.206 71.7864 357.206 73.3973C357.206 83.0626 357.206 92.7279 357.206 102.422C357.206 112.115 357.206 121.838 357.206 131.56V131.589Z" fill="white"/>
<path d="M220.125 151.334C222.107 149.267 246.826 147.129 249.862 147.015C252.899 146.901 277.618 147.214 279.599 149.125C281.581 151.035 282.821 175.611 282.821 178.634C282.821 181.656 281.595 206.361 279.599 208.428C277.618 210.481 252.899 212.79 249.862 212.933C246.826 213.075 222.107 212.904 220.125 210.994C218.144 209.084 216.903 184.35 216.903 181.314C216.903 178.277 218.129 153.415 220.125 151.334Z" fill="white"/>
<path d="M149.618 226.716C153.894 222.354 171.643 219.203 178.172 218.961C184.701 218.761 202.435 220.757 206.725 224.848C211.002 228.968 213.654 246.602 213.654 253.131C213.654 259.661 211.002 277.494 206.725 281.942C202.449 286.39 184.715 289.697 178.172 289.897C171.643 290.125 153.894 287.972 149.618 283.795C145.341 279.633 142.689 261.984 142.689 255.441C142.689 248.912 145.341 231.092 149.618 226.702V226.716Z" fill="white"/>
<path d="M148.633 322.113C148.633 351.394 114.562 373.276 83.6131 349.612C39.264 291.734 144.826 255.839 148.633 322.113Z" fill="white"/>
<path d="M429.055 202.681C429.055 204.321 427.729 205.618 426.075 205.575C416.196 205.376 406.331 205.276 396.452 205.262C386.573 205.262 376.708 205.333 366.829 205.49C365.19 205.518 363.85 204.221 363.85 202.581C363.85 192.759 363.85 182.966 363.85 173.187C363.85 163.407 363.85 153.642 363.85 143.906C363.85 142.295 365.175 140.955 366.829 140.926C376.708 140.798 386.573 140.727 396.452 140.727C406.331 140.727 416.196 140.812 426.075 140.983C427.715 141.012 429.055 142.352 429.055 143.977V202.681Z" fill="white"/>
<path d="M291.974 220.271C293.969 218.19 318.674 216.023 321.711 215.952C324.747 215.809 349.466 216.336 351.448 218.304C353.429 220.228 354.67 244.876 354.67 247.927C354.67 250.949 353.444 275.754 351.448 277.792C349.466 279.802 324.747 281.727 321.711 281.869C318.674 281.955 293.955 281.641 291.974 279.76C289.978 277.849 288.752 253.159 288.752 250.122C288.752 247.086 289.978 222.338 291.974 220.271Z" fill="white"/>
<path d="M221.466 296.07C225.743 291.622 243.491 288.215 250.02 287.916C256.549 287.616 274.283 289.498 278.574 293.618C282.851 297.723 285.502 315.4 285.502 321.958C285.502 328.501 282.851 346.42 278.574 350.882C274.297 355.33 256.549 358.623 250.02 358.866C243.491 359.108 225.757 357.098 221.466 352.992C217.19 348.887 214.538 331.324 214.538 324.823C214.538 318.323 217.19 300.532 221.466 296.07Z" fill="white"/>
<path d="M220.481 391.34C220.481 420.778 186.411 442.675 155.462 419.923C111.113 363.956 216.675 324.582 220.481 391.34Z" fill="white"/>
<path d="M500.903 278.348C500.903 279.988 499.563 281.199 497.924 281.071C488.045 280.23 478.18 279.546 468.301 278.99C458.422 278.434 448.557 278.02 438.678 277.707C437.038 277.664 435.698 276.281 435.698 274.628C435.698 264.72 435.698 254.827 435.698 244.947C435.698 235.068 435.698 225.218 435.698 215.381C435.698 213.742 437.024 212.445 438.678 212.502C448.557 212.801 458.422 213.229 468.301 213.771C478.18 214.327 488.045 215.011 497.924 215.852C499.563 215.994 500.903 217.448 500.903 219.088C500.903 228.967 500.903 238.832 500.903 248.711C500.903 258.59 500.903 268.455 500.903 278.334V278.348Z" fill="white"/>
<path d="M363.822 289.964C365.804 287.883 390.523 286.401 393.559 286.458C396.596 286.386 421.315 287.84 423.297 289.95C425.292 291.975 426.518 316.908 426.518 319.972C426.518 323.023 425.292 347.999 423.297 349.995C421.315 351.919 396.596 352.988 393.559 353.045C390.523 353.003 365.804 351.962 363.822 350.023C361.841 348.027 360.601 323.052 360.601 320.001C360.601 316.936 361.827 292.003 363.822 289.979V289.964Z" fill="white"/>
<path d="M293.315 365.208C297.592 360.746 315.34 357.539 321.869 357.368C328.398 357.168 346.132 359.449 350.423 363.726C354.699 367.974 357.351 385.964 357.351 392.622C357.351 399.265 354.699 417.398 350.423 421.817C346.146 426.236 328.412 429.173 321.869 429.287C315.34 429.387 297.606 427.02 293.315 422.801C289.038 418.552 286.387 400.747 286.387 394.175C286.387 387.604 289.038 369.656 293.315 365.208Z" fill="white"/>
<path d="M292.33 461.76C292.33 491.825 258.259 513.294 227.31 489.844C182.961 433.206 288.524 393.562 292.33 461.76Z" fill="white"/>
</g>
<defs>
<clipPath id="clip0_1784_21736">
<rect width="500" height="499.23" fill="white" transform="translate(0.90332 0.578125)"/>
</clipPath>
</defs>
</svg>
