<svg width="501" height="499" viewBox="0 0 501 499" fill="none" xmlns="http://www.w3.org/2000/svg">
<path d="M490.734 270.252C482 268.025 482 267.474 473.266 265.595C464.532 263.858 464.532 264.462 455.797 263.058C447.063 261.79 447.063 261.103 438.322 260.129C429.588 259.276 429.588 260.099 420.846 259.518C412.112 259.057 412.112 257.88 403.371 257.653C394.636 257.532 394.636 258.642 385.895 258.748C377.161 258.936 377.161 258.604 368.419 258.989C359.678 259.45 359.678 259.321 350.944 259.94C346.543 260.273 344.61 267.044 348.422 268.969C355.986 272.826 356.273 272.305 363.837 276.299C371.401 280.353 371.824 279.59 379.388 283.81C386.952 288.09 386.891 288.203 394.455 292.65C402.019 297.171 401.951 297.292 409.515 301.988C417.079 306.751 417.049 306.819 424.613 311.763C432.177 316.791 432.283 316.61 439.854 321.811C447.418 327.095 447.245 327.39 454.816 332.84C462.38 338.373 461.957 339.068 469.521 344.745C473.854 348.028 475.643 353.418 473.137 357.427C469.733 362.93 469.31 362.62 465.905 368.229C462.501 373.876 462.305 373.732 458.893 379.469C456.394 383.689 451.827 384.557 447.494 381.545C439.93 376.306 439.333 377.341 431.769 372.23C424.205 367.18 424.409 366.802 416.845 361.88C411.803 358.639 406.755 355.451 401.702 352.316C394.138 347.658 393.995 347.908 386.431 343.393C378.867 338.939 379.358 338.034 371.794 333.723C364.23 329.473 363.656 330.538 356.084 326.438C348.52 322.392 348.664 322.128 341.092 318.21C333.528 314.345 333.966 313.522 326.395 309.786C322.582 307.914 318.438 312.994 320.642 316.67C325.013 323.985 324.605 324.257 328.969 331.647C333.34 339.068 333.37 339.045 337.733 346.556C342.104 354.098 341.485 354.52 345.848 362.145C350.219 369.814 350.642 369.527 355.012 377.288C359.383 385.086 359.542 384.98 363.905 392.876C366.819 398.16 369.728 403.475 372.631 408.819C377.002 416.874 377.221 416.731 381.592 424.861C385.963 433.021 386.31 432.795 390.681 441.03C393.18 445.756 390.945 451.886 386.612 454.649C380.709 458.416 380.679 458.355 374.775 462.145C368.872 465.942 368.789 465.783 362.886 469.588C358.553 472.381 353.125 471.46 350.619 466.787C346.248 458.65 346.535 458.453 342.164 450.406C337.793 442.397 337.975 442.276 333.611 434.365C329.241 426.491 328.78 426.801 324.409 419.025C320.038 411.295 319.706 411.522 315.343 403.882C310.972 396.288 310.867 396.364 306.496 388.868C302.125 381.409 303.34 380.579 298.969 373.196C294.599 365.851 293.625 366.531 289.262 359.261C284.891 352.029 284.642 352.203 280.271 345.046C278.067 341.446 272.428 343.356 272.428 347.802C272.428 356.936 272.714 356.891 272.714 366.047C272.714 375.197 272.843 375.182 272.843 384.346C272.843 393.518 272.624 393.533 272.624 402.72C272.624 408.845 272.624 414.972 272.624 421.101C272.624 430.304 273.447 430.243 273.447 439.475C273.447 448.708 272.677 448.745 272.677 457.978C272.677 467.218 273.447 467.195 273.447 476.457C273.447 485.735 272.79 485.727 272.79 495.005C272.79 497.451 270.941 498.742 268.563 498.742C259.368 498.742 259.368 498.93 250.181 498.938C240.987 498.938 240.987 498.878 231.8 498.878C229.422 498.878 226.908 497.534 226.908 495.216C226.908 486.422 227.316 486.422 227.316 477.612C227.316 468.803 227.633 468.788 227.633 459.963C227.633 451.131 228.252 451.101 228.252 442.246C228.252 433.383 227.693 433.429 227.693 424.566C227.693 415.696 228.236 415.651 228.236 406.766C228.236 400.838 228.234 394.907 228.229 388.973C228.229 380.066 228.063 380.088 228.063 371.166C228.063 362.243 227.942 362.25 227.942 353.32C227.942 348.957 221.239 348.006 219.034 352.029C214.664 359.993 215.252 360.257 210.882 368.161C206.511 376.035 206.835 376.186 202.472 383.968C198.101 391.729 197.89 391.623 193.519 399.3C189.148 406.932 189.503 407.098 185.14 414.647C180.769 422.151 180.286 421.917 175.923 429.315C171.552 436.675 171.454 436.629 167.083 443.892C162.712 451.116 162.463 450.987 158.092 458.106C153.722 465.187 153.578 465.104 149.207 472.102C146.709 476.095 141.183 478.231 136.85 476.02C130.947 473.008 131.603 471.973 125.7 468.961C119.797 465.942 119.397 466.568 113.494 463.526C109.16 461.284 107.628 456.06 110.134 452.105C114.505 445.205 113.992 444.933 118.363 437.966C122.733 430.96 124.024 431.632 128.395 424.544C132.766 417.425 132.343 417.206 136.714 410.005C141.085 402.758 140.805 402.622 145.176 395.292C149.547 387.924 149.132 387.72 153.503 380.262C157.873 372.766 158.643 373.128 163.007 365.542C167.377 357.917 166.524 357.517 170.895 349.802C175.266 342.057 176.172 342.48 180.543 334.652C182.747 330.696 178.452 327.367 174.639 329.903C167.075 334.901 166.615 334.169 159.051 339.045C151.487 343.869 151.895 344.526 144.331 349.221C136.767 353.856 136.789 353.894 129.225 358.393C121.661 362.832 121.299 362.243 113.728 366.531C106.164 370.758 106.118 370.69 98.5543 374.766C90.9903 378.79 90.779 378.428 83.2074 382.3C75.6359 386.112 76.2776 387.184 68.7136 390.876C61.1496 394.507 60.7193 393.767 53.1478 397.277C48.8147 399.278 42.9493 397.64 40.4506 393.186C37.046 387.109 37.7934 386.792 34.3888 380.632C30.9843 374.434 30.169 374.766 26.7645 368.471C24.2658 363.821 26.4927 358.997 30.8258 357.268C38.3897 354.203 38.4275 354.279 45.9915 351.055C53.5554 347.757 52.9138 346.609 60.4778 343.144C68.0417 339.604 68.1474 339.792 75.7114 336.071C83.2754 332.281 83.3509 332.402 90.9224 328.431C98.4864 324.385 98.3127 324.076 105.877 319.863C113.441 315.568 113.494 315.659 121.058 311.197C128.621 306.676 128.833 307.008 136.397 302.327C143.961 297.587 144.391 298.274 151.955 293.39C155.767 290.913 153.85 284.255 149.449 284.595C140.715 285.229 140.715 285.954 131.981 286.422C123.247 286.807 123.247 287.252 114.513 287.449C105.779 287.562 105.779 286.928 97.037 286.822C88.3029 286.611 88.3029 286.052 79.5613 285.591C70.8273 285.025 70.8273 285.803 62.0857 284.965C53.3516 283.999 53.3516 283.055 44.61 281.802C35.8684 280.398 35.8684 281.364 27.1344 279.643C18.4003 277.771 18.3928 277.167 9.6587 274.948C4.68399 273.657 0.0112305 268.486 0.0112305 263.481C0.0112305 256.664 1.05298 256.981 1.05298 250.157C1.05298 243.34 0.41887 243.152 0.41887 236.343C0.41887 231.338 4.68399 229.126 9.68889 230.432C18.4229 232.651 18.4229 232.447 27.157 234.327C35.8911 236.048 35.8911 235.844 44.6251 237.241C53.3592 238.502 53.3592 239.007 62.0932 239.974C70.8273 240.812 70.8273 240.019 79.5613 240.585C88.2954 241.038 88.2954 241.868 97.0294 242.08C105.763 242.193 105.763 241.634 114.505 241.521C120.328 241.39 126.153 241.186 131.981 240.91C140.722 240.442 140.722 240.781 149.456 240.155C153.865 239.815 155.163 233.784 151.351 231.859C143.787 228.001 143.81 227.963 136.246 223.97C128.682 219.916 129.203 218.98 121.639 214.775C114.075 210.503 113.818 210.963 106.247 206.532C98.6826 202.025 98.7959 201.814 91.2319 197.134C83.6679 192.37 83.8717 192.023 76.3078 187.086C68.7438 182.081 68.5928 182.33 61.0288 177.137C53.4648 171.868 53.5856 171.671 46.0141 166.229C38.4501 160.718 38.4803 160.665 30.9088 154.988C26.5757 151.705 24.7112 146.322 27.2098 142.306C30.6144 136.796 30.9541 137.045 34.3586 131.443C37.7632 125.797 36.8951 125.17 40.3071 119.441C42.8058 115.236 49.0865 114.33 53.4196 117.327C60.9835 122.551 60.6514 123.14 68.2154 128.25C75.7793 133.308 75.9077 133.089 83.4716 138.011C91.0356 142.872 91.3678 142.276 98.9317 146.987C106.496 151.637 105.982 152.573 113.546 157.087C121.11 161.541 121.684 160.476 129.256 164.779C136.82 169.014 136.321 169.943 143.885 174.042C151.449 178.088 151.434 178.118 158.998 182.028C166.562 185.878 166.456 186.082 174.028 189.819C177.84 191.699 182.309 186.422 180.105 182.746C175.734 175.438 175.628 175.521 171.258 168.131C166.887 160.718 166.751 160.809 162.38 153.305C158.009 145.764 158.742 145.273 154.378 137.641C150.007 129.979 149.207 130.507 144.836 122.755C140.466 114.957 140.375 115.017 136.012 107.128C131.641 99.2021 131.86 99.0587 127.489 91.0493C123.118 83.0022 123.435 82.7984 119.065 74.6758C114.694 66.5155 114.271 66.7872 109.9 58.559C107.402 53.8409 108.896 46.8431 113.222 44.0802C119.125 40.3133 119.812 41.6117 125.715 37.8222C131.618 34.0251 130.924 32.7041 136.82 28.8994C141.153 26.1139 146.973 28.4465 149.471 33.1117C153.842 41.2494 154.31 40.955 158.674 48.9945C163.044 56.9963 162.433 57.3964 166.804 65.3077C171.175 73.1736 170.79 73.4303 175.16 81.1981C179.531 88.9281 179.984 88.6262 184.355 96.2505C188.726 103.845 189.292 103.445 193.663 110.948C198.033 118.406 197.724 118.618 202.095 125.986C206.466 133.323 206.805 133.089 211.176 140.344C215.547 147.568 214.807 148.089 219.178 155.253C221.382 158.853 227.202 156.377 227.202 151.924C227.202 143.091 226.787 143.144 226.78 134.297C226.78 125.442 228.138 125.299 228.138 116.444C228.138 107.581 227.248 107.672 227.248 98.7869C227.248 89.9019 227.965 89.8415 227.965 80.9489C227.965 72.0564 227.089 72.1167 227.089 63.2015C227.089 54.2787 228.131 54.2259 228.131 45.3031C228.131 36.3804 227.376 36.403 227.376 27.4576C227.376 18.5046 227.157 18.5122 227.157 9.54409C227.157 4.4033 231.566 0.107989 236.563 0.123087C243.38 0.123087 243.38 0.485433 250.196 0.477884C257.013 0.477884 257.013 0.832681 263.822 0.825132C268.827 0.825132 273.183 4.18438 273.183 9.04586C273.183 17.5459 272.345 17.5685 272.345 26.0912C272.345 34.6215 272.782 34.6064 272.782 43.1442C272.782 51.6895 273.447 51.6517 273.447 60.1971C273.447 68.75 272.601 68.8103 272.601 77.3859C272.601 85.9614 272.246 85.9916 272.246 94.5822C272.246 103.18 273.258 103.075 273.258 111.68C273.258 120.286 273.605 120.248 273.613 128.869C273.613 137.49 272.556 137.618 272.556 146.254C272.556 150.618 278.097 151.116 280.301 147.092C284.672 139.121 285.638 139.558 290.009 131.662C294.38 123.796 294.621 123.902 298.985 116.119C303.355 108.366 303.235 108.314 307.605 100.644C310.519 95.556 313.431 90.5008 316.339 85.4783C320.71 77.9822 320.446 77.8539 324.809 70.456C329.18 63.0958 328.433 62.7335 332.804 55.4639C337.174 48.2472 337.944 48.6246 342.315 41.506C346.686 34.4252 346.142 34.1534 350.513 27.1632C353.012 23.1698 359.074 21.5468 363.407 23.7586C369.31 26.7706 368.714 27.6991 374.617 30.7187C380.52 33.7382 380.618 33.5948 386.521 36.637C390.854 38.879 392.274 43.3027 389.767 47.2432C385.397 54.1504 385.215 54.0523 380.845 61.0274C376.474 68.0404 377.244 68.4253 372.881 75.5137C368.51 82.6399 368.412 82.5795 364.041 89.7887C359.67 97.0281 359.066 96.7336 354.703 104.064C350.332 111.439 350.287 111.416 345.916 118.882C341.545 126.386 341.636 126.431 337.265 134.018C332.894 141.649 333.792 142.072 329.422 149.78C325.051 157.525 324.885 157.449 320.514 165.27C318.31 169.226 322.454 173.106 326.266 170.569C333.83 165.572 333.906 165.693 341.47 160.816C349.034 155.992 348.513 155.154 356.077 150.459C363.641 145.824 363.573 145.711 371.137 141.212C378.701 136.773 379.176 137.55 386.74 133.263C394.304 129.043 394.357 129.126 401.929 125.049C409.493 121.041 409.221 120.588 416.792 116.716C424.356 112.903 424.673 113.432 432.245 109.763C439.809 106.147 439.726 105.996 447.29 102.501C451.623 100.508 456.703 102.358 459.202 106.804C462.607 112.873 463.293 112.586 466.698 118.754C470.103 124.966 469.091 125.382 472.496 131.67C474.994 136.312 474.209 141.332 469.876 143.038C462.312 146.081 462.531 146.481 454.967 149.681C447.403 152.958 447.448 153.041 439.884 156.491C432.32 160.023 432.019 159.487 424.455 163.202C416.891 166.991 416.868 166.961 409.304 170.924C401.74 174.97 401.446 174.464 393.874 178.692C386.31 182.987 386.891 183.976 379.327 188.422C371.763 192.952 371.431 192.401 363.86 197.081C356.296 201.829 356.718 202.516 349.147 207.393C345.335 209.869 346.527 214.413 350.928 214.073C359.662 213.447 359.662 214.368 368.397 213.907C377.131 213.522 377.131 212.669 385.865 212.481C394.599 212.375 394.599 213.22 403.333 213.334C412.067 213.553 412.067 213.371 420.801 213.839C429.535 214.421 429.535 213.688 438.269 214.541C447.003 215.515 447.003 215.236 455.745 216.504C464.479 217.908 464.479 218.474 473.22 220.211C481.954 222.09 481.954 221.585 490.696 223.819C495.701 225.14 499.596 231.036 499.596 236.041C499.596 242.85 499.747 242.895 499.747 249.712C499.747 256.528 500.011 256.604 500.011 263.42C500.011 268.425 495.701 271.505 490.704 270.192L490.734 270.252Z" fill="white"/>
</svg>
