<svg width="739" height="739" viewBox="0 0 739 739" fill="none" xmlns="http://www.w3.org/2000/svg">
<path d="M372.086 270.553C385.722 270.324 398.612 271.241 410.471 275.996C422.732 280.866 435.851 286.022 445.133 295.188C454.414 304.355 459.627 317.475 464.784 329.735C469.768 341.594 475.325 354.485 475.325 368.178C475.325 381.87 467.992 394.13 463.065 406.162C457.966 418.594 453.383 431.313 444.101 440.766C434.82 450.161 423.247 457.552 410.93 462.823C399.013 467.864 385.779 467.578 372.086 467.693C358.394 467.807 346.248 465.802 334.331 461.047C322.014 456.062 311.128 449.703 301.847 440.594C292.566 431.484 285.806 420.828 280.707 408.682C275.78 396.938 269.477 384.792 269.535 371.214C269.535 357.636 273.774 344.459 278.759 332.542C283.915 320.167 292.566 309.97 301.847 300.517C311.128 291.121 320.753 281.095 333.014 275.709C344.873 270.553 358.508 269.808 372.143 269.522M372.086 237.382C358.05 237.668 344.472 241.678 331.81 246.09C318.691 250.616 308.149 259.553 297.206 267.689C286.149 275.939 274.462 283.386 266.441 294.558C258.478 305.615 254.696 318.792 250.399 331.969C246.217 344.631 239.228 357.521 239.17 371.5C239.17 385.48 244.556 398.599 248.681 411.203C252.92 424.208 258.707 436.354 266.613 447.182C274.634 458.125 282.425 470.213 293.483 478.177C304.482 486.026 317.659 492.156 330.836 496.338C343.612 500.349 357.878 501.838 372.029 501.724C386.18 501.609 400.388 499.547 413.164 495.307C426.341 490.896 436.997 481.156 447.94 473.021C458.997 464.828 469.539 456.177 477.56 444.948C485.523 433.833 493.2 422.031 497.382 408.74C501.45 395.907 500.82 381.927 500.763 367.776C500.763 353.626 500.762 339.818 496.58 327.1C492.283 313.923 485.065 302.121 477.044 291.235C468.966 280.235 458.367 272.043 447.31 264.137C436.367 256.345 424.68 250.444 411.617 246.376C398.956 242.48 385.893 239.73 371.857 240.017C370.998 239.902 371.972 237.382 371.972 237.324L372.086 237.382Z" fill="white"/>
<path d="M372.083 188.224C384.171 187.937 395.801 191.776 407.374 193.896C419.119 196.016 430.577 198.479 441.577 202.948C452.233 207.245 462.717 211.885 472.285 218.187C481.853 224.489 492.452 230.047 500.644 238.125C508.837 246.203 516.227 255.713 522.701 265.223C529.175 274.734 530.378 287.281 534.962 297.994C539.66 308.994 544.93 319.593 547.337 331.452C549.743 343.14 552.951 354.942 553.008 367.202C553.066 379.462 552.665 391.837 550.373 403.582C548.024 415.498 540.519 425.811 535.936 436.983C531.467 447.811 527.571 458.639 521.155 468.321C514.738 478.003 508.951 488.43 500.759 496.738C492.566 505.102 482.597 511.461 472.973 517.993C463.405 524.524 453.436 530.711 442.723 535.352C431.665 540.107 419.577 541.425 407.718 543.888C396.03 546.295 384.4 548.586 372.197 548.643C359.994 548.701 348.536 545.722 336.848 543.487C324.989 541.196 312.843 540.623 301.786 536.039C291.015 531.571 281.849 524.524 272.281 518.164C262.713 511.805 252.229 506.477 243.979 498.399C235.786 490.321 227.995 481.555 221.578 472.16C215.162 462.706 209.203 452.623 204.677 442.024C200.037 431.139 195.797 419.681 193.506 407.936C191.214 396.421 192.073 384.16 192.131 372.072C192.131 359.983 193.334 348.067 195.74 336.494C198.203 324.749 202.787 313.635 207.542 302.635C212.125 291.921 217.625 281.838 224.099 272.27C230.573 262.645 237.792 253.651 245.984 245.343C254.177 237.036 261.625 227.583 271.193 220.937C280.703 214.291 292.906 212.515 303.562 207.703C314.562 202.833 324.531 194.641 336.275 192.005C347.848 189.427 360.109 192.521 372.254 192.234M372.083 161.469C358.161 161.813 344.296 160.61 331.119 163.531C317.541 166.511 304.536 171.667 292.047 177.109C279.328 182.667 267.583 190.115 256.297 197.906C244.896 205.755 235.958 216.297 226.276 226.093C216.594 235.89 207.828 246.031 200.094 257.489C192.474 268.89 181.532 278.859 176.146 291.577C170.875 304.067 168.412 318.103 165.662 331.624C162.969 344.801 163.428 358.494 163.37 372.358C163.256 386.223 165.318 399.457 167.839 412.519C170.474 425.983 170.417 440.306 175.516 452.681C180.73 465.285 188.865 476.743 196.427 487.915C204.047 499.201 214.417 508.31 224.099 517.878C233.781 527.446 243.406 537.128 254.865 544.69C266.208 552.196 278.698 558.039 291.531 563.253C304.135 568.409 316.796 574.654 330.546 577.289C343.838 579.867 357.989 580.154 372.083 580.096C386.176 580.039 400.499 580.44 413.791 577.805C427.54 575.055 440.087 568.065 452.691 562.737C465.525 557.409 478.759 552.367 490.103 544.69C501.561 536.956 510.67 526.071 520.41 516.274C530.092 506.477 538.399 495.592 546.019 484.019C553.581 472.503 559.597 460.3 564.81 447.352C569.967 434.691 573.175 421.514 575.81 407.707C578.331 394.358 581.597 380.895 581.54 366.801C581.482 352.65 579.878 338.957 577.185 325.608C574.435 311.916 571.342 298.281 566.071 285.734C560.743 272.958 554.04 260.697 546.42 249.411C538.743 238.01 529.805 227.468 520.066 217.901C510.384 208.333 498.295 201.802 486.894 194.354C475.608 186.963 465.525 176.708 452.806 171.667C440.316 166.74 425.879 167.484 412.301 165.078C399.124 162.729 385.661 157.115 371.739 157.458C370.994 157.516 372.025 161.469 372.025 161.469H372.083Z" fill="white"/>
<path d="M372.085 112.085C383.6 111.799 395.173 109.392 406.402 110.653C417.803 111.913 429.319 113.403 440.319 116.21C451.319 119.017 462.261 122.913 472.803 127.21C488.157 133.397 502.766 141.533 516.459 150.585C530.152 159.637 541.61 171.84 553.412 183.527C565.271 195.215 575.584 207.933 584.922 221.683C594.26 235.376 604.802 248.668 611.448 264.136C616.031 274.792 619.354 286.079 622.448 297.251C625.542 308.365 627.948 319.881 629.552 331.453C631.156 342.912 633.505 354.599 633.62 366.344C633.677 378.146 633.104 390.062 631.672 401.521C630.239 413.151 625.198 424.151 622.276 435.38C619.297 446.609 614.083 456.979 609.615 467.692C603.198 483.333 597.354 499.145 588.13 513.067C578.907 526.989 566.302 538.16 554.5 550.134C542.641 562.108 530.438 573.051 516.631 582.447C502.824 591.842 488.501 599.92 472.975 606.509C462.319 611.035 451.605 614.931 440.433 618.025C429.262 621.061 418.032 622.894 406.517 624.441C395.116 625.931 383.772 629.884 372.085 629.884C360.34 629.884 348.767 628.337 337.309 626.847C325.794 625.358 313.82 624.9 302.705 621.92C291.533 618.941 280.362 614.816 269.705 610.348C254.179 603.874 239.398 595.395 225.591 586.228C211.784 577.061 201.643 563.426 189.784 551.739C177.925 540.051 165.435 529.166 156.211 515.588C146.987 502.067 138.05 487.973 131.633 472.734C127.222 462.25 124.3 451.135 121.378 440.192C118.399 429.25 116.566 418.078 115.133 406.734C113.701 395.562 114.618 384.219 114.732 372.703C114.847 361.188 112.212 349.615 113.816 338.443C115.42 327.099 117.196 315.469 120.29 304.527C123.383 293.469 128.998 283.1 133.581 272.501C140.227 257.147 149.565 243.168 158.847 229.36C168.185 215.553 179.987 203.98 191.846 191.949C203.706 179.975 214.477 167.027 228.169 157.46C241.862 147.949 255.726 137.752 271.08 130.877C281.622 126.179 292.736 121.939 303.736 118.674C314.736 115.408 326.252 112.486 337.596 110.653C348.825 108.877 360.569 109.392 372.142 109.106M372.085 79.3145C358.278 79.6582 344.814 83.8405 331.523 86.0748C317.887 88.3665 304.882 92.0904 291.877 96.2154C278.7 100.398 265.981 105.096 253.664 111.054C241.174 117.069 229.143 123.486 217.685 131.106C206.112 138.783 193.794 145.429 183.482 154.595C173.112 163.762 163.144 173.616 154.092 184.1C145.097 194.527 139.081 207.303 131.576 218.876C124.128 230.392 117.024 242.022 111.18 254.511C105.451 266.886 100.581 279.605 96.5711 292.782C92.618 305.73 91.1284 319.136 89.0659 332.771C87.0607 346.063 86.0295 359.297 85.9149 373.047C85.8003 386.854 83.7951 400.432 85.6284 413.667C87.4617 427.245 88.6648 440.994 92.3888 453.885C96.17 467.005 103.102 478.979 108.717 491.239C114.389 503.614 118.628 516.963 125.961 528.306C133.352 539.707 142.29 550.478 151.227 560.733C160.222 570.988 170.305 580.613 180.732 589.493C191.159 598.374 202.445 606.566 214.075 613.957C225.648 621.29 237.737 628.394 250.398 634.066C262.888 639.738 277.039 641.571 290.445 645.467C303.622 649.306 316.856 652.972 330.721 654.92C344.241 656.868 358.049 655.951 372.085 655.951C386.179 655.951 399.699 655.264 413.22 653.373C427.085 651.425 440.491 649.019 453.668 645.181C467.074 641.285 481.569 640.311 494.058 634.582C506.662 628.795 517.719 619.686 529.292 612.238C540.922 604.733 551.235 595.566 561.605 586.457C572.032 577.348 582.287 568.238 591.281 557.697C600.219 547.213 608.755 536.27 616.146 524.525C623.536 512.838 631.557 501.265 637.229 488.546C642.844 475.942 644.333 461.677 648.114 448.213C651.838 434.979 653.958 421.515 655.849 407.536C657.625 393.958 660.375 380.38 660.26 366.229C660.146 352.078 660.547 338.099 658.541 324.521C656.479 310.599 655.104 296.334 651.208 283.214C647.198 269.808 639.406 257.777 633.677 245.345C627.833 232.741 619.469 221.855 612.021 210.34C604.516 198.767 596.323 188.168 587.328 177.856C578.276 167.543 568.594 158.434 558.224 149.554C547.855 140.731 538.058 131.507 526.485 124.288C515.027 117.069 503.397 110.309 490.907 104.809C478.589 99.3664 465.355 96.6737 452.178 93.0644C439.23 89.5123 426.741 83.153 413.105 81.4916C399.757 79.8874 386.007 80.3457 372.199 80.6895C371.455 80.6322 372.199 79.3718 372.199 79.3718L372.085 79.3145Z" fill="white"/>
<path d="M372.082 28.8401C387.093 28.4391 402.275 29.2411 416.884 30.788C431.665 32.3922 446.275 36.3453 460.597 39.8973C474.92 43.5067 488.842 48.8921 502.649 54.4493C515.998 59.8347 528.43 66.8816 540.805 73.9284C553.237 80.9752 565.097 88.9387 576.555 97.647C587.956 106.298 601.133 113.173 611.445 123.371C621.758 133.569 631.612 144.569 640.492 155.97C649.43 167.428 654.414 181.751 661.805 194.297C669.195 206.787 676.872 219.162 682.659 232.625C688.617 246.604 694.002 260.87 698.07 275.479C702.138 290.088 702.711 305.443 704.773 320.567C706.893 335.578 711.533 350.416 711.648 365.828C711.763 381.239 711.877 396.765 710.044 411.775C708.211 426.957 700.648 440.936 696.81 455.603C692.971 470.327 689.419 484.879 683.633 498.973C678.075 512.608 673.664 526.759 666.445 539.42C659.226 552.139 649.029 562.795 640.206 574.425C631.383 585.998 624.68 599.519 614.367 609.946C604.055 620.373 591.451 628.279 579.993 637.159C568.477 646.097 556.331 654.06 543.727 661.393C531.18 668.727 519.035 677.091 505.514 682.82C491.535 688.721 476.868 693.247 462.316 697.143C447.707 701.039 432.868 705.221 417.801 707.169C402.848 709.06 387.436 707.799 372.14 707.799C356.843 707.742 341.833 705.737 326.88 703.732C311.755 701.669 296.401 700.924 281.849 696.914C267.239 692.961 252.516 688.492 238.536 682.648C225.016 676.977 212.583 668.956 200.037 661.737C187.433 654.461 174.141 647.93 162.625 639.107C151.167 630.341 141.886 618.883 131.574 608.685C121.261 598.487 112.782 586.972 104.016 575.686C95.1936 564.399 84.9385 553.972 77.7197 541.655C70.501 529.337 67.5792 515.014 62.0219 501.837C56.2355 488.145 50.6783 474.796 46.8397 460.53C43.0012 446.322 38.4179 432.285 36.5846 417.562C34.7513 403.01 32.6888 388.228 32.8033 373.333C32.9752 358.437 35.8971 343.656 37.9596 329.104C40.0794 314.323 43.4595 299.943 47.5272 285.62C51.5949 271.297 56.3501 257.203 62.3084 243.453C68.0948 230.104 73.0792 216.355 80.4124 203.98C87.803 191.49 96.1675 179.402 105.048 167.886C113.928 156.428 122.923 144.683 133.235 134.256C143.547 123.829 155.865 115.522 167.209 106.527C178.667 97.4751 190.412 88.7668 202.844 81.2044C215.219 73.6992 228.453 67.569 241.802 61.6108C255.552 55.4233 269.073 48.2046 283.453 43.9077C297.776 39.6109 312.901 38.3505 327.682 35.9442C342.291 33.5953 357.129 31.9339 372.14 31.5328M372.082 4.37676C358.275 4.72051 344.984 5.69444 331.577 7.58506C317.885 9.47567 304.479 10.7934 291.302 14.1736C277.953 17.611 264.661 20.9339 251.885 25.7464C238.937 30.6161 225.99 35.3713 213.729 41.6161C201.412 47.9181 189.266 54.7358 177.75 62.2982C166.178 69.8607 157.011 80.6888 146.297 89.4543C135.584 98.2199 125.558 107.329 115.818 117.183C106.079 127.037 94.0478 134.714 85.4541 145.543C76.8604 156.313 69.8708 168.344 62.423 179.975C55.0324 191.547 48.6158 203.693 42.4856 216.011C36.47 228.271 28.6211 240.016 23.9232 252.906C19.2826 265.682 18.6524 279.719 15.5014 293.068C12.3504 306.187 10.8608 319.536 9.14206 333.114C7.48061 346.463 1.75148 359.697 1.57961 373.447C1.40774 387.14 3.24105 400.832 4.61604 414.124C5.99103 427.702 10.4025 440.707 13.267 453.77C16.1889 467.061 17.4493 480.811 21.8034 493.53C26.2722 506.363 34.9231 517.478 40.7668 529.623C46.6678 541.884 51.1366 554.774 58.3553 566.232C65.6313 577.748 73.4229 588.977 81.9593 599.576C90.553 610.175 101.209 618.998 110.949 628.623C120.688 638.248 130.542 647.586 141.37 656.123C152.141 664.602 164 671.477 175.745 678.81C187.433 686.086 198.375 694.565 210.865 700.581C223.297 706.539 235.786 712.726 248.963 717.367C261.969 721.893 275.948 723.612 289.64 726.705C303.046 729.799 316.682 731.518 330.661 733.122C344.296 734.669 357.989 737.19 372.082 737.247C386.176 737.304 399.811 734.669 413.447 733.237C427.426 731.747 441.462 732.091 454.868 729.112C468.504 726.133 482.368 723.612 495.373 719.143C508.55 714.617 520.41 706.883 532.842 700.924C545.331 694.966 559.482 691.586 571.17 684.253C582.857 676.862 593.857 667.925 604.628 659.274C615.398 650.623 624.565 639.852 634.247 630.055C643.987 620.201 652.122 609.029 660.716 598.144C669.252 587.258 678.648 576.946 685.924 565.144C693.2 553.342 700.075 541.196 705.976 528.592C711.82 516.045 716.804 502.926 721.216 489.691C725.627 476.572 727.518 462.593 730.44 448.9C733.304 435.379 735.596 421.744 737.028 407.707C738.403 393.958 738.059 380.093 737.945 365.942C737.83 351.791 738.919 337.812 737.314 324.062C735.653 310.026 732.731 296.391 729.58 282.87C726.372 269.177 723.164 255.599 718.523 242.537C713.825 229.36 706.606 217.386 700.533 205.011C694.461 192.521 689.591 179.402 682.2 167.772C674.752 156.084 666.445 145.027 657.851 134.313C649.2 123.6 639.404 114.032 629.664 104.407C619.925 94.7824 610.3 85.1002 599.529 76.6784C588.815 68.2565 576.555 62.2409 564.982 55.1368C553.409 48.0327 543.212 38.4651 530.837 32.7359C518.576 27.0641 504.425 26.1474 491.477 21.8506C478.701 17.611 465.868 14.4027 452.462 11.6527C439.285 8.96004 426.28 6.15275 412.587 5.00692C399.181 3.8611 386.119 3.00173 372.312 3.40277C371.051 3.68923 372.025 4.49132 372.025 4.49132L372.082 4.37676Z" fill="white"/>
</svg>
