<svg width="955" height="501" viewBox="0 0 955 501" fill="none" xmlns="http://www.w3.org/2000/svg">
<g clip-path="url(#clip0_1476_33321)">
<path d="M682.798 282.834C631.623 282.834 631.623 284.483 580.475 284.456C529.299 284.456 529.326 284.7 478.151 284.645C426.975 284.618 426.975 282.402 375.8 282.348C324.625 282.293 324.652 284.618 273.476 284.564C256.445 284.537 244.631 269.263 244.469 252.096C244.469 251.312 243.658 251.34 243.658 250.556C243.496 233.389 255.85 218.71 272.936 218.682C324.219 218.601 324.246 220.304 375.53 220.25C426.813 220.196 426.813 219.656 478.097 219.629C529.407 219.629 529.407 218.764 580.691 218.737C632.001 218.737 631.974 220.44 683.285 220.44C700.37 220.44 714.996 233.227 714.833 250.556C714.833 251.34 714.022 251.34 713.995 252.124C713.833 269.452 699.776 282.834 682.771 282.834H682.798ZM273.071 232.794C263.744 232.794 257.121 241.175 257.202 250.556C257.202 251.34 257.445 251.34 257.445 252.096C257.526 261.477 264.041 270.182 273.368 270.182C324.544 270.236 324.544 267.884 375.746 267.911C426.948 267.911 426.948 271.426 478.124 271.453C529.326 271.453 529.326 270.669 580.502 270.669C631.704 270.669 631.704 268.56 682.906 268.56C692.233 268.56 700.857 261.558 700.938 252.069C700.938 251.285 700.424 251.285 700.424 250.501C700.506 241.013 692.53 233.659 683.177 233.659C631.92 233.659 631.92 231.956 580.664 231.956C529.407 231.956 529.38 234.2 478.124 234.2C426.84 234.2 426.867 233.632 375.584 233.416C324.3 233.2 324.327 232.659 273.044 232.713L273.071 232.794Z" fill="white"/>
<path d="M686.42 312.304C634.352 312.304 634.325 315.818 582.258 315.791C530.217 315.764 530.19 317.251 478.15 317.197C426.082 317.116 426.082 316.386 374.015 316.278C321.947 316.143 321.947 314.196 269.88 314.061C236.006 313.953 209.837 286.135 209.459 252.018C209.459 251.369 209.891 251.342 209.891 250.694C209.513 216.577 234.763 189.489 268.826 189.353C321.163 189.191 321.163 190.867 373.474 190.759C425.785 190.651 425.785 189.38 478.123 189.299C530.461 189.245 530.461 185.812 582.799 185.758C635.136 185.758 635.109 190.164 687.447 190.191C721.51 190.191 750.274 216.171 749.896 250.666C749.896 251.342 749.436 251.342 749.436 252.018C749.058 286.514 720.293 312.304 686.447 312.331L686.42 312.304ZM268.934 200.437C242.63 200.518 222.652 224.308 222.949 250.694C222.949 251.369 224.409 251.342 224.436 252.018C224.706 278.376 243.603 297.976 269.772 298.057C321.866 298.165 321.866 300.112 373.961 300.22C426.055 300.301 426.055 301.95 478.15 302.031C530.244 302.085 530.245 302.518 582.339 302.572C634.434 302.572 634.434 301.166 686.528 301.166C712.697 301.166 736.622 278.674 736.919 252.045C736.919 251.369 735.676 251.369 735.676 250.694C735.973 224.038 713.643 204.628 687.339 204.601C635.055 204.601 635.082 200.167 582.772 200.167C530.461 200.167 530.461 203.708 478.177 203.762C425.866 203.817 425.866 204.141 373.555 203.465C321.244 202.789 321.245 200.329 268.934 200.464V200.437Z" fill="white"/>
<path d="M690.016 345.095C637.056 345.122 637.056 344.365 584.097 344.338C531.137 344.311 531.137 343.797 478.178 343.689C425.191 343.581 425.218 346.339 372.231 346.176C319.272 345.987 319.272 346.852 266.312 346.636C215.677 346.338 175.127 302.814 174.478 251.882C174.478 251.341 170.99 251.314 170.99 250.773C170.314 199.841 213.596 156.992 264.717 156.722C318.082 156.479 318.082 157.452 371.447 157.263C424.813 157.101 424.813 156.56 478.178 156.452C531.543 156.371 531.543 154.316 584.935 154.262C638.327 154.235 638.3 157.371 691.665 157.398C742.76 157.452 785.257 199.138 784.581 250.773C784.581 251.341 780.526 251.314 780.526 251.882C779.877 303.517 740.705 345.041 690.043 345.095H690.016ZM264.798 171.374C221.49 171.591 185.372 207.573 185.913 250.8C185.913 251.341 185.426 251.368 185.426 251.909C185.967 295.163 223.166 329.631 266.15 329.821C319.137 330.01 319.137 329.145 372.15 329.28C425.137 329.415 425.164 332.443 478.151 332.551C531.137 332.632 531.164 329.091 584.151 329.118C637.165 329.118 637.138 330.361 690.151 330.334C733.135 330.334 768.388 295.677 768.928 251.882C768.928 251.314 768.415 251.314 768.415 250.773C768.955 206.978 734.784 173.943 691.476 173.916C638.138 173.916 638.165 170.78 584.827 170.78C531.489 170.807 531.489 172.753 478.151 172.807C424.813 172.915 424.813 168.995 371.475 168.968C318.136 168.941 318.136 171.158 264.798 171.347V171.374Z" fill="white"/>
<path d="M693.611 375.456C639.759 375.483 639.732 378.754 585.88 378.727C532.028 378.673 532.028 377.591 478.177 377.456C424.298 377.294 424.298 375.861 370.446 375.645C316.594 375.402 316.594 377.78 262.743 377.456C229.031 377.24 199.267 360.371 176.802 337.932C154.363 315.494 140.333 285.703 139.873 251.802C139.873 251.342 140.197 251.342 140.197 250.91C139.738 217.009 150.443 185.055 172.503 162.617C194.563 140.179 226.517 127.986 260.58 127.77C314.972 127.446 314.972 127.959 369.392 127.716C405.653 127.572 441.915 127.428 478.177 127.283C532.596 127.175 532.596 126.472 586.988 126.418C641.381 126.391 641.381 127.797 695.8 127.824C729.863 127.851 759.952 140.665 782.012 163.32C804.072 185.974 818.481 216.496 818.021 250.883C818.021 251.343 818.913 251.315 818.913 251.775C818.454 286.162 802.206 316.548 779.768 339.203C757.303 361.857 727.376 375.401 693.665 375.429L693.611 375.456ZM260.634 139.881C230.464 140.043 204.62 155.155 185.101 175.025C165.555 194.895 153.174 220.848 153.552 250.91C153.552 251.342 152.147 251.342 152.147 251.802C152.552 281.864 166.907 307.871 186.804 327.768C206.701 347.638 232.681 362.777 262.58 362.939C316.459 363.236 316.459 362.966 370.365 363.182C424.244 363.371 424.244 363.723 478.15 363.831C532.028 363.939 532.055 360.722 585.961 360.803C639.867 360.803 639.84 363.263 693.746 363.236C723.645 363.209 751.707 350.882 771.604 330.849C791.501 310.79 804.369 282.269 804.774 251.802C804.774 251.342 804.126 251.342 804.126 250.91C804.531 220.443 793.501 191.435 773.956 171.376C754.41 151.317 725.835 139.287 695.665 139.26C641.3 139.232 641.273 140.53 586.907 140.557C532.542 140.611 532.542 141.53 478.177 141.639C423.811 141.774 423.811 139.8 369.419 139.584C315.026 139.368 315.026 139.638 260.661 139.935L260.634 139.881Z" fill="white"/>
<path d="M697.181 408.734C653.386 408.788 653.413 406.626 609.591 406.626C580.376 406.608 551.17 406.536 521.973 406.41C478.151 406.301 478.178 405.382 434.356 405.22C390.534 405.031 390.561 408.437 346.739 408.167C302.944 407.896 302.917 404.517 259.095 404.22C217.003 403.895 179.615 387.459 151.581 359.451C123.519 331.417 105.001 293.975 104.352 251.721C104.352 251.397 103.893 251.396 103.865 251.072C103.217 208.818 120.329 170.592 147.877 142.531C175.425 114.496 213.759 98.5192 256.364 98.1948C300.7 97.8704 300.7 96.7349 345.063 96.4646C389.426 96.2213 389.399 93.4368 433.762 93.2475C478.124 93.0853 478.124 97.4919 522.46 97.3837C566.823 97.3026 566.823 97.1675 611.186 97.1135C655.548 97.1135 655.549 95.978 699.911 96.032C742.517 96.0861 782.149 111.414 809.723 139.719C837.298 168.024 855.032 208.115 854.384 251.045C854.384 251.37 852.843 251.37 852.843 251.721C852.194 294.651 834.486 334.391 806.425 362.696C778.364 390.973 739.219 408.734 697.154 408.788L697.181 408.734ZM256.5 111.333C217.787 111.604 181.994 125.878 156.933 151.344C131.873 176.81 116.301 212.603 116.869 251.018C116.869 251.342 115.977 251.342 115.977 251.667C116.545 290.082 135.685 324.199 161.178 349.665C186.698 375.131 220.761 394.163 259.014 394.433C302.836 394.731 302.836 393.893 346.658 394.136C390.48 394.352 390.48 393.19 434.302 393.352C478.124 393.514 478.124 393.028 521.973 393.136C565.796 393.217 565.796 393.703 609.645 393.758C653.467 393.758 653.467 395.434 697.289 395.407C735.542 395.38 770.93 377.997 796.45 352.314C821.943 326.605 835.568 290.677 836.136 251.64C836.136 251.315 840.488 251.315 840.488 250.964C841.056 211.954 825.133 174.971 800.072 149.235C775.039 123.526 738.516 107.981 699.803 107.927C655.467 107.9 655.467 110.657 611.132 110.657C566.796 110.684 566.796 111.333 522.487 111.414C478.151 111.523 478.151 109.982 433.843 110.117C404.285 110.243 374.728 110.513 345.171 110.928C300.835 111.496 300.835 110.955 256.5 111.252V111.333Z" fill="white"/>
<path d="M700.751 440.824C671.068 440.86 641.394 440.914 611.728 440.986C567.203 440.959 567.203 440.743 522.705 440.635C478.18 440.5 478.18 439.689 433.682 439.472C389.157 439.229 389.157 439.905 344.632 439.608C300.107 439.256 300.08 435.147 255.555 434.769C222.277 434.471 190.647 428.091 163.505 412.06C135.551 395.542 114.141 370.374 97.5957 342.42C81.5375 315.278 70.3724 284.973 69.8047 251.586C69.8047 251.37 68.3178 251.37 68.3178 251.154C67.7771 217.794 78.8341 187.137 94.1894 159.995C110.004 132.015 133.118 109.874 161.017 93.3561C188.105 77.3519 218.492 67.5116 252.257 67.1872C282.373 66.9168 312.498 66.6645 342.632 66.4302C387.806 66.1058 387.806 62.8617 433.006 62.5914C478.207 62.3751 478.207 64.7 523.381 64.5649C568.582 64.4567 568.582 65.4841 613.756 65.43C658.957 65.43 658.957 62.8888 704.158 62.9428C737.923 62.9969 770.607 71.2423 797.695 87.2734C825.621 103.818 848.006 129.149 863.847 157.535C879.203 185.055 886.853 217.145 886.313 251.1C886.313 251.316 888.205 251.316 888.205 251.532C887.637 285.487 877.5 317.846 861.441 345.367C844.87 373.726 819.214 394.623 791.234 411.168C764.092 427.199 734.057 440.743 700.778 440.797L700.751 440.824ZM252.338 81.5963C221.141 81.8666 192.999 90.3283 167.965 105.116C142.175 120.336 121.386 141.233 106.787 167.105C92.5943 192.192 84.1597 220.281 84.6734 251.154C84.6734 251.37 85.3492 251.37 85.3492 251.586C85.8358 282.486 90.8911 312.602 105.733 337.689C121.034 363.534 145.148 383.458 170.993 398.678C196.08 413.439 224.682 424.847 255.447 425.09C299.972 425.469 299.972 423.495 344.524 423.793C389.076 424.063 389.049 422.576 433.601 422.793C478.153 422.955 478.153 425.793 522.678 425.901C567.23 426.01 567.23 426.983 611.782 427.037C656.334 427.037 656.334 426.253 700.886 426.226C731.651 426.172 761.388 417.386 786.476 402.598C812.32 387.324 831.893 363.182 847.167 336.96C862.009 311.521 872.85 282.891 873.336 251.532C873.336 251.316 874.337 251.316 874.337 251.1C874.823 219.713 864.604 190.678 850.411 165.239C835.786 139.044 814.078 118.525 788.287 103.278C763.281 88.463 735.166 78.5414 703.968 78.4874C658.822 78.4333 658.822 77.5412 613.648 77.5682C568.474 77.6223 568.474 79.5417 523.3 79.6228C478.126 79.758 478.126 79.2444 432.98 79.4606C387.806 79.6769 387.752 75.3244 342.578 76.2706C297.404 77.2438 297.485 81.2178 252.311 81.5963H252.338Z" fill="white"/>
<path d="M704.32 470.397C659.092 470.451 659.092 468.91 613.864 468.883C568.636 468.829 568.609 471.965 523.382 471.83C478.154 471.668 478.154 468.883 432.926 468.613C387.698 468.343 387.671 467.613 342.443 467.261C297.188 466.856 297.215 469.235 251.987 468.748C213.22 468.316 176.292 457.151 144.662 438.416C112.059 419.114 84.8631 391.025 65.5067 358.449C46.7451 326.82 35.7693 290.27 35.0664 251.449C35.0664 251.341 37.5535 251.341 37.5535 251.233C36.8506 212.412 42.4195 174.943 60.289 143.313C78.6992 110.737 107.545 84.4328 140.121 65.1305C171.723 46.396 208.598 37.5288 248.04 37.0963C294.052 36.6097 294.052 35.0417 340.064 34.6362C386.103 34.2577 386.103 34.7173 432.115 34.4469C478.154 34.2036 478.154 31.6895 524.166 31.5273C570.204 31.3921 570.204 33.2845 616.216 33.2304C662.255 33.2304 662.255 31.1218 708.294 31.1758C747.737 31.2569 783.611 45.3687 815.214 64.1032C847.79 83.4055 874.688 110.007 893.126 143.043C910.995 175.132 922.214 211.655 921.511 251.179C921.511 251.287 921.43 251.287 921.43 251.395C920.727 290.946 911.238 329.172 892.45 361.261C873.093 394.324 843.113 419.709 810.51 439.038C778.88 457.772 743.06 470.262 704.293 470.343L704.32 470.397ZM248.148 49.4238C211.301 49.8023 176.265 58.6964 146.717 76.1874C116.277 94.2191 93.4057 121.767 76.158 152.234C59.4239 181.809 47.7182 214.926 48.34 251.26C48.34 251.368 47.6371 251.368 47.6371 251.476C48.2859 287.81 60.8838 321.467 78.4289 351.042C96.5146 381.51 121.819 406.84 152.313 424.845C181.888 442.336 215.572 453.15 251.852 453.528C297.107 453.988 297.107 454.177 342.362 454.555C387.617 454.88 387.644 457.421 432.872 457.691C478.127 457.935 478.127 453.312 523.382 453.474C568.664 453.582 568.637 455.853 613.918 455.88C659.173 455.88 659.173 458.043 704.428 457.989C740.681 457.908 775.176 446.121 804.751 428.63C835.219 410.598 861.55 384.672 879.609 353.746C897.154 323.765 905.237 288.431 905.886 251.449C905.886 251.341 907.751 251.341 907.751 251.233C908.4 214.25 897.289 180.295 880.555 150.288C863.334 119.361 840.518 90.9751 810.077 72.9163C780.529 55.3983 745.033 45.8283 708.186 45.7472C662.174 45.6661 662.174 47.234 616.162 47.234C585.488 47.2701 554.822 47.2971 524.166 47.3151C478.154 47.4773 478.154 49.4779 432.169 49.6941C386.157 49.9645 386.157 46.2067 340.145 46.6933C294.133 47.234 294.16 48.9371 248.148 49.3967V49.4238Z" fill="white"/>
<path d="M707.859 500.812C661.928 500.893 661.928 498.623 615.997 498.623C570.04 498.568 570.04 499.055 524.109 498.893C478.151 498.704 478.151 499.001 432.22 498.731C401.582 498.514 370.943 498.253 340.305 497.947C294.347 497.487 294.374 499.839 248.416 499.271C215.489 498.839 184.4 489.972 155.554 477.509C125.682 464.587 98.1611 447.069 75.3444 424.252C52.5007 401.435 36.2803 373.428 23.331 343.583C10.8143 314.764 0.865795 284.297 0.216979 251.37C-0.431837 218.415 3.5962 186.055 15.1397 157.237C27.0887 127.419 48.8781 102.872 71.2893 80.0281C93.7005 57.2114 119.978 39.1527 150.066 26.2304C179.128 13.7677 210.217 4.1977 243.793 3.76516C290.643 3.19744 290.643 1.33205 337.52 0.845439C384.397 0.412895 384.397 4.65726 431.274 4.33285C478.124 4.03548 478.151 2.4405 525.001 2.25126C571.878 2.08906 571.878 2.33236 618.755 2.25126C665.632 2.25126 665.632 1.49425 712.509 1.60239C746.112 1.68349 778.31 8.11761 807.371 20.4722C837.46 33.2863 865.846 50.8313 888.257 73.8643C910.668 96.8973 926.564 126.067 938.513 156.399C950.057 185.704 955.274 217.658 954.625 251.234C953.977 284.838 946.461 316.305 933.944 345.637C920.968 375.996 902.315 402.517 879.498 425.577C856.654 448.61 830.134 466.452 800.261 479.266C771.416 491.648 740.813 500.65 707.886 500.731L707.859 500.812ZM243.955 18.0661C212.299 18.4446 181.21 23.1215 153.797 34.8543C125.438 47.0196 99.594 65.4026 78.4534 86.9217C57.3128 108.441 40.3354 134.664 29.0622 162.806C18.1675 190.002 12.3012 220.28 12.8959 251.37C13.4907 282.459 22.6012 311.872 34.388 339.068C46.6074 367.21 62.7465 393.758 84.2656 415.25C105.785 436.769 132.116 453.422 160.285 465.587C187.509 477.32 217.219 486.674 248.281 487.079C294.239 487.62 294.212 484.673 340.197 485.133C386.154 485.538 386.154 483.321 432.139 483.646C478.124 483.916 478.124 488.701 524.082 488.89C554.738 488.98 585.386 489.071 616.024 489.161C661.982 489.161 662.009 486.538 707.994 486.457C739.056 486.376 767.983 478.212 795.206 466.56C823.402 454.503 851.112 440.391 872.631 418.656C894.15 396.948 910.749 369.806 922.969 341.177C934.782 313.521 941.865 283.08 942.46 251.397C943.055 219.713 936.594 189.462 925.699 161.806C914.426 133.177 897.205 107.684 876.092 85.9756C854.951 64.2402 829.025 48.3983 800.667 36.3411C773.281 24.6894 744.03 15.7412 712.374 15.6601C665.524 15.579 665.551 14.7679 618.701 14.7679C571.851 14.822 571.851 14.4166 525.028 14.5788C478.178 14.768 478.178 14.2273 431.355 14.4977C384.505 14.8221 384.505 14.4706 337.655 14.8221C290.805 15.2276 290.805 17.5795 243.983 18.1202L243.955 18.0661Z" fill="white"/>
</g>
<defs>
<clipPath id="clip0_1476_33321">
<rect width="954.529" height="500" fill="white" transform="translate(0.150391 0.814453)"/>
</clipPath>
</defs>
</svg>
