<svg width="493" height="501" viewBox="0 0 493 501" fill="none" xmlns="http://www.w3.org/2000/svg">
<g clip-path="url(#clip0_1476_33330)">
<path d="M3.50308 116.296C3.31112 116.476 3.12536 116.655 2.93341 116.835C-0.0882996 113.819 0.171766 108.129 3.19348 105.596C10.5434 99.392 11.0883 100.16 18.4382 93.8253C25.7882 87.2742 25.5219 87.0513 32.8719 79.7075C40.2218 72.0232 40.1908 71.9303 47.5408 63.5835C54.8907 55.0633 54.8597 54.9394 62.2097 46.3387C69.5596 37.8494 69.2438 37.5027 76.5938 29.5459C83.9437 21.8802 84.179 22.0969 91.5289 15.2114C98.8789 8.54874 99.1513 8.96361 106.507 2.50533C109.529 -0.120092 114.489 -0.825983 117.511 2.17715C117.269 2.40625 117.034 2.62917 116.792 2.85827C119.814 5.86141 120.532 10.9636 117.511 13.5148C110.161 19.7068 110.049 19.3972 102.699 25.6821C95.3494 32.1899 95.4609 32.258 88.1109 39.5708C80.761 47.218 80.6124 47.156 73.2625 55.4967C65.9125 64.0045 65.6586 63.8993 58.3087 72.4938C50.9588 80.9893 50.7606 80.9026 43.4107 88.8655C36.0608 96.5251 36.5375 96.9275 29.1876 103.838C21.8377 110.507 21.7138 110.234 14.3639 116.692C11.3422 119.33 6.51859 119.299 3.49688 116.302L3.50308 116.296Z" fill="white"/>
<path d="M5.00706 240.775L5.06279 240.719C2.04108 237.703 1.96059 232.223 4.9823 229.468C13.0815 222.168 13.0195 222.199 21.1187 215.288C29.2179 208.44 29.416 208.7 37.5152 201.746C45.6144 194.681 46.1221 195.195 54.2213 187.734C62.3205 180.08 62.2709 180.031 70.3701 171.888C78.4693 163.529 78.4259 163.486 86.5251 154.675C94.6243 145.696 94.2961 145.386 102.389 136.092C110.488 126.693 110.643 126.792 118.742 117.262C124.142 110.901 129.545 104.564 134.953 98.2528C143.052 88.878 143.337 89.0886 151.436 79.9987C159.535 71.0698 159.164 70.7416 167.263 62.2337C175.362 53.924 175.257 53.8373 183.356 45.9982C191.455 38.3511 191.523 38.4378 199.622 31.1807C207.722 24.0413 207.536 23.9175 215.635 16.9019C223.734 9.84299 224.044 10.2207 232.143 2.82124C235.165 0.0286309 239.914 -0.231434 242.936 2.79028C242.991 2.74074 243.041 2.68501 243.097 2.63547C246.118 5.66957 245.536 10.4003 242.515 13.1619C234.415 20.4871 235.047 21.0506 226.948 27.9609C221.548 32.5265 216.155 37.1106 210.768 41.7134C202.669 48.7661 202.062 48.1593 193.969 55.6145C185.87 63.2554 186.229 63.5836 178.13 71.7075C170.031 80.042 170.099 80.1225 162 88.909C153.907 97.875 153.975 97.9617 145.882 107.256C137.783 116.649 137.256 116.247 129.157 125.776C121.058 135.318 121.405 135.634 113.312 145.089C105.213 154.464 105.287 154.557 97.194 163.659C89.0948 172.6 89.3115 172.805 81.2123 181.325C73.1132 189.647 73.2246 189.746 65.1255 197.598C57.0263 205.257 56.3637 204.638 48.2646 211.901C40.1654 219.047 40.8527 219.635 32.7535 226.651C24.6544 233.71 24.2395 233.227 16.1403 240.62C13.1186 243.406 8.02877 243.784 5.00706 240.768V240.775Z" fill="white"/>
<path d="M5.84945 365.959L6.36338 365.451C3.34167 362.435 2.60482 357.389 5.62653 354.541C13.6266 347.104 13.7071 347.228 21.7072 340.175C29.7073 333.24 29.8312 333.395 37.8313 326.59C45.8314 319.797 46.1719 320.156 54.1658 313.302C62.1659 306.391 61.6891 305.946 69.6892 298.843C75.0226 294.038 80.356 289.147 85.6894 284.168C93.6895 276.558 93.8443 276.701 101.844 268.775C107.178 263.396 112.522 257.924 117.876 252.36C125.876 243.858 126.08 244.031 134.08 235.245C142.08 226.353 142.012 226.291 150.012 217.183C158.012 207.994 157.95 207.938 165.95 198.607C173.951 189.238 174.341 189.542 182.341 180.117C190.341 170.687 189.579 170.043 197.579 160.65C205.579 151.287 206.415 151.962 214.415 142.724C222.416 133.553 221.716 132.965 229.716 123.999C237.716 115.126 238.36 115.671 246.36 107.064C254.36 98.5869 254.088 98.3454 262.088 90.1596C270.088 82.1037 270.026 82.0542 278.026 74.308C286.026 66.6918 285.71 66.4131 293.711 59.0632C301.711 51.8247 301.989 52.091 309.989 45.0506C317.99 38.066 317.928 38.0351 325.928 31.131C331.261 26.5241 336.59 21.8842 341.916 17.2113C349.916 10.0781 350.361 10.5549 358.362 3.0625C361.383 0.207979 365.742 -0.0335097 368.77 2.98201C368.907 2.84578 369.049 2.70956 369.185 2.57333C372.207 5.58266 372.417 11.2422 369.39 14.0843C361.389 21.5333 360.82 20.9017 352.82 27.9606C344.82 34.9081 345.018 35.0753 337.018 41.8865C329.018 48.6854 328.819 48.4625 320.826 55.3232C312.825 62.2397 312.584 61.9858 304.584 69.1005C296.584 76.3204 297.221 76.9086 289.228 84.3886C281.227 92.0048 280.806 91.6147 272.812 99.5529C264.812 107.621 264.744 107.565 256.744 115.943C248.744 124.451 249.091 124.754 241.097 133.535C233.097 142.426 233.041 142.383 225.041 151.492C217.041 160.681 217.214 160.829 209.214 170.161C201.214 179.529 201.053 179.411 193.053 188.836C185.053 198.272 184.619 197.926 176.619 207.325C168.619 216.694 169.096 217.096 161.102 226.335C153.102 235.505 152.743 235.214 144.749 244.18C136.749 253.047 137.145 253.388 129.145 261.995C121.145 270.478 121.034 270.385 113.033 278.571C105.033 286.626 104.662 286.298 96.6617 294.038C88.6616 301.654 89.318 302.243 81.3179 309.586C73.3178 316.831 72.7853 316.323 64.7852 323.358C59.4518 328.006 54.1225 332.629 48.7973 337.228C40.7972 344.132 41.0325 344.33 33.0324 351.352C25.0323 358.473 25.3481 358.739 17.3418 366.219C14.3201 369.073 8.88973 368.962 5.86183 365.934L5.84945 365.959Z" fill="white"/>
<path d="M375.823 497.967C375.823 497.967 375.848 497.948 375.854 497.936C372.832 494.914 372.82 489.799 375.848 487.248C383.197 481.031 383.067 481.087 390.417 474.796C397.767 468.294 398.145 468.684 405.495 461.341C412.845 453.663 412.393 453.211 419.743 444.87C427.093 436.356 426.876 436.077 434.226 427.477C441.576 418.981 441.768 419.062 449.124 411.099C456.474 403.427 457.124 404.009 464.48 397.123C471.83 390.467 471.23 390.089 478.579 383.631C481.601 380.987 486.425 381.21 489.446 384.219C489.527 384.138 489.614 384.064 489.694 383.984C492.716 386.999 492.852 392.262 489.83 394.801C482.48 401.006 482.084 400.393 474.734 406.708C467.384 413.241 467.651 413.458 460.301 420.789C452.951 428.461 453.161 428.709 445.811 437.049C438.461 445.563 438.09 445.359 430.74 453.954C423.39 462.449 423.885 462.932 416.535 470.901C411.635 476.012 406.733 480.86 401.829 485.446C394.479 492.115 393.934 491.453 386.578 497.911C383.557 500.542 378.851 500.951 375.829 497.948L375.823 497.967Z" fill="white"/>
<path d="M250.39 497.348C250.434 497.311 250.471 497.267 250.514 497.23C247.493 494.209 247.431 489.899 250.452 487.131C258.552 479.794 258.533 479.868 266.632 472.945C274.731 466.078 274.137 465.546 282.236 458.604C287.635 453.907 293.023 449.079 298.397 444.121C306.496 436.499 306.633 436.629 314.726 428.511C322.825 420.189 323.227 420.53 331.326 411.731C339.426 402.765 339.339 402.672 347.438 393.378C355.537 383.984 355.735 384.114 363.835 374.591C371.934 365.049 371.29 364.492 379.389 355.03C387.488 345.649 388.225 346.231 396.324 337.135C404.423 328.194 404.132 327.928 412.225 319.408C420.324 311.086 420.151 310.937 428.25 303.085C436.349 295.432 436.411 295.506 444.51 288.237C452.61 281.091 452.535 281.067 460.635 274.051C468.734 266.998 468.548 266.905 476.647 259.518C479.669 256.726 484.449 257.172 487.471 260.193C487.694 259.977 487.917 259.76 488.146 259.537C491.167 262.552 490.994 268.051 487.972 270.806C479.873 278.119 479.675 277.81 471.576 284.732C463.477 291.587 463.792 291.847 455.693 298.801C447.594 305.859 447.241 305.5 439.142 312.956C431.043 320.609 431.377 320.906 423.278 329.042C415.179 337.383 414.882 337.142 406.782 345.947C401.383 351.932 395.981 358.031 390.578 364.244C382.479 373.644 382.671 373.836 374.572 383.365C366.472 392.907 366.231 392.734 358.132 402.189C352.732 408.435 347.331 414.594 341.927 420.666C336.528 426.618 331.139 432.441 325.76 438.134C317.661 446.437 317.958 446.691 309.859 454.524C301.759 462.165 301.369 461.787 293.27 469.038C285.171 476.171 285.338 476.283 277.239 483.298C269.14 490.363 268.929 490.072 260.83 497.484C257.808 500.283 253.425 500.363 250.397 497.342L250.39 497.348Z" fill="white"/>
<path d="M123.757 497.941C123.757 497.941 123.801 497.898 123.825 497.879C120.804 494.852 121.2 489.737 124.228 486.895C132.228 479.452 132.073 479.334 140.073 472.288C148.073 465.347 147.776 465.08 155.77 458.275C163.77 451.489 163.999 451.737 171.993 444.882C179.993 437.972 180.396 438.374 188.396 431.266C196.396 424.052 195.758 423.464 203.758 415.984C211.758 408.374 212.297 408.869 220.297 400.937C228.297 392.869 228.402 392.956 236.403 384.578C244.403 376.07 244.52 376.169 252.52 367.382C260.52 358.491 260.205 358.218 268.205 349.104C276.205 339.921 276.069 339.791 284.069 330.459C292.069 321.085 292.125 321.122 300.125 311.691C308.125 302.255 307.902 302.063 315.902 292.663C323.902 283.301 324.496 283.772 332.497 274.533C340.497 265.369 339.747 264.737 347.748 255.765C355.748 246.892 355.89 247.003 363.884 238.396C371.884 229.913 371.971 229.981 379.971 221.796C387.971 213.74 387.798 213.591 395.804 205.839C403.804 198.21 404.206 198.582 412.207 191.244C420.207 184.006 419.649 183.504 427.649 176.464C435.65 169.473 436.43 170.235 444.43 163.337C452.43 156.42 452.176 156.216 460.176 149.194C468.176 142.073 467.966 141.912 475.972 134.426C478.994 131.565 483.824 131.788 486.845 134.81C487.043 134.618 487.242 134.42 487.44 134.228C490.461 137.25 490.158 142.723 487.136 145.566C479.136 153.008 479.235 153.07 471.235 160.123C465.902 164.75 460.579 169.333 455.266 173.869C447.266 180.662 447.452 180.823 439.458 187.671C431.458 194.582 431.129 194.247 423.129 201.356C415.129 208.569 415.222 208.644 407.222 216.13C399.222 223.752 398.906 223.455 390.912 231.387C382.912 239.455 382.85 239.399 374.85 247.783C366.85 256.291 366.763 256.223 358.763 265.004C350.763 273.895 351.116 274.205 343.116 283.313C335.116 292.502 335.035 292.447 327.035 301.778C319.035 311.153 319.159 311.264 311.159 320.695C303.159 330.131 302.985 329.995 294.985 339.401C286.985 348.763 287.109 348.875 279.109 358.119C271.109 367.283 270.923 367.147 262.923 376.113C257.59 382.025 252.254 387.851 246.917 393.593C238.916 402.07 238.737 401.928 230.737 410.107C222.737 418.163 223.3 418.646 215.3 426.405C207.3 434.027 206.891 433.656 198.891 440.993C190.891 448.232 191.436 448.715 183.43 455.761C178.096 460.418 172.773 465.049 167.46 469.656C159.46 476.566 159.188 476.282 151.188 483.303C143.188 490.424 143.404 490.591 135.404 498.071C132.383 500.926 126.773 500.975 123.751 497.948L123.757 497.941Z" fill="white"/>
<path d="M8.85218 488.981C8.64784 489.186 8.43731 489.384 8.23298 489.588C5.21127 486.566 5.70663 481.489 8.72834 478.603C16.5117 471.235 16.5984 471.353 24.388 464.318C32.1714 457.396 31.5088 456.746 39.2922 450.015C47.0756 443.334 47.7257 443.996 55.5091 437.365C63.2925 430.733 62.921 430.392 70.7043 423.724C78.4877 417.024 78.1719 416.727 85.9553 409.909C91.1442 405.323 96.3352 400.683 101.528 395.989C109.312 388.856 109.782 389.296 117.566 381.952C125.349 374.509 125.287 374.46 133.07 366.794C140.854 359.029 140.433 358.652 148.216 350.67C155.999 342.596 156.798 343.283 164.582 334.979C172.365 326.589 172.124 326.379 179.907 317.797C187.69 309.134 187.381 308.874 195.164 300.05C202.947 291.171 203.48 291.604 211.263 282.601C219.047 273.554 218.384 272.997 226.168 263.87C233.951 254.725 234.607 255.245 242.391 246.068C250.174 236.885 249.895 236.65 257.679 227.486C265.462 218.334 265.332 218.229 273.116 209.145C280.899 200.105 280.595 199.851 288.385 190.916C296.168 182.043 296.88 182.631 304.67 173.912C312.453 165.268 312.342 165.163 320.125 156.699C327.909 148.321 327.382 147.869 335.166 139.689C342.949 131.615 342.862 131.528 350.646 123.676C358.429 115.912 358.795 116.24 366.584 108.698C374.368 101.255 374.584 101.447 382.368 94.2148C390.151 87.0568 389.544 86.5057 397.328 79.5211C405.111 72.5984 405.835 73.2796 413.625 66.4869C421.408 59.7314 420.702 59.0689 428.486 52.3629C436.269 45.6507 436.474 45.8613 444.263 39.1058C452.053 32.3069 451.898 32.1769 459.687 25.2108C467.477 18.1396 467.855 18.5297 475.644 11.1488C478.666 8.25708 483.403 8.33757 486.425 11.3593C486.61 11.1735 486.802 10.9878 486.988 10.802C490.01 13.8237 489.595 19.1736 486.573 22.0591C478.79 29.4214 478.381 28.9818 470.598 36.0159C462.814 42.9386 463.074 43.1801 455.291 49.917C447.508 56.6044 447.341 56.4187 439.557 63.0565C434.368 67.4776 429.186 71.9132 424.009 76.3632C416.226 83.0691 416.894 83.7069 409.111 90.5244C403.922 95.1147 398.739 99.7649 393.563 104.475C388.386 109.185 383.199 114.011 378.002 118.952C370.219 126.389 370.027 126.215 362.243 133.881C354.46 141.646 354.144 141.367 346.361 149.361C338.578 157.454 339.098 157.906 331.314 166.203C323.531 174.587 322.776 173.95 314.992 182.532C307.209 191.194 307.797 191.696 300.014 200.52C292.23 209.405 292.323 209.486 284.54 218.489C279.351 224.524 274.174 230.594 269.01 236.7C261.227 245.845 260.484 245.251 252.7 254.427C247.511 260.549 242.312 266.659 237.103 272.756C229.319 281.901 229.641 282.174 221.858 291.251C214.075 300.292 214.465 300.626 206.681 309.549C198.898 318.422 198.242 317.877 190.458 326.602C182.675 335.246 183.207 335.704 175.424 344.168C167.641 352.546 167.572 352.49 159.783 360.658C151.999 368.732 151.442 368.249 143.659 376.101C135.875 383.853 136.532 384.435 128.748 391.977C123.559 396.943 118.373 401.839 113.188 406.664C105.404 413.822 105.559 413.959 97.7697 420.943C89.9863 427.866 89.881 427.761 82.0977 434.553C74.3143 441.309 74.401 441.383 66.6176 448.095C58.8342 454.808 58.0788 454.071 50.2892 460.82C42.4997 467.619 42.6421 467.736 34.8525 474.696C27.0629 481.761 27.3292 481.997 19.5396 489.39C16.5179 492.288 11.8863 492.003 8.85837 488.975L8.85218 488.981Z" fill="white"/>
</g>
<defs>
<clipPath id="clip0_1476_33330">
<rect width="491.226" height="500" fill="white" transform="translate(0.796875 0.208008)"/>
</clipPath>
</defs>
</svg>
