<svg width="651" height="651" viewBox="0 0 651 651" fill="none" xmlns="http://www.w3.org/2000/svg">
<g clip-path="url(#clip0_1476_33320)">
<path d="M464.666 119.174C464.416 118.862 464.167 118.551 463.918 118.24C464.992 117.166 468.371 117.804 470.27 119.361C476.918 125.604 476.731 125.821 483.348 132.064C489.98 138.323 489.668 138.665 496.363 144.862C503.026 151.089 502.107 152.039 508.942 158.095C515.776 164.151 516.601 163.326 523.249 169.6C529.912 175.858 529.694 176.076 536.264 182.397C542.803 188.749 542.616 188.967 548.921 195.552C550.634 197.265 550.883 200.44 548.563 202.791C548.454 202.682 548.376 202.542 548.267 202.402C546.041 204.628 541.838 206.061 540.078 204.395C533.804 197.778 534.707 196.875 528.465 190.228C522.19 183.58 523.187 182.584 516.757 176.123C510.296 169.693 509.674 170.316 503.275 163.793C496.861 157.316 496.939 157.238 490.509 150.746C484.095 144.239 484.157 144.177 477.836 137.607C471.547 130.975 471.811 130.71 465.786 123.844C464.183 122.023 463.498 120.31 464.681 119.158L464.666 119.174Z" fill="white"/>
<path d="M432.703 125.667C432.439 125.371 432.19 125.059 431.941 124.748C433.046 123.643 436.487 124.53 438.308 126.134C445.812 133.295 444.582 134.494 451.993 141.749C459.434 148.972 459.543 148.832 467.094 155.947C474.66 163.046 475.89 161.816 483.363 169.009C490.851 176.186 490.695 176.341 498.215 183.487C505.734 190.633 505.236 191.131 512.756 198.277C520.306 205.423 520.882 204.847 528.371 211.993C535.89 219.139 535.485 219.544 542.756 226.938C544.515 228.635 543.27 231.251 540.981 233.539C541.152 233.742 541.324 233.944 541.464 234.147C539.191 236.42 536.342 236.778 534.692 235.003C527.717 227.312 528.495 226.534 521.427 218.968C514.297 211.432 513.145 212.584 505.921 205.174C498.666 197.763 497.608 198.822 490.462 191.303C483.316 183.783 483.799 183.3 476.528 175.906C469.273 168.495 469.133 168.635 461.941 161.162C454.733 153.705 454.655 153.783 447.493 146.279C440.285 138.791 440.861 138.246 433.949 130.493C432.299 128.687 431.567 126.834 432.719 125.651L432.703 125.667Z" fill="white"/>
<path d="M401.412 132.734C401.412 132.734 401.537 132.858 401.584 132.905C402.72 131.768 404.339 131.395 406.114 133.076C413.26 140.129 413.587 139.802 420.826 146.761C428.05 153.735 426.944 154.841 434.184 161.8C441.407 168.774 442.404 167.778 449.643 174.737C454.469 179.376 459.29 184.021 464.106 188.671C471.33 195.645 470.442 196.564 477.759 203.414C485.092 210.279 485.637 209.735 492.892 216.709C500.131 223.668 500.178 223.622 507.417 230.581C514.641 237.586 514.734 237.493 521.927 244.499C529.166 251.458 528.247 252.376 535.129 259.724C536.81 261.468 536.888 263.445 534.599 265.734C534.646 265.781 534.708 265.843 534.755 265.889C532.482 268.162 529.259 269.05 527.547 267.306C520.65 260.005 522.005 258.65 515.123 251.333C508.273 243.985 506.047 246.211 499.041 239.019C492.113 231.748 494.2 229.662 487.038 222.625C479.923 215.542 478.865 216.6 471.828 209.439C464.775 202.293 465.227 201.841 458.081 194.758C450.982 187.659 450.997 187.643 443.883 180.528C436.752 173.429 436.363 173.85 429.373 166.61C424.713 161.805 420.053 156.989 415.393 152.163C408.418 144.939 408.558 144.799 401.646 137.482C399.965 135.738 400.245 133.839 401.397 132.687L401.412 132.734Z" fill="white"/>
<path d="M369.59 139.49C369.279 139.148 368.968 138.805 368.656 138.432C369.762 137.326 372.86 137.684 374.65 139.319C381.734 146.153 381.002 146.885 387.961 153.844C394.951 160.772 394.671 161.052 401.708 167.934C408.745 174.784 409.492 174.067 416.576 180.902C423.659 187.736 423.908 187.487 430.976 194.337C438.044 201.156 438.122 201.11 445.19 207.96C452.258 214.81 451.682 215.355 458.828 222.127C465.958 228.915 466.207 228.666 473.307 235.484C480.406 242.303 479.97 242.739 487.053 249.574C494.153 256.393 494.775 255.739 501.828 262.636C508.943 269.439 507.993 270.389 514.843 277.457C521.724 284.525 521.895 284.322 528.714 291.421C530.442 293.15 530.598 295.672 528.31 297.991C528.169 297.851 528.045 297.695 527.905 297.524C525.632 299.797 522.004 301.556 520.292 299.844C513.457 292.76 513.333 292.885 506.483 285.817C499.633 278.749 499.726 278.655 492.892 271.572C486.057 264.488 487.24 263.305 480.328 256.299C473.431 249.278 473.634 249.076 466.69 242.101C459.731 235.142 460.26 234.613 453.239 227.716C446.218 220.819 445.673 221.364 438.729 214.421C431.77 207.461 432.16 207.072 425.154 200.16C418.132 193.263 417.385 194.01 410.582 186.896C403.732 179.828 403.856 179.703 396.991 172.651C390.11 165.583 390.53 165.194 383.742 158.063C376.954 150.933 376.456 151.431 369.622 144.348C367.909 142.635 368.438 140.611 369.622 139.459L369.59 139.49Z" fill="white"/>
<path d="M336.603 144.831C336.712 144.94 336.805 145.033 336.898 145.158C338.019 144.037 341.071 144.286 342.846 145.936C349.805 152.677 349.166 153.315 356.063 160.15C362.944 166.969 362.913 167 369.825 173.819C376.753 180.622 376.598 180.747 383.541 187.535C390.485 194.291 391.512 193.295 398.456 200.052C405.399 206.839 404.34 207.867 411.362 214.577C418.367 221.271 418.041 221.598 425.077 228.293C432.099 234.971 432.068 235.034 439.089 241.712C446.095 248.407 446.25 248.282 453.256 254.977C460.277 261.687 460.511 261.453 467.47 268.194C474.46 274.935 474.6 274.795 481.544 281.552C488.487 288.308 488.098 288.698 494.979 295.548C501.845 302.413 502.359 301.9 509.24 308.75C516.152 315.569 515.358 316.362 522.053 323.399C523.734 325.143 523.749 327.245 521.445 329.549C521.632 329.736 521.803 329.938 521.959 330.125C519.702 332.382 515.701 333.176 513.973 331.448C507.247 324.474 509.037 322.683 502.374 315.615C495.726 308.563 494.294 309.964 487.538 303.02C480.796 296.061 481.855 294.972 475.052 288.075C468.248 281.147 467.127 282.299 460.324 275.371C453.536 268.459 453.926 268.07 447.075 261.188C440.225 254.307 439.976 254.587 433.157 247.675C426.338 240.794 426.743 240.389 419.846 233.555C412.981 226.689 413.105 226.596 406.224 219.745C399.327 212.942 398.627 213.612 391.886 206.653C385.129 199.709 385.285 199.553 378.481 192.625C371.694 185.682 371.756 185.62 364.999 178.676C358.227 171.717 358.134 171.811 351.393 164.82C344.636 157.846 344.48 158.002 337.708 151.043C335.98 149.314 335.466 145.967 336.634 144.8L336.603 144.831Z" fill="white"/>
<path d="M305.339 152.054C305.339 152.054 305.292 152.007 305.277 151.991C306.429 150.839 308.515 151.618 310.227 153.33C316.937 160.196 317.28 159.822 324.083 166.595C330.886 173.336 330.388 173.865 337.176 180.622C343.979 187.363 344.104 187.269 350.954 193.964C357.804 200.689 358.256 200.238 365.121 206.916C371.987 213.626 372.796 212.786 379.678 219.48C386.543 226.19 386.014 226.719 392.926 233.383C399.807 240.046 399.154 240.731 406.081 247.347C413.009 253.964 413.912 253.092 420.762 259.786C427.628 266.496 427.644 266.45 434.525 273.144C441.39 279.854 441.219 279.994 448.085 286.704C454.966 293.398 454.732 293.632 461.598 300.311C466.175 304.784 470.752 309.257 475.329 313.731C482.164 320.441 482.304 320.332 489.123 327.057C495.957 333.798 495.677 334.079 502.418 340.913C509.175 347.732 508.848 348.059 515.511 354.971C517.208 356.699 517.566 359.673 515.278 361.961C515.402 362.086 515.527 362.21 515.636 362.351C513.378 364.608 509.19 364.748 507.462 363.02C500.83 356.077 500.41 356.497 493.747 349.616C487.068 342.719 487.457 342.33 480.778 335.464C474.084 328.583 474.255 328.412 467.576 321.546C460.866 314.712 461.069 314.509 454.328 307.675C447.618 300.84 448.303 300.124 441.531 293.352C434.758 286.58 434.556 286.751 427.768 279.963C420.98 273.175 420.622 273.533 413.866 266.746C407.078 259.958 406.533 260.503 399.823 253.668C393.098 246.818 393.269 246.647 386.528 239.843C379.802 233.025 380.316 232.48 373.528 225.723C366.709 218.966 366.102 219.605 359.423 212.708C352.713 205.842 353.071 205.484 346.346 198.634C339.62 191.784 339.418 191.986 332.724 185.136C328.25 180.559 323.787 175.972 319.335 171.374C312.64 164.493 312.843 164.29 306.211 157.347C304.514 155.588 304.171 153.221 305.323 152.069L305.339 152.054Z" fill="white"/>
<path d="M273.922 159.122C273.688 158.889 273.471 158.64 273.237 158.375C274.374 157.239 276.6 158.313 278.281 160.056C285.318 167.311 286.096 166.533 293.305 173.616C300.497 180.716 300.279 180.934 307.456 188.048C312.251 192.781 317.046 197.514 321.841 202.247C329.065 209.315 329.174 209.206 336.398 216.274C343.621 223.342 344.197 222.766 351.406 229.849C358.598 236.948 357.119 238.427 364.421 245.417C371.691 252.439 372.376 251.754 379.631 258.791C386.901 265.843 386.419 266.295 393.705 273.3C401.006 280.291 401.255 280.041 408.526 287.063C415.796 294.084 415.407 294.473 422.662 301.51C429.917 308.547 429.87 308.594 437.109 315.646C444.38 322.668 445.142 321.905 452.319 329.019C459.559 336.103 459.216 336.445 466.393 343.56C473.586 350.659 474.146 350.099 481.354 357.182C488.64 364.219 487.457 365.371 494.494 372.657C501.562 379.912 501.78 379.694 508.801 386.965C510.514 388.677 510.545 391.293 508.256 393.581C508.288 393.612 508.319 393.643 508.35 393.675C506.077 395.948 502.138 397.053 500.41 395.356C493.326 388.148 495.086 386.389 488.095 379.087C481.121 371.77 480.171 372.72 473.134 365.465C466.097 358.21 467.031 357.276 459.948 350.068C452.88 342.844 451.728 343.996 444.629 336.804C437.545 329.595 437.576 329.564 430.477 322.372C423.378 315.179 423.829 314.728 416.699 307.566C409.553 300.42 409.008 300.965 401.925 293.757C394.81 286.58 394.997 286.393 387.882 279.216C380.736 272.039 380.363 272.444 373.279 265.236C366.211 258.012 366.725 257.499 359.594 250.337C352.449 243.191 352.355 243.285 345.24 236.108C338.126 228.931 338.297 228.759 331.182 221.582C324.036 214.437 323.818 214.655 316.735 207.415C309.667 200.192 309.682 200.176 302.614 192.952C295.546 185.697 295.515 185.76 288.463 178.489C281.41 171.25 281.566 171.063 274.56 163.777C272.863 162.018 272.754 160.29 273.906 159.138L273.922 159.122Z" fill="white"/>
<path d="M242.273 165.956C242.149 165.832 242.008 165.691 241.884 165.567C243.036 164.415 245.449 164.244 247.193 165.925C254.276 172.946 254.432 172.759 261.578 179.75C268.692 186.74 267.899 187.534 274.982 194.555C282.035 201.608 282.813 200.829 289.928 207.819C297.042 214.809 297.089 214.763 304.204 221.753C311.303 228.759 309.731 230.331 316.892 237.275C324.038 244.234 324.334 243.938 331.48 250.897C338.641 257.84 339.84 256.642 346.97 263.616C354.1 270.591 353.945 270.746 361.075 277.721C368.19 284.711 367.847 285.054 374.993 292.013C382.139 298.972 381.796 299.314 388.958 306.258C396.135 313.217 396.228 313.092 403.39 320.036C410.535 326.995 410.738 326.792 417.884 333.751C425.03 340.71 425.294 340.446 432.425 347.42C437.178 352.07 441.932 356.72 446.685 361.37C453.831 368.329 453.255 368.905 460.323 375.973C467.391 383.01 467.282 383.119 474.319 390.187C481.356 397.286 481.605 397.006 488.657 404.089C495.71 411.173 494.947 411.936 501.844 419.144C503.525 420.887 503.338 422.475 501.05 424.764C501.096 424.811 501.143 424.857 501.19 424.904C498.917 427.177 496.924 427.488 495.243 425.714C488.424 418.428 486.649 420.202 479.628 413.119C472.653 405.988 474.693 403.98 467.733 396.803C460.79 389.642 460.899 389.502 453.956 382.371C446.981 375.241 446.903 375.319 439.897 368.22C432.907 361.105 431.272 362.74 424.267 355.641C417.292 348.51 418.693 347.109 411.61 340.088C404.557 333.035 403.608 333.985 396.586 326.901C389.565 319.818 390.172 319.18 383.12 312.158C376.067 305.106 376.036 305.137 368.984 298.084C361.916 291.048 361.573 291.39 354.536 284.322C347.53 277.254 347.873 276.88 340.805 269.844C333.752 262.791 333.394 263.149 326.373 256.066C319.352 249.013 319.227 249.106 312.222 242.007C305.216 234.908 305.107 235.017 298.117 227.902C291.095 220.788 291.049 220.834 284.074 213.704C277.068 206.605 277.473 206.2 270.53 199.039C263.555 191.877 263.399 192.033 256.456 184.872C249.512 177.71 249.761 177.461 242.88 170.206C241.214 168.447 241.09 167.108 242.242 165.956L242.273 165.956Z" fill="white"/>
<path d="M488.251 457.988C481.432 450.857 481.93 450.359 475.127 443.213C468.308 436.083 467.825 436.565 460.96 429.482C454.078 422.414 453.907 422.585 447.01 415.533C440.098 408.496 440.222 408.371 433.31 401.334C426.398 394.297 427.052 393.644 420.108 386.638C413.149 379.617 412.464 380.333 405.505 373.343C398.531 366.368 397.441 367.458 390.482 360.436C383.569 353.4 384.161 352.808 377.202 345.818C372.552 341.168 367.908 336.513 363.268 331.853C356.278 324.863 356.107 325.065 349.148 318.044C342.189 311.023 343.232 310.011 336.195 303.067C329.174 296.139 328.613 296.7 321.639 289.694C314.664 282.719 314.711 282.642 307.752 275.682C300.761 268.692 300.279 269.175 293.382 262.154C286.454 255.132 287.077 254.51 280.133 247.504C273.159 240.529 273.143 240.514 266.2 233.508C259.225 226.533 258.836 226.891 251.939 219.839C245.027 212.802 245.354 212.475 238.457 205.391C231.56 198.339 231.062 198.806 224.15 191.769C217.222 184.748 217.813 184.156 210.979 177.01C209.298 175.267 209.189 173.757 210.356 172.589C209.967 172.2 209.593 171.764 209.22 171.359C210.356 170.223 213.283 171.281 215.011 172.978C221.955 179.984 222.141 179.797 229.116 186.772C236.091 193.746 236.044 193.793 243.05 200.737C250.04 207.696 250.709 207.026 257.762 213.923C264.799 220.835 264.69 220.944 271.727 227.857C278.748 234.784 278.032 235.501 285.069 242.413C292.105 249.325 291.903 249.528 298.956 256.424C306.024 263.337 306.895 262.434 313.948 269.362C320.985 276.305 319.755 277.504 326.838 284.37C333.938 291.22 334.467 290.69 341.535 297.572C348.603 304.453 348.478 304.577 355.578 311.458C362.646 318.34 362.552 318.433 369.651 325.314C376.735 332.18 376.937 331.978 384.005 338.859C391.073 345.74 390.544 346.269 397.596 353.166C402.308 357.753 407.01 362.351 411.701 366.96C418.769 373.841 419.517 373.125 426.507 380.052C433.544 386.965 433.622 386.887 440.674 393.815C447.758 400.712 446.932 401.506 453.891 408.527C460.866 415.502 461.209 415.159 468.199 422.149C475.189 429.139 474.628 429.7 481.51 436.768C488.406 443.851 489.994 442.264 497.031 449.176" fill="white"/>
<path d="M467.235 476.576C460.416 469.57 461.568 468.418 454.749 461.412C447.946 454.391 448.366 453.939 441.563 446.949C434.775 439.912 432.595 442.092 425.699 435.164C418.833 428.174 418.74 428.267 411.889 421.324C405.039 414.349 404.884 414.474 398.034 407.499C391.215 400.493 393.114 398.594 386.171 391.713C379.258 384.8 378.558 385.501 371.645 378.558C364.764 371.614 365.574 370.805 358.615 363.908C351.671 356.995 350.177 358.521 343.295 351.547C336.461 344.556 337.815 343.171 330.856 336.305C323.897 329.408 322.839 330.467 315.973 323.508C309.076 316.549 309.621 316.035 302.678 309.123C295.75 302.195 296.217 301.728 289.289 294.831C282.33 287.965 281.489 288.806 274.624 281.816C267.727 274.857 267.618 274.997 260.752 268.007C253.887 261.048 254.338 260.596 247.457 253.622C240.576 246.678 240.342 246.881 233.476 239.922C226.58 232.963 227 232.573 220.15 225.568C213.284 218.577 213.238 218.655 206.388 211.65C199.553 204.628 199.506 204.675 192.688 197.638C185.869 190.601 185.651 190.819 178.847 183.798C177.15 182.07 177.041 180.124 178.193 178.972C177.851 178.629 177.524 178.271 177.197 177.913C178.334 176.777 180.778 178.411 182.49 180.155C189.309 187.161 190.165 186.304 197.124 193.17C204.068 200.051 204.301 199.818 211.261 206.714C218.22 213.58 218.297 213.502 225.256 220.368C232.231 227.249 231.204 228.245 238.163 235.111C245.106 241.992 245.807 241.292 252.766 248.157C259.725 255.023 259.398 255.35 266.388 262.215C273.363 269.066 272.537 269.891 279.543 276.71C286.549 283.529 287.608 282.47 294.598 289.336C301.572 296.186 300.856 296.902 307.893 303.721C314.914 310.555 314.883 310.586 321.905 317.39C328.941 324.209 329.222 323.897 336.227 330.747C343.249 337.582 343.202 337.597 350.223 344.432C357.245 351.266 356.871 351.609 363.892 358.443C370.898 365.262 370.991 365.169 378.013 372.003C385.034 378.838 385.563 378.277 392.538 385.159C399.513 392.009 399.668 391.853 406.643 398.734C413.649 405.553 412.839 406.363 419.751 413.306C426.711 420.203 426.851 420.032 433.81 426.928C440.722 433.841 440.815 433.778 447.743 440.675C454.671 447.603 454.889 447.354 461.817 454.282C468.745 461.21 468.885 461.07 475.797 468.013" fill="white"/>
<path d="M448.83 497.407C441.949 490.339 441.809 490.479 434.912 483.427C428.016 476.374 429.323 475.066 422.442 467.998C415.592 460.899 413.88 462.612 406.952 455.59C400.039 448.553 400.429 448.164 393.501 441.143C386.588 434.075 388.161 432.534 381.202 425.543C374.243 418.522 373.76 419.036 366.817 412.03C359.873 405.024 360.558 404.339 353.552 397.365C346.578 390.39 345.021 391.947 338.093 384.926C331.196 377.873 332.644 376.425 325.607 369.482C320.937 364.853 316.261 360.219 311.58 355.579C304.559 348.62 304.606 348.605 297.584 341.646C290.547 334.702 289.816 335.465 282.857 328.444C275.913 321.438 276.147 321.173 269.203 314.199C262.213 307.209 261.964 307.489 255.036 300.468C248.108 293.446 248.435 293.088 241.492 286.114C234.533 279.092 234.75 278.905 227.791 271.884C220.801 264.894 220.241 265.454 213.36 258.386C206.432 251.334 206.51 251.287 199.582 244.235C192.654 237.182 193.059 236.778 186.208 229.678C179.358 222.579 179.514 222.392 172.726 215.231C171.029 213.472 170.516 211.993 171.668 210.841L171.917 211.09C173.053 209.953 174.968 209.533 176.712 211.214C183.718 218.158 183.453 218.423 190.427 225.397C197.402 232.372 196.795 232.979 203.77 239.954C210.713 246.959 211.943 245.729 218.995 252.626C226.032 259.538 226.157 259.445 233.178 266.342C240.215 273.254 239.499 273.97 246.536 280.883C253.573 287.795 252.872 288.496 259.924 295.392C266.992 302.274 267.833 301.433 274.901 308.345C281.954 315.242 282.452 314.775 289.489 321.656C296.526 328.568 296.136 328.958 303.189 335.854C310.241 342.751 309.945 343.047 317.029 349.944C324.113 356.809 324.72 356.202 331.757 363.146C338.794 370.058 338.28 370.603 345.332 377.5C352.385 384.396 352.447 384.334 359.499 391.231C364.201 395.829 368.892 400.437 373.573 405.056C380.61 411.968 380.641 411.968 387.663 418.865C394.699 425.777 394.731 425.746 401.752 432.705C408.789 439.648 408.337 440.1 415.312 447.074C422.302 454.034 422.956 453.38 429.977 460.339C436.999 467.298 436.531 467.734 443.491 474.786C450.434 481.823 450.403 481.823 457.331 488.875" fill="white"/>
<path d="M164.15 241.805C164.492 242.148 164.819 242.537 165.162 242.879C166.329 241.712 167.684 241.977 169.396 243.72C176.355 250.866 177.103 250.119 184.202 257.125C191.285 264.146 190.211 265.22 197.264 272.272C204.285 279.356 205.655 277.986 212.816 284.93C219.931 291.92 219.153 292.698 226.283 299.673C233.398 306.663 234.254 305.807 241.384 312.781C248.53 319.771 248.468 319.803 255.598 326.777C262.713 333.767 262.137 334.343 269.283 341.302C276.444 348.246 277.036 347.654 284.151 354.644C288.894 359.305 293.642 363.96 298.396 368.609C305.526 375.584 304.747 376.362 311.924 383.29C319.101 390.218 319.491 389.829 326.636 396.788C333.782 403.747 333.393 404.136 340.555 411.08C347.7 418.039 347.872 417.867 355.002 424.842C362.132 431.817 362.428 431.552 369.527 438.527C376.642 445.517 376.766 445.392 383.897 452.398C391.011 459.388 391.136 459.264 398.266 466.238C405.428 473.213 404.509 474.1 411.499 481.246C418.505 488.376 419.61 487.271 426.756 494.23C428.547 495.896 427.659 500.582 425.34 502.902C425.277 502.839 425.215 502.777 425.153 502.715C422.88 504.988 419.003 505.408 417.291 503.696C410.378 496.503 409.693 497.188 402.719 490.058C395.744 482.927 396.632 482.071 389.657 474.91C382.698 467.764 384.052 466.378 377.093 459.264C370.119 452.133 370.041 452.211 363.035 445.112C356.029 438.013 355.485 438.558 348.463 431.474C341.411 424.391 340.804 425.029 333.767 417.961C326.745 410.877 326.419 411.204 319.413 404.105C312.423 396.99 313.59 395.823 306.475 388.833C299.392 381.811 297.835 383.368 290.86 376.238C283.886 369.107 285.069 367.924 277.97 360.919C270.902 353.882 271.058 353.695 263.99 346.689C256.89 339.683 256.143 340.431 249.153 333.316C242.163 326.201 242.459 325.905 235.422 318.837C228.385 311.769 228.618 311.536 221.597 304.452C214.576 297.369 214.295 297.649 207.29 290.519C200.3 283.404 200.237 283.466 193.278 276.32C186.304 269.19 186.506 268.956 179.563 261.795C172.635 254.618 172.51 254.711 165.598 247.519C163.87 245.791 163.013 242.942 164.165 241.79L164.15 241.805Z" fill="white"/>
<path d="M158 274.141C157.891 274.032 157.767 273.907 157.658 273.798C158.794 272.662 161.783 273.097 163.558 274.779C170.751 281.878 170.922 281.707 178.161 288.759C185.4 295.812 184.575 296.637 191.768 303.736C198.96 310.835 198.462 311.333 205.655 318.432C212.863 325.516 212.878 325.5 220.102 332.568C227.341 339.621 227.886 339.076 235.141 346.113C242.38 353.165 241.929 353.617 249.199 360.638C256.47 367.659 256.283 367.846 263.584 374.836C270.902 381.842 271.664 381.048 278.904 388.101C286.158 395.138 286.05 395.247 293.304 402.283C300.559 409.32 300.512 409.367 307.767 416.404C315.022 423.441 315.209 423.254 322.433 430.322C329.656 437.39 329.547 437.499 336.771 444.567C343.995 451.635 343.668 451.993 350.845 459.108C355.63 463.872 360.404 468.625 365.168 473.368C372.298 480.53 372.656 480.172 379.818 487.333C386.979 494.495 386.668 494.806 393.736 502.03C395.448 503.742 395.292 506.794 392.988 509.098C392.926 509.035 392.848 508.958 392.786 508.895C390.497 511.184 388.427 510.795 386.745 509.02C379.864 501.609 378.432 503.073 371.364 495.818C364.343 488.547 364.592 488.298 357.555 481.044C350.518 473.789 351.577 472.73 344.493 465.522C337.441 458.283 335.775 459.948 328.676 452.756C321.592 445.548 321.094 446.046 314.026 438.822C306.958 431.599 307.145 431.412 300.061 424.204C293.024 416.949 294.768 415.205 287.544 408.137C280.352 401.038 279.526 401.863 272.396 394.702C265.266 387.54 265.624 387.182 258.462 380.052C251.301 372.922 251.005 373.217 243.875 366.056C236.745 358.894 237.025 358.614 229.863 351.484C222.718 344.338 222.546 344.509 215.432 337.332C210.678 332.537 205.935 327.742 201.202 322.947C194.119 315.739 193.932 315.926 186.864 308.702C179.78 301.463 180.029 301.245 172.992 293.959C165.971 286.689 165.94 286.689 158.934 279.403C157.237 277.675 156.801 275.339 157.969 274.172L158 274.141Z" fill="white"/>
<path d="M151.135 305.791C151.135 305.791 151.073 305.729 151.026 305.682C152.162 304.546 154.84 305.231 156.599 306.928C163.372 313.7 163.263 313.84 170.035 320.612C176.838 327.384 176.667 327.556 183.47 334.297C190.289 341.053 190.865 340.477 197.7 347.187C204.565 353.897 204.332 354.131 211.182 360.825C218.048 367.504 218.701 366.881 225.552 373.576C232.417 380.285 232.23 380.472 239.112 387.167C245.977 393.845 245.79 394.063 252.672 400.727C259.553 407.421 259.164 407.779 266.076 414.442C272.988 421.106 273.237 420.825 280.134 427.504C287.015 434.199 286.673 434.51 293.57 441.189C300.482 447.852 300.684 447.618 307.55 454.328C314.431 461.023 313.964 461.521 320.767 468.262C327.571 475.003 327.555 475.05 334.296 481.853C341.084 488.641 342.018 487.707 348.853 494.448C355.672 501.205 355.718 501.158 362.537 507.915C364.312 509.565 363.798 513.784 361.479 516.104C361.245 515.87 361.027 515.59 360.794 515.356C358.521 517.629 356.061 517.816 354.379 516.041C347.825 509.02 347.171 509.674 340.524 502.777C333.876 495.849 334.452 495.273 327.804 488.376C321.141 481.464 319.491 483.114 312.781 476.28C306.133 469.383 308.375 467.141 301.572 460.369C294.831 453.534 292.729 455.636 286.019 448.802C279.356 441.889 281.255 439.99 274.389 433.28C267.555 426.539 266.963 427.131 260.175 420.374C253.388 413.586 253.061 413.913 246.304 407.125C239.516 400.337 238.94 400.913 232.261 394.048C225.583 387.182 226.19 386.544 219.418 379.772C212.63 372.984 212.427 373.186 205.702 366.367C201.208 361.811 196.724 357.244 192.251 352.667C185.525 345.817 185.743 345.63 179.033 338.765C172.339 331.884 172.448 331.775 165.785 324.862C159.137 317.934 158.514 318.557 151.804 311.691C150.076 309.995 149.936 306.959 151.104 305.791L151.135 305.791Z" fill="white"/>
<path d="M145.219 338.33C145.063 338.174 144.908 337.988 144.768 337.816C145.889 336.695 148.691 336.633 150.466 338.283C157.425 345.025 156.88 345.569 163.761 352.419C170.627 359.254 171.358 358.553 178.302 365.31C185.245 372.067 184.825 372.487 191.8 379.244C196.439 383.759 201.078 388.263 205.718 392.757C212.661 399.514 211.711 400.463 218.748 407.158C225.785 413.852 226.891 412.747 233.834 419.503C240.793 426.276 240.357 426.68 247.347 433.421C254.322 440.147 253.73 440.739 260.736 447.464C267.773 454.158 268.271 453.66 275.23 460.401C282.205 467.158 282.329 467.002 289.304 473.759C296.247 480.516 296.014 480.749 302.926 487.568C309.839 494.387 309.496 494.729 316.315 501.642C323.118 508.57 323.803 507.885 330.685 514.735C332.444 516.401 332.164 520.604 329.844 522.924C329.532 522.55 329.206 522.192 328.894 521.85C326.621 524.122 323.212 525.633 321.515 523.905C314.789 516.93 315.163 516.556 308.437 509.551C301.727 502.56 303.315 500.941 296.574 493.982C289.88 486.976 287.809 489.016 281.022 482.104C274.265 475.129 275.9 473.525 269.018 466.675C262.184 459.81 261.297 460.697 254.478 453.785C247.643 446.888 247.861 446.701 240.995 439.836C234.145 432.986 233.398 433.733 226.626 426.774C219.838 419.83 219.76 419.908 213.004 412.965C206.247 406.021 206.605 405.632 199.802 398.735C192.998 391.838 193.341 391.465 186.522 384.584C179.687 377.687 179.407 377.967 172.651 371.024C165.878 364.065 166.159 363.784 159.433 356.779C152.723 349.757 152.256 350.255 145.484 343.265C143.756 341.537 144.114 339.435 145.266 338.283L145.219 338.33Z" fill="white"/>
<path d="M138.494 370.12C138.167 369.762 137.856 369.419 137.545 369.046C138.681 367.909 141.281 369.264 142.994 370.976C149.844 378.013 150.373 377.515 157.379 384.427C164.385 391.339 163.684 392.04 170.721 398.921C177.742 405.818 179.097 404.464 186.165 411.314C193.217 418.179 192.236 419.16 199.382 425.932C206.497 432.736 207.353 431.848 214.421 438.729C221.489 445.58 220.555 446.514 227.716 453.27C234.893 460.011 235.656 459.248 242.693 466.13C249.761 472.98 249.543 473.198 256.611 480.048C263.695 486.882 263.975 486.602 271.028 493.468C278.127 500.287 277.224 501.19 284.074 508.258C290.955 515.294 291.874 514.376 298.879 521.288C300.67 522.923 300.405 527.422 298.07 529.757C297.93 529.617 297.805 529.462 297.681 529.306C295.408 531.579 292.73 530.894 291.08 529.119C284.432 521.88 283.295 522.985 276.461 515.902C269.642 508.802 269.424 509.02 262.574 501.952C255.708 494.9 256.269 494.339 249.372 487.318C242.475 480.297 241.541 481.231 234.691 474.163C227.841 467.095 228.651 466.285 221.707 459.311C214.748 452.352 214.188 452.912 207.338 445.844C200.487 438.776 201.11 438.153 194.151 431.194C187.208 424.22 187.317 424.111 180.373 417.136C173.445 410.146 173.305 410.286 166.44 403.234C159.574 396.181 159.636 396.119 152.817 389.02C145.998 381.921 145.796 382.123 138.993 375.008C137.311 373.265 137.342 371.303 138.51 370.135L138.494 370.12Z" fill="white"/>
<path d="M130.834 400.789C131.13 401.116 131.425 401.474 131.721 401.801C132.858 400.665 135.131 400.665 136.874 402.346C144.036 409.383 143.289 410.13 150.388 417.229C157.502 424.313 158.639 423.176 165.863 430.151C173.086 437.126 172.806 437.406 180.061 444.349C187.3 451.308 186.319 452.289 193.668 459.139C201.016 465.989 201.514 465.491 208.8 472.403C216.102 479.331 215.821 479.58 223.123 486.508C230.424 493.405 231.125 492.705 238.318 499.71C245.588 506.669 244.887 507.37 251.924 514.531C258.977 521.677 259.428 521.226 266.512 528.372C268.24 530.068 267.103 532.575 264.799 534.879C264.924 535.004 265.033 535.144 265.126 535.268C262.853 537.541 260.938 537.37 259.288 535.595C252.531 528.154 250.975 529.71 243.969 522.518C236.994 515.294 237.057 515.232 230.066 508.024C223.076 500.784 223.777 500.115 216.74 492.954C209.734 485.761 210.419 485.076 203.289 478.008C196.159 470.94 195.629 471.469 188.592 464.308C181.555 457.146 181.789 456.882 174.705 449.767C167.622 442.652 167.404 442.87 160.398 435.678C153.408 428.47 153.501 428.376 146.527 421.121C139.568 413.851 139.49 413.929 132.578 406.643C130.881 404.915 129.682 401.941 130.849 400.774L130.834 400.789Z" fill="white"/>
<path d="M125.246 433.809C125.137 433.7 125.028 433.56 124.934 433.436C126.055 432.315 128.328 432.657 130.087 434.354C137.42 441.687 137.467 441.609 144.893 448.848C152.35 456.056 153.097 455.278 160.586 462.455C168.043 469.632 166.72 470.986 174.364 478.008C182.023 485.013 182.957 484.079 190.446 491.256C197.965 498.402 197.171 499.196 204.691 506.342C212.195 513.503 212.599 513.099 220.01 520.354C227.374 527.655 227.701 527.328 235.08 534.614C236.87 536.249 236.092 540.079 233.741 542.398C233.679 542.336 233.632 542.289 233.585 542.211C231.344 544.453 227.483 545.636 225.723 543.94C218.562 536.467 219.512 535.486 212.381 527.982C205.22 520.478 205.407 520.291 198.183 512.881C190.913 505.486 190.103 506.295 182.926 498.807C175.734 491.334 175.796 491.272 168.603 483.799C161.411 476.326 161.644 476.093 154.389 468.682C147.166 461.241 147.384 461.023 140.191 453.55C133.03 446.015 133.108 445.968 126.133 438.277C124.498 436.456 124.078 434.977 125.246 433.809Z" fill="white"/>
<path d="M117.976 465.086C117.976 465.086 117.929 465.04 117.914 465.024C119.004 463.934 121.79 464.417 123.627 466.005C130.228 472.294 130.322 472.232 136.938 478.475C143.555 484.749 142.574 485.761 149.3 491.926C153.783 496.057 158.267 500.177 162.751 504.287C169.492 510.437 169.523 510.406 176.233 516.617C182.927 522.845 183.021 522.72 189.622 529.041C196.176 535.408 196.534 535.019 203.181 541.293C205.003 542.897 203.773 545.839 201.469 548.143C201.827 548.595 202.185 549.046 202.512 549.498C200.286 551.724 196.409 551.49 194.712 549.762C188.547 543.037 189.653 541.931 183.41 535.284C177.136 528.667 175.221 530.582 168.947 523.935C162.673 517.287 162.875 517.116 156.554 510.515C150.296 503.883 151.105 503.073 144.582 496.674C138.121 490.214 138.028 490.307 131.676 483.768C125.371 477.152 125.215 477.307 119.05 470.582C117.369 468.807 116.762 466.269 117.961 465.102L117.976 465.086Z" fill="white"/>
</g>
<defs>
<clipPath id="clip0_1476_33320">
<rect width="501.303" height="417.969" fill="white" transform="translate(650.068 296.17) rotate(135)"/>
</clipPath>
</defs>
</svg>
