<svg width="511" height="501" viewBox="0 0 511 501" fill="none" xmlns="http://www.w3.org/2000/svg">
<g clip-path="url(#clip0_1476_33239)">
<path d="M337.616 1.41766C348.868 0.771487 359.345 0.384123 368.417 2.74481C378.859 5.46738 388.052 10.5072 395.195 17.1843C402.346 23.8614 405.171 33.1581 408.083 43.0143C410.616 51.5782 414.183 60.9175 413.502 71.6266C413.217 76.138 412.492 80.8383 411.484 85.7096C419.332 85.1055 426.965 85.9995 433.931 85.7643C445.183 85.3852 455.763 83.3349 464.835 86.2555C475.277 89.6243 482.928 97.4564 490.071 105.15C497.213 112.835 503.115 121.554 506.027 132.349C508.551 141.723 511.36 152.518 510.679 163.675C510.11 173.023 505.328 182.001 502.494 192.314C500.047 201.205 496.567 210.166 492.44 219.729C488.632 228.543 484.392 237.434 479.361 246.48C474.648 254.967 471.882 265.228 466.17 273.895C460.743 282.132 454.298 290.136 448.043 298.588C442.03 306.695 435.706 315.01 428.986 323.263C422.472 331.259 414.347 338.177 407.222 346.258C400.261 354.15 393.351 362.318 385.864 370.175C378.377 378.024 370.468 385.339 362.766 392.765C354.883 400.364 348.705 409.876 340.666 416.881C332.378 424.109 323.969 431.105 315.612 437.558C306.91 444.287 297.372 449.5 288.688 455.272C279.547 461.337 270.104 466.369 261.083 471.271C251.451 476.501 241.406 479.844 232.049 483.695C220.642 488.391 210.122 492.75 199.827 495.197C187.627 498.109 176.306 500.805 165.898 500.805V500.814C156.016 500.814 146.642 499.453 138.622 496.955C129.618 494.155 123.578 487.477 117.211 481.524C117.34 481.679 117.47 481.834 117.59 481.989L115.582 483.049C108.44 476.371 103.133 467.902 100.23 458.038C97.6969 449.465 95.9819 439.54 96.6625 428.822C96.9614 424.103 98.345 419.316 100 414.335C89.2114 416.404 78.9816 416.691 69.6693 416.398V416.416C59.7873 416.114 50.293 415.881 42.2719 412.814C33.2686 409.376 25.2648 403.44 18.8979 396.556L19.061 396.41C11.9188 388.699 5.50054 379.05 2.59709 368.212C0.0640892 358.795 0.753366 348.076 1.434 336.936C2.00262 327.588 2.22644 317.026 5.06095 306.721C7.49918 297.83 11.3337 288.672 15.4692 279.134C19.2687 270.355 26.798 263.324 31.8295 254.26C36.5421 245.783 40.2904 236.298 46.0024 227.622C51.4302 219.368 56.4185 210.355 62.682 201.929C68.6957 193.831 75.8906 186.293 82.6108 178.039C89.1241 170.035 96.0853 162.134 103.21 154.061C110.163 146.178 116.556 137.459 124.043 129.61C131.53 121.77 139.758 114.739 147.452 107.33C155.335 99.7394 163.658 92.8558 171.688 85.8512C179.976 78.6227 186.619 69.4381 194.967 62.985C203.669 56.2649 212.431 49.8027 221.116 44.0475C230.257 37.9909 240.466 34.2348 249.496 29.3239C259.119 24.0942 268.726 19.726 278.082 15.8835C288.24 11.7049 297.631 7.18129 306.918 4.8034C317.696 2.04644 328.182 1.96904 337.616 1.41766ZM440.703 101.756C431.492 101.445 421.498 102.479 410.384 105.055C409.053 105.363 407.688 105.63 406.297 105.882C404.082 113.24 401.342 120.942 398.012 128.895C394.213 137.967 389.982 147.436 384.951 156.922C380.238 165.813 373.474 174.049 367.762 183.259C362.334 192.004 356.769 200.982 350.505 209.933C344.492 218.532 339.469 228.173 332.748 236.875C326.235 245.309 317.05 251.883 309.925 260.326C302.972 268.571 297.165 277.954 289.678 286.079C282.183 294.203 273.455 300.932 265.761 308.54C257.878 316.328 251.054 324.987 243.025 332.112C234.737 339.461 225.457 345.191 217.1 351.721C208.399 358.519 201.265 367.031 192.58 372.838C183.439 378.946 174.711 385.357 165.682 390.276C156.058 395.532 146.228 399.874 136.863 403.708C129.949 406.543 123.063 408.677 116.419 410.447C113.978 422.041 115.467 432.761 116.246 441.892C117.306 454.35 119.219 465.74 126.62 472.667L126.654 472.633C134.063 479.559 145.927 483.643 159.075 484.565C169.077 485.263 180.838 483.454 193.468 480.55C203.66 478.216 213.844 472.511 225.389 467.661C234.392 463.87 245.033 462.466 254.312 457.348C262.988 452.567 270.001 444.149 278.815 438.23C287.172 432.613 297.123 428.857 305.506 422.326C313.545 416.062 320.868 408.429 328.846 401.416C336.566 394.635 342.984 386.148 350.583 378.782C357.993 371.597 367.453 366.445 374.681 358.838C381.901 351.23 389.112 343.708 395.815 336.057C402.69 328.217 409.213 320.222 415.485 312.442C421.972 304.412 425.866 294.599 431.664 286.681C437.713 278.419 443.865 270.716 449.103 262.652C454.625 254.149 459.545 245.766 464.094 237.495C468.962 228.655 474.768 220.832 478.43 212.294C483.126 201.326 486.245 190.651 488.554 180.812C491.414 168.63 492.896 157.326 492.095 147.314C491.035 134.167 484.616 124.517 477.215 116.669C468.565 107.502 457.029 102.298 440.72 101.738L440.703 101.756ZM351.289 17.2702C341.287 16.5723 330.086 18.899 317.455 21.8024C307.263 24.1545 295.891 26.1616 284.337 30.9948C275.334 34.7598 266.761 40.438 257.482 45.5729C248.806 50.3632 239.992 55.5241 231.178 61.4431C222.821 67.0517 213.025 71.1183 204.642 77.6403C196.604 83.8953 190.202 92.7179 182.224 99.7223C174.496 106.503 166.467 113.137 158.876 120.495C151.467 127.672 144.212 135.141 136.993 142.758C129.773 150.374 123.018 158.188 116.315 165.839C109.44 173.687 101.505 180.348 95.224 188.119C88.7365 196.157 82.7909 204.376 76.9926 212.277C70.9445 220.505 66.7142 229.698 61.476 237.754C55.9534 246.257 48.1734 252.891 43.6244 261.119C38.7566 269.924 36.1718 279.694 32.5102 288.241C27.8147 299.209 22.6631 309.091 20.3627 318.922C17.5024 331.104 18.1398 342.993 18.9496 352.996C20.0093 366.135 23.1281 378.214 30.5375 386.115C30.568 386.136 31.7235 385.074 31.7436 385.055V385.063C39.153 392.955 49.9399 396.255 63.0873 397.841C73.09 399.047 84.204 398.9 96.8344 396.281C99.8765 395.648 102.98 394.923 106.144 394.095C107.914 386.927 109.688 379.343 112.886 371.726C116.686 362.645 119.287 352.418 124.319 342.941C129.031 334.058 134.813 325.124 140.525 315.931C145.953 307.204 154 299.682 160.263 290.73C166.277 282.132 170.869 272.198 177.589 263.497C184.103 255.071 191.53 247.014 198.655 238.571C205.607 230.335 212.268 221.556 219.754 213.431C227.241 205.307 236.96 199.474 244.654 191.866C252.537 184.077 258.774 174.738 266.804 167.613C275.092 160.264 285.174 155.482 293.531 148.952C302.232 142.154 310.813 135.864 319.506 130.057C328.656 123.94 337.453 118.159 346.473 113.231C356.097 107.967 365.196 102.772 374.552 98.9294C379.876 96.7393 384.9 94.2208 389.811 91.9831C389.911 91.5271 390.013 91.0736 390.12 90.6237C392.98 78.5102 393.833 68.1798 393.023 58.694C391.963 46.2447 389.809 36.1383 382.4 29.2028C374.99 22.2761 364.437 18.1921 351.289 17.2702ZM386.426 109.617C384.278 110.209 382.135 110.914 380.014 111.784C371.011 115.48 361.654 119.943 352.367 125.035C343.691 129.791 336.014 137.08 327.201 142.99C318.843 148.59 310.581 154.827 302.198 161.401C294.159 167.699 286.638 174.962 278.66 182.061C270.94 188.928 261.402 194.158 253.812 201.679C246.403 209.011 240.139 217.713 232.919 225.562C225.7 233.411 220.272 242.603 213.569 250.555C206.693 258.714 199.758 266.486 193.477 274.645C186.989 283.071 178.753 289.998 172.955 298.303C166.906 306.971 163.116 316.69 157.886 325.15C152.364 334.076 146.703 342.468 142.154 351.075C137.286 360.285 133.805 369.538 130.143 378.317C128.782 381.582 127.274 384.719 125.765 387.766C126.986 387.296 128.217 386.811 129.454 386.304C138.457 382.617 146.995 377.215 156.283 372.132C164.959 367.384 174.496 363.464 183.301 357.553C191.658 351.953 199.128 344.682 207.511 338.117C215.55 331.819 223.821 325.53 231.799 318.43C239.519 311.564 249.443 306.73 257.042 299.209C264.452 291.877 270.681 283.106 277.901 275.258C285.121 267.409 291.324 258.818 298.027 250.866C304.902 242.707 312.261 235.134 318.541 226.984C325.029 218.558 331.361 210.252 337.16 201.938C343.208 193.271 347.895 184.095 353.133 175.634C358.656 166.709 364.462 158.334 369.011 149.727C373.879 140.517 378.704 131.686 382.357 122.916C384.219 118.453 385.46 113.989 386.426 109.617Z" fill="white"/>
</g>
<defs>
<clipPath id="clip0_1476_33239">
<rect width="509.986" height="500" fill="white" transform="translate(0.796875 0.814453)"/>
</clipPath>
</defs>
</svg>
