<svg width="499" height="501" viewBox="0 0 499 501" fill="none" xmlns="http://www.w3.org/2000/svg">
<g clip-path="url(#clip0_1476_29252)">
<path d="M474.736 336.108C484.19 346.858 415.681 380.341 406.03 390.399C370.825 414.496 335.047 448.578 318.972 485.967C290.493 464.301 367.4 405.826 386.08 392.497C406.641 376.416 432.719 358.625 455.07 344.463C458.816 343.143 468.911 332.078 474.736 336.108Z" fill="white"/>
<path d="M252.455 398.724C230.598 419.878 206.501 443.549 205.261 475.348C202.91 482.481 208.661 494.237 201.472 497.748C188.137 497.137 192.592 480.044 192.919 471.281C195.313 446.215 211.981 423.426 229.167 405.938C299.915 336.423 396.81 296.504 469.386 229.34C508.62 184.848 504.745 215.628 471.478 240.806C404.777 301.169 319.187 338.7 252.455 398.724Z" fill="white"/>
<path d="M8.04586 342.192C4.73211 338.521 7.57687 332.523 6.92893 328.098C9.45898 335.559 19.5113 316.164 24.0407 313.097C33.6056 301.65 50.742 285.544 63.2812 276.016C145.23 201.034 344.228 131.081 351.466 16.7104C372.046 15.3097 356.15 44.4299 354.027 55.7473C321.223 126.922 243.779 164.934 180.386 206.717C138.152 234.27 95.3203 260.138 57.1844 293.202C44.8365 304.038 35.9443 313.134 26.3178 324.698C17.8699 332.257 18.4808 341.68 8.04586 342.192Z" fill="white"/>
<path d="M226.883 367.345C200.62 388.351 171.358 412.973 158.226 444.635C156.227 453.275 151.117 461.871 150.179 471.281C148.217 474.404 151.66 484.622 145.082 485.456C122.941 480.982 153.931 424.882 162.959 413.621C247.358 316.497 378.026 276.307 466.208 183.713C473.687 178.517 483.554 153.321 490.113 162.732C491.922 175.105 474.119 187.014 467.59 195.87C397.643 266.557 304.982 307.5 226.883 367.345Z" fill="white"/>
<path d="M55.753 138.782C87.4959 115.383 123.435 93.8524 151.408 65.5343C161.626 53.2852 166.316 46.9169 173.604 33.0139C178.516 27.6576 175.523 11.5949 186.057 15.0382C199.898 59.1599 118.758 104.904 88.0575 129.724C81.0968 138.215 40.0976 161.707 32.4827 171.161C31.2424 172.697 29.2862 173.475 27.3239 173.253C-1.48783 169.945 47.4224 147.557 55.753 138.782Z" fill="white"/>
<path d="M35.1049 414.996C18.1844 409.171 66.3911 361.088 72.8705 352.72C176.387 244.613 344.66 207.797 426.09 77.4502C429.546 70.0452 441.734 44.1955 443.813 66.2871C437.655 79.357 433.057 86.5831 425.276 97.4376C322.926 234.215 127.797 268.895 35.1049 414.996Z" fill="white"/>
<path d="M2.88067 297.287C-10.1954 281.49 59.9303 236.091 73.2717 224.342C133.401 179.06 203.125 146.546 256.349 93.1925C285.327 68.472 294.651 37.2537 296.064 2.15381C310.677 5.42436 306.401 20.87 305.691 31.4407C296.57 83.1895 246.765 117.407 207.513 146.533C138.393 194.364 61.4545 237.041 2.88067 297.287Z" fill="white"/>
<path d="M60.1347 443.956C41.9862 439.217 78.672 397.959 84.6331 388.048C186.156 269.858 359.045 233.505 451.022 105.719C456.039 96.0434 469.553 74.6984 467.887 96.5186C459.599 110.014 455.995 115.587 446.319 128.373C339.323 257.319 139.93 291.888 60.1347 443.956Z" fill="white"/>
<path d="M96.2214 467.418C76.0303 466.924 116.851 403.099 125.663 394.639C222.527 291.345 370.72 251.24 461.715 141.572C469.287 133.92 469.836 125.299 477.704 121.714C489.823 129.156 468.534 143.46 465.134 151.322C394.768 233.721 293.584 276.985 206.414 338.373C154.635 373.164 118.949 410.553 96.2214 467.418Z" fill="white"/>
<path d="M472.04 277.306C411.479 333.886 242.472 401.957 252.24 493.829C252.24 493.829 253.135 501.135 263.181 500.604C273.227 500.068 261.811 488.781 263.669 481.574C264.014 462.629 275.122 446.77 286.279 431.67C286.279 431.67 286.279 431.668 286.279 431.664C336.652 375.015 408.591 341.051 467.733 294.078C477.002 286.55 492.663 276.565 498.581 266.118C498.587 266.106 498.593 266.093 498.587 266.081C495.65 250.469 481.037 271.561 472.04 277.306ZM493.126 266.402C493.126 266.402 493.132 266.39 493.138 266.39C493.138 266.396 493.138 266.396 493.126 266.402Z" fill="white"/>
<path d="M20.3135 381.062C4.07182 374.33 48.539 333.868 54.7654 326.16C149.883 226.834 338.403 177.899 393.255 50.0329C396.039 41.9614 393.255 29.3116 393.255 27.1294C396.186 22.3677 410.201 41.4307 402.808 58.2648C375.595 120.121 316.916 158.64 262.168 193.666C177.646 249.018 78.7454 298.021 20.3135 381.062Z" fill="white"/>
<path d="M4.6821 242.502C-24.1543 234.807 95.2271 166.675 105.489 155.962C143.119 131.822 177.682 106.885 208.641 75.3832C231.406 54.0814 238.965 31.1073 236.25 1.12307C249.937 -2.61647 250.005 16.0257 248.678 26.257C245.95 52.5387 225.377 75.2042 207.574 93.0504C144.68 149.045 68.5196 187.841 4.6821 242.502Z" fill="white"/>
</g>
<defs>
<clipPath id="clip0_1476_29252">
<rect width="498.396" height="500" fill="white" transform="translate(0.203125 0.635742)"/>
</clipPath>
</defs>
</svg>
