<svg width="501" height="501" viewBox="0 0 501 501" fill="none" xmlns="http://www.w3.org/2000/svg">
<g clip-path="url(#clip0_1476_33294)">
<path d="M237.946 487.73C237.946 484.194 239.245 481.053 241.556 478.736C243.867 476.418 247.008 474.882 250.543 474.876C254.079 474.869 256.883 476.737 259.206 479.048C261.53 481.359 263.247 484.163 263.254 487.698C263.254 491.233 261.861 494.363 259.55 496.686C257.239 499.009 254.11 500.814 250.575 500.814C247.04 500.821 244.085 498.841 241.768 496.524C239.451 494.206 237.721 491.258 237.721 487.717C237.721 487.623 237.952 487.73 237.952 487.723L237.946 487.73ZM173.427 488.267C170.06 487.18 167.468 484.969 165.976 482.052C164.483 479.135 163.996 475.675 165.089 472.309C166.175 468.948 168.817 466.856 171.74 465.363C174.663 463.871 177.855 463.102 181.221 464.189C184.582 465.276 187.13 467.568 188.623 470.485C190.115 473.402 190.871 476.937 189.784 480.297C188.916 482.97 186.755 484.788 184.644 486.324C182.533 487.861 180.054 489.11 177.324 489.11C176.019 489.11 174.745 488.691 173.433 488.267H173.427ZM311.79 480.022C310.69 476.662 310.959 473.264 312.445 470.341C313.932 467.418 316.449 464.995 319.815 463.896C323.176 462.796 326.423 463.708 329.34 465.195C332.257 466.681 334.762 468.817 335.855 472.178C336.948 475.538 336.592 478.942 335.105 481.865C333.619 484.788 331.208 487.473 327.848 488.566C326.53 488.991 325.099 488.548 323.781 488.548C321.058 488.548 318.404 488.054 316.243 486.487C314.082 484.919 312.664 482.677 311.79 480.003V480.022ZM103.805 452.841C100.944 450.767 99.1644 447.863 98.646 444.634C98.1276 441.405 98.7397 437.957 100.82 435.096C102.893 432.236 106.06 431.062 109.295 430.549C112.53 430.037 115.816 430.293 118.676 432.367C121.537 434.447 123.248 437.414 123.76 440.649C124.272 443.884 123.898 447.475 121.818 450.336C119.313 453.79 115.166 455.089 111.212 455.089C108.608 455.089 105.947 454.677 103.68 453.028C103.605 452.966 103.811 452.841 103.811 452.841H103.805ZM379.606 449.793C377.526 446.938 376.727 443.628 377.233 440.393C377.739 437.157 379.381 434.066 382.236 431.986C385.09 429.9 388.463 429.756 391.698 430.268C394.933 430.78 397.975 432.03 400.061 434.884C402.141 437.738 402.859 441.092 402.353 444.328C401.848 447.563 400.386 450.867 397.525 452.947C395.24 454.608 392.429 454.814 389.812 454.814C385.865 454.814 381.936 453.359 379.419 449.924C379.369 449.843 379.613 449.793 379.606 449.793ZM48.536 397.715C46.45 394.861 45.6505 391.551 46.1502 388.315C46.6498 385.08 48.2925 381.988 51.1468 379.902C54.0011 377.822 57.3738 377.679 60.6091 378.185C63.8445 378.691 66.8924 379.94 68.9785 382.794C71.0583 385.648 71.7704 388.996 71.2707 392.238C70.771 395.479 69.3033 398.777 66.449 400.857C64.1755 402.518 61.3524 402.724 58.7354 402.724C54.7881 402.724 50.8595 401.282 48.3549 397.846C48.305 397.765 48.5423 397.709 48.536 397.709V397.715ZM434.769 400.095C431.915 398.015 430.141 395.111 429.629 391.875C429.117 388.64 429.729 385.192 431.802 382.338C433.882 379.478 437.043 378.31 440.278 377.798C443.513 377.285 446.792 377.548 449.653 379.628C452.513 381.707 454.218 384.674 454.731 387.903C455.243 391.132 454.862 394.724 452.782 397.584C450.277 401.038 446.13 402.337 442.177 402.337C439.572 402.337 437.043 401.744 434.763 400.095H434.769ZM12.7539 328.418C12.7539 328.418 12.8414 328.218 12.8414 328.212C11.7421 324.852 11.9982 321.373 13.4847 318.45C14.9712 315.527 17.7756 313.728 21.1358 312.623C24.496 311.523 27.7626 311.461 30.6793 312.948C33.5961 314.434 35.9071 316.964 37.0063 320.324C37.0063 320.324 37.3998 320.193 37.3998 320.199C38.4991 323.559 37.5247 326.982 36.0382 329.899C34.5517 332.815 32.2845 335.376 28.9243 336.469C27.5939 336.906 26.2448 337.256 24.927 337.256C22.2038 337.256 19.5369 336.238 17.3758 334.67C15.2148 333.103 13.722 330.867 12.8539 328.2C12.8226 328.112 12.7539 328.418 12.7602 328.418H12.7539ZM471.963 335.82C468.602 334.733 466.01 332.522 464.518 329.605C463.025 326.688 462.538 323.222 463.631 319.862C464.724 316.501 467.366 314.409 470.283 312.916C473.199 311.424 476.397 310.655 479.764 311.742C483.124 312.835 485.672 315.127 487.159 318.044C488.645 320.961 489.401 324.49 488.314 327.856C487.446 330.536 485.285 332.347 483.174 333.883C481.063 335.42 478.583 336.663 475.854 336.663C474.548 336.663 473.274 336.244 471.956 335.82H471.963ZM0.668355 251.077C0.668355 247.542 1.96123 244.394 4.27217 242.077C6.58311 239.759 9.72474 238.223 13.2599 238.217C16.795 238.21 19.5993 240.078 21.9228 242.389C24.2462 244.7 25.9638 247.504 25.97 251.039C25.97 254.568 24.5835 257.704 22.2663 260.021C19.9491 262.338 16.8262 264.149 13.2973 264.155C13.2911 264.155 13.2848 263.5 13.2786 263.5C9.74972 263.5 6.52065 262.457 4.20347 260.146C1.88628 257.835 0.668355 254.612 0.662109 251.077H0.668355ZM474.73 250.577C474.73 247.042 476.035 243.9 478.346 241.583C480.657 239.266 483.805 237.73 487.334 237.723C490.869 237.723 493.679 239.591 495.996 241.908C498.314 244.225 500.038 247.03 500.038 250.565C500.038 254.1 498.645 257.223 496.328 259.54C494.01 261.857 490.887 263.662 487.352 263.662C483.817 263.662 480.863 261.688 478.546 259.371C476.229 257.054 474.499 254.1 474.499 250.571C474.499 250.477 474.723 250.583 474.723 250.577H474.73ZM20.8297 189.799C17.4633 188.713 14.8713 186.508 13.3785 183.591C11.8858 180.674 11.3924 177.214 12.4791 173.848C13.5659 170.481 16.2079 168.389 19.1184 166.896C22.0289 165.403 25.233 164.629 28.5933 165.716C31.9597 166.802 34.508 169.088 36.0008 172.005C37.4935 174.922 38.2492 178.451 37.1687 181.811C36.3068 184.49 34.1458 186.314 32.0347 187.851C29.9236 189.387 27.444 190.636 24.7084 190.636C23.403 190.636 22.1289 190.218 20.8297 189.793V189.799ZM463.787 181.243C462.7 177.882 462.969 174.491 464.449 171.574C465.929 168.657 468.453 166.228 471.807 165.135C475.173 164.042 478.421 164.947 481.338 166.434C484.254 167.92 486.759 170.056 487.858 173.423C488.945 176.783 488.589 180.187 487.096 183.11C485.603 186.033 483.193 188.713 479.832 189.806C478.527 190.243 477.091 189.806 475.785 189.806C473.056 189.806 470.401 189.312 468.24 187.745C466.079 186.177 464.299 184.035 463.425 181.361C463.4 181.274 463.781 181.255 463.781 181.249L463.787 181.243ZM50.8907 121.895C48.0239 119.822 46.2438 116.924 45.7317 113.688C45.2195 110.453 45.8254 107.012 47.9052 104.151C49.9788 101.284 53.1392 100.116 56.3745 99.604C59.6098 99.0919 62.8889 99.3479 65.7494 101.428C68.61 103.501 70.3213 106.468 70.8335 109.703C71.3456 112.939 70.9709 116.53 68.8973 119.391C66.3927 122.845 62.2455 124.15 58.292 124.15C55.6875 124.15 53.1517 123.557 50.8907 121.908V121.895ZM431.865 118.735C429.785 115.881 428.992 112.57 429.498 109.335C430.004 106.1 431.646 103.008 434.494 100.928C437.355 98.8483 440.721 98.7046 443.963 99.2168C447.204 99.7289 450.24 100.984 452.326 103.845C454.406 106.699 455.112 110.053 454.599 113.289C454.087 116.524 452.626 119.822 449.771 121.908C447.498 123.557 444.687 123.756 442.07 123.756C438.117 123.756 434.369 122.183 431.865 118.735ZM100.457 66.6075C98.3712 63.7532 97.5655 60.443 98.0714 57.2076C98.5773 53.9723 100.214 50.8807 103.068 48.7946C105.916 46.7085 109.289 46.5586 112.524 47.0645C115.759 47.5704 118.801 48.8195 120.887 51.6739C122.973 54.5282 123.692 57.8759 123.186 61.1113C122.68 64.3466 121.218 67.6506 118.364 69.7304C116.09 71.3981 113.267 71.5979 110.65 71.5979C106.703 71.5979 102.962 70.024 100.457 66.5888V66.6075ZM382.192 69.0871C379.338 67.0073 377.558 64.103 377.046 60.8677C376.533 57.6324 377.145 54.1847 379.225 51.3304C381.305 48.476 384.466 47.3081 387.707 46.7959C390.949 46.2838 394.221 46.5461 397.082 48.6259C399.943 50.7058 401.648 53.6725 402.16 56.9141C402.672 60.1556 402.285 63.7407 400.205 66.6013C397.7 70.0427 393.559 71.3419 389.606 71.3419C386.989 71.3419 384.459 70.7485 382.192 69.0934V69.0871ZM164.633 29.264C163.533 25.9038 163.796 22.5123 165.276 19.5893C166.756 16.6663 169.267 14.2366 172.627 13.1374C175.988 12.0381 179.235 12.9438 182.158 14.424C185.081 15.9043 187.586 18.0403 188.685 21.4006C189.784 24.7608 189.428 28.1647 187.948 31.0878C186.468 34.0108 184.051 36.6965 180.691 37.7895C179.373 38.2267 177.93 37.7895 176.612 37.7895C173.889 37.7895 171.241 37.3023 169.08 35.7409C166.919 34.1794 165.145 32.0434 164.27 29.3702C164.245 29.2765 164.639 29.264 164.639 29.2578L164.633 29.264ZM319.672 37.1837C316.305 36.0969 313.713 33.8859 312.227 30.9691C310.74 28.0523 310.253 24.5859 311.34 21.2257C312.427 17.8654 315.075 15.7731 317.998 14.2804C320.921 12.7876 324.119 12.0194 327.479 13.1062C330.839 14.1992 333.381 16.4976 334.868 19.4144C336.354 22.3312 337.11 25.8663 336.017 29.2265C335.149 31.8997 332.994 33.7172 330.877 35.2537C328.759 36.7902 326.292 38.0331 323.563 38.0331C322.258 38.0331 320.833 37.9581 319.528 37.5272C319.447 37.4897 319.678 37.1837 319.672 37.1837ZM237.209 13.687C237.209 10.1519 238.502 7.00402 240.813 4.68684C243.123 2.36965 246.265 0.826945 249.8 0.814453C250.056 0.814453 250.063 1.41405 250.319 1.41405C253.854 1.41405 256.977 2.36341 259.294 4.68059C261.611 6.99778 263.016 10.1207 263.016 13.6558C263.016 17.1909 261.898 20.6011 259.581 22.9183C257.264 25.2355 253.854 26.0974 250.319 26.0974C250.081 26.0974 250.081 26.4909 249.838 26.4909C246.309 26.4909 242.974 25.1543 240.656 22.8496C238.339 20.5449 236.971 17.2034 236.965 13.6745C236.965 13.5808 237.215 13.687 237.215 13.6808L237.209 13.687Z" fill="white"/>
<path d="M209.703 416.021C206.267 415.184 203.263 412.848 201.564 410.05C199.865 407.252 199.553 403.598 200.39 400.169C201.233 396.734 203.607 394.33 206.411 392.631C209.215 390.932 212.507 389.658 215.942 390.501C219.377 391.338 222.038 393.786 223.743 396.584C225.448 399.382 226.429 402.893 225.586 406.322C224.88 409.22 222.625 411.193 220.445 412.898C218.266 414.603 215.749 415.453 212.838 415.453C211.832 415.453 210.827 416.09 209.815 415.834C209.621 415.853 209.703 416.015 209.703 416.009V416.021ZM275.158 406.297C274.315 402.861 274.996 399.126 276.689 396.322C278.381 393.518 281.473 391.55 284.902 390.707C288.337 389.864 291.566 390.863 294.37 392.556C297.175 394.248 299.829 396.584 300.672 400.013C301.516 403.448 300.579 406.94 298.88 409.744C297.181 412.549 294.539 415.047 291.104 415.896C290.08 416.152 288.968 415.478 287.95 415.478C285.046 415.472 282.616 414.51 280.399 412.773C278.181 411.037 276.058 409.163 275.34 406.272C275.271 406.09 275.152 406.297 275.152 406.29L275.158 406.297ZM138.07 377.653L137.551 378.216C134.903 375.873 133.698 372.394 133.498 369.128C133.298 365.861 134.672 362.788 137.008 360.146C139.35 357.498 142.204 355.481 145.477 355.281C148.75 355.081 152.085 356.443 154.727 358.785C157.375 361.127 159.187 364.269 159.387 367.535C159.586 370.802 157.85 373.856 155.508 376.504C152.978 379.358 149.812 380.576 146.27 380.576C143.254 380.576 140.087 380.202 137.651 378.047C137.52 377.903 138.07 377.647 138.07 377.647V377.653ZM344.587 376.891C342.238 374.249 341.095 370.621 341.289 367.354C341.482 364.088 343.3 360.902 345.948 358.56C348.59 356.212 351.913 355.593 355.186 355.787C358.458 355.981 361.887 356.811 364.236 359.453C366.578 362.095 367.377 365.63 367.184 368.897C366.99 372.163 365.81 375.617 363.168 377.959C360.719 380.133 357.472 380.47 354.455 380.47C350.92 380.47 347.778 379.071 345.255 376.229C345.111 376.098 344.587 376.891 344.587 376.891ZM91.1514 311.279C89.896 307.975 90.1146 304.178 91.4512 301.193C92.7878 298.207 95.6171 295.871 98.9149 294.609C102.219 293.354 105.548 293.947 108.54 295.29C111.531 296.633 114.448 298.619 115.71 301.923C116.965 305.227 116.459 308.812 115.116 311.798C113.774 314.783 111.45 317.594 108.152 318.849C106.647 319.43 104.992 318.906 103.474 318.906C100.864 318.906 98.6463 318.119 96.5227 316.663C94.3992 315.208 92.107 313.803 91.1389 311.279H91.1514ZM392.454 318.624C389.15 317.375 386.458 314.696 385.109 311.71C383.76 308.725 383.898 305.065 385.147 301.761C386.396 298.457 389.057 296.358 392.042 295.009C395.028 293.66 398.456 292.798 401.767 294.047C405.071 295.303 407.413 298.063 408.762 301.049C410.111 304.034 410.661 307.638 409.412 310.942C408.456 313.472 406.201 315.008 404.134 316.438C402.067 317.869 399.743 318.537 397.126 318.537C395.621 318.537 393.947 319.193 392.454 318.618V318.624ZM92.7878 245.105C89.2714 244.687 86.0111 242.738 83.9875 240.165C81.9638 237.592 81.2081 234.007 81.6203 230.496C82.0388 226.986 84.1061 224.313 86.6856 222.29C89.2651 220.266 92.3755 218.604 95.8857 219.017C99.3958 219.435 102.338 221.546 104.361 224.12C106.385 226.693 107.796 230.047 107.384 233.557C106.997 236.798 104.792 239.209 102.531 241.22C100.27 243.232 97.5658 244.256 94.3554 244.256C93.8558 244.256 93.2999 245.168 92.7878 245.112V245.105ZM393.029 233.257C392.598 229.747 393.728 226.118 395.752 223.545C397.776 220.972 401.08 219.391 404.584 218.96C408.094 218.536 411.179 219.922 413.759 221.946C416.338 223.97 418.687 226.605 419.111 230.115C419.53 233.619 418.181 236.98 416.157 239.559C414.133 242.139 411.204 244.3 407.7 244.724C407.182 244.793 406.62 244.012 406.108 244.012C402.897 244.012 400.274 242.863 397.994 240.839C395.715 238.816 393.422 236.492 393.035 233.257H393.029ZM113.386 172.579C110.476 170.574 108.502 167.327 107.909 164.104C107.315 160.881 108.321 157.358 110.326 154.448C112.331 151.537 115.41 150.138 118.633 149.545C121.856 148.952 125.391 148.933 128.301 150.938C131.212 152.943 132.829 156.184 133.423 159.407C134.016 162.63 133.691 166.259 131.687 169.169C129.213 172.773 124.935 174.047 120.856 174.047C118.352 174.047 116.078 173.291 113.861 171.767C113.686 171.68 113.393 172.579 113.393 172.579H113.386ZM368.608 168.951C366.597 166.04 365.897 162.305 366.484 159.088C367.071 155.872 369.257 152.93 372.162 150.919C375.066 148.908 378.445 148.689 381.668 149.276C384.891 149.863 388.201 151.1 390.212 154.004C392.229 156.915 392.598 160.512 392.011 163.735C391.424 166.958 389.837 170.237 386.927 172.248C384.71 173.791 381.98 173.772 379.476 173.772C375.41 173.772 371.843 171.967 369.357 168.37C369.232 168.22 368.614 168.957 368.608 168.957V168.951ZM165.351 117.935C163.696 114.812 163.446 111.015 164.414 107.885C165.383 104.756 167.906 102.096 171.029 100.447C174.152 98.7916 177.531 98.9727 180.66 99.9408C183.789 100.909 186.93 102.527 188.579 105.649C190.234 108.779 190.172 112.401 189.204 115.53C188.236 118.659 186.268 121.726 183.139 123.381C181.234 124.387 179.03 124.093 177.018 124.093C174.689 124.093 172.684 123.45 170.691 122.257C168.699 121.064 166.476 120.071 165.345 117.935H165.351ZM317.074 123.294C317.074 123.294 317.074 123.294 317.074 123.288C313.945 121.639 311.952 118.547 310.984 115.424C310.016 112.301 310.616 108.997 312.265 105.868C313.914 102.739 316.206 100.103 319.335 99.1289C322.464 98.1545 326.024 98.6917 329.153 100.341C332.282 101.983 334.781 104.606 335.755 107.736C336.729 110.865 335.768 114.237 334.131 117.367C333.001 119.509 331.483 120.945 329.547 122.113C327.611 123.281 325.543 124.63 323.207 124.63C321.196 124.63 318.979 124.306 317.08 123.3L317.074 123.294ZM236.741 93.7075C236.734 90.1724 238.277 86.6998 240.588 84.3763C242.899 82.0529 246.372 80.8787 249.9 80.8662C250.075 80.8662 250.075 81.2972 250.25 81.2972C253.785 81.2972 257.189 82.1029 259.507 84.4201C261.824 86.7372 263.01 90.1412 263.01 93.6763C263.01 97.2114 261.855 100.647 259.538 102.964C257.221 105.281 253.785 105.999 250.25 105.999C250.088 105.999 250.088 105.918 249.925 105.918C246.397 105.918 243.061 105.187 240.744 102.876C238.427 100.565 236.641 97.2864 236.641 93.7575C236.622 93.5639 236.741 93.7138 236.741 93.7075Z" fill="white"/>
<path d="M208.994 336.438C205.808 334.908 203.535 332.491 202.454 329.399C201.374 326.308 201.455 322.916 202.991 319.731C204.522 316.545 206.876 313.691 209.968 312.611C213.06 311.53 216.888 311.861 220.074 313.391C223.259 314.922 225.414 317.882 226.494 320.974C227.575 324.065 227.512 327.607 225.976 330.792C224.889 333.053 223.478 335.314 221.498 336.551C219.518 337.787 216.788 338.362 214.365 338.362C212.504 338.362 210.293 338.068 208.513 337.206C208.369 337.1 208.994 336.438 208.987 336.438H208.994ZM274.88 330.555C273.344 327.376 273.075 324.072 274.15 320.98C275.224 317.888 277.404 315.29 280.583 313.747C283.762 312.211 287.391 311.443 290.482 312.523C293.574 313.604 296.366 316.246 297.909 319.425C299.445 322.604 299.289 326.264 298.215 329.356C297.14 332.447 294.879 335.177 291.7 336.719C289.902 337.581 287.978 338.518 286.11 338.518C283.699 338.518 281.157 337.544 279.121 336.27C277.085 334.995 275.973 332.809 274.887 330.555H274.88ZM157.453 271.988C156.666 268.54 157.135 265.261 158.877 262.488C160.62 259.715 163.324 257.666 166.772 256.879C170.214 256.086 173.917 256.149 176.69 257.891C179.464 259.634 181.593 262.832 182.387 266.273C183.174 269.721 182.199 273.25 180.463 276.023C178.727 278.796 175.91 280.951 172.462 281.738C171.506 281.963 170.532 282.581 169.583 282.581C166.641 282.581 163.63 281.244 161.401 279.47C159.171 277.697 158.128 274.917 157.453 271.982V271.988ZM328.001 281.169C324.553 280.389 321.799 278.54 320.056 275.773C318.314 273.006 317.639 269.677 318.42 266.229C319.2 262.782 320.856 259.465 323.629 257.723C326.402 255.98 330.212 255.449 333.66 256.23C337.107 257.011 339.868 259.415 341.617 262.188C343.365 264.962 344.084 268.428 343.303 271.882C342.635 274.83 341.298 277.74 339.106 279.489C336.914 281.238 333.709 282.181 330.761 282.181C329.831 282.181 328.95 281.4 328.001 281.182V281.169ZM177.69 209.03C174.923 206.826 173.243 203.971 172.874 200.717C172.506 197.463 173.343 194.172 175.541 191.411C177.74 188.638 180.675 186.377 183.929 186.009C187.183 185.64 190.843 186.814 193.617 189.019C196.383 191.218 197.82 194.584 198.195 197.838C198.569 201.092 197.714 204.534 195.515 207.3C192.986 210.48 189.207 212.666 185.435 212.666C182.649 212.666 180.051 210.904 177.696 209.037L177.69 209.03ZM305.029 206.913C302.824 204.153 301.818 200.992 302.187 197.732C302.555 194.472 304.098 191.461 306.865 189.25C309.626 187.045 312.986 185.496 316.246 185.859C319.507 186.221 322.811 188.182 325.015 190.943C327.22 193.71 327.876 197.307 327.514 200.561C327.151 203.815 325.552 206.982 322.792 209.187C320.431 211.067 317.577 212.509 314.772 212.509C311.019 212.509 307.009 210.473 304.492 207.313C304.398 207.169 305.041 206.913 305.035 206.907L305.029 206.913ZM237.524 168.071C237.512 164.536 238.699 161.444 241.009 159.12C243.32 156.797 246.406 155.404 249.947 155.392C250.053 155.392 250.053 154.68 250.16 154.68C253.695 154.68 257.124 156.441 259.441 158.758C261.758 161.075 262.988 164.504 262.988 168.039C262.988 171.575 261.571 174.822 259.253 177.133C256.936 179.444 253.695 181.412 250.16 181.412C250.066 181.412 250.066 181.174 249.978 181.174C246.45 181.174 242.858 179.8 240.547 177.489C238.236 175.178 237.524 171.624 237.524 168.096C237.543 167.921 237.524 168.071 237.524 168.071Z" fill="white"/>
<path d="M249.471 263.381C246.085 263.218 243.431 261.451 241.239 259.159C239.046 256.867 237.679 254.15 237.666 250.746C237.654 247.211 239.14 244.425 241.445 242.101C243.749 239.778 246.523 238.092 250.058 238.079C250.108 238.079 250.101 237.936 250.151 237.936C253.687 237.936 256.478 239.728 258.796 242.045C261.113 244.362 263.036 247.154 263.036 250.689C263.036 254.225 261.575 257.472 259.264 259.79C256.953 262.107 253.705 264.062 250.17 264.062C250.164 264.062 250.158 263.731 250.151 263.731C249.927 263.731 249.571 263.781 249.346 263.774C249.308 263.756 249.471 263.381 249.464 263.381H249.471Z" fill="white"/>
</g>
<defs>
<clipPath id="clip0_1476_33294">
<rect width="499.663" height="500" fill="white" transform="translate(0.488281 0.814453)"/>
</clipPath>
</defs>
</svg>
