<svg width="502" height="501" viewBox="0 0 502 501" fill="none" xmlns="http://www.w3.org/2000/svg">
<g clip-path="url(#clip0_1476_33244)">
<path d="M484.604 9.46816C484.604 4.78983 488.146 0.814453 492.659 0.814453C497.171 0.814453 500.47 4.69287 500.47 9.17728C500.47 13.6617 497.171 18.5824 492.659 18.7521C488.146 18.946 484.629 14.1223 484.604 9.46816ZM436.279 9.9772C436.279 5.03223 439.821 0.814453 444.333 0.814453C448.846 0.814453 452.145 4.98375 452.145 9.856C452.145 14.7283 448.846 19.9156 444.333 19.9884C439.821 20.0611 436.279 14.9222 436.279 9.9772ZM387.954 10.0984C387.954 5.10495 391.496 0.814453 396.008 0.814453C400.52 0.814453 403.82 5.10495 403.82 10.0984C403.82 15.0919 400.52 20.3762 396.008 20.3762C391.496 20.3762 387.954 15.1161 387.954 10.0984ZM339.629 9.92872C339.629 5.03223 343.171 0.838693 347.683 0.814453C352.195 0.814453 355.494 5.05647 355.494 10.0014C355.494 14.9707 352.195 20.1338 347.683 20.0853C343.171 20.0368 339.629 14.8252 339.629 9.92872ZM291.303 9.54088C291.303 4.8383 294.845 0.814453 299.358 0.814453C303.87 0.814453 307.169 4.88679 307.169 9.68632C307.169 14.4616 303.87 19.4551 299.358 19.3581C294.845 19.2612 291.303 14.2435 291.303 9.54088ZM242.978 9.08032C242.978 4.62014 246.52 0.814453 251.032 0.814453C255.545 0.814453 258.844 4.69287 258.844 9.22576C258.844 13.7829 255.545 18.4855 251.032 18.4127C246.52 18.3158 242.978 13.5163 242.978 9.08032ZM194.653 8.61976C194.653 4.40198 198.195 0.814453 202.707 0.814453C207.219 0.814453 210.519 4.4747 210.519 8.7652C210.519 13.0799 207.219 17.5401 202.707 17.4674C198.195 17.3704 194.653 12.8375 194.653 8.644V8.61976ZM146.352 8.30464C146.352 4.25654 149.869 0.814453 154.382 0.814453C158.87 0.814453 162.193 4.28078 162.193 8.4016C162.193 12.4982 158.894 16.7887 154.382 16.7402C149.869 16.6917 146.352 12.3527 146.327 8.30464H146.352ZM98.0264 8.20768C98.0264 4.20806 101.568 0.814453 106.056 0.814453C110.569 0.814453 113.868 4.20806 113.868 8.20768C113.868 12.2073 110.569 16.4493 106.056 16.4493C101.544 16.4493 98.0021 12.2073 98.0021 8.20768H98.0264ZM49.7011 8.45008C49.7011 4.32926 53.2188 0.814453 57.7311 0.814453C62.2434 0.814453 65.5427 4.28078 65.5427 8.32888C65.5427 12.4012 62.2434 16.7402 57.7311 16.8129C53.2188 16.8856 49.7011 12.5951 49.6769 8.45008H49.7011ZM1.37582 9.15304C1.37582 4.62014 4.91774 0.814453 9.40578 0.814453C13.9181 0.814453 17.2174 4.52318 17.2174 8.86216C17.2174 13.2011 13.9181 17.8795 9.40578 18.0734C4.89348 18.2673 1.35156 13.6617 1.35156 9.15304H1.37582Z" fill="white"/>
<path d="M483.39 71.8135C483.39 67.1837 488.121 62.7477 492.633 62.2387C497.145 61.7296 500.444 65.1717 500.444 69.6561C500.444 74.1406 497.145 79.4249 492.633 80.0794C488.121 80.7339 483.39 76.4434 483.39 71.8135ZM436.472 75.4495C436.472 70.6258 439.82 65.9232 444.332 65.705C448.844 65.4869 452.847 69.7531 452.847 74.5284C452.847 79.3037 448.844 84.6123 444.332 84.9031C439.82 85.194 436.472 80.2733 436.472 75.4495ZM388.146 76.3222C388.146 71.4499 391.494 66.8685 396.007 66.8685C400.519 66.8685 404.522 71.4257 404.522 76.2979C404.522 81.1702 400.519 86.3333 396.007 86.3333C391.494 86.3333 388.146 81.1944 388.146 76.2979V76.3222ZM339.821 75.0132C339.821 70.2137 343.169 65.8262 347.681 65.9717C352.194 66.1171 356.196 70.8197 356.196 75.6434C356.196 80.4915 352.194 85.4122 347.681 85.2183C343.169 85.0244 339.845 79.8127 339.821 75.0132ZM291.496 72.2983C291.496 67.6442 294.844 63.4507 299.332 63.7173C303.844 63.9597 307.847 68.6138 307.847 73.3406C307.847 78.0675 303.844 82.7458 299.332 82.4307C294.819 82.1155 291.496 76.9766 291.496 72.3226V72.2983ZM243.171 68.9532C243.171 64.493 246.518 60.4934 251.031 60.7843C255.543 61.0509 259.546 65.5596 259.546 70.1167C259.546 74.6496 255.543 79.1098 251.031 78.7462C246.518 78.3826 243.171 73.4134 243.171 68.9532ZM194.845 65.7293C194.845 61.4388 198.193 57.6088 202.705 57.8512C207.218 58.0936 211.221 62.4084 211.221 66.7716C211.221 71.1348 207.218 75.4253 202.705 75.1102C198.217 74.795 194.87 70.044 194.845 65.7535V65.7293ZM146.35 63.378C146.35 59.2087 149.892 55.7908 154.404 55.9363C158.892 56.0817 162.216 59.7904 162.216 63.984C162.216 68.1775 158.917 72.468 154.404 72.2741C149.892 72.0802 146.374 67.523 146.35 63.378ZM98.2189 62.6992C98.2189 58.5784 101.567 54.6758 106.055 54.6758C110.567 54.6758 114.57 58.5542 114.57 62.6992C114.57 66.8201 110.567 71.159 106.055 71.159C101.543 71.159 98.2189 66.8201 98.2189 62.6992ZM49.8937 64.4445C49.8937 60.2268 53.2172 56.0575 57.7538 55.8393C62.2661 55.6211 66.2689 59.3541 66.2689 63.5234C66.2689 67.6927 62.2661 72.2983 57.7538 72.5892C53.2415 72.8558 49.8937 68.6623 49.8937 64.4445ZM1.56836 69.3653C1.56836 64.8566 4.9162 60.2268 9.4285 59.7177C13.9408 59.2087 17.9436 62.9174 17.9436 67.2806C17.9436 71.6438 13.9408 76.7827 9.4285 77.413C4.9162 78.0675 1.59262 73.8497 1.56836 69.341V69.3653Z" fill="white"/>
<path d="M484.797 133.335C484.797 128.753 488.145 123.857 492.633 122.984C497.145 122.112 501.148 125.457 501.148 129.965C501.148 134.45 497.145 140.17 492.633 141.14C488.121 142.11 484.797 137.916 484.797 133.335ZM436.472 139.467C436.472 134.741 439.82 130.062 444.332 129.674C448.844 129.287 452.847 133.286 452.847 137.965C452.847 142.643 448.844 148.024 444.332 148.46C439.82 148.897 436.472 144.194 436.472 139.467ZM386.739 140.849C386.739 136.098 391.494 132.414 395.982 132.414C400.495 132.414 403.818 136.098 403.842 140.849C403.842 145.6 400.519 150.109 395.982 150.109C391.494 150.109 386.739 145.6 386.739 140.849ZM339.821 138.764C339.821 134.062 343.169 129.868 347.681 130.135C352.194 130.402 356.196 135.08 356.196 139.807C356.196 144.534 352.194 149.285 347.681 148.97C343.169 148.679 339.845 143.491 339.821 138.764ZM291.496 134.377C291.496 129.771 294.844 126.693 299.332 127.129C303.844 127.566 308.065 131.395 308.065 136.05C308.065 140.704 303.844 144.388 299.332 143.903C294.819 143.419 291.496 138.958 291.496 134.353V134.377ZM243.171 128.971C243.171 124.487 246.518 120.657 251.031 121.142C255.543 121.627 259.546 126.329 259.546 130.838C259.546 135.371 255.543 139.661 251.031 139.104C246.518 138.571 243.171 133.432 243.171 128.971ZM194.845 123.736C194.845 119.372 198.193 115.591 202.705 116.027C207.218 116.464 211.221 120.996 211.221 125.408C211.221 129.82 207.218 134.013 202.705 133.529C198.217 133.044 194.869 128.099 194.845 123.736ZM146.544 119.978C146.544 115.712 149.892 111.882 154.404 112.149C158.917 112.415 162.92 116.706 162.92 121.021C162.92 125.335 158.917 129.577 154.404 129.262C149.892 128.971 146.568 124.245 146.544 119.978ZM98.2189 118.863C98.2189 114.621 101.567 110.597 106.055 110.573C110.567 110.573 114.57 114.597 114.57 118.839C114.57 123.081 110.567 127.517 106.055 127.541C101.543 127.541 98.2189 123.105 98.2189 118.839V118.863ZM49.8936 121.675C49.8936 117.36 53.2172 112.973 57.7538 112.585C62.2661 112.197 66.2689 115.93 66.2689 120.221C66.2689 124.511 62.2661 129.311 57.7538 129.747C53.2415 130.183 49.8936 126.014 49.8936 121.675ZM1.56836 129.65C1.56836 125.142 4.9162 120.197 9.4285 119.324C13.9408 118.451 17.9436 121.893 17.9436 126.305C17.9436 130.717 13.9408 136.147 9.4285 137.116C4.9162 138.086 1.59262 134.159 1.56836 129.65Z" fill="white"/>
<path d="M484.118 194.614C484.118 190.081 488.121 185.621 492.633 184.506C497.145 183.391 500.444 186.009 500.444 190.517C500.444 195.026 497.145 199.316 492.633 200.456C488.121 201.619 484.118 199.147 484.118 194.614ZM435.574 202.104C435.574 197.498 439.795 193.014 444.308 192.529C448.82 192.044 452.362 195.68 452.362 200.262C452.362 204.867 448.82 208.697 444.308 209.206C439.795 209.715 435.574 206.734 435.574 202.104ZM388.146 203.752C388.146 199.123 391.494 194.808 396.007 194.808C400.519 194.808 404.522 199.098 404.522 203.728C404.522 208.358 400.519 213.303 396.007 213.279C391.494 213.279 388.146 208.358 388.146 203.752ZM339.166 201.11C339.166 196.505 343.169 192.917 347.681 193.256C352.194 193.596 355.517 197.765 355.517 202.371C355.517 206.976 352.169 211.073 347.681 210.709C343.169 210.346 339.166 205.692 339.166 201.086V201.11ZM291.496 195.777C291.496 191.245 294.844 187.366 299.332 187.924C303.844 188.481 307.847 193.256 307.847 197.814C307.847 202.395 303.844 206.71 299.332 206.128C294.819 205.546 291.496 200.335 291.496 195.777ZM243.171 189.111C243.171 184.627 246.518 180.87 251.031 181.476C255.543 182.106 259.546 186.881 259.546 191.414C259.546 195.923 255.543 200.092 251.031 199.462C246.518 198.807 243.171 193.596 243.171 189.111ZM194.845 182.712C194.845 178.3 198.193 174.519 202.705 175.076C207.218 175.634 211.221 180.312 211.221 184.772C211.221 189.233 207.218 193.378 202.705 192.82C198.217 192.238 194.87 187.148 194.845 182.736V182.712ZM146.544 178.058C146.544 173.67 149.892 169.792 154.404 170.131C158.917 170.471 162.92 174.955 162.92 179.343C162.92 183.754 158.917 188.021 154.404 187.681C149.892 187.318 146.568 182.47 146.544 178.082V178.058ZM98.2189 176.7C98.2189 172.337 101.567 168.168 106.055 168.168C110.567 168.168 114.57 172.337 114.57 176.7C114.57 181.088 110.567 185.645 106.055 185.645C101.543 185.645 98.2189 181.088 98.2189 176.7ZM49.8937 180.167C49.8937 175.755 53.2172 171.198 57.7538 170.689C62.2661 170.204 66.2689 173.961 66.2689 178.349C66.2689 182.736 62.2661 187.73 57.7538 188.239C53.2415 188.748 49.8937 184.554 49.8937 180.143V180.167ZM1.56836 189.96C1.56836 185.475 4.9162 180.312 9.4285 179.197C13.9408 178.082 17.9436 181.403 17.9436 185.839C17.9436 190.299 13.9408 195.923 9.4285 197.086C4.9162 198.25 1.59262 194.468 1.56836 189.96Z" fill="white"/>
<path d="M483.778 255.335C483.778 250.827 488.12 245.591 492.633 244.379C497.145 243.167 500.857 246.269 500.857 250.778C500.857 255.287 497.145 259.892 492.633 261.08C488.12 262.292 483.778 259.844 483.778 255.335ZM436.108 263.165C436.108 258.656 439.819 254.972 444.332 254.438C448.844 253.905 452.847 256.693 452.847 261.177C452.847 265.686 448.844 270.582 444.332 271.115C439.819 271.649 436.108 267.649 436.108 263.165ZM387.151 264.934C387.151 260.426 391.494 256.281 396.006 256.281C400.519 256.281 404.23 260.426 404.23 264.934C404.23 269.443 400.519 272.982 396.006 272.982C391.494 272.982 387.151 269.443 387.151 264.934ZM338.826 262.098C338.826 257.589 343.169 253.784 347.681 254.147C352.193 254.511 355.881 258.995 355.905 263.504C355.905 268.013 352.193 271.212 347.681 270.849C343.169 270.485 338.826 266.583 338.826 262.074V262.098ZM291.132 256.426C291.132 251.917 294.843 248.936 299.356 249.542C303.868 250.148 307.192 254.05 307.216 258.559C307.216 263.068 303.868 266.849 299.356 266.267C294.868 265.661 291.132 260.935 291.132 256.426ZM242.224 249.251C242.224 244.742 246.542 241.058 251.03 241.712C255.543 242.391 259.74 247.36 259.74 251.869C259.74 256.377 255.518 259.456 251.03 258.777C246.518 258.099 242.2 253.76 242.224 249.251ZM193.85 242.464C193.85 237.955 198.193 234.319 202.705 234.901C207.193 235.507 210.711 240.185 210.711 244.694C210.711 249.202 207.217 252.063 202.705 251.457C198.193 250.851 193.85 246.972 193.85 242.464ZM145.525 237.591C145.525 233.083 149.867 229.204 154.38 229.568C158.892 229.932 162.604 234.489 162.604 238.997C162.604 243.506 158.892 246.633 154.38 246.269C149.867 245.906 145.525 242.1 145.525 237.591ZM97.1997 236.234C97.1997 231.725 101.542 227.435 106.055 227.459C110.567 227.459 114.279 231.701 114.279 236.21C114.279 240.718 110.567 244.136 106.055 244.16C101.542 244.16 97.1997 240.743 97.1997 236.258V236.234ZM48.9229 240.015C48.9229 235.507 53.2412 230.562 57.7292 230.029C62.2415 229.495 66.4384 233.446 66.4384 237.931C66.4384 242.439 62.2415 246.536 57.7292 247.069C53.2169 247.603 48.9229 244.5 48.9229 239.991V240.015ZM0.597656 250.584C0.597656 246.075 4.91588 240.428 9.40392 239.24C13.9162 238.028 18.1374 241.373 18.1131 245.882C18.1131 250.39 13.892 255.093 9.40392 256.305C4.89162 257.493 0.597656 255.093 0.597656 250.608V250.584Z" fill="white"/>
<path d="M483.778 315.402C483.778 310.942 488.12 305.779 492.633 304.615C497.145 303.476 500.857 306.603 500.857 311.111C500.857 315.62 497.145 320.129 492.633 321.244C488.12 322.359 483.778 319.862 483.778 315.402ZM436.471 322.747C436.471 318.359 439.819 313.923 444.332 313.414C448.844 312.905 452.847 316.517 452.847 320.929C452.847 325.34 448.844 330.503 444.332 330.988C439.819 331.473 436.471 327.158 436.471 322.771V322.747ZM387.151 324.468C387.151 320.104 391.494 316.056 396.006 316.056C400.519 316.056 403.988 320.104 404.012 324.468C404.012 328.855 400.519 333 396.006 333C391.494 333 387.151 328.855 387.151 324.468ZM338.826 321.801C338.826 317.414 343.169 313.657 347.681 314.02C352.193 314.384 355.881 318.747 355.905 323.134C355.905 327.522 352.193 330.673 347.681 330.334C343.169 329.994 338.826 326.213 338.826 321.801ZM290.501 316.347C290.501 311.887 294.843 308.299 299.356 308.881C303.868 309.463 307.58 314.069 307.58 318.48C307.58 322.916 303.868 325.898 299.356 325.34C294.843 324.783 290.501 320.783 290.501 316.323V316.347ZM242.176 309.681C242.176 305.172 246.518 301.561 251.03 302.215C255.543 302.87 259.254 307.597 259.254 312.081C259.254 316.565 255.543 319.547 251.03 318.917C246.518 318.311 242.176 314.19 242.176 309.681ZM193.85 303.282C193.85 298.725 198.193 294.967 202.705 295.549C207.217 296.131 210.929 300.882 210.929 305.415C210.929 309.972 207.217 313.026 202.705 312.469C198.193 311.911 193.85 307.863 193.85 303.282ZM145.525 298.7C145.525 294.095 149.867 290.604 154.38 290.944C158.892 291.307 162.24 295.38 162.216 299.985C162.216 304.591 158.868 308.396 154.38 308.057C149.867 307.718 145.525 303.306 145.525 298.7ZM97.2482 297.416C97.2482 292.786 101.542 288.253 106.055 288.253C110.543 288.253 114.788 292.762 114.764 297.391C114.764 302.021 110.543 305.778 106.055 305.778C101.542 305.778 97.2482 302.046 97.2482 297.416ZM49.8933 300.858C49.8933 296.276 53.2169 291.428 57.7535 290.919C62.2658 290.41 66.6083 294.41 66.6083 299.016C66.6083 303.621 62.2658 308.324 57.7535 308.809C53.2412 309.293 49.8933 305.439 49.8933 300.834V300.858ZM0.597656 310.942C0.597656 306.457 4.91588 300.858 9.40392 299.694C13.9162 298.531 18.1374 301.973 18.1131 306.506C18.1131 311.039 13.892 315.717 9.40392 316.832C4.89162 317.947 0.597656 315.426 0.597656 310.942Z" fill="white"/>
<path d="M484.797 374.742C484.797 370.33 488.145 365.531 492.633 364.561C497.145 363.591 501.148 366.84 501.148 371.348C501.148 375.857 497.145 381.481 492.633 382.353C488.121 383.226 484.797 379.153 484.797 374.742ZM435.574 380.996C435.574 376.705 439.795 372.584 444.308 372.148C448.82 371.736 453.551 375.033 453.551 379.347C453.551 383.662 448.82 387.565 444.308 387.928C439.795 388.316 435.574 385.262 435.574 380.972V380.996ZM388.146 382.329C388.146 378.087 391.494 374.112 396.007 374.112C400.519 374.112 405.249 378.038 405.249 382.305C405.249 386.571 400.495 390.231 396.007 390.231C391.494 390.231 388.146 386.571 388.146 382.329ZM339.821 380.22C339.821 375.905 343.169 372.124 347.681 372.415C352.194 372.73 356.924 377.02 356.924 381.287C356.924 385.553 352.169 388.946 347.681 388.68C343.169 388.413 339.845 384.511 339.821 380.22ZM291.496 375.808C291.496 371.397 294.844 367.639 299.332 368.124C303.844 368.609 307.847 373.118 307.847 377.481C307.847 381.844 303.844 386.062 299.332 385.626C294.819 385.189 291.496 380.22 291.496 375.833V375.808ZM243.171 370.379C243.171 365.846 246.518 362.016 251.031 362.549C255.543 363.082 259.546 367.785 259.546 372.245C259.546 376.705 255.543 380.996 251.031 380.511C246.518 380.026 243.171 374.887 243.171 370.379ZM194.845 365.143C194.845 360.489 198.193 356.489 202.705 356.974C207.218 357.459 211.948 362.307 211.948 366.888C211.948 371.494 207.193 374.621 202.705 374.184C198.217 373.748 194.869 369.797 194.845 365.143ZM146.544 361.361C146.544 356.634 149.892 352.392 154.404 352.708C158.917 352.998 162.92 357.701 162.92 362.404C162.92 367.106 158.917 371.784 154.404 371.518C149.892 371.251 146.568 366.088 146.544 361.361ZM98.0248 360.27C98.0248 355.519 101.567 351.423 106.079 351.423C110.591 351.423 113.891 355.495 113.891 360.246C113.891 364.997 110.591 369.991 106.079 369.991C101.567 369.991 98.0248 365.022 98.0248 360.27ZM49.8936 363.082C49.8936 358.404 53.2172 353.629 57.7538 353.192C62.2661 352.756 66.2689 356.877 66.2689 361.604C66.2689 366.33 62.2661 371.591 57.7538 371.978C53.2415 372.366 49.8936 367.761 49.8936 363.082ZM1.56836 371.057C1.56836 366.549 4.9162 361.531 9.4285 360.537C13.9408 359.568 17.9436 363.107 17.9436 367.688C17.9436 372.294 13.9408 376.584 9.4285 377.457C4.9162 378.329 1.59262 375.542 1.56836 371.033V371.057Z" fill="white"/>
<path d="M483.778 433.911C483.778 429.548 488.12 424.894 492.633 424.264C497.145 423.609 500.857 427.245 500.857 431.754C500.857 436.263 497.145 440.214 492.633 440.723C488.12 441.232 483.778 438.299 483.778 433.911ZM435.598 437.669C435.598 433.499 439.819 429.257 444.307 428.966C448.82 428.676 453.017 432.457 453.017 436.699C453.017 440.941 448.795 444.65 444.307 444.868C439.795 445.086 435.598 441.838 435.598 437.669ZM387.151 438.493C387.151 434.372 391.494 430.542 396.006 430.518C400.519 430.518 404.23 434.348 404.23 438.493C404.23 442.614 400.519 445.838 396.006 445.838C391.494 445.838 387.151 442.638 387.151 438.493ZM338.947 437.135C338.947 432.942 343.169 429.863 347.657 430.081C352.169 430.275 356.39 433.669 356.39 437.838C356.39 442.008 352.169 445.838 347.657 445.692C343.144 445.547 338.947 441.377 338.947 437.16V437.135ZM290.501 434.396C290.501 430.057 294.843 426.276 299.356 426.591C303.868 426.906 307.361 431.172 307.361 435.463C307.361 439.753 303.868 443.583 299.356 443.341C294.843 443.098 290.501 438.759 290.501 434.396ZM242.224 431.003C242.224 426.47 246.542 422.422 251.03 422.785C255.543 423.149 259.74 427.803 259.74 432.263C259.74 436.723 255.518 440.141 251.03 439.85C246.518 439.559 242.2 435.56 242.224 431.003ZM193.85 427.779C193.85 423.052 198.193 418.955 202.705 419.27C207.217 419.586 210.929 424.215 210.929 428.845C210.929 433.499 207.217 436.893 202.705 436.626C198.193 436.384 193.85 432.481 193.85 427.754V427.779ZM145.574 425.452C145.574 420.604 149.892 416.119 154.38 416.313C158.892 416.507 163.089 421.355 163.089 426.155C163.089 430.954 158.868 434.736 154.38 434.59C149.867 434.42 145.574 430.3 145.574 425.452ZM97.2482 424.797C97.2482 419.925 101.542 415.174 106.055 415.174C110.543 415.174 114.788 419.901 114.764 424.773C114.764 429.645 110.543 433.645 106.055 433.645C101.542 433.645 97.2482 429.669 97.2482 424.773V424.797ZM48.9229 426.615C48.9229 421.84 53.2412 416.919 57.7292 416.628C62.2415 416.337 66.4384 420.798 66.4384 425.621C66.4384 430.445 62.2415 434.614 57.7292 434.833C53.2169 435.051 48.9229 431.366 48.9229 426.615ZM0.597656 431.633C0.597656 427.148 4.91588 422.106 9.40392 421.476C13.9162 420.822 18.1374 424.773 18.1131 429.403C18.1131 434.033 13.892 438.881 9.40392 439.39C4.89162 439.874 0.597656 436.141 0.597656 431.633Z" fill="white"/>
<path d="M484.651 492.306C484.651 487.967 488.145 484.646 492.657 484.476C497.169 484.307 501.512 487.482 501.512 491.991C501.512 496.524 497.169 500.717 492.657 500.693C488.145 500.693 484.651 496.621 484.651 492.306ZM435.598 492.863C435.598 488.815 439.819 485.591 444.307 485.519C448.82 485.446 453.041 488.573 453.041 492.718C453.041 496.863 448.82 500.523 444.307 500.523C439.795 500.523 435.598 496.912 435.598 492.863ZM387.176 492.985C387.176 488.985 391.494 485.107 395.982 485.107C400.494 485.107 404.691 488.961 404.691 492.985C404.691 496.984 400.494 500.281 395.982 500.257C391.47 500.257 387.176 496.984 387.176 492.985ZM338.826 492.791C338.826 488.694 343.169 484.888 347.681 484.937C352.193 484.985 355.881 488.84 355.905 492.888C355.905 496.936 352.193 500.063 347.681 500.063C343.169 500.063 338.826 496.887 338.826 492.791ZM290.549 492.403C290.549 488.088 294.868 484.016 299.356 484.113C303.868 484.21 308.065 488.355 308.065 492.573C308.065 496.79 303.844 500.257 299.356 500.257C294.843 500.257 290.549 496.718 290.549 492.403ZM242.176 491.918C242.176 487.361 246.518 483.192 251.03 483.289C255.543 483.386 259.254 487.628 259.254 492.088C259.254 496.548 255.543 499.845 251.03 499.845C246.518 499.845 242.176 496.475 242.176 491.918ZM193.85 491.433C193.85 486.634 198.193 482.78 202.705 482.876C207.217 482.973 210.565 486.9 210.541 491.603C210.541 496.306 207.193 500.814 202.705 500.814C198.193 500.814 193.85 496.233 193.85 491.457V491.433ZM145.574 491.094C145.574 486.125 149.892 481.422 154.38 481.471C158.892 481.519 163.089 486.294 163.089 491.191C163.089 496.087 158.868 500.135 154.38 500.135C149.867 500.135 145.574 496.039 145.574 491.094ZM97.2482 490.997C97.2482 486.003 101.542 481.18 106.055 481.18C110.543 481.18 114.788 486.003 114.764 490.997C114.764 495.99 110.543 500.135 106.055 500.135C101.542 500.135 97.2482 495.99 97.2482 490.997ZM48.9229 491.264C48.9229 486.416 53.2412 481.616 57.7292 481.543C62.2415 481.471 66.4384 486.149 66.4384 491.118C66.4384 496.063 62.2415 500.135 57.7292 500.135C53.2169 500.135 48.9229 496.112 48.9229 491.264ZM0.597656 491.991C0.597656 487.506 4.91588 482.998 9.40392 482.804C13.9162 482.634 18.1374 486.973 18.1131 491.676C18.1131 496.354 13.892 500.208 9.40392 500.208C4.89162 500.208 0.597656 496.499 0.597656 492.015V491.991Z" fill="white"/>
</g>
<defs>
<clipPath id="clip0_1476_33244">
<rect width="500.89" height="500" fill="white" transform="translate(0.597656 0.814453)"/>
</clipPath>
</defs>
</svg>
