<svg width="501" height="556" viewBox="0 0 501 556" fill="none" xmlns="http://www.w3.org/2000/svg">
<path d="M500.616 128.21V384.539C500.616 387.422 499.9 390.268 498.515 392.794C444.753 490.931 301.971 489.606 250.618 388.817C206.371 301.982 94.2607 288.974 29.6886 349.801C18.6849 360.164 0.616455 352.338 0.616455 337.222V80.8928C0.616455 78.0095 1.33296 75.1642 2.71751 72.6374C56.4797 -25.4997 199.262 -24.174 250.615 76.6145C294.862 163.45 406.972 176.458 471.544 115.635C482.548 105.271 500.616 113.097 500.616 128.213V128.21Z" fill="white"/>
<path d="M30.0588 143.324C30.0588 168.677 29.6319 168.677 29.6319 194.043C29.6319 219.409 27.6214 219.395 27.6214 244.748C27.6214 270.1 29.7284 270.1 29.7284 295.466C29.7284 320.832 29.3979 320.819 29.3979 346.185C29.3979 371.551 29.687 371.551 29.687 396.903C29.687 422.256 28.7368 422.27 28.7368 447.622C28.7368 472.974 27.8693 472.988 27.8693 498.354C27.8693 523.72 28.3237 523.72 28.3237 549.087C28.3237 552.887 25.6108 555.559 21.81 555.559C14.9245 555.559 14.9245 554.774 8.03904 554.774C4.23825 554.774 0.891892 552.887 0.891892 549.073C0.891892 523.72 0.616455 523.72 0.616455 498.354C0.616455 472.988 1.33257 473.002 1.33257 447.649C1.33257 422.297 0.988299 422.297 0.988299 396.931C0.988299 371.565 1.02961 371.579 1.02961 346.212C1.02961 320.846 1.787 320.846 1.787 295.494C1.787 270.141 0.657766 270.128 0.657766 244.775C0.657766 219.423 2.37914 219.409 2.37914 194.043C2.37914 168.677 2.29652 168.677 2.29652 143.311" fill="white"/>
</svg>
