<svg width="551" height="501" viewBox="0 0 551 501" fill="none" xmlns="http://www.w3.org/2000/svg">
<path d="M549.368 141.895C549.368 280.49 545.666 280.49 545.666 419.113C545.666 422.235 547.13 425.715 545.611 428.45C516.494 481.629 462.57 500.717 409.64 499.889C356.71 499.06 296.819 482.043 269.111 427.677C221.265 333.779 108.029 316.154 38.1931 381.93C26.2867 393.145 1.00977 384.305 1.00977 367.951C1.00977 229.356 13.4134 229.356 13.4134 90.7337C13.4134 87.6121 13.5516 88.0265 15.0433 85.2916C44.2154 32.1133 91.1504 0.151086 144.08 0.952213C196.789 1.78097 246.79 32.8592 274.498 87.253C322.345 181.151 444.53 192.587 514.367 126.812C526.273 115.596 549.368 125.514 549.368 141.868V141.895Z" fill="white"/>
</svg>
