<svg width="489" height="501" viewBox="0 0 489 501" fill="none" xmlns="http://www.w3.org/2000/svg">
<g clip-path="url(#clip0_1476_29308)">
<path d="M224.141 1.4209C229.628 1.4209 232.359 1.69204 235.106 1.96484C237.891 2.24125 240.693 2.51854 246.27 2.51855C247.824 2.51855 249.08 3.60463 249.246 5.01562V5.33496C249.246 21.9707 249.046 30.2857 248.847 38.6045C248.647 46.9321 248.447 55.2639 248.447 71.9209C248.447 88.5857 248.787 96.9241 249.127 105.255C249.466 113.571 249.805 121.88 249.805 138.508C249.805 139.246 249.372 140.191 248.614 140.983C247.854 141.779 246.958 142.223 246.25 142.223C240.749 142.223 238.007 142.035 235.254 141.846C232.475 141.655 229.684 141.464 224.121 141.464C223.36 141.464 222.867 141.165 222.531 140.705C222.168 140.207 221.944 139.446 221.944 138.508C221.944 121.859 221.904 113.534 221.864 105.21C221.824 96.8876 221.784 88.5653 221.784 71.9209C221.784 55.2586 221.489 46.9226 221.194 38.5928C220.9 30.2761 220.606 21.9655 220.606 5.33496C220.606 4.58186 221.043 3.58135 221.801 2.7373C222.565 1.8867 223.449 1.42109 224.141 1.4209Z" fill="white" stroke="white" stroke-width="1.9972"/>
<path d="M4.99121 2.67773C10.5012 2.67774 13.2498 2.81095 16.0068 2.94531C18.782 3.08056 21.5658 3.2168 27.1201 3.2168C28.0544 3.21681 28.7677 3.44346 29.2236 3.79785C29.6449 4.12547 29.9365 4.62832 29.9365 5.43359C29.9365 22.1186 29.7262 30.4582 29.5166 38.8018C29.3068 47.1546 29.0977 55.5121 29.0977 72.2197C29.0977 88.9226 29.217 97.276 29.3369 105.627C29.4567 113.973 29.5762 122.316 29.5762 139.006C29.5761 139.912 29.3016 140.951 28.8164 141.736C28.3291 142.525 27.7428 142.9 27.1396 142.9C21.6551 142.9 18.9266 142.614 16.1797 142.326C13.3945 142.035 10.5904 141.742 5.01074 141.742C4.20035 141.742 3.69609 141.458 3.37207 141.056C3.02354 140.622 2.79397 139.935 2.79395 139.006C2.79395 122.308 2.76433 113.958 2.73438 105.609C2.70442 97.2618 2.6748 88.9145 2.6748 72.2197C2.6748 55.5289 2.77419 47.1848 2.87402 38.8389C2.97391 30.4884 3.07422 22.1354 3.07422 5.43359C3.07422 4.44253 3.25375 3.74087 3.54785 3.3125C3.79698 2.94969 4.19709 2.67773 4.99121 2.67773Z" fill="white" stroke="white" stroke-width="1.9972"/>
<path d="M333.633 1.70117C339.13 1.70117 341.877 1.73081 344.629 1.76074C347.385 1.79072 350.145 1.82031 355.662 1.82031C356.419 1.82044 357.41 2.25065 358.24 2.99609C359.077 3.74712 359.536 4.62131 359.536 5.31543V5.33594C359.536 21.9412 359.332 30.2408 359.127 38.542C358.922 46.8523 358.718 55.1645 358.718 71.7822C358.718 88.3832 358.613 96.6872 358.508 104.993C358.403 113.304 358.298 121.617 358.298 138.229C358.298 139.05 358.029 139.476 357.682 139.734C357.282 140.032 356.617 140.226 355.642 140.226C350.129 140.226 347.369 140.291 344.611 140.356C341.862 140.421 339.114 140.485 333.612 140.485C332.693 140.485 332.184 140.253 331.897 139.962C331.608 139.668 331.376 139.146 331.376 138.209C331.376 121.578 331.106 113.257 330.836 104.945C330.567 96.6457 330.298 88.3541 330.298 71.7627C330.298 55.1716 330.582 46.8752 330.866 38.5732C331.151 30.2586 331.436 21.9376 331.436 5.31543C331.436 4.37232 331.662 3.40567 332.076 2.71094C332.477 2.03935 332.99 1.70117 333.633 1.70117Z" fill="white" stroke="white" stroke-width="1.9972"/>
<path d="M246.151 182.328C247.074 182.328 248.082 182.58 248.828 183.033C249.565 183.482 249.926 184.038 249.926 184.664C249.926 201.108 249.867 209.329 249.807 217.549C249.747 225.771 249.687 233.992 249.687 250.432C249.687 266.849 249.333 275.057 248.979 283.272C248.624 291.504 248.269 299.743 248.269 316.199C248.269 317.155 248.057 318.082 247.668 318.733C247.3 319.35 246.814 319.675 246.151 319.675C240.667 319.675 237.93 319.566 235.184 319.456C232.423 319.346 229.652 319.235 224.122 319.235C223.306 319.235 222.31 318.867 221.516 318.239C220.714 317.606 220.288 316.851 220.288 316.18C220.288 299.745 220.502 291.53 220.717 283.314C220.932 275.089 221.146 266.861 221.146 250.412C221.146 233.988 221.381 225.775 221.615 217.557C221.85 209.328 222.085 201.094 222.085 184.645C222.085 183.671 222.288 183.214 222.512 182.983C222.691 182.798 223.02 182.623 223.672 182.567H224.122C229.634 182.567 232.394 182.507 235.151 182.447C237.901 182.387 240.649 182.328 246.151 182.328Z" fill="white" stroke="white" stroke-width="1.9972"/>
<path d="M114.601 180.852C120.039 180.852 122.74 181.229 125.469 181.61C128.247 181.998 131.054 182.389 136.629 182.389C137.571 182.389 138.232 182.609 138.639 182.937C139.011 183.237 139.285 183.72 139.285 184.546V184.565C139.285 201.035 139.526 209.275 139.766 217.509C140.005 225.732 140.244 233.95 140.244 250.394C140.244 258.623 140.248 264.794 140.254 269.938L140.295 296.68C140.301 301.822 140.304 307.993 140.304 316.221C140.304 316.864 139.943 317.447 139.233 317.913C138.516 318.385 137.542 318.657 136.629 318.657C131.076 318.657 128.285 318.971 125.511 319.283C122.778 319.59 120.062 319.895 114.601 319.896C113.896 319.896 113.043 319.465 112.328 318.689C111.616 317.917 111.205 316.979 111.205 316.221C111.205 299.776 111.43 291.557 111.654 283.334C111.879 275.101 112.104 266.862 112.104 250.394C112.104 233.918 111.753 225.674 111.403 217.438C111.054 209.217 110.706 201.003 110.706 184.565C110.706 183.872 111.178 182.938 112.033 182.123C112.885 181.312 113.874 180.852 114.601 180.852Z" fill="white" stroke="white" stroke-width="1.9972"/>
<path d="M355.659 180.705C356.327 180.705 357.115 181.137 357.784 181.95C358.404 182.704 358.785 183.627 358.83 184.405L358.835 184.56C358.835 201.008 358.925 209.237 359.015 217.464C359.105 225.69 359.194 233.915 359.194 250.367C359.194 266.809 358.925 275.026 358.655 283.248C358.385 291.482 358.116 299.723 358.116 316.194C358.116 317.081 357.848 317.851 357.418 318.38C357.003 318.89 356.416 319.21 355.64 319.21C350.162 319.21 347.43 319.061 344.687 318.912C341.923 318.762 339.147 318.61 333.61 318.61C332.725 318.61 332.144 318.356 331.787 318.002C331.431 317.649 331.174 317.075 331.174 316.194C331.174 299.742 331.264 291.517 331.354 283.291C331.443 275.061 331.533 266.828 331.533 250.367C331.533 233.905 331.428 225.671 331.323 217.44C331.218 209.214 331.114 200.99 331.114 184.539C331.114 183.673 331.376 183.129 331.736 182.794C332.107 182.449 332.714 182.202 333.63 182.202C339.194 182.202 341.994 181.822 344.771 181.444C347.501 181.073 350.209 180.705 355.659 180.705Z" fill="white" stroke="white" stroke-width="1.9972"/>
<path d="M114.497 360.354C119.978 360.354 122.704 360.664 125.449 360.977C128.236 361.293 131.043 361.612 136.626 361.612C137.568 361.612 138.194 361.832 138.569 362.148C138.916 362.441 139.183 362.927 139.183 363.789C139.183 380.272 139.478 388.519 139.772 396.759C140.067 404.985 140.361 413.206 140.361 429.656C140.361 446.108 140.082 454.33 139.803 462.557C139.523 470.796 139.243 479.042 139.243 495.524C139.243 497.248 138.14 498.46 136.626 498.46C131.101 498.46 128.34 498.42 125.576 498.38C122.807 498.34 120.036 498.3 114.497 498.3C113.645 498.3 112.662 497.972 111.902 497.415C111.139 496.855 110.743 496.177 110.743 495.524C110.743 479.072 110.997 470.849 111.252 462.621C111.507 454.382 111.762 446.137 111.762 429.656C111.762 413.178 111.552 404.935 111.342 396.697C111.132 388.469 110.923 380.244 110.923 363.789C110.923 363.065 111.342 362.2 112.087 361.482C112.83 360.767 113.738 360.355 114.497 360.354Z" fill="white" stroke="white" stroke-width="1.9972"/>
<path d="M333.673 360.978C339.169 360.978 341.907 361.195 344.658 361.413C347.439 361.634 350.234 361.855 355.802 361.855C356.805 361.855 357.277 362.041 357.512 362.252C357.684 362.407 357.862 362.701 357.919 363.345V363.793C357.919 380.277 358.234 388.524 358.549 396.765C358.863 404.991 359.178 413.211 359.178 429.66C359.178 446.124 359.118 454.355 359.058 462.587C358.998 470.822 358.938 479.058 358.938 495.528C358.937 496.332 358.554 497.342 357.897 498.158C357.234 498.984 356.452 499.423 355.782 499.423C350.291 499.423 347.557 499.176 344.808 498.928C342.025 498.677 339.226 498.424 333.653 498.424C332.005 498.424 330.638 497.112 330.638 495.528C330.638 479.064 330.678 470.831 330.718 462.599C330.758 454.364 330.797 446.129 330.797 429.66C330.797 413.181 330.577 404.939 330.357 396.7C330.138 388.472 329.919 380.248 329.919 363.793C329.919 363.134 330.317 362.445 331.078 361.877C331.835 361.312 332.816 360.978 333.673 360.978Z" fill="white" stroke="white" stroke-width="1.9972"/>
<path d="M27.123 181.364C27.906 181.364 28.9153 181.771 29.7471 182.469C30.589 183.175 31.0381 183.994 31.0381 184.659C31.0381 201.096 30.6737 209.308 30.3096 217.528C29.9447 225.765 29.5801 234.01 29.5801 250.486C29.5801 266.957 29.835 275.197 30.0898 283.432C30.3443 291.654 30.5986 299.872 30.5986 316.314C30.5985 317.061 30.183 317.975 29.459 318.729C28.7333 319.484 27.8631 319.909 27.1436 319.909C21.6555 319.909 18.924 319.643 16.1758 319.375C13.3919 319.104 10.5909 318.831 5.01465 318.831C3.1583 318.831 1.81934 317.718 1.81934 316.334C1.81934 299.882 1.91395 291.658 2.00879 283.432C2.10368 275.201 2.19824 266.969 2.19824 250.507C2.19824 234.047 2.14857 225.816 2.09863 217.587C2.04871 209.36 1.99902 201.133 1.99902 184.679C1.99915 183.924 2.3075 183.391 2.7998 183.02C3.32096 182.626 4.09802 182.383 5.01465 182.383H7.4248L7.38477 182.343C11.43 182.282 13.7949 182.072 16.1484 181.859C18.8979 181.611 21.6319 181.364 27.123 181.364Z" fill="white" stroke="white" stroke-width="1.9972"/>
<path d="M27.1211 361.637C28.0688 361.637 28.5858 361.853 28.8701 362.123C29.1441 362.383 29.3779 362.861 29.3779 363.793C29.3779 380.266 29.6777 388.508 29.9775 396.743C30.2769 404.965 30.5762 413.181 30.5762 429.621C30.5762 446.084 30.686 454.317 30.7959 462.548C30.9057 470.774 31.0156 478.997 31.0156 495.448C31.0156 496.051 30.6411 496.637 29.8506 497.124C29.0632 497.609 28.0187 497.885 27.1016 497.885C21.5491 497.885 18.7666 498.011 15.9922 498.136C13.2345 498.26 10.4844 498.384 4.97266 498.384C3.37051 498.384 2.05666 497.077 2.05664 495.448C2.05664 478.98 1.84177 470.742 1.62695 462.509C1.41238 454.285 1.19825 446.066 1.19824 429.621C1.19824 413.179 1.45735 404.961 1.7168 396.738C1.97661 388.504 2.23633 380.264 2.23633 363.793C2.2364 362.983 2.51264 362.528 2.89062 362.243C3.31393 361.924 4.00286 361.716 4.97266 361.716H4.99219C10.5277 361.716 13.297 361.696 16.0645 361.676C18.8291 361.656 21.5925 361.637 27.1211 361.637Z" fill="white" stroke="white" stroke-width="1.9972"/>
<path d="M443.094 2.8125C448.353 2.8125 450.981 2.8316 453.611 2.85156C456.244 2.87155 458.878 2.8916 464.145 2.8916C465.018 2.89167 465.871 3.16844 466.483 3.62793C467.081 4.07658 467.42 4.66903 467.42 5.36816V70.2373C467.42 86.459 467.499 94.5712 467.579 102.682C467.659 110.788 467.739 118.894 467.739 135.106C467.739 135.802 467.322 136.622 466.57 137.306C465.822 137.986 464.903 138.382 464.145 138.382C458.86 138.382 456.211 138.507 453.571 138.632C450.949 138.756 448.335 138.881 443.094 138.881C442.528 138.881 442.066 138.563 441.692 137.837C441.309 137.093 441.116 136.069 441.116 135.106C441.116 118.883 440.997 110.768 440.877 102.657C440.757 94.5514 440.638 86.4478 440.638 70.2373C440.638 54.0245 440.712 45.9193 440.787 37.8125C440.862 29.7022 440.937 21.5896 440.937 5.36816C440.937 4.44251 441.159 3.81353 441.479 3.43164C441.777 3.07771 442.261 2.81251 443.094 2.8125Z" fill="white" stroke="white" stroke-width="1.9972"/>
<path d="M443.156 361.075C448.437 361.075 451.072 361.199 453.712 361.323C456.369 361.448 459.033 361.574 464.347 361.574C465.284 361.574 466.158 361.803 466.764 362.201C467.337 362.578 467.662 363.089 467.662 363.791C467.662 380.252 467.732 388.483 467.802 396.713C467.872 404.94 467.941 413.165 467.941 429.618C467.941 446.079 468.022 454.312 468.102 462.542C468.181 470.769 468.261 478.994 468.261 495.446C468.261 496.026 467.909 496.554 467.126 496.99C466.341 497.428 465.286 497.663 464.347 497.663C458.976 497.663 456.27 498.069 453.595 498.473C450.973 498.868 448.38 499.261 443.156 499.261C442.516 499.261 441.849 498.863 441.294 498.083C440.743 497.309 440.42 496.305 440.42 495.446C440.42 478.986 440.355 470.754 440.29 462.524C440.225 454.297 440.16 446.071 440.16 429.618C440.16 413.149 439.941 404.911 439.721 396.678C439.501 388.454 439.282 380.236 439.282 363.791C439.282 363.159 439.681 362.497 440.475 361.944C441.261 361.396 442.282 361.075 443.156 361.075Z" fill="white" stroke="white" stroke-width="1.9972"/>
<path d="M245.969 362.006C246.773 361.698 247.697 361.673 248.472 361.953V361.954C253.538 363.806 256.105 364.653 258.664 365.501C261.211 366.345 263.752 367.191 268.781 369.043L268.786 369.045C269.461 369.29 269.879 369.796 270.076 370.481C270.281 371.192 270.235 372.082 269.926 372.936C264.299 388.297 261.734 396.073 259.171 403.843C256.611 411.601 254.054 419.354 248.437 434.688C242.816 450.033 239.931 457.674 237.046 465.316C234.159 472.962 231.272 480.61 225.648 495.962L225.647 495.965C225.38 496.703 224.743 497.373 223.931 497.778C223.118 498.183 222.246 498.268 221.542 498.006L221.536 498.004C216.538 496.176 214.172 494.953 211.786 493.721C209.359 492.467 206.911 491.203 201.805 489.336H201.802C200.877 489.001 200.353 488.603 200.105 488.213C199.892 487.875 199.793 487.394 200.082 486.604C207.578 466.14 215.1 445.689 222.649 425.252L222.65 425.25C228.277 409.89 230.886 402.132 233.494 394.378C236.099 386.634 238.702 378.894 244.32 363.557L244.321 363.554C244.571 362.864 245.167 362.313 245.969 362.006Z" fill="white" stroke="white" stroke-width="1.9972"/>
<path d="M464.126 184.15C464.584 183.944 465.227 183.908 466.075 184.207L466.082 184.195C471.086 185.982 473.713 186.587 476.32 187.185C478.891 187.774 481.441 188.358 486.363 190.117L486.367 190.118C486.972 190.332 487.363 190.835 487.536 191.616C487.713 192.417 487.625 193.407 487.316 194.294C481.879 209.557 479.418 217.288 476.96 225.013C474.505 232.726 472.052 240.434 466.625 255.668C461.197 270.904 458.27 278.444 455.341 285.988C452.408 293.543 449.474 301.102 444.037 316.362L444.036 316.365C443.744 317.194 443.289 317.691 442.799 317.937C442.314 318.179 441.666 318.238 440.855 317.952C435.889 316.177 433.416 315.269 430.939 314.361C428.459 313.452 425.974 312.542 420.987 310.764L420.984 310.763L420.696 310.648C420.072 310.372 419.777 310.023 419.643 309.678C419.477 309.253 419.47 308.623 419.793 307.731L419.795 307.726C425.232 292.463 427.707 284.738 430.181 277.019C432.65 269.31 435.118 261.607 440.546 246.372C445.975 231.133 448.858 223.576 451.742 216.016C454.63 208.447 457.518 200.875 462.954 185.617L462.955 185.614C463.246 184.789 463.677 184.353 464.126 184.15Z" fill="white" stroke="white" stroke-width="1.9972"/>
<path d="M137.437 4.87598C138.232 4.55289 139.139 4.51599 139.902 4.79297L141.242 5.27832V5.2627C145.08 6.68307 147.141 7.60462 149.209 8.53223C151.53 9.57336 153.86 10.6225 158.635 12.3613L158.637 12.3623C159.514 12.6808 160.095 13.1386 160.395 13.626C160.638 14.0228 160.743 14.5142 160.581 15.1396L160.494 15.417C154.972 30.6641 152.187 38.2779 149.401 45.8916C146.615 53.5063 143.828 61.1215 138.306 76.3711C132.787 91.6109 129.873 99.1687 126.959 106.729C124.406 113.351 121.853 119.976 117.553 131.75L115.598 137.126C115.261 138.053 114.877 138.547 114.507 138.772C114.186 138.968 113.706 139.062 112.883 138.764H112.882C108.115 137.041 105.701 136.258 103.294 135.478C100.898 134.701 98.5076 133.925 93.7686 132.213H93.7695C92.9694 131.923 92.1915 131.291 91.7012 130.524C91.211 129.757 91.0791 128.981 91.3115 128.34H91.3125C96.827 113.113 99.9607 105.644 103.098 98.168C106.242 90.675 109.389 83.1739 114.919 67.9043C120.447 52.6387 122.908 44.8906 125.367 37.1494C127.821 29.4225 130.273 21.7011 135.789 6.46973C136.044 5.76752 136.644 5.19817 137.437 4.87598Z" fill="white" stroke="white" stroke-width="1.9972"/>
</g>
<defs>
<clipPath id="clip0_1476_29308">
<rect width="488.426" height="500" fill="white" transform="translate(0.199219 0.421875)"/>
</clipPath>
</defs>
</svg>
