<svg width="501" height="524" viewBox="0 0 501 524" fill="none" xmlns="http://www.w3.org/2000/svg">
<g clip-path="url(#clip0_1776_21632)">
<path d="M82.3392 94.7033C94.5957 94.7033 105.825 92.1804 115.774 86.864C125.356 81.9773 134.588 74.9816 143.486 66.0917C149.511 60.3693 155.202 56.0398 160.534 52.9518L160.948 52.721C165.277 50.3254 170.84 48.9087 178.035 48.9087C185.461 48.9087 192.21 51.1213 198.529 55.7692C205.19 60.7036 210.706 67.1104 215.035 75.1567L215.163 75.3875C217.861 80.107 223.83 82.0012 228.796 79.5021L229.035 79.3748L244.825 70.9226L245.064 70.7953C249.887 68.0575 251.701 61.969 249.123 57.0266L248.995 56.7879C240.877 42.1677 230.746 30.5718 218.442 22.43L218.41 22.4141C206.058 14.3041 192.448 10.1895 177.796 10.1895C165.659 10.1895 154.453 12.6407 144.386 17.7741L144.322 17.806L144.258 17.8378C134.732 22.8757 125.531 29.9271 116.641 38.8011C110.617 44.5155 104.926 48.853 99.5938 51.941L99.546 51.9728L99.4983 52.0047C95.3518 54.4639 89.7249 55.992 82.0925 55.992C74.7227 55.992 67.8941 53.7317 61.3679 48.9008H61.352L61.3361 48.8849C55.0646 44.2767 49.7721 38.2122 45.4982 30.5002L45.0844 29.752C42.45 24.8654 36.3695 22.8677 31.3237 25.4066L31.0849 25.5339L15.2948 33.9861C10.2171 36.7 8.32292 43.0591 11.1324 48.1288L11.8964 49.4897C19.7358 63.2265 29.3579 74.1618 40.8981 81.8898L41.4631 82.2638C53.9504 90.517 67.6315 94.7352 82.3233 94.7352L82.3392 94.7033Z" fill="white"/>
<path d="M177.796 0.638672C194.139 0.638672 209.391 5.20413 223.145 14.1035L223.23 14.1465L223.712 14.4648C237.523 23.604 248.628 36.4528 257.345 52.1514L257.384 52.2227L257.422 52.293L257.55 52.5322L257.57 52.5703L257.59 52.6094C262.554 62.1237 259.062 73.8308 249.778 79.1006L249.669 79.1631L249.558 79.2217L249.319 79.3496L233.542 87.7949L233.535 87.7988L233.528 87.8018L233.29 87.9287L233.19 87.9824L233.089 88.0332C223.512 92.8525 212.047 89.1811 206.871 80.127L206.836 80.0645L206.648 79.7266L206.625 79.6816C202.925 72.8047 198.321 67.5066 192.87 63.4629L192.427 63.1426C187.844 59.8921 183.2 58.459 178.035 58.459C172.122 58.459 168.23 59.6123 165.599 61.0615L165.285 61.2363C160.756 63.8638 155.684 67.6829 150.108 72.9736C140.713 82.3396 130.75 89.9377 120.168 95.3428C110.38 100.553 99.6642 103.347 88.337 104.064L88.2266 104.286H82.3233C65.6938 104.286 50.1915 99.4806 36.1973 90.2314L36.1915 90.2275L35.626 89.8535L35.6055 89.8398L35.584 89.8252C22.5912 81.1245 12.0264 68.9862 3.60161 54.2236L3.56841 54.165L2.80473 52.8037L2.79204 52.7812L2.77837 52.7578C-2.53312 43.1726 0.906761 31.1697 10.3389 25.8135L10.793 25.5635L26.5782 17.1143L26.584 17.1104L26.5909 17.1074L26.8291 16.9795L26.9297 16.9258L27.0313 16.875C36.7317 11.9944 48.3631 15.8261 53.4405 25.1289L53.8555 25.877C57.3524 32.1853 61.5259 37.0098 66.3077 40.6748L67.0499 41.2246C72.0253 44.9077 76.8826 46.4414 82.0928 46.4414C88.3283 46.4414 92.133 45.22 94.4707 43.877L94.5469 43.8271L94.8077 43.6768C99.3378 41.0533 104.416 37.2252 110.007 31.9297C119.393 22.5783 129.307 14.9413 139.794 9.39551L139.89 9.34473L139.987 9.2959L140.114 9.23145C151.672 3.3529 164.372 0.638736 177.796 0.638672ZM177.796 19.7402C166.971 19.7403 157.284 21.9176 148.724 26.2822L148.69 26.2998L148.656 26.3164L148.639 26.3242C140.143 30.8298 131.722 37.2425 123.389 45.5605L123.303 45.6465L123.214 45.7305C116.885 51.7333 110.703 56.502 104.68 60.0283L104.587 60.0908L104.37 60.2188C98.4007 63.7592 90.9832 65.5429 82.0928 65.543C73.6186 65.543 65.7216 63.1788 58.3965 58.4512H57.3965L55.0723 56.127C47.8723 50.6981 41.8956 43.703 37.1446 35.1299L37.1416 35.123L36.7276 34.375L36.7022 34.3301L36.6778 34.2842C36.4632 33.886 35.9906 33.7622 35.6329 33.9316L35.5791 33.9609L19.8018 42.4062L19.7969 42.4092C19.4164 42.6126 19.2636 43.0981 19.4864 43.5L20.1915 44.7559L20.875 45.9385C27.9784 58.0546 36.4155 67.3831 46.17 73.9258L46.7295 74.2959L47.7608 74.9658C57.8803 81.413 68.7398 84.8087 80.3506 85.1533H82.3389C93.2617 85.1533 102.904 82.9127 111.273 78.4404L111.354 78.3975L111.436 78.3555C119.95 74.0133 128.39 67.674 136.736 59.335L136.821 59.25L136.909 59.167C143.351 53.0487 149.634 48.2283 155.748 44.6875L155.814 44.6484L155.882 44.6104L156.296 44.3799L156.31 44.3721L156.324 44.3643C162.351 41.0295 169.58 39.3584 178.035 39.3584C187.555 39.3584 196.276 42.2563 204.188 48.0752L204.2 48.085L204.214 48.0947C212.049 53.8987 218.451 61.3788 223.398 70.543L223.461 70.6582C223.679 71.0272 224.132 71.1412 224.481 70.9785L224.541 70.9473L240.317 62.5029L240.324 62.499L240.33 62.4961L240.382 62.4678C240.715 62.2549 240.839 61.8128 240.66 61.4561L240.61 61.3623C233.169 47.9784 224.123 37.7244 213.475 30.5986L213.168 30.3975C202.349 23.2938 190.556 19.7402 177.796 19.7402Z" fill="white"/>
<path d="M322.788 172.35C335.045 172.35 346.275 169.827 356.223 164.51C365.805 159.624 375.038 152.628 383.935 143.738C389.96 138.016 395.651 133.686 400.983 130.598L401.397 130.367C405.727 127.972 411.29 126.555 418.484 126.555C425.91 126.555 432.659 128.768 438.978 133.416C445.64 138.35 451.155 144.757 455.485 152.803L455.612 153.034C458.31 157.753 464.279 159.648 469.245 157.149L469.484 157.021L485.274 148.569L485.513 148.442C490.336 145.704 492.15 139.616 489.572 134.673L489.444 134.434C481.327 119.814 471.195 108.218 458.891 100.076L458.859 100.061C446.507 91.9506 432.898 87.8359 418.246 87.8359C406.109 87.8359 394.903 90.2872 384.835 95.4206L384.771 95.4525L384.707 95.4843C375.181 100.522 365.981 107.574 357.091 116.448C351.066 122.162 345.375 126.5 340.043 129.588L339.995 129.619L339.947 129.651C335.801 132.11 330.174 133.639 322.542 133.639C315.172 133.639 308.343 131.378 301.817 126.547H301.801L301.785 126.531C295.514 121.923 290.221 115.859 285.947 108.147L285.534 107.399C282.899 102.512 276.819 100.514 271.773 103.053L271.534 103.18L255.744 111.633C250.666 114.347 248.772 120.706 251.582 125.775L252.346 127.136C260.185 140.873 269.807 151.808 281.347 159.536L281.912 159.91C294.4 168.164 308.081 172.382 322.773 172.382L322.788 172.35Z" fill="white"/>
<path d="M418.246 78.2852C434.589 78.2852 449.84 82.851 463.593 91.75L463.681 91.7939L464.161 92.1113C477.973 101.25 489.077 114.099 497.794 129.798L497.833 129.868L497.871 129.939L497.998 130.178L498.039 130.256C503.003 139.77 499.511 151.477 490.228 156.747L490.118 156.81L490.007 156.869L489.769 156.996L473.991 165.441L473.984 165.445L473.978 165.448L473.738 165.576L473.639 165.629L473.538 165.68C463.961 170.499 452.496 166.828 447.32 157.773L447.284 157.711L447.249 157.647L447.122 157.416L447.098 157.372L447.074 157.328C443.374 150.451 438.77 145.153 433.319 141.109L432.876 140.789C428.293 137.539 423.649 136.105 418.484 136.105C412.571 136.105 408.68 137.259 406.048 138.708L405.734 138.883C401.205 141.51 396.134 145.329 390.558 150.62C381.162 159.986 371.199 167.584 360.617 172.989C350.829 178.199 340.113 180.994 328.786 181.711L328.676 181.933H322.773C306.143 181.933 290.641 177.127 276.647 167.878L276.641 167.874L276.075 167.5L276.055 167.486L276.033 167.472C263.04 158.771 252.476 146.633 244.051 131.87L244.018 131.812L243.254 130.45L243.241 130.428L243.228 130.404C237.916 120.819 241.356 108.816 250.788 103.46L251.242 103.21L267.027 94.7607L267.033 94.7568L267.04 94.7539L267.278 94.626L267.379 94.5723L267.481 94.5215C277.181 89.6408 288.812 93.4726 293.89 102.775L294.305 103.523C297.802 109.832 301.975 114.656 306.757 118.321L307.499 118.871C312.475 122.554 317.332 124.088 322.542 124.088C328.781 124.088 332.587 122.866 334.925 121.521L334.997 121.474L335.257 121.323C339.787 118.7 344.865 114.872 350.456 109.576C359.842 100.225 369.756 92.5878 380.243 87.042L380.339 86.9912L380.436 86.9424L380.499 86.9102C392.074 81.0093 404.798 78.2852 418.246 78.2852ZM418.246 97.3867C407.421 97.3867 397.733 99.564 389.173 103.929L389.14 103.946L389.106 103.963L389.088 103.971C380.592 108.476 372.171 114.889 363.838 123.207L363.752 123.293L363.663 123.377C357.334 129.38 351.151 134.149 345.127 137.676L345.036 137.737L344.819 137.865C338.85 141.406 331.432 143.189 322.542 143.189C314.068 143.189 306.171 140.825 298.846 136.098H297.843L295.52 133.772C288.32 128.344 282.344 121.349 277.594 112.776L277.591 112.77L277.177 112.021L277.151 111.977L277.127 111.931C276.912 111.533 276.44 111.409 276.082 111.578L276.028 111.607L260.251 120.053L260.246 120.056C259.866 120.259 259.713 120.745 259.936 121.146L260.641 122.402L261.324 123.585C268.428 135.701 276.865 145.03 286.619 151.572L287.179 151.942L288.21 152.612C298.33 159.06 309.189 162.455 320.8 162.8H322.788C333.711 162.8 343.353 160.559 351.722 156.087L351.803 156.044L351.885 156.002C360.399 151.66 368.839 145.32 377.186 136.981L377.271 136.896L377.358 136.813C383.8 130.695 390.083 125.875 396.197 122.334L396.264 122.295L396.745 122.026L396.76 122.019L396.773 122.011C402.8 118.676 410.029 117.005 418.484 117.005C428.004 117.005 436.725 119.903 444.637 125.722L444.649 125.731L444.663 125.741C452.51 131.554 458.919 139.048 463.868 148.23L463.909 148.304C464.128 148.674 464.582 148.788 464.932 148.625L464.99 148.594L480.767 140.149L480.773 140.146L480.78 140.143L480.826 140.117C481.167 139.903 481.292 139.451 481.105 139.091L481.06 139.008C473.615 125.618 464.564 115.361 453.909 108.235L453.617 108.044C442.798 100.94 431.006 97.3868 418.246 97.3867Z" fill="white"/>
<path d="M322.788 346.94C335.045 346.94 346.275 344.417 356.223 339.1C365.805 334.214 375.038 327.218 383.935 318.328C389.96 312.606 395.651 308.276 400.983 305.188L401.397 304.957C405.727 302.562 411.29 301.145 418.484 301.145C425.91 301.145 432.659 303.358 438.978 308.006C445.64 312.94 451.155 319.347 455.485 327.393L455.612 327.624C458.31 332.343 464.279 334.238 469.245 331.738L469.484 331.611L485.274 323.159L485.513 323.032C490.336 320.294 492.15 314.205 489.572 309.263L489.444 309.024C481.327 294.404 471.195 282.808 458.891 274.666L458.859 274.65C446.507 266.54 432.898 262.426 418.246 262.426C406.109 262.426 394.903 264.877 384.835 270.01L384.771 270.042L384.707 270.074C375.181 275.112 365.981 282.163 357.091 291.037C351.066 296.752 345.375 301.089 340.043 304.177L339.995 304.209L339.947 304.241C335.801 306.7 330.174 308.228 322.542 308.228C315.172 308.228 308.343 305.968 301.817 301.137H301.801L301.785 301.121C295.514 296.513 290.221 290.449 285.947 282.737L285.534 281.988C282.899 277.102 276.819 275.104 271.773 277.643L271.534 277.77L255.744 286.222C250.666 288.936 248.772 295.295 251.582 300.365L252.346 301.726C260.185 315.463 269.807 326.398 281.347 334.126L281.912 334.5C294.4 342.753 308.081 346.972 322.773 346.972L322.788 346.94Z" fill="white"/>
<path d="M418.246 252.875C434.589 252.875 449.841 257.441 463.594 266.34L463.679 266.383L464.161 266.701C477.973 275.84 489.077 288.689 497.794 304.388L497.833 304.458L497.871 304.529L497.998 304.768L498.039 304.846C503.003 314.36 499.511 326.067 490.228 331.337L490.118 331.399L490.008 331.458L473.991 340.031L473.984 340.035L473.978 340.038L473.739 340.166L473.64 340.219L473.538 340.27C463.961 345.089 452.496 341.417 447.32 332.363L447.284 332.301L447.249 332.236L447.122 332.006L447.098 331.962L447.074 331.918C443.374 325.041 438.77 319.743 433.319 315.699L432.876 315.379C428.293 312.128 423.649 310.695 418.484 310.695C412.571 310.695 408.68 311.849 406.048 313.298L405.734 313.473C401.205 316.1 396.134 319.919 390.558 325.21C381.162 334.576 371.199 342.174 360.617 347.579C350.829 352.789 340.114 355.584 328.787 356.301L328.677 356.522H322.772C306.143 356.522 290.641 351.717 276.647 342.468L276.641 342.464L276.075 342.09L276.055 342.076L276.033 342.062C263.04 333.361 252.476 321.223 244.051 306.46L244.018 306.401L243.254 305.04L243.241 305.018L243.228 304.994C237.916 295.409 241.356 283.406 250.788 278.05L251.242 277.8L267.027 269.351L267.033 269.347L267.04 269.344L267.278 269.216L267.379 269.162L267.481 269.111C277.181 264.231 288.812 268.062 293.89 277.365L294.305 278.113C297.802 284.422 301.975 289.246 306.757 292.911L307.499 293.461C312.475 297.144 317.332 298.678 322.542 298.678C328.779 298.678 332.584 297.456 334.922 296.112L334.998 296.062L335.257 295.913C339.787 293.29 344.865 289.462 350.456 284.166C359.842 274.815 369.756 267.178 380.243 261.632L380.338 261.581L380.435 261.532L380.496 261.503C380.518 261.492 380.541 261.479 380.564 261.468C392.121 255.589 404.822 252.875 418.246 252.875ZM418.246 271.977C407.421 271.977 397.733 274.154 389.173 278.519L389.14 278.536L389.106 278.553L389.088 278.561C380.592 283.066 372.171 289.479 363.838 297.797L363.752 297.883L363.663 297.967C357.334 303.97 351.151 308.739 345.127 312.266L345.036 312.327L344.819 312.455C338.85 315.996 331.432 317.779 322.542 317.779C314.068 317.779 306.171 315.415 298.846 310.688H297.841L295.519 308.361C288.32 302.933 282.344 295.938 277.594 287.366L277.591 287.359L277.177 286.611L277.151 286.566L277.127 286.521C276.912 286.122 276.44 285.999 276.082 286.168L276.028 286.197L260.251 294.643L260.178 294.687C259.848 294.909 259.727 295.359 259.936 295.736L260.641 296.992L261.324 298.175C268.428 310.291 276.865 319.619 286.619 326.162L287.179 326.532L288.21 327.202C298.33 333.649 309.189 337.045 320.8 337.39H322.788C333.711 337.39 343.353 335.149 351.722 330.677L351.803 330.634L351.885 330.592C360.399 326.25 368.839 319.91 377.186 311.571L377.271 311.486L377.358 311.403C383.8 305.285 390.083 300.465 396.197 296.924L396.264 296.885L396.331 296.847L396.745 296.616L396.759 296.608L396.773 296.601C402.8 293.266 410.029 291.595 418.484 291.595C428.004 291.595 436.725 294.493 444.637 300.312L444.649 300.321L444.663 300.331C452.51 306.144 458.919 313.638 463.868 322.82L463.909 322.894C464.127 323.263 464.581 323.378 464.931 323.215L464.99 323.184L480.767 314.739L480.773 314.735L480.779 314.732L480.831 314.704C481.168 314.489 481.292 314.039 481.105 313.681L481.06 313.598C473.609 300.199 464.551 289.937 453.887 282.811L453.617 282.634C442.798 275.53 431.006 271.977 418.246 271.977Z" fill="white"/>
<path d="M82.3392 272.373C94.5957 272.373 105.825 269.85 115.774 264.534C125.356 259.647 134.588 252.651 143.486 243.77C149.511 238.047 155.202 233.718 160.534 230.63L160.948 230.399C165.277 228.003 170.84 226.587 178.035 226.587C185.23 226.587 192.21 228.799 198.529 233.447C205.19 238.381 210.706 244.788 215.035 252.835L215.163 253.065C217.861 257.785 223.83 259.679 228.796 257.18L229.035 257.053L244.825 248.6L245.064 248.473C249.887 245.735 251.701 239.647 249.123 234.705L248.995 234.466C240.877 219.846 230.746 208.25 218.442 200.1L218.41 200.084C206.058 191.966 192.448 187.859 177.796 187.859C165.659 187.859 154.453 190.311 144.386 195.444L144.322 195.476L144.258 195.508C134.732 200.546 125.531 207.597 116.641 216.471C110.617 222.193 104.926 226.523 99.5938 229.611L99.546 229.643L99.4983 229.675C95.3518 232.142 89.7249 233.662 82.0925 233.662C74.4601 233.662 67.8941 231.402 61.3679 226.571H61.352L61.3361 226.555C55.0646 221.947 49.7721 215.882 45.4982 208.17L45.0844 207.422C42.45 202.535 36.3695 200.538 31.3237 203.076L31.0849 203.204L15.2948 211.648C10.2171 214.362 8.32292 220.721 11.1324 225.783L11.8964 227.144C19.7358 240.881 29.3579 251.816 40.8981 259.544L41.4631 259.926C53.9504 268.179 67.6315 272.397 82.3233 272.397L82.3392 272.373Z" fill="white"/>
<path d="M177.796 178.309C194.136 178.309 209.389 182.864 223.147 191.774L223.231 191.816L223.716 192.138C237.524 201.284 248.628 214.13 257.345 229.829L257.384 229.9L257.422 229.972L257.55 230.21L257.571 230.248L257.59 230.287C262.554 239.801 259.062 251.508 249.779 256.778L249.669 256.841L249.559 256.9L249.32 257.027L233.542 265.473L233.535 265.477L233.53 265.479L233.29 265.607L233.191 265.66L233.089 265.711C223.512 270.53 212.047 266.86 206.871 257.806L206.649 257.404L206.625 257.36C202.925 250.483 198.321 245.184 192.87 241.141L192.429 240.822C187.858 237.589 183.009 236.137 178.035 236.137C172.102 236.137 168.204 237.299 165.572 238.756L165.285 238.914C160.755 241.542 155.683 245.362 150.107 250.653C140.713 260.01 130.75 267.608 120.168 273.013C110.152 278.344 99.1644 281.148 87.5442 281.782L87.4349 281.947H82.3235C65.6941 281.947 50.1917 277.143 36.1976 267.894L36.1556 267.866L36.1146 267.838L35.5491 267.456C22.5725 258.757 12.019 246.626 3.60186 231.877L3.58526 231.849L3.56866 231.819L2.80499 230.458L2.79327 230.438L2.78252 230.418C-2.62178 220.681 1.02335 208.448 10.7933 203.226L26.5814 194.782L26.5911 194.777L26.8294 194.649L26.93 194.596L27.0315 194.545C36.7319 189.664 48.3633 193.496 53.4407 202.799L53.8558 203.547C57.3526 209.855 61.5261 214.68 66.3079 218.345L67.0501 218.895C72.0581 222.602 76.6583 224.111 82.0931 224.111C88.3458 224.111 92.1434 222.891 94.4681 221.55L94.5481 221.497L94.8079 221.347C99.3462 218.719 104.429 214.892 110.019 209.588C119.401 200.242 129.312 192.609 139.794 187.065L139.89 187.015L139.987 186.966L140.05 186.934C151.624 181.033 164.348 178.309 177.796 178.309ZM177.796 197.41C166.972 197.41 157.284 199.588 148.724 203.952L148.691 203.97L148.657 203.986L148.639 203.994C140.143 208.5 131.722 214.912 123.389 223.23L123.305 223.314L123.219 223.396C116.883 229.413 110.699 234.173 104.68 237.697L104.593 237.757L104.382 237.882C98.3998 241.441 90.9727 243.213 82.0931 243.213C73.3553 243.213 65.6438 240.832 58.388 236.121H57.3939L55.0706 233.796C47.8713 228.367 41.8955 221.372 37.1448 212.8L37.1419 212.793L36.7278 212.045L36.7024 212L36.678 211.954C36.4634 211.556 35.9908 211.432 35.6331 211.602L35.5882 211.625L19.7991 220.07L19.7972 220.071C19.4141 220.276 19.2696 220.756 19.4788 221.142L20.1917 222.41L20.8753 223.593C27.7594 235.335 35.8963 244.458 45.2708 250.966L46.2122 251.608L46.2474 251.632L46.7444 251.968C57.2319 258.896 68.5214 262.514 80.6263 262.822H82.3392C93.262 262.822 102.904 260.583 111.273 256.11L111.354 256.067L111.436 256.025C119.951 251.683 128.391 245.344 136.74 237.011L136.824 236.927L136.909 236.845C143.351 230.726 149.634 225.906 155.748 222.365L155.815 222.326L155.882 222.289L156.296 222.058L156.31 222.05L156.325 222.042C162.351 218.707 169.58 217.036 178.035 217.036C187.002 217.036 195.689 219.737 203.441 225.215L204.188 225.754L204.201 225.763L204.214 225.772C212.049 231.576 218.451 239.057 223.397 248.221L223.459 248.333C223.678 248.706 224.136 248.821 224.487 248.654L224.528 248.633L240.318 240.181L240.325 240.177L240.33 240.174L240.386 240.144C240.717 239.93 240.839 239.488 240.66 239.133L240.611 239.04C233.164 225.648 224.11 215.387 213.45 208.252L213.164 208.065C202.35 200.958 190.56 197.41 177.796 197.41Z" fill="white"/>
<path d="M82.3392 436.389C94.5957 436.389 105.825 433.866 115.774 428.549C125.356 423.663 134.588 416.667 143.486 407.777C149.511 402.055 155.202 397.725 160.534 394.637L160.948 394.407C165.277 392.011 170.84 390.594 178.035 390.594C185.461 390.594 192.21 392.807 198.529 397.455C205.19 402.389 210.706 408.796 215.035 416.842L215.163 417.073C217.861 421.793 223.83 423.687 228.796 421.188L229.035 421.06L244.825 412.608L245.064 412.481C249.887 409.743 251.701 403.655 249.123 398.712L248.995 398.473C240.877 383.853 230.746 372.257 218.442 364.116L218.41 364.1C206.058 355.99 192.448 351.875 177.796 351.875C165.659 351.875 154.453 354.326 144.386 359.46L144.322 359.492L144.258 359.523C134.732 364.561 125.531 371.613 116.641 380.487C110.617 386.201 104.926 390.539 99.5938 393.627L99.546 393.658L99.4983 393.69C95.3518 396.149 89.7249 397.678 82.0925 397.678C74.7227 397.678 67.8941 395.417 61.3679 390.586H61.352L61.3361 390.57C55.0646 385.962 49.7721 379.898 45.4982 372.186L45.0844 371.438C42.45 366.551 36.3695 364.553 31.3237 367.092L31.0849 367.219L15.2948 375.672C10.2171 378.386 8.32292 384.745 11.1324 389.814L11.8964 391.175C19.7358 404.912 29.3579 415.847 40.8981 423.575L41.4631 423.949C53.9504 432.203 67.6315 436.421 82.3233 436.421L82.3392 436.389Z" fill="white"/>
<path d="M177.796 342.324C194.139 342.324 209.391 346.89 223.144 355.789L223.231 355.833L223.712 356.15C237.523 365.29 248.628 378.138 257.345 393.837L257.384 393.908L257.422 393.979L257.55 394.218L257.57 394.256L257.59 394.295C262.554 403.809 259.062 415.516 249.778 420.786L249.669 420.849L249.559 420.907L249.331 421.027L233.542 429.48L233.535 429.484L233.528 429.487L233.289 429.615L233.189 429.668L233.089 429.719C223.512 434.538 212.047 430.867 206.871 421.812L206.836 421.75L206.673 421.456L206.649 421.412L206.625 421.367C202.925 414.49 198.321 409.192 192.87 405.148L192.427 404.828C187.844 401.578 183.2 400.145 178.035 400.145C172.122 400.145 168.23 401.298 165.599 402.747L165.285 402.922C160.756 405.549 155.684 409.368 150.108 414.659C140.713 424.025 130.75 431.623 120.168 437.028C110.379 442.239 99.6623 445.033 88.334 445.75L88.2247 445.971H82.3233C65.6938 445.971 50.1915 441.166 36.1973 431.917L36.1915 431.913L35.626 431.539L35.6055 431.524L35.584 431.511C22.5912 422.81 12.0264 410.672 3.60161 395.909L3.56841 395.851L2.80474 394.489L2.79204 394.467L2.77837 394.443C-2.53313 384.858 0.906766 372.855 10.3389 367.499L10.793 367.249L26.5782 358.8L26.584 358.796L26.5909 358.793L26.8292 358.665L26.9297 358.611L27.0313 358.561C36.7317 353.68 48.3631 357.512 53.4405 366.814L53.8555 367.562C57.3524 373.871 61.5259 378.695 66.3077 382.36L67.0499 382.91C72.0253 386.593 76.8826 388.127 82.0928 388.127C88.3228 388.127 92.1266 386.908 94.4649 385.566L94.546 385.513L94.8077 385.362C99.3378 382.739 104.416 378.911 110.007 373.615C119.393 364.264 129.307 356.627 139.794 351.081L139.891 351.029L139.989 350.98L140.083 350.934C151.649 345.044 164.36 342.324 177.796 342.324ZM177.796 361.426C166.971 361.426 157.284 363.603 148.724 367.968L148.69 367.985L148.657 368.002L148.634 368.013C140.14 372.518 131.72 378.93 123.389 387.246L123.303 387.332L123.214 387.416C116.883 393.421 110.698 398.191 104.673 401.718L104.586 401.776L104.37 401.904C98.4007 405.445 90.9832 407.228 82.0928 407.229C73.6186 407.229 65.7216 404.864 58.3965 400.137H57.3985L55.0733 397.813C47.8728 392.384 41.8959 385.389 37.1446 376.815L37.1417 376.809L36.7276 376.061L36.7022 376.016L36.6778 375.97C36.4632 375.572 35.9906 375.448 35.6329 375.617L35.5792 375.646L19.8018 384.092L19.7969 384.095C19.4164 384.298 19.2636 384.784 19.4864 385.186L20.1915 386.441L20.875 387.624C27.9784 399.74 36.4155 409.069 46.17 415.611L46.7295 415.981L47.7608 416.651C57.8803 423.099 68.7398 426.494 80.3506 426.839H82.3389C93.2617 426.839 102.904 424.598 111.273 420.126L111.354 420.083L111.436 420.041C119.95 415.699 128.39 409.36 136.736 401.021L136.821 400.936L136.909 400.853C143.351 394.734 149.634 389.914 155.748 386.373L155.814 386.334L156.296 386.065L156.311 386.058L156.324 386.05C162.351 382.715 169.58 381.044 178.035 381.044C187.555 381.044 196.276 383.942 204.188 389.761L204.2 389.771L204.214 389.78C212.049 395.584 218.451 403.064 223.398 412.229L223.461 412.344C223.68 412.713 224.133 412.827 224.482 412.664L224.541 412.633L240.317 404.188L240.381 404.154C240.717 403.941 240.841 403.495 240.658 403.137L240.614 403.054C233.175 389.672 224.131 379.419 213.486 372.292L213.168 372.083C202.349 364.979 190.556 361.426 177.796 361.426Z" fill="white"/>
<path d="M322.788 514.033C335.045 514.033 346.275 511.51 356.223 506.194C365.805 501.307 375.038 494.312 383.935 485.422C389.96 479.699 395.651 475.37 400.983 472.282L401.397 472.051C405.727 469.655 411.29 468.239 418.484 468.239C425.91 468.239 432.659 470.451 438.978 475.099C445.64 480.034 451.155 486.44 455.485 494.487L455.612 494.718C458.31 499.437 464.279 501.331 469.245 498.832L469.484 498.705L485.274 490.253L485.513 490.125C490.336 487.388 492.15 481.299 489.572 476.357L489.444 476.118C481.327 461.498 471.195 449.902 458.891 441.76L458.859 441.744C446.507 433.634 432.898 429.52 418.246 429.52C406.109 429.52 394.903 431.971 384.835 437.104L384.771 437.136L384.707 437.168C375.181 442.206 365.981 449.257 357.091 458.131C351.066 463.846 345.375 468.183 340.043 471.271L339.995 471.303L339.947 471.335C335.801 473.794 330.174 475.322 322.542 475.322C315.172 475.322 308.343 473.062 301.817 468.231H301.801L301.785 468.215C295.514 463.607 290.221 457.542 285.947 449.83L285.534 449.082C282.899 444.195 276.819 442.198 271.773 444.737L271.534 444.864L255.744 453.316C250.666 456.03 248.772 462.389 251.582 467.459L252.346 468.82C260.185 482.557 269.807 493.492 281.347 501.22L281.912 501.594C294.4 509.847 308.081 514.065 322.773 514.065L322.788 514.033Z" fill="white"/>
<path d="M418.246 419.969C434.588 419.969 449.838 424.534 463.591 433.433L463.682 433.478L464.161 433.795C477.973 442.934 489.077 455.783 497.794 471.481L497.833 471.552L497.871 471.623L497.998 471.861L498.039 471.939C503.003 481.454 499.511 493.161 490.228 498.431L490.118 498.493L490.007 498.553L489.78 498.672L473.991 507.125L473.978 507.133L473.639 507.312L473.538 507.363C463.961 512.183 452.496 508.511 447.32 499.457L447.284 499.395L447.249 499.331L447.122 499.1L447.098 499.057L447.074 499.012C443.374 492.135 438.77 486.837 433.319 482.793L432.876 482.473C428.293 479.222 423.649 477.789 418.484 477.789C412.571 477.789 408.68 478.943 406.048 480.393L405.738 480.564C401.208 483.192 396.135 487.012 390.558 492.304C381.162 501.67 371.199 509.268 360.617 514.673C350.828 519.883 340.112 522.678 328.784 523.395L328.675 523.615H322.773C306.143 523.615 290.641 518.811 276.647 509.562L276.641 509.558L276.075 509.184L276.055 509.169L276.033 509.155C263.04 500.455 252.476 488.316 244.051 473.554L244.018 473.495L243.254 472.134L243.241 472.111L243.228 472.088C237.916 462.503 241.356 450.5 250.788 445.144L251.242 444.894L267.027 436.444L267.033 436.44L267.04 436.437L267.279 436.31L267.379 436.256L267.481 436.205C277.181 431.324 288.812 435.156 293.89 444.459L294.305 445.207C297.802 451.515 301.975 456.34 306.757 460.005L307.499 460.555C312.475 464.238 317.332 465.771 322.542 465.771C328.779 465.771 332.584 464.549 334.922 463.206L334.998 463.156L335.257 463.007C339.787 460.383 344.865 456.555 350.456 451.26C359.842 441.908 369.756 434.271 380.243 428.726L380.34 428.674L380.438 428.625L380.501 428.593L380.53 428.579C392.097 422.689 404.81 419.969 418.246 419.969ZM418.246 439.07C407.421 439.07 397.733 441.248 389.173 445.612L389.108 445.646L389.083 445.657C380.589 450.163 372.169 456.574 363.838 464.891L363.752 464.977L363.663 465.061C357.332 471.066 351.147 475.836 345.122 479.362L345.035 479.421L344.819 479.549C338.85 483.089 331.432 484.873 322.542 484.873C314.068 484.873 306.171 482.509 298.846 477.781H297.841L295.519 475.455C288.32 470.027 282.344 463.032 277.594 454.46L277.591 454.453L277.177 453.705L277.151 453.66L277.127 453.614C276.913 453.217 276.441 453.092 276.083 453.261L276.028 453.291L260.251 461.736L260.246 461.739C259.866 461.943 259.713 462.428 259.936 462.83L260.641 464.086L261.324 465.269C268.428 477.385 276.865 486.713 286.619 493.256L287.178 493.626C297.59 500.508 308.793 504.127 320.8 504.483H322.788C333.711 504.483 343.353 502.243 351.722 497.771L351.803 497.728L351.885 497.686C360.399 493.343 368.839 487.004 377.186 478.665L377.271 478.58L377.358 478.497C383.8 472.379 390.083 467.558 396.197 464.018L396.264 463.979L396.746 463.71L396.773 463.694C402.8 460.36 410.029 458.688 418.484 458.688C428.004 458.688 436.725 461.586 444.637 467.405L444.649 467.415L444.663 467.425C452.498 473.229 458.9 480.709 463.847 489.873L463.911 489.991C464.131 490.359 464.584 490.471 464.933 490.308L464.991 490.277L480.767 481.833L480.78 481.825L480.835 481.796C481.169 481.58 481.291 481.132 481.105 480.774L481.06 480.691C473.612 467.297 464.556 457.037 453.897 449.911L453.617 449.728C442.798 442.624 431.006 439.07 418.246 439.07Z" fill="white"/>
</g>
<defs>
<clipPath id="clip0_1776_21632">
<rect width="500" height="522.945" fill="white" transform="translate(0.29248 0.638672)"/>
</clipPath>
</defs>
</svg>
