<svg width="5257" height="214" viewBox="0 0 5257 214" fill="none" xmlns="http://www.w3.org/2000/svg">
<g clip-path="url(#clip0_1862_36387)">
<path d="M3377.64 57.2595C3382.18 60.9395 3386.33 64.4895 3390.32 67.8895C3385.93 64.5195 3381.58 61.0495 3377.18 57.4795C3363.79 46.6195 3349.57 37.2595 3334.79 28.2695C3327.92 24.0895 3320.57 19.9395 3312.51 16.1995C3311.41 15.6895 3310.29 15.1795 3309.16 14.6895C3310.2 15.0895 3311.24 15.4995 3312.27 15.9095C3320.5 19.2095 3328.24 23.0295 3335.55 27.4795L3336.96 28.3395C3351.52 37.2895 3364.91 46.9395 3377.64 57.2595Z" fill="white"/>
<path d="M3456.93 105.529C3458.55 105.949 3460.2 106.339 3461.89 106.699C3460.15 106.359 3458.44 105.949 3456.65 105.489L3455.23 105.109C3454.12 104.799 3453.02 104.479 3451.94 104.119C3453.58 104.629 3455.24 105.099 3456.93 105.529Z" fill="white"/>
<path d="M5119.65 122.559C5119.65 130.019 5113.6 136.069 5106.14 136.069H5097.29C5087.29 135.579 5077.63 134.549 5068.56 132.399C5067.95 132.249 5067.35 132.099 5066.75 131.949C5057.17 129.489 5048.57 125.859 5040.82 121.889V108.689L5095.43 108.759L5107.34 108.729C5114.19 109.449 5119.65 115.579 5119.65 122.559Z" fill="white"/>
<path d="M1760.76 57.2604C1763.04 59.1104 1765.22 60.9204 1767.33 62.7004C1765.17 60.9804 1763 59.2404 1760.83 57.4804C1747.44 46.6204 1733.22 37.2604 1718.44 28.2704C1711.69 24.1704 1704.48 20.0904 1696.59 16.4004C1704.37 19.5804 1711.72 23.2504 1718.67 27.4804L1720.08 28.3404C1734.64 37.2904 1748.03 46.9404 1760.76 57.2604Z" fill="white"/>
<path d="M3360.44 78.4705C3364.3 81.6005 3368.37 85.1205 3372.67 88.7805C3368.34 85.4305 3364.13 82.0605 3359.98 78.6905C3347.94 68.9305 3334.88 60.2905 3320.6 51.6105H3320.59C3313.62 47.3605 3306.56 43.4205 3299 40.0605C3300.05 40.4505 3301.08 40.8505 3302.1 41.2605C3309.07 44.0605 3315.45 47.2205 3321.36 50.8105C3335.31 59.3005 3348.15 68.5105 3360.44 78.4705Z" fill="white"/>
<path d="M3453.1 132.72C3452.01 132.48 3450.94 132.22 3449.87 131.95C3447.87 131.44 3445.91 130.87 3443.99 130.26C3446 130.87 3448.06 131.45 3450.15 131.99C3451.13 132.24 3452.11 132.48 3453.1 132.72Z" fill="white"/>
<path d="M1749.42 83.3499C1747.47 81.7999 1745.55 80.2399 1743.63 78.6899C1731.59 68.9299 1718.53 60.2899 1704.25 51.6099H1704.24C1698.19 47.9299 1692.07 44.4599 1685.61 41.4199C1692.43 44.1799 1698.68 47.2899 1704.48 50.8099C1718.43 59.2999 1731.27 68.5099 1743.56 78.4699C1745.46 80.0099 1747.41 81.6499 1749.42 83.3499Z" fill="white"/>
<path d="M5106.27 108.65C5106.63 108.66 5106.98 108.68 5107.33 108.73L5095.42 108.76L5040.81 108.69V121.89C5032.42 117.59 5025.02 112.89 5018.4 108.86H5018.39C5003.05 99.52 4989.66 89.08 4976.85 78.69C4964.81 68.93 4951.76 60.29 4937.48 51.61H4937.46C4924.78 43.89 4911.78 37.15 4896.04 33.12C4889.38 31.41 4882.29 29.96 4874.69 28.93C4867.08 27.91 4858.95 27.31 4850.21 27.31C4832.97 27.31 4818.14 30.11 4804.52 33.6C4796.56 35.64 4789.27 38.26 4782.44 41.31C4775.6 44.36 4769.22 47.85 4763 51.63C4756.14 55.8 4749.65 60.26 4743.29 64.96C4736.94 69.65 4730.73 74.58 4724.42 79.7C4711.6 90.09 4698.08 100.64 4682.73 109.97C4675.68 114.25 4668.18 118.31 4660.02 121.92C4651.88 125.52 4643.08 128.67 4633.48 131.13C4625.51 133.17 4617.11 134.46 4608.33 135.25C4599.54 136.04 4590.35 136.31 4580.77 136.31C4560.8 136.31 4543.72 133.79 4528.4 129.86C4509.47 125.01 4493.59 118.03 4479.25 109.3C4464.15 100.12 4450.38 90.27 4437.23 79.6C4423.91 68.8 4412.69 58.83 4399.19 50.62C4392.83 46.74 4386.32 43.08 4379.44 39.89C4372.57 36.69 4365.31 33.96 4357.46 31.95H4357.46C4344.76 28.69 4329.6 27.36 4311.35 27.36C4293.1 27.36 4278.99 29.88 4265.58 33.32C4248.75 37.64 4234.81 42.88 4223.14 49.98C4216.37 54.1 4210.6 58.67 4204.73 63.67C4198.86 68.68 4192.89 74.1 4185.73 79.91C4172.21 90.87 4157.58 99.9 4143.1 108.7C4136.31 112.84 4129.05 117.04 4121.04 120.85C4113.03 124.65 4104.27 128.04 4094.49 130.55C4086.53 132.59 4078.19 133.9 4069.44 134.7C4060.69 135.5 4051.53 135.79 4041.93 135.79C4023.14 135.79 4005.35 135.22 3989.25 131.09C3969.98 126.15 3954.09 118.3 3940.1 109.79H3940.09C3924.95 100.56 3911.22 90.55 3898.12 79.93C3884.53 68.92 3873.77 58.9 3860.3 50.7C3848.59 43.59 3834.87 38.38 3818.08 34.08C3804.36 30.58 3789.69 27.7 3772.51 27.7C3755.33 27.7 3740.29 30.27 3726.84 33.72C3709.56 38.15 3695.59 42.81 3684.16 49.76C3677.4 53.88 3671.63 58.46 3665.76 63.47C3659.89 68.48 3653.92 73.92 3646.75 79.73C3633.8 90.23 3620.2 100.51 3604.93 109.79C3597.78 114.14 3590.2 118.12 3582.03 121.61C3573.87 125.1 3565.13 128.11 3555.64 130.54C3540.86 134.33 3523.51 137.93 3503.08 137.93C3484.84 137.93 3468.34 136.26 3453.58 132.82C3453.42 132.79 3453.26 132.76 3453.11 132.72C3452.12 132.48 3451.15 132.24 3450.17 131.99C3448.08 131.45 3446.02 130.87 3444.01 130.26C3427.26 125.16 3413.25 117.55 3401.05 110.12C3390.68 103.82 3381.24 96.03 3372.69 88.78C3368.39 85.12 3364.32 81.6 3360.46 78.47C3348.17 68.51 3335.32 59.3 3321.38 50.81C3315.47 47.22 3309.08 44.06 3302.11 41.26C3301.09 40.85 3300.07 40.45 3299.02 40.06C3292.82 37.3 3286.28 34.93 3279.19 33.12C3272.53 31.41 3265.43 29.96 3257.83 28.93C3250.3 27.92 3242.28 27.32 3233.65 27.31H3233.35C3216.11 27.31 3201.28 30.11 3187.66 33.6C3179.7 35.64 3172.41 38.26 3165.58 41.31C3158.74 44.36 3152.36 47.85 3146.14 51.63C3139.28 55.8 3132.8 60.26 3126.44 64.96C3120.09 69.65 3113.87 74.58 3107.56 79.7C3094.74 90.09 3081.21 100.64 3065.86 109.97C3058.81 114.25 3051.32 118.31 3043.16 121.92C3035.02 125.52 3026.21 128.67 3016.61 131.13C3008.64 133.17 3000.26 134.46 2991.48 135.25C2982.69 136.04 2973.5 136.31 2963.92 136.31C2943.95 136.31 2926.86 133.79 2911.54 129.86C2892.61 125.01 2876.74 118.03 2862.4 109.3C2847.3 100.12 2833.52 90.27 2820.38 79.6C2807.06 68.8 2795.82 58.83 2782.32 50.62C2775.96 46.74 2769.46 43.08 2762.58 39.89C2755.71 36.69 2748.45 33.96 2740.6 31.95C2727.9 28.69 2712.75 27.36 2694.5 27.36C2676.25 27.36 2662.15 29.88 2648.74 33.32H2648.73C2631.9 37.64 2617.94 42.88 2606.27 49.98C2599.5 54.1 2593.74 58.67 2587.88 63.67C2582.01 68.68 2576.03 74.1 2568.88 79.91C2555.35 90.87 2540.72 99.9 2526.24 108.7C2519.45 112.84 2512.19 117.04 2504.18 120.85C2496.17 124.65 2487.4 128.04 2477.62 130.55C2469.66 132.59 2461.32 133.9 2452.57 134.7C2443.82 135.5 2434.66 135.79 2425.06 135.79C2406.27 135.79 2388.49 135.22 2372.39 131.09C2353.12 126.15 2337.24 118.3 2323.25 109.79H2323.24C2308.1 100.56 2294.36 90.55 2281.27 79.93C2267.68 68.92 2256.92 58.9 2243.45 50.7C2231.74 43.59 2218.02 38.38 2201.23 34.08C2187.51 30.58 2172.83 27.7 2155.65 27.7C2138.47 27.7 2123.44 30.27 2109.99 33.72H2109.98C2092.7 38.15 2078.71 42.81 2067.28 49.76C2060.52 53.88 2054.76 58.46 2048.89 63.47C2043.02 68.48 2037.05 73.92 2029.88 79.73C2016.93 90.23 2003.33 100.51 1988.06 109.79C1980.91 114.14 1973.34 118.12 1965.17 121.61C1957.01 125.1 1948.26 128.11 1938.77 130.54C1923.99 134.33 1906.64 137.93 1886.21 137.93C1865.78 137.93 1848.92 135.99 1833.3 131.99C1813.79 126.99 1797.86 118.44 1784.19 110.12C1771.18 102.21 1759.61 91.95 1749.45 83.35C1747.44 81.65 1745.48 80.01 1743.58 78.47C1731.29 68.51 1718.46 59.3 1704.51 50.81C1698.71 47.29 1692.46 44.18 1685.64 41.42C1678.56 38.08 1671.07 35.23 1662.84 33.12C1656.18 31.41 1649.09 29.96 1641.49 28.93C1633.88 27.91 1625.76 27.31 1617.02 27.31H1616.78C1599.64 27.34 1584.88 30.13 1571.32 33.6C1563.36 35.64 1556.07 38.26 1549.24 41.31C1542.4 44.36 1536.02 47.85 1529.8 51.63C1522.94 55.8 1516.45 60.26 1510.09 64.96C1503.74 69.65 1497.53 74.58 1491.22 79.7C1478.4 90.09 1464.88 100.64 1449.53 109.97C1442.48 114.25 1434.98 118.31 1426.82 121.92C1418.68 125.52 1409.88 128.67 1400.28 131.13C1392.31 133.17 1383.92 134.46 1375.14 135.25C1366.35 136.04 1357.16 136.31 1347.58 136.31C1327.61 136.31 1310.53 133.79 1295.21 129.86C1276.28 125.01 1260.4 118.03 1246.06 109.3C1230.96 100.12 1217.19 90.27 1204.04 79.6C1190.72 68.8 1179.48 58.83 1165.98 50.62C1159.62 46.74 1153.12 43.08 1146.24 39.89C1139.37 36.69 1132.12 33.96 1124.27 31.95C1111.57 28.69 1096.41 27.36 1078.16 27.36C1059.91 27.36 1045.81 29.88 1032.4 33.32C1015.57 37.64 1001.62 42.88 989.945 49.98C983.175 54.1 977.415 58.67 971.545 63.67C965.675 68.68 959.705 74.1 952.545 79.91C939.025 90.87 924.385 99.9 909.905 108.7C903.115 112.84 895.855 117.04 887.845 120.85C879.835 124.65 871.075 128.04 861.295 130.55C853.335 132.59 844.995 133.9 836.245 134.7C827.495 135.5 818.335 135.79 808.735 135.79C789.945 135.79 772.155 135.22 756.055 131.09C736.785 126.15 720.905 118.3 706.915 109.79H706.905C691.765 100.56 678.025 90.55 664.935 79.93C651.345 68.92 640.585 58.9 627.115 50.7C615.405 43.59 601.685 38.38 584.895 34.08C571.175 30.58 556.495 27.7 539.315 27.7C522.135 27.7 507.105 30.27 493.655 33.72C476.375 38.15 462.395 42.81 450.965 49.76C444.205 53.88 438.435 58.46 432.565 63.47C426.695 68.48 420.725 73.92 413.555 79.73C400.605 90.23 387.005 100.51 371.735 109.79C364.585 114.14 357.015 118.12 348.845 121.61C340.685 125.1 331.935 128.11 322.445 130.54C307.665 134.33 290.325 137.93 269.895 137.93C249.465 137.93 232.595 135.99 216.975 131.99C197.465 126.99 181.535 118.44 167.865 110.12C152.285 100.65 138.775 87.81 127.265 78.47C114.975 68.51 102.135 59.3 88.1851 50.81C82.2751 47.22 75.8951 44.06 68.9251 41.26C61.9451 38.46 54.3751 36.02 46.0751 33.9C39.3951 32.18 32.3451 30.72 24.7951 29.68C17.2451 28.65 9.17508 28.04 0.455078 28.04V0.73C20.5651 0.73 37.6751 3.55 52.8551 7.44C62.1451 9.82 70.8651 12.6 79.0951 15.91C87.3251 19.21 95.0651 23.03 102.375 27.48L103.785 28.34C118.345 37.29 131.735 46.94 144.465 57.26C158.375 68.54 168.565 78.58 182.055 86.79C188.435 90.67 194.935 94.35 201.805 97.56C208.675 100.78 215.905 103.52 223.755 105.53C230.225 107.19 237.275 108.46 244.955 109.32C252.635 110.18 260.935 110.62 269.895 110.62C287.045 110.62 301.875 107.62 315.665 104.08C331.855 99.94 345.385 93.87 357.535 86.46C371.325 78.07 383.855 68.64 396.335 58.51C407.425 49.52 421.235 35.87 436.765 26.43C451.775 17.3 468.975 11.85 486.875 7.26C501.955 3.4 519.125 0.39 539.315 0.39C558.405 0.39 574.655 3.41 588.845 6.91L591.675 7.62C610.055 12.33 626.535 18.4 641.295 27.37C656.875 36.84 670.285 49.12 682.125 58.72C694.465 68.73 707.205 77.99 721.105 86.46C733.165 93.8 746.085 100.15 761.335 104.24L762.825 104.63C769.045 106.22 775.835 107.19 783.405 107.75C790.985 108.32 799.345 108.48 808.725 108.48C827.085 108.48 841.865 107.34 854.495 104.1H854.505C870.105 100.1 882.835 93.21 895.695 85.37C910.285 76.5 923.425 68.34 935.325 58.69C946.435 49.68 960.205 36.09 975.735 26.65C990.505 17.66 1007.25 11.57 1025.6 6.87C1040.72 2.99 1057.99 0.05 1078.15 0.05C1098.31 0.05 1115.21 1.43 1131.05 5.49C1140.78 7.98 1149.63 11.34 1157.76 15.12C1165.89 18.9 1173.31 23.1 1180.18 27.29H1180.19C1195.75 36.75 1209.12 48.57 1221.23 58.39C1232.74 67.72 1244.69 76.33 1257.64 84.37L1260.24 85.97C1266.29 89.65 1272.67 92.97 1279.56 95.88C1286.46 98.8 1293.85 101.32 1301.98 103.4C1308.59 105.1 1315.6 106.5 1323.15 107.47C1330.7 108.45 1338.79 109 1347.58 109C1365.98 109 1380.87 107.91 1393.49 104.67C1409.48 100.58 1422.95 94.16 1435.33 86.63C1449.04 78.3 1461.4 68.71 1474.01 58.49C1486.83 48.09 1500.24 37.63 1515.59 28.3C1529.6 19.77 1545.29 12.07 1564.53 7.14C1579.45 3.31 1596.7 0 1617.01 0C1637.32 0 1654.39 2.76 1669.61 6.66C1679.34 9.16 1688.12 12.47 1696.18 16.2C1696.32 16.27 1696.46 16.33 1696.6 16.4C1704.49 20.09 1711.71 24.17 1718.46 28.27C1733.24 37.26 1747.45 46.62 1760.84 57.48C1763.01 59.24 1765.18 60.98 1767.34 62.7C1778.11 71.78 1787.08 79.92 1798.36 86.79C1804.74 90.67 1811.24 94.35 1818.11 97.56C1824.98 100.78 1832.22 103.52 1840.07 105.53C1846.54 107.19 1853.59 108.46 1861.27 109.32C1867 109.96 1873.08 110.37 1879.52 110.54C1881.71 110.59 1883.94 110.62 1886.21 110.62C1903.36 110.62 1918.18 107.62 1931.97 104.08C1948.16 99.94 1961.69 93.87 1973.84 86.46C1987.63 78.07 2000.17 68.64 2012.65 58.51C2023.74 49.52 2037.54 35.87 2053.07 26.43C2068.08 17.3 2085.29 11.85 2103.19 7.26C2118.27 3.4 2135.43 0.39 2155.62 0.39C2174.72 0.39 2190.97 3.41 2205.16 6.91L2207.99 7.62C2226.37 12.33 2242.84 18.4 2257.6 27.37C2273.18 36.84 2286.6 49.12 2298.44 58.72C2310.78 68.73 2323.52 77.99 2337.42 86.46C2349.48 93.8 2362.4 100.15 2377.65 104.24L2379.14 104.63C2385.36 106.22 2392.15 107.19 2399.72 107.75C2407.3 108.32 2415.65 108.48 2425.03 108.48C2443.39 108.48 2458.17 107.34 2470.8 104.1C2486.4 100.1 2499.14 93.21 2512 85.37H2512.01C2526.6 76.5 2539.74 68.34 2551.64 58.69C2562.75 49.68 2576.51 36.09 2592.04 26.65C2606.81 17.66 2623.57 11.57 2641.92 6.87C2657.04 2.99 2674.3 0.05 2694.46 0.05C2714.62 0.05 2731.51 1.43 2747.35 5.49C2757.08 7.98 2765.93 11.34 2774.06 15.12C2782.19 18.9 2789.62 23.1 2796.49 27.29H2796.5C2812.06 36.75 2825.43 48.57 2837.54 58.39C2849.05 67.72 2861 76.33 2873.95 84.37L2876.55 85.97C2882.6 89.65 2888.97 92.97 2895.86 95.88C2902.76 98.8 2910.16 101.32 2918.29 103.4C2924.9 105.1 2931.91 106.5 2939.46 107.47C2947.01 108.45 2955.1 109 2963.89 109C2982.29 109 2997.18 107.91 3009.8 104.67H3009.81C3025.8 100.58 3039.27 94.16 3051.65 86.63C3065.36 78.3 3077.71 68.71 3090.32 58.49C3103.14 48.09 3116.57 37.63 3131.92 28.3C3145.93 19.77 3161.6 12.07 3180.84 7.14C3195.76 3.31 3213.01 0 3233.32 0C3253.63 0 3270.72 2.76 3285.94 6.66C3294.3 8.81 3301.95 11.56 3309.05 14.66C3309.08 14.66 3309.12 14.68 3309.15 14.69C3310.28 15.18 3311.4 15.69 3312.5 16.2C3320.56 19.94 3327.9 24.09 3334.77 28.27C3349.55 37.26 3363.78 46.62 3377.17 57.48C3381.57 61.05 3385.91 64.52 3390.3 67.89C3398.48 74.18 3406.78 80.09 3415.7 85.53L3420.77 88.62C3431.06 94.89 3440.69 100.54 3451.93 104.12C3453.01 104.48 3454.11 104.8 3455.22 105.11L3456.64 105.49C3458.43 105.95 3460.13 106.36 3461.88 106.7C3462.09 106.75 3462.3 106.79 3462.52 106.83C3467.4 107.87 3472.59 108.7 3478.11 109.32C3483.68 109.94 3489.57 110.35 3495.8 110.52C3498.17 110.59 3500.58 110.62 3503.05 110.62C3520.2 110.62 3535.03 107.62 3548.82 104.08C3565.01 99.94 3578.55 93.87 3590.7 86.46H3590.71C3604.5 78.07 3617.03 68.64 3629.51 58.51C3640.6 49.52 3654.41 35.87 3669.94 26.43C3684.95 17.3 3702.14 11.85 3720.04 7.26C3735.12 3.4 3752.3 0.39 3772.49 0.39C3791.58 0.39 3807.83 3.41 3822.02 6.91L3824.84 7.62C3843.22 12.33 3859.71 18.4 3874.47 27.37H3874.48C3890.06 36.84 3903.46 49.12 3915.3 58.72C3927.64 68.73 3940.38 77.99 3954.28 86.46C3966.34 93.8 3979.27 100.15 3994.52 104.24L3996.01 104.63C4002.23 106.22 4009.01 107.19 4016.58 107.75C4024.16 108.32 4032.53 108.48 4041.91 108.48C4060.27 108.48 4075.05 107.34 4087.68 104.1H4087.69C4103.29 100.1 4116.02 93.21 4128.88 85.37H4128.89C4143.48 76.5 4156.62 68.34 4168.52 58.69C4179.63 49.68 4193.39 36.09 4208.92 26.65C4223.69 17.66 4240.44 11.57 4258.79 6.87C4273.91 2.99 4291.17 0.05 4311.33 0.05C4331.49 0.05 4348.39 1.43 4364.23 5.49C4373.96 7.98 4382.81 11.34 4390.94 15.12C4399.07 18.9 4406.5 23.1 4413.37 27.29H4413.38C4428.94 36.75 4442.31 48.57 4454.42 58.39C4465.93 67.72 4477.88 76.33 4490.83 84.37L4493.44 85.97C4499.49 89.65 4505.86 92.97 4512.75 95.88C4519.65 98.8 4527.04 101.32 4535.17 103.4C4541.78 105.1 4548.78 106.5 4556.33 107.47C4563.88 108.45 4571.98 109 4580.77 109C4599.17 109 4614.07 107.91 4626.69 104.67H4626.69C4642.68 100.58 4656.14 94.16 4668.52 86.63C4682.23 78.3 4694.6 68.71 4707.21 58.49C4720.03 48.09 4733.44 37.63 4748.79 28.3C4762.8 19.77 4778.49 12.07 4797.73 7.14C4812.65 3.31 4829.9 0 4850.21 0C4870.52 0 4887.59 2.76 4902.81 6.66C4912.54 9.16 4921.31 12.47 4929.38 16.2C4937.44 19.94 4944.78 24.09 4951.65 28.27C4966.43 37.26 4980.65 46.62 4994.04 57.48C5006.65 67.7 5018.87 77.18 5032.58 85.53L5037.65 88.62C5048.93 95.49 5059.42 101.62 5072.1 105.11L5073.52 105.49C5079.71 107.08 5084.9 107.98 5094.14 108.53C5094.56 108.55 5094.97 108.6 5095.4 108.61C5099.82 108.75 5102.39 108.56 5106.25 108.65H5106.27Z" fill="white"/>
<path d="M5256.69 122.5L5165.11 213.84L5145.49 194.22L5203.63 136.07H5106.14C5113.6 136.07 5119.65 130.02 5119.65 122.56C5119.65 115.58 5114.19 109.45 5107.34 108.73L5203.63 108.45L5145.49 50.2999L5165.11 30.9199L5256.69 122.5Z" fill="white"/>
<path d="M5119.65 122.559C5119.65 130.019 5113.6 136.069 5106.14 136.069H5097.29C5087.36 135.679 5077.64 134.559 5068.56 132.399C5067.95 132.249 5067.35 132.099 5066.75 131.949C5057.17 129.489 5048.57 125.859 5040.82 121.889V108.689L5095.43 108.759L5107.34 108.729C5114.19 109.449 5119.65 115.579 5119.65 122.559Z" fill="white"/>
</g>
<defs>
<clipPath id="clip0_1862_36387">
<rect width="5256.29" height="213.84" fill="white" transform="translate(0.395508)"/>
</clipPath>
</defs>
</svg>
