<svg width="473" height="501" viewBox="0 0 473 501" fill="none" xmlns="http://www.w3.org/2000/svg">
<path d="M29.6816 7.04883C41.8955 7.0491 50.1093 17.3909 50.1094 28.3926C50.1094 33.8778 48.139 39.3841 44.791 43.6094C41.4163 47.8683 36.1923 51.3182 29.6816 51.3184C23.2209 51.3184 17.9248 47.9192 14.4551 43.7236C10.9985 39.5439 8.83691 34.0078 8.83691 28.3926C8.837 17.0988 17.7397 7.04883 29.6816 7.04883ZM112.624 7.04883C124.838 7.04904 133.052 17.3908 133.052 28.3926C133.052 33.8776 131.082 39.3842 127.734 43.6094C124.36 47.8683 119.135 51.3182 112.624 51.3184C106.163 51.3184 100.867 47.9192 97.3975 43.7236C93.9409 39.5439 91.7793 34.0078 91.7793 28.3926C91.7794 17.0988 100.682 7.04883 112.624 7.04883ZM195.566 7.04883C207.78 7.049 215.994 17.3908 215.994 28.3926C215.994 33.8776 214.025 39.3842 210.677 43.6094C207.302 47.8683 202.077 51.3183 195.566 51.3184C189.106 51.3184 183.81 47.9192 180.34 43.7236C176.883 39.5439 174.722 34.0078 174.722 28.3926C174.722 17.0988 183.624 7.04883 195.566 7.04883ZM278.509 7.04883C290.723 7.04895 298.936 17.3908 298.937 28.3926C298.937 33.8776 296.967 39.3842 293.619 43.6094C290.244 47.8683 285.02 51.3183 278.509 51.3184C272.048 51.3184 266.752 47.9192 263.282 43.7236C259.826 39.5439 257.664 34.0078 257.664 28.3926C257.664 17.0988 266.567 7.04883 278.509 7.04883ZM361.451 7.04883C373.665 7.04888 381.879 17.3908 381.879 28.3926C381.879 33.8777 379.909 39.3842 376.562 43.6094C373.187 47.8683 367.962 51.3183 361.451 51.3184C354.99 51.3184 349.694 47.9192 346.225 43.7236C342.768 39.5439 340.606 34.0078 340.606 28.3926C340.607 17.0988 349.509 7.04883 361.451 7.04883ZM444.394 7.04883C456.608 7.04886 464.821 17.3907 464.821 28.3926C464.821 33.8777 462.852 39.3842 459.504 43.6094C456.129 47.8683 450.904 51.3183 444.394 51.3184C437.933 51.3184 432.637 47.9192 429.167 43.7236C425.711 39.5439 423.549 34.0078 423.549 28.3926C423.549 17.0988 432.452 7.04883 444.394 7.04883Z" fill="white" stroke="white" stroke-width="14.0409"/>
<path d="M444.206 95.5117C456.365 95.5117 464.634 105.839 464.634 116.855C464.634 122.341 462.664 127.848 459.316 132.073C455.942 136.332 450.717 139.782 444.206 139.782C437.965 139.782 432.309 136.593 428.397 132.668C424.485 128.742 421.322 123.081 421.322 116.855C421.322 110.453 424.663 105.073 428.777 101.493C432.889 97.9158 438.45 95.5118 444.206 95.5117ZM29.4941 94.8457C41.2866 94.8458 51.1287 105.45 51.1289 116.855C51.1289 122.716 48.5879 128.298 44.9346 132.376C41.2835 136.452 35.8521 139.74 29.4941 139.74C22.9896 139.74 17.7593 136.297 14.376 132.053C11.0181 127.841 9.02441 122.341 9.02441 116.855C9.02459 106.238 16.9809 94.8457 29.4941 94.8457ZM112.437 94.8457C124.229 94.8458 134.071 105.45 134.071 116.855C134.071 122.716 131.53 128.298 127.877 132.376C124.226 136.452 118.795 139.74 112.437 139.74C105.932 139.74 100.702 136.297 97.3184 132.053C93.9605 127.841 91.9668 122.341 91.9668 116.855C91.967 106.238 99.9233 94.8457 112.437 94.8457ZM195.379 94.8457C207.171 94.8457 217.014 105.449 217.015 116.855C217.015 122.716 214.473 128.298 210.819 132.376C207.168 136.452 201.737 139.74 195.379 139.74C188.874 139.74 183.644 136.297 180.261 132.053C176.903 127.841 174.909 122.341 174.909 116.855C174.909 106.238 182.866 94.8457 195.379 94.8457ZM278.321 94.8457C290.114 94.8457 299.957 105.45 299.957 116.855C299.957 122.716 297.415 128.298 293.762 132.376C290.111 136.452 284.679 139.74 278.321 139.74C271.817 139.74 266.586 136.297 263.203 132.053C259.845 127.841 257.852 122.341 257.852 116.855C257.852 106.238 265.808 94.8458 278.321 94.8457ZM361.264 94.8457C373.056 94.8457 382.899 105.45 382.899 116.855C382.899 122.716 380.358 128.298 376.704 132.376C373.053 136.452 367.622 139.74 361.264 139.74C354.759 139.74 349.529 136.297 346.146 132.053C342.788 127.841 340.794 122.341 340.794 116.855C340.794 106.238 348.75 94.8458 361.264 94.8457Z" fill="white" stroke="white" stroke-width="14.0409"/>
<path d="M28.8906 183.309C40.6831 183.309 50.5252 193.912 50.5254 205.318C50.5254 211.179 47.9844 216.761 44.3311 220.839C40.68 224.914 35.2486 228.203 28.8906 228.203C22.3861 228.203 17.1558 224.759 13.7725 220.516C10.4146 216.304 8.4209 210.804 8.4209 205.318C8.42108 194.701 16.3774 183.309 28.8906 183.309ZM360.66 183.309C372.453 183.309 382.296 193.912 382.296 205.318C382.296 211.179 379.754 216.761 376.101 220.839C372.449 224.915 367.018 228.203 360.66 228.203C354.156 228.203 348.925 224.759 345.542 220.516C342.184 216.304 340.19 210.803 340.19 205.318C340.191 194.701 348.147 183.309 360.66 183.309ZM443.603 183.309C455.395 183.309 465.238 193.912 465.238 205.318C465.238 211.179 462.697 216.761 459.044 220.839C455.393 224.915 449.961 228.203 443.603 228.203C437.098 228.203 431.868 224.759 428.484 220.516C425.127 216.304 423.134 210.803 423.134 205.318C423.134 194.701 431.089 183.309 443.603 183.309ZM111.833 184.85C122.396 184.85 133.843 192.794 133.843 205.318C133.843 217.111 123.239 226.954 111.833 226.954C99.4745 226.954 91.3633 216.16 91.3633 205.318C91.3635 193.682 100.267 184.85 111.833 184.85Z" fill="white" stroke="white" stroke-width="14.0409"/>
<path d="M29.4941 271.729C35.5741 271.73 40.9689 274.577 44.7383 278.478C48.5046 282.375 51.1288 287.812 51.1289 293.739C51.1289 299.584 48.5838 305.164 44.9385 309.24C41.295 313.314 35.8639 316.624 29.4941 316.624C22.9896 316.624 17.7593 313.18 14.376 308.937C11.0181 304.725 9.02441 299.224 9.02441 293.739C9.02459 283.176 16.9696 271.729 29.4941 271.729ZM112.437 271.729C118.516 271.73 123.911 274.577 127.681 278.478C131.447 282.375 134.071 287.812 134.071 293.739C134.071 299.584 131.526 305.164 127.881 309.24C124.237 313.314 118.806 316.624 112.437 316.624C105.932 316.624 100.702 313.18 97.3184 308.937C93.9605 304.725 91.9668 299.224 91.9668 293.739C91.967 283.176 99.9119 271.729 112.437 271.729ZM444.206 272.896C456.108 272.896 464.634 282.403 464.634 293.739C464.634 305.332 455.857 314.209 444.206 314.209C433.349 314.209 422.571 306.043 422.571 293.739C422.571 281.676 433.085 272.896 444.206 272.896ZM361.264 272.104C373.394 272.104 382.108 282.688 382.108 293.739C382.108 305.585 372.614 314.167 361.264 314.167C350.692 314.167 339.254 306.334 339.254 293.739C339.254 281.947 349.858 272.105 361.264 272.104Z" fill="white" stroke="white" stroke-width="14.0409"/>
<path d="M361.765 361.9C372.622 361.9 383.399 370.066 383.399 382.37C383.399 388.267 380.81 393.737 377.074 397.683C373.333 401.635 367.926 404.587 361.765 404.587C349.496 404.587 340.629 393.311 340.629 382.37C340.629 370.31 350.595 361.9 361.765 361.9ZM112.937 361.608C124.755 361.608 133.406 370.948 133.406 382.37C133.406 392.987 125.45 404.379 112.937 404.379C100.839 404.379 91.802 393.453 91.8018 382.37C91.8018 370.504 101.564 361.608 112.937 361.608ZM29.9941 360.151C36.0965 360.151 41.5561 363.058 45.3721 366.953C49.1892 370.849 51.9629 376.341 51.9629 382.37C51.9626 394.51 41.0346 403.504 29.9941 403.504C19.0562 403.504 7.85964 394.604 7.85938 382.37C7.85938 376.289 10.7184 370.789 14.5703 366.916C18.4204 363.044 23.9074 360.151 29.9941 360.151ZM195.88 360.401C208.02 360.401 217.015 371.329 217.015 382.37C217.014 394.18 207.267 403.13 195.88 403.13C185.197 403.13 173.661 394.868 173.661 382.37C173.661 376.252 176.564 370.79 180.468 366.972C184.371 363.155 189.863 360.401 195.88 360.401ZM278.822 360.401C290.963 360.401 299.958 371.329 299.958 382.37C299.958 394.18 290.209 403.13 278.822 403.13C268.14 403.13 256.604 394.868 256.604 382.37C256.604 376.252 259.506 370.79 263.41 366.972C267.314 363.155 272.805 360.401 278.822 360.401ZM444.665 360.401C456.805 360.401 465.801 371.329 465.801 382.37C465.801 394.18 456.052 403.13 444.665 403.13C433.983 403.13 422.448 394.868 422.447 382.37C422.447 376.252 425.35 370.79 429.254 366.972C433.157 363.155 438.648 360.401 444.665 360.401Z" fill="white" stroke="white" stroke-width="14.0409"/>
<path d="M361.764 448.114C367.844 448.114 373.239 450.961 377.009 454.862C380.775 458.759 383.399 464.196 383.399 470.124C383.399 475.969 380.854 481.548 377.209 485.625C373.565 489.699 368.134 493.008 361.764 493.008C355.259 493.008 350.029 489.565 346.646 485.321C343.288 481.109 341.295 475.609 341.295 470.124C341.295 459.561 349.239 448.114 361.764 448.114ZM278.863 448.156C291.237 448.156 299.624 459.34 299.624 470.124C299.624 480.881 291.26 492.134 278.863 492.134C272.833 492.134 267.34 489.359 263.442 485.533C259.544 481.706 256.645 476.237 256.645 470.124C256.645 464.021 259.553 458.562 263.447 454.747C267.343 450.93 272.834 448.156 278.863 448.156ZM30.0361 448.156C42.1762 448.156 51.1707 459.083 51.1709 470.124C51.1709 481.934 41.4231 490.885 30.0361 490.885C19.3535 490.885 7.81738 482.622 7.81738 470.124C7.8175 464.021 10.7246 458.562 14.6191 454.747C18.5151 450.929 24.007 448.156 30.0361 448.156ZM112.979 448.156C125.119 448.156 134.114 459.083 134.114 470.124C134.114 481.934 124.366 490.885 112.979 490.885C102.296 490.885 90.7598 482.622 90.7598 470.124C90.7599 464.021 93.667 458.562 97.5615 454.747C101.458 450.929 106.949 448.156 112.979 448.156ZM195.921 448.156C208.061 448.156 217.056 459.083 217.057 470.124C217.057 481.934 207.308 490.885 195.921 490.885C185.238 490.885 173.702 482.622 173.702 470.124C173.702 464.021 176.609 458.562 180.504 454.747C184.4 450.929 189.892 448.156 195.921 448.156ZM444.706 448.156C456.846 448.156 465.842 459.083 465.842 470.124C465.842 481.934 456.093 490.885 444.706 490.885C434.024 490.885 422.488 482.622 422.488 470.124C422.488 464.021 425.395 458.562 429.29 454.747C433.186 450.929 438.677 448.156 444.706 448.156Z" fill="white" stroke="white" stroke-width="14.0409"/>
</svg>
