<svg width="310" height="501" viewBox="0 0 310 501" fill="none" xmlns="http://www.w3.org/2000/svg">
<g clip-path="url(#clip0_1476_29242)">
<path d="M308.502 141.527C213.126 131.29 130.21 121.594 130.21 171.256C130.21 223.421 300.97 159.376 300.97 340.954C300.97 522.532 187.744 506.726 1.51854 481.464" stroke="white" stroke-width="8.01314" stroke-miterlimit="10"/>
<path d="M1.43828 464.576C174.442 487.694 285.264 502.177 285.264 339.31C285.264 176.443 113.662 240.268 113.662 169.612C113.662 98.9561 200.785 110.415 308.662 122.655" stroke="white" stroke-width="8.01314" stroke-miterlimit="10"/>
<path d="M1.3185 448.009C161.141 468.983 267.295 481.864 267.295 337.688C267.295 193.511 95.493 257.136 95.493 167.99C95.493 78.8433 187.985 91.2036 308.643 105.527" stroke="white" stroke-width="8.01314" stroke-miterlimit="10"/>
<path d="M1.53841 428.919C148.239 447.79 248.984 461.552 248.984 336.067C248.984 210.581 77.3828 274.005 77.3828 166.368C77.3828 58.7318 175.063 71.5729 308.662 88.0199" stroke="white" stroke-width="8.01314" stroke-miterlimit="10"/>
<path d="M1.53935 411.631C135.199 428.438 232.718 441.219 232.718 334.444C232.719 227.669 59.7548 290.852 59.7548 164.746C59.7549 38.6387 162.043 51.7402 308.703 70.3508" stroke="white" stroke-width="8.01314" stroke-miterlimit="10"/>
<path d="M1.4974 394.541C122.235 409.285 213.926 420.904 213.926 332.82C213.926 244.735 43.8469 307.719 43.8469 163.122C43.8469 18.5245 148.839 32.7879 308.621 53.582" stroke="white" stroke-width="8.01314" stroke-miterlimit="10"/>
<path d="M1.55806 376.613C109.555 389.354 196.418 400.592 196.418 331.199C196.418 257.578 24.8763 324.588 24.8763 161.5C24.8763 -1.58723 135.518 13.9983 308.521 37.0161" stroke="white" stroke-width="8.01314" stroke-miterlimit="10"/>
<path d="M1.45845 360.146C96.955 370.944 180.632 380.259 180.632 329.556C180.632 273.925 8.34975 341.435 8.34976 159.858C8.34977 -21.7202 122.216 -5.27323 308.462 19.9682" stroke="white" stroke-width="8.01314" stroke-miterlimit="10"/>
</g>
<defs>
<clipPath id="clip0_1476_29242">
<rect width="500" height="308.406" fill="white" transform="translate(309.203 0.635742) rotate(90)"/>
</clipPath>
</defs>
</svg>
