<svg width="501" height="501" viewBox="0 0 501 501" fill="none" xmlns="http://www.w3.org/2000/svg">
<path d="M144.748 158.523C169.713 158.523 191.924 163.619 211.265 173.934C230.718 183.764 249.872 198.074 268.742 216.77C282.906 230.101 296.633 240.548 309.918 248.171C322.798 255.561 338.56 259.359 357.383 259.359C377.651 259.359 396.178 253.253 413.072 240.954C418.928 236.66 424.408 231.937 429.516 226.785C437.713 218.516 449.035 213.819 460.099 213.508C471.209 213.195 482.35 217.324 489.606 227.066C497.266 237.35 498.498 251.477 491.294 262.523C476.093 285.832 458.242 304.272 437.709 317.739L437.703 317.743L437.696 317.747C412.988 333.829 386.008 341.893 356.845 341.893C332.62 341.893 310.744 337.127 291.305 327.505L290.354 327.029L290.326 327.015C270.89 316.838 251.742 302.36 232.87 283.665C218.7 270.325 204.966 259.872 191.675 252.245L191.654 252.232L191.633 252.221C179.146 244.863 163.413 241.057 144.21 241.057C123.963 241.057 105.254 247.327 87.9814 259.995L87.9756 259.999L87.9707 260.004C82.3277 264.113 77.0262 268.657 72.0664 273.638C63.8554 281.883 52.5391 286.579 41.4814 286.896C30.3756 287.213 19.2434 283.092 11.9863 273.349C4.32656 263.065 3.09531 248.94 10.293 237.892C25.4355 214.649 43.1112 196.38 63.3574 183.202C88.4112 166.773 115.57 158.523 144.748 158.523Z" fill="white" stroke="white" stroke-width="8.27916"/>
</svg>
