<svg width="523" height="501" viewBox="0 0 523 501" fill="none" xmlns="http://www.w3.org/2000/svg">
<g clip-path="url(#clip0_1476_29365)">
<path d="M251.171 500.422C246.474 500.405 241.713 499.882 236.957 499.545C232.202 499.208 227.661 497.809 222.935 497.165C218.208 496.52 213.557 496.183 208.883 495.243C204.209 494.302 199.593 493.541 194.982 492.31C190.372 491.079 186.035 489.326 181.506 487.822C177.046 486.347 172.314 485.482 167.878 483.723C163.511 481.992 159.04 480.309 154.709 478.299C150.377 476.29 146.243 474.061 142.033 471.819C137.887 469.613 134.473 466.048 130.385 463.586C126.367 461.165 122.39 458.662 118.436 455.985C114.482 453.308 110.266 451.241 106.451 448.367C102.706 445.539 99.0422 442.543 95.3783 439.477C91.7145 436.412 88.5732 432.968 85.0603 429.728C81.5532 426.494 77.2157 424.148 73.9293 420.786C70.6428 417.425 67.8209 413.459 64.7144 409.923C61.608 406.386 58.606 402.641 55.6912 398.943C52.7763 395.244 49.368 391.789 46.6621 387.928C43.9563 384.066 41.7383 379.787 39.2473 375.769C36.7563 371.751 34.126 367.762 31.8673 363.599C29.6086 359.435 28.186 354.848 26.1653 350.557C24.1505 346.284 22.0834 342.028 20.3066 337.626C18.5415 333.248 16.5498 328.934 15.0169 324.434C13.5015 319.975 12.4273 315.341 11.1382 310.76C9.84919 306.179 8.15371 301.766 7.10274 297.115C6.06919 292.528 5.49435 287.795 4.68145 283.098C3.85112 278.308 2.61435 273.587 2.05112 268.814C1.47628 263.995 1.79564 259.1 1.49951 254.292C1.20338 249.455 1.19176 244.63 1.17434 239.811C1.16273 234.974 0.599505 230.12 0.872409 225.295C1.14531 220.469 1.99886 215.685 2.5737 210.883C3.14854 206.098 3.76403 201.302 4.63499 196.529C5.50596 191.757 6.96338 187.175 8.13048 182.46C9.29758 177.746 9.43694 172.81 10.8885 168.165C12.2937 163.671 15.2608 159.728 16.9157 155.362C18.5705 150.995 19.9292 146.472 21.8395 142.204C23.7499 137.936 26.0724 133.843 28.2266 129.691C30.3808 125.54 31.9718 121.04 34.3641 117.022C36.7563 113.004 40.1647 109.607 42.7892 105.728C45.4254 101.838 47.4112 97.5177 50.2622 93.8015C53.1131 90.0854 56.0918 86.4331 59.1518 82.8912C62.2118 79.3493 65.0802 75.5693 68.3493 72.2073C71.6183 68.8454 75.7931 66.4067 79.2538 63.248C82.7144 60.0892 85.5132 56.1409 89.1596 53.1912C92.8061 50.2415 96.679 47.5357 100.494 44.8066C104.309 42.0776 108.797 40.3705 112.774 37.8795C116.752 35.3886 120.607 32.7757 124.73 30.5228C128.853 28.2698 132.911 25.9763 137.162 23.9789C141.395 21.9873 145.697 20.1408 150.064 18.4047C154.413 16.6743 158.785 15.0021 163.25 13.5389C167.692 12.0814 172.297 11.1814 176.849 9.99111C181.401 8.80079 185.959 8.02272 190.575 7.11111C195.284 6.18208 199.837 4.80014 204.476 4.12078C209.115 3.44143 213.975 3.45304 218.649 3.01756C223.417 2.57626 228.062 0.991102 232.759 0.816908C237.457 0.642714 242.317 0.340778 247.026 0.445295C251.735 0.549811 256.595 0.689166 261.292 1.0782C266.048 1.46723 270.797 2.08272 275.471 2.76788C280.146 3.45304 284.576 5.81627 289.21 6.79756C293.855 7.78466 298.837 7.39563 303.401 8.67885C307.964 9.96208 312.041 12.8131 316.523 14.3924C320.988 15.966 325.349 17.7021 329.727 19.5718C334.07 21.424 338.634 22.8002 342.896 24.9427C347.158 27.0853 351.675 28.6298 355.81 31.0279C359.88 33.3911 363.91 35.9692 367.905 38.6111C371.824 41.2066 375.465 44.3247 379.308 47.1815C383.152 50.0383 386.729 53.0286 390.422 56.0886C394.039 59.0847 397.384 62.4525 400.926 65.6925C404.334 68.8047 407.243 72.3467 410.419 75.5983C413.642 78.8964 417.236 81.7764 420.215 85.2196C423.194 88.6628 425.632 92.617 428.408 96.2344C431.207 99.8809 433.86 103.562 436.409 107.348C438.976 111.151 441.809 114.745 444.126 118.694C446.443 122.642 448.55 126.695 450.623 130.783C452.696 134.871 454.165 139.191 455.988 143.4C457.812 147.61 460.738 151.338 462.312 155.658C463.885 159.978 465.308 164.321 466.638 168.728C467.95 173.089 469.326 177.496 470.412 181.973C471.48 186.391 471.167 191.147 472.014 195.682C472.914 200.524 473.629 205.32 474.238 210.134C474.848 214.948 475.876 219.802 476.183 224.65C476.491 229.499 477.455 234.428 477.449 239.294C477.443 244.16 476.99 249.101 476.659 253.973C476.323 258.85 476.027 263.768 475.353 268.611C474.685 273.442 472.595 278.035 471.585 282.831C470.574 287.627 470.51 292.597 469.163 297.324C467.834 301.992 465.941 306.533 464.274 311.166C462.608 315.8 461.493 320.561 459.519 325.079C457.661 329.329 455.013 333.196 452.923 337.266C450.832 341.337 449.247 345.813 446.901 349.756C444.556 353.699 441.739 357.45 439.132 361.235C436.525 365.021 433.274 368.372 430.423 371.983C427.572 375.595 424.907 379.375 421.818 382.801C418.728 386.226 415.157 389.147 411.848 392.375C408.538 395.604 405.821 399.413 402.308 402.432C398.795 405.452 394.498 407.379 390.805 410.184C387.141 412.959 384.041 416.484 380.261 418.998C376.481 421.512 372.399 423.742 368.456 426.012C364.514 428.283 360.461 430.495 356.373 432.51C352.274 434.53 347.71 435.488 343.483 437.236C339.255 438.984 335.417 441.696 331.08 443.165C326.772 444.622 322.457 446.294 318.021 447.479C313.585 448.663 308.94 448.739 304.428 449.645C299.667 450.603 294.975 451.776 290.232 452.42C285.43 453.07 280.558 452.739 275.773 453.07C270.989 453.401 266.17 454.226 261.368 454.232C256.542 454.232 251.7 454.33 246.898 454.005C242.096 453.68 237.219 453.622 232.434 452.96C227.673 452.304 222.975 450.986 218.237 449.999C213.546 449.023 208.732 448.28 204.064 446.974C199.395 445.667 195.052 443.548 190.471 441.939C185.982 440.372 181.343 439.228 177.017 437.399C172.691 435.57 168.476 433.253 164.272 431.134C160.045 429.003 155.911 426.686 151.852 424.282C147.793 421.878 143.955 419.091 140.059 416.414C136.163 413.737 131.895 411.548 128.185 408.61C124.498 405.69 121.606 401.782 118.093 398.588C114.615 395.43 111.056 392.346 107.746 388.932C104.442 385.518 100.993 382.284 97.9448 378.73C94.8964 375.177 91.5925 371.67 88.7706 367.93C85.9196 364.15 83.417 360.109 80.8448 356.184C78.2551 352.23 76.0661 348.032 73.7609 343.932C71.4557 339.833 69.1448 335.704 67.1183 331.448C65.0919 327.192 62.8506 323.012 61.1144 318.616C59.3783 314.221 58.1357 309.668 56.7015 305.157C55.2673 300.645 53.4731 296.273 52.3351 291.668C51.2202 287.128 51.0286 282.331 50.1925 277.646C49.3331 272.85 49.1415 268.03 48.5899 263.298C48.0383 258.566 46.308 253.775 46.0641 249.014C45.8144 244.166 46.0583 239.306 46.1454 234.527C46.2325 229.748 46.5286 224.848 46.9641 220.08C47.4054 215.267 48.8047 210.598 49.6118 205.866C50.4247 201.117 51.4176 196.442 52.6022 191.774C53.7809 187.117 54.5009 182.315 56.0512 177.74C57.5957 173.205 58.757 168.449 60.6731 163.996C62.5602 159.606 65.1151 155.443 67.3738 151.14C69.5861 146.919 72.1583 142.825 74.7364 138.691C77.3144 134.557 80.5835 131.114 83.4403 127.16C86.1345 123.438 88.8228 119.82 91.6796 116.342C94.5364 112.864 96.9054 108.788 99.9887 105.502C103.13 102.163 106.509 99.097 109.825 96.037C113.14 92.977 116.613 89.9344 120.149 87.1183C123.714 84.2789 127.285 81.428 131.036 78.8789C134.787 76.3299 138.468 73.5428 142.411 71.2783C146.347 69.0196 150.644 67.3531 154.761 65.3963C158.843 63.4512 163.163 61.9763 167.425 60.3273C171.635 58.6957 175.926 57.2325 180.309 55.8912C184.618 54.5731 188.915 53.0518 193.391 52.0183C197.868 50.9847 202.235 50.0615 206.775 49.3241C211.333 48.5867 215.851 47.7854 220.333 47.3325C224.816 46.8796 229.542 47.6808 234.054 47.5241C238.566 47.3673 243.176 47.3499 247.688 47.495C252.28 47.646 256.821 47.6344 261.321 48.1105C265.885 48.5925 270.53 48.366 274.995 49.1847C279.461 50.0034 284.007 50.9325 288.408 52.0879C292.81 53.2434 297.228 54.5905 301.537 56.0886C305.833 57.5809 310.032 59.4738 314.23 61.297C318.428 63.1202 322.144 65.8202 326.203 67.957C330.203 70.0705 334.064 72.4338 337.966 74.8667C341.799 77.2531 346.124 78.9835 349.864 81.6777C353.603 84.3719 356.936 87.3796 360.501 90.3119C363.979 93.1744 367.742 95.828 371.133 98.9693C374.623 102.203 377.642 105.873 380.824 109.276C384.006 112.678 386.474 116.847 389.4 120.488C392.361 124.175 395.479 127.676 398.121 131.544C400.786 135.44 403.794 139.104 406.134 143.18C408.474 147.256 409.705 151.907 411.726 156.163C413.741 160.402 417.01 164.118 418.705 168.525C420.383 172.897 421.754 177.449 423.118 181.984C424.483 186.519 424.535 191.304 425.58 195.931C426.608 200.478 427.787 205.013 428.518 209.71C429.285 214.611 429.621 219.494 430.022 224.354C430.423 229.214 431.845 234.155 431.851 239.044C431.857 243.933 430.905 248.886 430.498 253.775C430.092 258.664 429.668 263.582 428.826 268.431C427.984 273.279 426.114 277.855 424.825 282.616C423.554 287.331 423.077 292.319 421.353 296.97C419.663 301.533 417.782 306.109 415.645 310.603C413.677 314.743 411.441 318.709 409.246 322.611C407.052 326.513 404.114 330.13 401.634 333.87C399.108 337.673 396.617 341.43 393.848 344.966C391.043 348.554 388.605 352.433 385.545 355.743C382.485 359.052 379.053 362.106 375.714 365.155C372.37 368.203 369.037 371.315 365.431 374.068C361.825 376.82 357.482 378.44 353.638 380.879C349.846 383.288 346.647 386.801 342.606 388.921C338.564 391.04 333.902 391.574 329.686 393.363C325.471 395.151 321.493 396.992 317.144 398.461C312.615 399.988 308.057 401.027 303.575 402.206C298.959 403.419 294.702 405.957 290.139 406.799C285.575 407.641 280.691 407.896 276.058 408.372C271.331 408.854 266.599 408.628 261.931 408.709C257.262 408.79 252.437 409.661 247.769 409.324C243.1 408.988 238.386 408.024 233.746 407.257C229.107 406.491 224.665 404.766 220.095 403.57C215.526 402.374 210.84 401.736 206.38 400.133C201.991 398.554 198.037 395.807 193.717 393.827C189.489 391.888 185.053 390.285 180.896 387.957C176.738 385.628 172.958 383.05 168.975 380.414C164.992 377.778 161.247 375.194 157.455 372.285C153.768 369.463 149.721 367.129 146.347 364.098C142.898 361.003 140.233 357.148 137.109 353.844C133.939 350.488 130.014 347.782 127.18 344.211C124.318 340.605 122.448 336.256 119.922 332.435C117.396 328.615 115.463 324.457 113.274 320.422C111.091 316.404 107.764 312.914 105.917 308.693C104.094 304.518 103.513 299.797 102.015 295.425C100.54 291.122 99.3035 286.739 98.148 282.25C97.0158 277.855 95.1054 273.575 94.2693 269.011C93.4738 264.639 93.4564 260.174 92.9861 255.831C92.5158 251.488 91.2151 247.057 91.0932 242.685C90.9712 238.313 91.2964 233.795 91.5577 229.411C91.8248 225.01 92.8235 220.649 93.497 216.3C94.1706 211.951 95.6687 207.794 96.7661 203.503C97.8635 199.212 97.8983 194.66 99.4138 190.485C100.929 186.31 102.851 182.367 104.767 178.338C106.881 173.89 110.098 170.122 112.473 166.005C114.847 161.888 117.542 157.748 120.271 153.84C123.081 149.828 125.746 145.839 128.853 142.198C131.959 138.558 135.513 135.202 138.985 131.886C142.498 128.536 145.686 124.86 149.512 121.922C153.338 118.984 157.519 116.54 161.665 114.02C165.77 111.523 169.736 108.672 174.149 106.593C178.475 104.555 183.073 102.958 187.689 101.327C192.178 99.7415 196.707 97.9067 201.48 96.7048C206.253 95.5028 210.95 95.0674 215.816 94.2719C220.56 93.4996 225.275 92.6925 229.978 92.3848C234.681 92.077 239.524 92.9712 244.239 93.1222C248.953 93.2731 253.889 92.2338 258.575 92.8493C263.313 93.4706 267.877 95.1777 272.487 96.2519C277.138 97.3319 281.998 97.7615 286.492 99.2828C290.986 100.804 295.033 103.638 299.359 105.6C303.685 107.563 307.755 109.978 311.872 112.353C315.995 114.728 320.57 116.394 324.443 119.164C328.316 121.934 332.172 124.802 335.76 127.938C339.331 131.062 341.752 135.393 345.015 138.871C348.279 142.349 352.558 144.91 355.473 148.69C358.388 152.47 360.704 156.668 363.236 160.721C365.745 164.727 367.771 169.059 369.902 173.344C372.033 177.629 374.216 181.804 375.929 186.281C377.642 190.758 378.885 195.281 380.168 199.915C381.492 204.682 383.39 209.28 384.256 214.018C385.144 218.873 384.674 223.872 385.051 228.686C385.428 233.499 385.306 238.411 385.15 243.254C384.987 248.137 385.202 253.02 384.459 257.84C383.715 262.636 383.46 267.624 382.113 272.35C380.766 277.077 378.257 281.31 376.335 285.868C374.414 290.426 372.701 294.85 370.25 299.188C367.91 303.328 365.048 307.055 362.423 310.812C359.706 314.697 356.814 318.343 353.789 321.81C350.764 325.276 347.913 329.219 344.493 332.331C341.021 335.49 337.281 338.375 333.478 341.07C329.675 343.764 325.483 345.924 321.354 348.142C317.278 350.337 312.761 351.597 308.365 353.321C303.97 355.046 299.963 357.345 295.382 358.576C290.957 359.766 286.237 359.946 281.533 360.707C276.569 361.508 271.767 362.745 266.953 363.018C262.14 363.291 256.972 363.918 252.135 363.634C247.299 363.349 242.317 361.979 237.526 361.084C232.736 360.19 227.673 359.639 223.004 358.123C218.336 356.608 214.242 353.559 209.771 351.434C205.3 349.309 201.265 346.777 197.067 344.095C192.869 341.412 188.566 339.281 184.676 336.128C180.786 332.975 177.505 329.567 173.946 326.013C170.787 322.866 166.949 320.41 164.208 317.089C161.38 313.663 159.824 309.349 157.438 305.743C155.051 302.137 152.404 298.537 150.429 294.664C148.432 290.751 146.556 286.785 145.035 282.691C143.508 278.598 142.898 274.237 141.842 269.97C140.796 265.754 140.14 261.498 139.554 257.114C138.979 252.829 138.689 248.538 138.549 244.102C138.41 239.793 137.255 235.421 137.527 230.973C137.818 226.171 139.664 221.625 140.686 216.974C141.714 212.294 142.695 207.678 144.408 203.218C146.121 198.759 148.165 194.486 150.499 190.311C152.833 186.136 154.744 181.659 157.635 177.85C160.527 174.041 163.639 170.307 167.024 166.928C170.409 163.549 174.799 161.307 178.62 158.427C182.435 155.547 185.767 151.872 189.954 149.561C194.14 147.25 199.006 146.373 203.495 144.701C207.983 143.029 212.355 141.176 217.059 140.201C221.605 139.266 226.157 138.958 230.651 138.604C235.268 138.244 239.826 137.524 244.343 137.756C248.953 137.995 253.639 137.977 258.099 138.813C262.622 139.661 266.861 141.751 271.175 143.185C275.524 144.637 280.018 145.81 284.111 147.836C288.205 149.863 291.631 153.074 295.417 155.658C299.179 158.224 302.977 160.721 306.385 163.81C309.793 166.899 312.824 170.209 315.786 173.751C318.689 177.217 321.192 180.997 323.665 184.911C326.075 188.72 328.543 192.54 330.505 196.756C332.688 201.442 334.796 206.069 336.288 210.825C337.833 215.731 338.594 220.754 339.314 225.719C340.034 230.683 340.841 235.793 340.637 240.868C340.44 245.879 339.975 251 338.768 256.022C337.612 260.819 334.964 265.255 332.81 270.033C330.766 274.574 328.566 278.749 326.034 282.657C323.346 286.802 321.377 291.39 318.149 294.804C314.804 298.346 310.577 300.895 306.664 303.641C302.75 306.388 298.488 308.501 294.012 310.429C289.697 312.287 285.36 314.528 280.535 315.608C276 316.624 271.175 317.397 266.193 317.71C261.402 318.012 256.664 317.275 252.083 316.77C247.339 316.241 242.787 315.126 238.345 313.797C233.804 312.432 229.461 310.713 225.315 308.577C221.169 306.44 216.635 304.611 212.93 301.725C209.231 298.845 206.258 295.042 203.129 291.506C200.04 288.016 197.955 283.801 195.499 279.742C193.095 275.776 191.005 271.717 189.28 267.27C187.556 262.822 185.425 258.763 184.461 254.066C183.427 249.049 183.306 244.113 183.288 239.34C183.271 234.295 184.136 229.545 185.361 224.83C186.592 220.098 187.962 215.441 190.564 211.109C192.997 207.062 195.726 202.893 199.453 199.258C203.286 195.525 207.333 192.291 211.525 189.829C216.031 187.187 220.978 185.729 225.855 184.568C230.739 183.401 235.813 182.489 241.016 182.826C245.87 183.14 251.084 183.773 256.171 185.41C261.135 187.007 265.31 189.98 269.34 192.5C273.642 195.194 277.695 198.103 280.93 201.796C284.164 205.489 287.172 209.565 289.326 214.181C291.335 218.489 291.747 223.582 292.833 228.668C294.006 234.155 294.087 239.253 293.222 244.398C292.357 249.542 290.998 254.408 287.462 258.995C284.593 262.711 281.051 265.423 277.15 267.56C273.161 269.743 269.009 271.996 264.439 272.373C259.87 272.751 255.584 271.201 251.102 269.749C246.851 268.373 243.385 265.957 240.128 263.013C236.87 260.064 233.932 256.911 232.045 252.893C230.158 248.875 228.549 244.74 228.387 240.252C228.16 234.057 232.341 230.009 237.944 229.632C244.07 229.22 248.437 232.46 248.553 239.056C248.628 243.12 251.514 246.43 254.841 248.799C257.948 251.011 261.617 252.411 265.99 250.802C270.948 248.979 274.078 244.224 274.119 238.661C274.159 233.708 273.027 229.005 271.024 224.668C269.021 220.33 266.715 215.685 263.144 212.428C259.573 209.17 254.632 207.777 250.068 206.162C245.504 204.548 240.929 203.265 235.999 203.764C230.971 204.269 225.977 204.989 221.878 207.126C217.529 209.391 213.517 212.677 210.532 216.393C207.559 220.092 205.66 224.842 204.36 229.58C203.135 234.028 202.815 238.951 203.326 243.98C203.843 249.06 205.928 253.624 207.542 258.194C209.226 262.95 210.34 267.92 213.087 271.984C215.833 276.049 219.294 279.887 223.051 283.15C226.755 286.373 230.802 289.561 235.326 291.802C239.849 294.043 244.796 294.577 249.778 295.686C254.243 296.685 258.668 297.846 263.092 297.724C267.517 297.602 272.144 296.79 276.453 295.617C280.761 294.444 284.588 291.871 288.536 289.746C292.49 287.621 296.357 285.45 299.742 282.5C303.122 279.556 306.397 276.461 309.033 272.815C311.646 269.197 314.601 265.551 316.308 261.359C317.981 257.259 317.957 252.533 318.596 248.004C319.212 243.631 320.123 239.265 319.926 234.869C319.728 230.474 318.434 226.2 317.481 221.892C316.535 217.601 316.326 213.008 314.683 208.915C313.045 204.833 310.322 201.192 308.046 197.412C305.77 193.632 303.464 189.846 300.619 186.473C297.78 183.111 294.389 180.236 291.027 177.386C287.665 174.535 283.961 172.235 280.14 170C275.919 167.532 271.599 165.691 267.244 164.042C262.697 162.318 258.325 160.419 253.715 159.542C249.104 158.666 244.198 158.904 239.483 158.851C234.768 158.799 230.019 159.095 225.35 159.885C220.629 160.68 215.92 161.342 211.444 162.945C206.967 164.547 202.804 166.87 198.664 169.245C194.535 171.614 190.169 173.693 186.505 176.776C182.841 179.859 180.042 183.744 176.971 187.437C173.899 191.129 171.228 194.904 168.847 199.107C166.537 203.189 164.702 207.515 163.082 212.102C161.526 216.498 160.219 221.009 159.377 225.829C158.518 230.729 157.519 235.526 157.473 240.345C157.426 245.164 158.756 250.019 159.511 254.832C160.266 259.64 160.033 264.709 161.543 269.395C163.053 274.081 165.213 278.453 167.378 282.912C169.527 287.331 171.396 291.848 173.917 295.797C176.437 299.745 179.74 303.624 182.777 307.224C185.907 310.928 190.024 313.588 193.583 316.741C197.177 319.928 200.824 322.901 204.853 325.52C208.837 328.11 212.762 330.839 217.169 332.871C221.448 334.839 225.919 336.558 230.593 337.998C235.268 339.438 239.686 340.733 244.523 341.615C249.342 342.498 254.214 343.195 259.028 343.34C263.841 343.485 268.753 342.62 273.555 342.051C278.357 341.482 282.968 339.92 287.648 338.666C292.328 337.412 297.339 337.057 301.804 335.159C306.275 333.26 310.113 330.101 314.282 327.61C318.445 325.119 322.277 322.274 326.069 319.232C329.855 316.201 333.408 313.024 336.741 309.488C340.063 305.964 343.25 302.399 346.061 298.421C348.871 294.444 351.356 290.391 353.563 286.036C355.74 281.739 357.226 277.193 358.765 272.548C360.246 268.088 361.622 263.786 362.539 259.367C363.457 254.948 364.99 250.39 365.367 245.867C365.745 241.344 366.203 236.6 366 232.036C365.797 227.437 364.746 222.885 363.962 218.344C363.178 213.804 362.888 209.129 361.564 204.688C360.263 200.327 357.923 196.233 356.117 191.942C354.312 187.651 351.629 184.016 349.411 179.906C347.054 175.539 345.114 171.086 342.437 167.137C339.761 163.189 336.904 159.049 333.792 155.402C330.598 151.663 326.684 148.742 323.137 145.479C319.589 142.216 316.552 138.169 312.604 135.347C308.655 132.525 303.946 130.922 299.644 128.6C295.405 126.306 291.37 123.525 286.8 121.719C282.341 119.96 277.672 118.572 272.899 117.277C268.126 115.982 263.417 115.738 258.522 114.931C253.802 114.153 249.209 113.009 244.535 112.777C239.86 112.545 234.989 111.697 230.303 111.999C225.553 112.307 220.757 112.87 216.129 113.706C211.502 114.542 206.932 116.255 202.42 117.614C197.909 118.973 193.275 120.308 188.938 122.166C184.6 124.024 180.6 126.724 176.489 129.053C172.372 131.387 167.884 133.245 164.057 136.014C160.225 138.79 157.467 142.913 153.966 146.095C150.464 149.276 146.464 151.947 143.334 155.501C140.216 159.043 136.836 162.498 134.125 166.388C131.431 170.255 129.915 174.918 127.656 179.098C125.421 183.238 123.58 187.553 121.815 191.971C120.05 196.39 117.309 200.42 116.067 205.03C114.847 209.553 115.265 214.489 114.557 219.221C113.849 223.936 112.409 228.488 112.142 233.104C111.869 237.842 111.991 242.563 112.171 247.202C112.351 251.842 113.46 256.522 114.116 261.138C114.778 265.795 114.876 270.55 116.009 275.091C117.141 279.631 118.738 284.073 120.34 288.498C121.925 292.882 123.551 297.306 125.584 301.574C127.581 305.766 129.497 310.11 131.918 314.186C134.34 318.262 136.796 322.204 139.56 326.072C142.184 329.741 145.86 332.54 148.693 335.902C151.591 339.345 154.447 342.73 157.56 345.848C160.73 349.024 163.395 352.735 166.792 355.568C170.229 358.437 173.766 361.253 177.424 363.761C181.082 366.27 185.75 367.216 189.646 369.365C193.542 371.513 197.375 373.626 201.48 375.392C205.538 377.139 209.667 378.632 213.94 380.014C218.127 381.366 222.22 383.172 226.61 384.165C231 385.158 235.18 386.569 239.651 387.196C244.5 387.875 249.395 387.196 254.115 387.469C258.836 387.742 263.795 389.194 268.527 389.037C273.393 388.874 278.253 388.392 282.962 387.771C287.764 387.138 292.2 384.711 296.845 383.608C301.537 382.493 306.501 382.412 311.03 380.815C315.553 379.224 320.112 377.511 324.466 375.444C328.781 373.4 332.439 370.055 336.59 367.547C340.655 365.085 345.137 363.163 349.045 360.26C352.848 357.438 356.048 353.768 359.7 350.528C363.236 347.387 367.574 344.948 370.959 341.424C374.019 338.242 376.939 334.909 379.651 331.547C382.409 328.121 385.034 324.544 387.432 320.933C389.859 317.281 390.886 312.804 392.942 308.971C395.009 305.122 396.803 301.22 398.499 297.19C400.194 293.161 402.645 289.456 403.968 285.275C405.275 281.141 406.767 276.978 407.719 272.681C408.654 268.46 408.614 264 409.206 259.628C409.833 254.966 411.279 250.402 411.517 245.791C411.761 241.111 411.453 236.391 411.302 231.769C411.145 227.1 409.67 222.548 409.113 217.938C408.556 213.327 409.032 208.52 408.068 203.962C407.11 199.421 405.31 195.049 403.963 190.578C402.616 186.107 401.832 181.462 400.113 177.101C398.394 172.74 395.566 168.96 393.499 164.739C391.38 160.396 389.452 156.029 387.072 151.959C384.691 147.889 382.188 143.685 379.488 139.812C376.742 135.869 373.641 132.223 370.616 128.576C367.591 124.93 364.798 120.918 361.459 117.533C358.121 114.147 353.632 111.964 349.997 108.869C346.374 105.786 343.14 102.238 339.238 99.4628C335.377 96.7164 331.481 93.9467 327.346 91.4964C323.282 89.0867 319.026 86.9093 314.7 84.7899C310.374 82.6706 306.106 80.766 301.624 78.966C297.356 77.2531 293.274 75.0409 288.954 73.6938C284.634 72.3467 279.844 72.3641 275.408 71.3828C270.948 70.3899 266.617 68.7525 262.105 68.137C257.593 67.5215 252.989 67.748 248.431 67.5099C243.873 67.2718 239.338 66.2499 234.757 66.3834C230.233 66.517 225.699 67.4286 221.129 67.9164C216.658 68.3925 212.408 69.8847 208.076 70.6628C203.744 71.4409 199.36 72.3467 195.093 73.4499C190.761 74.5705 186.162 74.6867 181.982 76.1209C177.76 77.5725 173.562 79.146 169.498 80.917C165.433 82.688 161.642 85.1441 157.728 87.2519C153.815 89.3596 150.133 91.8215 146.388 94.2428C142.643 96.6641 138.665 98.6732 135.106 101.391C131.547 104.108 128.678 107.505 125.328 110.489C122.042 113.416 118.953 116.569 115.811 119.785C112.658 123.02 108.849 125.598 105.987 128.989C103.124 132.38 100.198 135.916 97.5964 139.516C94.9661 143.162 93.0848 147.308 90.7738 151.117C88.4628 154.926 86.3899 158.915 84.3983 162.91C82.4067 166.911 80.4673 170.935 78.8125 175.098C77.1693 179.238 75.5725 183.424 74.2719 187.727C72.9886 191.983 72.6054 196.477 71.6706 200.884C70.7473 205.216 69.7777 209.542 69.197 214.03C68.5699 218.844 67.3041 223.524 67.0022 228.239C66.6886 233.075 66.2415 237.883 66.2648 242.615C66.288 247.348 68.0067 252.161 68.3725 256.888C68.7499 261.695 68.5293 266.503 69.2667 271.201C70.0041 275.898 70.4512 280.758 71.5544 285.397C72.6693 290.06 75.1661 294.31 76.6467 298.862C78.1273 303.409 79.3235 308.019 81.1641 312.444C83.0048 316.868 84.1719 321.583 86.3609 325.862C88.5209 330.095 90.7157 334.41 93.2241 338.526C95.6919 342.579 99.5474 345.767 102.346 349.71C105.087 353.571 107.56 357.664 110.614 361.415C113.605 365.079 116.386 369.004 119.673 372.564C122.831 375.984 125.926 379.444 129.247 382.58C132.569 385.715 136.871 387.91 140.419 390.808C144.007 393.74 147.718 396.382 151.475 399.018C155.231 401.654 158.309 405.434 162.269 407.786C166.229 410.137 170.253 412.524 174.387 414.574C178.521 416.623 183.288 417.262 187.573 418.992C191.858 420.723 195.935 422.871 200.348 424.288C204.76 425.705 209.377 426.036 213.888 427.133C218.4 428.23 222.731 429.479 227.319 430.268C231.801 431.041 236.231 431.627 240.65 432.121C245.162 432.62 249.615 432.91 254.063 433.114C258.592 433.328 263.075 434.513 267.534 434.42C271.993 434.327 276.511 433.265 280.964 432.858C285.459 432.446 290.069 432.881 294.488 432.156C298.93 431.418 303.366 430.402 307.732 429.345C312.099 428.288 316.314 426.57 320.599 425.188C324.884 423.806 329.001 422.035 333.182 420.334C337.363 418.632 341.288 416.559 345.352 414.562C349.417 412.565 353.261 410.428 357.18 408.152C361.099 405.875 364.839 403.582 368.607 401.05C372.3 398.577 376.063 396.144 379.68 393.386C383.57 390.419 387.391 387.469 390.991 384.316C394.591 381.163 398.365 377.975 401.739 374.561C405.159 371.095 407.719 366.914 410.832 363.244C413.973 359.54 417.724 356.358 420.546 352.456C423.368 348.554 425.992 344.437 428.507 340.309C431.021 336.181 433.483 332 435.666 327.674C437.849 323.348 440.114 319.063 441.96 314.563C443.807 310.063 445.154 305.435 446.658 300.802C448.138 296.244 449.625 291.61 450.798 286.872C451.97 282.134 451.941 277.291 452.789 272.472C453.561 268.082 455.21 263.861 455.704 259.506C456.198 255.151 456.145 250.634 456.36 246.25C456.575 241.814 456.947 237.389 456.871 232.994C456.796 228.599 456.546 224.133 456.186 219.738C455.826 215.342 455.617 210.877 454.955 206.511C454.293 202.144 453.178 197.83 452.232 193.504C451.285 189.178 450.391 184.841 449.16 180.585C447.941 176.358 445.85 172.386 444.352 168.206C442.854 164.025 442.111 159.612 440.358 155.524C438.604 151.436 436.903 147.372 434.911 143.395C432.856 139.295 430.521 135.353 428.297 131.439C426.074 127.525 422.729 124.14 420.296 120.354C417.863 116.569 415.941 112.289 413.288 108.649C410.594 104.956 408.103 101.1 405.228 97.6222C402.354 94.1441 398.957 90.9738 395.863 87.6815C392.739 84.366 389.011 81.6835 385.695 78.6002C382.38 75.517 378.861 72.6718 375.337 69.8093C371.812 66.9467 368.59 63.7183 364.874 61.0996C361.175 58.4867 357.633 55.5718 353.743 53.2086C349.852 50.8454 345.747 48.9002 341.7 46.7866C337.699 44.7021 333.368 43.2447 329.187 41.3983C325.064 39.5808 320.924 37.7692 316.628 36.1841C312.331 34.5989 308.226 32.8279 303.836 31.4982C299.446 30.1686 295.074 29.3092 290.609 28.2292C286.115 27.1376 281.545 26.7602 277.103 25.9356C272.557 25.0879 268.248 23.1369 263.76 22.5679C259.179 21.9815 254.62 21.2731 250.097 20.9711C245.574 20.6692 240.877 21.6215 236.342 21.604C231.807 21.5866 227.197 21.7318 222.656 22.0163C218.115 22.3008 213.569 22.9047 209.051 23.4969C204.534 24.0892 199.895 24.124 195.418 25.0298C190.935 25.9357 186.621 27.5266 182.214 28.7402C177.807 29.9537 173.62 31.7131 169.289 33.2228C164.992 34.7266 160.353 35.3537 156.126 37.1537C151.898 38.9537 147.712 40.7305 143.607 42.8034C139.502 44.8763 136.105 48.0525 132.127 50.3808C128.15 52.7092 124.265 54.8983 120.422 57.4589C116.578 60.0196 113.082 62.7718 109.384 65.5473C105.685 68.3228 101.8 70.5815 98.2467 73.5428C94.7454 76.4635 91.5751 79.6802 88.3177 82.746C85.0022 85.8699 81.559 88.7964 78.4931 92.0712C75.4273 95.3461 72.2919 98.6848 69.4351 102.157C66.5783 105.629 63.3325 108.916 60.708 112.574C58.0835 116.232 55.6912 120.145 53.3105 123.978C50.9299 127.81 49.2286 132.066 47.0976 136.055C44.9725 140.033 42.4873 143.853 40.6176 147.982C38.7479 152.11 38.1557 156.709 36.5473 160.953C34.9389 165.198 32.0357 168.926 30.6886 173.263C29.3415 177.6 28.3544 181.996 27.257 186.415C26.177 190.764 26.026 195.362 25.1782 199.839C24.2899 204.496 23.6686 209.147 23.1111 213.815C22.5537 218.484 22.2576 223.187 22.0195 227.896C21.7757 232.611 21.9557 237.285 22.0195 242.006C22.0834 246.726 20.8815 251.482 21.2357 256.202C21.5899 260.923 21.8744 265.644 22.4957 270.341C23.0937 274.853 24.4234 279.237 25.2479 283.655C26.0724 288.074 27.9944 292.313 29.0628 296.685C30.1312 301.057 31.1937 305.447 32.5118 309.755C33.8299 314.064 34.155 318.744 35.7228 322.977C37.2905 327.21 39.6538 331.146 41.4712 335.286C43.2886 339.426 44.7634 343.723 46.8247 347.753C48.8744 351.765 51.377 355.557 53.6705 359.464C55.9641 363.372 57.7234 367.582 60.2435 371.362C62.7635 375.142 65.7015 378.568 68.4364 382.203C71.3106 386.029 74.0686 389.925 77.088 393.543C80.1538 397.212 83.9803 400.168 87.1912 403.623C90.4428 407.118 93.5725 410.683 96.9751 413.952C100.418 417.256 103.827 420.56 107.421 423.626C111.044 426.715 114.238 430.367 118.024 433.212C121.809 436.057 126.153 438.217 130.118 440.825C134.084 443.432 138.073 446.033 142.202 448.385C146.318 450.73 150.54 452.931 154.819 455.021C159.069 457.1 163.442 458.97 167.855 460.787C172.267 462.605 176.5 464.765 181.018 466.309C185.535 467.854 190.204 468.696 194.82 469.967C199.355 471.216 203.849 472.928 208.535 473.933C213.069 474.903 217.779 474.781 222.255 475.518C226.732 476.256 231.36 476.923 235.871 477.446C240.476 477.974 245.017 478.607 249.557 478.892C254.098 479.176 258.76 479.014 263.313 479.043C267.865 479.072 272.51 479.124 277.062 478.892C281.615 478.659 286.208 478.09 290.748 477.585C295.289 477.08 299.981 477.225 304.492 476.441C309.021 475.652 313.452 474.339 317.905 473.277C322.359 472.214 327.004 471.68 331.393 470.339C335.783 468.997 339.836 466.64 344.144 465.026C348.453 463.412 352.964 462.372 357.174 460.491C361.384 458.61 365.297 456.229 369.397 454.098C373.444 451.996 377.7 450.179 381.677 447.816C385.655 445.452 389.104 442.433 392.942 439.855C396.78 437.277 400.937 435.314 404.642 432.533C408.277 429.81 411.749 426.75 415.314 423.794C418.879 420.839 421.655 417.175 425.086 414.051C428.443 410.997 432.287 408.512 435.416 405.324C438.587 402.09 441.101 398.286 444.045 394.919C446.988 391.551 449.793 387.997 452.534 384.455C455.298 380.884 458.404 377.592 460.93 373.882C463.456 370.172 465.383 366.055 467.689 362.193C469.994 358.332 473.048 354.877 475.121 350.883C477.194 346.888 479.179 342.829 481.026 338.712C482.872 334.595 483.325 329.95 484.934 325.729C486.542 321.508 489.457 317.803 490.839 313.495C492.221 309.186 492.54 304.634 493.69 300.25C494.828 295.924 496.68 291.732 497.615 287.296C498.712 282.082 498.44 276.641 499.16 271.38C499.88 266.12 501.308 260.923 501.65 255.616C501.999 250.32 501.116 244.99 501.099 239.66C501.076 233.325 506.168 228.355 512.061 228.366C517.943 228.378 522.182 233.406 522.176 239.683C522.176 243.84 521.828 247.986 521.607 252.138C521.369 256.62 520.614 261.022 520.167 265.458C519.72 269.894 519.169 274.324 518.495 278.731C517.816 283.156 518.466 287.819 517.566 292.197C516.666 296.575 514.558 300.691 513.426 305.017C512.294 309.337 511.725 313.831 510.366 318.093C509.013 322.344 506.929 326.356 505.349 330.554C503.77 334.752 501.569 338.619 499.769 342.736C497.766 347.317 495.972 351.933 493.73 356.358C491.489 360.783 489.196 365.207 486.699 369.504C484.202 373.801 481.723 378.115 478.982 382.272C476.241 386.424 473.617 390.657 470.632 394.652C467.648 398.646 464.756 402.699 461.539 406.514C458.323 410.329 454.334 413.389 450.902 417.03C447.587 420.543 444.376 424.079 440.921 427.377C437.466 430.675 433.872 433.892 430.243 437.004C426.614 440.116 423.176 443.536 419.373 446.451C415.552 449.377 411.25 451.578 407.284 454.278C403.312 456.978 400.049 460.787 395.932 463.261C391.821 465.728 387.623 468.15 383.367 470.391C379.128 472.621 374.657 474.485 370.274 476.488C365.924 478.479 361.07 479.316 356.582 481.081C352.094 482.846 347.953 485.337 343.366 486.864C339.145 488.269 334.721 488.937 330.401 490.11C326.168 491.265 322.121 493.425 317.679 494.36C313.434 495.254 308.812 494.621 304.277 495.324C300.027 495.98 295.765 497.589 291.178 498.07C286.916 498.523 282.474 498.895 277.858 499.203C273.584 499.481 269.131 499.487 264.503 499.644C260.224 499.789 255.776 500.439 251.148 500.48L251.171 500.422Z" fill="white"/>
</g>
<defs>
<clipPath id="clip0_1476_29365">
<rect width="521.403" height="500" fill="white" transform="translate(0.796875 0.421875)"/>
</clipPath>
</defs>
</svg>
