<svg width="501" height="501" viewBox="0 0 501 501" fill="none" xmlns="http://www.w3.org/2000/svg">
<path d="M236.773 12.6538C238.907 -3.62779 262.472 -3.6278 264.605 12.6538L276.254 101.555C277.975 114.692 294.728 119.181 302.787 108.665L357.325 37.4985C367.313 24.4651 387.721 36.2468 381.429 51.4136L347.065 134.229C341.988 146.467 354.251 158.731 366.489 153.653L449.305 119.29C464.471 112.997 476.253 133.405 463.22 143.393L392.054 197.932C381.537 205.992 386.026 222.743 399.163 224.464L488.064 236.113C504.346 238.246 504.346 261.811 488.064 263.945L399.163 275.593C386.026 277.315 381.537 294.067 392.054 302.126L463.22 356.665C476.253 366.653 464.471 387.061 449.305 380.768L366.489 346.405C354.251 341.327 341.988 353.591 347.065 365.829L381.429 448.644C387.721 463.811 367.314 475.593 357.325 462.559L302.786 391.393C294.727 380.877 277.975 385.365 276.254 398.502L264.605 487.404C262.472 503.685 238.907 503.685 236.773 487.404L225.125 398.502C223.404 385.365 206.651 380.877 198.592 391.393L144.053 462.559C134.064 475.593 113.658 463.811 119.951 448.644L154.313 365.829C159.391 353.591 147.128 341.327 134.89 346.405L52.0742 380.768C36.9074 387.061 25.1257 366.653 38.1592 356.665L109.325 302.125C119.842 294.066 115.353 277.315 102.216 275.593L13.3145 263.945C-2.96715 261.811 -2.96715 238.246 13.3145 236.113L102.216 224.464C115.353 222.743 119.842 205.991 109.325 197.931L38.1592 143.392C25.1258 133.404 36.9074 112.997 52.0742 119.29L134.89 153.653C147.128 158.731 159.391 146.467 154.313 134.229L119.95 51.4136C113.657 36.2468 134.065 24.4651 144.054 37.4985L198.592 108.665C206.651 119.181 223.404 114.692 225.125 101.555L236.773 12.6538Z" fill="white" stroke="white" stroke-width="0.827592"/>
</svg>
