<svg width="500" height="498" viewBox="0 0 500 498" fill="none" xmlns="http://www.w3.org/2000/svg">
<g clip-path="url(#clip0_1499_28929)">
<path d="M235.94 11.2602C237.01 3.12016 241.76 0.410156 248.19 0.410156C254.62 0.410156 260.63 2.95016 261.7 11.0902C263.16 22.2002 263.98 22.0902 265.44 33.2102C266.9 44.3202 268.31 44.1402 269.77 55.2502C271.23 66.3602 269.41 66.6002 270.87 77.7202C272.33 88.8402 271.46 88.9502 272.91 100.06C274.63 113.2 290.83 116.5 298.89 105.98C305.71 97.0902 308.59 99.3002 315.41 90.4002C322.23 81.5002 320.04 79.8302 326.85 70.9302C333.66 62.0302 333.47 61.8802 340.28 52.9802C347.09 44.0802 347.54 44.4202 354.36 35.5202C359.35 29.0002 366.9 29.9602 372.47 33.1702C378.03 36.3802 383.93 42.9802 380.78 50.5602C376.49 60.9102 376.31 60.8402 372.02 71.1902C367.72 81.5402 367.49 81.4402 363.19 91.7902C358.89 102.14 358.49 101.97 354.19 112.33C349.89 122.69 348.26 122 343.96 132.36C338.88 144.6 352.44 158.76 364.68 153.68C375.03 149.39 374.15 147.27 384.5 142.98C394.85 138.69 395.17 139.46 405.52 135.16C415.87 130.86 416.23 131.74 426.59 127.44C436.94 123.14 435.81 120.41 446.16 116.11C453.74 112.96 461.55 117.81 464.76 123.38C467.97 128.95 466.17 135.39 459.65 140.38C450.76 147.2 451.67 148.39 442.77 155.2C433.87 162.01 434.12 162.34 425.23 169.16C416.33 175.98 416.05 175.61 407.15 182.43C398.25 189.25 397.76 188.6 388.86 195.42C378.34 203.48 383.39 222.08 396.53 223.8C407.64 225.26 407.93 223.07 419.04 224.53C430.15 225.99 429.82 228.52 440.93 229.98C452.04 231.44 452.25 229.82 463.37 231.28C474.49 232.74 474.61 231.78 485.72 233.24C493.86 234.31 499.59 242 499.59 248.42C499.59 254.84 493.69 261.27 485.55 262.34C474.44 263.8 474.32 262.92 463.21 264.38C452.1 265.84 452.15 266.26 441.04 267.72C429.93 269.18 429.91 269.05 418.8 270.5C407.69 271.96 407.64 271.58 396.52 273.04C383.38 274.76 378.01 293.77 388.53 301.83C397.42 308.65 399.45 306 408.34 312.82C417.23 319.64 415.76 321.56 424.65 328.38C433.54 335.2 433.81 334.85 442.71 341.67C451.61 348.49 450.81 349.52 459.71 356.34C466.23 361.33 467.8 367.81 464.59 373.38C461.38 378.94 454.15 382.8 446.57 379.66C436.22 375.37 435.84 376.27 425.49 371.98C415.14 367.69 416.27 364.96 405.92 360.67C395.57 356.38 395.35 356.9 385 352.61C374.65 348.32 374.46 348.76 364.11 344.46C351.87 339.38 339.34 352.05 344.42 364.29C348.71 374.64 349.05 374.5 353.35 384.85C357.65 395.2 358.37 394.9 362.67 405.25C366.97 415.6 367.47 415.4 371.76 425.75C376.06 436.1 376.35 435.98 380.65 446.33C383.8 453.91 378.44 461.21 372.87 464.43C367.3 467.65 360.85 466.68 355.85 460.17C349.03 451.28 346.49 453.23 339.67 444.33C332.85 435.43 334.71 434.01 327.89 425.12C321.07 416.22 321.86 415.62 315.04 406.72C308.22 397.82 305.87 399.63 299.05 390.73C290.99 380.21 277.41 384.03 275.69 397.17C274.23 408.28 271.29 407.9 269.84 419.01C268.39 430.12 270.9 430.45 269.45 441.56C268 452.67 265.54 452.35 264.08 463.47C262.62 474.59 263.42 474.69 261.97 485.8C260.9 493.94 254.59 497.18 248.17 497.18C241.75 497.18 234.6 494.05 233.53 485.91C232.07 474.8 233.72 474.58 232.26 463.47C230.8 452.36 229.8 452.49 228.34 441.38C226.88 430.27 228.32 430.08 226.86 418.96C225.4 407.84 225.76 407.8 224.3 396.69C222.58 383.55 204.3 379.42 196.24 389.94C189.42 398.83 189.13 398.61 182.31 407.51C175.49 416.41 176.03 416.82 169.21 425.71C162.39 434.61 163.05 435.11 156.24 444.01C149.43 452.91 149.87 453.25 143.06 462.15C138.07 468.67 129.01 467.67 123.45 464.46C117.89 461.25 112.8 454.03 115.95 446.45C120.24 436.1 121.26 436.52 125.55 426.17C129.85 415.82 131.22 416.39 135.51 406.04C139.81 395.69 138.4 395.1 142.69 384.75C146.99 374.4 147.98 374.81 152.28 364.46C157.36 352.22 144.02 338.34 131.78 343.42C121.43 347.71 121.83 348.67 111.48 352.97C101.13 357.27 101.39 357.89 91.0403 362.18C80.6903 366.47 80.8603 366.9 70.5103 371.19C60.1603 375.48 59.2103 373.21 48.8603 377.5C41.2803 380.65 33.7003 379.69 30.4803 374.13C27.2703 368.57 29.2503 360.25 35.7703 355.25C44.6603 348.43 45.3203 349.29 54.2103 342.47C63.1003 335.65 62.2003 334.47 71.0903 327.65C79.9803 320.83 79.5003 320.2 88.3903 313.38C97.2903 306.56 98.5803 308.25 107.48 301.44C118 293.38 112.61 277.36 99.4703 275.64C88.3603 274.18 88.7503 271.23 77.6303 269.78C66.5103 268.33 66.2003 270.76 55.0903 269.31C43.9803 267.85 44.1803 266.32 33.0603 264.87C21.9503 263.41 21.7003 265.29 10.5903 263.84C2.45031 262.77 0.570312 254.88 0.570312 248.46C0.570312 242.04 2.83031 237.07 10.9703 236C22.0803 234.54 22.0503 234.29 33.1603 232.84C44.2703 231.39 43.9303 228.77 55.0403 227.31C66.1503 225.85 66.4403 228.04 77.5503 226.58C88.6603 225.12 88.3903 223 99.5003 221.54C112.64 219.82 116.28 205.75 105.76 197.69C96.8703 190.87 96.9803 190.72 88.0903 183.91C79.2003 177.1 81.0903 174.62 72.2003 167.8C63.3003 160.98 63.0403 161.32 54.1503 154.5C45.2503 147.68 44.0503 149.26 35.1503 142.44C28.6303 137.45 27.1103 128.25 30.3203 122.69C33.5303 117.13 42.6703 112.86 50.2503 116.01C60.6003 120.3 60.0203 121.7 70.3703 125.99C80.7203 130.28 81.2103 129.1 91.5603 133.4C101.91 137.7 101.85 137.86 112.2 142.15C122.55 146.44 122.39 146.85 132.74 151.14C144.98 156.22 157.58 144.59 152.51 132.35C148.22 122 148.39 121.93 144.09 111.58C139.79 101.23 137.79 102.06 133.5 91.7102C129.21 81.3602 131.31 80.4802 127.02 70.1301C122.73 59.7801 121.76 60.1802 117.47 49.8202C114.32 42.2402 117.11 34.3302 122.67 31.1102C128.23 27.9002 136.6 29.3502 141.6 35.8602C148.42 44.7502 148.02 45.0602 154.83 53.9602C161.65 62.8602 162.38 62.2902 169.2 71.1902C176.02 80.0902 174.63 81.1502 181.45 90.0402C188.27 98.9302 189.46 98.0202 196.28 106.92C204.34 117.44 219.98 113 221.7 99.8602C223.16 88.7502 223.19 88.7502 224.65 77.6402C226.11 66.5302 226.59 66.5902 228.05 55.4802C229.51 44.3702 229.61 44.3802 231.62 33.3502C233.64 22.2802 234.45 22.4002 235.91 11.2902L235.94 11.2602Z" fill="white"/>
<path d="M235.94 11.2602C237.01 3.12016 241.76 0.410156 248.19 0.410156C254.62 0.410156 260.63 2.95016 261.7 11.0902C263.16 22.2002 263.98 22.0902 265.44 33.2102C266.9 44.3202 268.31 44.1402 269.77 55.2502C271.23 66.3602 269.41 66.6002 270.87 77.7202C272.33 88.8402 271.46 88.9502 272.91 100.06C274.63 113.2 290.83 116.5 298.89 105.98C305.71 97.0902 308.59 99.3002 315.41 90.4002C322.23 81.5002 320.04 79.8302 326.85 70.9302C333.66 62.0302 333.47 61.8802 340.28 52.9802C347.09 44.0802 347.54 44.4202 354.36 35.5202C359.35 29.0002 366.9 29.9602 372.47 33.1702C378.03 36.3802 383.93 42.9802 380.78 50.5602C376.49 60.9102 376.31 60.8402 372.02 71.1902C367.72 81.5402 367.49 81.4402 363.19 91.7902C358.89 102.14 358.49 101.97 354.19 112.33C349.89 122.69 348.26 122 343.96 132.36C338.88 144.6 352.44 158.76 364.68 153.68C375.03 149.39 374.15 147.27 384.5 142.98C394.85 138.69 395.17 139.46 405.52 135.16C415.87 130.86 416.23 131.74 426.59 127.44C436.94 123.14 435.81 120.41 446.16 116.11C453.74 112.96 461.55 117.81 464.76 123.38C467.97 128.95 466.17 135.39 459.65 140.38C450.76 147.2 451.67 148.39 442.77 155.2C433.87 162.01 434.12 162.34 425.23 169.16C416.33 175.98 416.05 175.61 407.15 182.43C398.25 189.25 397.76 188.6 388.86 195.42C378.34 203.48 383.39 222.08 396.53 223.8C407.64 225.26 407.93 223.07 419.04 224.53C430.15 225.99 429.82 228.52 440.93 229.98C452.04 231.44 452.25 229.82 463.37 231.28C474.49 232.74 474.61 231.78 485.72 233.24C493.86 234.31 499.59 242 499.59 248.42C499.59 254.84 493.69 261.27 485.55 262.34C474.44 263.8 474.32 262.92 463.21 264.38C452.1 265.84 452.15 266.26 441.04 267.72C429.93 269.18 429.91 269.05 418.8 270.5C407.69 271.96 407.64 271.58 396.52 273.04C383.38 274.76 378.01 293.77 388.53 301.83C397.42 308.65 399.45 306 408.34 312.82C417.23 319.64 415.76 321.56 424.65 328.38C433.54 335.2 433.81 334.85 442.71 341.67C451.61 348.49 450.81 349.52 459.71 356.34C466.23 361.33 467.8 367.81 464.59 373.38C461.38 378.94 454.15 382.8 446.57 379.66C436.22 375.37 435.84 376.27 425.49 371.98C415.14 367.69 416.27 364.96 405.92 360.67C395.57 356.38 395.35 356.9 385 352.61C374.65 348.32 374.46 348.76 364.11 344.46C351.87 339.38 339.34 352.05 344.42 364.29C348.71 374.64 349.05 374.5 353.35 384.85C357.65 395.2 358.37 394.9 362.67 405.25C366.97 415.6 367.47 415.4 371.76 425.75C376.06 436.1 376.35 435.98 380.65 446.33C383.8 453.91 378.44 461.21 372.87 464.43C367.3 467.65 360.85 466.68 355.85 460.17C349.03 451.28 346.49 453.23 339.67 444.33C332.85 435.43 334.71 434.01 327.89 425.12C321.07 416.22 321.86 415.62 315.04 406.72C308.22 397.82 305.87 399.63 299.05 390.73C290.99 380.21 277.41 384.03 275.69 397.17C274.23 408.28 271.29 407.9 269.84 419.01C268.39 430.12 270.9 430.45 269.45 441.56C268 452.67 265.54 452.35 264.08 463.47C262.62 474.59 263.42 474.69 261.97 485.8C260.9 493.94 254.59 497.18 248.17 497.18C241.75 497.18 234.6 494.05 233.53 485.91C232.07 474.8 233.72 474.58 232.26 463.47C230.8 452.36 229.8 452.49 228.34 441.38C226.88 430.27 228.32 430.08 226.86 418.96C225.4 407.84 225.76 407.8 224.3 396.69C222.58 383.55 204.3 379.42 196.24 389.94C189.42 398.83 189.13 398.61 182.31 407.51C175.49 416.41 176.03 416.82 169.21 425.71C162.39 434.61 163.05 435.11 156.24 444.01C149.43 452.91 149.87 453.25 143.06 462.15C138.07 468.67 129.01 467.67 123.45 464.46C117.89 461.25 112.8 454.03 115.95 446.45C120.24 436.1 121.26 436.52 125.55 426.17C129.85 415.82 131.22 416.39 135.51 406.04C139.81 395.69 138.4 395.1 142.69 384.75C146.99 374.4 147.98 374.81 152.28 364.46C157.36 352.22 144.02 338.34 131.78 343.42C121.43 347.71 121.83 348.67 111.48 352.97C101.13 357.27 101.39 357.89 91.0403 362.18C80.6903 366.47 80.8603 366.9 70.5103 371.19C60.1603 375.48 59.2103 373.21 48.8603 377.5C41.2803 380.65 33.7003 379.69 30.4803 374.13C27.2703 368.57 29.2503 360.25 35.7703 355.25C44.6603 348.43 45.3203 349.29 54.2103 342.47C63.1003 335.65 62.2003 334.47 71.0903 327.65C79.9803 320.83 79.5003 320.2 88.3903 313.38C97.2903 306.56 98.5803 308.25 107.48 301.44C118 293.38 112.61 277.36 99.4703 275.64C88.3603 274.18 88.7503 271.23 77.6303 269.78C66.5103 268.33 66.2003 270.76 55.0903 269.31C43.9803 267.85 44.1803 266.32 33.0603 264.87C21.9503 263.41 21.7003 265.29 10.5903 263.84C2.45031 262.77 0.570312 254.88 0.570312 248.46C0.570312 242.04 2.83031 237.07 10.9703 236C22.0803 234.54 22.0503 234.29 33.1603 232.84C44.2703 231.39 43.9303 228.77 55.0403 227.31C66.1503 225.85 66.4403 228.04 77.5503 226.58C88.6603 225.12 88.3903 223 99.5003 221.54C112.64 219.82 116.28 205.75 105.76 197.69C96.8703 190.87 96.9803 190.72 88.0903 183.91C79.2003 177.1 81.0903 174.62 72.2003 167.8C63.3003 160.98 63.0403 161.32 54.1503 154.5C45.2503 147.68 44.0503 149.26 35.1503 142.44C28.6303 137.45 27.1103 128.25 30.3203 122.69C33.5303 117.13 42.6703 112.86 50.2503 116.01C60.6003 120.3 60.0203 121.7 70.3703 125.99C80.7203 130.28 81.2103 129.1 91.5603 133.4C101.91 137.7 101.85 137.86 112.2 142.15C122.55 146.44 122.39 146.85 132.74 151.14C144.98 156.22 157.58 144.59 152.51 132.35C148.22 122 148.39 121.93 144.09 111.58C139.79 101.23 137.79 102.06 133.5 91.7102C129.21 81.3602 131.31 80.4802 127.02 70.1301C122.73 59.7801 121.76 60.1802 117.47 49.8202C114.32 42.2402 117.11 34.3302 122.67 31.1102C128.23 27.9002 136.6 29.3502 141.6 35.8602C148.42 44.7502 148.02 45.0602 154.83 53.9602C161.65 62.8602 162.38 62.2902 169.2 71.1902C176.02 80.0902 174.63 81.1502 181.45 90.0402C188.27 98.9302 189.46 98.0202 196.28 106.92C204.34 117.44 219.98 113 221.7 99.8602C223.16 88.7502 223.19 88.7502 224.65 77.6402C226.11 66.5302 226.59 66.5902 228.05 55.4802C229.51 44.3702 229.61 44.3802 231.62 33.3502C233.64 22.2802 234.45 22.4002 235.91 11.2902L235.94 11.2602Z" stroke="white" stroke-width="0.83"/>
</g>
<defs>
<clipPath id="clip0_1499_28929">
<rect width="499.83" height="497.57" fill="white" transform="translate(0.179688)"/>
</clipPath>
</defs>
</svg>
