<svg width="643" height="319" viewBox="0 0 643 319" fill="none" xmlns="http://www.w3.org/2000/svg">
<path d="M99.6846 2.08398C106.289 1.07178 112.729 1.18616 119.069 1.85938C125.976 2.59092 132.509 4.4675 139.004 7.18652L140.164 7.68164C145.563 10.0311 150.775 12.9335 155.84 16.6406L156.923 17.4482L157.909 18.208C162.821 22.0487 167.452 26.5148 171.979 31.6289L172.829 32.5801C174.827 34.7869 176.914 36.912 178.972 39.0879C181.317 41.5677 183.616 44.1029 185.65 46.8535C189.697 52.3244 193.228 58.2442 196.846 63.9795C200.483 69.7455 203.714 75.7575 206.985 81.709C210.268 87.6752 213.09 93.8882 216.079 99.9775C217.571 103.017 219.244 105.971 220.901 108.956C222.556 111.935 224.192 114.941 225.597 118.059C228.394 124.26 230.758 130.729 233.399 136.923C234.735 140.054 235.945 143.252 237.146 146.438C238.349 149.628 239.542 152.807 240.847 155.92V155.921C242.114 158.948 243.508 161.943 244.916 164.957C246.323 167.968 247.744 170.998 249.06 174.079C251.691 180.24 253.926 186.444 256.651 192.499C259.328 198.445 261.836 204.533 264.658 210.325C264.695 210.312 264.735 210.301 264.776 210.286C264.905 210.241 265.057 210.187 265.181 210.152C265.239 210.136 265.32 210.115 265.4 210.108C265.438 210.105 265.512 210.102 265.596 210.121C265.677 210.14 265.864 210.205 265.959 210.416L265.961 210.421C268.492 216.201 270.748 221.817 273.354 227.062C274.767 229.905 275.995 232.789 277.225 235.576C278.457 238.37 279.694 241.07 281.134 243.582L281.729 244.604C284.736 249.683 288.121 254.28 291.2 258.811C294.791 264.098 298.266 269.124 301.96 273.529C306.072 278.438 310.372 282.807 314.618 286.649C319.354 290.936 324.601 294.01 329.539 296.977L331.586 298.198C336.341 301.013 340.961 303.539 345.823 304.893C351.703 306.527 357.801 306.884 363.848 306.593L364.435 306.559C370.493 306.154 376.405 304.074 382.619 301.701C388.425 299.481 394.465 297.115 400.166 293.236C405.287 289.755 410.591 285.847 415.587 281.079C420.076 276.797 423.855 271.444 428.272 266.07C432.168 261.334 436.365 256.657 440.028 251.294C443.473 246.244 446.671 240.807 449.931 235.189C451.481 232.514 453.211 229.877 454.9 227.208C456.594 224.532 458.254 221.813 459.688 218.943V218.942C462.442 213.433 464.777 207.545 467.352 201.61C468.575 198.788 469.604 195.848 470.613 192.851C471.621 189.859 472.611 186.805 473.748 183.786C475.948 177.953 478.349 172.138 480.339 166.056C480.552 165.404 480.57 165.065 480.59 164.7C480.612 164.291 480.638 163.857 480.889 163.09C481.141 162.313 481.822 161.656 482.562 161.253C483.299 160.851 484.223 160.63 485.02 160.893H485.019C486.535 161.388 487.204 161.987 487.835 162.554C488.42 163.08 488.967 163.574 490.293 164.007L490.531 164.088C491.091 164.287 491.665 164.558 492.079 164.947C492.322 165.176 492.524 165.458 492.625 165.803C492.727 166.151 492.714 166.525 492.587 166.915V166.916C492.32 167.732 491.965 168.095 491.649 168.415C491.378 168.69 491.146 168.922 490.949 169.523C489.969 172.521 489.156 175.547 488.314 178.557C487.475 181.56 486.609 184.543 485.528 187.424C484.448 190.305 483.114 193.175 481.757 196.016C480.397 198.862 479.015 201.674 477.823 204.465C475.339 210.275 473.215 216.201 470.531 221.67C467.736 227.367 465.24 233.158 462.25 238.454C459.1 244.033 455.904 249.438 452.572 254.502C449.036 259.876 445.417 265.019 441.7 269.784C437.712 274.898 433.181 279.308 429.059 283.637C424.576 288.344 419.908 292.503 415.267 296.294C410.56 300.141 405.95 303.869 401.1 306.796L400.127 307.37C394.499 310.615 388.748 313.331 382.993 315.18C376.852 317.155 370.511 317.529 364.398 317.827C363.914 317.851 363.425 317.983 362.867 318.128C362.65 318.184 362.422 318.239 362.187 318.289L362.322 318.425H361.115C354.355 318.425 347.914 316.452 341.436 314.478V314.477C335.293 312.606 328.762 310.834 322.732 307.15C317.302 303.833 311.699 299.969 306.446 295.188V295.188C302.513 291.612 298.734 287.486 294.967 283.08L293.354 281.176C291.377 278.827 289.66 276.204 287.975 273.497C286.284 270.782 284.632 267.992 282.763 265.263H282.762C279.571 260.598 275.758 255.927 272.561 250.627L271.93 249.559C270.389 246.886 269.048 244.049 267.729 241.155C266.408 238.256 265.112 235.304 263.647 232.367C262.285 229.634 260.699 226.954 259.111 224.184C257.527 221.42 255.946 218.575 254.617 215.543V215.542C251.689 209.573 248.868 203.478 246.102 197.337C244.717 194.262 243.6 191.069 242.507 187.892C241.411 184.708 240.339 181.541 239.035 178.483C237.725 175.414 236.08 172.486 234.428 169.54C232.78 166.602 231.125 163.645 229.827 160.553C228.541 157.487 227.485 154.319 226.428 151.169C225.501 148.408 224.574 145.659 223.487 142.979L223.012 141.833C220.401 135.712 218.045 129.538 215.324 123.478C212.604 117.428 209.332 111.693 206.396 105.692C204.936 102.707 203.589 99.6473 202.218 96.624C200.844 93.5959 199.442 90.5978 197.862 87.7109C194.68 81.8945 191.198 76.2131 187.679 70.6094C185.93 67.8232 183.894 65.2263 181.795 62.6494C179.701 60.0796 177.537 57.5208 175.564 54.8408C171.641 49.5123 167.544 44.3919 163.159 39.4219V39.4229C158.56 34.225 154.325 29.3313 149.395 25.6836C144.25 21.8786 138.992 18.6661 133.534 16.5L132.439 16.0801C127.33 14.1904 121.947 13.2106 116.543 12.7598C111.598 12.3493 106.557 12.7861 101.415 13.6348L100.386 13.8105C94.1446 14.9064 87.9017 16.9297 81.6455 19.7686C76.2482 22.2182 70.8403 25.1709 65.5645 28.8223L64.5107 29.5615C59.3423 33.2465 54.1776 37.3902 49.2549 42.1748L49.2559 42.1758C44.1748 47.1242 39.7029 52.8209 35.248 58.6201C30.7617 64.4603 25.9238 69.8144 22.3564 76.0479C18.9709 81.9676 16.1185 88.2334 13.6172 94.4502L13.1221 95.6924C12.8406 96.4056 12.6687 96.7548 12.5 97.0977C12.3785 97.3445 12.259 97.588 12.0938 97.9805L11.9111 98.4287C11.66 99.0663 11.2914 99.7195 10.7793 100.151C10.2388 100.607 9.53511 100.812 8.73926 100.497C7.33712 99.9427 6.64978 99.6204 5.9668 99.3008C5.29409 98.9859 4.62508 98.6731 3.24609 98.1289C2.51287 97.8401 1.93259 97.2499 1.60254 96.5664C1.27225 95.8824 1.17244 95.061 1.4707 94.3066L1.58691 94.0332C1.85905 93.4403 2.13922 93.1401 2.39844 92.8652C2.65473 92.5935 2.88277 92.3549 3.12402 91.7461C5.24116 86.3998 7.59559 81.091 10.3369 75.8975L12.3643 72.0605C14.4089 68.2202 16.5311 64.3888 18.9561 60.7373C22.1834 55.8776 25.7041 51.2128 29.3828 46.748C33.0745 42.2676 37.3992 38.2005 41.4961 34.21C46.9461 28.9038 52.2337 23.7377 58.043 19.6357C64.319 15.1974 71.068 12.1757 77.5059 9.29785C84.4555 6.19428 91.2967 3.53946 98.3623 2.30176L99.6846 2.08398Z" fill="white" stroke="white"/>
<path d="M173.32 2.07764C180.4 0.832948 187.312 1.26022 194.054 1.97607C200.89 2.70016 207.888 3.43611 214.426 6.17334C220.955 8.90669 226.276 13.0238 231.988 17.3569C237.22 21.3285 242.944 25.4218 247.79 30.9028L247.791 30.9038C251.967 35.6403 256.14 40.4375 259.929 45.4683C261.834 47.9981 263.504 50.705 265.122 53.4253C266.744 56.1526 268.309 58.8854 270.019 61.5034C271.733 64.1271 273.568 66.678 275.378 69.272C277.185 71.8607 278.961 74.4856 280.541 77.231C283.675 82.6787 286.856 88.1569 289.748 93.77C291.208 96.6037 292.304 99.6045 293.365 102.585C294.43 105.576 295.457 108.543 296.786 111.362C299.131 116.336 301.527 121.294 303.792 126.313L304.755 128.468L305.71 130.624C307.631 134.931 309.608 139.227 311.48 143.554L312.407 145.72L313.335 147.892C314.271 150.06 315.229 152.218 316.186 154.376C317.46 157.252 318.732 160.129 319.939 163.026L320.355 164.002C321.345 166.277 322.458 168.517 323.583 170.776C324.866 173.353 326.164 175.955 327.294 178.636C328.42 181.308 329.28 184.097 330.141 186.852C331.004 189.615 331.867 192.346 333.004 194.947C334.14 197.545 335.58 200.033 337.049 202.534C338.513 205.026 340.006 207.536 341.219 210.144C342.565 213.04 343.646 216.006 344.726 218.879C345.808 221.761 346.888 224.552 348.243 227.143C351.19 232.77 354.398 237.999 357.437 243.056C360.721 248.524 364.348 253.442 367.737 258.243C371.447 263.49 375.191 268.299 378.993 272.691L379.787 273.6C383.755 278.114 387.769 282.13 391.827 285.706C396.064 289.438 400.516 292.315 404.905 294.936L406.781 296.045L408.856 297.262C413.661 300.068 418.232 302.599 423.13 303.92C429.067 305.524 435.061 305.392 441.169 305.035C447.347 304.666 453.65 304.357 459.698 302.017C465.268 299.861 470.741 296.584 476.249 292.827L476.25 292.826C481.207 289.448 486.277 285.604 491.078 281.02L492.729 279.442C496.598 275.728 500.583 271.771 504.256 267.318C506.171 264.996 507.884 262.423 509.588 259.738C511.287 257.061 512.983 254.261 514.843 251.529C518.313 246.423 522.259 241.482 525.518 235.82C528.575 230.508 531.098 224.699 534.01 218.822L536.069 214.642C538.128 210.429 540.172 206.109 542.096 201.638C544.541 195.96 546.9 190.074 549.17 184.011L549.171 184.01C551.35 178.202 553.465 172.225 555.474 166.087C555.674 165.474 555.637 165.148 555.598 164.771C555.552 164.333 555.503 163.845 555.767 163.037C556.03 162.227 556.745 161.678 557.494 161.388C558.248 161.096 559.139 161.023 559.885 161.265H559.886C561.278 161.72 561.996 161.851 562.726 161.986C563.479 162.125 564.244 162.267 565.692 162.743H565.693C566.494 163.003 567.089 163.723 567.427 164.478C567.744 165.189 567.884 166.041 567.694 166.775L567.652 166.92C567.425 167.616 567.334 167.968 567.242 168.325C567.147 168.693 567.051 169.067 566.814 169.791C564.767 176.05 562.432 182.116 560.193 188.069C557.952 194.031 555.5 200.28 552.983 206.12C550.465 211.965 547.428 218.007 544.625 223.671C541.811 229.358 538.145 235.116 535.031 240.558L535.03 240.559C532.13 245.625 529.108 250.416 526.047 255.03L524.733 256.997C521.003 262.538 517.416 267.92 513.474 272.799C511.6 275.117 509.903 277.516 508.168 279.857C506.439 282.189 504.679 284.454 502.703 286.454C498.721 290.486 494.125 293.629 490.023 296.8L489.21 297.435C484.512 301.136 480.048 305.012 475.175 307.731C469.902 310.671 464.383 312.768 459.063 314.449V314.45C453.349 316.25 447.458 316.229 441.848 316.562C441.293 316.595 440.73 316.855 440.05 317.167C439.622 317.362 439.141 317.579 438.631 317.702L438.696 317.833H437.887C431.664 317.833 425.313 317.211 419.164 315.514L417.938 315.161C411.742 313.297 406.12 309.393 400.201 305.851C394.858 302.654 388.614 299.762 383.319 295.075V295.076C378.726 291.014 374.75 285.77 370.354 280.712C366.332 276.08 362.374 271.026 358.478 265.547V265.546C354.936 260.556 350.954 255.439 347.495 249.7C344.302 244.402 341.091 238.808 337.997 232.915C335.109 227.406 332.548 221.472 329.767 215.483C328.545 212.851 327.551 210.106 326.575 207.369C325.597 204.624 324.638 201.889 323.479 199.242C322.32 196.598 320.935 194.06 319.548 191.5C318.337 189.265 317.126 187.012 316.082 184.68L315.646 183.676C314.508 180.978 313.473 178.245 312.448 175.531C311.423 172.814 310.409 170.117 309.309 167.475C308.135 164.654 306.897 161.851 305.65 159.042C304.405 156.233 303.15 153.416 301.948 150.574C299.566 144.929 297.093 139.305 294.612 133.672C292.14 128.057 289.519 122.511 286.904 116.946V116.945C285.592 114.149 284.413 111.287 283.219 108.458C282.022 105.623 280.808 102.816 279.417 100.106C276.619 94.6546 273.195 89.5722 270.12 84.1987C267.03 78.795 264.476 73.2481 261.137 68.1138C257.796 62.978 254.309 57.8728 250.627 52.9722C247.412 48.6916 243.955 44.5589 240.413 40.5044L238.891 38.772C234.347 33.6368 228.962 29.9665 223.958 26.2593C218.583 22.2838 213.676 18.2105 208.075 16.0054L207.531 15.7974C202.452 13.919 196.963 13.971 191.469 13.5122C186.17 13.0698 181.05 12.3613 175.79 13.187L175.28 13.271C169.414 14.3001 163.368 16.0094 157.488 18.5503L156.315 19.0698C153.469 20.3616 150.786 22.1129 148.1 24.0532C146.757 25.0233 145.418 26.037 144.058 27.063C142.699 28.0877 141.321 29.1239 139.906 30.1323C135.053 33.5922 130.19 37.2904 125.554 41.6821L124.63 42.5698C119.486 47.5795 113.911 52.2893 109.486 58.0493C105.06 63.8119 101.773 70.2283 98.168 76.5229C94.5912 82.7677 91.4699 89.3763 88.8535 95.9917C88.5757 96.6956 88.4226 97.0436 88.2705 97.3882C88.1214 97.726 87.9723 98.0604 87.7012 98.7476C87.4129 99.4796 86.7429 100.171 86.0068 100.615C85.2831 101.051 84.3468 101.333 83.5322 101.008C82.1165 100.448 81.4362 100.076 80.7656 99.7075C80.1152 99.3505 79.4737 98.9983 78.1084 98.4595C77.3179 98.1482 76.8463 97.4449 76.6387 96.7046C76.4312 95.9648 76.4642 95.1221 76.7432 94.4136L76.9404 93.937C77.1215 93.5185 77.2606 93.2572 77.3975 93.0015C77.57 92.6791 77.7379 92.3668 78.0029 91.6978C80.1048 86.3899 82.0462 80.8199 84.7939 75.6089C87.5016 70.4724 91.2817 65.8512 94.4639 61.0728L95.0742 60.1646C98.1408 55.6399 101.461 51.3619 104.912 47.1792C106.765 44.9306 108.463 42.5665 110.233 40.2329C111.997 37.9086 113.823 35.6291 115.904 33.6021L116.939 32.6118C122.144 27.7163 127.777 23.6529 133.183 19.8325C139.408 15.4299 145.549 11.1772 152.049 8.27393C159.038 5.15273 166.298 3.30875 173.32 2.07764Z" fill="white" stroke="white"/>
<path d="M251.086 2.46533C257.171 1.35241 263.215 0.22325 269.183 0.856934C276.085 1.58803 282.938 3.45241 289.438 6.17334C295.66 8.77868 301.529 12.6586 307.266 17.0161L307.76 17.396C312.848 21.3584 317.285 26.4324 321.932 31.688H321.933C326.451 36.8092 330.885 41.9329 334.932 47.4028C338.993 52.8929 342.608 58.6383 346.233 64.3853C349.614 69.7443 353.324 74.9887 356.484 80.5454L357.109 81.6606L358.333 83.8989C361.176 89.1292 363.929 94.4179 366.556 99.7642C369.535 105.83 372.881 111.845 375.673 118.042C377.082 121.166 378.272 124.379 379.438 127.58C380.607 130.785 381.751 133.975 383.075 137.078C385.727 143.289 388.574 149.554 391.189 155.792L391.671 156.925C392.81 159.564 394.049 162.178 395.3 164.807C396.728 167.809 398.171 170.83 399.488 173.914V173.915C402.094 180.016 404.93 186.012 407.655 192.067C410.404 198.172 413.099 204.228 415.991 210.124H415.99C416.105 210.356 416.006 210.559 415.971 210.62C415.928 210.693 415.876 210.744 415.85 210.769C415.791 210.824 415.719 210.873 415.663 210.91C415.545 210.988 415.389 211.078 415.252 211.157C415.189 211.193 415.13 211.228 415.075 211.26C417.545 216.887 420.044 222.316 422.599 227.462L422.862 227.984C424.2 230.578 425.805 232.982 427.434 235.341C429.165 237.849 430.932 240.318 432.398 242.877C435.568 248.399 438.474 253.678 441.729 258.469C445.302 263.73 449.199 268.313 452.916 272.75C457.042 277.676 460.993 282.167 465.228 285.999C470.047 290.361 474.246 294.775 479.119 297.702C484.569 300.971 490.187 303.574 495.766 305.127L496.314 305.273C501.995 306.716 507.882 306.148 513.817 305.862C520.188 305.552 526.751 305.316 533.079 302.896C538.824 300.699 544.426 297.176 550.184 293.263C555.327 289.767 560.877 286.138 565.865 281.377C568.089 279.256 570.028 276.739 571.969 274.067C573.902 271.405 575.845 268.58 578.05 265.9C581.92 261.194 585.72 256.24 589.385 250.868C591.126 248.314 593.145 245.875 595.113 243.4C597.088 240.916 599.02 238.385 600.63 235.611C602.153 232.982 603.335 230.115 604.504 227.159C605.669 224.212 606.823 221.173 608.28 218.255V218.254C611.042 212.73 613.801 207.097 616.355 201.195C618.922 195.266 621.446 189.787 623.707 183.786C624.809 180.864 626.101 177.979 627.358 175.082C628.619 172.178 629.847 169.256 630.837 166.231C631.02 165.67 630.927 165.356 630.806 164.948C630.668 164.484 630.503 163.926 630.783 163.069C631.043 162.27 631.761 161.67 632.516 161.328C633.274 160.984 634.194 160.841 634.963 161.095H634.962C636.407 161.567 637.11 161.889 637.804 162.207C638.478 162.515 639.143 162.82 640.538 163.276H640.539C642.053 163.768 642.774 165.36 642.295 166.834V166.835C642.088 167.469 642.098 167.802 642.106 168.17C642.116 168.594 642.125 169.053 641.868 169.838C639.896 175.874 637.545 181.689 635.412 187.391C633.184 193.348 630.808 199.116 628.411 204.726V204.727C625.903 210.593 623.129 216.185 620.453 221.643C617.99 226.662 615.478 231.519 612.887 236.199L611.771 238.193C608.613 243.787 605.022 248.907 601.71 253.942C598.166 259.328 594.316 264.198 590.618 268.941C586.654 274.024 582.862 278.932 578.708 283.295C574.533 287.68 570.545 292.006 566.223 295.667L565.354 296.389C560.312 300.51 555.19 304.127 549.994 307.125C544.383 310.36 538.776 313.337 533.005 315.195V315.196C526.861 317.172 520.509 317.432 514.404 317.725L514.405 317.726C513.377 317.776 512.362 317.811 511.33 317.815L511.323 317.823H511.116C504.387 317.823 497.894 316.714 491.363 314.728C484.818 312.738 479.258 309.926 473.272 306.27C467.856 302.961 462.241 299.394 456.981 294.607C452.497 290.529 448.048 285.989 443.738 280.861V280.86C439.853 276.242 435.481 271.504 431.707 265.994V265.993C428.252 260.942 425.182 255.304 421.889 249.59C419.206 244.937 416.895 239.86 414.4 234.74L413.318 232.543C411.955 229.81 410.377 227.122 408.797 224.345C407.224 221.581 405.656 218.735 404.329 215.711C401.399 209.74 398.495 203.665 395.724 197.519V197.518C394.343 194.449 393.139 191.297 391.956 188.155C390.771 185.008 389.607 181.871 388.3 178.808C385.674 172.652 382.79 166.493 380.234 160.393C378.317 155.822 376.414 151.231 374.479 146.641L372.533 142.052C369.938 135.966 367.225 129.921 364.499 123.867C363.132 120.828 361.941 117.704 360.733 114.612C359.524 111.515 358.298 108.446 356.852 105.49C353.931 99.5152 351.062 93.5122 347.896 87.7163C346.315 84.8269 344.461 82.089 342.555 79.3628C340.652 76.6431 338.692 73.9275 336.923 71.1108C333.84 66.1975 330.588 61.4296 327.194 56.7466L325.731 54.7446C321.761 49.3523 318.354 43.6919 313.971 38.729V38.728C309.994 34.2332 305.428 30.7477 301.004 27.4722L299.119 26.0786C293.598 21.995 288.32 18.1213 282.488 15.9634C277.375 14.0723 271.959 13.008 266.561 12.563C261.31 12.1272 256.061 13.4438 250.488 14.4185C244.169 15.5279 237.601 16.3987 231.385 19.2144V19.2134C225.653 21.8147 220.192 25.6216 214.555 29.6411C209.39 33.3233 204.3 37.527 199.38 42.3198C194.301 47.2666 189.922 53.0017 185.463 58.8062C181.077 64.5179 176.962 70.4143 173.387 76.6616C169.763 82.9982 166.347 89.3575 163.736 95.9585C163.485 96.5957 163.452 96.9323 163.414 97.2944C163.372 97.7029 163.325 98.1383 163.027 98.8931C162.722 99.6675 161.952 100.27 161.161 100.614C160.37 100.957 159.403 101.11 158.628 100.801V100.8C157.191 100.232 156.524 99.7753 155.876 99.3296C155.26 98.9061 154.662 98.4936 153.321 97.9634V97.9624C152.619 97.6853 151.976 97.1505 151.572 96.5044C151.167 95.8565 150.971 95.04 151.286 94.2476C151.613 93.4206 152.058 93.0898 152.438 92.8101C152.767 92.5672 153.031 92.3746 153.254 91.8101L153.643 90.814C155.572 85.8174 157.288 80.5423 159.858 75.6577C162.6 70.4487 166.144 65.8057 169.336 61.0044C172.573 56.1377 176.215 51.6338 179.891 47.1743C183.548 42.7368 187.135 38.0115 191.268 33.9858C196.754 28.6437 202.688 24.3099 208.461 20.228C214.663 15.8421 220.58 11.2601 227.086 8.354C234.095 5.22385 241.502 4.15855 248.476 2.93604L251.086 2.46533Z" fill="white" stroke="white"/>
</svg>
