<svg width="501" height="388" viewBox="0 0 501 388" fill="none" xmlns="http://www.w3.org/2000/svg">
<path d="M432.302 47.4534C432.302 34.7057 442.308 23.877 455.056 23.877C467.803 23.877 477.124 34.7057 477.124 47.4534C477.124 60.2011 467.803 73.6342 455.056 73.6342C442.308 73.6342 432.302 60.2011 432.302 47.4534ZM295.778 47.4534C295.778 34.7057 305.784 23.877 318.532 23.877C331.279 23.877 340.6 34.7057 340.6 47.4534C340.6 60.2011 331.279 73.6342 318.532 73.6342C305.784 73.6342 295.778 60.2011 295.778 47.4534ZM159.253 47.4534C159.253 34.7057 169.26 23.877 182.007 23.877C194.755 23.877 204.076 34.7057 204.076 47.4534C204.076 60.2011 194.755 73.6342 182.007 73.6342C169.26 73.6342 159.253 60.2011 159.253 47.4534Z" fill="white"/>
<path d="M204.076 47.4531C204.076 34.7055 194.755 23.877 182.007 23.877C169.26 23.877 159.254 34.7056 159.253 47.4531C159.253 60.2008 169.26 73.6337 182.007 73.6338C194.755 73.6338 204.076 60.2009 204.076 47.4531ZM340.6 47.4531C340.6 34.7056 331.279 23.877 318.532 23.877C305.784 23.877 295.778 34.7055 295.778 47.4531L295.785 48.0518C296.086 60.4184 305.672 73.2207 317.936 73.624L318.532 73.6338C331.279 73.6337 340.6 60.2008 340.6 47.4531ZM477.125 47.4531C477.124 34.7057 467.804 23.8772 455.056 23.877C442.309 23.877 432.301 34.7055 432.301 47.4531C432.301 60.0018 441.998 73.2144 454.46 73.624L455.056 73.6338C467.604 73.6335 476.832 60.6177 477.118 48.0518L477.125 47.4531ZM227.187 47.4531C227.187 59.1367 223.034 70.7198 215.936 79.6777C208.75 88.7466 197.067 96.7461 182.007 96.7461C167.112 96.7461 155.367 88.9129 148.04 80.0527C140.756 71.2447 136.142 59.5647 136.142 47.4531C136.142 23.0215 155.442 0.765687 182.007 0.765625C209.469 0.765625 227.187 23.9825 227.187 47.4531ZM363.711 47.4531C363.711 59.1368 359.559 70.7198 352.46 79.6777C345.274 88.7466 333.592 96.746 318.532 96.7461C303.637 96.7461 291.891 88.913 284.564 80.0527C277.28 71.2447 272.667 59.5648 272.667 47.4531C272.667 23.0214 291.966 0.765625 318.532 0.765625L319.173 0.769531C346.269 1.12801 363.711 24.1657 363.711 47.4531ZM500.236 47.4531C500.236 59.1367 496.083 70.7198 488.985 79.6777C481.799 88.7466 470.116 96.7459 455.056 96.7461C440.161 96.7461 428.416 88.9129 421.088 80.0527C413.804 71.2447 409.19 59.5649 409.19 47.4531C409.19 23.0213 428.491 0.765625 455.056 0.765625L455.698 0.769531C482.793 1.12818 500.236 24.1659 500.236 47.4531Z" fill="white"/>
<path d="M23.8628 191.424C23.8628 178.676 33.8692 167.848 46.6169 167.848C59.3646 167.848 68.6855 178.676 68.6855 191.424C68.6855 204.172 59.3646 217.605 46.6169 217.605C33.8692 217.605 23.8628 204.172 23.8628 191.424Z" fill="white"/>
<path d="M68.6851 191.424C68.6849 178.676 59.3643 167.848 46.6167 167.848C33.8692 167.848 23.8629 178.676 23.8628 191.424C23.8628 204.171 33.8691 217.604 46.6167 217.604C59.3644 217.604 68.6851 204.172 68.6851 191.424ZM91.7974 191.424C91.7974 203.107 87.6435 214.691 80.5454 223.648C73.3593 232.717 61.6765 240.717 46.6167 240.717C31.7217 240.717 19.9762 232.884 12.6489 224.023C5.36489 215.215 0.751465 203.535 0.751465 191.424C0.751615 166.992 20.0513 144.736 46.6167 144.736C74.078 144.736 91.7972 167.953 91.7974 191.424Z" fill="white"/>
<path d="M432.3 193.065C432.3 180.317 442.306 169.488 455.054 169.488C467.802 169.488 477.123 180.317 477.123 193.065C477.123 205.812 467.802 219.246 455.054 219.246C442.306 219.246 432.3 205.812 432.3 193.065ZM295.776 193.065C295.776 180.317 305.782 169.488 318.53 169.488C331.278 169.488 340.599 180.317 340.599 193.065C340.599 205.812 331.278 219.246 318.53 219.246C305.782 219.246 295.776 205.812 295.776 193.065Z" fill="white"/>
<path d="M340.598 193.064C340.598 180.317 331.277 169.488 318.53 169.488C305.782 169.488 295.776 180.317 295.776 193.064C295.776 205.812 305.782 219.245 318.53 219.245C331.278 219.245 340.598 205.812 340.598 193.064ZM477.123 193.064C477.122 180.317 467.802 169.488 455.054 169.488C442.307 169.488 432.3 180.317 432.3 193.064L432.307 193.663C432.609 206.03 442.194 218.832 454.458 219.235L455.054 219.245C467.802 219.245 477.123 205.812 477.123 193.064ZM363.71 193.064C363.71 204.748 359.557 216.331 352.458 225.289C345.272 234.358 333.59 242.357 318.53 242.357C303.635 242.357 291.889 234.524 284.562 225.664C277.278 216.856 272.665 205.176 272.665 193.064C272.665 168.633 291.964 146.377 318.53 146.377C345.991 146.377 363.71 169.594 363.71 193.064ZM500.234 193.064C500.234 204.748 496.081 216.331 488.983 225.289C481.797 234.358 470.114 242.357 455.054 242.357C440.159 242.357 428.414 234.524 421.086 225.664C413.802 216.856 409.189 205.176 409.189 193.064C409.189 168.633 428.489 146.377 455.054 146.377L455.696 146.381C482.791 146.739 500.234 169.777 500.234 193.064Z" fill="white"/>
<path d="M432.302 338.092C432.302 325.344 442.308 314.516 455.056 314.516C467.803 314.516 477.124 325.344 477.124 338.092C477.124 350.84 467.803 364.273 455.056 364.273C442.308 364.273 432.302 350.84 432.302 338.092ZM295.778 338.092C295.778 325.344 305.784 314.516 318.532 314.516C331.279 314.516 340.6 325.344 340.6 338.092C340.6 350.84 331.279 364.273 318.532 364.273C305.784 364.273 295.778 350.84 295.778 338.092ZM159.253 338.092C159.253 325.344 169.26 314.516 182.007 314.516C194.755 314.516 204.076 325.344 204.076 338.092C204.076 350.84 194.755 364.273 182.007 364.273C169.26 364.273 159.253 350.84 159.253 338.092Z" fill="white"/>
<path d="M204.076 338.092C204.076 325.344 194.755 314.516 182.007 314.516C169.26 314.516 159.254 325.344 159.253 338.092C159.253 350.839 169.26 364.272 182.007 364.272C194.755 364.272 204.076 350.84 204.076 338.092ZM340.6 338.092C340.6 325.344 331.279 314.516 318.532 314.516C305.784 314.516 295.778 325.344 295.778 338.092L295.785 338.69C296.086 351.057 305.672 363.859 317.936 364.263L318.532 364.272C331.279 364.272 340.6 350.839 340.6 338.092ZM477.125 338.092C477.124 325.344 467.804 314.516 455.056 314.516C442.309 314.516 432.301 325.344 432.301 338.092C432.301 350.64 441.998 363.853 454.46 364.263L455.056 364.272C467.604 364.272 476.832 351.256 477.118 338.69L477.125 338.092ZM227.187 338.092C227.187 349.775 223.034 361.358 215.936 370.316C208.75 379.385 197.067 387.385 182.007 387.385C167.112 387.385 155.367 379.552 148.04 370.691C140.756 361.883 136.142 350.203 136.142 338.092C136.142 313.66 155.442 291.404 182.007 291.404C209.469 291.404 227.187 314.621 227.187 338.092ZM363.711 338.092C363.711 349.775 359.559 361.359 352.46 370.316C345.274 379.385 333.592 387.385 318.532 387.385C303.637 387.385 291.891 379.552 284.564 370.691C277.28 361.883 272.667 350.203 272.667 338.092C272.667 313.66 291.966 291.404 318.532 291.404L319.173 291.408C346.269 291.767 363.711 314.804 363.711 338.092ZM500.236 338.092C500.236 349.775 496.083 361.358 488.985 370.316C481.799 379.385 470.116 387.385 455.056 387.385C440.161 387.385 428.416 379.552 421.088 370.691C413.804 361.883 409.19 350.204 409.19 338.092C409.19 313.66 428.491 291.404 455.056 291.404L455.698 291.408C482.793 291.767 500.236 314.805 500.236 338.092Z" fill="white"/>
</svg>
