<svg width="2052" height="243" viewBox="0 0 2052 243" fill="none" xmlns="http://www.w3.org/2000/svg">
<path d="M1045.9 18.6357C1059.83 18.6357 1072.33 19.9317 1083.21 21.3545L1083.21 21.3555C1097.27 23.1876 1109.6 26.3661 1120.45 29.7363L1120.45 29.7383C1133.83 33.9 1145.35 39.2225 1155.62 44.4854H1155.62C1166.76 50.1891 1177.11 56.1189 1187.19 62.291C1198.07 68.9572 1205.35 74.2243 1214.65 79.0889L1215.56 79.5586L1215.56 79.5596C1223.48 83.6228 1232.36 87.1612 1242.56 90.417L1244.62 91.0645L1244.63 91.0664C1253.25 93.7456 1263.22 95.6702 1275.22 97.2324H1275.22C1286.4 98.6852 1296.16 100.256 1307.22 100.256C1318.44 100.256 1328.66 98.9297 1339.26 97.5527C1349.65 96.2008 1358.95 93.8786 1367.89 91.1641L1369.68 90.6162C1380.53 87.2391 1389.51 84.0619 1397.31 80.2363L1398.86 79.4619C1408.99 74.2748 1418.52 68.8944 1427.84 63.1934C1437.75 57.1323 1448.02 51.0868 1459.26 45.3252C1468.8 40.4335 1480.37 34.4178 1494.12 30.1387L1494.13 30.1357C1503.78 27.1382 1516.54 22.8807 1531.2 20.9727H1531.21C1543.36 19.3936 1557.02 19.876 1568.54 19.876C1582.55 19.876 1594.93 21.2695 1605.66 22.6738C1617.13 24.1658 1630.14 25.6165 1642.02 29.1475L1643.17 29.4961L1643.17 29.499C1656.91 33.7722 1668.56 39.7889 1678.15 44.7051H1678.15C1689.45 50.4912 1699.76 56.6429 1709.6 62.666C1718.72 68.244 1728.24 73.3616 1738.65 78.6953L1738.66 78.6992C1748.58 83.7885 1757.25 88.2192 1767.21 91.3184H1767.21C1775.96 94.034 1786 96.0838 1797.83 97.6221H1797.83C1808.76 99.0421 1818.76 100.516 1829.88 100.516H1862.64V140.516H1829.88C1815.6 140.516 1802.68 138.589 1792.68 137.289H1792.67C1779.28 135.548 1766.87 133.098 1755.34 129.516L1755.33 129.513C1741.57 125.232 1729.94 119.183 1720.41 114.292V114.291C1709.62 108.766 1699.08 103.125 1688.72 96.7852C1679.09 90.8883 1669.82 85.3796 1659.91 80.3057L1659.91 80.3018C1650.04 75.2403 1641.28 70.7996 1631.3 67.6943V67.6953C1623.2 65.1809 1613.87 64.0788 1600.5 62.3389L1600.49 62.3369C1590.28 61.0019 1579.93 59.876 1568.54 59.876C1554.67 59.876 1545.14 59.4974 1536.36 60.6377L1536.36 60.6387C1525.83 62.0103 1516.63 65.0305 1506 68.332L1506 68.333C1496.04 71.4326 1487.43 75.8344 1477.51 80.9219L1477.5 80.9258C1467.55 86.0242 1458.25 91.4794 1448.71 97.3184C1438.57 103.516 1428.16 109.395 1417.09 115.066L1417.08 115.069C1405.79 120.851 1393.69 125.036 1381.55 128.812L1381.55 128.815C1370.76 132.167 1358.54 135.381 1344.42 137.219H1344.42C1334.08 138.561 1321.4 140.256 1307.22 140.256C1292.88 140.256 1279.82 138.167 1270.07 136.899L1270.06 136.898C1256.86 135.181 1244.41 132.886 1232.76 129.266V129.265C1220.11 125.339 1208.31 120.797 1197.31 115.152V115.151C1185.87 109.287 1174.52 101.439 1166.3 96.4004C1156.91 90.6525 1147.45 85.2422 1137.38 80.0859H1137.38C1128.18 75.3701 1118.92 71.1535 1108.58 67.9355L1106.8 67.3906C1097.9 64.6931 1088.46 62.3762 1078.03 61.0186L1078.02 61.0166C1067.95 59.6994 1057.37 58.6357 1045.9 58.6357C1034.63 58.6357 1024.27 59.8978 1013.82 61.2559C1002.65 62.7179 992.685 65.2288 983.296 68.1455L983.295 68.1445C973.334 71.2446 964.691 75.6588 954.779 80.7422H954.777C943.294 86.6303 934.287 90.7888 925.419 96.2207C918.109 100.698 906.589 108.89 895.593 114.665L894.531 115.216C883.188 121.027 871.022 125.178 858.954 128.933L858.945 128.936C847.635 132.449 835.398 135.131 821.744 136.908L821.743 136.907C810.199 138.417 797.893 139.056 784.582 139.056C773.183 139.056 759.443 139.6 747.276 138.02L747.271 138.019C733.201 136.187 720.857 133.009 709.999 129.636L709.99 129.633C697.015 125.596 685.353 120.737 674.624 115.235V115.236C663.228 109.398 652.822 102.985 643.216 97.1006C632.681 90.6473 624.4 85.1027 614.704 80.1357H614.703C605.839 75.5946 596.435 71.569 585.819 68.2656L584.202 67.7773C576.037 65.3866 566.619 63.6916 555.221 62.208L555.207 62.207C545.918 60.9916 535.483 60.5059 523.242 60.5059C508.032 60.5059 499.857 59.5563 491.059 60.6992L491.058 60.6982C480.147 62.1189 470.282 64.8277 460.535 67.8555L460.529 67.8574C449.988 71.1282 440.556 75.2236 431.629 79.8018L431.621 79.8057C421.776 84.8489 415.104 90.0522 403.369 97.2402L403.361 97.2451C392.796 103.71 381.635 109.209 371.451 114.426L371.438 114.434C360.552 119.999 348.975 124.62 336.174 128.603L336.166 128.605C324.788 132.14 312.593 134.73 299.026 136.496C290.801 137.572 276.321 140.576 261.902 140.576C247.503 140.576 234.047 138.21 224.726 136.999L224.721 136.998C210.528 135.151 198.342 131.843 187.665 128.526C175.406 124.722 163.452 120.493 152.204 114.726V114.727C141.951 109.474 130.838 103.954 120.298 97.5088C110.429 91.4736 101.43 85.9391 91.624 80.916V80.915C80.5868 75.2657 73.0195 70.7239 63.3105 67.7031V67.7021C55.1311 65.1624 45.5663 63.8517 32.5557 62.1582C20.7806 60.6287 11.5603 58.8457 0.572266 58.8457V18.8457C14.0833 18.8457 26.8455 21.0041 35.9395 22.2549L37.709 22.4922L37.7139 22.4932C49.5154 24.0292 62.2641 25.6441 74.0479 29.1602L75.1855 29.5059L75.1943 29.5088C88.3276 33.595 99.8991 40.1222 108.231 44.4727L109.854 45.3125L109.86 45.3154C121.254 51.1522 131.575 57.5181 141.166 63.3828C150.085 68.8371 159.493 73.5172 170.44 79.125L170.449 79.1299C178.146 83.0771 186.891 86.3378 197.395 89.6592L199.52 90.3242L199.525 90.3262C209.125 93.3083 218.876 95.8996 229.878 97.332C241.496 98.8412 250.902 100.576 261.902 100.576C272.884 100.576 281.122 98.4987 293.837 96.835L293.851 96.833C304.752 95.4141 314.154 93.4362 322.618 90.917L324.299 90.4062C335.214 87.0096 344.635 83.2117 353.228 78.8184C364.237 73.1786 373.572 68.5787 382.483 63.126C389.967 58.5411 401.298 50.5399 412.318 44.7578L413.384 44.2051C423.913 38.8057 435.496 33.745 448.669 29.6572V29.6562C459.2 26.3846 471.614 22.8927 485.9 21.0332L485.906 21.0322C498.047 19.4552 513.033 20.5059 523.242 20.5059C536.416 20.5059 548.736 21.0208 560.383 22.5439C573.425 24.2414 585.941 26.4178 597.686 30.0664L597.694 30.0684C610.794 34.1442 622.326 39.098 632.939 44.5352H632.94C644.444 50.4282 655.185 57.5245 664.109 62.9912C673.347 68.6497 681.917 73.9137 691.03 78.6875L692.86 79.6357L692.869 79.6396C701.597 84.1159 711.133 88.0967 721.874 91.4385H721.873C731.291 94.3639 741.303 96.9041 752.428 98.3525H752.429C761.202 99.4921 770.582 99.0557 784.582 99.0557C796.665 99.0557 807.175 98.4741 816.567 97.2451L816.581 97.2432C828.123 95.7409 838.103 93.5234 847.07 90.7383C858.722 87.1132 868.157 83.7845 876.293 79.6162L876.294 79.6152C886.183 74.5495 892.612 69.4091 904.525 62.1113C915.118 55.6232 926.831 50.1203 936.527 45.1484C946.072 40.2535 957.666 34.2277 971.421 29.9482L971.429 29.9463C982.319 26.5631 994.59 23.4327 1008.62 21.5947L1008.65 21.5928C1019.12 20.2318 1031.78 18.6357 1045.9 18.6357Z" fill="white"/>
<path d="M1839.6 163.832C1838.29 135.528 1839 108.514 1839.63 80.5959C1838.71 59.8138 1840.16 53.0414 1839.89 32.25L1839.89 13.2789C1839.89 7.31618 1846.18 3.4491 1851.5 6.13959L1871.25 16.1245C1885.94 23.4286 1899.79 31.326 1914.02 39.2745C1923.91 44.7946 1934.63 49.9739 1944 56.386C1958.02 65.9878 1971.03 74.7208 1985.64 83.468L2039.72 115.015C2045.03 118.11 2045.02 125.795 2039.72 128.904C2029.93 134.65 2016.61 142.57 2009.89 147.033C1998.49 154.601 1988.19 159.82 1977.16 165.98C1964.65 172.967 1952.21 180.63 1939.83 187.953C1933.28 191.824 1926.94 196.032 1920.39 199.82C1906.58 207.796 1894.91 217.424 1879.5 224.609C1871.1 228.529 1860.37 233.618 1852.36 237.432C1847.05 239.964 1840.9 236.089 1840.87 230.201C1840.78 213.293 1840.5 183.266 1839.6 163.832Z" fill="white"/>
</svg>
