<svg width="420" height="502" viewBox="0 0 420 502" fill="none" xmlns="http://www.w3.org/2000/svg">
<path d="M1 2.65061C42.8392 2.73984 42.8392 3.3772 84.6783 3.4027C126.517 3.4027 126.517 2.53588 168.357 2.49764C210.196 2.44665 210.196 2.57412 252.035 2.52313C293.874 2.48489 293.874 2.71434 335.724 2.71434C377.563 2.73984 377.563 3.22424 419.413 3.35171" stroke="white" stroke-width="4.06137" stroke-miterlimit="10"/>
<path d="M1 16.1755C28.8928 16.6769 56.7855 16.9701 84.6783 17.0551C126.517 17.0168 126.517 17.1698 168.357 16.8256C210.196 16.4177 210.196 17.31 252.035 16.8639C293.874 16.4942 293.874 16.2647 335.724 16.2137C377.563 16.3795 377.563 15.8186 419.413 16.5834" stroke="white" stroke-width="4.06137" stroke-miterlimit="10"/>
<path d="M1 31.3827C42.8392 32.8359 42.8392 32.1985 84.6783 32.4917C112.571 32.4407 140.464 32.224 168.357 31.8416C210.196 31.064 210.196 31.2934 252.035 30.5031C293.874 29.8402 293.874 29.1136 335.724 29.0244C377.563 29.3176 377.563 29.9805 419.413 31.4337" stroke="white" stroke-width="4.06137" stroke-miterlimit="10"/>
<path d="M1 44.2063C42.8392 46.2076 42.8392 45.9271 84.6783 46.3223C126.517 46.2076 126.517 45.9399 168.357 45.0476C196.249 44.3337 224.142 43.6029 252.035 42.855C293.874 41.95 293.874 42.1157 335.724 42.001C377.563 42.4089 377.563 42.5491 419.413 44.5504" stroke="white" stroke-width="4.06137" stroke-miterlimit="10"/>
<path d="M1 58.3562C42.8392 60.9184 42.8392 60.7781 84.6783 61.3008C126.517 61.1478 126.517 60.9439 168.357 59.7711C210.196 58.3817 210.196 57.757 252.035 56.3803C293.874 55.2203 293.874 55.8322 335.724 55.6792C377.563 56.2019 377.563 55.59 419.413 58.1395" stroke="white" stroke-width="4.06137" stroke-miterlimit="10"/>
<path d="M1 71.1159C42.8392 74.1498 42.8392 74.9146 84.6783 75.552C126.517 75.3735 126.517 75.7177 168.357 74.3155C196.249 73.1937 224.142 72.0507 252.035 70.8865C293.874 69.4715 293.874 68.7322 335.724 68.5537C377.563 69.1783 377.563 68.8214 419.413 71.8808" stroke="white" stroke-width="4.06137" stroke-miterlimit="10"/>
<path d="M1 86.2723C42.8392 89.8415 42.8392 88.7453 84.6783 89.4719C126.517 89.2679 126.517 88.9747 168.357 87.3558C210.196 85.4437 210.196 86.2978 252.035 84.3602C293.874 82.7286 293.874 82.2059 335.724 82.002C377.563 82.7285 377.563 82.0147 419.413 85.5585" stroke="white" stroke-width="4.06137" stroke-miterlimit="10"/>
<path d="M1 99.7332C42.8392 103.723 42.8392 103.009 84.6783 103.825C126.517 103.596 126.517 104.22 168.357 102.397C210.196 100.218 210.196 98.688 252.035 96.5464C293.874 94.7363 293.874 94.4941 335.724 94.2646C377.563 95.0805 377.563 96.011 419.413 100.014" stroke="white" stroke-width="4.06137" stroke-miterlimit="10"/>
<path d="M1 113.5C42.8392 117.885 42.8392 117.388 84.6783 118.281C112.571 118.111 140.464 117.363 168.357 116.037C196.249 114.448 224.142 112.876 252.035 111.321C293.874 109.307 293.874 107.904 335.724 107.649C377.563 108.542 377.563 108.389 419.413 112.748" stroke="white" stroke-width="4.06137" stroke-miterlimit="10"/>
<path d="M1 127.612C42.8392 132.367 42.8392 132.061 84.6783 133.03C126.517 132.749 126.517 131.997 168.357 129.83C210.196 127.255 210.196 126.911 252.035 124.336C293.874 122.169 293.874 122.386 335.724 122.118C377.563 123.087 377.563 122.003 419.413 126.733" stroke="white" stroke-width="4.06137" stroke-miterlimit="10"/>
<path d="M1 140.55C42.8392 145.611 42.8392 146.045 84.6783 147.09C112.571 146.894 140.464 145.994 168.357 144.387C210.196 141.621 210.196 141.073 252.035 138.32C293.874 136 293.874 134.929 335.724 134.636C377.563 135.668 377.563 135.222 419.413 140.283" stroke="white" stroke-width="4.06137" stroke-miterlimit="10"/>
<path d="M1 154.407C42.8392 159.76 42.8392 159.531 84.6783 160.615C126.517 160.309 126.517 159.748 168.357 157.313C210.196 154.407 210.196 154.101 252.035 151.207C293.874 148.772 293.874 148.403 335.724 148.097C377.563 149.193 377.563 148.874 419.413 154.215" stroke="white" stroke-width="4.06137" stroke-miterlimit="10"/>
<path d="M1 168.671C42.8392 174.279 42.8392 174.012 84.6783 175.159C126.517 174.84 126.517 174.471 168.357 171.921C210.196 168.875 210.196 167.332 252.035 164.298C293.874 161.749 293.874 162.373 335.724 162.042C377.563 163.189 377.563 162.042 419.413 167.625" stroke="white" stroke-width="4.06137" stroke-miterlimit="10"/>
<path d="M1 181.367C42.8392 187.167 42.8392 187.779 84.6783 188.977C112.571 188.756 140.464 187.796 168.357 186.097C210.196 182.935 210.196 182.54 252.035 179.379C293.874 176.727 293.874 174.981 335.724 174.649C363.617 175.44 391.513 177.798 419.413 181.724" stroke="white" stroke-width="4.06137" stroke-miterlimit="10"/>
<path d="M1 196.166C28.8928 200.161 56.7855 202.532 84.6783 203.279C126.517 202.935 126.517 202.476 168.357 199.748C210.196 196.498 210.196 195.402 252.035 192.151C293.874 189.423 293.874 188.99 335.724 188.646C377.563 189.869 377.563 190.264 419.413 196.256" stroke="white" stroke-width="4.06137" stroke-miterlimit="10"/>
<path d="M1 210.074C42.8392 216.192 42.8392 214.663 84.6783 215.912C126.517 215.555 126.517 215.976 168.357 213.184C196.249 210.966 224.142 208.735 252.035 206.492C293.874 203.7 293.874 203.152 335.724 202.795C377.563 204.044 377.563 203.445 419.413 209.551" stroke="white" stroke-width="4.06137" stroke-miterlimit="10"/>
<path d="M1 224.045C42.8392 230.266 42.8392 229.781 84.6783 231.056C126.517 230.699 126.517 228.965 168.357 226.135C210.196 222.77 210.196 223.612 252.035 220.246C293.874 217.416 293.874 216.741 335.724 216.384C377.563 217.659 377.563 217.174 419.413 223.382" stroke="white" stroke-width="4.06137" stroke-miterlimit="10"/>
<path d="M1 236.588C42.8392 242.847 42.8392 242.452 84.6783 243.727C112.571 243.489 140.464 242.405 168.357 240.476C210.196 237.073 210.196 237.2 252.035 233.797C279.928 231.893 307.824 230.805 335.724 230.533C377.563 231.821 377.563 230.227 419.413 236.499" stroke="white" stroke-width="4.06137" stroke-miterlimit="10"/>
<path d="M1 250.394C42.8392 256.678 42.8392 257.316 84.6783 258.591C126.517 258.221 126.517 256.602 168.357 253.734C210.196 250.318 210.196 249.999 252.035 246.595C279.928 244.683 307.824 243.595 335.724 243.332C377.563 244.62 377.563 244.365 419.413 250.649" stroke="white" stroke-width="4.06137" stroke-miterlimit="10"/>
<path d="M1 264.162C42.8392 270.434 42.8392 270.115 84.6783 271.39C126.517 271.033 126.517 270.293 168.357 267.438C210.196 264.034 210.196 263.665 252.035 260.261C293.874 257.406 293.874 258.336 335.724 257.979C377.563 259.254 377.563 258.91 419.413 265.169" stroke="white" stroke-width="4.06137" stroke-miterlimit="10"/>
<path d="M1 277.927C42.8392 284.135 42.8392 283.791 84.6783 285.066C112.571 284.828 140.464 283.736 168.357 281.79C210.196 278.412 210.196 278.552 252.035 275.187C293.874 272.357 293.874 271.49 335.724 271.12C377.563 272.382 377.563 272.102 419.413 278.31" stroke="white" stroke-width="4.06137" stroke-miterlimit="10"/>
<path d="M1 291.759C42.8392 297.878 42.8392 297.623 84.6783 298.872C126.517 298.515 126.517 298.056 168.357 295.265C210.196 291.938 210.196 291.288 252.035 287.961C293.874 285.169 293.874 284.825 335.724 284.468C377.563 285.717 377.563 285.284 419.413 291.402" stroke="white" stroke-width="4.06137" stroke-miterlimit="10"/>
<path d="M1 306.099C42.8392 312.078 42.8392 311.313 84.6783 312.537C126.517 312.192 126.517 312.46 168.357 309.732C210.196 306.482 210.196 305.806 252.035 302.556C293.874 299.828 293.874 299.343 335.724 298.999C377.563 300.223 377.563 299.267 419.413 305.258" stroke="white" stroke-width="4.06137" stroke-miterlimit="10"/>
<path d="M1 319.408C42.8392 325.221 42.8392 325.4 84.6783 326.585C112.571 326.364 140.464 325.404 168.357 323.704C210.196 320.556 210.196 319.396 252.035 316.247C293.874 313.596 293.874 313.009 335.724 312.678C377.563 313.863 377.563 314.271 419.413 320.071" stroke="white" stroke-width="4.06137" stroke-miterlimit="10"/>
<path d="M1 333.953C42.8392 339.536 42.8392 338.733 84.6783 339.88C126.517 339.549 126.517 339.906 168.357 337.357C210.196 334.323 210.196 332.882 252.035 329.836C279.928 328.136 307.824 327.205 335.724 327.044C377.563 328.191 377.563 328.446 419.413 334.042" stroke="white" stroke-width="4.06137" stroke-miterlimit="10"/>
<path d="M1 347.21C42.8392 352.564 42.8392 352.984 84.6783 354.08C126.517 353.775 126.517 352.564 168.357 350.129C210.196 347.222 210.196 347.745 252.035 344.851C293.874 342.417 293.874 341.116 335.724 340.811C377.563 341.907 377.563 341.677 419.413 347.031" stroke="white" stroke-width="4.06137" stroke-miterlimit="10"/>
<path d="M1 361.231C42.8392 366.292 42.8392 365.247 84.6783 366.279C126.517 365.986 126.517 365.425 168.357 363.105C210.196 360.339 210.196 361.231 252.035 358.491C293.874 356.196 293.874 354.832 335.724 354.539C377.563 355.572 377.563 356.349 419.413 361.41" stroke="white" stroke-width="4.06137" stroke-miterlimit="10"/>
<path d="M1 374.668C42.8392 379.41 42.8392 379.677 84.6783 380.646C112.571 380.468 140.464 379.647 168.357 378.186C210.196 375.624 210.196 374.4 252.035 371.825C293.874 369.658 293.874 370.27 335.724 369.989C377.563 370.958 377.563 369.594 419.413 374.349" stroke="white" stroke-width="4.06137" stroke-miterlimit="10"/>
<path d="M1 387.785C42.8392 392.183 42.8392 392.998 84.6783 393.891C112.571 393.721 140.464 392.96 168.357 391.609C210.196 389.238 210.196 387.925 252.035 385.528C279.928 384.194 307.824 383.468 335.724 383.349C377.563 384.241 377.563 383.565 419.413 387.95" stroke="white" stroke-width="4.06137" stroke-miterlimit="10"/>
<path d="M1 401.896C42.8392 405.886 42.8392 406.37 84.6783 407.186C112.571 407.033 140.464 406.375 168.357 405.21C210.196 403.069 210.196 402.291 252.035 400.124C279.928 398.918 307.824 398.259 335.724 398.148C377.563 398.964 377.563 398.021 419.413 401.998" stroke="white" stroke-width="4.06137" stroke-miterlimit="10"/>
<path d="M1 415.395C42.8392 418.964 42.8392 419.653 84.6783 420.367C112.571 420.231 140.464 419.614 168.357 418.518C210.196 416.606 210.196 416.096 252.035 414.171C279.928 413.101 307.824 412.501 335.724 412.374C377.563 413.088 377.563 412.769 419.413 416.3" stroke="white" stroke-width="4.06137" stroke-miterlimit="10"/>
<path d="M1 429.302C42.8392 432.387 42.8392 433.152 84.6783 433.776C126.517 433.598 126.517 432.591 168.357 431.189C210.196 429.519 210.196 430.105 252.035 428.461C293.874 427.071 293.874 425.847 335.724 425.669C377.563 426.294 377.563 427.058 419.413 430.105" stroke="white" stroke-width="4.06137" stroke-miterlimit="10"/>
<path d="M1 443.656C42.8392 446.192 42.8392 445.606 84.6783 446.129C126.517 445.976 126.517 446.638 168.357 445.491C196.249 444.573 224.142 443.673 252.035 442.789C293.874 441.641 293.874 441.106 335.724 440.953C377.563 441.476 377.563 440.634 419.413 443.209" stroke="white" stroke-width="4.06137" stroke-miterlimit="10"/>
<path d="M1 457.372C42.8392 459.361 42.8392 458.418 84.6783 458.826C126.517 458.711 126.517 459.297 168.357 458.392C210.196 457.309 210.196 457.819 252.035 456.748C279.928 456.153 307.824 455.779 335.724 455.626C377.563 456.034 377.563 455.346 419.413 457.334" stroke="white" stroke-width="4.06137" stroke-miterlimit="10"/>
<path d="M1 470.489C42.8392 471.917 42.8392 472.083 84.6783 472.376C126.517 472.287 126.517 472.707 168.357 472.07C210.196 471.318 210.196 470.183 252.035 469.393C293.874 468.73 293.874 469.049 335.724 468.96C363.617 469.155 391.513 469.725 419.413 470.668" stroke="white" stroke-width="4.06137" stroke-miterlimit="10"/>
<path d="M1 484.969C42.8392 485.734 42.8392 485.173 84.6783 485.339C126.517 485.288 126.517 484.867 168.357 484.498C210.196 484.052 210.196 484.294 252.035 483.86C293.874 483.491 293.874 484.09 335.724 484.039C377.563 484.192 377.563 483.3 419.413 484.115" stroke="white" stroke-width="4.06137" stroke-miterlimit="10"/>
<path d="M1 499.03C28.8928 499.09 56.7855 499.141 84.6783 499.183C126.517 499.183 126.517 498.533 168.357 498.482C196.249 498.44 224.142 498.355 252.035 498.227C293.874 498.163 293.874 498.482 335.724 498.469C377.563 498.495 377.563 499.081 419.413 499.158" stroke="white" stroke-width="4.06137" stroke-miterlimit="10"/>
</svg>
